M48
; DRILL file {KiCad 9.0.6} date 2026-01-24T12:13:55+0800
; FORMAT={-:-/ absolute / inch / decimal}
; #@! TF.CreationDate,2026-01-24T12:13:55+08:00
; #@! TF.GenerationSoftware,Kicad,Pcbnew,9.0.6
; #@! TF.FileFunction,Plated,1,2,PTH
FMAT,2
INCH
; #@! TA.AperFunction,Plated,PTH,ViaDrill
T1C0.0118
; #@! TA.AperFunction,Plated,PTH,ViaDrill
T2C0.0197
; #@! TA.AperFunction,Plated,PTH,ComponentDrill
T3C0.0374
; #@! TA.AperFunction,Plated,PTH,ComponentDrill
T4C0.0394
; #@! TA.AperFunction,Plated,PTH,ComponentDrill
T5C0.0402
; #@! TA.AperFunction,Plated,PTH,ComponentDrill
T6C0.0866
; #@! TA.AperFunction,Plated,PTH,ComponentDrill
T7C0.1260
%
G90
G05
T1
X-2.811Y0.3701
X-1.9685Y0.1083
X-1.9666Y0.1647
X-1.9609Y-0.2221
X-1.9393Y0.1534
X-1.932Y-0.2279
X-1.8967Y0.5452
X-1.8799Y-0.6004
X-1.8721Y0.5288
X-1.8504Y-0.6004
X-1.7815Y0.1043
X-1.7538Y0.9048
X-1.733Y0.8839
X-1.7267Y-0.9556
X-1.6977Y-0.9499
X-1.6929Y-1.0081
X-1.5436Y1.2295
X-1.5272Y1.205
X-1.5071Y-1.2741
X-1.4798Y-1.2628
X-1.3031Y-1.0081
X-1.2741Y1.5071
X-1.2628Y1.4798
X-1.2295Y-1.5436
X-1.205Y-1.5272
X-0.9556Y1.7267
X-0.9499Y1.6977
X-0.9048Y-1.7538
X-0.8898Y-0.4055
X-0.8839Y-1.733
X-0.8819Y1.685
X-0.8819Y1.6535
X-0.8189Y-0.3465
X-0.6004Y1.8799
X-0.6004Y1.8504
X-0.5452Y-1.8967
X-0.5315Y0.0433
X-0.5288Y-1.8721
X-0.4843Y1.311
X-0.4094Y0.0492
X-0.3858Y2.4173
X-0.3839Y0.2559
X-0.3827Y-0.0697
X-0.3661Y1.4291
X-0.3571Y-0.0413
X-0.3465Y2.4173
X-0.3189Y0.1732
X-0.3189Y0.1378
X-0.3189Y0.1024
X-0.2279Y1.932
X-0.2221Y1.9609
X-0.1929Y2.815
X-0.1647Y-1.9666
X-0.1534Y-1.9393
X-0.0984Y2.815
X-0.0197Y0.5807
X0.0Y2.815
X0.0098Y1.7618
X0.0098Y1.7323
X0.0984Y2.815
X0.128Y1.9291
X0.128Y1.8996
X0.1534Y1.9393
X0.1647Y1.9666
X0.2221Y-1.9609
X0.2279Y-1.932
X0.3071Y-0.1024
X0.3071Y-0.1378
X0.3071Y-0.1732
X0.3307Y2.4094
X0.3307Y2.2047
X0.3465Y0.0591
X0.3622Y2.2047
X0.3642Y0.5807
X0.3681Y0.2283
X0.3976Y-0.2264
X0.5Y2.9764
X0.5288Y1.8721
X0.5452Y1.8967
X0.6004Y-1.8504
X0.6004Y-1.8799
X0.6272Y-0.2335
X0.7776Y0.0492
X0.8031Y2.3701
X0.8504Y2.4094
X0.8839Y1.733
X0.9048Y1.7538
X0.9291Y2.4331
X0.9499Y-1.6977
X0.9556Y-1.7267
X0.9843Y0.0492
X0.9921Y2.4646
X1.205Y1.5272
X1.2295Y1.5436
X1.2628Y-1.4798
X1.2741Y-1.5071
X1.437Y1.1319
X1.4798Y1.2628
X1.5071Y1.2741
X1.5272Y-1.205
X1.5436Y-1.2295
X1.6965Y1.0081
X1.6977Y0.9499
X1.7267Y0.9556
X1.733Y-0.8839
X1.7538Y-0.9048
X1.8504Y0.6004
X1.8721Y-0.5288
X1.8799Y0.6004
X1.8967Y-0.5452
X1.932Y0.2279
X1.9393Y-0.1534
X1.9609Y0.2221
X1.9666Y-0.1647
X2.1811Y0.8386
X2.2402Y0.5118
X2.685Y0.5709
X2.9341Y0.2451
T2
X-2.9291Y0.5512
X-2.8189Y0.5512
X-2.811Y0.4331
X-2.6339Y0.4331
X-2.6339Y0.3386
X-2.3307Y0.4331
X-2.3307Y0.3386
X-2.0866Y0.5984
X-1.0394Y2.9764
X-0.9213Y3.0157
X-0.9134Y3.126
X-0.8346Y3.0472
X-0.7795Y3.126
X-0.6998Y2.1801
X0.2441Y2.9764
X0.3465Y2.9764
X0.5276Y2.6142
T3
X-3.0787Y-0.9685
X-3.0669Y0.937
X-2.9803Y-0.9685
X-2.9685Y0.937
X-2.8819Y-0.9685
X-2.8701Y0.937
X-2.7835Y-0.9685
X-2.7717Y0.937
X-2.685Y-0.9685
X-2.6732Y0.937
X-2.5866Y-0.9685
X-2.5748Y0.937
X-2.4882Y-0.9685
X-2.4764Y0.937
X-2.3898Y-0.9685
X-2.378Y0.937
X-0.3996Y3.1811
X-0.3012Y3.1811
X-0.2028Y3.1811
X-0.1043Y3.1811
X-0.0059Y3.1811
X0.0925Y3.1811
X0.1909Y3.1811
X0.2894Y3.1811
X0.3878Y3.1811
X2.4331Y-0.9685
X2.437Y0.9449
X2.5315Y-0.9685
X2.5354Y0.9449
X2.6299Y-0.9685
X2.6339Y0.9449
X2.7283Y-0.9685
X2.7323Y0.9449
X2.8268Y-0.9685
X2.8307Y0.9449
X2.9252Y-0.9685
X2.9291Y0.9449
X3.0236Y-0.9685
X3.0276Y0.9449
X3.122Y-0.9685
X3.126Y0.9449
T4
X-3.077Y0.6701
X-3.077Y-0.6976
X-2.977Y0.6701
X-2.977Y-0.6976
X-2.877Y0.6701
X-2.877Y-0.6976
X-2.777Y0.6701
X-2.777Y-0.6976
X-2.677Y0.6701
X-2.677Y-0.6976
X-2.577Y0.6701
X-2.577Y-0.6976
X-2.477Y0.6701
X-2.477Y-0.6976
X-2.377Y0.6701
X-2.377Y-0.6976
X2.4341Y0.6831
X2.4341Y-0.6846
X2.5341Y0.6831
X2.5341Y-0.6846
X2.6341Y0.6831
X2.6341Y-0.6846
X2.7341Y0.6831
X2.7341Y-0.6846
X2.8341Y0.6831
X2.8341Y-0.6846
X2.9341Y0.6831
X2.9341Y-0.6846
X3.0341Y0.6831
X3.0341Y-0.6846
X3.1341Y0.6831
X3.1341Y-0.6846
T5
X-0.65Y2.8787
X-0.65Y2.7787
X-0.65Y2.6787
X-0.65Y2.5787
X-0.65Y2.4787
X-0.65Y2.3787
X-0.65Y2.2787
X-0.55Y2.8787
X-0.55Y2.2787
X-0.45Y2.8787
X-0.45Y2.2787
X-0.35Y2.8787
X-0.35Y2.2787
X-0.25Y2.8787
X-0.25Y2.2787
X-0.15Y2.8787
X-0.15Y2.2787
X-0.05Y2.8787
X-0.05Y2.2787
X0.05Y2.8787
X0.05Y2.2787
X0.15Y2.8787
X0.15Y2.2787
X0.25Y2.8787
X0.25Y2.2787
X0.35Y2.8787
X0.35Y2.2787
X0.45Y2.8787
X0.45Y2.2787
X0.55Y2.8787
X0.55Y2.2787
X0.65Y2.8787
X0.65Y2.2787
T6
X-0.0001Y-1.3943
X-0.0001Y-2.5754
T7
X-2.9655Y1.3727
X-2.9655Y-1.3726
X-1.9444Y1.1649
X-1.9444Y-1.1647
X-1.5748Y0.8858
X-1.5748Y-0.8858
X-1.3728Y2.9655
X-1.2966Y-2.9994
X-1.1649Y1.9444
X-1.1649Y-1.9442
X-0.4922Y-1.5911
X-0.4922Y-2.5754
X-0.3938Y0.8613
X-0.3937Y1.6496
X-0.1576Y0.3938
X-0.1575Y-0.3937
X0.1574Y0.3938
X0.1575Y-0.3937
X0.3937Y1.6535
X0.3937Y0.8612
X0.4823Y-1.5945
X0.492Y-2.5754
X1.1647Y1.9444
X1.1647Y-1.9442
X1.2964Y-2.9994
X1.3725Y2.9655
X1.5551Y-0.8858
X1.5748Y0.8858
X1.9442Y1.1649
X1.9442Y-1.1647
X2.9653Y1.3727
X2.9653Y-1.3726
M30
