%TF.GenerationSoftware,KiCad,Pcbnew,9.0.6*%
%TF.CreationDate,2026-01-24T12:13:54+08:00*%
%TF.ProjectId,layer1,6c617965-7231-42e6-9b69-6361645f7063,rev?*%
%TF.SameCoordinates,Original*%
%TF.FileFunction,Legend,Bot*%
%TF.FilePolarity,Positive*%
%FSLAX46Y46*%
G04 Gerber Fmt 4.6, Leading zero omitted, Abs format (unit mm)*
G04 Created by KiCad (PCBNEW 9.0.6) date 2026-01-24 12:13:54*
%MOMM*%
%LPD*%
G01*
G04 APERTURE LIST*
G04 Aperture macros list*
%AMRoundRect*
0 Rectangle with rounded corners*
0 $1 Rounding radius*
0 $2 $3 $4 $5 $6 $7 $8 $9 X,Y pos of 4 corners*
0 Add a 4 corners polygon primitive as box body*
4,1,4,$2,$3,$4,$5,$6,$7,$8,$9,$2,$3,0*
0 Add four circle primitives for the rounded corners*
1,1,$1+$1,$2,$3*
1,1,$1+$1,$4,$5*
1,1,$1+$1,$6,$7*
1,1,$1+$1,$8,$9*
0 Add four rect primitives between the rounded corners*
20,1,$1+$1,$2,$3,$4,$5,0*
20,1,$1+$1,$4,$5,$6,$7,0*
20,1,$1+$1,$6,$7,$8,$9,0*
20,1,$1+$1,$8,$9,$2,$3,0*%
%AMRotRect*
0 Rectangle, with rotation*
0 The origin of the aperture is its center*
0 $1 length*
0 $2 width*
0 $3 Rotation angle, in degrees counterclockwise*
0 Add horizontal line*
21,1,$1,$2,0,0,$3*%
G04 Aperture macros list end*
%ADD10C,0.300000*%
%ADD11C,0.120000*%
%ADD12C,0.127000*%
%ADD13C,0.200000*%
%ADD14RoundRect,0.250000X0.600000X0.725000X-0.600000X0.725000X-0.600000X-0.725000X0.600000X-0.725000X0*%
%ADD15O,1.700000X1.950000*%
%ADD16C,3.600000*%
%ADD17C,5.600000*%
%ADD18R,1.700000X1.700000*%
%ADD19O,1.700000X1.700000*%
%ADD20C,1.734000*%
%ADD21RoundRect,0.250000X-0.600000X-0.725000X0.600000X-0.725000X0.600000X0.725000X-0.600000X0.725000X0*%
%ADD22C,2.600000*%
%ADD23C,3.800000*%
%ADD24R,2.200000X2.200000*%
%ADD25R,2.200000X1.250000*%
%ADD26RoundRect,0.200000X0.335876X0.053033X0.053033X0.335876X-0.335876X-0.053033X-0.053033X-0.335876X0*%
%ADD27RotRect,2.200000X2.200000X157.500000*%
%ADD28RotRect,1.250000X2.200000X157.500000*%
%ADD29RotRect,2.200000X2.200000X22.500000*%
%ADD30RotRect,1.250000X2.200000X22.500000*%
%ADD31RoundRect,0.200000X-0.230698X0.249807X-0.308734X-0.142507X0.230698X-0.249807X0.308734X0.142507X0*%
%ADD32R,1.250000X2.200000*%
%ADD33RotRect,2.200000X2.200000X326.250000*%
%ADD34RotRect,1.250000X2.200000X326.250000*%
%ADD35RotRect,2.200000X2.200000X56.250000*%
%ADD36RotRect,1.250000X2.200000X56.250000*%
%ADD37RoundRect,0.200000X0.290014X0.177530X-0.079538X0.330604X-0.290014X-0.177530X0.079538X-0.330604X0*%
%ADD38RotRect,2.200000X2.200000X281.250000*%
%ADD39RotRect,1.250000X2.200000X281.250000*%
%ADD40RotRect,2.200000X2.200000X213.750000*%
%ADD41RotRect,1.250000X2.200000X213.750000*%
%ADD42RoundRect,0.200000X-0.177530X0.290014X-0.330604X-0.079538X0.177530X-0.290014X0.330604X0.079538X0*%
%ADD43RoundRect,0.200000X0.117540X-0.319076X0.339768X0.013512X-0.117540X0.319076X-0.339768X-0.013512X0*%
%ADD44RoundRect,0.225000X-0.250000X0.225000X-0.250000X-0.225000X0.250000X-0.225000X0.250000X0.225000X0*%
%ADD45RotRect,2.200000X2.200000X112.500000*%
%ADD46RotRect,1.250000X2.200000X112.500000*%
%ADD47RotRect,2.200000X2.200000X67.500000*%
%ADD48RotRect,1.250000X2.200000X67.500000*%
%ADD49RotRect,2.200000X2.200000X236.250000*%
%ADD50RotRect,1.250000X2.200000X236.250000*%
%ADD51RotRect,2.200000X2.200000X247.500000*%
%ADD52RotRect,1.250000X2.200000X247.500000*%
%ADD53RoundRect,0.225000X0.250000X-0.225000X0.250000X0.225000X-0.250000X0.225000X-0.250000X-0.225000X0*%
%ADD54RoundRect,0.200000X-0.053033X0.335876X-0.335876X0.053033X0.053033X-0.335876X0.335876X-0.053033X0*%
%ADD55RotRect,2.200000X2.200000X292.500000*%
%ADD56RotRect,1.250000X2.200000X292.500000*%
%ADD57RotRect,2.200000X2.200000X225.000000*%
%ADD58RotRect,1.250000X2.200000X225.000000*%
%ADD59RotRect,2.200000X2.200000X348.750000*%
%ADD60RotRect,1.250000X2.200000X348.750000*%
%ADD61RoundRect,0.200000X0.319076X0.117540X-0.013512X0.339768X-0.319076X-0.117540X0.013512X-0.339768X0*%
%ADD62RoundRect,0.200000X-0.308734X0.142507X-0.230698X-0.249807X0.308734X-0.142507X0.230698X0.249807X0*%
%ADD63RoundRect,0.200000X0.200000X0.275000X-0.200000X0.275000X-0.200000X-0.275000X0.200000X-0.275000X0*%
%ADD64RoundRect,0.200000X-0.275000X0.200000X-0.275000X-0.200000X0.275000X-0.200000X0.275000X0.200000X0*%
%ADD65RoundRect,0.200000X-0.013512X-0.339768X0.319076X-0.117540X0.013512X0.339768X-0.319076X0.117540X0*%
%ADD66RotRect,2.200000X2.200000X123.750000*%
%ADD67RotRect,1.250000X2.200000X123.750000*%
%ADD68RoundRect,0.200000X0.053033X-0.335876X0.335876X-0.053033X-0.053033X0.335876X-0.335876X0.053033X0*%
%ADD69RoundRect,0.200000X-0.339768X0.013512X-0.117540X-0.319076X0.339768X-0.013512X0.117540X0.319076X0*%
%ADD70RotRect,2.200000X2.200000X337.500000*%
%ADD71RotRect,1.250000X2.200000X337.500000*%
%ADD72RotRect,2.200000X2.200000X33.750000*%
%ADD73RotRect,1.250000X2.200000X33.750000*%
%ADD74RotRect,2.200000X2.200000X168.750000*%
%ADD75RotRect,1.250000X2.200000X168.750000*%
%ADD76RotRect,2.200000X2.200000X315.000000*%
%ADD77RotRect,1.250000X2.200000X315.000000*%
%ADD78RoundRect,0.200000X-0.330604X0.079538X-0.177530X-0.290014X0.330604X-0.079538X0.177530X0.290014X0*%
%ADD79RotRect,2.200000X2.200000X258.750000*%
%ADD80RotRect,1.250000X2.200000X258.750000*%
%ADD81RotRect,2.200000X2.200000X11.250000*%
%ADD82RotRect,1.250000X2.200000X11.250000*%
%ADD83RoundRect,0.200000X-0.249807X-0.230698X0.142507X-0.308734X0.249807X0.230698X-0.142507X0.308734X0*%
%ADD84RotRect,2.200000X2.200000X202.500000*%
%ADD85RotRect,1.250000X2.200000X202.500000*%
%ADD86RoundRect,0.200000X-0.142507X-0.308734X0.249807X-0.230698X0.142507X0.308734X-0.249807X0.230698X0*%
%ADD87RoundRect,0.085500X0.256500X-0.966500X0.256500X0.966500X-0.256500X0.966500X-0.256500X-0.966500X0*%
%ADD88RotRect,2.200000X2.200000X146.250000*%
%ADD89RotRect,1.250000X2.200000X146.250000*%
%ADD90RoundRect,0.200000X-0.290014X-0.177530X0.079538X-0.330604X0.290014X0.177530X-0.079538X0.330604X0*%
%ADD91RoundRect,0.085500X-0.256500X0.966500X-0.256500X-0.966500X0.256500X-0.966500X0.256500X0.966500X0*%
%ADD92RoundRect,0.200000X0.330604X-0.079538X0.177530X0.290014X-0.330604X0.079538X-0.177530X-0.290014X0*%
%ADD93RoundRect,0.200000X0.308734X-0.142507X0.230698X0.249807X-0.308734X0.142507X-0.230698X-0.249807X0*%
%ADD94RotRect,2.200000X2.200000X45.000000*%
%ADD95RotRect,1.250000X2.200000X45.000000*%
%ADD96RoundRect,0.200000X-0.335876X-0.053033X-0.053033X-0.335876X0.335876X0.053033X0.053033X0.335876X0*%
%ADD97RotRect,2.200000X2.200000X78.750000*%
%ADD98RotRect,1.250000X2.200000X78.750000*%
%ADD99RoundRect,0.200000X-0.117540X0.319076X-0.339768X-0.013512X0.117540X-0.319076X0.339768X0.013512X0*%
%ADD100RoundRect,0.200000X0.177530X-0.290014X0.330604X0.079538X-0.177530X0.290014X-0.330604X-0.079538X0*%
%ADD101RoundRect,0.200000X0.230698X-0.249807X0.308734X0.142507X-0.230698X0.249807X-0.308734X-0.142507X0*%
%ADD102RoundRect,0.200000X0.275000X-0.200000X0.275000X0.200000X-0.275000X0.200000X-0.275000X-0.200000X0*%
%ADD103RotRect,2.200000X2.200000X191.250000*%
%ADD104RotRect,1.250000X2.200000X191.250000*%
%ADD105RoundRect,0.200000X0.249807X0.230698X-0.142507X0.308734X-0.249807X-0.230698X0.142507X-0.308734X0*%
%ADD106RoundRect,0.200000X-0.319076X-0.117540X0.013512X-0.339768X0.319076X0.117540X-0.013512X0.339768X0*%
%ADD107RotRect,2.200000X2.200000X101.250000*%
%ADD108RotRect,1.250000X2.200000X101.250000*%
%ADD109RoundRect,0.200000X-0.200000X-0.275000X0.200000X-0.275000X0.200000X0.275000X-0.200000X0.275000X0*%
%ADD110RotRect,2.200000X2.200000X135.000000*%
%ADD111RotRect,1.250000X2.200000X135.000000*%
%ADD112RoundRect,0.200000X0.339768X-0.013512X0.117540X0.319076X-0.339768X0.013512X-0.117540X-0.319076X0*%
%ADD113RoundRect,0.200000X0.079538X0.330604X-0.290014X0.177530X-0.079538X-0.330604X0.290014X-0.177530X0*%
%ADD114RoundRect,0.200000X0.142507X0.308734X-0.249807X0.230698X-0.142507X-0.308734X0.249807X-0.230698X0*%
%ADD115RoundRect,0.200000X0.013512X0.339768X-0.319076X0.117540X-0.013512X-0.339768X0.319076X-0.117540X0*%
%ADD116RoundRect,0.200000X-0.079538X-0.330604X0.290014X-0.177530X0.079538X0.330604X-0.290014X0.177530X0*%
%ADD117RotRect,2.200000X2.200000X303.750000*%
%ADD118RotRect,1.250000X2.200000X303.750000*%
G04 APERTURE END LIST*
D10*
G36*
X-68113601Y-12655163D02*
G01*
X-68113601Y-12336670D01*
X-69632914Y-12135170D01*
X-69632914Y-12136391D01*
X-68113601Y-11935013D01*
X-68113601Y-11644486D01*
X-70080000Y-11942096D01*
X-70080000Y-12357431D01*
X-68113601Y-12655163D01*
G37*
G36*
X-68113601Y-11504657D02*
G01*
X-68113601Y-10657378D01*
X-68401197Y-10657378D01*
X-68401197Y-11188973D01*
X-68911054Y-11188973D01*
X-68911054Y-10766555D01*
X-69198650Y-10766555D01*
X-69198650Y-11188973D01*
X-69792405Y-11188973D01*
X-69792405Y-10657378D01*
X-70080000Y-10657378D01*
X-70080000Y-11504657D01*
X-68113601Y-11504657D01*
G37*
G36*
X-68113601Y-10488607D02*
G01*
X-68113601Y-10095498D01*
X-69285967Y-9796056D01*
X-69285967Y-9797399D01*
X-68113601Y-9797399D01*
X-68113601Y-9515421D01*
X-70080000Y-9515421D01*
X-70080000Y-9838554D01*
X-68650203Y-10207849D01*
X-68650203Y-10206506D01*
X-70080000Y-10206506D01*
X-70080000Y-10488607D01*
X-68113601Y-10488607D01*
G37*
G36*
X-68401197Y-9054046D02*
G01*
X-68401197Y-9375836D01*
X-68113601Y-9375836D01*
X-68113601Y-8416694D01*
X-68401197Y-8416694D01*
X-68401197Y-8738484D01*
X-70080000Y-8738484D01*
X-70080000Y-9054046D01*
X-68401197Y-9054046D01*
G37*
G36*
X-68113601Y-7829290D02*
G01*
X-68113601Y-6982012D01*
X-68401197Y-6982012D01*
X-68401197Y-7513607D01*
X-68911054Y-7513607D01*
X-68911054Y-7091189D01*
X-69198650Y-7091189D01*
X-69198650Y-7513607D01*
X-69792405Y-7513607D01*
X-69792405Y-6982012D01*
X-70080000Y-6982012D01*
X-70080000Y-7829290D01*
X-68113601Y-7829290D01*
G37*
G36*
X-69074453Y-6536147D02*
G01*
X-68113601Y-6876011D01*
X-68113601Y-6543230D01*
X-68745946Y-6336112D01*
X-68113601Y-6123498D01*
X-68113601Y-5824179D01*
X-69074453Y-6164165D01*
X-70080000Y-5807448D01*
X-70080000Y-6140351D01*
X-69397220Y-6364200D01*
X-69397220Y-6364078D01*
X-70080000Y-6593544D01*
X-70080000Y-6892863D01*
X-69074453Y-6536147D01*
G37*
G36*
X-68113601Y-5672138D02*
G01*
X-68113601Y-5356454D01*
X-68911054Y-5356454D01*
X-68911054Y-5034175D01*
X-68113601Y-5034175D01*
X-68113601Y-4718491D01*
X-70080000Y-4718491D01*
X-70080000Y-5034175D01*
X-69198650Y-5034175D01*
X-69198650Y-5356454D01*
X-70080000Y-5356454D01*
X-70080000Y-5672138D01*
X-68113601Y-5672138D01*
G37*
G36*
X-68113601Y-3835798D02*
G01*
X-68113601Y-4259315D01*
X-70080000Y-4579639D01*
X-70080000Y-4286182D01*
X-69696661Y-4230250D01*
X-69696661Y-4192759D01*
X-69422987Y-4192759D01*
X-68467103Y-4060128D01*
X-69422987Y-3924824D01*
X-69422987Y-4192759D01*
X-69696661Y-4192759D01*
X-69696661Y-3882640D01*
X-70080000Y-3831401D01*
X-70080000Y-3515473D01*
X-68113601Y-3835798D01*
G37*
G36*
X-70107966Y-2930512D02*
G01*
X-70098927Y-3042647D01*
X-70073652Y-3135080D01*
X-70033808Y-3211500D01*
X-69979495Y-3274650D01*
X-69912401Y-3324178D01*
X-69830837Y-3361090D01*
X-69731837Y-3384737D01*
X-69611665Y-3393230D01*
X-68113601Y-3393230D01*
X-68113601Y-3077668D01*
X-69634013Y-3077668D01*
X-69724330Y-3066371D01*
X-69776895Y-3038223D01*
X-69808842Y-2991794D01*
X-69820370Y-2924894D01*
X-69808832Y-2857909D01*
X-69776895Y-2811565D01*
X-69724330Y-2783417D01*
X-69634013Y-2772120D01*
X-68113601Y-2772120D01*
X-68113601Y-2467671D01*
X-69611665Y-2467671D01*
X-69731828Y-2476172D01*
X-69830825Y-2499840D01*
X-69912393Y-2536789D01*
X-69979495Y-2586373D01*
X-70033808Y-2649523D01*
X-70073652Y-2725943D01*
X-70098927Y-2818377D01*
X-70107966Y-2930512D01*
G37*
G36*
X-70107966Y-1852546D02*
G01*
X-70098884Y-1964740D01*
X-70073554Y-2056647D01*
X-70033717Y-2132116D01*
X-69979495Y-2193997D01*
X-69912527Y-2242255D01*
X-69831008Y-2278313D01*
X-69731961Y-2301451D01*
X-69611665Y-2309768D01*
X-69495772Y-2309768D01*
X-69495772Y-2010937D01*
X-69634013Y-2010937D01*
X-69721653Y-1999411D01*
X-69776499Y-1969704D01*
X-69808657Y-1923586D01*
X-69820370Y-1855355D01*
X-69808387Y-1786175D01*
X-69775430Y-1739339D01*
X-69721391Y-1711131D01*
X-69628395Y-1699772D01*
X-69512067Y-1714079D01*
X-69413462Y-1755337D01*
X-69319789Y-1826560D01*
X-69189247Y-1961478D01*
X-69071361Y-2084686D01*
X-68970604Y-2171188D01*
X-68884432Y-2228191D01*
X-68790884Y-2269940D01*
X-68688786Y-2295404D01*
X-68576319Y-2304151D01*
X-68459184Y-2295733D01*
X-68361946Y-2272206D01*
X-68281128Y-2235310D01*
X-68213985Y-2185571D01*
X-68159672Y-2122421D01*
X-68119827Y-2046001D01*
X-68094553Y-1953568D01*
X-68085513Y-1841433D01*
X-68094587Y-1730690D01*
X-68119904Y-1639955D01*
X-68159764Y-1565412D01*
X-68214107Y-1504256D01*
X-68280926Y-1456617D01*
X-68362382Y-1420968D01*
X-68461475Y-1398065D01*
X-68581937Y-1389828D01*
X-68666934Y-1389828D01*
X-68666934Y-1688537D01*
X-68562398Y-1688537D01*
X-68471741Y-1699471D01*
X-68418172Y-1726761D01*
X-68385147Y-1772118D01*
X-68373231Y-1838624D01*
X-68384649Y-1904102D01*
X-68416127Y-1948572D01*
X-68470121Y-1977375D01*
X-68556780Y-1988589D01*
X-68658249Y-1974454D01*
X-68753640Y-1931681D01*
X-68846227Y-1859439D01*
X-68976267Y-1724074D01*
X-69094535Y-1599387D01*
X-69195756Y-1513071D01*
X-69282548Y-1457361D01*
X-69377036Y-1417596D01*
X-69484082Y-1392853D01*
X-69606047Y-1384210D01*
X-69727625Y-1392808D01*
X-69827777Y-1416746D01*
X-69910286Y-1454114D01*
X-69978151Y-1504256D01*
X-70033017Y-1568112D01*
X-70073279Y-1645429D01*
X-70098827Y-1738993D01*
X-70107966Y-1852546D01*
G37*
G36*
X-68401197Y-974493D02*
G01*
X-68401197Y-1296283D01*
X-68113601Y-1296283D01*
X-68113601Y-337141D01*
X-68401197Y-337141D01*
X-68401197Y-658931D01*
X-70080000Y-658931D01*
X-70080000Y-974493D01*
X-68401197Y-974493D01*
G37*
G36*
X-70653601Y-12655163D02*
G01*
X-70653601Y-12336670D01*
X-72172914Y-12135170D01*
X-72172914Y-12136391D01*
X-70653601Y-11935013D01*
X-70653601Y-11644486D01*
X-72620000Y-11942096D01*
X-72620000Y-12357431D01*
X-70653601Y-12655163D01*
G37*
G36*
X-70653601Y-11504657D02*
G01*
X-70653601Y-10657378D01*
X-70941197Y-10657378D01*
X-70941197Y-11188973D01*
X-71451054Y-11188973D01*
X-71451054Y-10766555D01*
X-71738650Y-10766555D01*
X-71738650Y-11188973D01*
X-72332405Y-11188973D01*
X-72332405Y-10657378D01*
X-72620000Y-10657378D01*
X-72620000Y-11504657D01*
X-70653601Y-11504657D01*
G37*
G36*
X-70653601Y-10488607D02*
G01*
X-70653601Y-10095498D01*
X-71825967Y-9796056D01*
X-71825967Y-9797399D01*
X-70653601Y-9797399D01*
X-70653601Y-9515421D01*
X-72620000Y-9515421D01*
X-72620000Y-9838554D01*
X-71190203Y-10207849D01*
X-71190203Y-10206506D01*
X-72620000Y-10206506D01*
X-72620000Y-10488607D01*
X-70653601Y-10488607D01*
G37*
G36*
X-70941197Y-9054046D02*
G01*
X-70941197Y-9375836D01*
X-70653601Y-9375836D01*
X-70653601Y-8416694D01*
X-70941197Y-8416694D01*
X-70941197Y-8738484D01*
X-72620000Y-8738484D01*
X-72620000Y-9054046D01*
X-70941197Y-9054046D01*
G37*
G36*
X-70653601Y-7829290D02*
G01*
X-70653601Y-6982012D01*
X-70941197Y-6982012D01*
X-70941197Y-7513607D01*
X-71451054Y-7513607D01*
X-71451054Y-7091189D01*
X-71738650Y-7091189D01*
X-71738650Y-7513607D01*
X-72332405Y-7513607D01*
X-72332405Y-6982012D01*
X-72620000Y-6982012D01*
X-72620000Y-7829290D01*
X-70653601Y-7829290D01*
G37*
G36*
X-71614453Y-6536147D02*
G01*
X-70653601Y-6876011D01*
X-70653601Y-6543230D01*
X-71285946Y-6336112D01*
X-70653601Y-6123498D01*
X-70653601Y-5824179D01*
X-71614453Y-6164165D01*
X-72620000Y-5807448D01*
X-72620000Y-6140351D01*
X-71937220Y-6364200D01*
X-71937220Y-6364078D01*
X-72620000Y-6593544D01*
X-72620000Y-6892863D01*
X-71614453Y-6536147D01*
G37*
G36*
X-70653601Y-5672138D02*
G01*
X-70653601Y-5356454D01*
X-71451054Y-5356454D01*
X-71451054Y-5034175D01*
X-70653601Y-5034175D01*
X-70653601Y-4718491D01*
X-72620000Y-4718491D01*
X-72620000Y-5034175D01*
X-71738650Y-5034175D01*
X-71738650Y-5356454D01*
X-72620000Y-5356454D01*
X-72620000Y-5672138D01*
X-70653601Y-5672138D01*
G37*
G36*
X-70653601Y-3835798D02*
G01*
X-70653601Y-4259315D01*
X-72620000Y-4579639D01*
X-72620000Y-4286182D01*
X-72236661Y-4230250D01*
X-72236661Y-4192759D01*
X-71962987Y-4192759D01*
X-71007103Y-4060128D01*
X-71962987Y-3924824D01*
X-71962987Y-4192759D01*
X-72236661Y-4192759D01*
X-72236661Y-3882640D01*
X-72620000Y-3831401D01*
X-72620000Y-3515473D01*
X-70653601Y-3835798D01*
G37*
G36*
X-72647966Y-2930512D02*
G01*
X-72638927Y-3042647D01*
X-72613652Y-3135080D01*
X-72573808Y-3211500D01*
X-72519495Y-3274650D01*
X-72452401Y-3324178D01*
X-72370837Y-3361090D01*
X-72271837Y-3384737D01*
X-72151665Y-3393230D01*
X-70653601Y-3393230D01*
X-70653601Y-3077668D01*
X-72174013Y-3077668D01*
X-72264330Y-3066371D01*
X-72316895Y-3038223D01*
X-72348842Y-2991794D01*
X-72360370Y-2924894D01*
X-72348832Y-2857909D01*
X-72316895Y-2811565D01*
X-72264330Y-2783417D01*
X-72174013Y-2772120D01*
X-70653601Y-2772120D01*
X-70653601Y-2467671D01*
X-72151665Y-2467671D01*
X-72271828Y-2476172D01*
X-72370825Y-2499840D01*
X-72452393Y-2536789D01*
X-72519495Y-2586373D01*
X-72573808Y-2649523D01*
X-72613652Y-2725943D01*
X-72638927Y-2818377D01*
X-72647966Y-2930512D01*
G37*
G36*
X-72647966Y-1852546D02*
G01*
X-72638884Y-1964740D01*
X-72613554Y-2056647D01*
X-72573717Y-2132116D01*
X-72519495Y-2193997D01*
X-72452527Y-2242255D01*
X-72371008Y-2278313D01*
X-72271961Y-2301451D01*
X-72151665Y-2309768D01*
X-72035772Y-2309768D01*
X-72035772Y-2010937D01*
X-72174013Y-2010937D01*
X-72261653Y-1999411D01*
X-72316499Y-1969704D01*
X-72348657Y-1923586D01*
X-72360370Y-1855355D01*
X-72348387Y-1786175D01*
X-72315430Y-1739339D01*
X-72261391Y-1711131D01*
X-72168395Y-1699772D01*
X-72052067Y-1714079D01*
X-71953462Y-1755337D01*
X-71859789Y-1826560D01*
X-71729247Y-1961478D01*
X-71611361Y-2084686D01*
X-71510604Y-2171188D01*
X-71424432Y-2228191D01*
X-71330884Y-2269940D01*
X-71228786Y-2295404D01*
X-71116319Y-2304151D01*
X-70999184Y-2295733D01*
X-70901946Y-2272206D01*
X-70821128Y-2235310D01*
X-70753985Y-2185571D01*
X-70699672Y-2122421D01*
X-70659827Y-2046001D01*
X-70634553Y-1953568D01*
X-70625513Y-1841433D01*
X-70634587Y-1730690D01*
X-70659904Y-1639955D01*
X-70699764Y-1565412D01*
X-70754107Y-1504256D01*
X-70820926Y-1456617D01*
X-70902382Y-1420968D01*
X-71001475Y-1398065D01*
X-71121937Y-1389828D01*
X-71206934Y-1389828D01*
X-71206934Y-1688537D01*
X-71102398Y-1688537D01*
X-71011741Y-1699471D01*
X-70958172Y-1726761D01*
X-70925147Y-1772118D01*
X-70913231Y-1838624D01*
X-70924649Y-1904102D01*
X-70956127Y-1948572D01*
X-71010121Y-1977375D01*
X-71096780Y-1988589D01*
X-71198249Y-1974454D01*
X-71293640Y-1931681D01*
X-71386227Y-1859439D01*
X-71516267Y-1724074D01*
X-71634535Y-1599387D01*
X-71735756Y-1513071D01*
X-71822548Y-1457361D01*
X-71917036Y-1417596D01*
X-72024082Y-1392853D01*
X-72146047Y-1384210D01*
X-72267625Y-1392808D01*
X-72367777Y-1416746D01*
X-72450286Y-1454114D01*
X-72518151Y-1504256D01*
X-72573017Y-1568112D01*
X-72613279Y-1645429D01*
X-72638827Y-1738993D01*
X-72647966Y-1852546D01*
G37*
G36*
X-70941197Y-974493D02*
G01*
X-70941197Y-1296283D01*
X-70653601Y-1296283D01*
X-70653601Y-337141D01*
X-70941197Y-337141D01*
X-70941197Y-658931D01*
X-72620000Y-658931D01*
X-72620000Y-974493D01*
X-70941197Y-974493D01*
G37*
G36*
X-73193601Y-12655163D02*
G01*
X-73193601Y-12336670D01*
X-74712914Y-12135170D01*
X-74712914Y-12136391D01*
X-73193601Y-11935013D01*
X-73193601Y-11644486D01*
X-75160000Y-11942096D01*
X-75160000Y-12357431D01*
X-73193601Y-12655163D01*
G37*
G36*
X-73193601Y-11504657D02*
G01*
X-73193601Y-10657378D01*
X-73481197Y-10657378D01*
X-73481197Y-11188973D01*
X-73991054Y-11188973D01*
X-73991054Y-10766555D01*
X-74278650Y-10766555D01*
X-74278650Y-11188973D01*
X-74872405Y-11188973D01*
X-74872405Y-10657378D01*
X-75160000Y-10657378D01*
X-75160000Y-11504657D01*
X-73193601Y-11504657D01*
G37*
G36*
X-73193601Y-10488607D02*
G01*
X-73193601Y-10095498D01*
X-74365967Y-9796056D01*
X-74365967Y-9797399D01*
X-73193601Y-9797399D01*
X-73193601Y-9515421D01*
X-75160000Y-9515421D01*
X-75160000Y-9838554D01*
X-73730203Y-10207849D01*
X-73730203Y-10206506D01*
X-75160000Y-10206506D01*
X-75160000Y-10488607D01*
X-73193601Y-10488607D01*
G37*
G36*
X-73481197Y-9054046D02*
G01*
X-73481197Y-9375836D01*
X-73193601Y-9375836D01*
X-73193601Y-8416694D01*
X-73481197Y-8416694D01*
X-73481197Y-8738484D01*
X-75160000Y-8738484D01*
X-75160000Y-9054046D01*
X-73481197Y-9054046D01*
G37*
G36*
X-73193601Y-7829290D02*
G01*
X-73193601Y-6982012D01*
X-73481197Y-6982012D01*
X-73481197Y-7513607D01*
X-73991054Y-7513607D01*
X-73991054Y-7091189D01*
X-74278650Y-7091189D01*
X-74278650Y-7513607D01*
X-74872405Y-7513607D01*
X-74872405Y-6982012D01*
X-75160000Y-6982012D01*
X-75160000Y-7829290D01*
X-73193601Y-7829290D01*
G37*
G36*
X-74154453Y-6536147D02*
G01*
X-73193601Y-6876011D01*
X-73193601Y-6543230D01*
X-73825946Y-6336112D01*
X-73193601Y-6123498D01*
X-73193601Y-5824179D01*
X-74154453Y-6164165D01*
X-75160000Y-5807448D01*
X-75160000Y-6140351D01*
X-74477220Y-6364200D01*
X-74477220Y-6364078D01*
X-75160000Y-6593544D01*
X-75160000Y-6892863D01*
X-74154453Y-6536147D01*
G37*
G36*
X-73193601Y-5672138D02*
G01*
X-73193601Y-5356454D01*
X-73991054Y-5356454D01*
X-73991054Y-5034175D01*
X-73193601Y-5034175D01*
X-73193601Y-4718491D01*
X-75160000Y-4718491D01*
X-75160000Y-5034175D01*
X-74278650Y-5034175D01*
X-74278650Y-5356454D01*
X-75160000Y-5356454D01*
X-75160000Y-5672138D01*
X-73193601Y-5672138D01*
G37*
G36*
X-73193601Y-3835798D02*
G01*
X-73193601Y-4259315D01*
X-75160000Y-4579639D01*
X-75160000Y-4286182D01*
X-74776661Y-4230250D01*
X-74776661Y-4192759D01*
X-74502987Y-4192759D01*
X-73547103Y-4060128D01*
X-74502987Y-3924824D01*
X-74502987Y-4192759D01*
X-74776661Y-4192759D01*
X-74776661Y-3882640D01*
X-75160000Y-3831401D01*
X-75160000Y-3515473D01*
X-73193601Y-3835798D01*
G37*
G36*
X-75187966Y-2930512D02*
G01*
X-75178927Y-3042647D01*
X-75153652Y-3135080D01*
X-75113808Y-3211500D01*
X-75059495Y-3274650D01*
X-74992401Y-3324178D01*
X-74910837Y-3361090D01*
X-74811837Y-3384737D01*
X-74691665Y-3393230D01*
X-73193601Y-3393230D01*
X-73193601Y-3077668D01*
X-74714013Y-3077668D01*
X-74804330Y-3066371D01*
X-74856895Y-3038223D01*
X-74888842Y-2991794D01*
X-74900370Y-2924894D01*
X-74888832Y-2857909D01*
X-74856895Y-2811565D01*
X-74804330Y-2783417D01*
X-74714013Y-2772120D01*
X-73193601Y-2772120D01*
X-73193601Y-2467671D01*
X-74691665Y-2467671D01*
X-74811828Y-2476172D01*
X-74910825Y-2499840D01*
X-74992393Y-2536789D01*
X-75059495Y-2586373D01*
X-75113808Y-2649523D01*
X-75153652Y-2725943D01*
X-75178927Y-2818377D01*
X-75187966Y-2930512D01*
G37*
G36*
X-75187966Y-1852546D02*
G01*
X-75178884Y-1964740D01*
X-75153554Y-2056647D01*
X-75113717Y-2132116D01*
X-75059495Y-2193997D01*
X-74992527Y-2242255D01*
X-74911008Y-2278313D01*
X-74811961Y-2301451D01*
X-74691665Y-2309768D01*
X-74575772Y-2309768D01*
X-74575772Y-2010937D01*
X-74714013Y-2010937D01*
X-74801653Y-1999411D01*
X-74856499Y-1969704D01*
X-74888657Y-1923586D01*
X-74900370Y-1855355D01*
X-74888387Y-1786175D01*
X-74855430Y-1739339D01*
X-74801391Y-1711131D01*
X-74708395Y-1699772D01*
X-74592067Y-1714079D01*
X-74493462Y-1755337D01*
X-74399789Y-1826560D01*
X-74269247Y-1961478D01*
X-74151361Y-2084686D01*
X-74050604Y-2171188D01*
X-73964432Y-2228191D01*
X-73870884Y-2269940D01*
X-73768786Y-2295404D01*
X-73656319Y-2304151D01*
X-73539184Y-2295733D01*
X-73441946Y-2272206D01*
X-73361128Y-2235310D01*
X-73293985Y-2185571D01*
X-73239672Y-2122421D01*
X-73199827Y-2046001D01*
X-73174553Y-1953568D01*
X-73165513Y-1841433D01*
X-73174587Y-1730690D01*
X-73199904Y-1639955D01*
X-73239764Y-1565412D01*
X-73294107Y-1504256D01*
X-73360926Y-1456617D01*
X-73442382Y-1420968D01*
X-73541475Y-1398065D01*
X-73661937Y-1389828D01*
X-73746934Y-1389828D01*
X-73746934Y-1688537D01*
X-73642398Y-1688537D01*
X-73551741Y-1699471D01*
X-73498172Y-1726761D01*
X-73465147Y-1772118D01*
X-73453231Y-1838624D01*
X-73464649Y-1904102D01*
X-73496127Y-1948572D01*
X-73550121Y-1977375D01*
X-73636780Y-1988589D01*
X-73738249Y-1974454D01*
X-73833640Y-1931681D01*
X-73926227Y-1859439D01*
X-74056267Y-1724074D01*
X-74174535Y-1599387D01*
X-74275756Y-1513071D01*
X-74362548Y-1457361D01*
X-74457036Y-1417596D01*
X-74564082Y-1392853D01*
X-74686047Y-1384210D01*
X-74807625Y-1392808D01*
X-74907777Y-1416746D01*
X-74990286Y-1454114D01*
X-75058151Y-1504256D01*
X-75113017Y-1568112D01*
X-75153279Y-1645429D01*
X-75178827Y-1738993D01*
X-75187966Y-1852546D01*
G37*
G36*
X-73481197Y-974493D02*
G01*
X-73481197Y-1296283D01*
X-73193601Y-1296283D01*
X-73193601Y-337141D01*
X-73481197Y-337141D01*
X-73481197Y-658931D01*
X-75160000Y-658931D01*
X-75160000Y-974493D01*
X-73481197Y-974493D01*
G37*
G36*
X-68283601Y344837D02*
G01*
X-68283601Y663330D01*
X-69802914Y864830D01*
X-69802914Y863609D01*
X-68283601Y1064987D01*
X-68283601Y1355514D01*
X-70250000Y1057904D01*
X-70250000Y642569D01*
X-68283601Y344837D01*
G37*
G36*
X-68283601Y1495343D02*
G01*
X-68283601Y2342622D01*
X-68571197Y2342622D01*
X-68571197Y1811027D01*
X-69081054Y1811027D01*
X-69081054Y2233445D01*
X-69368650Y2233445D01*
X-69368650Y1811027D01*
X-69962405Y1811027D01*
X-69962405Y2342622D01*
X-70250000Y2342622D01*
X-70250000Y1495343D01*
X-68283601Y1495343D01*
G37*
G36*
X-68283601Y2511393D02*
G01*
X-68283601Y2904502D01*
X-69455967Y3203944D01*
X-69455967Y3202601D01*
X-68283601Y3202601D01*
X-68283601Y3484579D01*
X-70250000Y3484579D01*
X-70250000Y3161446D01*
X-68820203Y2792151D01*
X-68820203Y2793494D01*
X-70250000Y2793494D01*
X-70250000Y2511393D01*
X-68283601Y2511393D01*
G37*
G36*
X-68571197Y3945954D02*
G01*
X-68571197Y3624164D01*
X-68283601Y3624164D01*
X-68283601Y4583306D01*
X-68571197Y4583306D01*
X-68571197Y4261516D01*
X-70250000Y4261516D01*
X-70250000Y3945954D01*
X-68571197Y3945954D01*
G37*
G36*
X-68283601Y5170710D02*
G01*
X-68283601Y6017988D01*
X-68571197Y6017988D01*
X-68571197Y5486393D01*
X-69081054Y5486393D01*
X-69081054Y5908811D01*
X-69368650Y5908811D01*
X-69368650Y5486393D01*
X-69962405Y5486393D01*
X-69962405Y6017988D01*
X-70250000Y6017988D01*
X-70250000Y5170710D01*
X-68283601Y5170710D01*
G37*
G36*
X-69244453Y6463853D02*
G01*
X-68283601Y6123989D01*
X-68283601Y6456770D01*
X-68915946Y6663888D01*
X-68283601Y6876502D01*
X-68283601Y7175821D01*
X-69244453Y6835835D01*
X-70250000Y7192552D01*
X-70250000Y6859649D01*
X-69567220Y6635800D01*
X-69567220Y6635922D01*
X-70250000Y6406456D01*
X-70250000Y6107137D01*
X-69244453Y6463853D01*
G37*
G36*
X-68283601Y7327862D02*
G01*
X-68283601Y7643546D01*
X-69081054Y7643546D01*
X-69081054Y7965825D01*
X-68283601Y7965825D01*
X-68283601Y8281509D01*
X-70250000Y8281509D01*
X-70250000Y7965825D01*
X-69368650Y7965825D01*
X-69368650Y7643546D01*
X-70250000Y7643546D01*
X-70250000Y7327862D01*
X-68283601Y7327862D01*
G37*
G36*
X-68283601Y9164202D02*
G01*
X-68283601Y8740685D01*
X-70250000Y8420361D01*
X-70250000Y8713818D01*
X-69866661Y8769750D01*
X-69866661Y8807241D01*
X-69592987Y8807241D01*
X-68637103Y8939872D01*
X-69592987Y9075176D01*
X-69592987Y8807241D01*
X-69866661Y8807241D01*
X-69866661Y9117360D01*
X-70250000Y9168599D01*
X-70250000Y9484527D01*
X-68283601Y9164202D01*
G37*
G36*
X-70277966Y10069488D02*
G01*
X-70268927Y9957353D01*
X-70243652Y9864920D01*
X-70203808Y9788500D01*
X-70149495Y9725350D01*
X-70082401Y9675822D01*
X-70000837Y9638910D01*
X-69901837Y9615263D01*
X-69781665Y9606770D01*
X-68283601Y9606770D01*
X-68283601Y9922332D01*
X-69804013Y9922332D01*
X-69894330Y9933629D01*
X-69946895Y9961777D01*
X-69978842Y10008206D01*
X-69990370Y10075106D01*
X-69978832Y10142091D01*
X-69946895Y10188435D01*
X-69894330Y10216583D01*
X-69804013Y10227880D01*
X-68283601Y10227880D01*
X-68283601Y10532329D01*
X-69781665Y10532329D01*
X-69901828Y10523828D01*
X-70000825Y10500160D01*
X-70082393Y10463211D01*
X-70149495Y10413627D01*
X-70203808Y10350477D01*
X-70243652Y10274057D01*
X-70268927Y10181623D01*
X-70277966Y10069488D01*
G37*
G36*
X-70277966Y11147454D02*
G01*
X-70268884Y11035260D01*
X-70243554Y10943353D01*
X-70203717Y10867884D01*
X-70149495Y10806003D01*
X-70082527Y10757745D01*
X-70001008Y10721687D01*
X-69901961Y10698549D01*
X-69781665Y10690232D01*
X-69665772Y10690232D01*
X-69665772Y10989063D01*
X-69804013Y10989063D01*
X-69891653Y11000589D01*
X-69946499Y11030296D01*
X-69978657Y11076414D01*
X-69990370Y11144645D01*
X-69978387Y11213825D01*
X-69945430Y11260661D01*
X-69891391Y11288869D01*
X-69798395Y11300228D01*
X-69682067Y11285921D01*
X-69583462Y11244663D01*
X-69489789Y11173440D01*
X-69359247Y11038522D01*
X-69241361Y10915314D01*
X-69140604Y10828812D01*
X-69054432Y10771809D01*
X-68960884Y10730060D01*
X-68858786Y10704596D01*
X-68746319Y10695849D01*
X-68629184Y10704267D01*
X-68531946Y10727794D01*
X-68451128Y10764690D01*
X-68383985Y10814429D01*
X-68329672Y10877579D01*
X-68289827Y10953999D01*
X-68264553Y11046432D01*
X-68255513Y11158567D01*
X-68264587Y11269310D01*
X-68289904Y11360045D01*
X-68329764Y11434588D01*
X-68384107Y11495744D01*
X-68450926Y11543383D01*
X-68532382Y11579032D01*
X-68631475Y11601935D01*
X-68751937Y11610172D01*
X-68836934Y11610172D01*
X-68836934Y11311463D01*
X-68732398Y11311463D01*
X-68641741Y11300529D01*
X-68588172Y11273239D01*
X-68555147Y11227882D01*
X-68543231Y11161376D01*
X-68554649Y11095898D01*
X-68586127Y11051428D01*
X-68640121Y11022625D01*
X-68726780Y11011411D01*
X-68828249Y11025546D01*
X-68923640Y11068319D01*
X-69016227Y11140561D01*
X-69146267Y11275926D01*
X-69264535Y11400613D01*
X-69365756Y11486929D01*
X-69452548Y11542639D01*
X-69547036Y11582404D01*
X-69654082Y11607147D01*
X-69776047Y11615790D01*
X-69897625Y11607192D01*
X-69997777Y11583254D01*
X-70080286Y11545886D01*
X-70148151Y11495744D01*
X-70203017Y11431888D01*
X-70243279Y11354571D01*
X-70268827Y11261007D01*
X-70277966Y11147454D01*
G37*
G36*
X-68571197Y12025507D02*
G01*
X-68571197Y11703717D01*
X-68283601Y11703717D01*
X-68283601Y12662859D01*
X-68571197Y12662859D01*
X-68571197Y12341069D01*
X-70250000Y12341069D01*
X-70250000Y12025507D01*
X-68571197Y12025507D01*
G37*
G36*
X-65743601Y344837D02*
G01*
X-65743601Y663330D01*
X-67262914Y864830D01*
X-67262914Y863609D01*
X-65743601Y1064987D01*
X-65743601Y1355514D01*
X-67710000Y1057904D01*
X-67710000Y642569D01*
X-65743601Y344837D01*
G37*
G36*
X-65743601Y1495343D02*
G01*
X-65743601Y2342622D01*
X-66031197Y2342622D01*
X-66031197Y1811027D01*
X-66541054Y1811027D01*
X-66541054Y2233445D01*
X-66828650Y2233445D01*
X-66828650Y1811027D01*
X-67422405Y1811027D01*
X-67422405Y2342622D01*
X-67710000Y2342622D01*
X-67710000Y1495343D01*
X-65743601Y1495343D01*
G37*
G36*
X-65743601Y2511393D02*
G01*
X-65743601Y2904502D01*
X-66915967Y3203944D01*
X-66915967Y3202601D01*
X-65743601Y3202601D01*
X-65743601Y3484579D01*
X-67710000Y3484579D01*
X-67710000Y3161446D01*
X-66280203Y2792151D01*
X-66280203Y2793494D01*
X-67710000Y2793494D01*
X-67710000Y2511393D01*
X-65743601Y2511393D01*
G37*
G36*
X-66031197Y3945954D02*
G01*
X-66031197Y3624164D01*
X-65743601Y3624164D01*
X-65743601Y4583306D01*
X-66031197Y4583306D01*
X-66031197Y4261516D01*
X-67710000Y4261516D01*
X-67710000Y3945954D01*
X-66031197Y3945954D01*
G37*
G36*
X-65743601Y5170710D02*
G01*
X-65743601Y6017988D01*
X-66031197Y6017988D01*
X-66031197Y5486393D01*
X-66541054Y5486393D01*
X-66541054Y5908811D01*
X-66828650Y5908811D01*
X-66828650Y5486393D01*
X-67422405Y5486393D01*
X-67422405Y6017988D01*
X-67710000Y6017988D01*
X-67710000Y5170710D01*
X-65743601Y5170710D01*
G37*
G36*
X-66704453Y6463853D02*
G01*
X-65743601Y6123989D01*
X-65743601Y6456770D01*
X-66375946Y6663888D01*
X-65743601Y6876502D01*
X-65743601Y7175821D01*
X-66704453Y6835835D01*
X-67710000Y7192552D01*
X-67710000Y6859649D01*
X-67027220Y6635800D01*
X-67027220Y6635922D01*
X-67710000Y6406456D01*
X-67710000Y6107137D01*
X-66704453Y6463853D01*
G37*
G36*
X-65743601Y7327862D02*
G01*
X-65743601Y7643546D01*
X-66541054Y7643546D01*
X-66541054Y7965825D01*
X-65743601Y7965825D01*
X-65743601Y8281509D01*
X-67710000Y8281509D01*
X-67710000Y7965825D01*
X-66828650Y7965825D01*
X-66828650Y7643546D01*
X-67710000Y7643546D01*
X-67710000Y7327862D01*
X-65743601Y7327862D01*
G37*
G36*
X-65743601Y9164202D02*
G01*
X-65743601Y8740685D01*
X-67710000Y8420361D01*
X-67710000Y8713818D01*
X-67326661Y8769750D01*
X-67326661Y8807241D01*
X-67052987Y8807241D01*
X-66097103Y8939872D01*
X-67052987Y9075176D01*
X-67052987Y8807241D01*
X-67326661Y8807241D01*
X-67326661Y9117360D01*
X-67710000Y9168599D01*
X-67710000Y9484527D01*
X-65743601Y9164202D01*
G37*
G36*
X-67737966Y10069488D02*
G01*
X-67728927Y9957353D01*
X-67703652Y9864920D01*
X-67663808Y9788500D01*
X-67609495Y9725350D01*
X-67542401Y9675822D01*
X-67460837Y9638910D01*
X-67361837Y9615263D01*
X-67241665Y9606770D01*
X-65743601Y9606770D01*
X-65743601Y9922332D01*
X-67264013Y9922332D01*
X-67354330Y9933629D01*
X-67406895Y9961777D01*
X-67438842Y10008206D01*
X-67450370Y10075106D01*
X-67438832Y10142091D01*
X-67406895Y10188435D01*
X-67354330Y10216583D01*
X-67264013Y10227880D01*
X-65743601Y10227880D01*
X-65743601Y10532329D01*
X-67241665Y10532329D01*
X-67361828Y10523828D01*
X-67460825Y10500160D01*
X-67542393Y10463211D01*
X-67609495Y10413627D01*
X-67663808Y10350477D01*
X-67703652Y10274057D01*
X-67728927Y10181623D01*
X-67737966Y10069488D01*
G37*
G36*
X-67737966Y11147454D02*
G01*
X-67728884Y11035260D01*
X-67703554Y10943353D01*
X-67663717Y10867884D01*
X-67609495Y10806003D01*
X-67542527Y10757745D01*
X-67461008Y10721687D01*
X-67361961Y10698549D01*
X-67241665Y10690232D01*
X-67125772Y10690232D01*
X-67125772Y10989063D01*
X-67264013Y10989063D01*
X-67351653Y11000589D01*
X-67406499Y11030296D01*
X-67438657Y11076414D01*
X-67450370Y11144645D01*
X-67438387Y11213825D01*
X-67405430Y11260661D01*
X-67351391Y11288869D01*
X-67258395Y11300228D01*
X-67142067Y11285921D01*
X-67043462Y11244663D01*
X-66949789Y11173440D01*
X-66819247Y11038522D01*
X-66701361Y10915314D01*
X-66600604Y10828812D01*
X-66514432Y10771809D01*
X-66420884Y10730060D01*
X-66318786Y10704596D01*
X-66206319Y10695849D01*
X-66089184Y10704267D01*
X-65991946Y10727794D01*
X-65911128Y10764690D01*
X-65843985Y10814429D01*
X-65789672Y10877579D01*
X-65749827Y10953999D01*
X-65724553Y11046432D01*
X-65715513Y11158567D01*
X-65724587Y11269310D01*
X-65749904Y11360045D01*
X-65789764Y11434588D01*
X-65844107Y11495744D01*
X-65910926Y11543383D01*
X-65992382Y11579032D01*
X-66091475Y11601935D01*
X-66211937Y11610172D01*
X-66296934Y11610172D01*
X-66296934Y11311463D01*
X-66192398Y11311463D01*
X-66101741Y11300529D01*
X-66048172Y11273239D01*
X-66015147Y11227882D01*
X-66003231Y11161376D01*
X-66014649Y11095898D01*
X-66046127Y11051428D01*
X-66100121Y11022625D01*
X-66186780Y11011411D01*
X-66288249Y11025546D01*
X-66383640Y11068319D01*
X-66476227Y11140561D01*
X-66606267Y11275926D01*
X-66724535Y11400613D01*
X-66825756Y11486929D01*
X-66912548Y11542639D01*
X-67007036Y11582404D01*
X-67114082Y11607147D01*
X-67236047Y11615790D01*
X-67357625Y11607192D01*
X-67457777Y11583254D01*
X-67540286Y11545886D01*
X-67608151Y11495744D01*
X-67663017Y11431888D01*
X-67703279Y11354571D01*
X-67728827Y11261007D01*
X-67737966Y11147454D01*
G37*
G36*
X-66031197Y12025507D02*
G01*
X-66031197Y11703717D01*
X-65743601Y11703717D01*
X-65743601Y12662859D01*
X-66031197Y12662859D01*
X-66031197Y12341069D01*
X-67710000Y12341069D01*
X-67710000Y12025507D01*
X-66031197Y12025507D01*
G37*
G36*
X-73363601Y344837D02*
G01*
X-73363601Y663330D01*
X-74882914Y864830D01*
X-74882914Y863609D01*
X-73363601Y1064987D01*
X-73363601Y1355514D01*
X-75330000Y1057904D01*
X-75330000Y642569D01*
X-73363601Y344837D01*
G37*
G36*
X-73363601Y1495343D02*
G01*
X-73363601Y2342622D01*
X-73651197Y2342622D01*
X-73651197Y1811027D01*
X-74161054Y1811027D01*
X-74161054Y2233445D01*
X-74448650Y2233445D01*
X-74448650Y1811027D01*
X-75042405Y1811027D01*
X-75042405Y2342622D01*
X-75330000Y2342622D01*
X-75330000Y1495343D01*
X-73363601Y1495343D01*
G37*
G36*
X-73363601Y2511393D02*
G01*
X-73363601Y2904502D01*
X-74535967Y3203944D01*
X-74535967Y3202601D01*
X-73363601Y3202601D01*
X-73363601Y3484579D01*
X-75330000Y3484579D01*
X-75330000Y3161446D01*
X-73900203Y2792151D01*
X-73900203Y2793494D01*
X-75330000Y2793494D01*
X-75330000Y2511393D01*
X-73363601Y2511393D01*
G37*
G36*
X-73651197Y3945954D02*
G01*
X-73651197Y3624164D01*
X-73363601Y3624164D01*
X-73363601Y4583306D01*
X-73651197Y4583306D01*
X-73651197Y4261516D01*
X-75330000Y4261516D01*
X-75330000Y3945954D01*
X-73651197Y3945954D01*
G37*
G36*
X-73363601Y5170710D02*
G01*
X-73363601Y6017988D01*
X-73651197Y6017988D01*
X-73651197Y5486393D01*
X-74161054Y5486393D01*
X-74161054Y5908811D01*
X-74448650Y5908811D01*
X-74448650Y5486393D01*
X-75042405Y5486393D01*
X-75042405Y6017988D01*
X-75330000Y6017988D01*
X-75330000Y5170710D01*
X-73363601Y5170710D01*
G37*
G36*
X-74324453Y6463853D02*
G01*
X-73363601Y6123989D01*
X-73363601Y6456770D01*
X-73995946Y6663888D01*
X-73363601Y6876502D01*
X-73363601Y7175821D01*
X-74324453Y6835835D01*
X-75330000Y7192552D01*
X-75330000Y6859649D01*
X-74647220Y6635800D01*
X-74647220Y6635922D01*
X-75330000Y6406456D01*
X-75330000Y6107137D01*
X-74324453Y6463853D01*
G37*
G36*
X-73363601Y7327862D02*
G01*
X-73363601Y7643546D01*
X-74161054Y7643546D01*
X-74161054Y7965825D01*
X-73363601Y7965825D01*
X-73363601Y8281509D01*
X-75330000Y8281509D01*
X-75330000Y7965825D01*
X-74448650Y7965825D01*
X-74448650Y7643546D01*
X-75330000Y7643546D01*
X-75330000Y7327862D01*
X-73363601Y7327862D01*
G37*
G36*
X-73363601Y9164202D02*
G01*
X-73363601Y8740685D01*
X-75330000Y8420361D01*
X-75330000Y8713818D01*
X-74946661Y8769750D01*
X-74946661Y8807241D01*
X-74672987Y8807241D01*
X-73717103Y8939872D01*
X-74672987Y9075176D01*
X-74672987Y8807241D01*
X-74946661Y8807241D01*
X-74946661Y9117360D01*
X-75330000Y9168599D01*
X-75330000Y9484527D01*
X-73363601Y9164202D01*
G37*
G36*
X-75357966Y10069488D02*
G01*
X-75348927Y9957353D01*
X-75323652Y9864920D01*
X-75283808Y9788500D01*
X-75229495Y9725350D01*
X-75162401Y9675822D01*
X-75080837Y9638910D01*
X-74981837Y9615263D01*
X-74861665Y9606770D01*
X-73363601Y9606770D01*
X-73363601Y9922332D01*
X-74884013Y9922332D01*
X-74974330Y9933629D01*
X-75026895Y9961777D01*
X-75058842Y10008206D01*
X-75070370Y10075106D01*
X-75058832Y10142091D01*
X-75026895Y10188435D01*
X-74974330Y10216583D01*
X-74884013Y10227880D01*
X-73363601Y10227880D01*
X-73363601Y10532329D01*
X-74861665Y10532329D01*
X-74981828Y10523828D01*
X-75080825Y10500160D01*
X-75162393Y10463211D01*
X-75229495Y10413627D01*
X-75283808Y10350477D01*
X-75323652Y10274057D01*
X-75348927Y10181623D01*
X-75357966Y10069488D01*
G37*
G36*
X-75357966Y11147454D02*
G01*
X-75348884Y11035260D01*
X-75323554Y10943353D01*
X-75283717Y10867884D01*
X-75229495Y10806003D01*
X-75162527Y10757745D01*
X-75081008Y10721687D01*
X-74981961Y10698549D01*
X-74861665Y10690232D01*
X-74745772Y10690232D01*
X-74745772Y10989063D01*
X-74884013Y10989063D01*
X-74971653Y11000589D01*
X-75026499Y11030296D01*
X-75058657Y11076414D01*
X-75070370Y11144645D01*
X-75058387Y11213825D01*
X-75025430Y11260661D01*
X-74971391Y11288869D01*
X-74878395Y11300228D01*
X-74762067Y11285921D01*
X-74663462Y11244663D01*
X-74569789Y11173440D01*
X-74439247Y11038522D01*
X-74321361Y10915314D01*
X-74220604Y10828812D01*
X-74134432Y10771809D01*
X-74040884Y10730060D01*
X-73938786Y10704596D01*
X-73826319Y10695849D01*
X-73709184Y10704267D01*
X-73611946Y10727794D01*
X-73531128Y10764690D01*
X-73463985Y10814429D01*
X-73409672Y10877579D01*
X-73369827Y10953999D01*
X-73344553Y11046432D01*
X-73335513Y11158567D01*
X-73344587Y11269310D01*
X-73369904Y11360045D01*
X-73409764Y11434588D01*
X-73464107Y11495744D01*
X-73530926Y11543383D01*
X-73612382Y11579032D01*
X-73711475Y11601935D01*
X-73831937Y11610172D01*
X-73916934Y11610172D01*
X-73916934Y11311463D01*
X-73812398Y11311463D01*
X-73721741Y11300529D01*
X-73668172Y11273239D01*
X-73635147Y11227882D01*
X-73623231Y11161376D01*
X-73634649Y11095898D01*
X-73666127Y11051428D01*
X-73720121Y11022625D01*
X-73806780Y11011411D01*
X-73908249Y11025546D01*
X-74003640Y11068319D01*
X-74096227Y11140561D01*
X-74226267Y11275926D01*
X-74344535Y11400613D01*
X-74445756Y11486929D01*
X-74532548Y11542639D01*
X-74627036Y11582404D01*
X-74734082Y11607147D01*
X-74856047Y11615790D01*
X-74977625Y11607192D01*
X-75077777Y11583254D01*
X-75160286Y11545886D01*
X-75228151Y11495744D01*
X-75283017Y11431888D01*
X-75323279Y11354571D01*
X-75348827Y11261007D01*
X-75357966Y11147454D01*
G37*
G36*
X-73651197Y12025507D02*
G01*
X-73651197Y11703717D01*
X-73363601Y11703717D01*
X-73363601Y12662859D01*
X-73651197Y12662859D01*
X-73651197Y12341069D01*
X-75330000Y12341069D01*
X-75330000Y12025507D01*
X-73651197Y12025507D01*
G37*
G36*
X6155163Y1136400D02*
G01*
X5836670Y1136400D01*
X5635170Y-382913D01*
X5636391Y-382913D01*
X5435013Y1136400D01*
X5144486Y1136400D01*
X5442096Y-830000D01*
X5857431Y-830000D01*
X6155163Y1136400D01*
G37*
G36*
X5004657Y1136400D02*
G01*
X4157378Y1136400D01*
X4157378Y848804D01*
X4688973Y848804D01*
X4688973Y338947D01*
X4266555Y338947D01*
X4266555Y51351D01*
X4688973Y51351D01*
X4688973Y-542404D01*
X4157378Y-542404D01*
X4157378Y-830000D01*
X5004657Y-830000D01*
X5004657Y1136400D01*
G37*
G36*
X3988607Y1136400D02*
G01*
X3595498Y1136400D01*
X3296056Y-35966D01*
X3297399Y-35966D01*
X3297399Y1136400D01*
X3015421Y1136400D01*
X3015421Y-830000D01*
X3338554Y-830000D01*
X3707849Y599798D01*
X3706506Y599798D01*
X3706506Y-830000D01*
X3988607Y-830000D01*
X3988607Y1136400D01*
G37*
G36*
X2554046Y848804D02*
G01*
X2875836Y848804D01*
X2875836Y1136400D01*
X1916694Y1136400D01*
X1916694Y848804D01*
X2238484Y848804D01*
X2238484Y-830000D01*
X2554046Y-830000D01*
X2554046Y848804D01*
G37*
G36*
X1329290Y1136400D02*
G01*
X482012Y1136400D01*
X482012Y848804D01*
X1013607Y848804D01*
X1013607Y338947D01*
X591189Y338947D01*
X591189Y51351D01*
X1013607Y51351D01*
X1013607Y-542404D01*
X482012Y-542404D01*
X482012Y-830000D01*
X1329290Y-830000D01*
X1329290Y1136400D01*
G37*
G36*
X36147Y175548D02*
G01*
X376011Y1136400D01*
X43230Y1136400D01*
X-163888Y504055D01*
X-376502Y1136400D01*
X-675821Y1136400D01*
X-335835Y175548D01*
X-692552Y-830000D01*
X-359649Y-830000D01*
X-135800Y-147219D01*
X-135922Y-147219D01*
X93544Y-830000D01*
X392863Y-830000D01*
X36147Y175548D01*
G37*
G36*
X-827862Y1136400D02*
G01*
X-1143546Y1136400D01*
X-1143546Y338947D01*
X-1465825Y338947D01*
X-1465825Y1136400D01*
X-1781509Y1136400D01*
X-1781509Y-830000D01*
X-1465825Y-830000D01*
X-1465825Y51351D01*
X-1143546Y51351D01*
X-1143546Y-830000D01*
X-827862Y-830000D01*
X-827862Y1136400D01*
G37*
G36*
X-1920361Y-830000D02*
G01*
X-2213818Y-830000D01*
X-2269750Y-446660D01*
X-2617359Y-446660D01*
X-2668599Y-830000D01*
X-2984527Y-830000D01*
X-2877500Y-172986D01*
X-2575176Y-172986D01*
X-2307241Y-172986D01*
X-2439872Y782899D01*
X-2575176Y-172986D01*
X-2877500Y-172986D01*
X-2664202Y1136400D01*
X-2240685Y1136400D01*
X-1920361Y-830000D01*
G37*
G36*
X-3569488Y-857965D02*
G01*
X-3457353Y-848926D01*
X-3364920Y-823651D01*
X-3288500Y-783807D01*
X-3225350Y-729494D01*
X-3175822Y-662400D01*
X-3138910Y-580836D01*
X-3115263Y-481836D01*
X-3106770Y-361664D01*
X-3106770Y1136400D01*
X-3422332Y1136400D01*
X-3422332Y-384012D01*
X-3433629Y-474329D01*
X-3461777Y-526894D01*
X-3508206Y-558841D01*
X-3575106Y-570369D01*
X-3642091Y-558831D01*
X-3688435Y-526894D01*
X-3716583Y-474329D01*
X-3727880Y-384012D01*
X-3727880Y1136400D01*
X-4032329Y1136400D01*
X-4032329Y-361664D01*
X-4023828Y-481827D01*
X-4000160Y-580824D01*
X-3963211Y-662392D01*
X-3913627Y-729494D01*
X-3850477Y-783807D01*
X-3774057Y-823651D01*
X-3681623Y-848926D01*
X-3569488Y-857965D01*
G37*
G36*
X-4647454Y-857965D02*
G01*
X-4535260Y-848883D01*
X-4443353Y-823553D01*
X-4367884Y-783716D01*
X-4306003Y-729494D01*
X-4257745Y-662526D01*
X-4221687Y-581007D01*
X-4198549Y-481960D01*
X-4190232Y-361664D01*
X-4190232Y-245771D01*
X-4489063Y-245771D01*
X-4489063Y-384012D01*
X-4500589Y-471652D01*
X-4530296Y-526498D01*
X-4576414Y-558656D01*
X-4644645Y-570369D01*
X-4713825Y-558386D01*
X-4760661Y-525429D01*
X-4788869Y-471390D01*
X-4800228Y-378394D01*
X-4785921Y-262066D01*
X-4744663Y-163461D01*
X-4673440Y-69788D01*
X-4538522Y60754D01*
X-4415314Y178640D01*
X-4328812Y279397D01*
X-4271809Y365569D01*
X-4230060Y459117D01*
X-4204596Y561215D01*
X-4195849Y673682D01*
X-4204267Y790817D01*
X-4227794Y888055D01*
X-4264690Y968873D01*
X-4314429Y1036016D01*
X-4377579Y1090329D01*
X-4453999Y1130174D01*
X-4546432Y1155448D01*
X-4658567Y1164488D01*
X-4769310Y1155414D01*
X-4860045Y1130097D01*
X-4934588Y1090237D01*
X-4995744Y1035894D01*
X-5043383Y969075D01*
X-5079032Y887619D01*
X-5101935Y788526D01*
X-5110172Y668064D01*
X-5110172Y583067D01*
X-4811463Y583067D01*
X-4811463Y687603D01*
X-4800529Y778260D01*
X-4773239Y831829D01*
X-4727882Y864854D01*
X-4661376Y876770D01*
X-4595898Y865352D01*
X-4551428Y833874D01*
X-4522625Y779880D01*
X-4511411Y693221D01*
X-4525546Y591752D01*
X-4568319Y496361D01*
X-4640561Y403774D01*
X-4775926Y273734D01*
X-4900613Y155466D01*
X-4986929Y54245D01*
X-5042639Y-32547D01*
X-5082404Y-127035D01*
X-5107147Y-234081D01*
X-5115790Y-356046D01*
X-5107192Y-477624D01*
X-5083254Y-577776D01*
X-5045886Y-660285D01*
X-4995744Y-728150D01*
X-4931888Y-783016D01*
X-4854571Y-823278D01*
X-4761007Y-848826D01*
X-4647454Y-857965D01*
G37*
G36*
X-5525507Y848804D02*
G01*
X-5203717Y848804D01*
X-5203717Y1136400D01*
X-6162859Y1136400D01*
X-6162859Y848804D01*
X-5841069Y848804D01*
X-5841069Y-830000D01*
X-5525507Y-830000D01*
X-5525507Y848804D01*
G37*
G36*
X-63033601Y-12655163D02*
G01*
X-63033601Y-12336670D01*
X-64552914Y-12135170D01*
X-64552914Y-12136391D01*
X-63033601Y-11935013D01*
X-63033601Y-11644486D01*
X-65000000Y-11942096D01*
X-65000000Y-12357431D01*
X-63033601Y-12655163D01*
G37*
G36*
X-63033601Y-11504657D02*
G01*
X-63033601Y-10657378D01*
X-63321197Y-10657378D01*
X-63321197Y-11188973D01*
X-63831054Y-11188973D01*
X-63831054Y-10766555D01*
X-64118650Y-10766555D01*
X-64118650Y-11188973D01*
X-64712405Y-11188973D01*
X-64712405Y-10657378D01*
X-65000000Y-10657378D01*
X-65000000Y-11504657D01*
X-63033601Y-11504657D01*
G37*
G36*
X-63033601Y-10488607D02*
G01*
X-63033601Y-10095498D01*
X-64205967Y-9796056D01*
X-64205967Y-9797399D01*
X-63033601Y-9797399D01*
X-63033601Y-9515421D01*
X-65000000Y-9515421D01*
X-65000000Y-9838554D01*
X-63570203Y-10207849D01*
X-63570203Y-10206506D01*
X-65000000Y-10206506D01*
X-65000000Y-10488607D01*
X-63033601Y-10488607D01*
G37*
G36*
X-63321197Y-9054046D02*
G01*
X-63321197Y-9375836D01*
X-63033601Y-9375836D01*
X-63033601Y-8416694D01*
X-63321197Y-8416694D01*
X-63321197Y-8738484D01*
X-65000000Y-8738484D01*
X-65000000Y-9054046D01*
X-63321197Y-9054046D01*
G37*
G36*
X-63033601Y-7829290D02*
G01*
X-63033601Y-6982012D01*
X-63321197Y-6982012D01*
X-63321197Y-7513607D01*
X-63831054Y-7513607D01*
X-63831054Y-7091189D01*
X-64118650Y-7091189D01*
X-64118650Y-7513607D01*
X-64712405Y-7513607D01*
X-64712405Y-6982012D01*
X-65000000Y-6982012D01*
X-65000000Y-7829290D01*
X-63033601Y-7829290D01*
G37*
G36*
X-63994453Y-6536147D02*
G01*
X-63033601Y-6876011D01*
X-63033601Y-6543230D01*
X-63665946Y-6336112D01*
X-63033601Y-6123498D01*
X-63033601Y-5824179D01*
X-63994453Y-6164165D01*
X-65000000Y-5807448D01*
X-65000000Y-6140351D01*
X-64317220Y-6364200D01*
X-64317220Y-6364078D01*
X-65000000Y-6593544D01*
X-65000000Y-6892863D01*
X-63994453Y-6536147D01*
G37*
G36*
X-63033601Y-5672138D02*
G01*
X-63033601Y-5356454D01*
X-63831054Y-5356454D01*
X-63831054Y-5034175D01*
X-63033601Y-5034175D01*
X-63033601Y-4718491D01*
X-65000000Y-4718491D01*
X-65000000Y-5034175D01*
X-64118650Y-5034175D01*
X-64118650Y-5356454D01*
X-65000000Y-5356454D01*
X-65000000Y-5672138D01*
X-63033601Y-5672138D01*
G37*
G36*
X-63033601Y-3835798D02*
G01*
X-63033601Y-4259315D01*
X-65000000Y-4579639D01*
X-65000000Y-4286182D01*
X-64616661Y-4230250D01*
X-64616661Y-4192759D01*
X-64342987Y-4192759D01*
X-63387103Y-4060128D01*
X-64342987Y-3924824D01*
X-64342987Y-4192759D01*
X-64616661Y-4192759D01*
X-64616661Y-3882640D01*
X-65000000Y-3831401D01*
X-65000000Y-3515473D01*
X-63033601Y-3835798D01*
G37*
G36*
X-65027966Y-2930512D02*
G01*
X-65018927Y-3042647D01*
X-64993652Y-3135080D01*
X-64953808Y-3211500D01*
X-64899495Y-3274650D01*
X-64832401Y-3324178D01*
X-64750837Y-3361090D01*
X-64651837Y-3384737D01*
X-64531665Y-3393230D01*
X-63033601Y-3393230D01*
X-63033601Y-3077668D01*
X-64554013Y-3077668D01*
X-64644330Y-3066371D01*
X-64696895Y-3038223D01*
X-64728842Y-2991794D01*
X-64740370Y-2924894D01*
X-64728832Y-2857909D01*
X-64696895Y-2811565D01*
X-64644330Y-2783417D01*
X-64554013Y-2772120D01*
X-63033601Y-2772120D01*
X-63033601Y-2467671D01*
X-64531665Y-2467671D01*
X-64651828Y-2476172D01*
X-64750825Y-2499840D01*
X-64832393Y-2536789D01*
X-64899495Y-2586373D01*
X-64953808Y-2649523D01*
X-64993652Y-2725943D01*
X-65018927Y-2818377D01*
X-65027966Y-2930512D01*
G37*
G36*
X-65027966Y-1852546D02*
G01*
X-65018884Y-1964740D01*
X-64993554Y-2056647D01*
X-64953717Y-2132116D01*
X-64899495Y-2193997D01*
X-64832527Y-2242255D01*
X-64751008Y-2278313D01*
X-64651961Y-2301451D01*
X-64531665Y-2309768D01*
X-64415772Y-2309768D01*
X-64415772Y-2010937D01*
X-64554013Y-2010937D01*
X-64641653Y-1999411D01*
X-64696499Y-1969704D01*
X-64728657Y-1923586D01*
X-64740370Y-1855355D01*
X-64728387Y-1786175D01*
X-64695430Y-1739339D01*
X-64641391Y-1711131D01*
X-64548395Y-1699772D01*
X-64432067Y-1714079D01*
X-64333462Y-1755337D01*
X-64239789Y-1826560D01*
X-64109247Y-1961478D01*
X-63991361Y-2084686D01*
X-63890604Y-2171188D01*
X-63804432Y-2228191D01*
X-63710884Y-2269940D01*
X-63608786Y-2295404D01*
X-63496319Y-2304151D01*
X-63379184Y-2295733D01*
X-63281946Y-2272206D01*
X-63201128Y-2235310D01*
X-63133985Y-2185571D01*
X-63079672Y-2122421D01*
X-63039827Y-2046001D01*
X-63014553Y-1953568D01*
X-63005513Y-1841433D01*
X-63014587Y-1730690D01*
X-63039904Y-1639955D01*
X-63079764Y-1565412D01*
X-63134107Y-1504256D01*
X-63200926Y-1456617D01*
X-63282382Y-1420968D01*
X-63381475Y-1398065D01*
X-63501937Y-1389828D01*
X-63586934Y-1389828D01*
X-63586934Y-1688537D01*
X-63482398Y-1688537D01*
X-63391741Y-1699471D01*
X-63338172Y-1726761D01*
X-63305147Y-1772118D01*
X-63293231Y-1838624D01*
X-63304649Y-1904102D01*
X-63336127Y-1948572D01*
X-63390121Y-1977375D01*
X-63476780Y-1988589D01*
X-63578249Y-1974454D01*
X-63673640Y-1931681D01*
X-63766227Y-1859439D01*
X-63896267Y-1724074D01*
X-64014535Y-1599387D01*
X-64115756Y-1513071D01*
X-64202548Y-1457361D01*
X-64297036Y-1417596D01*
X-64404082Y-1392853D01*
X-64526047Y-1384210D01*
X-64647625Y-1392808D01*
X-64747777Y-1416746D01*
X-64830286Y-1454114D01*
X-64898151Y-1504256D01*
X-64953017Y-1568112D01*
X-64993279Y-1645429D01*
X-65018827Y-1738993D01*
X-65027966Y-1852546D01*
G37*
G36*
X-63321197Y-974493D02*
G01*
X-63321197Y-1296283D01*
X-63033601Y-1296283D01*
X-63033601Y-337141D01*
X-63321197Y-337141D01*
X-63321197Y-658931D01*
X-65000000Y-658931D01*
X-65000000Y-974493D01*
X-63321197Y-974493D01*
G37*
G36*
X-63203601Y344837D02*
G01*
X-63203601Y663330D01*
X-64722914Y864830D01*
X-64722914Y863609D01*
X-63203601Y1064987D01*
X-63203601Y1355514D01*
X-65170000Y1057904D01*
X-65170000Y642569D01*
X-63203601Y344837D01*
G37*
G36*
X-63203601Y1495343D02*
G01*
X-63203601Y2342622D01*
X-63491197Y2342622D01*
X-63491197Y1811027D01*
X-64001054Y1811027D01*
X-64001054Y2233445D01*
X-64288650Y2233445D01*
X-64288650Y1811027D01*
X-64882405Y1811027D01*
X-64882405Y2342622D01*
X-65170000Y2342622D01*
X-65170000Y1495343D01*
X-63203601Y1495343D01*
G37*
G36*
X-63203601Y2511393D02*
G01*
X-63203601Y2904502D01*
X-64375967Y3203944D01*
X-64375967Y3202601D01*
X-63203601Y3202601D01*
X-63203601Y3484579D01*
X-65170000Y3484579D01*
X-65170000Y3161446D01*
X-63740203Y2792151D01*
X-63740203Y2793494D01*
X-65170000Y2793494D01*
X-65170000Y2511393D01*
X-63203601Y2511393D01*
G37*
G36*
X-63491197Y3945954D02*
G01*
X-63491197Y3624164D01*
X-63203601Y3624164D01*
X-63203601Y4583306D01*
X-63491197Y4583306D01*
X-63491197Y4261516D01*
X-65170000Y4261516D01*
X-65170000Y3945954D01*
X-63491197Y3945954D01*
G37*
G36*
X-63203601Y5170710D02*
G01*
X-63203601Y6017988D01*
X-63491197Y6017988D01*
X-63491197Y5486393D01*
X-64001054Y5486393D01*
X-64001054Y5908811D01*
X-64288650Y5908811D01*
X-64288650Y5486393D01*
X-64882405Y5486393D01*
X-64882405Y6017988D01*
X-65170000Y6017988D01*
X-65170000Y5170710D01*
X-63203601Y5170710D01*
G37*
G36*
X-64164453Y6463853D02*
G01*
X-63203601Y6123989D01*
X-63203601Y6456770D01*
X-63835946Y6663888D01*
X-63203601Y6876502D01*
X-63203601Y7175821D01*
X-64164453Y6835835D01*
X-65170000Y7192552D01*
X-65170000Y6859649D01*
X-64487220Y6635800D01*
X-64487220Y6635922D01*
X-65170000Y6406456D01*
X-65170000Y6107137D01*
X-64164453Y6463853D01*
G37*
G36*
X-63203601Y7327862D02*
G01*
X-63203601Y7643546D01*
X-64001054Y7643546D01*
X-64001054Y7965825D01*
X-63203601Y7965825D01*
X-63203601Y8281509D01*
X-65170000Y8281509D01*
X-65170000Y7965825D01*
X-64288650Y7965825D01*
X-64288650Y7643546D01*
X-65170000Y7643546D01*
X-65170000Y7327862D01*
X-63203601Y7327862D01*
G37*
G36*
X-63203601Y9164202D02*
G01*
X-63203601Y8740685D01*
X-65170000Y8420361D01*
X-65170000Y8713818D01*
X-64786661Y8769750D01*
X-64786661Y8807241D01*
X-64512987Y8807241D01*
X-63557103Y8939872D01*
X-64512987Y9075176D01*
X-64512987Y8807241D01*
X-64786661Y8807241D01*
X-64786661Y9117360D01*
X-65170000Y9168599D01*
X-65170000Y9484527D01*
X-63203601Y9164202D01*
G37*
G36*
X-65197966Y10069488D02*
G01*
X-65188927Y9957353D01*
X-65163652Y9864920D01*
X-65123808Y9788500D01*
X-65069495Y9725350D01*
X-65002401Y9675822D01*
X-64920837Y9638910D01*
X-64821837Y9615263D01*
X-64701665Y9606770D01*
X-63203601Y9606770D01*
X-63203601Y9922332D01*
X-64724013Y9922332D01*
X-64814330Y9933629D01*
X-64866895Y9961777D01*
X-64898842Y10008206D01*
X-64910370Y10075106D01*
X-64898832Y10142091D01*
X-64866895Y10188435D01*
X-64814330Y10216583D01*
X-64724013Y10227880D01*
X-63203601Y10227880D01*
X-63203601Y10532329D01*
X-64701665Y10532329D01*
X-64821828Y10523828D01*
X-64920825Y10500160D01*
X-65002393Y10463211D01*
X-65069495Y10413627D01*
X-65123808Y10350477D01*
X-65163652Y10274057D01*
X-65188927Y10181623D01*
X-65197966Y10069488D01*
G37*
G36*
X-65197966Y11147454D02*
G01*
X-65188884Y11035260D01*
X-65163554Y10943353D01*
X-65123717Y10867884D01*
X-65069495Y10806003D01*
X-65002527Y10757745D01*
X-64921008Y10721687D01*
X-64821961Y10698549D01*
X-64701665Y10690232D01*
X-64585772Y10690232D01*
X-64585772Y10989063D01*
X-64724013Y10989063D01*
X-64811653Y11000589D01*
X-64866499Y11030296D01*
X-64898657Y11076414D01*
X-64910370Y11144645D01*
X-64898387Y11213825D01*
X-64865430Y11260661D01*
X-64811391Y11288869D01*
X-64718395Y11300228D01*
X-64602067Y11285921D01*
X-64503462Y11244663D01*
X-64409789Y11173440D01*
X-64279247Y11038522D01*
X-64161361Y10915314D01*
X-64060604Y10828812D01*
X-63974432Y10771809D01*
X-63880884Y10730060D01*
X-63778786Y10704596D01*
X-63666319Y10695849D01*
X-63549184Y10704267D01*
X-63451946Y10727794D01*
X-63371128Y10764690D01*
X-63303985Y10814429D01*
X-63249672Y10877579D01*
X-63209827Y10953999D01*
X-63184553Y11046432D01*
X-63175513Y11158567D01*
X-63184587Y11269310D01*
X-63209904Y11360045D01*
X-63249764Y11434588D01*
X-63304107Y11495744D01*
X-63370926Y11543383D01*
X-63452382Y11579032D01*
X-63551475Y11601935D01*
X-63671937Y11610172D01*
X-63756934Y11610172D01*
X-63756934Y11311463D01*
X-63652398Y11311463D01*
X-63561741Y11300529D01*
X-63508172Y11273239D01*
X-63475147Y11227882D01*
X-63463231Y11161376D01*
X-63474649Y11095898D01*
X-63506127Y11051428D01*
X-63560121Y11022625D01*
X-63646780Y11011411D01*
X-63748249Y11025546D01*
X-63843640Y11068319D01*
X-63936227Y11140561D01*
X-64066267Y11275926D01*
X-64184535Y11400613D01*
X-64285756Y11486929D01*
X-64372548Y11542639D01*
X-64467036Y11582404D01*
X-64574082Y11607147D01*
X-64696047Y11615790D01*
X-64817625Y11607192D01*
X-64917777Y11583254D01*
X-65000286Y11545886D01*
X-65068151Y11495744D01*
X-65123017Y11431888D01*
X-65163279Y11354571D01*
X-65188827Y11261007D01*
X-65197966Y11147454D01*
G37*
G36*
X-63491197Y12025507D02*
G01*
X-63491197Y11703717D01*
X-63203601Y11703717D01*
X-63203601Y12662859D01*
X-63491197Y12662859D01*
X-63491197Y12341069D01*
X-65170000Y12341069D01*
X-65170000Y12025507D01*
X-63491197Y12025507D01*
G37*
G36*
X-70823601Y344837D02*
G01*
X-70823601Y663330D01*
X-72342914Y864830D01*
X-72342914Y863609D01*
X-70823601Y1064987D01*
X-70823601Y1355514D01*
X-72790000Y1057904D01*
X-72790000Y642569D01*
X-70823601Y344837D01*
G37*
G36*
X-70823601Y1495343D02*
G01*
X-70823601Y2342622D01*
X-71111197Y2342622D01*
X-71111197Y1811027D01*
X-71621054Y1811027D01*
X-71621054Y2233445D01*
X-71908650Y2233445D01*
X-71908650Y1811027D01*
X-72502405Y1811027D01*
X-72502405Y2342622D01*
X-72790000Y2342622D01*
X-72790000Y1495343D01*
X-70823601Y1495343D01*
G37*
G36*
X-70823601Y2511393D02*
G01*
X-70823601Y2904502D01*
X-71995967Y3203944D01*
X-71995967Y3202601D01*
X-70823601Y3202601D01*
X-70823601Y3484579D01*
X-72790000Y3484579D01*
X-72790000Y3161446D01*
X-71360203Y2792151D01*
X-71360203Y2793494D01*
X-72790000Y2793494D01*
X-72790000Y2511393D01*
X-70823601Y2511393D01*
G37*
G36*
X-71111197Y3945954D02*
G01*
X-71111197Y3624164D01*
X-70823601Y3624164D01*
X-70823601Y4583306D01*
X-71111197Y4583306D01*
X-71111197Y4261516D01*
X-72790000Y4261516D01*
X-72790000Y3945954D01*
X-71111197Y3945954D01*
G37*
G36*
X-70823601Y5170710D02*
G01*
X-70823601Y6017988D01*
X-71111197Y6017988D01*
X-71111197Y5486393D01*
X-71621054Y5486393D01*
X-71621054Y5908811D01*
X-71908650Y5908811D01*
X-71908650Y5486393D01*
X-72502405Y5486393D01*
X-72502405Y6017988D01*
X-72790000Y6017988D01*
X-72790000Y5170710D01*
X-70823601Y5170710D01*
G37*
G36*
X-71784453Y6463853D02*
G01*
X-70823601Y6123989D01*
X-70823601Y6456770D01*
X-71455946Y6663888D01*
X-70823601Y6876502D01*
X-70823601Y7175821D01*
X-71784453Y6835835D01*
X-72790000Y7192552D01*
X-72790000Y6859649D01*
X-72107220Y6635800D01*
X-72107220Y6635922D01*
X-72790000Y6406456D01*
X-72790000Y6107137D01*
X-71784453Y6463853D01*
G37*
G36*
X-70823601Y7327862D02*
G01*
X-70823601Y7643546D01*
X-71621054Y7643546D01*
X-71621054Y7965825D01*
X-70823601Y7965825D01*
X-70823601Y8281509D01*
X-72790000Y8281509D01*
X-72790000Y7965825D01*
X-71908650Y7965825D01*
X-71908650Y7643546D01*
X-72790000Y7643546D01*
X-72790000Y7327862D01*
X-70823601Y7327862D01*
G37*
G36*
X-70823601Y9164202D02*
G01*
X-70823601Y8740685D01*
X-72790000Y8420361D01*
X-72790000Y8713818D01*
X-72406661Y8769750D01*
X-72406661Y8807241D01*
X-72132987Y8807241D01*
X-71177103Y8939872D01*
X-72132987Y9075176D01*
X-72132987Y8807241D01*
X-72406661Y8807241D01*
X-72406661Y9117360D01*
X-72790000Y9168599D01*
X-72790000Y9484527D01*
X-70823601Y9164202D01*
G37*
G36*
X-72817966Y10069488D02*
G01*
X-72808927Y9957353D01*
X-72783652Y9864920D01*
X-72743808Y9788500D01*
X-72689495Y9725350D01*
X-72622401Y9675822D01*
X-72540837Y9638910D01*
X-72441837Y9615263D01*
X-72321665Y9606770D01*
X-70823601Y9606770D01*
X-70823601Y9922332D01*
X-72344013Y9922332D01*
X-72434330Y9933629D01*
X-72486895Y9961777D01*
X-72518842Y10008206D01*
X-72530370Y10075106D01*
X-72518832Y10142091D01*
X-72486895Y10188435D01*
X-72434330Y10216583D01*
X-72344013Y10227880D01*
X-70823601Y10227880D01*
X-70823601Y10532329D01*
X-72321665Y10532329D01*
X-72441828Y10523828D01*
X-72540825Y10500160D01*
X-72622393Y10463211D01*
X-72689495Y10413627D01*
X-72743808Y10350477D01*
X-72783652Y10274057D01*
X-72808927Y10181623D01*
X-72817966Y10069488D01*
G37*
G36*
X-72817966Y11147454D02*
G01*
X-72808884Y11035260D01*
X-72783554Y10943353D01*
X-72743717Y10867884D01*
X-72689495Y10806003D01*
X-72622527Y10757745D01*
X-72541008Y10721687D01*
X-72441961Y10698549D01*
X-72321665Y10690232D01*
X-72205772Y10690232D01*
X-72205772Y10989063D01*
X-72344013Y10989063D01*
X-72431653Y11000589D01*
X-72486499Y11030296D01*
X-72518657Y11076414D01*
X-72530370Y11144645D01*
X-72518387Y11213825D01*
X-72485430Y11260661D01*
X-72431391Y11288869D01*
X-72338395Y11300228D01*
X-72222067Y11285921D01*
X-72123462Y11244663D01*
X-72029789Y11173440D01*
X-71899247Y11038522D01*
X-71781361Y10915314D01*
X-71680604Y10828812D01*
X-71594432Y10771809D01*
X-71500884Y10730060D01*
X-71398786Y10704596D01*
X-71286319Y10695849D01*
X-71169184Y10704267D01*
X-71071946Y10727794D01*
X-70991128Y10764690D01*
X-70923985Y10814429D01*
X-70869672Y10877579D01*
X-70829827Y10953999D01*
X-70804553Y11046432D01*
X-70795513Y11158567D01*
X-70804587Y11269310D01*
X-70829904Y11360045D01*
X-70869764Y11434588D01*
X-70924107Y11495744D01*
X-70990926Y11543383D01*
X-71072382Y11579032D01*
X-71171475Y11601935D01*
X-71291937Y11610172D01*
X-71376934Y11610172D01*
X-71376934Y11311463D01*
X-71272398Y11311463D01*
X-71181741Y11300529D01*
X-71128172Y11273239D01*
X-71095147Y11227882D01*
X-71083231Y11161376D01*
X-71094649Y11095898D01*
X-71126127Y11051428D01*
X-71180121Y11022625D01*
X-71266780Y11011411D01*
X-71368249Y11025546D01*
X-71463640Y11068319D01*
X-71556227Y11140561D01*
X-71686267Y11275926D01*
X-71804535Y11400613D01*
X-71905756Y11486929D01*
X-71992548Y11542639D01*
X-72087036Y11582404D01*
X-72194082Y11607147D01*
X-72316047Y11615790D01*
X-72437625Y11607192D01*
X-72537777Y11583254D01*
X-72620286Y11545886D01*
X-72688151Y11495744D01*
X-72743017Y11431888D01*
X-72783279Y11354571D01*
X-72808827Y11261007D01*
X-72817966Y11147454D01*
G37*
G36*
X-71111197Y12025507D02*
G01*
X-71111197Y11703717D01*
X-70823601Y11703717D01*
X-70823601Y12662859D01*
X-71111197Y12662859D01*
X-71111197Y12341069D01*
X-72790000Y12341069D01*
X-72790000Y12025507D01*
X-71111197Y12025507D01*
G37*
G36*
X-65573601Y-12655163D02*
G01*
X-65573601Y-12336670D01*
X-67092914Y-12135170D01*
X-67092914Y-12136391D01*
X-65573601Y-11935013D01*
X-65573601Y-11644486D01*
X-67540000Y-11942096D01*
X-67540000Y-12357431D01*
X-65573601Y-12655163D01*
G37*
G36*
X-65573601Y-11504657D02*
G01*
X-65573601Y-10657378D01*
X-65861197Y-10657378D01*
X-65861197Y-11188973D01*
X-66371054Y-11188973D01*
X-66371054Y-10766555D01*
X-66658650Y-10766555D01*
X-66658650Y-11188973D01*
X-67252405Y-11188973D01*
X-67252405Y-10657378D01*
X-67540000Y-10657378D01*
X-67540000Y-11504657D01*
X-65573601Y-11504657D01*
G37*
G36*
X-65573601Y-10488607D02*
G01*
X-65573601Y-10095498D01*
X-66745967Y-9796056D01*
X-66745967Y-9797399D01*
X-65573601Y-9797399D01*
X-65573601Y-9515421D01*
X-67540000Y-9515421D01*
X-67540000Y-9838554D01*
X-66110203Y-10207849D01*
X-66110203Y-10206506D01*
X-67540000Y-10206506D01*
X-67540000Y-10488607D01*
X-65573601Y-10488607D01*
G37*
G36*
X-65861197Y-9054046D02*
G01*
X-65861197Y-9375836D01*
X-65573601Y-9375836D01*
X-65573601Y-8416694D01*
X-65861197Y-8416694D01*
X-65861197Y-8738484D01*
X-67540000Y-8738484D01*
X-67540000Y-9054046D01*
X-65861197Y-9054046D01*
G37*
G36*
X-65573601Y-7829290D02*
G01*
X-65573601Y-6982012D01*
X-65861197Y-6982012D01*
X-65861197Y-7513607D01*
X-66371054Y-7513607D01*
X-66371054Y-7091189D01*
X-66658650Y-7091189D01*
X-66658650Y-7513607D01*
X-67252405Y-7513607D01*
X-67252405Y-6982012D01*
X-67540000Y-6982012D01*
X-67540000Y-7829290D01*
X-65573601Y-7829290D01*
G37*
G36*
X-66534453Y-6536147D02*
G01*
X-65573601Y-6876011D01*
X-65573601Y-6543230D01*
X-66205946Y-6336112D01*
X-65573601Y-6123498D01*
X-65573601Y-5824179D01*
X-66534453Y-6164165D01*
X-67540000Y-5807448D01*
X-67540000Y-6140351D01*
X-66857220Y-6364200D01*
X-66857220Y-6364078D01*
X-67540000Y-6593544D01*
X-67540000Y-6892863D01*
X-66534453Y-6536147D01*
G37*
G36*
X-65573601Y-5672138D02*
G01*
X-65573601Y-5356454D01*
X-66371054Y-5356454D01*
X-66371054Y-5034175D01*
X-65573601Y-5034175D01*
X-65573601Y-4718491D01*
X-67540000Y-4718491D01*
X-67540000Y-5034175D01*
X-66658650Y-5034175D01*
X-66658650Y-5356454D01*
X-67540000Y-5356454D01*
X-67540000Y-5672138D01*
X-65573601Y-5672138D01*
G37*
G36*
X-65573601Y-3835798D02*
G01*
X-65573601Y-4259315D01*
X-67540000Y-4579639D01*
X-67540000Y-4286182D01*
X-67156661Y-4230250D01*
X-67156661Y-4192759D01*
X-66882987Y-4192759D01*
X-65927103Y-4060128D01*
X-66882987Y-3924824D01*
X-66882987Y-4192759D01*
X-67156661Y-4192759D01*
X-67156661Y-3882640D01*
X-67540000Y-3831401D01*
X-67540000Y-3515473D01*
X-65573601Y-3835798D01*
G37*
G36*
X-67567966Y-2930512D02*
G01*
X-67558927Y-3042647D01*
X-67533652Y-3135080D01*
X-67493808Y-3211500D01*
X-67439495Y-3274650D01*
X-67372401Y-3324178D01*
X-67290837Y-3361090D01*
X-67191837Y-3384737D01*
X-67071665Y-3393230D01*
X-65573601Y-3393230D01*
X-65573601Y-3077668D01*
X-67094013Y-3077668D01*
X-67184330Y-3066371D01*
X-67236895Y-3038223D01*
X-67268842Y-2991794D01*
X-67280370Y-2924894D01*
X-67268832Y-2857909D01*
X-67236895Y-2811565D01*
X-67184330Y-2783417D01*
X-67094013Y-2772120D01*
X-65573601Y-2772120D01*
X-65573601Y-2467671D01*
X-67071665Y-2467671D01*
X-67191828Y-2476172D01*
X-67290825Y-2499840D01*
X-67372393Y-2536789D01*
X-67439495Y-2586373D01*
X-67493808Y-2649523D01*
X-67533652Y-2725943D01*
X-67558927Y-2818377D01*
X-67567966Y-2930512D01*
G37*
G36*
X-67567966Y-1852546D02*
G01*
X-67558884Y-1964740D01*
X-67533554Y-2056647D01*
X-67493717Y-2132116D01*
X-67439495Y-2193997D01*
X-67372527Y-2242255D01*
X-67291008Y-2278313D01*
X-67191961Y-2301451D01*
X-67071665Y-2309768D01*
X-66955772Y-2309768D01*
X-66955772Y-2010937D01*
X-67094013Y-2010937D01*
X-67181653Y-1999411D01*
X-67236499Y-1969704D01*
X-67268657Y-1923586D01*
X-67280370Y-1855355D01*
X-67268387Y-1786175D01*
X-67235430Y-1739339D01*
X-67181391Y-1711131D01*
X-67088395Y-1699772D01*
X-66972067Y-1714079D01*
X-66873462Y-1755337D01*
X-66779789Y-1826560D01*
X-66649247Y-1961478D01*
X-66531361Y-2084686D01*
X-66430604Y-2171188D01*
X-66344432Y-2228191D01*
X-66250884Y-2269940D01*
X-66148786Y-2295404D01*
X-66036319Y-2304151D01*
X-65919184Y-2295733D01*
X-65821946Y-2272206D01*
X-65741128Y-2235310D01*
X-65673985Y-2185571D01*
X-65619672Y-2122421D01*
X-65579827Y-2046001D01*
X-65554553Y-1953568D01*
X-65545513Y-1841433D01*
X-65554587Y-1730690D01*
X-65579904Y-1639955D01*
X-65619764Y-1565412D01*
X-65674107Y-1504256D01*
X-65740926Y-1456617D01*
X-65822382Y-1420968D01*
X-65921475Y-1398065D01*
X-66041937Y-1389828D01*
X-66126934Y-1389828D01*
X-66126934Y-1688537D01*
X-66022398Y-1688537D01*
X-65931741Y-1699471D01*
X-65878172Y-1726761D01*
X-65845147Y-1772118D01*
X-65833231Y-1838624D01*
X-65844649Y-1904102D01*
X-65876127Y-1948572D01*
X-65930121Y-1977375D01*
X-66016780Y-1988589D01*
X-66118249Y-1974454D01*
X-66213640Y-1931681D01*
X-66306227Y-1859439D01*
X-66436267Y-1724074D01*
X-66554535Y-1599387D01*
X-66655756Y-1513071D01*
X-66742548Y-1457361D01*
X-66837036Y-1417596D01*
X-66944082Y-1392853D01*
X-67066047Y-1384210D01*
X-67187625Y-1392808D01*
X-67287777Y-1416746D01*
X-67370286Y-1454114D01*
X-67438151Y-1504256D01*
X-67493017Y-1568112D01*
X-67533279Y-1645429D01*
X-67558827Y-1738993D01*
X-67567966Y-1852546D01*
G37*
G36*
X-65861197Y-974493D02*
G01*
X-65861197Y-1296283D01*
X-65573601Y-1296283D01*
X-65573601Y-337141D01*
X-65861197Y-337141D01*
X-65861197Y-658931D01*
X-67540000Y-658931D01*
X-67540000Y-974493D01*
X-65861197Y-974493D01*
G37*
D11*
%TO.C,LED1*%
X-1620000Y-48170000D02*
X1580000Y-48170000D01*
X-1620000Y-51770000D02*
X-1620000Y-48170000D01*
X1580000Y-51770000D02*
X1580000Y-48170000D01*
%TO.C,LED_36*%
X33902063Y-38388656D02*
X33566530Y-38053123D01*
X34640990Y-37649729D02*
X34305457Y-37314196D01*
%TO.C,LED23*%
X-48433883Y18351792D02*
X-45107917Y16974131D01*
X-47209296Y21308206D02*
X-43883330Y19930546D01*
X-43883330Y19930546D02*
X-45107917Y16974131D01*
%TO.C,LED17*%
X-1580000Y51770000D02*
X-1580000Y48170000D01*
X1620000Y51770000D02*
X1620000Y48170000D01*
X1620000Y48170000D02*
X-1580000Y48170000D01*
%TO.C,LED11*%
X45123225Y16937176D02*
X43898638Y19893591D01*
X47224604Y21271251D02*
X43898638Y19893591D01*
X48449191Y18314837D02*
X45123225Y16937176D01*
%TO.C,LED_47*%
X12059103Y49720000D02*
X11966530Y49254602D01*
X13084024Y49516130D02*
X12991451Y49050732D01*
%TO.C,LED9*%
X48170000Y-1620000D02*
X48170000Y1580000D01*
X51770000Y1580000D02*
X48170000Y1580000D01*
X51770000Y-1620000D02*
X48170000Y-1620000D01*
%TO.C,LED6*%
X39151867Y-28108799D02*
X40929692Y-25448096D01*
X42145158Y-30108852D02*
X39151867Y-28108799D01*
X43922983Y-27448149D02*
X40929692Y-25448096D01*
%TO.C,LED14*%
X27448149Y43922983D02*
X25448096Y40929692D01*
X28108799Y39151867D02*
X25448096Y40929692D01*
X30108852Y42145158D02*
X28108799Y39151867D01*
%TO.C,LED_38*%
X46012126Y-22492736D02*
X45573730Y-22311146D01*
X46412030Y-21527282D02*
X45973634Y-21345692D01*
%TO.C,LED2*%
X7808629Y-47560473D02*
X10947142Y-46936184D01*
X8510954Y-51091300D02*
X7808629Y-47560473D01*
X11649467Y-50467011D02*
X10947142Y-46936184D01*
%TO.C,LED28*%
X-43945206Y-27414890D02*
X-40951915Y-25414837D01*
X-42167381Y-30075593D02*
X-39174090Y-28075540D01*
X-40951915Y-25414837D02*
X-39174090Y-28075540D01*
%TO.C,LED_46*%
X21527282Y46412030D02*
X21345692Y45973634D01*
X22492736Y46012126D02*
X22311146Y45573730D01*
%TO.C,LED_61*%
X-31037064Y-40739900D02*
X-30773437Y-40345355D01*
X-30168179Y-41320471D02*
X-29904552Y-40925926D01*
%TO.C,C34*%
X-18270000Y-3089420D02*
X-18270000Y-3370580D01*
X-17250000Y-3089420D02*
X-17250000Y-3370580D01*
%TO.C,LED19*%
X-21271251Y47224604D02*
X-19893591Y43898638D01*
X-18314837Y48449191D02*
X-16937176Y45123225D01*
X-16937176Y45123225D02*
X-19893591Y43898638D01*
%TO.C,LED15*%
X18351792Y48433883D02*
X16974131Y45107917D01*
X19930546Y43883330D02*
X16974131Y45107917D01*
X21308206Y47209296D02*
X19930546Y43883330D01*
%TO.C,LED30*%
X-30108852Y-42145158D02*
X-28108799Y-39151867D01*
X-28108799Y-39151867D02*
X-25448096Y-40929692D01*
X-27448149Y-43922983D02*
X-25448096Y-40929692D01*
%TO.C,LED31*%
X-21308206Y-47209296D02*
X-19930546Y-43883330D01*
X-19930546Y-43883330D02*
X-16974131Y-45107917D01*
X-18351792Y-48433883D02*
X-16974131Y-45107917D01*
%TO.C,C33*%
X17000000Y3089420D02*
X17000000Y3370580D01*
X18020000Y3089420D02*
X18020000Y3370580D01*
%TO.C,LED_44*%
X37649729Y34640990D02*
X37314196Y34305457D01*
X38388656Y33902063D02*
X38053123Y33566530D01*
%TO.C,LED3*%
X16937176Y-45123225D02*
X19893591Y-43898638D01*
X18314837Y-48449191D02*
X16937176Y-45123225D01*
X21271251Y-47224604D02*
X19893591Y-43898638D01*
%TO.C,LED29*%
X-37752431Y-35461405D02*
X-35206847Y-32915820D01*
X-35489690Y-37724146D02*
X-32944105Y-35178562D01*
X-35206847Y-32915820D02*
X-32944105Y-35178562D01*
%TO.C,LED8*%
X46928381Y-10986373D02*
X47552670Y-7847860D01*
X50459208Y-11688698D02*
X46928381Y-10986373D01*
X51083497Y-8550185D02*
X47552670Y-7847860D01*
%TO.C,LED_37*%
X40739900Y-31037064D02*
X40345355Y-30773437D01*
X41320471Y-30168179D02*
X40925926Y-29904552D01*
%TO.C,LED_49*%
X-7885862Y50550108D02*
X-7793289Y50084710D01*
X-6860941Y50753978D02*
X-6768368Y50288580D01*
%TO.C,LED_40*%
X51117258Y-2127500D02*
X50642742Y-2127500D01*
X51117258Y-3172500D02*
X50642742Y-3172500D01*
%TO.C,LED_48*%
X2127500Y51117258D02*
X2127500Y50642742D01*
X3172500Y51117258D02*
X3172500Y50642742D01*
%TO.C,LED_59*%
X-44264993Y-25761390D02*
X-43870448Y-25497763D01*
X-43684422Y-26630275D02*
X-43289877Y-26366648D01*
%TO.C,LED25*%
X-51770000Y1620000D02*
X-48170000Y1620000D01*
X-51770000Y-1580000D02*
X-48170000Y-1580000D01*
X-48170000Y1620000D02*
X-48170000Y-1580000D01*
%TO.C,LED20*%
X-30075593Y42167381D02*
X-28075540Y39174090D01*
X-27414890Y43945206D02*
X-25414837Y40951915D01*
X-25414837Y40951915D02*
X-28075540Y39174090D01*
%TO.C,LED_60*%
X-38388656Y-33902063D02*
X-38053123Y-33566530D01*
X-37649729Y-34640990D02*
X-37314196Y-34305457D01*
%TO.C,LED_51*%
X-26630275Y43684422D02*
X-26366648Y43289877D01*
X-25761390Y44264993D02*
X-25497763Y43870448D01*
%TO.C,LED7*%
X43883330Y-19930546D02*
X45107917Y-16974131D01*
X47209296Y-21308206D02*
X43883330Y-19930546D01*
X48433883Y-18351792D02*
X45107917Y-16974131D01*
%TO.C,LED12*%
X40951915Y25414837D02*
X39174090Y28075540D01*
X42167381Y30075593D02*
X39174090Y28075540D01*
X43945206Y27414890D02*
X40951915Y25414837D01*
%TO.C,LED24*%
X-51083497Y8550185D02*
X-47552670Y7847860D01*
X-50459208Y11688698D02*
X-46928381Y10986373D01*
X-46928381Y10986373D02*
X-47552670Y7847860D01*
%TO.C,LED5*%
X32915820Y-35206847D02*
X35178562Y-32944105D01*
X35461405Y-37752431D02*
X32915820Y-35206847D01*
X37724146Y-35489690D02*
X35178562Y-32944105D01*
%TO.C,LED_50*%
X-17596174Y48040348D02*
X-17414584Y47601952D01*
X-16630720Y48440252D02*
X-16449130Y48001856D01*
%TO.C,LED32*%
X-11688698Y-50459208D02*
X-10986373Y-46928381D01*
X-10986373Y-46928381D02*
X-7847860Y-47552670D01*
X-8550185Y-51083497D02*
X-7847860Y-47552670D01*
%TO.C,LED10*%
X47560473Y7808629D02*
X46936184Y10947142D01*
X50467011Y11649467D02*
X46936184Y10947142D01*
X51091300Y8510954D02*
X47560473Y7808629D01*
%TO.C,LED_55*%
X-49720000Y12059103D02*
X-49254602Y11966530D01*
X-49516130Y13084024D02*
X-49050732Y12991451D01*
%TO.C,LED27*%
X-48449191Y-18314837D02*
X-45123225Y-16937176D01*
X-47224604Y-21271251D02*
X-43898638Y-19893591D01*
X-45123225Y-16937176D02*
X-43898638Y-19893591D01*
%TO.C,LED_57*%
X-50753978Y-6860941D02*
X-50288580Y-6768368D01*
X-50550108Y-7885862D02*
X-50084710Y-7793289D01*
D12*
%TO.C,U3*%
X8220000Y-2650000D02*
X8220000Y2650000D01*
X16490000Y-2650000D02*
X16490000Y2650000D01*
D13*
X16510000Y-5405000D02*
G75*
G02*
X16310000Y-5405000I-100000J0D01*
G01*
X16310000Y-5405000D02*
G75*
G02*
X16510000Y-5405000I100000J0D01*
G01*
D11*
%TO.C,LED22*%
X-43922983Y27448149D02*
X-40929692Y25448096D01*
X-42145158Y30108852D02*
X-39151867Y28108799D01*
X-39151867Y28108799D02*
X-40929692Y25448096D01*
%TO.C,LED_54*%
X-46412030Y21527282D02*
X-45973634Y21345692D01*
X-46012126Y22492736D02*
X-45573730Y22311146D01*
D12*
%TO.C,U2*%
X-16780000Y2650000D02*
X-16780000Y-2650000D01*
X-8510000Y2650000D02*
X-8510000Y-2650000D01*
D13*
X-16600000Y5405000D02*
G75*
G02*
X-16800000Y5405000I-100000J0D01*
G01*
X-16800000Y5405000D02*
G75*
G02*
X-16600000Y5405000I100000J0D01*
G01*
D11*
%TO.C,LED_34*%
X16630720Y-48440252D02*
X16449130Y-48001856D01*
X17596174Y-48040348D02*
X17414584Y-47601952D01*
%TO.C,LED_33*%
X6860941Y-50753978D02*
X6768368Y-50288580D01*
X7885862Y-50550108D02*
X7793289Y-50084710D01*
%TO.C,LED13*%
X35206847Y32915820D02*
X32944105Y35178562D01*
X35489690Y37724146D02*
X32944105Y35178562D01*
X37752431Y35461405D02*
X35206847Y32915820D01*
%TO.C,LED_52*%
X-34640990Y37649729D02*
X-34305457Y37314196D01*
X-33902063Y38388656D02*
X-33566530Y38053123D01*
%TO.C,LED16*%
X8550185Y51083497D02*
X7847860Y47552670D01*
X10986373Y46928381D02*
X7847860Y47552670D01*
X11688698Y50459208D02*
X10986373Y46928381D01*
%TO.C,LED_45*%
X30168179Y41320471D02*
X29904552Y40925926D01*
X31037064Y40739900D02*
X30773437Y40345355D01*
%TO.C,LED_62*%
X-22492736Y-46012126D02*
X-22311146Y-45573730D01*
X-21527282Y-46412030D02*
X-21345692Y-45973634D01*
%TO.C,LED_63*%
X-13084024Y-49516130D02*
X-12991451Y-49050732D01*
X-12059103Y-49720000D02*
X-11966530Y-49254602D01*
%TO.C,LED_1*%
X-3172500Y-51117258D02*
X-3172500Y-50642742D01*
X-2127500Y-51117258D02*
X-2127500Y-50642742D01*
%TO.C,LED26*%
X-51091300Y-8510954D02*
X-47560473Y-7808629D01*
X-50467011Y-11649467D02*
X-46936184Y-10947142D01*
X-47560473Y-7808629D02*
X-46936184Y-10947142D01*
%TO.C,LED_39*%
X49516130Y-13084024D02*
X49050732Y-12991451D01*
X49720000Y-12059103D02*
X49254602Y-11966530D01*
%TO.C,LED_53*%
X-41320471Y30168179D02*
X-40925926Y29904552D01*
X-40739900Y31037064D02*
X-40345355Y30773437D01*
%TO.C,LED18*%
X-11649467Y50467011D02*
X-10947142Y46936184D01*
X-8510954Y51091300D02*
X-7808629Y47560473D01*
X-7808629Y47560473D02*
X-10947142Y46936184D01*
%TO.C,LED_56*%
X-51117258Y3172500D02*
X-50642742Y3172500D01*
X-51117258Y2127500D02*
X-50642742Y2127500D01*
%TO.C,LED21*%
X-37724146Y35489690D02*
X-35178562Y32944105D01*
X-35461405Y37752431D02*
X-32915820Y35206847D01*
X-32915820Y35206847D02*
X-35178562Y32944105D01*
%TO.C,LED_35*%
X25761390Y-44264993D02*
X25497763Y-43870448D01*
X26630275Y-43684422D02*
X26366648Y-43289877D01*
%TO.C,LED_42*%
X48040348Y17596174D02*
X47601952Y17414584D01*
X48440252Y16630720D02*
X48001856Y16449130D01*
%TO.C,LED_41*%
X50550108Y7885862D02*
X50084710Y7793289D01*
X50753978Y6860941D02*
X50288580Y6768368D01*
%TO.C,LED_43*%
X43684422Y26630275D02*
X43289877Y26366648D01*
X44264993Y25761390D02*
X43870448Y25497763D01*
%TO.C,LED_58*%
X-48440252Y-16630720D02*
X-48001856Y-16449130D01*
X-48040348Y-17596174D02*
X-47601952Y-17414584D01*
%TO.C,LED4*%
X25414837Y-40951915D02*
X28075540Y-39174090D01*
X27414890Y-43945206D02*
X25414837Y-40951915D01*
X30075593Y-42167381D02*
X28075540Y-39174090D01*
%TD*%
%LPC*%
D14*
%TO.C,Driver5*%
X-60400000Y23800000D03*
D15*
X-62900000Y23800000D03*
X-65400000Y23800000D03*
X-67900000Y23800000D03*
X-70400000Y23800000D03*
X-72900000Y23800000D03*
X-75400000Y23800000D03*
X-77900000Y23800000D03*
%TD*%
D16*
%TO.C,H32*%
X-10000000Y41900000D03*
D17*
X-10000000Y41900000D03*
%TD*%
D16*
%TO.C,H9*%
X49383092Y29588887D03*
D17*
X49383092Y29588887D03*
%TD*%
D18*
%TO.C,Driver2*%
X61825000Y-17390000D03*
D19*
X64365000Y-17390000D03*
X66905000Y-17390000D03*
X69445000Y-17390000D03*
X71985000Y-17390000D03*
X74525000Y-17390000D03*
X77065000Y-17390000D03*
X79605000Y-17390000D03*
%TD*%
D20*
%TO.C,U1*%
X13970000Y73120000D03*
X11430000Y73120000D03*
X8890000Y73120000D03*
X6350000Y73120000D03*
X-16510000Y68040000D03*
X11430000Y57880000D03*
X3810000Y73120000D03*
X1270000Y73120000D03*
X-1270000Y73120000D03*
X-3810000Y73120000D03*
X-6350000Y73120000D03*
X-8890000Y73120000D03*
X-11430000Y73120000D03*
X-13970000Y73120000D03*
X-16510000Y73120000D03*
X-16510000Y57880000D03*
X-13970000Y57880000D03*
X-11430000Y57880000D03*
X-8890000Y57880000D03*
X-6350000Y57880000D03*
X-3810000Y57880000D03*
X-1270000Y57880000D03*
X1270000Y57880000D03*
X3810000Y57880000D03*
X6350000Y57880000D03*
X8890000Y57880000D03*
X16510000Y73120000D03*
X-16510000Y65500000D03*
X13970000Y57880000D03*
X-16510000Y60420000D03*
X-16510000Y62960000D03*
X-16510000Y70580000D03*
X16510000Y57880000D03*
%TD*%
D16*
%TO.C,H33*%
X-40000000Y22500000D03*
D17*
X-40000000Y22500000D03*
%TD*%
D16*
%TO.C,H3*%
X12497381Y-65414460D03*
D17*
X12497381Y-65414460D03*
%TD*%
D16*
%TO.C,H17*%
X-49388330Y-29584555D03*
D17*
X-49388330Y-29584555D03*
%TD*%
D16*
%TO.C,H23*%
X39500000Y-22500000D03*
D17*
X39500000Y-22500000D03*
%TD*%
D16*
%TO.C,H6*%
X49383092Y-29584555D03*
D17*
X49383092Y-29584555D03*
%TD*%
D18*
%TO.C,Driver4*%
X-78155000Y-17720000D03*
D19*
X-75615000Y-17720000D03*
X-73075000Y-17720000D03*
X-70535000Y-17720000D03*
X-67995000Y-17720000D03*
X-65455000Y-17720000D03*
X-62915000Y-17720000D03*
X-60375000Y-17720000D03*
%TD*%
D16*
%TO.C,H28*%
X-4000000Y-10000000D03*
D17*
X-4000000Y-10000000D03*
%TD*%
D21*
%TO.C,L1-->l2Connection1*%
X-10150000Y80800000D03*
D15*
X-7650000Y80800000D03*
X-5150000Y80800000D03*
X-2650000Y80800000D03*
X-150000Y80800000D03*
X2350000Y80800000D03*
X4850000Y80800000D03*
X7350000Y80800000D03*
X9850000Y80800000D03*
%TD*%
D14*
%TO.C,Driver7*%
X79400000Y24000000D03*
D15*
X76900000Y24000000D03*
X74400000Y24000000D03*
X71900000Y24000000D03*
X69400000Y24000000D03*
X66900000Y24000000D03*
X64400000Y24000000D03*
X61900000Y24000000D03*
%TD*%
D16*
%TO.C,H15*%
X-75324676Y34867445D03*
D17*
X-75324676Y34867445D03*
%TD*%
D16*
%TO.C,H7*%
X75319438Y-34863113D03*
D17*
X75319438Y-34863113D03*
%TD*%
D16*
%TO.C,H27*%
X4000000Y-10000000D03*
D17*
X4000000Y-10000000D03*
%TD*%
D16*
%TO.C,H18*%
X-29589340Y-49383545D03*
D17*
X-29589340Y-49383545D03*
%TD*%
D18*
%TO.C,Driver1*%
X61825000Y17350000D03*
D19*
X64365000Y17350000D03*
X66905000Y17350000D03*
X69445000Y17350000D03*
X71985000Y17350000D03*
X74525000Y17350000D03*
X77065000Y17350000D03*
X79605000Y17350000D03*
%TD*%
D21*
%TO.C,Driver8*%
X61800000Y-24600000D03*
D15*
X64300000Y-24600000D03*
X66800000Y-24600000D03*
X69300000Y-24600000D03*
X71800000Y-24600000D03*
X74300000Y-24600000D03*
X76800000Y-24600000D03*
X79300000Y-24600000D03*
%TD*%
D16*
%TO.C,H16*%
X-75324676Y-34863113D03*
D17*
X-75324676Y-34863113D03*
%TD*%
D16*
%TO.C,H13*%
X-29589340Y49387877D03*
D17*
X-29589340Y49387877D03*
%TD*%
D16*
%TO.C,H19*%
X-32934383Y-76185096D03*
D17*
X-32934383Y-76185096D03*
%TD*%
D16*
%TO.C,H14*%
X-49388330Y29588887D03*
D17*
X-49388330Y29588887D03*
%TD*%
D16*
%TO.C,H5*%
X29584102Y-49383545D03*
D17*
X29584102Y-49383545D03*
%TD*%
D16*
%TO.C,H11*%
X34862660Y75324223D03*
D17*
X34862660Y75324223D03*
%TD*%
D21*
%TO.C,Driver6*%
X-78200000Y-24600000D03*
D15*
X-75700000Y-24600000D03*
X-73200000Y-24600000D03*
X-70700000Y-24600000D03*
X-68200000Y-24600000D03*
X-65700000Y-24600000D03*
X-63200000Y-24600000D03*
X-60700000Y-24600000D03*
%TD*%
D16*
%TO.C,H34*%
X-40000000Y-22500000D03*
D17*
X-40000000Y-22500000D03*
%TD*%
D16*
%TO.C,H29*%
X3997381Y10002166D03*
D17*
X3997381Y10002166D03*
%TD*%
D22*
%TO.C,H2*%
X-2619Y-35414460D03*
D23*
X-2619Y-35414460D03*
%TD*%
D18*
%TO.C,Driver3*%
X-78155000Y17020000D03*
D19*
X-75615000Y17020000D03*
X-73075000Y17020000D03*
X-70535000Y17020000D03*
X-67995000Y17020000D03*
X-65455000Y17020000D03*
X-62915000Y17020000D03*
X-60375000Y17020000D03*
%TD*%
D16*
%TO.C,H24*%
X40000000Y22500000D03*
D17*
X40000000Y22500000D03*
%TD*%
D16*
%TO.C,H26*%
X10000000Y21875000D03*
D17*
X10000000Y21875000D03*
%TD*%
D16*
%TO.C,H12*%
X-34867898Y75324223D03*
D17*
X-34867898Y75324223D03*
%TD*%
D16*
%TO.C,H30*%
X-4002619Y10002166D03*
D17*
X-4002619Y10002166D03*
%TD*%
D16*
%TO.C,H25*%
X10000000Y42000000D03*
D17*
X10000000Y42000000D03*
%TD*%
D16*
%TO.C,H31*%
X-10002619Y21877166D03*
D17*
X-10002619Y21877166D03*
%TD*%
D22*
%TO.C,H1*%
X-2619Y-65414460D03*
D23*
X-2619Y-65414460D03*
%TD*%
D16*
%TO.C,H4*%
X32929145Y-76185096D03*
D17*
X32929145Y-76185096D03*
%TD*%
D16*
%TO.C,H20*%
X-12502619Y-65414460D03*
D17*
X-12502619Y-65414460D03*
%TD*%
D16*
%TO.C,H10*%
X29584102Y49387877D03*
D17*
X29584102Y49387877D03*
%TD*%
D16*
%TO.C,H21*%
X-12502619Y-40414460D03*
D17*
X-12502619Y-40414460D03*
%TD*%
D16*
%TO.C,H22*%
X12250000Y-40500000D03*
D17*
X12250000Y-40500000D03*
%TD*%
D16*
%TO.C,H8*%
X75319438Y34867445D03*
D17*
X75319438Y34867445D03*
%TD*%
D24*
%TO.C,LED1*%
X-20000Y-49470000D03*
D25*
X-20000Y-51745000D03*
%TD*%
D26*
%TO.C,LED_36*%
X34687123Y-38434789D03*
X33520397Y-37268063D03*
%TD*%
D27*
%TO.C,LED23*%
X-45696666Y18949827D03*
D28*
X-47798492Y19820432D03*
%TD*%
D24*
%TO.C,LED17*%
X20000Y49470000D03*
D25*
X20000Y51745000D03*
%TD*%
D29*
%TO.C,LED11*%
X45711974Y18912872D03*
D30*
X47813800Y19783477D03*
%TD*%
D31*
%TO.C,LED_47*%
X12686227Y50194514D03*
X12364327Y48576218D03*
%TD*%
D24*
%TO.C,LED9*%
X49470000Y-20000D03*
D32*
X51745000Y-20000D03*
%TD*%
D33*
%TO.C,LED6*%
X41121690Y-27500689D03*
D34*
X43013284Y-28764611D03*
%TD*%
D35*
%TO.C,LED14*%
X27500689Y41121690D03*
D36*
X28764611Y43013284D03*
%TD*%
D37*
%TO.C,LED_38*%
X46755081Y-22234928D03*
X45230679Y-21603500D03*
%TD*%
D38*
%TO.C,LED2*%
X9631503Y-48523349D03*
D39*
X10075333Y-50754636D03*
%TD*%
D40*
%TO.C,LED28*%
X-41143913Y-27467430D03*
D41*
X-43035507Y-28731352D03*
%TD*%
D42*
%TO.C,LED_46*%
X22234928Y46755081D03*
X21603500Y45230679D03*
%TD*%
D43*
%TO.C,LED_61*%
X-30929153Y-41518875D03*
X-30012463Y-40146951D03*
%TD*%
D44*
%TO.C,C34*%
X-17760000Y-2455000D03*
X-17760000Y-4005000D03*
%TD*%
D45*
%TO.C,LED19*%
X-18912872Y45711974D03*
D46*
X-19783477Y47813800D03*
%TD*%
D47*
%TO.C,LED15*%
X18949827Y45696666D03*
D48*
X19820432Y47798492D03*
%TD*%
D49*
%TO.C,LED30*%
X-27500689Y-41121690D03*
D50*
X-28764611Y-43013284D03*
%TD*%
D51*
%TO.C,LED31*%
X-18949827Y-45696666D03*
D52*
X-19820432Y-47798492D03*
%TD*%
D53*
%TO.C,C33*%
X17510000Y2455000D03*
X17510000Y4005000D03*
%TD*%
D54*
%TO.C,LED_44*%
X38434789Y34687123D03*
X37268063Y33520397D03*
%TD*%
D55*
%TO.C,LED3*%
X18912872Y-45711974D03*
D56*
X19783477Y-47813800D03*
%TD*%
D57*
%TO.C,LED29*%
X-34994715Y-34966430D03*
D58*
X-36603383Y-36575098D03*
%TD*%
D59*
%TO.C,LED8*%
X48515546Y-9670734D03*
D60*
X50746833Y-10114564D03*
%TD*%
D61*
%TO.C,LED_37*%
X41518875Y-30929153D03*
X40146951Y-30012463D03*
%TD*%
D62*
%TO.C,LED_49*%
X-7488065Y51228492D03*
X-7166165Y49610196D03*
%TD*%
D63*
%TO.C,LED_40*%
X51705000Y-2650000D03*
X50055000Y-2650000D03*
%TD*%
D64*
%TO.C,LED_48*%
X2650000Y51705000D03*
X2650000Y50055000D03*
%TD*%
D65*
%TO.C,LED_59*%
X-44463397Y-26522364D03*
X-43091473Y-25605674D03*
%TD*%
D24*
%TO.C,LED25*%
X-49470000Y20000D03*
D32*
X-51745000Y20000D03*
%TD*%
D66*
%TO.C,LED20*%
X-27467430Y41143913D03*
D67*
X-28731352Y43035507D03*
%TD*%
D68*
%TO.C,LED_60*%
X-38434789Y-34687123D03*
X-37268063Y-33520397D03*
%TD*%
D69*
%TO.C,LED_51*%
X-26522364Y44463397D03*
X-25605674Y43091473D03*
%TD*%
D70*
%TO.C,LED7*%
X45696666Y-18949827D03*
D71*
X47798492Y-19820432D03*
%TD*%
D72*
%TO.C,LED12*%
X41143913Y27467430D03*
D73*
X43035507Y28731352D03*
%TD*%
D74*
%TO.C,LED24*%
X-48515546Y9670734D03*
D75*
X-50746833Y10114564D03*
%TD*%
D76*
%TO.C,LED5*%
X34966430Y-34994715D03*
D77*
X36575098Y-36603383D03*
%TD*%
D78*
%TO.C,LED_50*%
X-17338366Y48783303D03*
X-16706938Y47258901D03*
%TD*%
D79*
%TO.C,LED32*%
X-9670734Y-48515546D03*
D80*
X-10114564Y-50746833D03*
%TD*%
D81*
%TO.C,LED10*%
X48523349Y9631503D03*
D82*
X50754636Y10075333D03*
%TD*%
D83*
%TO.C,LED_55*%
X-50194514Y12686227D03*
X-48576218Y12364327D03*
%TD*%
D84*
%TO.C,LED27*%
X-45711974Y-18912872D03*
D85*
X-47813800Y-19783477D03*
%TD*%
D86*
%TO.C,LED_57*%
X-51228492Y-7488065D03*
X-49610196Y-7166165D03*
%TD*%
D87*
%TO.C,U3*%
X15930000Y-3505000D03*
X15280000Y-3505000D03*
X14630000Y-3505000D03*
X13980000Y-3505000D03*
X13330000Y-3505000D03*
X12680000Y-3505000D03*
X12030000Y-3505000D03*
X11380000Y-3505000D03*
X10730000Y-3505000D03*
X10080000Y-3505000D03*
X9430000Y-3505000D03*
X8780000Y-3505000D03*
X8780000Y3505000D03*
X9430000Y3505000D03*
X10080000Y3505000D03*
X10730000Y3505000D03*
X11380000Y3505000D03*
X12030000Y3505000D03*
X12680000Y3505000D03*
X13330000Y3505000D03*
X13980000Y3505000D03*
X14630000Y3505000D03*
X15280000Y3505000D03*
X15930000Y3505000D03*
%TD*%
D88*
%TO.C,LED22*%
X-41121690Y27500689D03*
D89*
X-43013284Y28764611D03*
%TD*%
D90*
%TO.C,LED_54*%
X-46755081Y22234928D03*
X-45230679Y21603500D03*
%TD*%
D91*
%TO.C,U2*%
X-16220000Y3505000D03*
X-15570000Y3505000D03*
X-14920000Y3505000D03*
X-14270000Y3505000D03*
X-13620000Y3505000D03*
X-12970000Y3505000D03*
X-12320000Y3505000D03*
X-11670000Y3505000D03*
X-11020000Y3505000D03*
X-10370000Y3505000D03*
X-9720000Y3505000D03*
X-9070000Y3505000D03*
X-9070000Y-3505000D03*
X-9720000Y-3505000D03*
X-10370000Y-3505000D03*
X-11020000Y-3505000D03*
X-11670000Y-3505000D03*
X-12320000Y-3505000D03*
X-12970000Y-3505000D03*
X-13620000Y-3505000D03*
X-14270000Y-3505000D03*
X-14920000Y-3505000D03*
X-15570000Y-3505000D03*
X-16220000Y-3505000D03*
%TD*%
D92*
%TO.C,LED_34*%
X17338366Y-48783303D03*
X16706938Y-47258901D03*
%TD*%
D93*
%TO.C,LED_33*%
X7488065Y-51228492D03*
X7166165Y-49610196D03*
%TD*%
D94*
%TO.C,LED13*%
X34994715Y34966430D03*
D95*
X36603383Y36575098D03*
%TD*%
D96*
%TO.C,LED_52*%
X-34687123Y38434789D03*
X-33520397Y37268063D03*
%TD*%
D97*
%TO.C,LED16*%
X9670734Y48515546D03*
D98*
X10114564Y50746833D03*
%TD*%
D99*
%TO.C,LED_45*%
X30929153Y41518875D03*
X30012463Y40146951D03*
%TD*%
D100*
%TO.C,LED_62*%
X-22234928Y-46755081D03*
X-21603500Y-45230679D03*
%TD*%
D101*
%TO.C,LED_63*%
X-12686227Y-50194514D03*
X-12364327Y-48576218D03*
%TD*%
D102*
%TO.C,LED_1*%
X-2650000Y-51705000D03*
X-2650000Y-50055000D03*
%TD*%
D103*
%TO.C,LED26*%
X-48523349Y-9631503D03*
D104*
X-50754636Y-10075333D03*
%TD*%
D105*
%TO.C,LED_39*%
X50194514Y-12686227D03*
X48576218Y-12364327D03*
%TD*%
D106*
%TO.C,LED_53*%
X-41518875Y30929153D03*
X-40146951Y30012463D03*
%TD*%
D107*
%TO.C,LED18*%
X-9631503Y48523349D03*
D108*
X-10075333Y50754636D03*
%TD*%
D109*
%TO.C,LED_56*%
X-51705000Y2650000D03*
X-50055000Y2650000D03*
%TD*%
D110*
%TO.C,LED21*%
X-34966430Y34994715D03*
D111*
X-36575098Y36603383D03*
%TD*%
D112*
%TO.C,LED_35*%
X26522364Y-44463397D03*
X25605674Y-43091473D03*
%TD*%
D113*
%TO.C,LED_42*%
X48783303Y17338366D03*
X47258901Y16706938D03*
%TD*%
D114*
%TO.C,LED_41*%
X51228492Y7488065D03*
X49610196Y7166165D03*
%TD*%
D115*
%TO.C,LED_43*%
X44463397Y26522364D03*
X43091473Y25605674D03*
%TD*%
D116*
%TO.C,LED_58*%
X-48783303Y-17338366D03*
X-47258901Y-16706938D03*
%TD*%
D117*
%TO.C,LED4*%
X27467430Y-41143913D03*
D118*
X28731352Y-43035507D03*
%TD*%
%LPD*%
M02*
