%TF.GenerationSoftware,KiCad,Pcbnew,9.0.6*%
%TF.CreationDate,2026-01-24T12:13:55+08:00*%
%TF.ProjectId,layer1,6c617965-7231-42e6-9b69-6361645f7063,rev?*%
%TF.SameCoordinates,Original*%
%TF.FileFunction,Profile,NP*%
%FSLAX46Y46*%
G04 Gerber Fmt 4.6, Leading zero omitted, Abs format (unit mm)*
G04 Created by KiCad (PCBNEW 9.0.6) date 2026-01-24 12:13:55*
%MOMM*%
%LPD*%
G01*
G04 APERTURE LIST*
%TA.AperFunction,Profile*%
%ADD10C,0.050000*%
%TD*%
G04 APERTURE END LIST*
D10*
X36362660Y75324223D02*
G75*
G02*
X33362660Y75324223I-1500000J0D01*
G01*
X33362660Y75324223D02*
G75*
G02*
X36362660Y75324223I1500000J0D01*
G01*
X11572381Y21877166D02*
G75*
G02*
X8422381Y21877166I-1575000J0D01*
G01*
X8422381Y21877166D02*
G75*
G02*
X11572381Y21877166I1575000J0D01*
G01*
X-73824676Y-34863113D02*
G75*
G02*
X-76824676Y-34863113I-1500000J0D01*
G01*
X-76824676Y-34863113D02*
G75*
G02*
X-73824676Y-34863113I1500000J0D01*
G01*
X29429145Y-80715569D02*
G75*
G02*
X28746175Y-81398556I-250045J-432931D01*
G01*
X28746132Y-70398581D02*
G75*
G02*
X29429127Y-71081563I432968J-250019D01*
G01*
X34429145Y-76185096D02*
G75*
G02*
X31429145Y-76185096I-1500000J0D01*
G01*
X31429145Y-76185096D02*
G75*
G02*
X34429145Y-76185096I1500000J0D01*
G01*
X41572381Y22502166D02*
G75*
G02*
X38422381Y22502166I-1575000J0D01*
G01*
X38422381Y22502166D02*
G75*
G02*
X41572381Y22502166I1575000J0D01*
G01*
X30833562Y58415508D02*
G75*
G02*
X30833594Y62658124I2121338J2121292D01*
G01*
X-27084383Y-71514606D02*
G75*
G02*
X-26834382Y-71081596I499983J6D01*
G01*
X24997381Y-73414460D02*
X24997381Y-81312034D01*
X-42169174Y73988526D02*
X-30838797Y62658149D01*
X-10927619Y-40414460D02*
G75*
G02*
X-14077619Y-40414460I-1575000J0D01*
G01*
X-14077619Y-40414460D02*
G75*
G02*
X-10927619Y-40414460I1575000J0D01*
G01*
X31159102Y-49383545D02*
G75*
G02*
X28009102Y-49383545I-1575000J0D01*
G01*
X28009102Y-49383545D02*
G75*
G02*
X31159102Y-49383545I1575000J0D01*
G01*
X-38427619Y-22497834D02*
G75*
G02*
X-41577619Y-22497834I-1575000J0D01*
G01*
X-41577619Y-22497834D02*
G75*
G02*
X-38427619Y-22497834I1575000J0D01*
G01*
X28312981Y-81148581D02*
G75*
G02*
X28746094Y-81398603I19J-500119D01*
G01*
X30833558Y-62653816D02*
G75*
G02*
X30837436Y-58407314I2121342J2121316D01*
G01*
X-58415965Y30838343D02*
G75*
G02*
X-62658619Y30838327I-2121335J2121357D01*
G01*
X27512158Y-81398581D02*
G75*
G02*
X26829127Y-80715537I-433058J249981D01*
G01*
X41439543Y78764766D02*
G75*
G02*
X42163984Y73988474I-1396943J-2654966D01*
G01*
X-30838796Y-58411180D02*
G75*
G02*
X-30838795Y-62653819I-2121304J-2121320D01*
G01*
X-73988979Y-42164389D02*
X-62658602Y-30834012D01*
X42163933Y-73984191D02*
X30833558Y-62653816D01*
X1197381Y-65414460D02*
G75*
G02*
X-1202619Y-65414460I-1200000J0D01*
G01*
X-1202619Y-65414460D02*
G75*
G02*
X1197381Y-65414460I1200000J0D01*
G01*
X-27517396Y-70398581D02*
G75*
G02*
X-27950406Y-70648583I-433004J249981D01*
G01*
X27079145Y-80282534D02*
G75*
G02*
X26829157Y-80715590I-500145J34D01*
G01*
X-30838797Y-62653817D02*
X-42169174Y-73984194D01*
X-31434383Y-76185096D02*
G75*
G02*
X-34434383Y-76185096I-1500000J0D01*
G01*
X-34434383Y-76185096D02*
G75*
G02*
X-31434383Y-76185096I1500000J0D01*
G01*
X78759981Y41444328D02*
G75*
G02*
X78759981Y-41439996I-78762598J-41442162D01*
G01*
X-10927619Y-65414460D02*
G75*
G02*
X-14077619Y-65414460I-1575000J0D01*
G01*
X-14077619Y-65414460D02*
G75*
G02*
X-10927619Y-65414460I1575000J0D01*
G01*
X-28014340Y49387877D02*
G75*
G02*
X-31164340Y49387877I-1575000J0D01*
G01*
X-31164340Y49387877D02*
G75*
G02*
X-28014340Y49387877I1575000J0D01*
G01*
X-62658602Y-30834012D02*
G75*
G02*
X-58415964Y-30834012I2121319J-2121319D01*
G01*
X58410743Y-30833995D02*
G75*
G02*
X62653319Y-30834057I2121257J-2121305D01*
G01*
X28974125Y-84148581D02*
G75*
G02*
X24997369Y-81312034I-976725J2836581D01*
G01*
X-25002619Y-81312040D02*
G75*
G02*
X-28979343Y-84148522I-2999981J40D01*
G01*
X27945181Y-70648581D02*
X28313120Y-70648581D01*
X-47813330Y29588887D02*
G75*
G02*
X-50963330Y29588887I-1575000J0D01*
G01*
X-50963330Y29588887D02*
G75*
G02*
X-47813330Y29588887I1575000J0D01*
G01*
X5497381Y10002166D02*
G75*
G02*
X2497381Y10002166I-1500000J0D01*
G01*
X2497381Y10002166D02*
G75*
G02*
X5497381Y10002166I1500000J0D01*
G01*
X29179145Y-71514634D02*
G75*
G02*
X29429128Y-71081565I500055J34D01*
G01*
X-78765219Y-41439996D02*
G75*
G02*
X-78765219Y41444328I78762598J41442162D01*
G01*
X27512158Y-81398581D02*
G75*
G02*
X27945081Y-81148552I432942J-249819D01*
G01*
X50958092Y-29584555D02*
G75*
G02*
X47808092Y-29584555I-1575000J0D01*
G01*
X47808092Y-29584555D02*
G75*
G02*
X50958092Y-29584555I1575000J0D01*
G01*
X30837430Y-58407308D02*
X58410743Y-30833995D01*
X-29434383Y-71081594D02*
G75*
G02*
X-28751413Y-70398606I249983J432994D01*
G01*
X-27950412Y-81148581D02*
X-28318355Y-81148581D01*
X-26834383Y-80715569D02*
G75*
G02*
X-27517438Y-81398605I-250017J-433031D01*
G01*
X-29434383Y-71081594D02*
G75*
G02*
X-29184397Y-71514606I-250017J-433006D01*
G01*
X-8427619Y21877166D02*
G75*
G02*
X-11577619Y21877166I-1575000J0D01*
G01*
X-11577619Y21877166D02*
G75*
G02*
X-8427619Y21877166I1575000J0D01*
G01*
X-28751370Y-81398581D02*
G75*
G02*
X-29434382Y-80715571I-433030J249981D01*
G01*
X5497381Y-9997834D02*
G75*
G02*
X2497381Y-9997834I-1500000J0D01*
G01*
X2497381Y-9997834D02*
G75*
G02*
X5497381Y-9997834I1500000J0D01*
G01*
X28312981Y-81148581D02*
X27945081Y-81148581D01*
X-58415964Y-30834012D02*
X-30838796Y-58411180D01*
X-78765219Y41444328D02*
G75*
G02*
X-73988979Y42168721I2654919J-1396928D01*
G01*
X28746132Y-70398581D02*
G75*
G02*
X28313120Y-70648621I-432932J249781D01*
G01*
X-28979363Y-84148581D02*
G75*
G02*
X-41444782Y-78760435I28976663J84150581D01*
G01*
X31159102Y49387877D02*
G75*
G02*
X28009102Y49387877I-1575000J0D01*
G01*
X28009102Y49387877D02*
G75*
G02*
X31159102Y49387877I1575000J0D01*
G01*
X-2502619Y-9997834D02*
G75*
G02*
X-5502619Y-9997834I-1500000J0D01*
G01*
X-5502619Y-9997834D02*
G75*
G02*
X-2502619Y-9997834I1500000J0D01*
G01*
X78759981Y-41439996D02*
G75*
G02*
X73983789Y-42164327I-2654881J1396996D01*
G01*
X58406849Y30842221D02*
X30833562Y58415508D01*
X-29184383Y-80282557D02*
X-29184383Y-71514606D01*
X41439543Y-78760434D02*
G75*
G02*
X28974126Y-84148584I-41442243J78762734D01*
G01*
X42163933Y-73984191D02*
G75*
G02*
X41439534Y-78760416I-2121333J-2121309D01*
G01*
X-38427619Y22502166D02*
G75*
G02*
X-41577619Y22502166I-1575000J0D01*
G01*
X-41577619Y22502166D02*
G75*
G02*
X-38427619Y22502166I1575000J0D01*
G01*
X-28318360Y-70648581D02*
G75*
G02*
X-28751394Y-70398595I-40J499981D01*
G01*
X-30838797Y62658149D02*
G75*
G02*
X-30838767Y58415481I-2121303J-2121349D01*
G01*
X-33367898Y75324223D02*
G75*
G02*
X-36367898Y75324223I-1500000J0D01*
G01*
X-36367898Y75324223D02*
G75*
G02*
X-33367898Y75324223I1500000J0D01*
G01*
X-28751370Y-81398581D02*
G75*
G02*
X-28318355Y-81148627I432970J-250019D01*
G01*
X73983784Y42168764D02*
X62653368Y30838348D01*
X-73988979Y-42164389D02*
G75*
G02*
X-78765213Y-41439993I-2121321J2121289D01*
G01*
X30833568Y62658150D02*
X30833564Y62658154D01*
X-28318360Y-70648581D02*
X-27950406Y-70648581D01*
X-27517396Y-70398581D02*
G75*
G02*
X-26834382Y-71081596I432996J-250019D01*
G01*
X29179145Y-71514634D02*
X29179145Y-80282534D01*
X-25002619Y-73414461D02*
G75*
G02*
X-22002618Y-70414481I3000019J-39D01*
G01*
X-28014340Y-49383545D02*
G75*
G02*
X-31164340Y-49383545I-1575000J0D01*
G01*
X-31164340Y-49383545D02*
G75*
G02*
X-28014340Y-49383545I1575000J0D01*
G01*
X-41444781Y78764766D02*
G75*
G02*
X41439543Y78764766I41442162J-78762598D01*
G01*
X-62658602Y30838344D02*
X-73988979Y42168721D01*
X-30838797Y58415511D02*
X-58415965Y30838343D01*
X-47813330Y-29584555D02*
G75*
G02*
X-50963330Y-29584555I-1575000J0D01*
G01*
X-50963330Y-29584555D02*
G75*
G02*
X-47813330Y-29584555I1575000J0D01*
G01*
X41572381Y-22497834D02*
G75*
G02*
X38422381Y-22497834I-1575000J0D01*
G01*
X38422381Y-22497834D02*
G75*
G02*
X41572381Y-22497834I1575000J0D01*
G01*
X-26834383Y-80715569D02*
G75*
G02*
X-27084354Y-80282557I249983J432969D01*
G01*
X21997381Y-70414460D02*
G75*
G02*
X24997440Y-73414460I19J-3000040D01*
G01*
X26829145Y-71081594D02*
G75*
G02*
X27512201Y-70398556I249955J433094D01*
G01*
X29429145Y-80715569D02*
G75*
G02*
X29179124Y-80282534I250055J433069D01*
G01*
X14072381Y-65414460D02*
G75*
G02*
X10922381Y-65414460I-1575000J0D01*
G01*
X10922381Y-65414460D02*
G75*
G02*
X14072381Y-65414460I1575000J0D01*
G01*
X62653364Y-30834012D02*
X73983734Y-42164382D01*
X-2502619Y10002166D02*
G75*
G02*
X-5502619Y10002166I-1500000J0D01*
G01*
X-5502619Y10002166D02*
G75*
G02*
X-2502619Y10002166I1500000J0D01*
G01*
X-8427619Y41927166D02*
G75*
G02*
X-11577619Y41927166I-1575000J0D01*
G01*
X-11577619Y41927166D02*
G75*
G02*
X-8427619Y41927166I1575000J0D01*
G01*
X76819438Y34867445D02*
G75*
G02*
X73819438Y34867445I-1500000J0D01*
G01*
X73819438Y34867445D02*
G75*
G02*
X76819438Y34867445I1500000J0D01*
G01*
X27079145Y-80282534D02*
X27079145Y-71512299D01*
X-25002619Y-81312040D02*
X-25002619Y-73414461D01*
X26829145Y-71081594D02*
G75*
G02*
X27079125Y-71512299I-249845J-432906D01*
G01*
X-73824676Y34867445D02*
G75*
G02*
X-76824676Y34867445I-1500000J0D01*
G01*
X-76824676Y34867445D02*
G75*
G02*
X-73824676Y34867445I1500000J0D01*
G01*
X30833564Y62658154D02*
X42163934Y73988524D01*
X-27084383Y-71514606D02*
X-27084383Y-80282557D01*
X62653368Y30838348D02*
G75*
G02*
X58406807Y30842180I-2121368J2121352D01*
G01*
X14072381Y-40414460D02*
G75*
G02*
X10922381Y-40414460I-1575000J0D01*
G01*
X10922381Y-40414460D02*
G75*
G02*
X14072381Y-40414460I1575000J0D01*
G01*
X-42169174Y73988526D02*
G75*
G02*
X-41444784Y78764771I2121324J2121324D01*
G01*
X-27950412Y-81148581D02*
G75*
G02*
X-27517381Y-81398572I12J-500019D01*
G01*
X50958092Y29588887D02*
G75*
G02*
X47808092Y29588887I-1575000J0D01*
G01*
X47808092Y29588887D02*
G75*
G02*
X50958092Y29588887I1575000J0D01*
G01*
X76819438Y-34863113D02*
G75*
G02*
X73819438Y-34863113I-1500000J0D01*
G01*
X73819438Y-34863113D02*
G75*
G02*
X76819438Y-34863113I1500000J0D01*
G01*
X-41444781Y-78760434D02*
G75*
G02*
X-42169199Y-73984169I1396881J2654934D01*
G01*
X1197381Y-35414460D02*
G75*
G02*
X-1202619Y-35414460I-1200000J0D01*
G01*
X-1202619Y-35414460D02*
G75*
G02*
X1197381Y-35414460I1200000J0D01*
G01*
X27945181Y-70648581D02*
G75*
G02*
X27512145Y-70398589I19J500081D01*
G01*
X-22002618Y-70414460D02*
X21997381Y-70414460D01*
X11572381Y41927166D02*
G75*
G02*
X8422381Y41927166I-1575000J0D01*
G01*
X8422381Y41927166D02*
G75*
G02*
X11572381Y41927166I1575000J0D01*
G01*
X73983784Y42168764D02*
G75*
G02*
X78760035Y41444356I2121316J-2121364D01*
G01*
X-29184383Y-80282557D02*
G75*
G02*
X-29434360Y-80715609I-500017J-43D01*
G01*
X73983762Y-42164354D02*
X73983734Y-42164382D01*
M02*
