%TF.GenerationSoftware,KiCad,Pcbnew,9.0.6*%
%TF.CreationDate,2026-01-29T17:50:48+08:00*%
%TF.ProjectId,layer1,6c617965-7231-42e6-9b69-6361645f7063,rev?*%
%TF.SameCoordinates,Original*%
%TF.FileFunction,Legend,Bot*%
%TF.FilePolarity,Positive*%
%FSLAX46Y46*%
G04 Gerber Fmt 4.6, Leading zero omitted, Abs format (unit mm)*
G04 Created by KiCad (PCBNEW 9.0.6) date 2026-01-29 17:50:48*
%MOMM*%
%LPD*%
G01*
G04 APERTURE LIST*
G04 Aperture macros list*
%AMRoundRect*
0 Rectangle with rounded corners*
0 $1 Rounding radius*
0 $2 $3 $4 $5 $6 $7 $8 $9 X,Y pos of 4 corners*
0 Add a 4 corners polygon primitive as box body*
4,1,4,$2,$3,$4,$5,$6,$7,$8,$9,$2,$3,0*
0 Add four circle primitives for the rounded corners*
1,1,$1+$1,$2,$3*
1,1,$1+$1,$4,$5*
1,1,$1+$1,$6,$7*
1,1,$1+$1,$8,$9*
0 Add four rect primitives between the rounded corners*
20,1,$1+$1,$2,$3,$4,$5,0*
20,1,$1+$1,$4,$5,$6,$7,0*
20,1,$1+$1,$6,$7,$8,$9,0*
20,1,$1+$1,$8,$9,$2,$3,0*%
%AMRotRect*
0 Rectangle, with rotation*
0 The origin of the aperture is its center*
0 $1 length*
0 $2 width*
0 $3 Rotation angle, in degrees counterclockwise*
0 Add horizontal line*
21,1,$1,$2,0,0,$3*%
G04 Aperture macros list end*
%ADD10C,0.300000*%
%ADD11C,0.120000*%
%ADD12C,0.127000*%
%ADD13C,0.200000*%
%ADD14C,3.600000*%
%ADD15C,5.600000*%
%ADD16C,2.600000*%
%ADD17C,3.800000*%
%ADD18C,2.754000*%
%ADD19RoundRect,0.102000X-1.275000X-1.275000X1.275000X-1.275000X1.275000X1.275000X-1.275000X1.275000X0*%
%ADD20C,1.712000*%
%ADD21RoundRect,0.250001X-0.949999X-0.949999X0.949999X-0.949999X0.949999X0.949999X-0.949999X0.949999X0*%
%ADD22C,2.400000*%
%ADD23R,1.700000X1.700000*%
%ADD24C,1.700000*%
%ADD25C,1.400000*%
%ADD26C,1.200000*%
%ADD27RoundRect,0.250000X0.725000X-0.600000X0.725000X0.600000X-0.725000X0.600000X-0.725000X-0.600000X0*%
%ADD28O,1.950000X1.700000*%
%ADD29C,1.734000*%
%ADD30RoundRect,0.102000X1.275000X1.275000X-1.275000X1.275000X-1.275000X-1.275000X1.275000X-1.275000X0*%
%ADD31RotRect,2.200000X2.200000X225.000000*%
%ADD32RotRect,1.250000X2.200000X225.000000*%
%ADD33RoundRect,0.085500X-0.256500X0.966500X-0.256500X-0.966500X0.256500X-0.966500X0.256500X0.966500X0*%
%ADD34RotRect,2.200000X2.200000X56.250000*%
%ADD35RotRect,1.250000X2.200000X56.250000*%
%ADD36RoundRect,0.225000X0.250000X-0.225000X0.250000X0.225000X-0.250000X0.225000X-0.250000X-0.225000X0*%
%ADD37RotRect,2.200000X2.200000X112.500000*%
%ADD38RotRect,1.250000X2.200000X112.500000*%
%ADD39RoundRect,0.218750X0.336857X-0.006533X0.059310X0.331659X-0.336857X0.006533X-0.059310X-0.331659X0*%
%ADD40RoundRect,0.218750X0.233575X-0.242814X0.276457X0.192580X-0.233575X0.242814X-0.276457X-0.192580X0*%
%ADD41RotRect,2.200000X2.200000X157.500000*%
%ADD42RotRect,1.250000X2.200000X157.500000*%
%ADD43RoundRect,0.218750X-0.122874X0.313716X-0.329110X-0.072125X0.122874X-0.313716X0.329110X0.072125X0*%
%ADD44RotRect,2.200000X2.200000X33.750000*%
%ADD45RotRect,1.250000X2.200000X33.750000*%
%ADD46RoundRect,0.218750X0.331659X0.059310X-0.006533X0.336857X-0.331659X-0.059310X0.006533X-0.336857X0*%
%ADD47RoundRect,0.218750X0.122874X-0.313716X0.329110X0.072125X-0.122874X0.313716X-0.329110X-0.072125X0*%
%ADD48RoundRect,0.218750X0.329110X-0.072125X0.122874X0.313716X-0.329110X0.072125X-0.122874X-0.313716X0*%
%ADD49RotRect,2.200000X2.200000X213.750000*%
%ADD50RotRect,1.250000X2.200000X213.750000*%
%ADD51RotRect,2.200000X2.200000X236.250000*%
%ADD52RotRect,1.250000X2.200000X236.250000*%
%ADD53RotRect,2.200000X2.200000X78.750000*%
%ADD54RotRect,1.250000X2.200000X78.750000*%
%ADD55R,2.200000X2.200000*%
%ADD56R,1.250000X2.200000*%
%ADD57RoundRect,0.218750X-0.308716X0.134945X-0.181716X-0.283716X0.308716X-0.134945X0.181716X0.283716X0*%
%ADD58RoundRect,0.218750X-0.283716X-0.181716X0.134945X-0.308716X0.283716X0.181716X-0.134945X0.308716X0*%
%ADD59RoundRect,0.218750X0.059310X-0.331659X0.336857X0.006533X-0.059310X0.331659X-0.336857X-0.006533X0*%
%ADD60RotRect,2.200000X2.200000X168.750000*%
%ADD61RotRect,1.250000X2.200000X168.750000*%
%ADD62RoundRect,0.218750X-0.006533X-0.336857X0.331659X-0.059310X0.006533X0.336857X-0.331659X0.059310X0*%
%ADD63RoundRect,0.225000X-0.225000X-0.250000X0.225000X-0.250000X0.225000X0.250000X-0.225000X0.250000X0*%
%ADD64RotRect,2.200000X2.200000X326.250000*%
%ADD65RotRect,1.250000X2.200000X326.250000*%
%ADD66RoundRect,0.218750X-0.192580X-0.276457X0.242814X-0.233575X0.192580X0.276457X-0.242814X0.233575X0*%
%ADD67RotRect,2.200000X2.200000X292.500000*%
%ADD68RotRect,1.250000X2.200000X292.500000*%
%ADD69RoundRect,0.218750X0.192580X0.276457X-0.242814X0.233575X-0.192580X-0.276457X0.242814X-0.233575X0*%
%ADD70RoundRect,0.218750X0.313716X0.122874X-0.072125X0.329110X-0.313716X-0.122874X0.072125X-0.329110X0*%
%ADD71RotRect,2.200000X2.200000X11.250000*%
%ADD72RotRect,1.250000X2.200000X11.250000*%
%ADD73RotRect,2.200000X2.200000X123.750000*%
%ADD74RotRect,1.250000X2.200000X123.750000*%
%ADD75RotRect,2.200000X2.200000X337.500000*%
%ADD76RotRect,1.250000X2.200000X337.500000*%
%ADD77RotRect,2.200000X2.200000X45.000000*%
%ADD78RotRect,1.250000X2.200000X45.000000*%
%ADD79RotRect,2.200000X2.200000X146.250000*%
%ADD80RotRect,1.250000X2.200000X146.250000*%
%ADD81RotRect,2.200000X2.200000X247.500000*%
%ADD82RotRect,1.250000X2.200000X247.500000*%
%ADD83RotRect,2.200000X2.200000X315.000000*%
%ADD84RotRect,1.250000X2.200000X315.000000*%
%ADD85RoundRect,0.218750X-0.059310X0.331659X-0.336857X-0.006533X0.059310X-0.331659X0.336857X0.006533X0*%
%ADD86RoundRect,0.085500X0.256500X-0.966500X0.256500X0.966500X-0.256500X0.966500X-0.256500X-0.966500X0*%
%ADD87RotRect,2.200000X2.200000X258.750000*%
%ADD88RotRect,1.250000X2.200000X258.750000*%
%ADD89RoundRect,0.218750X0.134945X0.308716X-0.283716X0.181716X-0.134945X-0.308716X0.283716X-0.181716X0*%
%ADD90RoundRect,0.218750X0.006533X0.336857X-0.331659X0.059310X-0.006533X-0.336857X0.331659X-0.059310X0*%
%ADD91RotRect,2.200000X2.200000X67.500000*%
%ADD92RotRect,1.250000X2.200000X67.500000*%
%ADD93RoundRect,0.225000X-0.250000X0.225000X-0.250000X-0.225000X0.250000X-0.225000X0.250000X0.225000X0*%
%ADD94RoundRect,0.218750X-0.313716X-0.122874X0.072125X-0.329110X0.313716X0.122874X-0.072125X0.329110X0*%
%ADD95RoundRect,0.218750X0.072125X0.329110X-0.313716X0.122874X-0.072125X-0.329110X0.313716X-0.122874X0*%
%ADD96RotRect,2.200000X2.200000X191.250000*%
%ADD97RotRect,1.250000X2.200000X191.250000*%
%ADD98RoundRect,0.218750X-0.233575X0.242814X-0.276457X-0.192580X0.233575X-0.242814X0.276457X0.192580X0*%
%ADD99RoundRect,0.218750X-0.242814X-0.233575X0.192580X-0.276457X0.242814X0.233575X-0.192580X0.276457X0*%
%ADD100RoundRect,0.218750X0.242814X0.233575X-0.192580X0.276457X-0.242814X-0.233575X0.192580X-0.276457X0*%
%ADD101R,2.200000X1.250000*%
%ADD102RotRect,2.200000X2.200000X135.000000*%
%ADD103RotRect,1.250000X2.200000X135.000000*%
%ADD104RoundRect,0.218750X-0.072125X-0.329110X0.313716X-0.122874X0.072125X0.329110X-0.313716X0.122874X0*%
%ADD105RoundRect,0.218750X-0.329110X0.072125X-0.122874X-0.313716X0.329110X-0.072125X0.122874X0.313716X0*%
%ADD106RotRect,2.200000X2.200000X22.500000*%
%ADD107RotRect,1.250000X2.200000X22.500000*%
%ADD108RotRect,2.200000X2.200000X202.500000*%
%ADD109RotRect,1.250000X2.200000X202.500000*%
%ADD110RotRect,2.200000X2.200000X101.250000*%
%ADD111RotRect,1.250000X2.200000X101.250000*%
%ADD112RoundRect,0.218750X0.181716X-0.283716X0.308716X0.134945X-0.181716X0.283716X-0.308716X-0.134945X0*%
%ADD113RoundRect,0.218750X-0.134945X-0.308716X0.283716X-0.181716X0.134945X0.308716X-0.283716X0.181716X0*%
%ADD114RoundRect,0.218750X-0.331659X-0.059310X0.006533X-0.336857X0.331659X0.059310X-0.006533X0.336857X0*%
%ADD115RotRect,2.200000X2.200000X281.250000*%
%ADD116RotRect,1.250000X2.200000X281.250000*%
%ADD117RoundRect,0.218750X0.283716X0.181716X-0.134945X0.308716X-0.283716X-0.181716X0.134945X-0.308716X0*%
%ADD118RoundRect,0.218750X0.308716X-0.134945X0.181716X0.283716X-0.308716X0.134945X-0.181716X-0.283716X0*%
%ADD119RoundRect,0.218750X-0.336857X0.006533X-0.059310X-0.331659X0.336857X-0.006533X0.059310X0.331659X0*%
%ADD120RoundRect,0.218750X-0.276457X0.192580X-0.233575X-0.242814X0.276457X-0.192580X0.233575X0.242814X0*%
%ADD121RoundRect,0.218750X0.276457X-0.192580X0.233575X0.242814X-0.276457X0.192580X-0.233575X-0.242814X0*%
%ADD122RotRect,2.200000X2.200000X348.750000*%
%ADD123RotRect,1.250000X2.200000X348.750000*%
%ADD124RotRect,2.200000X2.200000X303.750000*%
%ADD125RotRect,1.250000X2.200000X303.750000*%
%ADD126RoundRect,0.218750X-0.181716X0.283716X-0.308716X-0.134945X0.181716X-0.283716X0.308716X0.134945X0*%
G04 APERTURE END LIST*
D10*
G36*
X9232745Y1704599D02*
G01*
X8755006Y1704599D01*
X8452756Y-574370D01*
X8454588Y-574370D01*
X8152520Y1704599D01*
X7716730Y1704599D01*
X8163145Y-1245000D01*
X8786147Y-1245000D01*
X9232745Y1704599D01*
G37*
G36*
X7506986Y1704599D02*
G01*
X6236069Y1704599D01*
X6236069Y1273205D01*
X7033461Y1273205D01*
X7033461Y508420D01*
X6399834Y508420D01*
X6399834Y77026D01*
X7033461Y77026D01*
X7033461Y-813606D01*
X6236069Y-813606D01*
X6236069Y-1245000D01*
X7506986Y-1245000D01*
X7506986Y1704599D01*
G37*
G36*
X5982911Y1704599D02*
G01*
X5393248Y1704599D01*
X4944085Y-53949D01*
X4946100Y-53949D01*
X4946100Y1704599D01*
X4523133Y1704599D01*
X4523133Y-1245000D01*
X5007833Y-1245000D01*
X5561775Y899697D01*
X5559760Y899697D01*
X5559760Y-1245000D01*
X5982911Y-1245000D01*
X5982911Y1704599D01*
G37*
G36*
X3831071Y1273205D02*
G01*
X4313755Y1273205D01*
X4313755Y1704599D01*
X2875043Y1704599D01*
X2875043Y1273205D01*
X3357728Y1273205D01*
X3357728Y-1245000D01*
X3831071Y-1245000D01*
X3831071Y1273205D01*
G37*
G36*
X1993937Y1704599D02*
G01*
X723019Y1704599D01*
X723019Y1273205D01*
X1520411Y1273205D01*
X1520411Y508420D01*
X886784Y508420D01*
X886784Y77026D01*
X1520411Y77026D01*
X1520411Y-813606D01*
X723019Y-813606D01*
X723019Y-1245000D01*
X1993937Y-1245000D01*
X1993937Y1704599D01*
G37*
G36*
X54221Y263322D02*
G01*
X564017Y1704599D01*
X64846Y1704599D01*
X-245831Y756082D01*
X-564751Y1704599D01*
X-1013731Y1704599D01*
X-503752Y263322D01*
X-1038827Y-1245000D01*
X-539472Y-1245000D01*
X-203699Y-220828D01*
X-203882Y-220828D01*
X140317Y-1245000D01*
X589296Y-1245000D01*
X54221Y263322D01*
G37*
G36*
X-1241792Y1704599D02*
G01*
X-1715318Y1704599D01*
X-1715318Y508420D01*
X-2198736Y508420D01*
X-2198736Y1704599D01*
X-2672262Y1704599D01*
X-2672262Y-1245000D01*
X-2198736Y-1245000D01*
X-2198736Y77026D01*
X-1715318Y77026D01*
X-1715318Y-1245000D01*
X-1241792Y-1245000D01*
X-1241792Y1704599D01*
G37*
G36*
X-2880540Y-1245000D02*
G01*
X-3320726Y-1245000D01*
X-3404624Y-669991D01*
X-3926038Y-669991D01*
X-4002897Y-1245000D01*
X-4476789Y-1245000D01*
X-4316249Y-259480D01*
X-3862762Y-259480D01*
X-3460861Y-259480D01*
X-3659806Y1174350D01*
X-3862762Y-259480D01*
X-4316249Y-259480D01*
X-3996302Y1704599D01*
X-3361026Y1704599D01*
X-2880540Y-1245000D01*
G37*
G36*
X-5354231Y-1286948D02*
G01*
X-5186029Y-1273389D01*
X-5047378Y-1235477D01*
X-4932748Y-1175711D01*
X-4838024Y-1094241D01*
X-4763731Y-993601D01*
X-4708364Y-871254D01*
X-4672893Y-722754D01*
X-4660154Y-542496D01*
X-4660154Y1704599D01*
X-5133497Y1704599D01*
X-5133497Y-576018D01*
X-5150442Y-711494D01*
X-5192665Y-790341D01*
X-5262307Y-838261D01*
X-5362658Y-855554D01*
X-5463135Y-838247D01*
X-5532651Y-790341D01*
X-5574873Y-711494D01*
X-5591819Y-576018D01*
X-5591819Y1704599D01*
X-6048492Y1704599D01*
X-6048492Y-542496D01*
X-6035741Y-722741D01*
X-6000238Y-871237D01*
X-5944815Y-993588D01*
X-5870439Y-1094241D01*
X-5775714Y-1175711D01*
X-5661084Y-1235477D01*
X-5522434Y-1273389D01*
X-5354231Y-1286948D01*
G37*
G36*
X-6971180Y-1286948D02*
G01*
X-6802889Y-1273324D01*
X-6665028Y-1235330D01*
X-6551825Y-1175575D01*
X-6459003Y-1094241D01*
X-6386616Y-993790D01*
X-6332530Y-871511D01*
X-6297822Y-722940D01*
X-6285346Y-542496D01*
X-6285346Y-368656D01*
X-6733593Y-368656D01*
X-6733593Y-576018D01*
X-6750882Y-707478D01*
X-6795442Y-789747D01*
X-6864619Y-837985D01*
X-6966967Y-855554D01*
X-7070736Y-837579D01*
X-7140990Y-788143D01*
X-7183303Y-707085D01*
X-7200341Y-567592D01*
X-7178880Y-393099D01*
X-7116993Y-245191D01*
X-7010159Y-104683D01*
X-6807782Y91131D01*
X-6622969Y267959D01*
X-6493217Y419095D01*
X-6407712Y548354D01*
X-6345088Y688675D01*
X-6306893Y841823D01*
X-6293772Y1010522D01*
X-6306399Y1186226D01*
X-6341690Y1332082D01*
X-6397033Y1453309D01*
X-6471642Y1554024D01*
X-6566367Y1635494D01*
X-6680997Y1695260D01*
X-6819647Y1733172D01*
X-6987850Y1746731D01*
X-7153964Y1733121D01*
X-7290067Y1695145D01*
X-7401881Y1635356D01*
X-7493615Y1553840D01*
X-7565074Y1453613D01*
X-7618547Y1331428D01*
X-7652901Y1182788D01*
X-7665257Y1002096D01*
X-7665257Y874601D01*
X-7217194Y874601D01*
X-7217194Y1031405D01*
X-7200793Y1167390D01*
X-7159858Y1247743D01*
X-7091822Y1297281D01*
X-6992063Y1315154D01*
X-6893846Y1298027D01*
X-6827141Y1250810D01*
X-6783936Y1169820D01*
X-6767115Y1039831D01*
X-6788318Y887627D01*
X-6852478Y744542D01*
X-6960840Y605660D01*
X-7163888Y410601D01*
X-7350918Y233198D01*
X-7480393Y81368D01*
X-7563957Y-48820D01*
X-7623605Y-190553D01*
X-7660720Y-351122D01*
X-7673683Y-534070D01*
X-7660787Y-716437D01*
X-7624879Y-866664D01*
X-7568828Y-990427D01*
X-7493615Y-1092226D01*
X-7397831Y-1174524D01*
X-7281855Y-1234918D01*
X-7141509Y-1273239D01*
X-6971180Y-1286948D01*
G37*
G36*
X-8288260Y1273205D02*
G01*
X-7805575Y1273205D01*
X-7805575Y1704599D01*
X-9244287Y1704599D01*
X-9244287Y1273205D01*
X-8761602Y1273205D01*
X-8761602Y-1245000D01*
X-8288260Y-1245000D01*
X-8288260Y1273205D01*
G37*
D11*
%TO.C,D21*%
X-38183766Y-35921025D02*
X-35638182Y-33375440D01*
X-35921025Y-38183766D02*
X-33375440Y-35638182D01*
X-35638182Y-33375440D02*
X-33375440Y-35638182D01*
D12*
%TO.C,U1*%
X-19135000Y2650000D02*
X-19135000Y-2650000D01*
X-10865000Y2650000D02*
X-10865000Y-2650000D01*
D13*
X-18955000Y5405000D02*
G75*
G02*
X-19155000Y5405000I-100000J0D01*
G01*
X-19155000Y5405000D02*
G75*
G02*
X-18955000Y5405000I100000J0D01*
G01*
D11*
%TO.C,D4*%
X27781529Y44457920D02*
X25781476Y41464629D01*
X28442179Y39686804D02*
X25781476Y41464629D01*
X30442232Y42680095D02*
X28442179Y39686804D01*
%TO.C,R4*%
X11740000Y6359420D02*
X11740000Y6640580D01*
X12760000Y6359420D02*
X12760000Y6640580D01*
%TO.C,D31*%
X-21530819Y47798994D02*
X-20153159Y44473028D01*
X-18574405Y49023581D02*
X-17196744Y45697615D01*
X-17196744Y45697615D02*
X-20153159Y44473028D01*
%TO.C,D36*%
X-32610606Y40894725D02*
X-31161017Y39128397D01*
X-32297342Y38195839D02*
X-33746931Y39962168D01*
X-31161017Y39128397D02*
X-32297342Y38195839D01*
%TO.C,D64*%
X4170867Y49846207D02*
X4394836Y52120205D01*
X5633788Y49702122D02*
X4170867Y49846207D01*
X5857757Y51976119D02*
X5633788Y49702122D01*
%TO.C,D27*%
X-49023581Y18574405D02*
X-45697615Y17196744D01*
X-47798994Y21530819D02*
X-44473028Y20153159D01*
X-44473028Y20153159D02*
X-45697615Y17196744D01*
%TO.C,D46*%
X-25302261Y-45778006D02*
X-24225120Y-43762816D01*
X-24225120Y-43762816D02*
X-22928696Y-44455769D01*
X-22928696Y-44455769D02*
X-24005837Y-46470959D01*
%TO.C,D6*%
X41464629Y25781476D02*
X39686804Y28442179D01*
X42680095Y30442232D02*
X39686804Y28442179D01*
X44457920Y27781529D02*
X41464629Y25781476D01*
%TO.C,C2*%
X-20760000Y-2890580D02*
X-20760000Y-2609420D01*
X-19740000Y-2890580D02*
X-19740000Y-2609420D01*
%TO.C,D37*%
X-39962167Y33746931D02*
X-38195838Y32297343D01*
X-39128397Y31161017D02*
X-40894725Y32610606D01*
X-38195838Y32297343D02*
X-39128397Y31161017D01*
%TO.C,D62*%
X22928696Y44455769D02*
X24005837Y46470959D01*
X24225120Y43762816D02*
X22928696Y44455769D01*
X25302261Y45778006D02*
X24225120Y43762816D01*
%TO.C,D35*%
X-24225120Y43762816D02*
X-25302261Y45778005D01*
X-24005837Y46470959D02*
X-22928696Y44455769D01*
X-22928696Y44455769D02*
X-24225120Y43762816D01*
%TO.C,D22*%
X-44457920Y-27781529D02*
X-41464629Y-25781476D01*
X-42680095Y-30442232D02*
X-39686804Y-28442179D01*
X-41464629Y-25781476D02*
X-39686804Y-28442179D01*
%TO.C,D20*%
X-30442232Y-42680095D02*
X-28442179Y-39686804D01*
X-28442179Y-39686804D02*
X-25781476Y-41464629D01*
X-27781529Y-44457920D02*
X-25781476Y-41464629D01*
%TO.C,D2*%
X8653478Y51705293D02*
X7951153Y48174466D01*
X11089666Y47550177D02*
X7951153Y48174466D01*
X11791991Y51081004D02*
X11089666Y47550177D01*
%TO.C,D25*%
X-52400000Y1600000D02*
X-48800000Y1600000D01*
X-52400000Y-1600000D02*
X-48800000Y-1600000D01*
X-48800000Y1600000D02*
X-48800000Y-1600000D01*
%TO.C,D50*%
X13815237Y-48074730D02*
X15221939Y-47648011D01*
X14478538Y-50261339D02*
X13815237Y-48074730D01*
X15221939Y-47648011D02*
X15885239Y-49834620D01*
%TO.C,D55*%
X47648012Y-15221940D02*
X48074730Y-13815237D01*
X48074730Y-13815237D02*
X50261339Y-14478537D01*
X49834620Y-15885240D02*
X47648012Y-15221940D01*
%TO.C,D61*%
X31161017Y39128397D02*
X32610606Y40894725D01*
X32297343Y38195838D02*
X31161017Y39128397D01*
X33746931Y39962167D02*
X32297343Y38195838D01*
%TO.C,D26*%
X-51705293Y8653476D02*
X-48174466Y7951151D01*
X-51081004Y11791989D02*
X-47550177Y11089664D01*
X-47550177Y11089664D02*
X-48174466Y7951151D01*
%TO.C,D60*%
X38195839Y32297342D02*
X39962168Y33746931D01*
X39128397Y31161017D02*
X38195839Y32297342D01*
X40894725Y32610606D02*
X39128397Y31161017D01*
%TO.C,R1*%
X-11640580Y-5240000D02*
X-11359420Y-5240000D01*
X-11640580Y-6260000D02*
X-11359420Y-6260000D01*
%TO.C,D12*%
X39686804Y-28442179D02*
X41464629Y-25781476D01*
X42680095Y-30442232D02*
X39686804Y-28442179D01*
X44457920Y-27781529D02*
X41464629Y-25781476D01*
%TO.C,D57*%
X49702121Y5633788D02*
X51976118Y5857757D01*
X49846206Y4170867D02*
X49702121Y5633788D01*
X52120203Y4394836D02*
X49846206Y4170867D01*
%TO.C,D15*%
X17196744Y-45697615D02*
X20153159Y-44473028D01*
X18574405Y-49023581D02*
X17196744Y-45697615D01*
X21530819Y-47798994D02*
X20153159Y-44473028D01*
%TO.C,D41*%
X-52120203Y-4394836D02*
X-49846206Y-4170867D01*
X-49846206Y-4170867D02*
X-49702121Y-5633788D01*
X-49702121Y-5633788D02*
X-51976118Y-5857757D01*
%TO.C,D38*%
X-45778006Y25302261D02*
X-43762816Y24225120D01*
X-44455769Y22928696D02*
X-46470959Y24005837D01*
X-43762816Y24225120D02*
X-44455769Y22928696D01*
%TO.C,D8*%
X48174466Y7951151D02*
X47550177Y11089664D01*
X51081004Y11791989D02*
X47550177Y11089664D01*
X51705293Y8653476D02*
X48174466Y7951151D01*
%TO.C,D9*%
X48800000Y-1600000D02*
X48800000Y1600000D01*
X52400000Y1600000D02*
X48800000Y1600000D01*
X52400000Y-1600000D02*
X48800000Y-1600000D01*
%TO.C,D30*%
X-30442232Y42680095D02*
X-28442179Y39686804D01*
X-27781529Y44457920D02*
X-25781476Y41464629D01*
X-25781476Y41464629D02*
X-28442179Y39686804D01*
%TO.C,D11*%
X44473028Y-20153159D02*
X45697615Y-17196744D01*
X47798994Y-21530819D02*
X44473028Y-20153159D01*
X49023581Y-18574405D02*
X45697615Y-17196744D01*
%TO.C,D5*%
X35638182Y33375440D02*
X33375440Y35638182D01*
X35921025Y38183766D02*
X33375440Y35638182D01*
X38183766Y35921025D02*
X35638182Y33375440D01*
%TO.C,D28*%
X-44457920Y27781529D02*
X-41464629Y25781476D01*
X-42680095Y30442232D02*
X-39686804Y28442179D01*
X-39686804Y28442179D02*
X-41464629Y25781476D01*
%TO.C,D19*%
X-21530819Y-47798994D02*
X-20153159Y-44473028D01*
X-20153159Y-44473028D02*
X-17196744Y-45697615D01*
X-18574405Y-49023581D02*
X-17196744Y-45697615D01*
%TO.C,D13*%
X33375440Y-35638182D02*
X35638182Y-33375440D01*
X35921025Y-38183766D02*
X33375440Y-35638182D01*
X38183766Y-35921025D02*
X35638182Y-33375440D01*
%TO.C,D45*%
X-33746931Y-39962167D02*
X-32297343Y-38195838D01*
X-32297343Y-38195838D02*
X-31161017Y-39128397D01*
X-31161017Y-39128397D02*
X-32610606Y-40894725D01*
D12*
%TO.C,U2*%
X10865000Y-2650000D02*
X10865000Y2650000D01*
X19135000Y-2650000D02*
X19135000Y2650000D01*
D13*
X19155000Y-5405000D02*
G75*
G02*
X18955000Y-5405000I-100000J0D01*
G01*
X18955000Y-5405000D02*
G75*
G02*
X19155000Y-5405000I100000J0D01*
G01*
D11*
%TO.C,D18*%
X-11791989Y-51081004D02*
X-11089664Y-47550177D01*
X-11089664Y-47550177D02*
X-7951151Y-48174466D01*
X-8653476Y-51705293D02*
X-7951151Y-48174466D01*
%TO.C,D42*%
X-50261339Y-14478538D02*
X-48074730Y-13815237D01*
X-48074730Y-13815237D02*
X-47648011Y-15221939D01*
X-47648011Y-15221939D02*
X-49834620Y-15885239D01*
%TO.C,D44*%
X-40894725Y-32610606D02*
X-39128397Y-31161017D01*
X-39128397Y-31161017D02*
X-38195839Y-32297342D01*
X-38195839Y-32297342D02*
X-39962168Y-33746931D01*
%TO.C,D3*%
X18574405Y49023581D02*
X17196744Y45697615D01*
X20153159Y44473028D02*
X17196744Y45697615D01*
X21530819Y47798994D02*
X20153159Y44473028D01*
%TO.C,R2*%
X-20760000Y2890580D02*
X-20760000Y2609420D01*
X-19740000Y2890580D02*
X-19740000Y2609420D01*
%TO.C,D54*%
X43762816Y-24225120D02*
X44455769Y-22928696D01*
X44455769Y-22928696D02*
X46470959Y-24005837D01*
X45778006Y-25302261D02*
X43762816Y-24225120D01*
%TO.C,D43*%
X-46470959Y-24005837D02*
X-44455769Y-22928696D01*
X-44455769Y-22928696D02*
X-43762816Y-24225120D01*
X-43762816Y-24225120D02*
X-45778005Y-25302261D01*
%TO.C,D24*%
X-51705293Y-8653476D02*
X-48174466Y-7951151D01*
X-51081004Y-11791989D02*
X-47550177Y-11089664D01*
X-48174466Y-7951151D02*
X-47550177Y-11089664D01*
%TO.C,D48*%
X-5857757Y-51976119D02*
X-5633788Y-49702122D01*
X-5633788Y-49702122D02*
X-4170867Y-49846207D01*
X-4170867Y-49846207D02*
X-4394836Y-52120205D01*
%TO.C,D56*%
X49702122Y-5633788D02*
X49846207Y-4170867D01*
X49846207Y-4170867D02*
X52120205Y-4394836D01*
X51976119Y-5857757D02*
X49702122Y-5633788D01*
%TO.C,D40*%
X-51976119Y5857757D02*
X-49702122Y5633788D01*
X-49846207Y4170867D02*
X-52120205Y4394836D01*
X-49702122Y5633788D02*
X-49846207Y4170867D01*
%TO.C,D17*%
X-1600000Y-48800000D02*
X1600000Y-48800000D01*
X-1600000Y-52400000D02*
X-1600000Y-48800000D01*
X1600000Y-52400000D02*
X1600000Y-48800000D01*
%TO.C,D29*%
X-38183766Y35921025D02*
X-35638182Y33375440D01*
X-35921025Y38183766D02*
X-33375440Y35638182D01*
X-33375440Y35638182D02*
X-35638182Y33375440D01*
%TO.C,D59*%
X43762816Y24225120D02*
X45778005Y25302261D01*
X44455769Y22928696D02*
X43762816Y24225120D01*
X46470959Y24005837D02*
X44455769Y22928696D01*
%TO.C,R3*%
X19740000Y-2890580D02*
X19740000Y-2609420D01*
X20760000Y-2890580D02*
X20760000Y-2609420D01*
%TO.C,D51*%
X22928696Y-44455769D02*
X24225120Y-43762816D01*
X24005837Y-46470959D02*
X22928696Y-44455769D01*
X24225120Y-43762816D02*
X25302261Y-45778005D01*
%TO.C,D7*%
X45697615Y17196744D02*
X44473028Y20153159D01*
X47798994Y21530819D02*
X44473028Y20153159D01*
X49023581Y18574405D02*
X45697615Y17196744D01*
%TO.C,D23*%
X-49023581Y-18574405D02*
X-45697615Y-17196744D01*
X-47798994Y-21530819D02*
X-44473028Y-20153159D01*
X-45697615Y-17196744D02*
X-44473028Y-20153159D01*
%TO.C,D32*%
X-11791987Y51081004D02*
X-11089662Y47550177D01*
X-8653474Y51705293D02*
X-7951149Y48174466D01*
X-7951149Y48174466D02*
X-11089662Y47550177D01*
%TO.C,D63*%
X13815237Y48074730D02*
X14478537Y50261339D01*
X15221940Y47648012D02*
X13815237Y48074730D01*
X15885240Y49834620D02*
X15221940Y47648012D01*
%TO.C,D1*%
X-1599998Y52400000D02*
X-1599998Y48800000D01*
X1600002Y52400000D02*
X1600002Y48800000D01*
X1600002Y48800000D02*
X-1599998Y48800000D01*
%TO.C,D58*%
X47648011Y15221939D02*
X49834620Y15885239D01*
X48074730Y13815237D02*
X47648011Y15221939D01*
X50261339Y14478538D02*
X48074730Y13815237D01*
%TO.C,D53*%
X38195838Y-32297343D02*
X39128397Y-31161017D01*
X39128397Y-31161017D02*
X40894725Y-32610606D01*
X39962167Y-33746931D02*
X38195838Y-32297343D01*
%TO.C,D16*%
X7951151Y-48174466D02*
X11089664Y-47550177D01*
X8653476Y-51705293D02*
X7951151Y-48174466D01*
X11791989Y-51081004D02*
X11089664Y-47550177D01*
%TO.C,D39*%
X-49834620Y15885240D02*
X-47648012Y15221940D01*
X-48074730Y13815237D02*
X-50261339Y14478537D01*
X-47648012Y15221940D02*
X-48074730Y13815237D01*
%TO.C,D34*%
X-15221939Y47648011D02*
X-15885239Y49834620D01*
X-14478538Y50261339D02*
X-13815237Y48074730D01*
X-13815237Y48074730D02*
X-15221939Y47648011D01*
%TO.C,D52*%
X31161017Y-39128397D02*
X32297342Y-38195839D01*
X32297342Y-38195839D02*
X33746931Y-39962168D01*
X32610606Y-40894725D02*
X31161017Y-39128397D01*
%TO.C,D49*%
X4170867Y-49846206D02*
X5633788Y-49702121D01*
X4394836Y-52120203D02*
X4170867Y-49846206D01*
X5633788Y-49702121D02*
X5857757Y-51976118D01*
%TO.C,D33*%
X-5633788Y49702121D02*
X-5857757Y51976118D01*
X-4394836Y52120203D02*
X-4170867Y49846206D01*
X-4170867Y49846206D02*
X-5633788Y49702121D01*
%TO.C,D10*%
X47550177Y-11089664D02*
X48174466Y-7951151D01*
X51081004Y-11791989D02*
X47550177Y-11089664D01*
X51705293Y-8653476D02*
X48174466Y-7951151D01*
%TO.C,D14*%
X25781476Y-41464629D02*
X28442179Y-39686804D01*
X27781529Y-44457920D02*
X25781476Y-41464629D01*
X30442232Y-42680095D02*
X28442179Y-39686804D01*
%TO.C,C1*%
X19740000Y2890580D02*
X19740000Y2609420D01*
X20760000Y2890580D02*
X20760000Y2609420D01*
%TO.C,D47*%
X-15885240Y-49834620D02*
X-15221940Y-47648012D01*
X-15221940Y-47648012D02*
X-13815237Y-48074730D01*
X-13815237Y-48074730D02*
X-14478537Y-50261339D01*
%TD*%
%LPC*%
D14*
%TO.C,H32*%
X32931764Y-76187262D03*
D15*
X32931764Y-76187262D03*
%TD*%
D16*
%TO.C,H2*%
X34865279Y75322057D03*
D17*
X34865279Y75322057D03*
%TD*%
D14*
%TO.C,H26*%
X12500000Y-40416626D03*
D15*
X12500000Y-40416626D03*
%TD*%
D14*
%TO.C,H14*%
X10000000Y21875000D03*
D15*
X10000000Y21875000D03*
%TD*%
D14*
%TO.C,H23*%
X-75322057Y-34865279D03*
D15*
X-75322057Y-34865279D03*
%TD*%
D18*
%TO.C,J5*%
X77500000Y-27000000D03*
D19*
X72500000Y-27000000D03*
D20*
X80500000Y-17000000D03*
X69500000Y-17000000D03*
%TD*%
D21*
%TO.C,C4*%
X-62512754Y-20750000D03*
D22*
X-55012754Y-20750000D03*
%TD*%
D14*
%TO.C,H20*%
X40000000Y-22500000D03*
D15*
X40000000Y-22500000D03*
%TD*%
D23*
%TO.C,U4*%
X-75425000Y25469999D03*
D24*
X-72885000Y25469999D03*
X-70345000Y25469999D03*
D23*
X-75425000Y-9470001D03*
D24*
X-72885000Y-9470001D03*
X-67805000Y25469999D03*
X-65265000Y25469999D03*
X-60185000Y-9470001D03*
X-57645000Y-9470001D03*
X-62725000Y25469999D03*
X-60185000Y25469999D03*
X-57645000Y25469999D03*
X-70345000Y-9470001D03*
X-67805000Y-9470001D03*
X-65265000Y-9470001D03*
X-62725000Y-9470001D03*
%TD*%
D14*
%TO.C,H31*%
X-32931764Y-76187262D03*
D15*
X-32931764Y-76187262D03*
%TD*%
D25*
%TO.C,TP3*%
X82250000Y-11210000D03*
X82250000Y-8670000D03*
%TD*%
D14*
%TO.C,H27*%
X-29586721Y-49385711D03*
D15*
X-29586721Y-49385711D03*
%TD*%
D14*
%TO.C,H25*%
X-12500000Y-40416626D03*
D15*
X-12500000Y-40416626D03*
%TD*%
D26*
%TO.C,J3*%
X-20525000Y69650000D03*
D27*
X-22525000Y71250000D03*
D28*
X-22525000Y73750000D03*
X-22525000Y76250000D03*
X-22525000Y78750000D03*
%TD*%
D14*
%TO.C,H16*%
X4000000Y10000000D03*
D15*
X4000000Y10000000D03*
%TD*%
D25*
%TO.C,TP5*%
X20250000Y66250000D03*
X20250000Y68790000D03*
%TD*%
%TO.C,TP8*%
X82250000Y-4750000D03*
X82250000Y-2210000D03*
%TD*%
D14*
%TO.C,H12*%
X40000000Y22500000D03*
D15*
X40000000Y22500000D03*
%TD*%
D14*
%TO.C,H22*%
X49385711Y-29586721D03*
D15*
X49385711Y-29586721D03*
%TD*%
D16*
%TO.C,H34*%
X0Y-65416626D03*
D17*
X0Y-65416626D03*
%TD*%
D25*
%TO.C,TP7*%
X20250000Y71500000D03*
X20250000Y74040000D03*
%TD*%
D14*
%TO.C,H29*%
X-12500000Y-65416626D03*
D15*
X-12500000Y-65416626D03*
%TD*%
D14*
%TO.C,H18*%
X4000000Y-10000000D03*
D15*
X4000000Y-10000000D03*
%TD*%
D14*
%TO.C,H3*%
X-29586721Y49385711D03*
D15*
X-29586721Y49385711D03*
%TD*%
D14*
%TO.C,H11*%
X-40000000Y22500000D03*
D15*
X-40000000Y22500000D03*
%TD*%
D14*
%TO.C,H21*%
X-49385711Y-29586721D03*
D15*
X-49385711Y-29586721D03*
%TD*%
D25*
%TO.C,TP4*%
X20250000Y84460000D03*
X20250000Y81920000D03*
%TD*%
D14*
%TO.C,H19*%
X-40000000Y-22500000D03*
D15*
X-40000000Y-22500000D03*
%TD*%
D14*
%TO.C,H5*%
X-10000000Y41925000D03*
D15*
X-10000000Y41925000D03*
%TD*%
D29*
%TO.C,U3*%
X13970000Y82870000D03*
X11430000Y82870000D03*
X8890000Y82870000D03*
X6350000Y82870000D03*
X-16510000Y77790000D03*
X11430000Y67630000D03*
X3810000Y82870000D03*
X1270000Y82870000D03*
X-1270000Y82870000D03*
X-3810000Y82870000D03*
X-6350000Y82870000D03*
X-8890000Y82870000D03*
X-11430000Y82870000D03*
X-13970000Y82870000D03*
X-16510000Y82870000D03*
X-16510000Y67630000D03*
X-13970000Y67630000D03*
X-11430000Y67630000D03*
X-8890000Y67630000D03*
X-6350000Y67630000D03*
X-3810000Y67630000D03*
X-1270000Y67630000D03*
X1270000Y67630000D03*
X3810000Y67630000D03*
X6350000Y67630000D03*
X8890000Y67630000D03*
X16510000Y82870000D03*
X-16510000Y75250000D03*
X13970000Y67630000D03*
X-16510000Y70170000D03*
X-16510000Y72710000D03*
X-16510000Y80330000D03*
X16510000Y67630000D03*
%TD*%
D14*
%TO.C,H8*%
X75322057Y34865279D03*
D15*
X75322057Y34865279D03*
%TD*%
D14*
%TO.C,H7*%
X-75322057Y34865279D03*
D15*
X-75322057Y34865279D03*
%TD*%
D14*
%TO.C,H15*%
X-4000000Y10000000D03*
D15*
X-4000000Y10000000D03*
%TD*%
D14*
%TO.C,H17*%
X-4000000Y-10000000D03*
D15*
X-4000000Y-10000000D03*
%TD*%
D14*
%TO.C,H28*%
X29586721Y-49385711D03*
D15*
X29586721Y-49385711D03*
%TD*%
D25*
%TO.C,TP1*%
X82250000Y8250000D03*
X82250000Y10790000D03*
%TD*%
D18*
%TO.C,J2*%
X57500000Y27000000D03*
D30*
X62500000Y27000000D03*
D20*
X54500000Y17000000D03*
X65500000Y17000000D03*
%TD*%
D14*
%TO.C,H30*%
X12500000Y-65416626D03*
D15*
X12500000Y-65416626D03*
%TD*%
D14*
%TO.C,H6*%
X10000000Y41925000D03*
D15*
X10000000Y41925000D03*
%TD*%
D16*
%TO.C,H33*%
X0Y-35416626D03*
D17*
X0Y-35416626D03*
%TD*%
D14*
%TO.C,H10*%
X49385711Y29586721D03*
D15*
X49385711Y29586721D03*
%TD*%
D14*
%TO.C,H9*%
X-49385711Y29586721D03*
D15*
X-49385711Y29586721D03*
%TD*%
D14*
%TO.C,H4*%
X29586721Y49385711D03*
D15*
X29586721Y49385711D03*
%TD*%
D25*
%TO.C,SW2*%
X-29000000Y72500000D03*
X-29000000Y75000000D03*
X-29000000Y77500000D03*
%TD*%
D14*
%TO.C,H13*%
X-10000000Y21875000D03*
D15*
X-10000000Y21875000D03*
%TD*%
D18*
%TO.C,J1*%
X72500000Y27000000D03*
D30*
X77500000Y27000000D03*
D20*
X69500000Y17000000D03*
X80500000Y17000000D03*
%TD*%
D21*
%TO.C,C3*%
X-79500000Y-20750000D03*
D22*
X-72000000Y-20750000D03*
%TD*%
D14*
%TO.C,H24*%
X75322057Y-34865279D03*
D15*
X75322057Y-34865279D03*
%TD*%
D25*
%TO.C,TP2*%
X82250000Y1750000D03*
X82250000Y4290000D03*
%TD*%
%TO.C,TP6*%
X20250000Y76750000D03*
X20250000Y79290000D03*
%TD*%
D18*
%TO.C,J4*%
X62500000Y-27000000D03*
D19*
X57500000Y-27000000D03*
D20*
X65500000Y-17000000D03*
X54500000Y-17000000D03*
%TD*%
D16*
%TO.C,H1*%
X-34865279Y75322057D03*
D17*
X-34865279Y75322057D03*
%TD*%
D31*
%TO.C,D21*%
X-35426050Y-35426050D03*
D32*
X-37034718Y-37034718D03*
%TD*%
D33*
%TO.C,U1*%
X-18575000Y3505000D03*
X-17925000Y3505000D03*
X-17275000Y3505000D03*
X-16625000Y3505000D03*
X-15975000Y3505000D03*
X-15325000Y3505000D03*
X-14675000Y3505000D03*
X-14025000Y3505000D03*
X-13375000Y3505000D03*
X-12725000Y3505000D03*
X-12075000Y3505000D03*
X-11425000Y3505000D03*
X-11425000Y-3505000D03*
X-12075000Y-3505000D03*
X-12725000Y-3505000D03*
X-13375000Y-3505000D03*
X-14025000Y-3505000D03*
X-14675000Y-3505000D03*
X-15325000Y-3505000D03*
X-15975000Y-3505000D03*
X-16625000Y-3505000D03*
X-17275000Y-3505000D03*
X-17925000Y-3505000D03*
X-18575000Y-3505000D03*
%TD*%
D34*
%TO.C,D4*%
X27834069Y41656627D03*
D35*
X29097991Y43548221D03*
%TD*%
D36*
%TO.C,R4*%
X12250000Y5725000D03*
X12250000Y7275000D03*
%TD*%
D37*
%TO.C,D31*%
X-19172440Y46286364D03*
D38*
X-20043045Y48388190D03*
%TD*%
D39*
%TO.C,D36*%
X-32171669Y39201293D03*
X-33170839Y40418783D03*
%TD*%
D40*
%TO.C,D64*%
X4970695Y50468306D03*
X5125071Y52035722D03*
%TD*%
D41*
%TO.C,D27*%
X-46286364Y19172440D03*
D42*
X-48388190Y20043045D03*
%TD*%
D43*
%TO.C,D46*%
X-23905707Y-44724432D03*
X-24648157Y-46113458D03*
%TD*%
D44*
%TO.C,D6*%
X41656627Y27834069D03*
D45*
X43548221Y29097991D03*
%TD*%
D36*
%TO.C,C2*%
X-20250000Y-3525000D03*
X-20250000Y-1975000D03*
%TD*%
D46*
%TO.C,D37*%
X-39201292Y32171669D03*
X-40418784Y33170839D03*
%TD*%
D47*
%TO.C,D62*%
X23905707Y44724432D03*
X24648157Y46113458D03*
%TD*%
D48*
%TO.C,D35*%
X-23905707Y44724432D03*
X-24648157Y46113458D03*
%TD*%
D49*
%TO.C,D22*%
X-41656627Y-27834069D03*
D50*
X-43548221Y-29097991D03*
%TD*%
D51*
%TO.C,D20*%
X-27834069Y-41656627D03*
D52*
X-29097991Y-43548221D03*
%TD*%
D53*
%TO.C,D2*%
X9774027Y49137342D03*
D54*
X10217857Y51368629D03*
%TD*%
D55*
%TO.C,D25*%
X-50100000Y0D03*
D56*
X-52375000Y0D03*
%TD*%
D57*
%TO.C,D50*%
X14721061Y-48528837D03*
X15178261Y-50036017D03*
%TD*%
D58*
%TO.C,D55*%
X48528837Y-14721062D03*
X50036017Y-15178260D03*
%TD*%
D59*
%TO.C,D61*%
X32171669Y39201292D03*
X33170839Y40418784D03*
%TD*%
D60*
%TO.C,D26*%
X-49137342Y9774025D03*
D61*
X-51368629Y10217855D03*
%TD*%
D62*
%TO.C,D60*%
X39201293Y32171669D03*
X40418783Y33170839D03*
%TD*%
D63*
%TO.C,R1*%
X-12275000Y-5750000D03*
X-10725000Y-5750000D03*
%TD*%
D64*
%TO.C,D12*%
X41656627Y-27834069D03*
D65*
X43548221Y-29097991D03*
%TD*%
D66*
%TO.C,D57*%
X50468305Y4970695D03*
X52035721Y5125071D03*
%TD*%
D67*
%TO.C,D15*%
X19172440Y-46286364D03*
D68*
X20043045Y-48388190D03*
%TD*%
D69*
%TO.C,D41*%
X-50468305Y-4970695D03*
X-52035721Y-5125071D03*
%TD*%
D70*
%TO.C,D38*%
X-44724432Y23905707D03*
X-46113458Y24648157D03*
%TD*%
D71*
%TO.C,D8*%
X49137342Y9774025D03*
D72*
X51368629Y10217855D03*
%TD*%
D55*
%TO.C,D9*%
X50100000Y0D03*
D56*
X52375000Y0D03*
%TD*%
D73*
%TO.C,D30*%
X-27834069Y41656627D03*
D74*
X-29097991Y43548221D03*
%TD*%
D75*
%TO.C,D11*%
X46286364Y-19172440D03*
D76*
X48388190Y-20043045D03*
%TD*%
D77*
%TO.C,D5*%
X35426050Y35426050D03*
D78*
X37034718Y37034718D03*
%TD*%
D79*
%TO.C,D28*%
X-41656627Y27834069D03*
D80*
X-43548221Y29097991D03*
%TD*%
D81*
%TO.C,D19*%
X-19172440Y-46286364D03*
D82*
X-20043045Y-48388190D03*
%TD*%
D83*
%TO.C,D13*%
X35426050Y-35426050D03*
D84*
X37034718Y-37034718D03*
%TD*%
D85*
%TO.C,D45*%
X-32171669Y-39201292D03*
X-33170839Y-40418784D03*
%TD*%
D86*
%TO.C,U2*%
X18575000Y-3505000D03*
X17925000Y-3505000D03*
X17275000Y-3505000D03*
X16625000Y-3505000D03*
X15975000Y-3505000D03*
X15325000Y-3505000D03*
X14675000Y-3505000D03*
X14025000Y-3505000D03*
X13375000Y-3505000D03*
X12725000Y-3505000D03*
X12075000Y-3505000D03*
X11425000Y-3505000D03*
X11425000Y3505000D03*
X12075000Y3505000D03*
X12725000Y3505000D03*
X13375000Y3505000D03*
X14025000Y3505000D03*
X14675000Y3505000D03*
X15325000Y3505000D03*
X15975000Y3505000D03*
X16625000Y3505000D03*
X17275000Y3505000D03*
X17925000Y3505000D03*
X18575000Y3505000D03*
%TD*%
D87*
%TO.C,D18*%
X-9774025Y-49137342D03*
D88*
X-10217855Y-51368629D03*
%TD*%
D89*
%TO.C,D42*%
X-48528837Y-14721061D03*
X-50036017Y-15178261D03*
%TD*%
D90*
%TO.C,D44*%
X-39201293Y-32171669D03*
X-40418783Y-33170839D03*
%TD*%
D91*
%TO.C,D3*%
X19172440Y46286364D03*
D92*
X20043045Y48388190D03*
%TD*%
D93*
%TO.C,R2*%
X-20250000Y3525000D03*
X-20250000Y1975000D03*
%TD*%
D94*
%TO.C,D54*%
X44724432Y-23905707D03*
X46113458Y-24648157D03*
%TD*%
D95*
%TO.C,D43*%
X-44724432Y-23905707D03*
X-46113458Y-24648157D03*
%TD*%
D96*
%TO.C,D24*%
X-49137342Y-9774025D03*
D97*
X-51368629Y-10217855D03*
%TD*%
D98*
%TO.C,D48*%
X-4970695Y-50468306D03*
X-5125071Y-52035722D03*
%TD*%
D99*
%TO.C,D56*%
X50468306Y-4970695D03*
X52035722Y-5125071D03*
%TD*%
D100*
%TO.C,D40*%
X-50468306Y4970695D03*
X-52035722Y5125071D03*
%TD*%
D55*
%TO.C,D17*%
X0Y-50100000D03*
D101*
X0Y-52375000D03*
%TD*%
D102*
%TO.C,D29*%
X-35426050Y35426050D03*
D103*
X-37034718Y37034718D03*
%TD*%
D104*
%TO.C,D59*%
X44724432Y23905707D03*
X46113458Y24648157D03*
%TD*%
D36*
%TO.C,R3*%
X20250000Y-3525000D03*
X20250000Y-1975000D03*
%TD*%
D105*
%TO.C,D51*%
X23905707Y-44724432D03*
X24648157Y-46113458D03*
%TD*%
D106*
%TO.C,D7*%
X46286364Y19172440D03*
D107*
X48388190Y20043045D03*
%TD*%
D108*
%TO.C,D23*%
X-46286364Y-19172440D03*
D109*
X-48388190Y-20043045D03*
%TD*%
D110*
%TO.C,D32*%
X-9774023Y49137342D03*
D111*
X-10217853Y51368629D03*
%TD*%
D112*
%TO.C,D63*%
X14721062Y48528837D03*
X15178260Y50036017D03*
%TD*%
D55*
%TO.C,D1*%
X2Y50100000D03*
D101*
X2Y52375000D03*
%TD*%
D113*
%TO.C,D58*%
X48528837Y14721061D03*
X50036017Y15178261D03*
%TD*%
D114*
%TO.C,D53*%
X39201292Y-32171669D03*
X40418784Y-33170839D03*
%TD*%
D115*
%TO.C,D16*%
X9774025Y-49137342D03*
D116*
X10217855Y-51368629D03*
%TD*%
D117*
%TO.C,D39*%
X-48528837Y14721062D03*
X-50036017Y15178260D03*
%TD*%
D118*
%TO.C,D34*%
X-14721061Y48528837D03*
X-15178261Y50036017D03*
%TD*%
D119*
%TO.C,D52*%
X32171669Y-39201293D03*
X33170839Y-40418783D03*
%TD*%
D120*
%TO.C,D49*%
X4970695Y-50468305D03*
X5125071Y-52035721D03*
%TD*%
D121*
%TO.C,D33*%
X-4970695Y50468305D03*
X-5125071Y52035721D03*
%TD*%
D122*
%TO.C,D10*%
X49137342Y-9774025D03*
D123*
X51368629Y-10217855D03*
%TD*%
D124*
%TO.C,D14*%
X27834069Y-41656627D03*
D125*
X29097991Y-43548221D03*
%TD*%
D93*
%TO.C,C1*%
X20250000Y3525000D03*
X20250000Y1975000D03*
%TD*%
D126*
%TO.C,D47*%
X-14721062Y-48528837D03*
X-15178260Y-50036017D03*
%TD*%
%LPD*%
M02*
