%TF.GenerationSoftware,KiCad,Pcbnew,9.0.6*%
%TF.CreationDate,2026-03-02T09:12:09+08:00*%
%TF.ProjectId,layer1,6c617965-7231-42e6-9b69-6361645f7063,rev?*%
%TF.SameCoordinates,Original*%
%TF.FileFunction,Soldermask,Bot*%
%TF.FilePolarity,Negative*%
%FSLAX46Y46*%
G04 Gerber Fmt 4.6, Leading zero omitted, Abs format (unit mm)*
G04 Created by KiCad (PCBNEW 9.0.6) date 2026-03-02 09:12:09*
%MOMM*%
%LPD*%
G01*
G04 APERTURE LIST*
G04 Aperture macros list*
%AMRoundRect*
0 Rectangle with rounded corners*
0 $1 Rounding radius*
0 $2 $3 $4 $5 $6 $7 $8 $9 X,Y pos of 4 corners*
0 Add a 4 corners polygon primitive as box body*
4,1,4,$2,$3,$4,$5,$6,$7,$8,$9,$2,$3,0*
0 Add four circle primitives for the rounded corners*
1,1,$1+$1,$2,$3*
1,1,$1+$1,$4,$5*
1,1,$1+$1,$6,$7*
1,1,$1+$1,$8,$9*
0 Add four rect primitives between the rounded corners*
20,1,$1+$1,$2,$3,$4,$5,0*
20,1,$1+$1,$4,$5,$6,$7,0*
20,1,$1+$1,$6,$7,$8,$9,0*
20,1,$1+$1,$8,$9,$2,$3,0*%
%AMRotRect*
0 Rectangle, with rotation*
0 The origin of the aperture is its center*
0 $1 length*
0 $2 width*
0 $3 Rotation angle, in degrees counterclockwise*
0 Add horizontal line*
21,1,$1,$2,0,0,$3*%
G04 Aperture macros list end*
%ADD10C,3.600000*%
%ADD11C,5.600000*%
%ADD12C,2.754000*%
%ADD13RoundRect,0.102000X-1.275000X-1.275000X1.275000X-1.275000X1.275000X1.275000X-1.275000X1.275000X0*%
%ADD14C,1.712000*%
%ADD15RoundRect,0.250001X-0.949999X-0.949999X0.949999X-0.949999X0.949999X0.949999X-0.949999X0.949999X0*%
%ADD16C,2.400000*%
%ADD17R,1.700000X1.700000*%
%ADD18C,1.700000*%
%ADD19C,1.400000*%
%ADD20C,1.200000*%
%ADD21RoundRect,0.250000X0.725000X-0.600000X0.725000X0.600000X-0.725000X0.600000X-0.725000X-0.600000X0*%
%ADD22O,1.950000X1.700000*%
%ADD23C,2.600000*%
%ADD24C,3.800000*%
%ADD25C,1.734000*%
%ADD26RoundRect,0.102000X1.275000X1.275000X-1.275000X1.275000X-1.275000X-1.275000X1.275000X-1.275000X0*%
%ADD27R,2.200000X2.200000*%
%ADD28R,2.200000X1.250000*%
%ADD29RoundRect,0.200000X0.319076X0.117540X-0.013512X0.339768X-0.319076X-0.117540X0.013512X-0.339768X0*%
%ADD30RoundRect,0.250001X-1.044999X0.872499X-1.044999X-0.872499X1.044999X-0.872499X1.044999X0.872499X0*%
%ADD31RoundRect,0.218750X-0.264539X-0.208650X0.164555X-0.294002X0.264539X0.208650X-0.164555X0.294002X0*%
%ADD32RotRect,2.200000X2.200000X281.250000*%
%ADD33RotRect,1.250000X2.200000X281.250000*%
%ADD34RoundRect,0.218750X-0.039519X-0.334595X0.324249X-0.091533X0.039519X0.334595X-0.324249X0.091533X0*%
%ADD35RotRect,2.200000X2.200000X247.500000*%
%ADD36RotRect,1.250000X2.200000X247.500000*%
%ADD37RotRect,2.200000X2.200000X326.250000*%
%ADD38RotRect,1.250000X2.200000X326.250000*%
%ADD39RoundRect,0.218750X-0.324249X-0.091533X0.039519X-0.334595X0.324249X0.091533X-0.039519X0.334595X0*%
%ADD40RoundRect,0.085500X-0.256500X0.966500X-0.256500X-0.966500X0.256500X-0.966500X0.256500X0.966500X0*%
%ADD41RoundRect,0.200000X0.330604X-0.079538X0.177530X0.290014X-0.330604X0.079538X-0.177530X-0.290014X0*%
%ADD42RoundRect,0.200000X0.339768X-0.013512X0.117540X0.319076X-0.339768X0.013512X-0.117540X-0.319076X0*%
%ADD43RoundRect,0.225000X0.250000X-0.225000X0.250000X0.225000X-0.250000X0.225000X-0.250000X-0.225000X0*%
%ADD44RoundRect,0.218750X-0.164555X-0.294002X0.264539X-0.208650X0.164555X0.294002X-0.264539X0.208650X0*%
%ADD45RotRect,2.200000X2.200000X213.750000*%
%ADD46RotRect,1.250000X2.200000X213.750000*%
%ADD47RotRect,2.200000X2.200000X292.500000*%
%ADD48RotRect,1.250000X2.200000X292.500000*%
%ADD49RoundRect,0.200000X-0.308734X0.142507X-0.230698X-0.249807X0.308734X-0.142507X0.230698X0.249807X0*%
%ADD50RoundRect,0.200000X0.290014X0.177530X-0.079538X0.330604X-0.290014X-0.177530X0.079538X-0.330604X0*%
%ADD51RoundRect,0.200000X-0.013512X-0.339768X0.319076X-0.117540X0.013512X0.339768X-0.319076X0.117540X0*%
%ADD52RoundRect,0.218750X0.320456X-0.104036X0.153032X0.300161X-0.320456X0.104036X-0.153032X-0.300161X0*%
%ADD53RoundRect,0.218750X-0.300161X-0.153032X0.104036X-0.320456X0.300161X0.153032X-0.104036X0.320456X0*%
%ADD54RoundRect,0.200000X-0.230698X0.249807X-0.308734X-0.142507X0.230698X-0.249807X0.308734X0.142507X0*%
%ADD55RoundRect,0.218750X-0.208650X0.264539X-0.294002X-0.164555X0.208650X-0.264539X0.294002X0.164555X0*%
%ADD56RoundRect,0.218750X0.256250X-0.218750X0.256250X0.218750X-0.256250X0.218750X-0.256250X-0.218750X0*%
%ADD57RoundRect,0.218750X0.334595X-0.039519X0.091533X0.324249X-0.334595X0.039519X-0.091533X-0.324249X0*%
%ADD58RoundRect,0.218750X-0.104036X-0.320456X0.300161X-0.153032X0.104036X0.320456X-0.300161X0.153032X0*%
%ADD59RoundRect,0.218750X0.324249X0.091533X-0.039519X0.334595X-0.324249X-0.091533X0.039519X-0.334595X0*%
%ADD60RotRect,2.200000X2.200000X191.250000*%
%ADD61RotRect,1.250000X2.200000X191.250000*%
%ADD62RoundRect,0.218750X0.218750X0.256250X-0.218750X0.256250X-0.218750X-0.256250X0.218750X-0.256250X0*%
%ADD63R,1.250000X2.200000*%
%ADD64RoundRect,0.200000X0.200000X0.275000X-0.200000X0.275000X-0.200000X-0.275000X0.200000X-0.275000X0*%
%ADD65RoundRect,0.218750X0.294002X-0.164555X0.208650X0.264539X-0.294002X0.164555X-0.208650X-0.264539X0*%
%ADD66RoundRect,0.200000X-0.249807X-0.230698X0.142507X-0.308734X0.249807X0.230698X-0.142507X0.308734X0*%
%ADD67RotRect,2.200000X2.200000X22.500000*%
%ADD68RotRect,1.250000X2.200000X22.500000*%
%ADD69RoundRect,0.218750X0.264539X0.208650X-0.164555X0.294002X-0.264539X-0.208650X0.164555X-0.294002X0*%
%ADD70RoundRect,0.200000X0.053033X-0.335876X0.335876X-0.053033X-0.053033X0.335876X-0.335876X0.053033X0*%
%ADD71RoundRect,0.200000X0.230698X-0.249807X0.308734X0.142507X-0.230698X0.249807X-0.308734X-0.142507X0*%
%ADD72RoundRect,0.225000X-0.225000X-0.250000X0.225000X-0.250000X0.225000X0.250000X-0.225000X0.250000X0*%
%ADD73RotRect,2.200000X2.200000X348.750000*%
%ADD74RotRect,1.250000X2.200000X348.750000*%
%ADD75RoundRect,0.200000X-0.335876X-0.053033X-0.053033X-0.335876X0.335876X0.053033X0.053033X0.335876X0*%
%ADD76RoundRect,0.200000X0.335876X0.053033X0.053033X0.335876X-0.335876X-0.053033X-0.053033X-0.335876X0*%
%ADD77RotRect,2.200000X2.200000X157.500000*%
%ADD78RotRect,1.250000X2.200000X157.500000*%
%ADD79RotRect,2.200000X2.200000X303.750000*%
%ADD80RotRect,1.250000X2.200000X303.750000*%
%ADD81RoundRect,0.218750X-0.335876X-0.026517X-0.026517X-0.335876X0.335876X0.026517X0.026517X0.335876X0*%
%ADD82RoundRect,0.200000X-0.079538X-0.330604X0.290014X-0.177530X0.079538X0.330604X-0.290014X0.177530X0*%
%ADD83RoundRect,0.218750X-0.256250X0.218750X-0.256250X-0.218750X0.256250X-0.218750X0.256250X0.218750X0*%
%ADD84RotRect,2.200000X2.200000X258.750000*%
%ADD85RotRect,1.250000X2.200000X258.750000*%
%ADD86RoundRect,0.200000X-0.200000X-0.275000X0.200000X-0.275000X0.200000X0.275000X-0.200000X0.275000X0*%
%ADD87RoundRect,0.218750X0.153032X-0.300161X0.320456X0.104036X-0.153032X0.300161X-0.320456X-0.104036X0*%
%ADD88RoundRect,0.200000X-0.177530X0.290014X-0.330604X-0.079538X0.177530X-0.290014X0.330604X0.079538X0*%
%ADD89RotRect,2.200000X2.200000X56.250000*%
%ADD90RotRect,1.250000X2.200000X56.250000*%
%ADD91RoundRect,0.200000X0.275000X-0.200000X0.275000X0.200000X-0.275000X0.200000X-0.275000X-0.200000X0*%
%ADD92RoundRect,0.218750X-0.218750X-0.256250X0.218750X-0.256250X0.218750X0.256250X-0.218750X0.256250X0*%
%ADD93RoundRect,0.218750X0.091533X-0.324249X0.334595X0.039519X-0.091533X0.324249X-0.334595X-0.039519X0*%
%ADD94RoundRect,0.085500X0.256500X-0.966500X0.256500X0.966500X-0.256500X0.966500X-0.256500X-0.966500X0*%
%ADD95RotRect,2.200000X2.200000X236.250000*%
%ADD96RotRect,1.250000X2.200000X236.250000*%
%ADD97RoundRect,0.200000X-0.142507X-0.308734X0.249807X-0.230698X0.142507X0.308734X-0.249807X0.230698X0*%
%ADD98RoundRect,0.200000X-0.330604X0.079538X-0.177530X-0.290014X0.330604X-0.079538X0.177530X0.290014X0*%
%ADD99RoundRect,0.218750X-0.334595X0.039519X-0.091533X-0.324249X0.334595X-0.039519X0.091533X0.324249X0*%
%ADD100RotRect,2.200000X2.200000X112.500000*%
%ADD101RotRect,1.250000X2.200000X112.500000*%
%ADD102RoundRect,0.200000X0.079538X0.330604X-0.290014X0.177530X-0.079538X-0.330604X0.290014X-0.177530X0*%
%ADD103RotRect,2.200000X2.200000X33.750000*%
%ADD104RotRect,1.250000X2.200000X33.750000*%
%ADD105RoundRect,0.218750X0.335876X0.026517X0.026517X0.335876X-0.335876X-0.026517X-0.026517X-0.335876X0*%
%ADD106RotRect,2.200000X2.200000X123.750000*%
%ADD107RotRect,1.250000X2.200000X123.750000*%
%ADD108RoundRect,0.218750X-0.294002X0.164555X-0.208650X-0.264539X0.294002X-0.164555X0.208650X0.264539X0*%
%ADD109RoundRect,0.200000X-0.339768X0.013512X-0.117540X-0.319076X0.339768X-0.013512X0.117540X0.319076X0*%
%ADD110RoundRect,0.200000X-0.053033X0.335876X-0.335876X0.053033X0.053033X-0.335876X0.335876X-0.053033X0*%
%ADD111RoundRect,0.225000X-0.250000X0.225000X-0.250000X-0.225000X0.250000X-0.225000X0.250000X0.225000X0*%
%ADD112RoundRect,0.200000X-0.290014X-0.177530X0.079538X-0.330604X0.290014X0.177530X-0.079538X0.330604X0*%
%ADD113RoundRect,0.218750X0.026517X-0.335876X0.335876X-0.026517X-0.026517X0.335876X-0.335876X0.026517X0*%
%ADD114RoundRect,0.218750X-0.320456X0.104036X-0.153032X-0.300161X0.320456X-0.104036X0.153032X0.300161X0*%
%ADD115RoundRect,0.200000X-0.275000X0.200000X-0.275000X-0.200000X0.275000X-0.200000X0.275000X0.200000X0*%
%ADD116RoundRect,0.200000X-0.319076X-0.117540X0.013512X-0.339768X0.319076X0.117540X-0.013512X0.339768X0*%
%ADD117RoundRect,0.200000X0.308734X-0.142507X0.230698X0.249807X-0.308734X0.142507X-0.230698X-0.249807X0*%
%ADD118RoundRect,0.218750X0.300161X0.153032X-0.104036X0.320456X-0.300161X-0.153032X0.104036X-0.320456X0*%
%ADD119RoundRect,0.200000X0.013512X0.339768X-0.319076X0.117540X-0.013512X-0.339768X0.319076X-0.117540X0*%
%ADD120RoundRect,0.218750X0.104036X0.320456X-0.300161X0.153032X-0.104036X-0.320456X0.300161X-0.153032X0*%
%ADD121RoundRect,0.200000X-0.117540X0.319076X-0.339768X-0.013512X0.117540X-0.319076X0.339768X0.013512X0*%
%ADD122RotRect,2.200000X2.200000X315.000000*%
%ADD123RotRect,1.250000X2.200000X315.000000*%
%ADD124RotRect,2.200000X2.200000X11.250000*%
%ADD125RotRect,1.250000X2.200000X11.250000*%
%ADD126RotRect,2.200000X2.200000X225.000000*%
%ADD127RotRect,1.250000X2.200000X225.000000*%
%ADD128RotRect,2.200000X2.200000X101.250000*%
%ADD129RotRect,1.250000X2.200000X101.250000*%
%ADD130RotRect,2.200000X2.200000X135.000000*%
%ADD131RotRect,1.250000X2.200000X135.000000*%
%ADD132RoundRect,0.218750X0.164555X0.294002X-0.264539X0.208650X-0.164555X-0.294002X0.264539X-0.208650X0*%
%ADD133RotRect,2.200000X2.200000X78.750000*%
%ADD134RotRect,1.250000X2.200000X78.750000*%
%ADD135RotRect,2.200000X2.200000X67.500000*%
%ADD136RotRect,1.250000X2.200000X67.500000*%
%ADD137RotRect,2.200000X2.200000X146.250000*%
%ADD138RotRect,1.250000X2.200000X146.250000*%
%ADD139RoundRect,0.218750X-0.026517X0.335876X-0.335876X0.026517X0.026517X-0.335876X0.335876X-0.026517X0*%
%ADD140RotRect,2.200000X2.200000X168.750000*%
%ADD141RotRect,1.250000X2.200000X168.750000*%
%ADD142RoundRect,0.200000X0.177530X-0.290014X0.330604X0.079538X-0.177530X0.290014X-0.330604X-0.079538X0*%
%ADD143RoundRect,0.200000X0.249807X0.230698X-0.142507X0.308734X-0.249807X-0.230698X0.142507X-0.308734X0*%
%ADD144RoundRect,0.200000X0.117540X-0.319076X0.339768X0.013512X-0.117540X0.319076X-0.339768X-0.013512X0*%
%ADD145RoundRect,0.218750X0.039519X0.334595X-0.324249X0.091533X-0.039519X-0.334595X0.324249X-0.091533X0*%
%ADD146RotRect,2.200000X2.200000X45.000000*%
%ADD147RotRect,1.250000X2.200000X45.000000*%
%ADD148RoundRect,0.218750X-0.153032X0.300161X-0.320456X-0.104036X0.153032X-0.300161X0.320456X0.104036X0*%
%ADD149RoundRect,0.218750X0.208650X-0.264539X0.294002X0.164555X-0.208650X0.264539X-0.294002X-0.164555X0*%
%ADD150RoundRect,0.200000X0.142507X0.308734X-0.249807X0.230698X-0.142507X-0.308734X0.249807X-0.230698X0*%
%ADD151RoundRect,0.218750X-0.091533X0.324249X-0.334595X-0.039519X0.091533X-0.324249X0.334595X0.039519X0*%
%ADD152RotRect,2.200000X2.200000X202.500000*%
%ADD153RotRect,1.250000X2.200000X202.500000*%
%ADD154RotRect,2.200000X2.200000X337.500000*%
%ADD155RotRect,1.250000X2.200000X337.500000*%
G04 APERTURE END LIST*
D10*
%TO.C,H32*%
X32931764Y-76187262D03*
D11*
X32931764Y-76187262D03*
%TD*%
D10*
%TO.C,H26*%
X12500000Y-40416626D03*
D11*
X12500000Y-40416626D03*
%TD*%
D10*
%TO.C,H14*%
X10000000Y21875000D03*
D11*
X10000000Y21875000D03*
%TD*%
D10*
%TO.C,H23*%
X-75322057Y-34865279D03*
D11*
X-75322057Y-34865279D03*
%TD*%
D12*
%TO.C,J5*%
X77500000Y-27000000D03*
D13*
X72500000Y-27000000D03*
D14*
X80500000Y-17000000D03*
X69500000Y-17000000D03*
%TD*%
D15*
%TO.C,C4*%
X-62512754Y-20750000D03*
D16*
X-55012754Y-20750000D03*
%TD*%
D10*
%TO.C,H20*%
X40000000Y-22500000D03*
D11*
X40000000Y-22500000D03*
%TD*%
D17*
%TO.C,U4*%
X-75425000Y25469999D03*
D18*
X-72885000Y25469999D03*
X-70345000Y25469999D03*
D17*
X-75425000Y-9470001D03*
D18*
X-72885000Y-9470001D03*
X-67805000Y25469999D03*
X-65265000Y25469999D03*
X-60185000Y-9470001D03*
X-57645000Y-9470001D03*
X-62725000Y25469999D03*
X-60185000Y25469999D03*
X-57645000Y25469999D03*
X-70345000Y-9470001D03*
X-67805000Y-9470001D03*
X-65265000Y-9470001D03*
X-62725000Y-9470001D03*
%TD*%
D10*
%TO.C,H31*%
X-32931764Y-76187262D03*
D11*
X-32931764Y-76187262D03*
%TD*%
D19*
%TO.C,TP3*%
X82250000Y-11210000D03*
X82250000Y-8670000D03*
%TD*%
D10*
%TO.C,H27*%
X-29586721Y-49385711D03*
D11*
X-29586721Y-49385711D03*
%TD*%
D10*
%TO.C,H1*%
X-34865279Y75322057D03*
D11*
X-34865279Y75322057D03*
%TD*%
D10*
%TO.C,H25*%
X-12500000Y-40416626D03*
D11*
X-12500000Y-40416626D03*
%TD*%
D20*
%TO.C,J3*%
X-20525000Y69650000D03*
D21*
X-22525000Y71250000D03*
D22*
X-22525000Y73750000D03*
X-22525000Y76250000D03*
X-22525000Y78750000D03*
%TD*%
D10*
%TO.C,H16*%
X4000000Y10000000D03*
D11*
X4000000Y10000000D03*
%TD*%
D19*
%TO.C,TP5*%
X20250000Y66250000D03*
X20250000Y68790000D03*
%TD*%
%TO.C,TP8*%
X82250000Y-4750000D03*
X82250000Y-2210000D03*
%TD*%
D10*
%TO.C,H12*%
X40000000Y22500000D03*
D11*
X40000000Y22500000D03*
%TD*%
D10*
%TO.C,H22*%
X49385711Y-29586721D03*
D11*
X49385711Y-29586721D03*
%TD*%
D23*
%TO.C,H34*%
X0Y-65416626D03*
D24*
X0Y-65416626D03*
%TD*%
D19*
%TO.C,TP7*%
X20250000Y71500000D03*
X20250000Y74040000D03*
%TD*%
D10*
%TO.C,H29*%
X-12500000Y-65416626D03*
D11*
X-12500000Y-65416626D03*
%TD*%
D10*
%TO.C,H18*%
X4000000Y-10000000D03*
D11*
X4000000Y-10000000D03*
%TD*%
D10*
%TO.C,H3*%
X-29586721Y49385711D03*
D11*
X-29586721Y49385711D03*
%TD*%
D10*
%TO.C,H11*%
X-40000000Y22500000D03*
D11*
X-40000000Y22500000D03*
%TD*%
D10*
%TO.C,H21*%
X-49385711Y-29586721D03*
D11*
X-49385711Y-29586721D03*
%TD*%
D19*
%TO.C,TP4*%
X20250000Y84460000D03*
X20250000Y81920000D03*
%TD*%
D10*
%TO.C,H19*%
X-40000000Y-22500000D03*
D11*
X-40000000Y-22500000D03*
%TD*%
D10*
%TO.C,H2*%
X34865279Y75322057D03*
D11*
X34865279Y75322057D03*
%TD*%
D10*
%TO.C,H5*%
X-10000000Y41925000D03*
D11*
X-10000000Y41925000D03*
%TD*%
D25*
%TO.C,U3*%
X13970000Y82870000D03*
X11430000Y82870000D03*
X8890000Y82870000D03*
X6350000Y82870000D03*
X-16510000Y77790000D03*
X11430000Y67630000D03*
X3810000Y82870000D03*
X1270000Y82870000D03*
X-1270000Y82870000D03*
X-3810000Y82870000D03*
X-6350000Y82870000D03*
X-8890000Y82870000D03*
X-11430000Y82870000D03*
X-13970000Y82870000D03*
X-16510000Y82870000D03*
X-16510000Y67630000D03*
X-13970000Y67630000D03*
X-11430000Y67630000D03*
X-8890000Y67630000D03*
X-6350000Y67630000D03*
X-3810000Y67630000D03*
X-1270000Y67630000D03*
X1270000Y67630000D03*
X3810000Y67630000D03*
X6350000Y67630000D03*
X8890000Y67630000D03*
X16510000Y82870000D03*
X-16510000Y75250000D03*
X13970000Y67630000D03*
X-16510000Y70170000D03*
X-16510000Y72710000D03*
X-16510000Y80330000D03*
X16510000Y67630000D03*
%TD*%
D10*
%TO.C,H8*%
X75322057Y34865279D03*
D11*
X75322057Y34865279D03*
%TD*%
D10*
%TO.C,H7*%
X-75322057Y34865279D03*
D11*
X-75322057Y34865279D03*
%TD*%
D10*
%TO.C,H15*%
X-4000000Y10000000D03*
D11*
X-4000000Y10000000D03*
%TD*%
D10*
%TO.C,H17*%
X-4000000Y-10000000D03*
D11*
X-4000000Y-10000000D03*
%TD*%
D10*
%TO.C,H28*%
X29586721Y-49385711D03*
D11*
X29586721Y-49385711D03*
%TD*%
D19*
%TO.C,TP1*%
X82250000Y8250000D03*
X82250000Y10790000D03*
%TD*%
D12*
%TO.C,J2*%
X57500000Y27000000D03*
D26*
X62500000Y27000000D03*
D14*
X54500000Y17000000D03*
X65500000Y17000000D03*
%TD*%
D10*
%TO.C,H30*%
X12500000Y-65416626D03*
D11*
X12500000Y-65416626D03*
%TD*%
D10*
%TO.C,H6*%
X10000000Y41925000D03*
D11*
X10000000Y41925000D03*
%TD*%
D23*
%TO.C,H33*%
X0Y-35416626D03*
D24*
X0Y-35416626D03*
%TD*%
D10*
%TO.C,H10*%
X49385711Y29586721D03*
D11*
X49385711Y29586721D03*
%TD*%
D10*
%TO.C,H9*%
X-49385711Y29586721D03*
D11*
X-49385711Y29586721D03*
%TD*%
D10*
%TO.C,H4*%
X29586721Y49385711D03*
D11*
X29586721Y49385711D03*
%TD*%
D19*
%TO.C,SW2*%
X-29000000Y75000000D03*
X-29000000Y77500000D03*
X-29000000Y72500000D03*
%TD*%
D10*
%TO.C,H13*%
X-10000000Y21875000D03*
D11*
X-10000000Y21875000D03*
%TD*%
D12*
%TO.C,J1*%
X72500000Y27000000D03*
D26*
X77500000Y27000000D03*
D14*
X69500000Y17000000D03*
X80500000Y17000000D03*
%TD*%
D15*
%TO.C,C3*%
X-79500000Y-20750000D03*
D16*
X-72000000Y-20750000D03*
%TD*%
D10*
%TO.C,H24*%
X75322057Y-34865279D03*
D11*
X75322057Y-34865279D03*
%TD*%
D19*
%TO.C,TP2*%
X82250000Y1750000D03*
X82250000Y4290000D03*
%TD*%
%TO.C,TP6*%
X20250000Y76750000D03*
X20250000Y79290000D03*
%TD*%
D12*
%TO.C,J4*%
X62500000Y-27000000D03*
D13*
X57500000Y-27000000D03*
D14*
X65500000Y-17000000D03*
X54500000Y-17000000D03*
%TD*%
D27*
%TO.C,D111*%
X-773737Y-50100000D03*
D28*
X-773737Y-52375000D03*
%TD*%
D29*
%TO.C,R57*%
X45505044Y-28329340D03*
X44133120Y-27412650D03*
%TD*%
D30*
%TO.C,C5*%
X29000000Y3457500D03*
X29000000Y-2957500D03*
%TD*%
D31*
%TO.C,D87*%
X51657531Y-5177366D03*
X53202267Y-5484634D03*
%TD*%
D32*
%TO.C,D112*%
X9015156Y-49288291D03*
D33*
X9458986Y-51519578D03*
%TD*%
D34*
%TO.C,D91*%
X40188341Y32866439D03*
X41497905Y33741463D03*
%TD*%
D35*
%TO.C,D109*%
X-19887280Y-45990268D03*
D36*
X-20757885Y-48092094D03*
%TD*%
D37*
%TO.C,D116*%
X41226762Y-28477408D03*
D38*
X43118356Y-29741330D03*
%TD*%
D39*
%TO.C,D85*%
X45744044Y-24551743D03*
X47053608Y-25426767D03*
%TD*%
D40*
%TO.C,U1*%
X-18575000Y3505000D03*
X-17925000Y3505000D03*
X-17275000Y3505000D03*
X-16625000Y3505000D03*
X-15975000Y3505000D03*
X-15325000Y3505000D03*
X-14675000Y3505000D03*
X-14025000Y3505000D03*
X-13375000Y3505000D03*
X-12725000Y3505000D03*
X-12075000Y3505000D03*
X-11425000Y3505000D03*
X-11425000Y-3505000D03*
X-12075000Y-3505000D03*
X-12725000Y-3505000D03*
X-13375000Y-3505000D03*
X-14025000Y-3505000D03*
X-14675000Y-3505000D03*
X-15325000Y-3505000D03*
X-15975000Y-3505000D03*
X-16625000Y-3505000D03*
X-17275000Y-3505000D03*
X-17925000Y-3505000D03*
X-18575000Y-3505000D03*
%TD*%
D41*
%TO.C,R54*%
X22097124Y-48836234D03*
X21465696Y-47311832D03*
%TD*%
D42*
%TO.C,R55*%
X31200010Y-43586924D03*
X30283320Y-42215000D03*
%TD*%
D43*
%TO.C,R4*%
X12250000Y5725000D03*
X12250000Y7275000D03*
%TD*%
D44*
%TO.C,D89*%
X49706628Y14985218D03*
X51251364Y15292486D03*
%TD*%
D45*
%TO.C,D106*%
X-42086492Y-27190730D03*
D46*
X-43978086Y-28454652D03*
%TD*%
D47*
%TO.C,D113*%
X18457600Y-46582460D03*
D48*
X19328205Y-48684286D03*
%TD*%
D49*
%TO.C,R37*%
X-12145058Y52208794D03*
X-11823158Y50590498D03*
%TD*%
D50*
%TO.C,R58*%
X50157459Y-18907406D03*
X48633057Y-18275978D03*
%TD*%
D51*
%TO.C,R47*%
X-43586924Y-31200010D03*
X-42215000Y-30283320D03*
%TD*%
D43*
%TO.C,C2*%
X-20250000Y-3525000D03*
X-20250000Y-1975000D03*
%TD*%
D52*
%TO.C,D66*%
X-24394564Y45828058D03*
X-24997290Y47283168D03*
%TD*%
D53*
%TO.C,D86*%
X49654892Y-15155769D03*
X51110002Y-15758495D03*
%TD*%
D54*
%TO.C,R67*%
X8758871Y52882349D03*
X8436971Y51264053D03*
%TD*%
D55*
%TO.C,D79*%
X-5177366Y-51657531D03*
X-5484634Y-53202267D03*
%TD*%
D56*
%TO.C,D33*%
X-5000000Y51675000D03*
X-5000000Y53250000D03*
%TD*%
D57*
%TO.C,D67*%
X-32866439Y40188341D03*
X-33741463Y41497905D03*
%TD*%
D58*
%TO.C,D90*%
X45828058Y24394564D03*
X47283168Y24997290D03*
%TD*%
D59*
%TO.C,D69*%
X-45744044Y24551743D03*
X-47053608Y25426767D03*
%TD*%
D60*
%TO.C,D104*%
X-49288291Y-9015156D03*
D61*
X-51519578Y-9458986D03*
%TD*%
D62*
%TO.C,D72*%
X-51675000Y-5000000D03*
X-53250000Y-5000000D03*
%TD*%
D27*
%TO.C,D103*%
X-50100000Y773737D03*
D63*
X-52375000Y773737D03*
%TD*%
D64*
%TO.C,R60*%
X53575000Y1726263D03*
X51925000Y1726263D03*
%TD*%
D65*
%TO.C,D65*%
X-14985218Y49706628D03*
X-15292486Y51251364D03*
%TD*%
D66*
%TO.C,R43*%
X-52882349Y8758871D03*
X-51264053Y8436971D03*
%TD*%
D67*
%TO.C,D121*%
X46582460Y18457600D03*
D68*
X48684286Y19328205D03*
%TD*%
D69*
%TO.C,D71*%
X-51657531Y5177366D03*
X-53202267Y5484634D03*
%TD*%
D70*
%TO.C,R48*%
X-36662593Y-39103898D03*
X-35495867Y-37937172D03*
%TD*%
D71*
%TO.C,R51*%
X-8758871Y-52882349D03*
X-8436971Y-51264053D03*
%TD*%
D27*
%TO.C,D1*%
X773737Y50100000D03*
D28*
X773737Y52375000D03*
%TD*%
D72*
%TO.C,R1*%
X-12275000Y-5750000D03*
X-10725000Y-5750000D03*
%TD*%
D73*
%TO.C,D118*%
X48986394Y-10532895D03*
D74*
X51217681Y-10976725D03*
%TD*%
D75*
%TO.C,R40*%
X-39103898Y36662593D03*
X-37937172Y35495867D03*
%TD*%
D76*
%TO.C,R56*%
X39103898Y-36662593D03*
X37937172Y-35495867D03*
%TD*%
D77*
%TO.C,D101*%
X-45990268Y19887280D03*
D78*
X-48092094Y20757885D03*
%TD*%
D79*
%TO.C,D114*%
X27190730Y-42086492D03*
D80*
X28454652Y-43978086D03*
%TD*%
D81*
%TO.C,D84*%
X40075276Y-33004209D03*
X41188970Y-34117903D03*
%TD*%
D82*
%TO.C,R46*%
X-48836234Y-22097124D03*
X-47311832Y-21465696D03*
%TD*%
D83*
%TO.C,D80*%
X5000000Y-51675000D03*
X5000000Y-53250000D03*
%TD*%
D84*
%TO.C,D110*%
X-10532895Y-48986394D03*
D85*
X-10976725Y-51217681D03*
%TD*%
D86*
%TO.C,R44*%
X-53575000Y-1726263D03*
X-51925000Y-1726263D03*
%TD*%
D87*
%TO.C,D94*%
X15155769Y49654892D03*
X15758495Y51110002D03*
%TD*%
D88*
%TO.C,R66*%
X18907406Y50157459D03*
X18275978Y48633057D03*
%TD*%
D89*
%TO.C,D124*%
X28477408Y41226762D03*
D90*
X29741330Y43118356D03*
%TD*%
D91*
%TO.C,R52*%
X1726263Y-53575000D03*
X1726263Y-51925000D03*
%TD*%
D92*
%TO.C,D88*%
X51675000Y5000000D03*
X53250000Y5000000D03*
%TD*%
D93*
%TO.C,D93*%
X24551743Y45744044D03*
X25426767Y47053608D03*
%TD*%
D30*
%TO.C,C6*%
X35375000Y3457500D03*
X35375000Y-2957500D03*
%TD*%
D94*
%TO.C,U2*%
X18575000Y-3505000D03*
X17925000Y-3505000D03*
X17275000Y-3505000D03*
X16625000Y-3505000D03*
X15975000Y-3505000D03*
X15325000Y-3505000D03*
X14675000Y-3505000D03*
X14025000Y-3505000D03*
X13375000Y-3505000D03*
X12725000Y-3505000D03*
X12075000Y-3505000D03*
X11425000Y-3505000D03*
X11425000Y3505000D03*
X12075000Y3505000D03*
X12725000Y3505000D03*
X13375000Y3505000D03*
X14025000Y3505000D03*
X14675000Y3505000D03*
X15325000Y3505000D03*
X15975000Y3505000D03*
X16625000Y3505000D03*
X17275000Y3505000D03*
X17925000Y3505000D03*
X18575000Y3505000D03*
%TD*%
D95*
%TO.C,D108*%
X-28477408Y-41226762D03*
D96*
X-29741330Y-43118356D03*
%TD*%
D97*
%TO.C,R45*%
X-52208794Y-12145058D03*
X-50590498Y-11823158D03*
%TD*%
D98*
%TO.C,R38*%
X-22097124Y48836234D03*
X-21465696Y47311832D03*
%TD*%
D99*
%TO.C,D83*%
X32866439Y-40188341D03*
X33741463Y-41497905D03*
%TD*%
D100*
%TO.C,D97*%
X-18457600Y46582460D03*
D101*
X-19328205Y48684286D03*
%TD*%
D102*
%TO.C,R62*%
X48836234Y22097124D03*
X47311832Y21465696D03*
%TD*%
D103*
%TO.C,D122*%
X42086492Y27190730D03*
D104*
X43978086Y28454652D03*
%TD*%
D105*
%TO.C,D68*%
X-40075276Y33004209D03*
X-41188970Y34117903D03*
%TD*%
D106*
%TO.C,D98*%
X-27190730Y42086492D03*
D107*
X-28454652Y43978086D03*
%TD*%
D108*
%TO.C,D81*%
X14985218Y-49706628D03*
X15292486Y-51251364D03*
%TD*%
D27*
%TO.C,D119*%
X50100000Y-773737D03*
D63*
X52375000Y-773737D03*
%TD*%
D109*
%TO.C,R39*%
X-31200010Y43586924D03*
X-30283320Y42215000D03*
%TD*%
D110*
%TO.C,R64*%
X36662593Y39103898D03*
X35495867Y37937172D03*
%TD*%
D111*
%TO.C,R2*%
X-20250000Y3525000D03*
X-20250000Y1975000D03*
%TD*%
D112*
%TO.C,R42*%
X-50157459Y18907406D03*
X-48633057Y18275978D03*
%TD*%
D113*
%TO.C,D92*%
X33004209Y40075276D03*
X34117903Y41188970D03*
%TD*%
D114*
%TO.C,D82*%
X24394564Y-45828058D03*
X24997290Y-47283168D03*
%TD*%
D115*
%TO.C,R5*%
X-1726263Y53575000D03*
X-1726263Y51925000D03*
%TD*%
D116*
%TO.C,R41*%
X-45505044Y28329340D03*
X-44133120Y27412650D03*
%TD*%
D117*
%TO.C,R53*%
X12145058Y-52208794D03*
X11823158Y-50590498D03*
%TD*%
D118*
%TO.C,D70*%
X-49654892Y15155769D03*
X-51110002Y15758495D03*
%TD*%
D119*
%TO.C,R63*%
X43586924Y31200010D03*
X42215000Y30283320D03*
%TD*%
D120*
%TO.C,D74*%
X-45828058Y-24394564D03*
X-47283168Y-24997290D03*
%TD*%
D121*
%TO.C,R65*%
X28329340Y45505044D03*
X27412650Y44133120D03*
%TD*%
D43*
%TO.C,R3*%
X20250000Y-3525000D03*
X20250000Y-1975000D03*
%TD*%
D122*
%TO.C,D115*%
X34878935Y-35973165D03*
D123*
X36487603Y-37581833D03*
%TD*%
D124*
%TO.C,D120*%
X49288291Y9015156D03*
D125*
X51519578Y9458986D03*
%TD*%
D126*
%TO.C,D107*%
X-35973165Y-34878935D03*
D127*
X-37581833Y-36487603D03*
%TD*%
D128*
%TO.C,D96*%
X-9015156Y49288291D03*
D129*
X-9458986Y51519578D03*
%TD*%
D130*
%TO.C,D99*%
X-34878935Y35973165D03*
D131*
X-36487603Y37581833D03*
%TD*%
D132*
%TO.C,D73*%
X-49706628Y-14985218D03*
X-51251364Y-15292486D03*
%TD*%
D133*
%TO.C,D126*%
X10532895Y48986394D03*
D134*
X10976725Y51217681D03*
%TD*%
D135*
%TO.C,D125*%
X19887280Y45990268D03*
D136*
X20757885Y48092094D03*
%TD*%
D137*
%TO.C,D100*%
X-41226762Y28477408D03*
D138*
X-43118356Y29741330D03*
%TD*%
D139*
%TO.C,D76*%
X-33004209Y-40075276D03*
X-34117903Y-41188970D03*
%TD*%
D140*
%TO.C,D102*%
X-48986394Y10532895D03*
D141*
X-51217681Y10976725D03*
%TD*%
D142*
%TO.C,R50*%
X-18907406Y-50157459D03*
X-18275978Y-48633057D03*
%TD*%
D143*
%TO.C,R59*%
X52882349Y-8758871D03*
X51264053Y-8436971D03*
%TD*%
D144*
%TO.C,R49*%
X-28329340Y-45505044D03*
X-27412650Y-44133120D03*
%TD*%
D145*
%TO.C,D75*%
X-40188341Y-32866439D03*
X-41497905Y-33741463D03*
%TD*%
D146*
%TO.C,D123*%
X35973165Y34878935D03*
D147*
X37581833Y36487603D03*
%TD*%
D148*
%TO.C,D78*%
X-15155769Y-49654892D03*
X-15758495Y-51110002D03*
%TD*%
D149*
%TO.C,D95*%
X5177366Y51657531D03*
X5484634Y53202267D03*
%TD*%
D150*
%TO.C,R61*%
X52208794Y12145058D03*
X50590498Y11823158D03*
%TD*%
D151*
%TO.C,D77*%
X-24551743Y-45744044D03*
X-25426767Y-47053608D03*
%TD*%
D152*
%TO.C,D105*%
X-46582460Y-18457600D03*
D153*
X-48684286Y-19328205D03*
%TD*%
D154*
%TO.C,D117*%
X45990268Y-19887280D03*
D155*
X48092094Y-20757885D03*
%TD*%
D111*
%TO.C,C1*%
X20250000Y3525000D03*
X20250000Y1975000D03*
%TD*%
M02*
