%TF.GenerationSoftware,KiCad,Pcbnew,9.0.6*%
%TF.CreationDate,2026-03-02T09:12:09+08:00*%
%TF.ProjectId,layer1,6c617965-7231-42e6-9b69-6361645f7063,rev?*%
%TF.SameCoordinates,Original*%
%TF.FileFunction,Legend,Bot*%
%TF.FilePolarity,Positive*%
%FSLAX46Y46*%
G04 Gerber Fmt 4.6, Leading zero omitted, Abs format (unit mm)*
G04 Created by KiCad (PCBNEW 9.0.6) date 2026-03-02 09:12:09*
%MOMM*%
%LPD*%
G01*
G04 APERTURE LIST*
G04 Aperture macros list*
%AMRoundRect*
0 Rectangle with rounded corners*
0 $1 Rounding radius*
0 $2 $3 $4 $5 $6 $7 $8 $9 X,Y pos of 4 corners*
0 Add a 4 corners polygon primitive as box body*
4,1,4,$2,$3,$4,$5,$6,$7,$8,$9,$2,$3,0*
0 Add four circle primitives for the rounded corners*
1,1,$1+$1,$2,$3*
1,1,$1+$1,$4,$5*
1,1,$1+$1,$6,$7*
1,1,$1+$1,$8,$9*
0 Add four rect primitives between the rounded corners*
20,1,$1+$1,$2,$3,$4,$5,0*
20,1,$1+$1,$4,$5,$6,$7,0*
20,1,$1+$1,$6,$7,$8,$9,0*
20,1,$1+$1,$8,$9,$2,$3,0*%
%AMRotRect*
0 Rectangle, with rotation*
0 The origin of the aperture is its center*
0 $1 length*
0 $2 width*
0 $3 Rotation angle, in degrees counterclockwise*
0 Add horizontal line*
21,1,$1,$2,0,0,$3*%
G04 Aperture macros list end*
%ADD10C,0.300000*%
%ADD11C,0.120000*%
%ADD12C,0.127000*%
%ADD13C,0.200000*%
%ADD14C,3.600000*%
%ADD15C,5.600000*%
%ADD16C,2.754000*%
%ADD17RoundRect,0.102000X-1.275000X-1.275000X1.275000X-1.275000X1.275000X1.275000X-1.275000X1.275000X0*%
%ADD18C,1.712000*%
%ADD19RoundRect,0.250001X-0.949999X-0.949999X0.949999X-0.949999X0.949999X0.949999X-0.949999X0.949999X0*%
%ADD20C,2.400000*%
%ADD21R,1.700000X1.700000*%
%ADD22C,1.700000*%
%ADD23C,1.400000*%
%ADD24C,1.200000*%
%ADD25RoundRect,0.250000X0.725000X-0.600000X0.725000X0.600000X-0.725000X0.600000X-0.725000X-0.600000X0*%
%ADD26O,1.950000X1.700000*%
%ADD27C,2.600000*%
%ADD28C,3.800000*%
%ADD29C,1.734000*%
%ADD30RoundRect,0.102000X1.275000X1.275000X-1.275000X1.275000X-1.275000X-1.275000X1.275000X-1.275000X0*%
%ADD31R,2.200000X2.200000*%
%ADD32R,2.200000X1.250000*%
%ADD33RoundRect,0.200000X0.319076X0.117540X-0.013512X0.339768X-0.319076X-0.117540X0.013512X-0.339768X0*%
%ADD34RoundRect,0.250001X-1.044999X0.872499X-1.044999X-0.872499X1.044999X-0.872499X1.044999X0.872499X0*%
%ADD35RoundRect,0.218750X-0.264539X-0.208650X0.164555X-0.294002X0.264539X0.208650X-0.164555X0.294002X0*%
%ADD36RotRect,2.200000X2.200000X281.250000*%
%ADD37RotRect,1.250000X2.200000X281.250000*%
%ADD38RoundRect,0.218750X-0.039519X-0.334595X0.324249X-0.091533X0.039519X0.334595X-0.324249X0.091533X0*%
%ADD39RotRect,2.200000X2.200000X247.500000*%
%ADD40RotRect,1.250000X2.200000X247.500000*%
%ADD41RotRect,2.200000X2.200000X326.250000*%
%ADD42RotRect,1.250000X2.200000X326.250000*%
%ADD43RoundRect,0.218750X-0.324249X-0.091533X0.039519X-0.334595X0.324249X0.091533X-0.039519X0.334595X0*%
%ADD44RoundRect,0.085500X-0.256500X0.966500X-0.256500X-0.966500X0.256500X-0.966500X0.256500X0.966500X0*%
%ADD45RoundRect,0.200000X0.330604X-0.079538X0.177530X0.290014X-0.330604X0.079538X-0.177530X-0.290014X0*%
%ADD46RoundRect,0.200000X0.339768X-0.013512X0.117540X0.319076X-0.339768X0.013512X-0.117540X-0.319076X0*%
%ADD47RoundRect,0.225000X0.250000X-0.225000X0.250000X0.225000X-0.250000X0.225000X-0.250000X-0.225000X0*%
%ADD48RoundRect,0.218750X-0.164555X-0.294002X0.264539X-0.208650X0.164555X0.294002X-0.264539X0.208650X0*%
%ADD49RotRect,2.200000X2.200000X213.750000*%
%ADD50RotRect,1.250000X2.200000X213.750000*%
%ADD51RotRect,2.200000X2.200000X292.500000*%
%ADD52RotRect,1.250000X2.200000X292.500000*%
%ADD53RoundRect,0.200000X-0.308734X0.142507X-0.230698X-0.249807X0.308734X-0.142507X0.230698X0.249807X0*%
%ADD54RoundRect,0.200000X0.290014X0.177530X-0.079538X0.330604X-0.290014X-0.177530X0.079538X-0.330604X0*%
%ADD55RoundRect,0.200000X-0.013512X-0.339768X0.319076X-0.117540X0.013512X0.339768X-0.319076X0.117540X0*%
%ADD56RoundRect,0.218750X0.320456X-0.104036X0.153032X0.300161X-0.320456X0.104036X-0.153032X-0.300161X0*%
%ADD57RoundRect,0.218750X-0.300161X-0.153032X0.104036X-0.320456X0.300161X0.153032X-0.104036X0.320456X0*%
%ADD58RoundRect,0.200000X-0.230698X0.249807X-0.308734X-0.142507X0.230698X-0.249807X0.308734X0.142507X0*%
%ADD59RoundRect,0.218750X-0.208650X0.264539X-0.294002X-0.164555X0.208650X-0.264539X0.294002X0.164555X0*%
%ADD60RoundRect,0.218750X0.256250X-0.218750X0.256250X0.218750X-0.256250X0.218750X-0.256250X-0.218750X0*%
%ADD61RoundRect,0.218750X0.334595X-0.039519X0.091533X0.324249X-0.334595X0.039519X-0.091533X-0.324249X0*%
%ADD62RoundRect,0.218750X-0.104036X-0.320456X0.300161X-0.153032X0.104036X0.320456X-0.300161X0.153032X0*%
%ADD63RoundRect,0.218750X0.324249X0.091533X-0.039519X0.334595X-0.324249X-0.091533X0.039519X-0.334595X0*%
%ADD64RotRect,2.200000X2.200000X191.250000*%
%ADD65RotRect,1.250000X2.200000X191.250000*%
%ADD66RoundRect,0.218750X0.218750X0.256250X-0.218750X0.256250X-0.218750X-0.256250X0.218750X-0.256250X0*%
%ADD67R,1.250000X2.200000*%
%ADD68RoundRect,0.200000X0.200000X0.275000X-0.200000X0.275000X-0.200000X-0.275000X0.200000X-0.275000X0*%
%ADD69RoundRect,0.218750X0.294002X-0.164555X0.208650X0.264539X-0.294002X0.164555X-0.208650X-0.264539X0*%
%ADD70RoundRect,0.200000X-0.249807X-0.230698X0.142507X-0.308734X0.249807X0.230698X-0.142507X0.308734X0*%
%ADD71RotRect,2.200000X2.200000X22.500000*%
%ADD72RotRect,1.250000X2.200000X22.500000*%
%ADD73RoundRect,0.218750X0.264539X0.208650X-0.164555X0.294002X-0.264539X-0.208650X0.164555X-0.294002X0*%
%ADD74RoundRect,0.200000X0.053033X-0.335876X0.335876X-0.053033X-0.053033X0.335876X-0.335876X0.053033X0*%
%ADD75RoundRect,0.200000X0.230698X-0.249807X0.308734X0.142507X-0.230698X0.249807X-0.308734X-0.142507X0*%
%ADD76RoundRect,0.225000X-0.225000X-0.250000X0.225000X-0.250000X0.225000X0.250000X-0.225000X0.250000X0*%
%ADD77RotRect,2.200000X2.200000X348.750000*%
%ADD78RotRect,1.250000X2.200000X348.750000*%
%ADD79RoundRect,0.200000X-0.335876X-0.053033X-0.053033X-0.335876X0.335876X0.053033X0.053033X0.335876X0*%
%ADD80RoundRect,0.200000X0.335876X0.053033X0.053033X0.335876X-0.335876X-0.053033X-0.053033X-0.335876X0*%
%ADD81RotRect,2.200000X2.200000X157.500000*%
%ADD82RotRect,1.250000X2.200000X157.500000*%
%ADD83RotRect,2.200000X2.200000X303.750000*%
%ADD84RotRect,1.250000X2.200000X303.750000*%
%ADD85RoundRect,0.218750X-0.335876X-0.026517X-0.026517X-0.335876X0.335876X0.026517X0.026517X0.335876X0*%
%ADD86RoundRect,0.200000X-0.079538X-0.330604X0.290014X-0.177530X0.079538X0.330604X-0.290014X0.177530X0*%
%ADD87RoundRect,0.218750X-0.256250X0.218750X-0.256250X-0.218750X0.256250X-0.218750X0.256250X0.218750X0*%
%ADD88RotRect,2.200000X2.200000X258.750000*%
%ADD89RotRect,1.250000X2.200000X258.750000*%
%ADD90RoundRect,0.200000X-0.200000X-0.275000X0.200000X-0.275000X0.200000X0.275000X-0.200000X0.275000X0*%
%ADD91RoundRect,0.218750X0.153032X-0.300161X0.320456X0.104036X-0.153032X0.300161X-0.320456X-0.104036X0*%
%ADD92RoundRect,0.200000X-0.177530X0.290014X-0.330604X-0.079538X0.177530X-0.290014X0.330604X0.079538X0*%
%ADD93RotRect,2.200000X2.200000X56.250000*%
%ADD94RotRect,1.250000X2.200000X56.250000*%
%ADD95RoundRect,0.200000X0.275000X-0.200000X0.275000X0.200000X-0.275000X0.200000X-0.275000X-0.200000X0*%
%ADD96RoundRect,0.218750X-0.218750X-0.256250X0.218750X-0.256250X0.218750X0.256250X-0.218750X0.256250X0*%
%ADD97RoundRect,0.218750X0.091533X-0.324249X0.334595X0.039519X-0.091533X0.324249X-0.334595X-0.039519X0*%
%ADD98RoundRect,0.085500X0.256500X-0.966500X0.256500X0.966500X-0.256500X0.966500X-0.256500X-0.966500X0*%
%ADD99RotRect,2.200000X2.200000X236.250000*%
%ADD100RotRect,1.250000X2.200000X236.250000*%
%ADD101RoundRect,0.200000X-0.142507X-0.308734X0.249807X-0.230698X0.142507X0.308734X-0.249807X0.230698X0*%
%ADD102RoundRect,0.200000X-0.330604X0.079538X-0.177530X-0.290014X0.330604X-0.079538X0.177530X0.290014X0*%
%ADD103RoundRect,0.218750X-0.334595X0.039519X-0.091533X-0.324249X0.334595X-0.039519X0.091533X0.324249X0*%
%ADD104RotRect,2.200000X2.200000X112.500000*%
%ADD105RotRect,1.250000X2.200000X112.500000*%
%ADD106RoundRect,0.200000X0.079538X0.330604X-0.290014X0.177530X-0.079538X-0.330604X0.290014X-0.177530X0*%
%ADD107RotRect,2.200000X2.200000X33.750000*%
%ADD108RotRect,1.250000X2.200000X33.750000*%
%ADD109RoundRect,0.218750X0.335876X0.026517X0.026517X0.335876X-0.335876X-0.026517X-0.026517X-0.335876X0*%
%ADD110RotRect,2.200000X2.200000X123.750000*%
%ADD111RotRect,1.250000X2.200000X123.750000*%
%ADD112RoundRect,0.218750X-0.294002X0.164555X-0.208650X-0.264539X0.294002X-0.164555X0.208650X0.264539X0*%
%ADD113RoundRect,0.200000X-0.339768X0.013512X-0.117540X-0.319076X0.339768X-0.013512X0.117540X0.319076X0*%
%ADD114RoundRect,0.200000X-0.053033X0.335876X-0.335876X0.053033X0.053033X-0.335876X0.335876X-0.053033X0*%
%ADD115RoundRect,0.225000X-0.250000X0.225000X-0.250000X-0.225000X0.250000X-0.225000X0.250000X0.225000X0*%
%ADD116RoundRect,0.200000X-0.290014X-0.177530X0.079538X-0.330604X0.290014X0.177530X-0.079538X0.330604X0*%
%ADD117RoundRect,0.218750X0.026517X-0.335876X0.335876X-0.026517X-0.026517X0.335876X-0.335876X0.026517X0*%
%ADD118RoundRect,0.218750X-0.320456X0.104036X-0.153032X-0.300161X0.320456X-0.104036X0.153032X0.300161X0*%
%ADD119RoundRect,0.200000X-0.275000X0.200000X-0.275000X-0.200000X0.275000X-0.200000X0.275000X0.200000X0*%
%ADD120RoundRect,0.200000X-0.319076X-0.117540X0.013512X-0.339768X0.319076X0.117540X-0.013512X0.339768X0*%
%ADD121RoundRect,0.200000X0.308734X-0.142507X0.230698X0.249807X-0.308734X0.142507X-0.230698X-0.249807X0*%
%ADD122RoundRect,0.218750X0.300161X0.153032X-0.104036X0.320456X-0.300161X-0.153032X0.104036X-0.320456X0*%
%ADD123RoundRect,0.200000X0.013512X0.339768X-0.319076X0.117540X-0.013512X-0.339768X0.319076X-0.117540X0*%
%ADD124RoundRect,0.218750X0.104036X0.320456X-0.300161X0.153032X-0.104036X-0.320456X0.300161X-0.153032X0*%
%ADD125RoundRect,0.200000X-0.117540X0.319076X-0.339768X-0.013512X0.117540X-0.319076X0.339768X0.013512X0*%
%ADD126RotRect,2.200000X2.200000X315.000000*%
%ADD127RotRect,1.250000X2.200000X315.000000*%
%ADD128RotRect,2.200000X2.200000X11.250000*%
%ADD129RotRect,1.250000X2.200000X11.250000*%
%ADD130RotRect,2.200000X2.200000X225.000000*%
%ADD131RotRect,1.250000X2.200000X225.000000*%
%ADD132RotRect,2.200000X2.200000X101.250000*%
%ADD133RotRect,1.250000X2.200000X101.250000*%
%ADD134RotRect,2.200000X2.200000X135.000000*%
%ADD135RotRect,1.250000X2.200000X135.000000*%
%ADD136RoundRect,0.218750X0.164555X0.294002X-0.264539X0.208650X-0.164555X-0.294002X0.264539X-0.208650X0*%
%ADD137RotRect,2.200000X2.200000X78.750000*%
%ADD138RotRect,1.250000X2.200000X78.750000*%
%ADD139RotRect,2.200000X2.200000X67.500000*%
%ADD140RotRect,1.250000X2.200000X67.500000*%
%ADD141RotRect,2.200000X2.200000X146.250000*%
%ADD142RotRect,1.250000X2.200000X146.250000*%
%ADD143RoundRect,0.218750X-0.026517X0.335876X-0.335876X0.026517X0.026517X-0.335876X0.335876X-0.026517X0*%
%ADD144RotRect,2.200000X2.200000X168.750000*%
%ADD145RotRect,1.250000X2.200000X168.750000*%
%ADD146RoundRect,0.200000X0.177530X-0.290014X0.330604X0.079538X-0.177530X0.290014X-0.330604X-0.079538X0*%
%ADD147RoundRect,0.200000X0.249807X0.230698X-0.142507X0.308734X-0.249807X-0.230698X0.142507X-0.308734X0*%
%ADD148RoundRect,0.200000X0.117540X-0.319076X0.339768X0.013512X-0.117540X0.319076X-0.339768X-0.013512X0*%
%ADD149RoundRect,0.218750X0.039519X0.334595X-0.324249X0.091533X-0.039519X-0.334595X0.324249X-0.091533X0*%
%ADD150RotRect,2.200000X2.200000X45.000000*%
%ADD151RotRect,1.250000X2.200000X45.000000*%
%ADD152RoundRect,0.218750X-0.153032X0.300161X-0.320456X-0.104036X0.153032X-0.300161X0.320456X0.104036X0*%
%ADD153RoundRect,0.218750X0.208650X-0.264539X0.294002X0.164555X-0.208650X0.264539X-0.294002X-0.164555X0*%
%ADD154RoundRect,0.200000X0.142507X0.308734X-0.249807X0.230698X-0.142507X-0.308734X0.249807X-0.230698X0*%
%ADD155RoundRect,0.218750X-0.091533X0.324249X-0.334595X-0.039519X0.091533X-0.324249X0.334595X0.039519X0*%
%ADD156RotRect,2.200000X2.200000X202.500000*%
%ADD157RotRect,1.250000X2.200000X202.500000*%
%ADD158RotRect,2.200000X2.200000X337.500000*%
%ADD159RotRect,1.250000X2.200000X337.500000*%
G04 APERTURE END LIST*
D10*
G36*
X9232745Y1704599D02*
G01*
X8755006Y1704599D01*
X8452756Y-574370D01*
X8454588Y-574370D01*
X8152520Y1704599D01*
X7716730Y1704599D01*
X8163145Y-1245000D01*
X8786147Y-1245000D01*
X9232745Y1704599D01*
G37*
G36*
X7506986Y1704599D02*
G01*
X6236069Y1704599D01*
X6236069Y1273205D01*
X7033461Y1273205D01*
X7033461Y508420D01*
X6399834Y508420D01*
X6399834Y77026D01*
X7033461Y77026D01*
X7033461Y-813606D01*
X6236069Y-813606D01*
X6236069Y-1245000D01*
X7506986Y-1245000D01*
X7506986Y1704599D01*
G37*
G36*
X5982911Y1704599D02*
G01*
X5393248Y1704599D01*
X4944085Y-53949D01*
X4946100Y-53949D01*
X4946100Y1704599D01*
X4523133Y1704599D01*
X4523133Y-1245000D01*
X5007833Y-1245000D01*
X5561775Y899697D01*
X5559760Y899697D01*
X5559760Y-1245000D01*
X5982911Y-1245000D01*
X5982911Y1704599D01*
G37*
G36*
X3831071Y1273205D02*
G01*
X4313755Y1273205D01*
X4313755Y1704599D01*
X2875043Y1704599D01*
X2875043Y1273205D01*
X3357728Y1273205D01*
X3357728Y-1245000D01*
X3831071Y-1245000D01*
X3831071Y1273205D01*
G37*
G36*
X1993937Y1704599D02*
G01*
X723019Y1704599D01*
X723019Y1273205D01*
X1520411Y1273205D01*
X1520411Y508420D01*
X886784Y508420D01*
X886784Y77026D01*
X1520411Y77026D01*
X1520411Y-813606D01*
X723019Y-813606D01*
X723019Y-1245000D01*
X1993937Y-1245000D01*
X1993937Y1704599D01*
G37*
G36*
X54221Y263322D02*
G01*
X564017Y1704599D01*
X64846Y1704599D01*
X-245831Y756082D01*
X-564751Y1704599D01*
X-1013731Y1704599D01*
X-503752Y263322D01*
X-1038827Y-1245000D01*
X-539472Y-1245000D01*
X-203699Y-220828D01*
X-203882Y-220828D01*
X140317Y-1245000D01*
X589296Y-1245000D01*
X54221Y263322D01*
G37*
G36*
X-1241792Y1704599D02*
G01*
X-1715318Y1704599D01*
X-1715318Y508420D01*
X-2198736Y508420D01*
X-2198736Y1704599D01*
X-2672262Y1704599D01*
X-2672262Y-1245000D01*
X-2198736Y-1245000D01*
X-2198736Y77026D01*
X-1715318Y77026D01*
X-1715318Y-1245000D01*
X-1241792Y-1245000D01*
X-1241792Y1704599D01*
G37*
G36*
X-2880540Y-1245000D02*
G01*
X-3320726Y-1245000D01*
X-3404624Y-669991D01*
X-3926038Y-669991D01*
X-4002897Y-1245000D01*
X-4476789Y-1245000D01*
X-4316249Y-259480D01*
X-3862762Y-259480D01*
X-3460861Y-259480D01*
X-3659806Y1174350D01*
X-3862762Y-259480D01*
X-4316249Y-259480D01*
X-3996302Y1704599D01*
X-3361026Y1704599D01*
X-2880540Y-1245000D01*
G37*
G36*
X-5354231Y-1286948D02*
G01*
X-5186029Y-1273389D01*
X-5047378Y-1235477D01*
X-4932748Y-1175711D01*
X-4838024Y-1094241D01*
X-4763731Y-993601D01*
X-4708364Y-871254D01*
X-4672893Y-722754D01*
X-4660154Y-542496D01*
X-4660154Y1704599D01*
X-5133497Y1704599D01*
X-5133497Y-576018D01*
X-5150442Y-711494D01*
X-5192665Y-790341D01*
X-5262307Y-838261D01*
X-5362658Y-855554D01*
X-5463135Y-838247D01*
X-5532651Y-790341D01*
X-5574873Y-711494D01*
X-5591819Y-576018D01*
X-5591819Y1704599D01*
X-6048492Y1704599D01*
X-6048492Y-542496D01*
X-6035741Y-722741D01*
X-6000238Y-871237D01*
X-5944815Y-993588D01*
X-5870439Y-1094241D01*
X-5775714Y-1175711D01*
X-5661084Y-1235477D01*
X-5522434Y-1273389D01*
X-5354231Y-1286948D01*
G37*
G36*
X-6971180Y-1286948D02*
G01*
X-6802889Y-1273324D01*
X-6665028Y-1235330D01*
X-6551825Y-1175575D01*
X-6459003Y-1094241D01*
X-6386616Y-993790D01*
X-6332530Y-871511D01*
X-6297822Y-722940D01*
X-6285346Y-542496D01*
X-6285346Y-368656D01*
X-6733593Y-368656D01*
X-6733593Y-576018D01*
X-6750882Y-707478D01*
X-6795442Y-789747D01*
X-6864619Y-837985D01*
X-6966967Y-855554D01*
X-7070736Y-837579D01*
X-7140990Y-788143D01*
X-7183303Y-707085D01*
X-7200341Y-567592D01*
X-7178880Y-393099D01*
X-7116993Y-245191D01*
X-7010159Y-104683D01*
X-6807782Y91131D01*
X-6622969Y267959D01*
X-6493217Y419095D01*
X-6407712Y548354D01*
X-6345088Y688675D01*
X-6306893Y841823D01*
X-6293772Y1010522D01*
X-6306399Y1186226D01*
X-6341690Y1332082D01*
X-6397033Y1453309D01*
X-6471642Y1554024D01*
X-6566367Y1635494D01*
X-6680997Y1695260D01*
X-6819647Y1733172D01*
X-6987850Y1746731D01*
X-7153964Y1733121D01*
X-7290067Y1695145D01*
X-7401881Y1635356D01*
X-7493615Y1553840D01*
X-7565074Y1453613D01*
X-7618547Y1331428D01*
X-7652901Y1182788D01*
X-7665257Y1002096D01*
X-7665257Y874601D01*
X-7217194Y874601D01*
X-7217194Y1031405D01*
X-7200793Y1167390D01*
X-7159858Y1247743D01*
X-7091822Y1297281D01*
X-6992063Y1315154D01*
X-6893846Y1298027D01*
X-6827141Y1250810D01*
X-6783936Y1169820D01*
X-6767115Y1039831D01*
X-6788318Y887627D01*
X-6852478Y744542D01*
X-6960840Y605660D01*
X-7163888Y410601D01*
X-7350918Y233198D01*
X-7480393Y81368D01*
X-7563957Y-48820D01*
X-7623605Y-190553D01*
X-7660720Y-351122D01*
X-7673683Y-534070D01*
X-7660787Y-716437D01*
X-7624879Y-866664D01*
X-7568828Y-990427D01*
X-7493615Y-1092226D01*
X-7397831Y-1174524D01*
X-7281855Y-1234918D01*
X-7141509Y-1273239D01*
X-6971180Y-1286948D01*
G37*
G36*
X-8288260Y1273205D02*
G01*
X-7805575Y1273205D01*
X-7805575Y1704599D01*
X-9244287Y1704599D01*
X-9244287Y1273205D01*
X-8761602Y1273205D01*
X-8761602Y-1245000D01*
X-8288260Y-1245000D01*
X-8288260Y1273205D01*
G37*
D11*
%TO.C,D111*%
X-2373737Y-48800000D02*
X826263Y-48800000D01*
X-2373737Y-52400000D02*
X-2373737Y-48800000D01*
X826263Y-52400000D02*
X826263Y-48800000D01*
%TO.C,R57*%
X44726069Y-28437251D02*
X44331524Y-28173624D01*
X45306640Y-27568366D02*
X44912095Y-27304739D01*
%TO.C,C5*%
X26740000Y4840000D02*
X31260000Y4840000D01*
X26740000Y-3400000D02*
X26740000Y4840000D01*
X31260000Y4840000D02*
X31260000Y-3400000D01*
%TO.C,D87*%
X50830041Y-5762168D02*
X51116824Y-4320414D01*
X51116824Y-4320414D02*
X53357919Y-4766195D01*
X53071136Y-6207949D02*
X50830041Y-5762168D01*
%TO.C,D112*%
X7192282Y-48325415D02*
X10330795Y-47701126D01*
X7894607Y-51856242D02*
X7192282Y-48325415D01*
X11033120Y-51231953D02*
X10330795Y-47701126D01*
%TO.C,D91*%
X39200047Y33090059D02*
X41099955Y34359537D01*
X40016735Y31867799D02*
X39200047Y33090059D01*
X41916643Y33137277D02*
X40016735Y31867799D01*
%TO.C,D109*%
X-22245659Y-47502898D02*
X-20867999Y-44176932D01*
X-20867999Y-44176932D02*
X-17911584Y-45401519D01*
X-19289245Y-48727485D02*
X-17911584Y-45401519D01*
%TO.C,D116*%
X39256939Y-29085518D02*
X41034764Y-26424815D01*
X42250230Y-31085571D02*
X39256939Y-29085518D01*
X44028055Y-28424868D02*
X41034764Y-26424815D01*
%TO.C,D85*%
X44755750Y-24775363D02*
X45572438Y-23553103D01*
X45572438Y-23553103D02*
X47472346Y-24822581D01*
X46655658Y-26044841D02*
X44755750Y-24775363D01*
D12*
%TO.C,U1*%
X-19135000Y2650000D02*
X-19135000Y-2650000D01*
X-10865000Y2650000D02*
X-10865000Y-2650000D01*
D13*
X-18955000Y5405000D02*
G75*
G02*
X-19155000Y5405000I-100000J0D01*
G01*
X-19155000Y5405000D02*
G75*
G02*
X-18955000Y5405000I100000J0D01*
G01*
D11*
%TO.C,R54*%
X21389478Y-48493183D02*
X21207888Y-48054787D01*
X22354932Y-48093279D02*
X22173342Y-47654883D01*
%TO.C,R55*%
X30439036Y-43388520D02*
X30175409Y-42993975D01*
X31307921Y-42807949D02*
X31044294Y-42413404D01*
%TO.C,R4*%
X11740000Y6359420D02*
X11740000Y6640580D01*
X12760000Y6359420D02*
X12760000Y6640580D01*
%TO.C,D89*%
X48879138Y15570020D02*
X51120233Y16015801D01*
X49165921Y14128266D02*
X48879138Y15570020D01*
X51407016Y14574047D02*
X49165921Y14128266D01*
%TO.C,D106*%
X-44887785Y-27138190D02*
X-41894494Y-25138137D01*
X-43109960Y-29798893D02*
X-40116669Y-27798840D01*
X-41894494Y-25138137D02*
X-40116669Y-27798840D01*
%TO.C,D113*%
X16481904Y-45993711D02*
X19438319Y-44769124D01*
X17859565Y-49319677D02*
X16481904Y-45993711D01*
X20815979Y-48095090D02*
X19438319Y-44769124D01*
%TO.C,R37*%
X-12542855Y51530410D02*
X-12450282Y51065012D01*
X-11517934Y51734280D02*
X-11425361Y51268882D01*
%TO.C,R58*%
X49414504Y-19165214D02*
X48976108Y-18983624D01*
X49814408Y-18199760D02*
X49376012Y-18018170D01*
%TO.C,R47*%
X-43388520Y-30439036D02*
X-42993975Y-30175409D01*
X-42807949Y-31307921D02*
X-42413404Y-31044294D01*
%TO.C,C2*%
X-20760000Y-2890580D02*
X-20760000Y-2609420D01*
X-19740000Y-2890580D02*
X-19740000Y-2609420D01*
%TO.C,D66*%
X-24806694Y44902380D02*
X-25681125Y47013444D01*
X-24323022Y47575989D02*
X-23448591Y45464924D01*
X-23448591Y45464924D02*
X-24806694Y44902380D01*
%TO.C,D86*%
X48729214Y-15567899D02*
X49291758Y-14209796D01*
X49291758Y-14209796D02*
X51402823Y-15084227D01*
X50840278Y-16442330D02*
X48729214Y-15567899D01*
%TO.C,R67*%
X8131747Y52407835D02*
X8039174Y51942437D01*
X9156668Y52203965D02*
X9064095Y51738567D01*
%TO.C,D79*%
X-6207949Y-53071136D02*
X-5762168Y-50830041D01*
X-5762168Y-50830041D02*
X-4320414Y-51116824D01*
X-4320414Y-51116824D02*
X-4766195Y-53357919D01*
%TO.C,D33*%
X-5735000Y50977500D02*
X-5735000Y53262500D01*
X-4265000Y53262500D02*
X-4265000Y50977500D01*
X-4265000Y50977500D02*
X-5735000Y50977500D01*
%TO.C,D67*%
X-33137277Y41916643D02*
X-31867799Y40016735D01*
X-33090059Y39200047D02*
X-34359537Y41099955D01*
X-31867799Y40016735D02*
X-33090059Y39200047D01*
%TO.C,D90*%
X44902380Y24806694D02*
X47013444Y25681125D01*
X45464924Y23448591D02*
X44902380Y24806694D01*
X47575989Y24323022D02*
X45464924Y23448591D01*
%TO.C,D69*%
X-46655658Y26044841D02*
X-44755750Y24775363D01*
X-45572438Y23553103D02*
X-47472346Y24822581D01*
X-44755750Y24775363D02*
X-45572438Y23553103D01*
%TO.C,D104*%
X-51856242Y-7894607D02*
X-48325415Y-7192282D01*
X-51231953Y-11033120D02*
X-47701126Y-10330795D01*
X-48325415Y-7192282D02*
X-47701126Y-10330795D01*
%TO.C,D72*%
X-53262500Y-4265000D02*
X-50977500Y-4265000D01*
X-50977500Y-4265000D02*
X-50977500Y-5735000D01*
X-50977500Y-5735000D02*
X-53262500Y-5735000D01*
%TO.C,D103*%
X-52400000Y2373737D02*
X-48800000Y2373737D01*
X-52400000Y-826263D02*
X-48800000Y-826263D01*
X-48800000Y2373737D02*
X-48800000Y-826263D01*
%TO.C,R60*%
X52987258Y2248763D02*
X52512742Y2248763D01*
X52987258Y1203763D02*
X52512742Y1203763D01*
%TO.C,D65*%
X-15570020Y48879138D02*
X-16015801Y51120233D01*
X-14574047Y51407016D02*
X-14128266Y49165921D01*
X-14128266Y49165921D02*
X-15570020Y48879138D01*
%TO.C,R43*%
X-52407835Y8131747D02*
X-51942437Y8039174D01*
X-52203965Y9156668D02*
X-51738567Y9064095D01*
%TO.C,D121*%
X45993711Y16481904D02*
X44769124Y19438319D01*
X48095090Y20815979D02*
X44769124Y19438319D01*
X49319677Y17859565D02*
X45993711Y16481904D01*
%TO.C,D71*%
X-53071136Y6207949D02*
X-50830041Y5762168D01*
X-51116824Y4320414D02*
X-53357919Y4766195D01*
X-50830041Y5762168D02*
X-51116824Y4320414D01*
%TO.C,R48*%
X-36616460Y-38318838D02*
X-36280927Y-37983305D01*
X-35877533Y-39057765D02*
X-35542000Y-38722232D01*
%TO.C,R51*%
X-9156668Y-52203965D02*
X-9064095Y-51738567D01*
X-8131747Y-52407835D02*
X-8039174Y-51942437D01*
%TO.C,D1*%
X-826263Y52400000D02*
X-826263Y48800000D01*
X2373737Y52400000D02*
X2373737Y48800000D01*
X2373737Y48800000D02*
X-826263Y48800000D01*
%TO.C,R1*%
X-11640580Y-5240000D02*
X-11359420Y-5240000D01*
X-11640580Y-6260000D02*
X-11359420Y-6260000D01*
%TO.C,D118*%
X47399229Y-11848534D02*
X48023518Y-8710021D01*
X50930056Y-12550859D02*
X47399229Y-11848534D01*
X51554345Y-9412346D02*
X48023518Y-8710021D01*
%TO.C,R40*%
X-39057765Y35877533D02*
X-38722232Y35542000D01*
X-38318838Y36616460D02*
X-37983305Y36280927D01*
%TO.C,R56*%
X38318838Y-36616460D02*
X37983305Y-36280927D01*
X39057765Y-35877533D02*
X38722232Y-35542000D01*
%TO.C,D101*%
X-48727485Y19289245D02*
X-45401519Y17911584D01*
X-47502898Y22245659D02*
X-44176932Y20867999D01*
X-44176932Y20867999D02*
X-45401519Y17911584D01*
%TO.C,D114*%
X25138137Y-41894494D02*
X27798840Y-40116669D01*
X27138190Y-44887785D02*
X25138137Y-41894494D01*
X29798893Y-43109960D02*
X27798840Y-40116669D01*
%TO.C,D84*%
X39062346Y-33030726D02*
X40101793Y-31991279D01*
X40101793Y-31991279D02*
X41717532Y-33607018D01*
X40678085Y-34646465D02*
X39062346Y-33030726D01*
%TO.C,R46*%
X-48493183Y-21389478D02*
X-48054787Y-21207888D01*
X-48093279Y-22354932D02*
X-47654883Y-22173342D01*
%TO.C,D80*%
X4265000Y-50977500D02*
X5735000Y-50977500D01*
X4265000Y-53262500D02*
X4265000Y-50977500D01*
X5735000Y-50977500D02*
X5735000Y-53262500D01*
%TO.C,D110*%
X-12550859Y-50930056D02*
X-11848534Y-47399229D01*
X-11848534Y-47399229D02*
X-8710021Y-48023518D01*
X-9412346Y-51554345D02*
X-8710021Y-48023518D01*
%TO.C,R44*%
X-52987258Y-1203763D02*
X-52512742Y-1203763D01*
X-52987258Y-2248763D02*
X-52512742Y-2248763D01*
%TO.C,D94*%
X14209796Y49291758D02*
X15084227Y51402823D01*
X15567899Y48729214D02*
X14209796Y49291758D01*
X16442330Y50840278D02*
X15567899Y48729214D01*
%TO.C,R66*%
X18199760Y49814408D02*
X18018170Y49376012D01*
X19165214Y49414504D02*
X18983624Y48976108D01*
%TO.C,D124*%
X28424868Y44028055D02*
X26424815Y41034764D01*
X29085518Y39256939D02*
X26424815Y41034764D01*
X31085571Y42250230D02*
X29085518Y39256939D01*
%TO.C,R52*%
X1203763Y-52987258D02*
X1203763Y-52512742D01*
X2248763Y-52987258D02*
X2248763Y-52512742D01*
%TO.C,D88*%
X50977500Y5735000D02*
X53262500Y5735000D01*
X50977500Y4265000D02*
X50977500Y5735000D01*
X53262500Y4265000D02*
X50977500Y4265000D01*
%TO.C,D93*%
X23553103Y45572438D02*
X24822581Y47472346D01*
X24775363Y44755750D02*
X23553103Y45572438D01*
X26044841Y46655658D02*
X24775363Y44755750D01*
%TO.C,C6*%
X33115000Y4840000D02*
X37635000Y4840000D01*
X33115000Y-3400000D02*
X33115000Y4840000D01*
X37635000Y4840000D02*
X37635000Y-3400000D01*
D12*
%TO.C,U2*%
X10865000Y-2650000D02*
X10865000Y2650000D01*
X19135000Y-2650000D02*
X19135000Y2650000D01*
D13*
X19155000Y-5405000D02*
G75*
G02*
X18955000Y-5405000I-100000J0D01*
G01*
X18955000Y-5405000D02*
G75*
G02*
X19155000Y-5405000I100000J0D01*
G01*
D11*
%TO.C,D108*%
X-31085571Y-42250230D02*
X-29085518Y-39256939D01*
X-29085518Y-39256939D02*
X-26424815Y-41034764D01*
X-28424868Y-44028055D02*
X-26424815Y-41034764D01*
%TO.C,R45*%
X-51734280Y-11517934D02*
X-51268882Y-11425361D01*
X-51530410Y-12542855D02*
X-51065012Y-12450282D01*
%TO.C,R38*%
X-22354932Y48093279D02*
X-22173342Y47654883D01*
X-21389478Y48493183D02*
X-21207888Y48054787D01*
%TO.C,D83*%
X31867799Y-40016735D02*
X33090059Y-39200047D01*
X33090059Y-39200047D02*
X34359537Y-41099955D01*
X33137277Y-41916643D02*
X31867799Y-40016735D01*
%TO.C,D97*%
X-20815979Y48095090D02*
X-19438319Y44769124D01*
X-17859565Y49319677D02*
X-16481904Y45993711D01*
X-16481904Y45993711D02*
X-19438319Y44769124D01*
%TO.C,R62*%
X48093279Y22354932D02*
X47654883Y22173342D01*
X48493183Y21389478D02*
X48054787Y21207888D01*
%TO.C,D122*%
X41894494Y25138137D02*
X40116669Y27798840D01*
X43109960Y29798893D02*
X40116669Y27798840D01*
X44887785Y27138190D02*
X41894494Y25138137D01*
%TO.C,D68*%
X-40678085Y34646465D02*
X-39062346Y33030726D01*
X-40101793Y31991279D02*
X-41717532Y33607018D01*
X-39062346Y33030726D02*
X-40101793Y31991279D01*
%TO.C,D98*%
X-29798893Y43109960D02*
X-27798840Y40116669D01*
X-27138190Y44887785D02*
X-25138137Y41894494D01*
X-25138137Y41894494D02*
X-27798840Y40116669D01*
%TO.C,D81*%
X14128266Y-49165921D02*
X15570020Y-48879138D01*
X14574047Y-51407016D02*
X14128266Y-49165921D01*
X15570020Y-48879138D02*
X16015801Y-51120233D01*
%TO.C,D119*%
X48800000Y-2373737D02*
X48800000Y826263D01*
X52400000Y826263D02*
X48800000Y826263D01*
X52400000Y-2373737D02*
X48800000Y-2373737D01*
%TO.C,R39*%
X-31307921Y42807949D02*
X-31044294Y42413404D01*
X-30439036Y43388520D02*
X-30175409Y42993975D01*
%TO.C,R64*%
X35877533Y39057765D02*
X35542000Y38722232D01*
X36616460Y38318838D02*
X36280927Y37983305D01*
%TO.C,R2*%
X-20760000Y2890580D02*
X-20760000Y2609420D01*
X-19740000Y2890580D02*
X-19740000Y2609420D01*
%TO.C,R42*%
X-49814408Y18199760D02*
X-49376012Y18018170D01*
X-49414504Y19165214D02*
X-48976108Y18983624D01*
%TO.C,D92*%
X31991279Y40101793D02*
X33607018Y41717532D01*
X33030726Y39062346D02*
X31991279Y40101793D01*
X34646465Y40678085D02*
X33030726Y39062346D01*
%TO.C,D82*%
X23448591Y-45464924D02*
X24806694Y-44902380D01*
X24323022Y-47575989D02*
X23448591Y-45464924D01*
X24806694Y-44902380D02*
X25681125Y-47013444D01*
%TO.C,R5*%
X-2248763Y52987258D02*
X-2248763Y52512742D01*
X-1203763Y52987258D02*
X-1203763Y52512742D01*
%TO.C,R41*%
X-45306640Y27568366D02*
X-44912095Y27304739D01*
X-44726069Y28437251D02*
X-44331524Y28173624D01*
%TO.C,R53*%
X11517934Y-51734280D02*
X11425361Y-51268882D01*
X12542855Y-51530410D02*
X12450282Y-51065012D01*
%TO.C,D70*%
X-50840278Y16442330D02*
X-48729214Y15567899D01*
X-49291758Y14209796D02*
X-51402823Y15084227D01*
X-48729214Y15567899D02*
X-49291758Y14209796D01*
%TO.C,R63*%
X42807949Y31307921D02*
X42413404Y31044294D01*
X43388520Y30439036D02*
X42993975Y30175409D01*
%TO.C,D74*%
X-47575989Y-24323022D02*
X-45464924Y-23448591D01*
X-45464924Y-23448591D02*
X-44902380Y-24806694D01*
X-44902380Y-24806694D02*
X-47013444Y-25681125D01*
%TO.C,R65*%
X27568366Y45306640D02*
X27304739Y44912095D01*
X28437251Y44726069D02*
X28173624Y44331524D01*
%TO.C,R3*%
X19740000Y-2890580D02*
X19740000Y-2609420D01*
X20760000Y-2890580D02*
X20760000Y-2609420D01*
%TO.C,D115*%
X32828325Y-36185297D02*
X35091067Y-33922555D01*
X35373910Y-38730881D02*
X32828325Y-36185297D01*
X37636651Y-36468140D02*
X35091067Y-33922555D01*
%TO.C,D120*%
X48325415Y7192282D02*
X47701126Y10330795D01*
X51231953Y11033120D02*
X47701126Y10330795D01*
X51856242Y7894607D02*
X48325415Y7192282D01*
%TO.C,D107*%
X-38730881Y-35373910D02*
X-36185297Y-32828325D01*
X-36468140Y-37636651D02*
X-33922555Y-35091067D01*
X-36185297Y-32828325D02*
X-33922555Y-35091067D01*
%TO.C,D96*%
X-11033120Y51231953D02*
X-10330795Y47701126D01*
X-7894607Y51856242D02*
X-7192282Y48325415D01*
X-7192282Y48325415D02*
X-10330795Y47701126D01*
%TO.C,D99*%
X-37636651Y36468140D02*
X-35091067Y33922555D01*
X-35373910Y38730881D02*
X-32828325Y36185297D01*
X-32828325Y36185297D02*
X-35091067Y33922555D01*
%TO.C,D73*%
X-51407016Y-14574047D02*
X-49165921Y-14128266D01*
X-49165921Y-14128266D02*
X-48879138Y-15570020D01*
X-48879138Y-15570020D02*
X-51120233Y-16015801D01*
%TO.C,D126*%
X9412346Y51554345D02*
X8710021Y48023518D01*
X11848534Y47399229D02*
X8710021Y48023518D01*
X12550859Y50930056D02*
X11848534Y47399229D01*
%TO.C,D125*%
X19289245Y48727485D02*
X17911584Y45401519D01*
X20867999Y44176932D02*
X17911584Y45401519D01*
X22245659Y47502898D02*
X20867999Y44176932D01*
%TO.C,D100*%
X-44028055Y28424868D02*
X-41034764Y26424815D01*
X-42250230Y31085571D02*
X-39256939Y29085518D01*
X-39256939Y29085518D02*
X-41034764Y26424815D01*
%TO.C,D76*%
X-34646465Y-40678085D02*
X-33030726Y-39062346D01*
X-33030726Y-39062346D02*
X-31991279Y-40101793D01*
X-31991279Y-40101793D02*
X-33607018Y-41717532D01*
%TO.C,D102*%
X-51554345Y9412346D02*
X-48023518Y8710021D01*
X-50930056Y12550859D02*
X-47399229Y11848534D01*
X-47399229Y11848534D02*
X-48023518Y8710021D01*
%TO.C,R50*%
X-19165214Y-49414504D02*
X-18983624Y-48976108D01*
X-18199760Y-49814408D02*
X-18018170Y-49376012D01*
%TO.C,R59*%
X52203965Y-9156668D02*
X51738567Y-9064095D01*
X52407835Y-8131747D02*
X51942437Y-8039174D01*
%TO.C,R49*%
X-28437251Y-44726069D02*
X-28173624Y-44331524D01*
X-27568366Y-45306640D02*
X-27304739Y-44912095D01*
%TO.C,D75*%
X-41916643Y-33137277D02*
X-40016735Y-31867799D01*
X-40016735Y-31867799D02*
X-39200047Y-33090059D01*
X-39200047Y-33090059D02*
X-41099955Y-34359537D01*
%TO.C,D123*%
X36185297Y32828325D02*
X33922555Y35091067D01*
X36468140Y37636651D02*
X33922555Y35091067D01*
X38730881Y35373910D02*
X36185297Y32828325D01*
%TO.C,D78*%
X-16442330Y-50840278D02*
X-15567899Y-48729214D01*
X-15567899Y-48729214D02*
X-14209796Y-49291758D01*
X-14209796Y-49291758D02*
X-15084227Y-51402823D01*
%TO.C,D95*%
X4320414Y51116824D02*
X4766195Y53357919D01*
X5762168Y50830041D02*
X4320414Y51116824D01*
X6207949Y53071136D02*
X5762168Y50830041D01*
%TO.C,R61*%
X51530410Y12542855D02*
X51065012Y12450282D01*
X51734280Y11517934D02*
X51268882Y11425361D01*
%TO.C,D77*%
X-26044841Y-46655658D02*
X-24775363Y-44755750D01*
X-24775363Y-44755750D02*
X-23553103Y-45572438D01*
X-23553103Y-45572438D02*
X-24822581Y-47472346D01*
%TO.C,D105*%
X-49319677Y-17859565D02*
X-45993711Y-16481904D01*
X-48095090Y-20815979D02*
X-44769124Y-19438319D01*
X-45993711Y-16481904D02*
X-44769124Y-19438319D01*
%TO.C,D117*%
X44176932Y-20867999D02*
X45401519Y-17911584D01*
X47502898Y-22245659D02*
X44176932Y-20867999D01*
X48727485Y-19289245D02*
X45401519Y-17911584D01*
%TO.C,C1*%
X19740000Y2890580D02*
X19740000Y2609420D01*
X20760000Y2890580D02*
X20760000Y2609420D01*
%TD*%
%LPC*%
D14*
%TO.C,H32*%
X32931764Y-76187262D03*
D15*
X32931764Y-76187262D03*
%TD*%
D14*
%TO.C,H26*%
X12500000Y-40416626D03*
D15*
X12500000Y-40416626D03*
%TD*%
D14*
%TO.C,H14*%
X10000000Y21875000D03*
D15*
X10000000Y21875000D03*
%TD*%
D14*
%TO.C,H23*%
X-75322057Y-34865279D03*
D15*
X-75322057Y-34865279D03*
%TD*%
D16*
%TO.C,J5*%
X77500000Y-27000000D03*
D17*
X72500000Y-27000000D03*
D18*
X80500000Y-17000000D03*
X69500000Y-17000000D03*
%TD*%
D19*
%TO.C,C4*%
X-62512754Y-20750000D03*
D20*
X-55012754Y-20750000D03*
%TD*%
D14*
%TO.C,H20*%
X40000000Y-22500000D03*
D15*
X40000000Y-22500000D03*
%TD*%
D21*
%TO.C,U4*%
X-75425000Y25469999D03*
D22*
X-72885000Y25469999D03*
X-70345000Y25469999D03*
D21*
X-75425000Y-9470001D03*
D22*
X-72885000Y-9470001D03*
X-67805000Y25469999D03*
X-65265000Y25469999D03*
X-60185000Y-9470001D03*
X-57645000Y-9470001D03*
X-62725000Y25469999D03*
X-60185000Y25469999D03*
X-57645000Y25469999D03*
X-70345000Y-9470001D03*
X-67805000Y-9470001D03*
X-65265000Y-9470001D03*
X-62725000Y-9470001D03*
%TD*%
D14*
%TO.C,H31*%
X-32931764Y-76187262D03*
D15*
X-32931764Y-76187262D03*
%TD*%
D23*
%TO.C,TP3*%
X82250000Y-11210000D03*
X82250000Y-8670000D03*
%TD*%
D14*
%TO.C,H27*%
X-29586721Y-49385711D03*
D15*
X-29586721Y-49385711D03*
%TD*%
D14*
%TO.C,H1*%
X-34865279Y75322057D03*
D15*
X-34865279Y75322057D03*
%TD*%
D14*
%TO.C,H25*%
X-12500000Y-40416626D03*
D15*
X-12500000Y-40416626D03*
%TD*%
D24*
%TO.C,J3*%
X-20525000Y69650000D03*
D25*
X-22525000Y71250000D03*
D26*
X-22525000Y73750000D03*
X-22525000Y76250000D03*
X-22525000Y78750000D03*
%TD*%
D14*
%TO.C,H16*%
X4000000Y10000000D03*
D15*
X4000000Y10000000D03*
%TD*%
D23*
%TO.C,TP5*%
X20250000Y66250000D03*
X20250000Y68790000D03*
%TD*%
%TO.C,TP8*%
X82250000Y-4750000D03*
X82250000Y-2210000D03*
%TD*%
D14*
%TO.C,H12*%
X40000000Y22500000D03*
D15*
X40000000Y22500000D03*
%TD*%
D14*
%TO.C,H22*%
X49385711Y-29586721D03*
D15*
X49385711Y-29586721D03*
%TD*%
D27*
%TO.C,H34*%
X0Y-65416626D03*
D28*
X0Y-65416626D03*
%TD*%
D23*
%TO.C,TP7*%
X20250000Y71500000D03*
X20250000Y74040000D03*
%TD*%
D14*
%TO.C,H29*%
X-12500000Y-65416626D03*
D15*
X-12500000Y-65416626D03*
%TD*%
D14*
%TO.C,H18*%
X4000000Y-10000000D03*
D15*
X4000000Y-10000000D03*
%TD*%
D14*
%TO.C,H3*%
X-29586721Y49385711D03*
D15*
X-29586721Y49385711D03*
%TD*%
D14*
%TO.C,H11*%
X-40000000Y22500000D03*
D15*
X-40000000Y22500000D03*
%TD*%
D14*
%TO.C,H21*%
X-49385711Y-29586721D03*
D15*
X-49385711Y-29586721D03*
%TD*%
D23*
%TO.C,TP4*%
X20250000Y84460000D03*
X20250000Y81920000D03*
%TD*%
D14*
%TO.C,H19*%
X-40000000Y-22500000D03*
D15*
X-40000000Y-22500000D03*
%TD*%
D14*
%TO.C,H2*%
X34865279Y75322057D03*
D15*
X34865279Y75322057D03*
%TD*%
D14*
%TO.C,H5*%
X-10000000Y41925000D03*
D15*
X-10000000Y41925000D03*
%TD*%
D29*
%TO.C,U3*%
X13970000Y82870000D03*
X11430000Y82870000D03*
X8890000Y82870000D03*
X6350000Y82870000D03*
X-16510000Y77790000D03*
X11430000Y67630000D03*
X3810000Y82870000D03*
X1270000Y82870000D03*
X-1270000Y82870000D03*
X-3810000Y82870000D03*
X-6350000Y82870000D03*
X-8890000Y82870000D03*
X-11430000Y82870000D03*
X-13970000Y82870000D03*
X-16510000Y82870000D03*
X-16510000Y67630000D03*
X-13970000Y67630000D03*
X-11430000Y67630000D03*
X-8890000Y67630000D03*
X-6350000Y67630000D03*
X-3810000Y67630000D03*
X-1270000Y67630000D03*
X1270000Y67630000D03*
X3810000Y67630000D03*
X6350000Y67630000D03*
X8890000Y67630000D03*
X16510000Y82870000D03*
X-16510000Y75250000D03*
X13970000Y67630000D03*
X-16510000Y70170000D03*
X-16510000Y72710000D03*
X-16510000Y80330000D03*
X16510000Y67630000D03*
%TD*%
D14*
%TO.C,H8*%
X75322057Y34865279D03*
D15*
X75322057Y34865279D03*
%TD*%
D14*
%TO.C,H7*%
X-75322057Y34865279D03*
D15*
X-75322057Y34865279D03*
%TD*%
D14*
%TO.C,H15*%
X-4000000Y10000000D03*
D15*
X-4000000Y10000000D03*
%TD*%
D14*
%TO.C,H17*%
X-4000000Y-10000000D03*
D15*
X-4000000Y-10000000D03*
%TD*%
D14*
%TO.C,H28*%
X29586721Y-49385711D03*
D15*
X29586721Y-49385711D03*
%TD*%
D23*
%TO.C,TP1*%
X82250000Y8250000D03*
X82250000Y10790000D03*
%TD*%
D16*
%TO.C,J2*%
X57500000Y27000000D03*
D30*
X62500000Y27000000D03*
D18*
X54500000Y17000000D03*
X65500000Y17000000D03*
%TD*%
D14*
%TO.C,H30*%
X12500000Y-65416626D03*
D15*
X12500000Y-65416626D03*
%TD*%
D14*
%TO.C,H6*%
X10000000Y41925000D03*
D15*
X10000000Y41925000D03*
%TD*%
D27*
%TO.C,H33*%
X0Y-35416626D03*
D28*
X0Y-35416626D03*
%TD*%
D14*
%TO.C,H10*%
X49385711Y29586721D03*
D15*
X49385711Y29586721D03*
%TD*%
D14*
%TO.C,H9*%
X-49385711Y29586721D03*
D15*
X-49385711Y29586721D03*
%TD*%
D14*
%TO.C,H4*%
X29586721Y49385711D03*
D15*
X29586721Y49385711D03*
%TD*%
D23*
%TO.C,SW2*%
X-29000000Y75000000D03*
X-29000000Y77500000D03*
X-29000000Y72500000D03*
%TD*%
D14*
%TO.C,H13*%
X-10000000Y21875000D03*
D15*
X-10000000Y21875000D03*
%TD*%
D16*
%TO.C,J1*%
X72500000Y27000000D03*
D30*
X77500000Y27000000D03*
D18*
X69500000Y17000000D03*
X80500000Y17000000D03*
%TD*%
D19*
%TO.C,C3*%
X-79500000Y-20750000D03*
D20*
X-72000000Y-20750000D03*
%TD*%
D14*
%TO.C,H24*%
X75322057Y-34865279D03*
D15*
X75322057Y-34865279D03*
%TD*%
D23*
%TO.C,TP2*%
X82250000Y1750000D03*
X82250000Y4290000D03*
%TD*%
%TO.C,TP6*%
X20250000Y76750000D03*
X20250000Y79290000D03*
%TD*%
D16*
%TO.C,J4*%
X62500000Y-27000000D03*
D17*
X57500000Y-27000000D03*
D18*
X65500000Y-17000000D03*
X54500000Y-17000000D03*
%TD*%
D31*
%TO.C,D111*%
X-773737Y-50100000D03*
D32*
X-773737Y-52375000D03*
%TD*%
D33*
%TO.C,R57*%
X45505044Y-28329340D03*
X44133120Y-27412650D03*
%TD*%
D34*
%TO.C,C5*%
X29000000Y3457500D03*
X29000000Y-2957500D03*
%TD*%
D35*
%TO.C,D87*%
X51657531Y-5177366D03*
X53202267Y-5484634D03*
%TD*%
D36*
%TO.C,D112*%
X9015156Y-49288291D03*
D37*
X9458986Y-51519578D03*
%TD*%
D38*
%TO.C,D91*%
X40188341Y32866439D03*
X41497905Y33741463D03*
%TD*%
D39*
%TO.C,D109*%
X-19887280Y-45990268D03*
D40*
X-20757885Y-48092094D03*
%TD*%
D41*
%TO.C,D116*%
X41226762Y-28477408D03*
D42*
X43118356Y-29741330D03*
%TD*%
D43*
%TO.C,D85*%
X45744044Y-24551743D03*
X47053608Y-25426767D03*
%TD*%
D44*
%TO.C,U1*%
X-18575000Y3505000D03*
X-17925000Y3505000D03*
X-17275000Y3505000D03*
X-16625000Y3505000D03*
X-15975000Y3505000D03*
X-15325000Y3505000D03*
X-14675000Y3505000D03*
X-14025000Y3505000D03*
X-13375000Y3505000D03*
X-12725000Y3505000D03*
X-12075000Y3505000D03*
X-11425000Y3505000D03*
X-11425000Y-3505000D03*
X-12075000Y-3505000D03*
X-12725000Y-3505000D03*
X-13375000Y-3505000D03*
X-14025000Y-3505000D03*
X-14675000Y-3505000D03*
X-15325000Y-3505000D03*
X-15975000Y-3505000D03*
X-16625000Y-3505000D03*
X-17275000Y-3505000D03*
X-17925000Y-3505000D03*
X-18575000Y-3505000D03*
%TD*%
D45*
%TO.C,R54*%
X22097124Y-48836234D03*
X21465696Y-47311832D03*
%TD*%
D46*
%TO.C,R55*%
X31200010Y-43586924D03*
X30283320Y-42215000D03*
%TD*%
D47*
%TO.C,R4*%
X12250000Y5725000D03*
X12250000Y7275000D03*
%TD*%
D48*
%TO.C,D89*%
X49706628Y14985218D03*
X51251364Y15292486D03*
%TD*%
D49*
%TO.C,D106*%
X-42086492Y-27190730D03*
D50*
X-43978086Y-28454652D03*
%TD*%
D51*
%TO.C,D113*%
X18457600Y-46582460D03*
D52*
X19328205Y-48684286D03*
%TD*%
D53*
%TO.C,R37*%
X-12145058Y52208794D03*
X-11823158Y50590498D03*
%TD*%
D54*
%TO.C,R58*%
X50157459Y-18907406D03*
X48633057Y-18275978D03*
%TD*%
D55*
%TO.C,R47*%
X-43586924Y-31200010D03*
X-42215000Y-30283320D03*
%TD*%
D47*
%TO.C,C2*%
X-20250000Y-3525000D03*
X-20250000Y-1975000D03*
%TD*%
D56*
%TO.C,D66*%
X-24394564Y45828058D03*
X-24997290Y47283168D03*
%TD*%
D57*
%TO.C,D86*%
X49654892Y-15155769D03*
X51110002Y-15758495D03*
%TD*%
D58*
%TO.C,R67*%
X8758871Y52882349D03*
X8436971Y51264053D03*
%TD*%
D59*
%TO.C,D79*%
X-5177366Y-51657531D03*
X-5484634Y-53202267D03*
%TD*%
D60*
%TO.C,D33*%
X-5000000Y51675000D03*
X-5000000Y53250000D03*
%TD*%
D61*
%TO.C,D67*%
X-32866439Y40188341D03*
X-33741463Y41497905D03*
%TD*%
D62*
%TO.C,D90*%
X45828058Y24394564D03*
X47283168Y24997290D03*
%TD*%
D63*
%TO.C,D69*%
X-45744044Y24551743D03*
X-47053608Y25426767D03*
%TD*%
D64*
%TO.C,D104*%
X-49288291Y-9015156D03*
D65*
X-51519578Y-9458986D03*
%TD*%
D66*
%TO.C,D72*%
X-51675000Y-5000000D03*
X-53250000Y-5000000D03*
%TD*%
D31*
%TO.C,D103*%
X-50100000Y773737D03*
D67*
X-52375000Y773737D03*
%TD*%
D68*
%TO.C,R60*%
X53575000Y1726263D03*
X51925000Y1726263D03*
%TD*%
D69*
%TO.C,D65*%
X-14985218Y49706628D03*
X-15292486Y51251364D03*
%TD*%
D70*
%TO.C,R43*%
X-52882349Y8758871D03*
X-51264053Y8436971D03*
%TD*%
D71*
%TO.C,D121*%
X46582460Y18457600D03*
D72*
X48684286Y19328205D03*
%TD*%
D73*
%TO.C,D71*%
X-51657531Y5177366D03*
X-53202267Y5484634D03*
%TD*%
D74*
%TO.C,R48*%
X-36662593Y-39103898D03*
X-35495867Y-37937172D03*
%TD*%
D75*
%TO.C,R51*%
X-8758871Y-52882349D03*
X-8436971Y-51264053D03*
%TD*%
D31*
%TO.C,D1*%
X773737Y50100000D03*
D32*
X773737Y52375000D03*
%TD*%
D76*
%TO.C,R1*%
X-12275000Y-5750000D03*
X-10725000Y-5750000D03*
%TD*%
D77*
%TO.C,D118*%
X48986394Y-10532895D03*
D78*
X51217681Y-10976725D03*
%TD*%
D79*
%TO.C,R40*%
X-39103898Y36662593D03*
X-37937172Y35495867D03*
%TD*%
D80*
%TO.C,R56*%
X39103898Y-36662593D03*
X37937172Y-35495867D03*
%TD*%
D81*
%TO.C,D101*%
X-45990268Y19887280D03*
D82*
X-48092094Y20757885D03*
%TD*%
D83*
%TO.C,D114*%
X27190730Y-42086492D03*
D84*
X28454652Y-43978086D03*
%TD*%
D85*
%TO.C,D84*%
X40075276Y-33004209D03*
X41188970Y-34117903D03*
%TD*%
D86*
%TO.C,R46*%
X-48836234Y-22097124D03*
X-47311832Y-21465696D03*
%TD*%
D87*
%TO.C,D80*%
X5000000Y-51675000D03*
X5000000Y-53250000D03*
%TD*%
D88*
%TO.C,D110*%
X-10532895Y-48986394D03*
D89*
X-10976725Y-51217681D03*
%TD*%
D90*
%TO.C,R44*%
X-53575000Y-1726263D03*
X-51925000Y-1726263D03*
%TD*%
D91*
%TO.C,D94*%
X15155769Y49654892D03*
X15758495Y51110002D03*
%TD*%
D92*
%TO.C,R66*%
X18907406Y50157459D03*
X18275978Y48633057D03*
%TD*%
D93*
%TO.C,D124*%
X28477408Y41226762D03*
D94*
X29741330Y43118356D03*
%TD*%
D95*
%TO.C,R52*%
X1726263Y-53575000D03*
X1726263Y-51925000D03*
%TD*%
D96*
%TO.C,D88*%
X51675000Y5000000D03*
X53250000Y5000000D03*
%TD*%
D97*
%TO.C,D93*%
X24551743Y45744044D03*
X25426767Y47053608D03*
%TD*%
D34*
%TO.C,C6*%
X35375000Y3457500D03*
X35375000Y-2957500D03*
%TD*%
D98*
%TO.C,U2*%
X18575000Y-3505000D03*
X17925000Y-3505000D03*
X17275000Y-3505000D03*
X16625000Y-3505000D03*
X15975000Y-3505000D03*
X15325000Y-3505000D03*
X14675000Y-3505000D03*
X14025000Y-3505000D03*
X13375000Y-3505000D03*
X12725000Y-3505000D03*
X12075000Y-3505000D03*
X11425000Y-3505000D03*
X11425000Y3505000D03*
X12075000Y3505000D03*
X12725000Y3505000D03*
X13375000Y3505000D03*
X14025000Y3505000D03*
X14675000Y3505000D03*
X15325000Y3505000D03*
X15975000Y3505000D03*
X16625000Y3505000D03*
X17275000Y3505000D03*
X17925000Y3505000D03*
X18575000Y3505000D03*
%TD*%
D99*
%TO.C,D108*%
X-28477408Y-41226762D03*
D100*
X-29741330Y-43118356D03*
%TD*%
D101*
%TO.C,R45*%
X-52208794Y-12145058D03*
X-50590498Y-11823158D03*
%TD*%
D102*
%TO.C,R38*%
X-22097124Y48836234D03*
X-21465696Y47311832D03*
%TD*%
D103*
%TO.C,D83*%
X32866439Y-40188341D03*
X33741463Y-41497905D03*
%TD*%
D104*
%TO.C,D97*%
X-18457600Y46582460D03*
D105*
X-19328205Y48684286D03*
%TD*%
D106*
%TO.C,R62*%
X48836234Y22097124D03*
X47311832Y21465696D03*
%TD*%
D107*
%TO.C,D122*%
X42086492Y27190730D03*
D108*
X43978086Y28454652D03*
%TD*%
D109*
%TO.C,D68*%
X-40075276Y33004209D03*
X-41188970Y34117903D03*
%TD*%
D110*
%TO.C,D98*%
X-27190730Y42086492D03*
D111*
X-28454652Y43978086D03*
%TD*%
D112*
%TO.C,D81*%
X14985218Y-49706628D03*
X15292486Y-51251364D03*
%TD*%
D31*
%TO.C,D119*%
X50100000Y-773737D03*
D67*
X52375000Y-773737D03*
%TD*%
D113*
%TO.C,R39*%
X-31200010Y43586924D03*
X-30283320Y42215000D03*
%TD*%
D114*
%TO.C,R64*%
X36662593Y39103898D03*
X35495867Y37937172D03*
%TD*%
D115*
%TO.C,R2*%
X-20250000Y3525000D03*
X-20250000Y1975000D03*
%TD*%
D116*
%TO.C,R42*%
X-50157459Y18907406D03*
X-48633057Y18275978D03*
%TD*%
D117*
%TO.C,D92*%
X33004209Y40075276D03*
X34117903Y41188970D03*
%TD*%
D118*
%TO.C,D82*%
X24394564Y-45828058D03*
X24997290Y-47283168D03*
%TD*%
D119*
%TO.C,R5*%
X-1726263Y53575000D03*
X-1726263Y51925000D03*
%TD*%
D120*
%TO.C,R41*%
X-45505044Y28329340D03*
X-44133120Y27412650D03*
%TD*%
D121*
%TO.C,R53*%
X12145058Y-52208794D03*
X11823158Y-50590498D03*
%TD*%
D122*
%TO.C,D70*%
X-49654892Y15155769D03*
X-51110002Y15758495D03*
%TD*%
D123*
%TO.C,R63*%
X43586924Y31200010D03*
X42215000Y30283320D03*
%TD*%
D124*
%TO.C,D74*%
X-45828058Y-24394564D03*
X-47283168Y-24997290D03*
%TD*%
D125*
%TO.C,R65*%
X28329340Y45505044D03*
X27412650Y44133120D03*
%TD*%
D47*
%TO.C,R3*%
X20250000Y-3525000D03*
X20250000Y-1975000D03*
%TD*%
D126*
%TO.C,D115*%
X34878935Y-35973165D03*
D127*
X36487603Y-37581833D03*
%TD*%
D128*
%TO.C,D120*%
X49288291Y9015156D03*
D129*
X51519578Y9458986D03*
%TD*%
D130*
%TO.C,D107*%
X-35973165Y-34878935D03*
D131*
X-37581833Y-36487603D03*
%TD*%
D132*
%TO.C,D96*%
X-9015156Y49288291D03*
D133*
X-9458986Y51519578D03*
%TD*%
D134*
%TO.C,D99*%
X-34878935Y35973165D03*
D135*
X-36487603Y37581833D03*
%TD*%
D136*
%TO.C,D73*%
X-49706628Y-14985218D03*
X-51251364Y-15292486D03*
%TD*%
D137*
%TO.C,D126*%
X10532895Y48986394D03*
D138*
X10976725Y51217681D03*
%TD*%
D139*
%TO.C,D125*%
X19887280Y45990268D03*
D140*
X20757885Y48092094D03*
%TD*%
D141*
%TO.C,D100*%
X-41226762Y28477408D03*
D142*
X-43118356Y29741330D03*
%TD*%
D143*
%TO.C,D76*%
X-33004209Y-40075276D03*
X-34117903Y-41188970D03*
%TD*%
D144*
%TO.C,D102*%
X-48986394Y10532895D03*
D145*
X-51217681Y10976725D03*
%TD*%
D146*
%TO.C,R50*%
X-18907406Y-50157459D03*
X-18275978Y-48633057D03*
%TD*%
D147*
%TO.C,R59*%
X52882349Y-8758871D03*
X51264053Y-8436971D03*
%TD*%
D148*
%TO.C,R49*%
X-28329340Y-45505044D03*
X-27412650Y-44133120D03*
%TD*%
D149*
%TO.C,D75*%
X-40188341Y-32866439D03*
X-41497905Y-33741463D03*
%TD*%
D150*
%TO.C,D123*%
X35973165Y34878935D03*
D151*
X37581833Y36487603D03*
%TD*%
D152*
%TO.C,D78*%
X-15155769Y-49654892D03*
X-15758495Y-51110002D03*
%TD*%
D153*
%TO.C,D95*%
X5177366Y51657531D03*
X5484634Y53202267D03*
%TD*%
D154*
%TO.C,R61*%
X52208794Y12145058D03*
X50590498Y11823158D03*
%TD*%
D155*
%TO.C,D77*%
X-24551743Y-45744044D03*
X-25426767Y-47053608D03*
%TD*%
D156*
%TO.C,D105*%
X-46582460Y-18457600D03*
D157*
X-48684286Y-19328205D03*
%TD*%
D158*
%TO.C,D117*%
X45990268Y-19887280D03*
D159*
X48092094Y-20757885D03*
%TD*%
D115*
%TO.C,C1*%
X20250000Y3525000D03*
X20250000Y1975000D03*
%TD*%
%LPD*%
M02*
