%TF.GenerationSoftware,KiCad,Pcbnew,9.0.6*%
%TF.CreationDate,2026-01-24T12:28:02+08:00*%
%TF.ProjectId,layer1,6c617965-7231-42e6-9b69-6361645f7063,rev?*%
%TF.SameCoordinates,Original*%
%TF.FileFunction,Soldermask,Top*%
%TF.FilePolarity,Negative*%
%FSLAX46Y46*%
G04 Gerber Fmt 4.6, Leading zero omitted, Abs format (unit mm)*
G04 Created by KiCad (PCBNEW 9.0.6) date 2026-01-24 12:28:02*
%MOMM*%
%LPD*%
G01*
G04 APERTURE LIST*
G04 Aperture macros list*
%AMRoundRect*
0 Rectangle with rounded corners*
0 $1 Rounding radius*
0 $2 $3 $4 $5 $6 $7 $8 $9 X,Y pos of 4 corners*
0 Add a 4 corners polygon primitive as box body*
4,1,4,$2,$3,$4,$5,$6,$7,$8,$9,$2,$3,0*
0 Add four circle primitives for the rounded corners*
1,1,$1+$1,$2,$3*
1,1,$1+$1,$4,$5*
1,1,$1+$1,$6,$7*
1,1,$1+$1,$8,$9*
0 Add four rect primitives between the rounded corners*
20,1,$1+$1,$2,$3,$4,$5,0*
20,1,$1+$1,$4,$5,$6,$7,0*
20,1,$1+$1,$6,$7,$8,$9,0*
20,1,$1+$1,$8,$9,$2,$3,0*%
G04 Aperture macros list end*
%ADD10RoundRect,0.250000X0.600000X0.725000X-0.600000X0.725000X-0.600000X-0.725000X0.600000X-0.725000X0*%
%ADD11O,1.700000X1.950000*%
%ADD12C,3.600000*%
%ADD13C,5.600000*%
%ADD14R,1.700000X1.700000*%
%ADD15O,1.700000X1.700000*%
%ADD16C,1.734000*%
%ADD17RoundRect,0.250000X-0.600000X-0.725000X0.600000X-0.725000X0.600000X0.725000X-0.600000X0.725000X0*%
%ADD18C,2.600000*%
%ADD19C,3.800000*%
G04 APERTURE END LIST*
D10*
%TO.C,Driver5*%
X-60400000Y23800000D03*
D11*
X-62900000Y23800000D03*
X-65400000Y23800000D03*
X-67900000Y23800000D03*
X-70400000Y23800000D03*
X-72900000Y23800000D03*
X-75400000Y23800000D03*
X-77900000Y23800000D03*
%TD*%
D12*
%TO.C,H32*%
X-10000000Y41900000D03*
D13*
X-10000000Y41900000D03*
%TD*%
D12*
%TO.C,H9*%
X49383092Y29588887D03*
D13*
X49383092Y29588887D03*
%TD*%
D14*
%TO.C,Driver2*%
X61825000Y-17390000D03*
D15*
X64365000Y-17390000D03*
X66905000Y-17390000D03*
X69445000Y-17390000D03*
X71985000Y-17390000D03*
X74525000Y-17390000D03*
X77065000Y-17390000D03*
X79605000Y-17390000D03*
%TD*%
D16*
%TO.C,U1*%
X13970000Y73120000D03*
X11430000Y73120000D03*
X8890000Y73120000D03*
X6350000Y73120000D03*
X-16510000Y68040000D03*
X11430000Y57880000D03*
X3810000Y73120000D03*
X1270000Y73120000D03*
X-1270000Y73120000D03*
X-3810000Y73120000D03*
X-6350000Y73120000D03*
X-8890000Y73120000D03*
X-11430000Y73120000D03*
X-13970000Y73120000D03*
X-16510000Y73120000D03*
X-16510000Y57880000D03*
X-13970000Y57880000D03*
X-11430000Y57880000D03*
X-8890000Y57880000D03*
X-6350000Y57880000D03*
X-3810000Y57880000D03*
X-1270000Y57880000D03*
X1270000Y57880000D03*
X3810000Y57880000D03*
X6350000Y57880000D03*
X8890000Y57880000D03*
X16510000Y73120000D03*
X-16510000Y65500000D03*
X13970000Y57880000D03*
X-16510000Y60420000D03*
X-16510000Y62960000D03*
X-16510000Y70580000D03*
X16510000Y57880000D03*
%TD*%
D12*
%TO.C,H33*%
X-40000000Y22500000D03*
D13*
X-40000000Y22500000D03*
%TD*%
D12*
%TO.C,H3*%
X12497381Y-65414460D03*
D13*
X12497381Y-65414460D03*
%TD*%
D12*
%TO.C,H17*%
X-49388330Y-29584555D03*
D13*
X-49388330Y-29584555D03*
%TD*%
D12*
%TO.C,H23*%
X39500000Y-22500000D03*
D13*
X39500000Y-22500000D03*
%TD*%
D12*
%TO.C,H6*%
X49383092Y-29584555D03*
D13*
X49383092Y-29584555D03*
%TD*%
D14*
%TO.C,Driver4*%
X-78155000Y-17720000D03*
D15*
X-75615000Y-17720000D03*
X-73075000Y-17720000D03*
X-70535000Y-17720000D03*
X-67995000Y-17720000D03*
X-65455000Y-17720000D03*
X-62915000Y-17720000D03*
X-60375000Y-17720000D03*
%TD*%
D12*
%TO.C,H28*%
X-4000000Y-10000000D03*
D13*
X-4000000Y-10000000D03*
%TD*%
D17*
%TO.C,L1-->l2Connection1*%
X-10150000Y80800000D03*
D11*
X-7650000Y80800000D03*
X-5150000Y80800000D03*
X-2650000Y80800000D03*
X-150000Y80800000D03*
X2350000Y80800000D03*
X4850000Y80800000D03*
X7350000Y80800000D03*
X9850000Y80800000D03*
%TD*%
D10*
%TO.C,Driver7*%
X79400000Y24000000D03*
D11*
X76900000Y24000000D03*
X74400000Y24000000D03*
X71900000Y24000000D03*
X69400000Y24000000D03*
X66900000Y24000000D03*
X64400000Y24000000D03*
X61900000Y24000000D03*
%TD*%
D12*
%TO.C,H15*%
X-75324676Y34867445D03*
D13*
X-75324676Y34867445D03*
%TD*%
D12*
%TO.C,H7*%
X75319438Y-34863113D03*
D13*
X75319438Y-34863113D03*
%TD*%
D12*
%TO.C,H27*%
X4000000Y-10000000D03*
D13*
X4000000Y-10000000D03*
%TD*%
D12*
%TO.C,H18*%
X-29589340Y-49383545D03*
D13*
X-29589340Y-49383545D03*
%TD*%
D14*
%TO.C,Driver1*%
X61825000Y17350000D03*
D15*
X64365000Y17350000D03*
X66905000Y17350000D03*
X69445000Y17350000D03*
X71985000Y17350000D03*
X74525000Y17350000D03*
X77065000Y17350000D03*
X79605000Y17350000D03*
%TD*%
D17*
%TO.C,Driver8*%
X61800000Y-24600000D03*
D11*
X64300000Y-24600000D03*
X66800000Y-24600000D03*
X69300000Y-24600000D03*
X71800000Y-24600000D03*
X74300000Y-24600000D03*
X76800000Y-24600000D03*
X79300000Y-24600000D03*
%TD*%
D12*
%TO.C,H16*%
X-75324676Y-34863113D03*
D13*
X-75324676Y-34863113D03*
%TD*%
D12*
%TO.C,H13*%
X-29589340Y49387877D03*
D13*
X-29589340Y49387877D03*
%TD*%
D12*
%TO.C,H19*%
X-32934383Y-76185096D03*
D13*
X-32934383Y-76185096D03*
%TD*%
D12*
%TO.C,H14*%
X-49388330Y29588887D03*
D13*
X-49388330Y29588887D03*
%TD*%
D12*
%TO.C,H5*%
X29584102Y-49383545D03*
D13*
X29584102Y-49383545D03*
%TD*%
D12*
%TO.C,H11*%
X34862660Y75324223D03*
D13*
X34862660Y75324223D03*
%TD*%
D17*
%TO.C,Driver6*%
X-78200000Y-24600000D03*
D11*
X-75700000Y-24600000D03*
X-73200000Y-24600000D03*
X-70700000Y-24600000D03*
X-68200000Y-24600000D03*
X-65700000Y-24600000D03*
X-63200000Y-24600000D03*
X-60700000Y-24600000D03*
%TD*%
D12*
%TO.C,H34*%
X-40000000Y-22500000D03*
D13*
X-40000000Y-22500000D03*
%TD*%
D12*
%TO.C,H29*%
X3997381Y10002166D03*
D13*
X3997381Y10002166D03*
%TD*%
D18*
%TO.C,H2*%
X-2619Y-35414460D03*
D19*
X-2619Y-35414460D03*
%TD*%
D14*
%TO.C,Driver3*%
X-78155000Y17020000D03*
D15*
X-75615000Y17020000D03*
X-73075000Y17020000D03*
X-70535000Y17020000D03*
X-67995000Y17020000D03*
X-65455000Y17020000D03*
X-62915000Y17020000D03*
X-60375000Y17020000D03*
%TD*%
D12*
%TO.C,H24*%
X40000000Y22500000D03*
D13*
X40000000Y22500000D03*
%TD*%
D12*
%TO.C,H26*%
X10000000Y21875000D03*
D13*
X10000000Y21875000D03*
%TD*%
D12*
%TO.C,H12*%
X-34867898Y75324223D03*
D13*
X-34867898Y75324223D03*
%TD*%
D12*
%TO.C,H30*%
X-4002619Y10002166D03*
D13*
X-4002619Y10002166D03*
%TD*%
D12*
%TO.C,H25*%
X10000000Y42000000D03*
D13*
X10000000Y42000000D03*
%TD*%
D12*
%TO.C,H31*%
X-10002619Y21877166D03*
D13*
X-10002619Y21877166D03*
%TD*%
D18*
%TO.C,H1*%
X-2619Y-65414460D03*
D19*
X-2619Y-65414460D03*
%TD*%
D12*
%TO.C,H4*%
X32929145Y-76185096D03*
D13*
X32929145Y-76185096D03*
%TD*%
D12*
%TO.C,H20*%
X-12502619Y-65414460D03*
D13*
X-12502619Y-65414460D03*
%TD*%
D12*
%TO.C,H10*%
X29584102Y49387877D03*
D13*
X29584102Y49387877D03*
%TD*%
D12*
%TO.C,H21*%
X-12502619Y-40414460D03*
D13*
X-12502619Y-40414460D03*
%TD*%
D12*
%TO.C,H22*%
X12250000Y-40500000D03*
D13*
X12250000Y-40500000D03*
%TD*%
D12*
%TO.C,H8*%
X75319438Y34867445D03*
D13*
X75319438Y34867445D03*
%TD*%
M02*
