M48
; DRILL file {KiCad 9.0.6} date 2026-03-02T09:12:09+0800
; FORMAT={-:-/ absolute / inch / decimal}
; #@! TF.CreationDate,2026-03-02T09:12:09+08:00
; #@! TF.GenerationSoftware,Kicad,Pcbnew,9.0.6
; #@! TF.FileFunction,Plated,1,2,PTH
FMAT,2
INCH
; #@! TA.AperFunction,Plated,PTH,ViaDrill
T1C0.0118
; #@! TA.AperFunction,Plated,PTH,ViaDrill
T2C0.0197
; #@! TA.AperFunction,Plated,PTH,ComponentDrill
T3C0.0315
; #@! TA.AperFunction,Plated,PTH,ComponentDrill
T4C0.0354
; #@! TA.AperFunction,Plated,PTH,ComponentDrill
T5C0.0374
; #@! TA.AperFunction,Plated,PTH,ComponentDrill
T6C0.0394
; #@! TA.AperFunction,Plated,PTH,ComponentDrill
T7C0.0402
; #@! TA.AperFunction,Plated,PTH,ComponentDrill
T8C0.0472
; #@! TA.AperFunction,Plated,PTH,ComponentDrill
T9C0.0669
; #@! TA.AperFunction,Plated,PTH,ComponentDrill
T10C0.0866
; #@! TA.AperFunction,Plated,PTH,ComponentDrill
T11C0.1260
%
G90
G05
T1
X-1.9405Y-0.3549
X-1.7717Y0.3445
X-1.1212Y-1.6231
X-0.7972Y-0.1378
X-0.5906Y-0.0098
X-0.315Y0.1378
X-0.315Y-0.1378
X-0.128Y1.6437
X-0.0492Y1.6437
X0.0Y0.0886
X0.0Y-0.0689
X0.0394Y1.6437
X0.0886Y-0.128
X0.128Y1.6437
X0.128Y0.7283
X0.561Y0.0394
X0.6201Y-0.0098
X0.783Y1.8106
X0.7972Y0.1388
X1.0705Y-1.6569
X1.939Y-0.5118
X1.9405Y0.3549
X1.9724Y-0.0305
T2
X-3.3212Y0.8679
X-3.3212Y0.7498
X-3.3212Y0.6317
X-3.3212Y0.5136
X-3.3212Y0.3955
X-3.3212Y0.2774
X-3.3212Y0.1593
X-3.3212Y0.0412
X-3.3212Y-0.077
X-3.3212Y-0.1951
X-3.3212Y-0.3132
X-3.3212Y-0.4313
X-3.3212Y-0.5494
X-3.3212Y-0.6675
X-3.3212Y-0.7856
X-3.2031Y1.2223
X-3.2031Y1.1041
X-3.2031Y0.986
X-3.2031Y0.8679
X-3.2031Y0.7498
X-3.2031Y0.6317
X-3.2031Y0.5136
X-3.2031Y0.3955
X-3.2031Y0.2774
X-3.2031Y0.1593
X-3.2031Y0.0412
X-3.2031Y-0.077
X-3.2031Y-0.1951
X-3.2031Y-0.3132
X-3.2031Y-1.0218
X-3.2031Y-1.14
X-3.0849Y1.2223
X-3.0849Y1.1041
X-3.0849Y0.986
X-3.0849Y0.8679
X-3.0849Y0.7498
X-3.0849Y0.6317
X-3.0849Y0.5136
X-3.0849Y0.3955
X-3.0849Y0.2774
X-3.0849Y0.1593
X-3.0849Y0.0412
X-3.0849Y-0.077
X-3.0849Y-0.1951
X-3.0849Y-0.3132
X-3.0849Y-1.0218
X-3.0849Y-1.14
X-2.9668Y1.5766
X-2.9668Y0.5136
X-2.9668Y0.3955
X-2.9668Y0.2774
X-2.9668Y0.1593
X-2.9668Y0.0412
X-2.9668Y-0.077
X-2.9668Y-0.1951
X-2.9668Y-1.0218
X-2.9668Y-1.14
X-2.9668Y-1.6124
X-2.8487Y1.2223
X-2.8487Y0.5136
X-2.8487Y0.3955
X-2.8487Y0.2774
X-2.8487Y0.1593
X-2.8487Y0.0412
X-2.8487Y-0.077
X-2.8487Y-0.1951
X-2.8487Y-1.0218
X-2.8487Y-1.14
X-2.7306Y1.3404
X-2.7306Y1.2223
X-2.7306Y0.5136
X-2.7306Y0.1593
X-2.7306Y0.0412
X-2.7306Y-0.077
X-2.7306Y-0.1951
X-2.7306Y-1.0218
X-2.7306Y-1.14
X-2.7306Y-1.2581
X-2.7306Y-1.3762
X-2.6125Y1.2223
X-2.6125Y1.1041
X-2.6125Y0.6317
X-2.6125Y0.5136
X-2.6125Y0.1593
X-2.6125Y0.0412
X-2.6125Y-0.077
X-2.6125Y-0.1951
X-2.6125Y-1.0218
X-2.6125Y-1.14
X-2.6125Y-1.2581
X-2.4944Y1.1041
X-2.4944Y0.5136
X-2.4944Y0.1593
X-2.4944Y0.0412
X-2.4944Y-0.077
X-2.4944Y-0.1951
X-2.4944Y-1.0218
X-2.4944Y-1.14
X-2.3763Y1.1041
X-2.3763Y0.3955
X-2.3763Y0.2774
X-2.3763Y0.1593
X-2.3763Y0.0412
X-2.3763Y-0.077
X-2.3763Y-0.1951
X-2.3763Y-1.0218
X-2.2582Y1.1041
X-2.2582Y0.2774
X-2.2582Y0.1593
X-2.2582Y0.0412
X-2.2582Y-0.077
X-2.2582Y-0.1951
X-2.2582Y-0.9037
X-2.2582Y-1.0218
X-2.2582Y-1.14
X-2.1401Y1.2223
X-2.1401Y1.1041
X-2.1401Y0.986
X-2.1401Y0.8679
X-2.1401Y-0.4313
X-2.1401Y-1.0218
X-2.1401Y-1.14
X-2.1401Y-1.2581
X-2.022Y1.3404
X-2.022Y0.986
X-2.022Y0.8679
X-2.022Y-1.3762
X-1.9038Y1.4585
X-1.9038Y1.3404
X-1.9038Y-0.077
X-1.9038Y-1.3762
X-1.9038Y-1.4943
X-1.7857Y1.5766
X-1.7857Y1.4585
X-1.7857Y1.3404
X-1.7857Y0.6317
X-1.7857Y-0.1951
X-1.7857Y-1.3762
X-1.7857Y-1.4943
X-1.7857Y-1.6124
X-1.6676Y1.6947
X-1.6676Y1.5766
X-1.6676Y1.4585
X-1.6676Y0.6317
X-1.6676Y0.5136
X-1.6676Y-0.5494
X-1.6676Y-1.4943
X-1.6676Y-1.6124
X-1.6676Y-1.7305
X-1.5495Y2.9939
X-1.5495Y1.8128
X-1.5495Y1.6947
X-1.5495Y1.5766
X-1.5495Y0.5136
X-1.5495Y0.3955
X-1.5495Y-0.4313
X-1.5495Y-1.6124
X-1.5495Y-1.7305
X-1.5495Y-1.8486
X-1.5495Y-2.9116
X-1.5495Y-3.0297
X-1.4314Y3.112
X-1.4314Y1.9309
X-1.4314Y1.8128
X-1.4314Y1.6947
X-1.4314Y0.7498
X-1.4314Y0.6317
X-1.4314Y0.3955
X-1.4314Y0.1593
X-1.4314Y-0.6675
X-1.4314Y-1.0218
X-1.4314Y-1.7305
X-1.4314Y-1.8486
X-1.4314Y-1.9667
X-1.4314Y-2.7935
X-1.3133Y3.112
X-1.3133Y2.7577
X-1.3133Y2.049
X-1.3133Y1.8128
X-1.3133Y1.2223
X-1.3133Y0.8679
X-1.3133Y0.7498
X-1.3133Y0.6317
X-1.3133Y0.5136
X-1.3133Y0.1593
X-1.3133Y0.0412
X-1.3133Y-0.6675
X-1.3133Y-0.7856
X-1.3133Y-0.9037
X-1.3133Y-1.0218
X-1.3133Y-2.0848
X-1.3133Y-2.6754
X-1.3133Y-2.7935
X-1.1952Y2.1671
X-1.1952Y1.3404
X-1.1952Y1.2223
X-1.1952Y1.1041
X-1.1952Y0.7498
X-1.1952Y0.6317
X-1.1952Y0.5136
X-1.1952Y0.3955
X-1.1952Y0.1593
X-1.1952Y0.0412
X-1.1952Y-0.077
X-1.1952Y-0.7856
X-1.1952Y-0.9037
X-1.1952Y-1.0218
X-1.1952Y-1.3762
X-1.1952Y-2.2029
X-1.1952Y-2.5573
X-1.1952Y-2.6754
X-1.0771Y3.2301
X-1.0771Y2.1671
X-1.0771Y1.2223
X-1.0771Y1.1041
X-1.0771Y0.986
X-1.0771Y0.6317
X-1.0771Y0.5136
X-1.0771Y0.3955
X-1.0771Y0.1593
X-1.0771Y0.0412
X-1.0771Y-0.077
X-1.0771Y-0.1951
X-1.0771Y-0.9037
X-1.0771Y-1.0218
X-1.0771Y-1.3762
X-1.0771Y-2.2029
X-1.0771Y-2.3211
X-1.0771Y-2.4392
X-1.0771Y-2.5573
X-1.0771Y-2.6754
X-0.959Y2.6396
X-0.959Y2.049
X-0.959Y1.5766
X-0.959Y1.4585
X-0.959Y1.1041
X-0.959Y0.986
X-0.959Y0.8679
X-0.959Y0.5136
X-0.959Y0.3955
X-0.959Y0.1593
X-0.959Y0.0412
X-0.959Y-0.077
X-0.959Y-0.1951
X-0.959Y-1.0218
X-0.959Y-1.3762
X-0.959Y-2.0848
X-0.959Y-2.2029
X-0.959Y-2.3211
X-0.959Y-2.4392
X-0.959Y-2.5573
X-0.959Y-2.6754
X-0.8409Y2.6396
X-0.8409Y2.5215
X-0.8409Y-1.0218
X-0.8409Y-1.6124
X-0.8409Y-2.0848
X-0.8409Y-2.2029
X-0.8409Y-2.3211
X-0.8409Y-2.4392
X-0.8409Y-2.5573
X-0.8409Y-2.6754
X-0.7227Y2.5215
X-0.7227Y2.4034
X-0.7227Y2.1671
X-0.7227Y2.049
X-0.7227Y1.6947
X-0.7227Y1.3404
X-0.7227Y1.2223
X-0.7227Y0.8679
X-0.7227Y0.7498
X-0.7227Y0.6317
X-0.7227Y-1.0218
X-0.7227Y-1.4943
X-0.7227Y-1.6124
X-0.7227Y-2.0848
X-0.7227Y-2.2029
X-0.7227Y-2.3211
X-0.7227Y-2.4392
X-0.7227Y-2.5573
X-0.7227Y-2.6754
X-0.6046Y2.1671
X-0.6046Y-2.2029
X-0.6046Y-2.3211
X-0.4865Y3.112
X-0.4865Y1.8128
X-0.4865Y1.4585
X-0.4865Y1.3404
X-0.4865Y1.2223
X-0.4865Y1.1041
X-0.4865Y0.6317
X-0.4865Y-1.3762
X-0.4865Y-2.2029
X-0.4865Y-2.3211
X-0.3684Y1.8128
X-0.3684Y1.4585
X-0.3684Y1.3404
X-0.3684Y1.2223
X-0.3684Y1.1041
X-0.3684Y-0.3132
X-0.3684Y-0.4313
X-0.3684Y-1.0218
X-0.3684Y-1.7305
X-0.3684Y-2.2029
X-0.3684Y-2.3211
X-0.3684Y-2.4392
X-0.2503Y-1.0218
X-0.2503Y-2.2029
X-0.2503Y-2.3211
X-0.2503Y-2.4392
X-0.2503Y-2.5573
X-0.2503Y-2.6754
X-0.1322Y-1.0218
X-0.1322Y-1.3762
X-0.1322Y-1.4943
X-0.1322Y-1.6124
X-0.1322Y-1.7305
X-0.1322Y-1.8486
X-0.1322Y-1.9667
X-0.1322Y-2.2029
X-0.1322Y-2.3211
X-0.1322Y-2.4392
X-0.1322Y-2.5573
X-0.1322Y-2.6754
X-0.0141Y0.5136
X-0.0141Y0.2774
X-0.0141Y-1.0218
X-0.0141Y-1.6124
X-0.0141Y-1.7305
X-0.0141Y-1.8486
X-0.0141Y-2.2029
X-0.0141Y-2.3211
X-0.0141Y-2.4392
X0.104Y2.5215
X0.104Y2.4034
X0.104Y-1.0218
X0.104Y-1.6124
X0.104Y-1.7305
X0.104Y-1.8486
X0.104Y-2.2029
X0.104Y-2.3211
X0.104Y-2.4392
X0.2221Y2.5215
X0.2221Y2.4034
X0.2221Y2.2852
X0.2221Y-1.0218
X0.2221Y-2.2029
X0.2221Y-2.3211
X0.2221Y-2.4392
X0.2221Y-2.5573
X0.2221Y-2.6754
X0.3402Y2.5215
X0.3402Y2.4034
X0.3402Y2.2852
X0.3402Y2.1671
X0.3402Y1.8128
X0.3402Y1.4585
X0.3402Y1.3404
X0.3402Y1.2223
X0.3402Y1.1041
X0.3402Y0.2774
X0.3402Y-0.3132
X0.3402Y-1.0218
X0.3402Y-1.4943
X0.3402Y-1.7305
X0.3402Y-2.2029
X0.3402Y-2.3211
X0.3402Y-2.4392
X0.3402Y-2.6754
X0.4584Y2.5215
X0.4584Y2.4034
X0.4584Y2.2852
X0.4584Y2.1671
X0.4584Y1.4585
X0.4584Y1.3404
X0.4584Y1.2223
X0.4584Y1.1041
X0.4584Y-1.0218
X0.4584Y-1.3762
X0.4584Y-1.8486
X0.4584Y-2.2029
X0.4584Y-2.3211
X0.5765Y3.3482
X0.5765Y2.5215
X0.5765Y2.4034
X0.5765Y2.2852
X0.5765Y2.1671
X0.5765Y-1.3762
X0.5765Y-2.2029
X0.5765Y-2.3211
X0.6946Y1.2223
X0.6946Y1.1041
X0.6946Y0.7498
X0.6946Y0.6317
X0.6946Y-2.0848
X0.6946Y-2.2029
X0.6946Y-2.3211
X0.6946Y-2.4392
X0.6946Y-2.5573
X0.6946Y-2.6754
X0.71Y-0.9019
X0.8127Y2.5215
X0.8127Y2.4034
X0.8127Y2.2852
X0.8127Y2.1671
X0.8127Y2.049
X0.8127Y0.8679
X0.8127Y0.7498
X0.8127Y0.3955
X0.8127Y-1.6124
X0.8127Y-1.7305
X0.8127Y-2.0848
X0.8127Y-2.2029
X0.8127Y-2.3211
X0.8127Y-2.4392
X0.8127Y-2.5573
X0.8127Y-2.6754
X0.8281Y-0.9019
X0.8319Y-0.7881
X0.9308Y3.2301
X0.9308Y3.112
X0.9308Y2.9939
X0.9308Y2.5215
X0.9308Y2.4034
X0.9308Y2.2852
X0.9308Y2.1671
X0.9308Y2.049
X0.9308Y1.5766
X0.9308Y1.4585
X0.9308Y0.986
X0.9308Y0.8679
X0.9308Y0.5136
X0.9308Y0.3955
X0.9308Y0.0412
X0.9308Y-0.077
X0.9308Y-0.1951
X0.9308Y-2.0848
X0.9308Y-2.2029
X0.9308Y-2.3211
X0.9308Y-2.4392
X0.9308Y-2.5573
X0.9308Y-2.6754
X0.95Y-0.67
X0.95Y-0.7881
X1.0489Y3.2301
X1.0489Y3.112
X1.0489Y2.9939
X1.0489Y2.8758
X1.0489Y2.5215
X1.0489Y2.4034
X1.0489Y2.2852
X1.0489Y2.1671
X1.0489Y1.4585
X1.0489Y0.6317
X1.0489Y0.5136
X1.0489Y0.3955
X1.0489Y-1.3762
X1.0489Y-2.0848
X1.0489Y-2.2029
X1.0489Y-2.3211
X1.0489Y-2.4392
X1.0489Y-2.5573
X1.0489Y-2.6754
X1.0531Y-0.6693
X1.1417Y0.1388
X1.167Y3.112
X1.167Y2.9939
X1.167Y2.8758
X1.167Y2.7577
X1.167Y2.6396
X1.167Y2.5215
X1.167Y2.1671
X1.167Y1.2223
X1.167Y0.7498
X1.167Y0.6317
X1.167Y0.5136
X1.167Y0.3955
X1.167Y-1.3762
X1.167Y-2.2029
X1.167Y-2.5573
X1.167Y-2.6754
X1.2795Y-1.0531
X1.2795Y-1.1713
X1.2851Y3.112
X1.2851Y2.7577
X1.2851Y2.6396
X1.2851Y1.3404
X1.2851Y1.2223
X1.2851Y0.6317
X1.2851Y0.5136
X1.2851Y-2.0848
X1.2851Y-2.6754
X1.2851Y-2.7935
X1.3976Y0.1388
X1.4Y-1.05
X1.4Y-1.1681
X1.4032Y3.112
X1.4032Y2.7577
X1.4032Y1.9309
X1.4032Y1.8128
X1.4032Y1.6947
X1.4032Y0.986
X1.4032Y-1.7305
X1.4032Y-1.8486
X1.4032Y-1.9667
X1.4032Y-2.7935
X1.5214Y2.9939
X1.5214Y2.8758
X1.5214Y1.8128
X1.5214Y1.6947
X1.5214Y1.5766
X1.5214Y1.1041
X1.5214Y0.3955
X1.5214Y0.0412
X1.5214Y-0.077
X1.5214Y-0.1951
X1.5214Y-1.6124
X1.5214Y-1.7305
X1.5214Y-1.8486
X1.5214Y-2.9116
X1.5214Y-3.0297
X1.6395Y1.6947
X1.6395Y1.5766
X1.6395Y1.4585
X1.6395Y0.0412
X1.6395Y-0.077
X1.6395Y-0.1951
X1.6395Y-1.4943
X1.6395Y-1.6124
X1.6395Y-1.7305
X1.7576Y1.5766
X1.7576Y1.4585
X1.7576Y1.3404
X1.7576Y0.2774
X1.7576Y0.0412
X1.7576Y-0.077
X1.7576Y-0.1951
X1.7576Y-1.3762
X1.7576Y-1.4943
X1.7576Y-1.6124
X1.8106Y-0.783
X1.8757Y1.4585
X1.8757Y1.3404
X1.8757Y0.0412
X1.8757Y-0.077
X1.8757Y-0.1951
X1.8757Y-1.3762
X1.8757Y-1.4943
X1.9938Y1.3404
X1.9938Y0.986
X1.9938Y0.8679
X1.9938Y-1.3762
X2.1119Y1.2223
X2.1119Y1.1041
X2.1119Y0.986
X2.1119Y0.8679
X2.1119Y-0.5494
X2.1119Y-1.2581
X2.23Y0.8679
X2.23Y0.7498
X2.23Y0.6317
X2.23Y0.3955
X2.23Y0.2774
X2.23Y0.0412
X2.23Y-0.077
X2.23Y-0.1951
X2.3481Y0.8679
X2.3481Y0.7498
X2.3481Y0.6317
X2.3481Y0.3955
X2.3481Y0.2774
X2.3481Y0.0412
X2.3481Y-0.077
X2.4662Y-0.077
X2.4662Y-0.5494
X2.4662Y-0.6675
X2.4662Y-0.7856
X2.4662Y-0.9037
X2.5843Y1.2223
X2.5843Y1.1041
X2.5843Y0.986
X2.5843Y0.8679
X2.5843Y0.5136
X2.5843Y0.3955
X2.5843Y0.2774
X2.5843Y-0.077
X2.5843Y-0.5494
X2.5843Y-0.7856
X2.5843Y-0.9037
X2.5843Y-1.0218
X2.5843Y-1.14
X2.7025Y1.3404
X2.7025Y1.2223
X2.7025Y1.1041
X2.7025Y0.986
X2.7025Y0.8679
X2.7025Y0.5136
X2.7025Y0.3955
X2.7025Y0.2774
X2.7025Y-0.077
X2.7025Y-0.7856
X2.7025Y-0.9037
X2.7025Y-1.0218
X2.7025Y-1.14
X2.7025Y-1.2581
X2.8206Y1.2223
X2.8206Y0.8679
X2.8206Y0.7498
X2.8206Y0.6317
X2.8206Y0.5136
X2.8206Y0.3955
X2.8206Y0.2774
X2.8206Y-0.077
X2.8206Y-1.2581
X2.9387Y1.5766
X2.9387Y0.8679
X2.9387Y0.7498
X2.9387Y0.6317
X2.9387Y0.5136
X2.9387Y0.3955
X2.9387Y0.2774
X2.9387Y-0.077
X2.9387Y-0.3132
X3.0568Y-0.077
X3.0568Y-0.3132
X3.0568Y-0.7856
X3.0568Y-0.9037
X3.1749Y1.2223
X3.1749Y1.1041
X3.1749Y0.986
X3.1749Y0.8679
X3.1749Y0.5136
X3.1749Y-0.7856
X3.1749Y-0.9037
X3.1749Y-1.0218
X3.1749Y-1.14
X3.1749Y-1.2581
X3.293Y0.8679
X3.293Y0.7498
X3.293Y0.6317
X3.293Y0.5136
X3.293Y-0.5494
X3.293Y-0.6675
X3.293Y-0.7856
X3.293Y-0.9037
X3.4111Y0.2774
X3.4111Y0.1593
X3.4111Y0.0412
X3.4111Y-0.077
X3.4111Y-0.1951
X3.4111Y-0.3132
T3
X0.7972Y3.3252
X0.7972Y3.2252
X0.7972Y3.1217
X0.7972Y3.0217
X0.7972Y2.915
X0.7972Y2.815
X0.7972Y2.7083
X0.7972Y2.6083
X3.2382Y0.4248
X3.2382Y0.3248
X3.2382Y0.1689
X3.2382Y0.0689
X3.2382Y-0.087
X3.2382Y-0.187
X3.2382Y-0.3413
X3.2382Y-0.4413
T4
X-1.1417Y3.0512
X-1.1417Y2.9528
X-1.1417Y2.8543
T5
X-0.8868Y3.1004
X-0.8868Y3.002
X-0.8868Y2.9035
X-0.8868Y2.8051
T6
X-2.9695Y1.0028
X-2.9695Y-0.3728
X-2.8695Y1.0028
X-2.8695Y-0.3728
X-2.7695Y1.0028
X-2.7695Y-0.3728
X-2.6695Y1.0028
X-2.6695Y-0.3728
X-2.5695Y1.0028
X-2.5695Y-0.3728
X-2.4695Y1.0028
X-2.4695Y-0.3728
X-2.3695Y1.0028
X-2.3695Y-0.3728
X-2.2695Y1.0028
X-2.2695Y-0.3728
X2.1457Y0.6693
X2.1457Y-0.6693
X2.5787Y0.6693
X2.5787Y-0.6693
X2.7362Y0.6693
X2.7362Y-0.6693
X3.1693Y0.6693
X3.1693Y-0.6693
T7
X-0.65Y3.2626
X-0.65Y3.1626
X-0.65Y3.0626
X-0.65Y2.9626
X-0.65Y2.8626
X-0.65Y2.7626
X-0.65Y2.6626
X-0.55Y3.2626
X-0.55Y2.6626
X-0.45Y3.2626
X-0.45Y2.6626
X-0.35Y3.2626
X-0.35Y2.6626
X-0.25Y3.2626
X-0.25Y2.6626
X-0.15Y3.2626
X-0.15Y2.6626
X-0.05Y3.2626
X-0.05Y2.6626
X0.05Y3.2626
X0.05Y2.6626
X0.15Y3.2626
X0.15Y2.6626
X0.25Y3.2626
X0.25Y2.6626
X0.35Y3.2626
X0.35Y2.6626
X0.45Y3.2626
X0.45Y2.6626
X0.55Y3.2626
X0.55Y2.6626
X0.65Y3.2626
X0.65Y2.6626
T8
X-3.1299Y-0.8169
X-2.8346Y-0.8169
X-2.4611Y-0.8169
X-2.1659Y-0.8169
T9
X2.2638Y1.063
X2.2638Y-1.063
X2.4606Y1.063
X2.4606Y-1.063
X2.8543Y1.063
X2.8543Y-1.063
X3.0512Y1.063
X3.0512Y-1.063
T10
X0.0Y-1.3944
X0.0Y-2.5755
T11
X-2.9654Y1.3726
X-2.9654Y-1.3726
X-1.9443Y1.1648
X-1.9443Y-1.1648
X-1.5748Y0.8858
X-1.5748Y-0.8858
X-1.3726Y2.9654
X-1.2965Y-2.9995
X-1.1648Y1.9443
X-1.1648Y-1.9443
X-0.4921Y-1.5912
X-0.4921Y-2.5755
X-0.3937Y1.6506
X-0.3937Y0.8612
X-0.1575Y0.3937
X-0.1575Y-0.3937
X0.1575Y0.3937
X0.1575Y-0.3937
X0.3937Y1.6506
X0.3937Y0.8612
X0.4921Y-1.5912
X0.4921Y-2.5755
X1.1648Y1.9443
X1.1648Y-1.9443
X1.2965Y-2.9995
X1.3726Y2.9654
X1.5748Y0.8858
X1.5748Y-0.8858
X1.9443Y1.1648
X1.9443Y-1.1648
X2.9654Y1.3726
X2.9654Y-1.3726
M30
