%TF.GenerationSoftware,KiCad,Pcbnew,9.0.6*%
%TF.CreationDate,2026-01-30T16:25:10+08:00*%
%TF.ProjectId,layer1,6c617965-7231-42e6-9b69-6361645f7063,rev?*%
%TF.SameCoordinates,Original*%
%TF.FileFunction,Legend,Top*%
%TF.FilePolarity,Positive*%
%FSLAX46Y46*%
G04 Gerber Fmt 4.6, Leading zero omitted, Abs format (unit mm)*
G04 Created by KiCad (PCBNEW 9.0.6) date 2026-01-30 16:25:10*
%MOMM*%
%LPD*%
G01*
G04 APERTURE LIST*
G04 Aperture macros list*
%AMRoundRect*
0 Rectangle with rounded corners*
0 $1 Rounding radius*
0 $2 $3 $4 $5 $6 $7 $8 $9 X,Y pos of 4 corners*
0 Add a 4 corners polygon primitive as box body*
4,1,4,$2,$3,$4,$5,$6,$7,$8,$9,$2,$3,0*
0 Add four circle primitives for the rounded corners*
1,1,$1+$1,$2,$3*
1,1,$1+$1,$4,$5*
1,1,$1+$1,$6,$7*
1,1,$1+$1,$8,$9*
0 Add four rect primitives between the rounded corners*
20,1,$1+$1,$2,$3,$4,$5,0*
20,1,$1+$1,$4,$5,$6,$7,0*
20,1,$1+$1,$6,$7,$8,$9,0*
20,1,$1+$1,$8,$9,$2,$3,0*%
G04 Aperture macros list end*
%ADD10C,0.300000*%
%ADD11C,0.400000*%
%ADD12C,0.100000*%
%ADD13C,0.127000*%
%ADD14C,0.120000*%
%ADD15C,0.200000*%
%ADD16C,0.150000*%
%ADD17C,3.600000*%
%ADD18C,5.600000*%
%ADD19C,2.600000*%
%ADD20C,3.800000*%
%ADD21C,2.754000*%
%ADD22RoundRect,0.102000X-1.275000X-1.275000X1.275000X-1.275000X1.275000X1.275000X-1.275000X1.275000X0*%
%ADD23C,1.712000*%
%ADD24RoundRect,0.250001X-0.949999X-0.949999X0.949999X-0.949999X0.949999X0.949999X-0.949999X0.949999X0*%
%ADD25C,2.400000*%
%ADD26R,1.700000X1.700000*%
%ADD27C,1.700000*%
%ADD28C,1.400000*%
%ADD29C,1.200000*%
%ADD30RoundRect,0.250000X0.725000X-0.600000X0.725000X0.600000X-0.725000X0.600000X-0.725000X-0.600000X0*%
%ADD31O,1.950000X1.700000*%
%ADD32C,1.734000*%
%ADD33RoundRect,0.102000X1.275000X1.275000X-1.275000X1.275000X-1.275000X-1.275000X1.275000X-1.275000X0*%
G04 APERTURE END LIST*
D10*
G36*
X59904866Y-12816553D02*
G01*
X59904866Y-12062969D01*
X60202965Y-12062969D01*
X59904866Y-12816553D01*
G37*
G36*
X61767057Y-13636709D02*
G01*
X58148921Y-13636709D01*
X58148921Y-13386399D01*
X58371143Y-13386399D01*
X58661670Y-13386399D01*
X58862437Y-11871690D01*
X59063328Y-13386399D01*
X59381820Y-13386399D01*
X59137895Y-11775373D01*
X59443736Y-11775373D01*
X59443736Y-12062969D01*
X59589182Y-12062969D01*
X59589182Y-12816553D01*
X59589182Y-13386399D01*
X59931489Y-13386399D01*
X60129507Y-12918063D01*
X60619277Y-12918063D01*
X60627778Y-13038294D01*
X60651450Y-13137330D01*
X60688399Y-13218915D01*
X60737979Y-13286015D01*
X60801128Y-13340328D01*
X60877548Y-13380173D01*
X60969982Y-13405447D01*
X61082117Y-13414487D01*
X61194252Y-13405447D01*
X61286686Y-13380173D01*
X61363105Y-13340328D01*
X61426255Y-13286015D01*
X61475779Y-13218923D01*
X61512691Y-13137341D01*
X61536341Y-13038302D01*
X61544835Y-12918063D01*
X61544835Y-12723890D01*
X61246126Y-12723890D01*
X61246126Y-12937602D01*
X61234525Y-13026806D01*
X61204697Y-13082460D01*
X61158566Y-13114964D01*
X61090543Y-13126769D01*
X61021626Y-13114149D01*
X60974528Y-13079019D01*
X60946798Y-13020015D01*
X60934961Y-12906828D01*
X60942166Y-12815789D01*
X60963775Y-12727145D01*
X61000296Y-12639870D01*
X61083544Y-12509578D01*
X61235990Y-12330415D01*
X61347143Y-12203625D01*
X61425652Y-12093497D01*
X61477424Y-11997634D01*
X61513658Y-11895253D01*
X61536676Y-11775863D01*
X61544835Y-11636521D01*
X61544835Y-11420000D01*
X60647242Y-11420000D01*
X60647242Y-11707595D01*
X61232082Y-11707595D01*
X61232082Y-11745697D01*
X61220276Y-11845284D01*
X61184943Y-11938527D01*
X61123084Y-12032422D01*
X61000906Y-12173855D01*
X60865379Y-12327186D01*
X60769185Y-12456960D01*
X60705006Y-12566598D01*
X60656915Y-12683272D01*
X60628644Y-12799992D01*
X60619277Y-12918063D01*
X60129507Y-12918063D01*
X60492393Y-12059794D01*
X60492393Y-11775373D01*
X59904866Y-11775373D01*
X59904866Y-11420000D01*
X59589182Y-11420000D01*
X59589182Y-11775373D01*
X59443736Y-11775373D01*
X59137895Y-11775373D01*
X59084088Y-11420000D01*
X58668753Y-11420000D01*
X58371143Y-13386399D01*
X58148921Y-13386399D01*
X58148921Y-11197778D01*
X61767057Y-11197778D01*
X61767057Y-13636709D01*
G37*
G36*
X23441300Y73209968D02*
G01*
X21596988Y73209968D01*
X21596988Y73748953D01*
X21763655Y73748953D01*
X21770031Y73658780D01*
X21787785Y73584503D01*
X21815497Y73523314D01*
X21852681Y73472989D01*
X21900043Y73432254D01*
X21957358Y73402371D01*
X22026684Y73383415D01*
X22110785Y73376635D01*
X22194886Y73383415D01*
X22264211Y73402371D01*
X22321526Y73432254D01*
X22368889Y73472989D01*
X22406031Y73523308D01*
X22433715Y73584494D01*
X22451453Y73658773D01*
X22457823Y73748953D01*
X22457823Y73894583D01*
X22233792Y73894583D01*
X22233792Y73734298D01*
X22225091Y73667395D01*
X22202720Y73625655D01*
X22168122Y73601277D01*
X22117105Y73592424D01*
X22065417Y73601889D01*
X22030093Y73628236D01*
X22009296Y73672489D01*
X22000418Y73757379D01*
X22005822Y73825659D01*
X22022028Y73892141D01*
X22049419Y73957597D01*
X22111855Y74055317D01*
X22226190Y74189689D01*
X22309554Y74284781D01*
X22368436Y74367377D01*
X22407265Y74439275D01*
X22434441Y74516060D01*
X22434629Y74517036D01*
X22580464Y74517036D01*
X22586946Y74425562D01*
X22605503Y74345277D01*
X22635327Y74274411D01*
X22677109Y74209317D01*
X22741846Y74133402D01*
X22835362Y74044700D01*
X22936886Y73947171D01*
X22991067Y73877730D01*
X23023147Y73806187D01*
X23033748Y73730085D01*
X23025338Y73665091D01*
X23003735Y73624596D01*
X22970382Y73600987D01*
X22921274Y73592424D01*
X22871395Y73601360D01*
X22837377Y73626129D01*
X22816909Y73666306D01*
X22808709Y73734298D01*
X22808709Y73812700D01*
X22584677Y73812700D01*
X22584677Y73748953D01*
X22590855Y73658607D01*
X22608032Y73584287D01*
X22634769Y73523194D01*
X22670498Y73473081D01*
X22716365Y73432323D01*
X22772272Y73402428D01*
X22840324Y73383440D01*
X22923381Y73376635D01*
X23007482Y73383415D01*
X23076807Y73402371D01*
X23134122Y73432254D01*
X23181484Y73472989D01*
X23218789Y73523346D01*
X23246461Y73583960D01*
X23264106Y73656888D01*
X23270419Y73744740D01*
X23263859Y73829089D01*
X23244762Y73905663D01*
X23213450Y73975824D01*
X23170697Y74040453D01*
X23105821Y74116021D01*
X23013415Y74204435D01*
X22912226Y74302342D01*
X22858809Y74372596D01*
X22827866Y74446550D01*
X22817135Y74533797D01*
X22825654Y74603543D01*
X22846811Y74644072D01*
X22881938Y74668790D01*
X22933822Y74677778D01*
X22984996Y74668993D01*
X23019585Y74644874D01*
X23041865Y74603740D01*
X23050509Y74538010D01*
X23050509Y74434329D01*
X23274633Y74434329D01*
X23274633Y74521249D01*
X23268395Y74611471D01*
X23251041Y74685756D01*
X23223998Y74746896D01*
X23187804Y74797121D01*
X23141393Y74837788D01*
X23084792Y74867666D01*
X23015861Y74886663D01*
X22931716Y74893475D01*
X22846551Y74886620D01*
X22776378Y74867460D01*
X22718390Y74837263D01*
X22670498Y74796114D01*
X22632891Y74745214D01*
X22604866Y74683333D01*
X22586912Y74608219D01*
X22580464Y74517036D01*
X22434629Y74517036D01*
X22451704Y74605603D01*
X22457823Y74710110D01*
X22457823Y74872500D01*
X21784629Y74872500D01*
X21784629Y74656804D01*
X22223259Y74656804D01*
X22223259Y74628227D01*
X22214404Y74553537D01*
X22187905Y74483605D01*
X22141511Y74413184D01*
X22049877Y74307109D01*
X21948232Y74192111D01*
X21876086Y74094780D01*
X21827952Y74012552D01*
X21791883Y73925046D01*
X21770680Y73837506D01*
X21763655Y73748953D01*
X21596988Y73748953D01*
X21596988Y75060142D01*
X23441300Y75060142D01*
X23441300Y73209968D01*
G37*
G36*
X24453202Y66918924D02*
G01*
X24487800Y66894547D01*
X24510171Y66852806D01*
X24518872Y66785903D01*
X24518872Y65984298D01*
X24510171Y65917395D01*
X24487800Y65875655D01*
X24453202Y65851277D01*
X24402185Y65842424D01*
X24351168Y65851277D01*
X24316570Y65875655D01*
X24294198Y65917395D01*
X24285498Y65984298D01*
X24285498Y66785903D01*
X24294198Y66852806D01*
X24316570Y66894547D01*
X24351168Y66918924D01*
X24402185Y66927778D01*
X24453202Y66918924D01*
G37*
G36*
X25292909Y66918924D02*
G01*
X25327507Y66894547D01*
X25349878Y66852806D01*
X25358579Y66785903D01*
X25358579Y65984298D01*
X25349878Y65917395D01*
X25327507Y65875655D01*
X25292909Y65851277D01*
X25241892Y65842424D01*
X25190875Y65851277D01*
X25156277Y65875655D01*
X25133905Y65917395D01*
X25125205Y65984298D01*
X25125205Y66785903D01*
X25133905Y66852806D01*
X25156277Y66894547D01*
X25190875Y66918924D01*
X25241892Y66927778D01*
X25292909Y66918924D01*
G37*
G36*
X28901750Y65459968D02*
G01*
X21639094Y65459968D01*
X21639094Y66771249D01*
X21805761Y66771249D01*
X21805761Y66439689D01*
X21814242Y66331456D01*
X21837061Y66249499D01*
X21871615Y66187997D01*
X21921189Y66140406D01*
X21984126Y66111354D01*
X22064689Y66100985D01*
X22130261Y66108133D01*
X22184094Y66128340D01*
X22228766Y66161147D01*
X22265141Y66207217D01*
X22246681Y65863398D01*
X21843588Y65863398D01*
X21843588Y65647701D01*
X22457798Y65647701D01*
X22773512Y65647701D01*
X22933705Y65647701D01*
X22965178Y65716581D01*
X22996720Y65760816D01*
X23036912Y65793111D01*
X23091150Y65815771D01*
X23155612Y65827642D01*
X23251526Y65832349D01*
X23251526Y66001884D01*
X23010184Y66001884D01*
X23010184Y66277207D01*
X23465117Y66277207D01*
X23932597Y66277207D01*
X23932597Y66492904D01*
X23465117Y66492904D01*
X23465117Y66277207D01*
X23010184Y66277207D01*
X23010184Y66771249D01*
X24048735Y66771249D01*
X24048735Y65998953D01*
X24055194Y65910119D01*
X24073256Y65836369D01*
X24101603Y65775052D01*
X24139868Y65724088D01*
X24188286Y65682859D01*
X24246665Y65652631D01*
X24317051Y65633477D01*
X24402185Y65626635D01*
X24487266Y65633475D01*
X24557641Y65652624D01*
X24616040Y65682852D01*
X24664502Y65724088D01*
X24702725Y65775046D01*
X24731044Y65836360D01*
X24749089Y65910112D01*
X24755543Y65998953D01*
X24755543Y66771249D01*
X24888442Y66771249D01*
X24888442Y65998953D01*
X24894901Y65910119D01*
X24912963Y65836369D01*
X24941310Y65775052D01*
X24979575Y65724088D01*
X25027993Y65682859D01*
X25086372Y65652631D01*
X25156758Y65633477D01*
X25241892Y65626635D01*
X25326973Y65633475D01*
X25397347Y65652624D01*
X25455747Y65682852D01*
X25504209Y65724088D01*
X25542432Y65775046D01*
X25570751Y65836360D01*
X25588796Y65910112D01*
X25595250Y65998953D01*
X25595250Y66771249D01*
X25588799Y66860036D01*
X25570758Y66933776D01*
X25542439Y66995111D01*
X25504209Y67046114D01*
X25455753Y67087307D01*
X25397356Y67117507D01*
X25378991Y67122500D01*
X26015562Y67122500D01*
X26283099Y66368340D01*
X26028109Y65647701D01*
X26252599Y65647701D01*
X26412059Y66121960D01*
X26567398Y65647701D01*
X26816983Y65647701D01*
X26562085Y66368340D01*
X26705017Y66771249D01*
X26920848Y66771249D01*
X26920848Y65647701D01*
X27149184Y65647701D01*
X27149184Y66788010D01*
X27157657Y66855748D01*
X27178768Y66895171D01*
X27213526Y66919124D01*
X27263765Y66927778D01*
X27313940Y66919131D01*
X27348761Y66895171D01*
X27369872Y66855748D01*
X27378345Y66788010D01*
X27378345Y65647701D01*
X27615016Y65647701D01*
X27772278Y65647701D01*
X28107227Y65647701D01*
X28253680Y66695797D01*
X28400043Y65647701D01*
X28735083Y65647701D01*
X28735083Y67122500D01*
X28527721Y67122500D01*
X28527721Y66018810D01*
X28361117Y67122500D01*
X28162914Y67122500D01*
X27996402Y66019413D01*
X27996402Y67122500D01*
X27772278Y67122500D01*
X27772278Y65647701D01*
X27615016Y65647701D01*
X27615016Y66771249D01*
X27608647Y66861378D01*
X27590912Y66935628D01*
X27563228Y66996801D01*
X27526081Y67047121D01*
X27478719Y67087856D01*
X27421404Y67117739D01*
X27352079Y67136695D01*
X27267978Y67143475D01*
X27183877Y67136695D01*
X27114551Y67117739D01*
X27057236Y67087856D01*
X27009874Y67047121D01*
X26972686Y66996795D01*
X26944974Y66935619D01*
X26927223Y66861371D01*
X26920848Y66771249D01*
X26705017Y66771249D01*
X26829623Y67122500D01*
X26605133Y67122500D01*
X26433080Y66610553D01*
X26265239Y67122500D01*
X26015562Y67122500D01*
X25378991Y67122500D01*
X25326980Y67136641D01*
X25241892Y67143475D01*
X25156752Y67136638D01*
X25086364Y67117500D01*
X25027987Y67087300D01*
X24979575Y67046114D01*
X24941303Y66995105D01*
X24912956Y66933768D01*
X24894899Y66860030D01*
X24889508Y66785903D01*
X24888442Y66771249D01*
X24755543Y66771249D01*
X24749092Y66860036D01*
X24731051Y66933776D01*
X24702732Y66995111D01*
X24664502Y67046114D01*
X24616046Y67087307D01*
X24557649Y67117507D01*
X24487273Y67136641D01*
X24402185Y67143475D01*
X24317045Y67136638D01*
X24246657Y67117500D01*
X24188280Y67087300D01*
X24139868Y67046114D01*
X24101596Y66995105D01*
X24073249Y66933768D01*
X24055192Y66860030D01*
X24049801Y66785903D01*
X24048735Y66771249D01*
X23010184Y66771249D01*
X23010184Y67122500D01*
X22773512Y67122500D01*
X22773512Y65647701D01*
X22457798Y65647701D01*
X22500113Y66474036D01*
X22275807Y66474036D01*
X22275807Y66458557D01*
X22267110Y66391644D01*
X22244751Y66349905D01*
X22210180Y66325533D01*
X22159211Y66316682D01*
X22108194Y66325536D01*
X22073596Y66349913D01*
X22051225Y66391654D01*
X22042524Y66458557D01*
X22042524Y66788010D01*
X22051169Y66853740D01*
X22073449Y66894874D01*
X22108037Y66918993D01*
X22159211Y66927778D01*
X22210337Y66918996D01*
X22244899Y66894883D01*
X22267166Y66853749D01*
X22275807Y66788010D01*
X22275807Y66652822D01*
X22499930Y66652822D01*
X22499930Y66771249D01*
X22493560Y66861378D01*
X22475825Y66935628D01*
X22448141Y66996801D01*
X22410995Y67047121D01*
X22363633Y67087856D01*
X22306318Y67117739D01*
X22236993Y67136695D01*
X22152891Y67143475D01*
X22068790Y67136695D01*
X21999465Y67117739D01*
X21942150Y67087856D01*
X21894788Y67047121D01*
X21857600Y66996795D01*
X21829888Y66935619D01*
X21812136Y66861371D01*
X21805761Y66771249D01*
X21639094Y66771249D01*
X21639094Y67310142D01*
X28901750Y67310142D01*
X28901750Y65459968D01*
G37*
G36*
X23074232Y83863398D02*
G01*
X22972291Y83863398D01*
X22919052Y83872781D01*
X22885279Y83898111D01*
X22865704Y83939518D01*
X22857710Y84011501D01*
X22857710Y84124891D01*
X22862266Y84179162D01*
X22874107Y84216867D01*
X22891507Y84242402D01*
X22931589Y84267710D01*
X22993265Y84277207D01*
X23074232Y84277207D01*
X23074232Y83863398D01*
G37*
G36*
X23477661Y83481034D02*
G01*
X21548811Y83481034D01*
X21548811Y85122500D01*
X21715478Y85122500D01*
X21983016Y84368340D01*
X21728026Y83647701D01*
X21952516Y83647701D01*
X22111976Y84121960D01*
X22267314Y83647701D01*
X22516900Y83647701D01*
X22262002Y84368340D01*
X22529539Y85122500D01*
X22592096Y85122500D01*
X22607223Y85081028D01*
X22614719Y85042541D01*
X22618841Y84941150D01*
X22618841Y84683047D01*
X22623350Y84596040D01*
X22635573Y84527413D01*
X22653920Y84473853D01*
X22682779Y84427201D01*
X22721597Y84393133D01*
X22771982Y84370304D01*
X22719996Y84341000D01*
X22679218Y84299782D01*
X22648516Y84244835D01*
X22628380Y84172709D01*
X22624598Y84124891D01*
X22620947Y84078729D01*
X22620947Y83988420D01*
X22627050Y83900932D01*
X22643803Y83831052D01*
X22669555Y83775454D01*
X22703654Y83731507D01*
X22747160Y83697184D01*
X22803262Y83671084D01*
X22874943Y83653974D01*
X22965971Y83647701D01*
X23310994Y83647701D01*
X23310994Y85122500D01*
X23074232Y85122500D01*
X23074232Y84492904D01*
X22997478Y84492904D01*
X22946751Y84498024D01*
X22911442Y84511483D01*
X22887386Y84531830D01*
X22871449Y84559966D01*
X22860093Y84604116D01*
X22855604Y84670499D01*
X22855604Y84939135D01*
X22851391Y85052891D01*
X22833805Y85122500D01*
X22592096Y85122500D01*
X22529539Y85122500D01*
X22305050Y85122500D01*
X22132996Y84610554D01*
X21965155Y85122500D01*
X21715478Y85122500D01*
X21548811Y85122500D01*
X21548811Y85289167D01*
X23477661Y85289167D01*
X23477661Y83481034D01*
G37*
G36*
X-21388983Y81959968D02*
G01*
X-23133369Y81959968D01*
X-23133369Y82498953D01*
X-22966702Y82498953D01*
X-22960325Y82408780D01*
X-22942572Y82334503D01*
X-22914860Y82273314D01*
X-22877675Y82222989D01*
X-22830313Y82182254D01*
X-22772998Y82152371D01*
X-22703673Y82133415D01*
X-22619571Y82126635D01*
X-22535470Y82133415D01*
X-22466145Y82152371D01*
X-22408830Y82182254D01*
X-22361468Y82222989D01*
X-22324325Y82273308D01*
X-22296641Y82334494D01*
X-22278904Y82408773D01*
X-22272533Y82498953D01*
X-22272533Y82644583D01*
X-22496565Y82644583D01*
X-22496565Y82484298D01*
X-22505265Y82417395D01*
X-22527637Y82375655D01*
X-22562234Y82351277D01*
X-22613252Y82342424D01*
X-22664939Y82351889D01*
X-22700263Y82378236D01*
X-22721060Y82422489D01*
X-22729939Y82507379D01*
X-22724534Y82575659D01*
X-22708328Y82642141D01*
X-22680937Y82707597D01*
X-22618501Y82805317D01*
X-22504167Y82939689D01*
X-22420802Y83034781D01*
X-22361920Y83117377D01*
X-22323091Y83189275D01*
X-22295915Y83266060D01*
X-22278652Y83355603D01*
X-22275654Y83406804D01*
X-22172241Y83406804D01*
X-21792412Y83406804D01*
X-21792412Y82147701D01*
X-21555650Y82147701D01*
X-21555650Y83622500D01*
X-22172241Y83622500D01*
X-22172241Y83406804D01*
X-22275654Y83406804D01*
X-22272533Y83460110D01*
X-22272533Y83622500D01*
X-22945727Y83622500D01*
X-22945727Y83406804D01*
X-22507098Y83406804D01*
X-22507098Y83378227D01*
X-22515952Y83303537D01*
X-22542452Y83233605D01*
X-22588846Y83163184D01*
X-22680479Y83057109D01*
X-22782124Y82942111D01*
X-22854270Y82844780D01*
X-22902405Y82762552D01*
X-22938473Y82675046D01*
X-22959676Y82587506D01*
X-22966702Y82498953D01*
X-23133369Y82498953D01*
X-23133369Y83789167D01*
X-21388983Y83789167D01*
X-21388983Y81959968D01*
G37*
G36*
X86080187Y8006090D02*
G01*
X83613290Y8006090D01*
X83613290Y8691152D01*
X83835512Y8691152D01*
X83844409Y8581975D01*
X83869341Y8491571D01*
X83908757Y8416436D01*
X83962641Y8353975D01*
X84029029Y8305000D01*
X84109696Y8268507D01*
X84207565Y8245132D01*
X84326318Y8236739D01*
X84433785Y8236739D01*
X84433785Y8535570D01*
X84301161Y8535570D01*
X84217046Y8546397D01*
X84164714Y8574175D01*
X84134261Y8616984D01*
X84123230Y8679917D01*
X84135138Y8742026D01*
X84169637Y8788972D01*
X84224614Y8818318D01*
X84315205Y8829882D01*
X84457843Y8829882D01*
X84530290Y8823807D01*
X84580598Y8808015D01*
X84614647Y8784820D01*
X84648392Y8731378D01*
X84661053Y8649143D01*
X84661053Y8533372D01*
X84948649Y8533372D01*
X84948649Y8640716D01*
X84955820Y8708008D01*
X84975054Y8756788D01*
X85004825Y8791781D01*
X85045229Y8815452D01*
X85105784Y8831913D01*
X85193747Y8838309D01*
X85353237Y8838309D01*
X85463940Y8826538D01*
X85522620Y8798741D01*
X85557759Y8751559D01*
X85570369Y8682726D01*
X85558565Y8614703D01*
X85526061Y8568573D01*
X85470407Y8538744D01*
X85381203Y8527143D01*
X85203761Y8527143D01*
X85203761Y8228312D01*
X85367159Y8228312D01*
X85485980Y8236707D01*
X85583888Y8260085D01*
X85664572Y8296578D01*
X85730959Y8345549D01*
X85784423Y8407950D01*
X85823830Y8484238D01*
X85848947Y8577338D01*
X85857965Y8691152D01*
X85849024Y8805067D01*
X85824139Y8898173D01*
X85785137Y8974380D01*
X85732302Y9036634D01*
X85666616Y9085553D01*
X85586457Y9122044D01*
X85488835Y9145453D01*
X85369968Y9153871D01*
X85196556Y9153871D01*
X85092433Y9147206D01*
X85007003Y9128735D01*
X84937048Y9100137D01*
X84876211Y9057707D01*
X84827751Y9000885D01*
X84790868Y8927213D01*
X84790746Y8927213D01*
X84756242Y8995623D01*
X84710181Y9049820D01*
X84651650Y9091711D01*
X84584326Y9120089D01*
X84499586Y9138661D01*
X84393485Y9145444D01*
X84323510Y9145444D01*
X84204679Y9137121D01*
X84107078Y9113983D01*
X84026947Y9077937D01*
X83961297Y9029673D01*
X83908213Y8968011D01*
X83869197Y8893044D01*
X83844397Y8801998D01*
X83835512Y8691152D01*
X83613290Y8691152D01*
X83613290Y10008721D01*
X83863600Y10008721D01*
X85378304Y9807953D01*
X83863600Y9607063D01*
X83863600Y9288570D01*
X85830000Y9586303D01*
X85830000Y10001637D01*
X83863600Y10299247D01*
X83863600Y10008721D01*
X83613290Y10008721D01*
X83613290Y10879568D01*
X83835512Y10879568D01*
X83844409Y10770391D01*
X83869341Y10679986D01*
X83908757Y10604851D01*
X83962641Y10542391D01*
X84029029Y10493416D01*
X84109696Y10456923D01*
X84207565Y10433548D01*
X84326318Y10425155D01*
X84433785Y10425155D01*
X84433785Y10723986D01*
X84301161Y10723986D01*
X84217046Y10734813D01*
X84164714Y10762591D01*
X84134261Y10805400D01*
X84123230Y10868333D01*
X84135138Y10930442D01*
X84169637Y10977388D01*
X84224614Y11006734D01*
X84315205Y11018298D01*
X84457843Y11018298D01*
X84530290Y11012222D01*
X84580598Y10996431D01*
X84614647Y10973236D01*
X84648392Y10919794D01*
X84661053Y10837559D01*
X84661053Y10721788D01*
X84948649Y10721788D01*
X84948649Y10829132D01*
X84955820Y10896424D01*
X84975054Y10945204D01*
X85004825Y10980196D01*
X85045229Y11003867D01*
X85105784Y11020329D01*
X85193747Y11026725D01*
X85353237Y11026725D01*
X85463940Y11014954D01*
X85522620Y10987157D01*
X85557759Y10939975D01*
X85570369Y10871142D01*
X85558565Y10803119D01*
X85526061Y10756989D01*
X85470407Y10727160D01*
X85381203Y10715559D01*
X85203761Y10715559D01*
X85203761Y10416728D01*
X85367159Y10416728D01*
X85485980Y10425123D01*
X85583888Y10448501D01*
X85664572Y10484994D01*
X85730959Y10533965D01*
X85784423Y10596366D01*
X85823830Y10672654D01*
X85848947Y10765754D01*
X85857965Y10879568D01*
X85849024Y10993483D01*
X85824139Y11086589D01*
X85785137Y11162796D01*
X85732302Y11225050D01*
X85666616Y11273969D01*
X85586457Y11310460D01*
X85488835Y11333869D01*
X85369968Y11342286D01*
X85196556Y11342286D01*
X85092433Y11335622D01*
X85007003Y11317151D01*
X84937048Y11288553D01*
X84876211Y11246123D01*
X84827751Y11189301D01*
X84790868Y11115629D01*
X84790746Y11115629D01*
X84756242Y11184039D01*
X84710181Y11238235D01*
X84651650Y11280127D01*
X84584326Y11308504D01*
X84499586Y11327077D01*
X84393485Y11333860D01*
X84323510Y11333860D01*
X84204679Y11325537D01*
X84107078Y11302399D01*
X84026947Y11266353D01*
X83961297Y11218089D01*
X83908213Y11156427D01*
X83869197Y11081460D01*
X83844397Y10990414D01*
X83835512Y10879568D01*
X83613290Y10879568D01*
X83613290Y11564508D01*
X86080187Y11564508D01*
X86080187Y8006090D01*
G37*
G36*
X76774507Y11169813D02*
G01*
X73216089Y11169813D01*
X73216089Y12046239D01*
X73438311Y12046239D01*
X73438311Y11882841D01*
X73446706Y11764020D01*
X73470084Y11666112D01*
X73506577Y11585428D01*
X73555548Y11519041D01*
X73617949Y11465577D01*
X73694237Y11426170D01*
X73787337Y11401053D01*
X73901151Y11392035D01*
X74015066Y11400976D01*
X74108172Y11425861D01*
X74184379Y11464863D01*
X74246633Y11517698D01*
X74295552Y11583384D01*
X74332043Y11663543D01*
X74355452Y11761165D01*
X74363870Y11880032D01*
X74363870Y12053444D01*
X74357205Y12157567D01*
X74338734Y12242997D01*
X74310136Y12312952D01*
X74267706Y12373789D01*
X74210884Y12422249D01*
X74137212Y12459132D01*
X74137212Y12459254D01*
X74205622Y12493758D01*
X74259819Y12539819D01*
X74301710Y12598350D01*
X74330088Y12665674D01*
X74348660Y12750414D01*
X74355443Y12856515D01*
X74355443Y12926490D01*
X74347120Y13045321D01*
X74323982Y13142922D01*
X74287936Y13223053D01*
X74239672Y13288703D01*
X74178010Y13341787D01*
X74103043Y13380803D01*
X74082495Y13386400D01*
X74498569Y13386400D01*
X74796302Y11420000D01*
X75211636Y11420000D01*
X75306416Y12046239D01*
X75626727Y12046239D01*
X75626727Y11882841D01*
X75635122Y11764020D01*
X75658500Y11666112D01*
X75694993Y11585428D01*
X75743964Y11519041D01*
X75806365Y11465577D01*
X75882653Y11426170D01*
X75975753Y11401053D01*
X76089567Y11392035D01*
X76203482Y11400976D01*
X76296588Y11425861D01*
X76372795Y11464863D01*
X76435049Y11517698D01*
X76483968Y11583384D01*
X76520459Y11663543D01*
X76543868Y11761165D01*
X76552285Y11880032D01*
X76552285Y12053444D01*
X76545621Y12157567D01*
X76527150Y12242997D01*
X76498552Y12312952D01*
X76456122Y12373789D01*
X76399300Y12422249D01*
X76325628Y12459132D01*
X76325628Y12459254D01*
X76394038Y12493758D01*
X76448234Y12539819D01*
X76490126Y12598350D01*
X76518503Y12665674D01*
X76537076Y12750414D01*
X76543859Y12856515D01*
X76543859Y12926490D01*
X76535536Y13045321D01*
X76512398Y13142922D01*
X76476352Y13223053D01*
X76428088Y13288703D01*
X76366426Y13341787D01*
X76291459Y13380803D01*
X76200413Y13405603D01*
X76089567Y13414488D01*
X75980390Y13405591D01*
X75889985Y13380659D01*
X75814850Y13341243D01*
X75752390Y13287359D01*
X75703415Y13220971D01*
X75666922Y13140304D01*
X75643547Y13042435D01*
X75635154Y12923682D01*
X75635154Y12816215D01*
X75933985Y12816215D01*
X75933985Y12948839D01*
X75944812Y13032954D01*
X75972590Y13085286D01*
X76015399Y13115739D01*
X76078332Y13126770D01*
X76140441Y13114862D01*
X76187387Y13080363D01*
X76216733Y13025386D01*
X76228297Y12934795D01*
X76228297Y12792157D01*
X76222221Y12719710D01*
X76206430Y12669402D01*
X76183235Y12635353D01*
X76129793Y12601608D01*
X76047558Y12588947D01*
X75931787Y12588947D01*
X75931787Y12301351D01*
X76039131Y12301351D01*
X76106423Y12294180D01*
X76155203Y12274946D01*
X76190195Y12245175D01*
X76213866Y12204771D01*
X76230328Y12144216D01*
X76236724Y12056253D01*
X76236724Y11896763D01*
X76224953Y11786060D01*
X76197156Y11727380D01*
X76149974Y11692241D01*
X76081141Y11679631D01*
X76013118Y11691435D01*
X75966988Y11723939D01*
X75937159Y11779593D01*
X75925558Y11868797D01*
X75925558Y12046239D01*
X75626727Y12046239D01*
X75306416Y12046239D01*
X75509246Y13386400D01*
X75218720Y13386400D01*
X75017951Y11871696D01*
X74817062Y13386400D01*
X74498569Y13386400D01*
X74082495Y13386400D01*
X74011997Y13405603D01*
X73901151Y13414488D01*
X73791974Y13405591D01*
X73701570Y13380659D01*
X73626435Y13341243D01*
X73563974Y13287359D01*
X73514999Y13220971D01*
X73478506Y13140304D01*
X73455131Y13042435D01*
X73446738Y12923682D01*
X73446738Y12816215D01*
X73745569Y12816215D01*
X73745569Y12948839D01*
X73756396Y13032954D01*
X73784174Y13085286D01*
X73826983Y13115739D01*
X73889916Y13126770D01*
X73952025Y13114862D01*
X73998971Y13080363D01*
X74028317Y13025386D01*
X74039881Y12934795D01*
X74039881Y12792157D01*
X74033806Y12719710D01*
X74018014Y12669402D01*
X73994819Y12635353D01*
X73941377Y12601608D01*
X73859142Y12588947D01*
X73743371Y12588947D01*
X73743371Y12301351D01*
X73850715Y12301351D01*
X73918007Y12294180D01*
X73966787Y12274946D01*
X74001780Y12245175D01*
X74025451Y12204771D01*
X74041912Y12144216D01*
X74048308Y12056253D01*
X74048308Y11896763D01*
X74036537Y11786060D01*
X74008740Y11727380D01*
X73961558Y11692241D01*
X73892725Y11679631D01*
X73824702Y11691435D01*
X73778572Y11723939D01*
X73748743Y11779593D01*
X73737142Y11868797D01*
X73737142Y12046239D01*
X73438311Y12046239D01*
X73216089Y12046239D01*
X73216089Y13636710D01*
X76774507Y13636710D01*
X76774507Y11169813D01*
G37*
G36*
X61291273Y11169813D02*
G01*
X58789694Y11169813D01*
X58789694Y12284620D01*
X59011916Y12284620D01*
X59310991Y12284620D01*
X59310991Y12305259D01*
X59322587Y12394475D01*
X59352399Y12450128D01*
X59398493Y12482624D01*
X59466452Y12494425D01*
X59534475Y12482620D01*
X59580605Y12450117D01*
X59610434Y12394463D01*
X59622035Y12305259D01*
X59622035Y11865988D01*
X59610509Y11778348D01*
X59580802Y11723502D01*
X59534684Y11691344D01*
X59466452Y11679631D01*
X59398285Y11691339D01*
X59352202Y11723491D01*
X59322512Y11778335D01*
X59310991Y11865988D01*
X59310991Y12046239D01*
X59012160Y12046239D01*
X59012160Y11888336D01*
X59020653Y11768164D01*
X59044300Y11669164D01*
X59081212Y11587600D01*
X59130740Y11520506D01*
X59193890Y11466193D01*
X59270310Y11426349D01*
X59362743Y11401074D01*
X59474878Y11392035D01*
X59587013Y11401074D01*
X59679447Y11426349D01*
X59755867Y11466193D01*
X59819017Y11520506D01*
X59868601Y11587608D01*
X59905550Y11669176D01*
X59929218Y11768173D01*
X59937719Y11888336D01*
X59937719Y12330416D01*
X59926411Y12474726D01*
X59895985Y12584003D01*
X59849913Y12666005D01*
X59783815Y12729460D01*
X59699899Y12768195D01*
X59592481Y12782021D01*
X59505052Y12772490D01*
X59433275Y12745548D01*
X59373712Y12701805D01*
X59325210Y12640378D01*
X59349826Y13098804D01*
X59887282Y13098804D01*
X59887282Y13386400D01*
X60058374Y13386400D01*
X60356107Y11420000D01*
X60771441Y11420000D01*
X61069051Y13386400D01*
X60778525Y13386400D01*
X60577756Y11871696D01*
X60376867Y13386400D01*
X60058374Y13386400D01*
X59887282Y13386400D01*
X59068336Y13386400D01*
X59011916Y12284620D01*
X58789694Y12284620D01*
X58789694Y13608622D01*
X61291273Y13608622D01*
X61291273Y11169813D01*
G37*
G36*
X-9232746Y1704599D02*
G01*
X-8755007Y1704599D01*
X-8452757Y-574370D01*
X-8454589Y-574370D01*
X-8152521Y1704599D01*
X-7716731Y1704599D01*
X-8163146Y-1245000D01*
X-8786148Y-1245000D01*
X-9232746Y1704599D01*
G37*
G36*
X-7506987Y1704599D02*
G01*
X-6236070Y1704599D01*
X-6236070Y1273205D01*
X-7033462Y1273205D01*
X-7033462Y508420D01*
X-6399835Y508420D01*
X-6399835Y77026D01*
X-7033462Y77026D01*
X-7033462Y-813606D01*
X-6236070Y-813606D01*
X-6236070Y-1245000D01*
X-7506987Y-1245000D01*
X-7506987Y1704599D01*
G37*
G36*
X-5982912Y1704599D02*
G01*
X-5393249Y1704599D01*
X-4944086Y-53949D01*
X-4946101Y-53949D01*
X-4946101Y1704599D01*
X-4523134Y1704599D01*
X-4523134Y-1245000D01*
X-5007834Y-1245000D01*
X-5561776Y899697D01*
X-5559761Y899697D01*
X-5559761Y-1245000D01*
X-5982912Y-1245000D01*
X-5982912Y1704599D01*
G37*
G36*
X-3831072Y1273205D02*
G01*
X-4313756Y1273205D01*
X-4313756Y1704599D01*
X-2875044Y1704599D01*
X-2875044Y1273205D01*
X-3357729Y1273205D01*
X-3357729Y-1245000D01*
X-3831072Y-1245000D01*
X-3831072Y1273205D01*
G37*
G36*
X-1993938Y1704599D02*
G01*
X-723020Y1704599D01*
X-723020Y1273205D01*
X-1520412Y1273205D01*
X-1520412Y508420D01*
X-886785Y508420D01*
X-886785Y77026D01*
X-1520412Y77026D01*
X-1520412Y-813606D01*
X-723020Y-813606D01*
X-723020Y-1245000D01*
X-1993938Y-1245000D01*
X-1993938Y1704599D01*
G37*
G36*
X-54222Y263322D02*
G01*
X-564018Y1704599D01*
X-64847Y1704599D01*
X245830Y756082D01*
X564750Y1704599D01*
X1013730Y1704599D01*
X503751Y263322D01*
X1038826Y-1245000D01*
X539471Y-1245000D01*
X203698Y-220828D01*
X203881Y-220828D01*
X-140318Y-1245000D01*
X-589297Y-1245000D01*
X-54222Y263322D01*
G37*
G36*
X1241791Y1704599D02*
G01*
X1715317Y1704599D01*
X1715317Y508420D01*
X2198735Y508420D01*
X2198735Y1704599D01*
X2672261Y1704599D01*
X2672261Y-1245000D01*
X2198735Y-1245000D01*
X2198735Y77026D01*
X1715317Y77026D01*
X1715317Y-1245000D01*
X1241791Y-1245000D01*
X1241791Y1704599D01*
G37*
G36*
X4476788Y-1245000D02*
G01*
X4002896Y-1245000D01*
X3926037Y-669991D01*
X3404623Y-669991D01*
X3320725Y-1245000D01*
X2880539Y-1245000D01*
X3041079Y-259480D01*
X3460860Y-259480D01*
X3862761Y-259480D01*
X3659804Y1174350D01*
X3460860Y-259480D01*
X3041079Y-259480D01*
X3361025Y1704599D01*
X3996301Y1704599D01*
X4476788Y-1245000D01*
G37*
G36*
X5354230Y-1286948D02*
G01*
X5186028Y-1273389D01*
X5047377Y-1235477D01*
X4932747Y-1175711D01*
X4838023Y-1094241D01*
X4763730Y-993601D01*
X4708363Y-871254D01*
X4672892Y-722754D01*
X4660153Y-542496D01*
X4660153Y1704599D01*
X5133496Y1704599D01*
X5133496Y-576018D01*
X5150441Y-711494D01*
X5192664Y-790341D01*
X5262306Y-838261D01*
X5362657Y-855554D01*
X5463134Y-838247D01*
X5532650Y-790341D01*
X5574872Y-711494D01*
X5591818Y-576018D01*
X5591818Y1704599D01*
X6048491Y1704599D01*
X6048491Y-542496D01*
X6035740Y-722741D01*
X6000237Y-871237D01*
X5944814Y-993588D01*
X5870438Y-1094241D01*
X5775713Y-1175711D01*
X5661083Y-1235477D01*
X5522433Y-1273389D01*
X5354230Y-1286948D01*
G37*
G36*
X6971179Y-1286948D02*
G01*
X6802888Y-1273324D01*
X6665027Y-1235330D01*
X6551824Y-1175575D01*
X6459002Y-1094241D01*
X6386615Y-993790D01*
X6332529Y-871511D01*
X6297821Y-722940D01*
X6285345Y-542496D01*
X6285345Y-368656D01*
X6733592Y-368656D01*
X6733592Y-576018D01*
X6750881Y-707478D01*
X6795441Y-789747D01*
X6864618Y-837985D01*
X6966966Y-855554D01*
X7070735Y-837579D01*
X7140989Y-788143D01*
X7183302Y-707085D01*
X7200340Y-567592D01*
X7178879Y-393099D01*
X7116992Y-245191D01*
X7010158Y-104683D01*
X6807781Y91131D01*
X6622968Y267959D01*
X6493216Y419095D01*
X6407711Y548354D01*
X6345087Y688675D01*
X6306892Y841823D01*
X6293771Y1010522D01*
X6306398Y1186226D01*
X6341689Y1332082D01*
X6397032Y1453309D01*
X6471641Y1554024D01*
X6566366Y1635494D01*
X6680996Y1695260D01*
X6819646Y1733172D01*
X6987849Y1746731D01*
X7153963Y1733121D01*
X7290066Y1695145D01*
X7401880Y1635356D01*
X7493614Y1553840D01*
X7565073Y1453613D01*
X7618546Y1331428D01*
X7652900Y1182788D01*
X7665256Y1002096D01*
X7665256Y874601D01*
X7217193Y874601D01*
X7217193Y1031405D01*
X7200792Y1167390D01*
X7159857Y1247743D01*
X7091821Y1297281D01*
X6992062Y1315154D01*
X6893845Y1298027D01*
X6827140Y1250810D01*
X6783935Y1169820D01*
X6767114Y1039831D01*
X6788317Y887627D01*
X6852477Y744542D01*
X6960839Y605660D01*
X7163887Y410601D01*
X7350917Y233198D01*
X7480392Y81368D01*
X7563956Y-48820D01*
X7623604Y-190553D01*
X7660719Y-351122D01*
X7673682Y-534070D01*
X7660786Y-716437D01*
X7624878Y-866664D01*
X7568827Y-990427D01*
X7493614Y-1092226D01*
X7397830Y-1174524D01*
X7281854Y-1234918D01*
X7141508Y-1273239D01*
X6971179Y-1286948D01*
G37*
G36*
X8288259Y1273205D02*
G01*
X7805574Y1273205D01*
X7805574Y1704599D01*
X9244286Y1704599D01*
X9244286Y1273205D01*
X8761601Y1273205D01*
X8761601Y-1245000D01*
X8288259Y-1245000D01*
X8288259Y1273205D01*
G37*
G36*
X23441300Y70709968D02*
G01*
X21609627Y70709968D01*
X21609627Y72027477D01*
X21776294Y72027477D01*
X21776294Y71897418D01*
X21781292Y71819326D01*
X21795146Y71755253D01*
X21816594Y71702787D01*
X21848417Y71657159D01*
X21891033Y71620814D01*
X21946287Y71593152D01*
X21946287Y71593061D01*
X21894980Y71567182D01*
X21854333Y71532637D01*
X21822914Y71488738D01*
X21801631Y71438246D01*
X21787701Y71374691D01*
X21782614Y71295115D01*
X21782614Y71242633D01*
X21788856Y71153510D01*
X21806210Y71080309D01*
X21833244Y71020211D01*
X21869442Y70970974D01*
X21915689Y70931161D01*
X21971914Y70901898D01*
X22040199Y70883299D01*
X22123333Y70876635D01*
X22205216Y70883308D01*
X22273019Y70902007D01*
X22329371Y70931569D01*
X22376216Y70971981D01*
X22412947Y71021772D01*
X22440317Y71082273D01*
X22457848Y71155675D01*
X22464143Y71244740D01*
X22464143Y71325340D01*
X22240020Y71325340D01*
X22240020Y71225872D01*
X22231900Y71162786D01*
X22211066Y71123536D01*
X22178959Y71100697D01*
X22131759Y71092424D01*
X22085178Y71101354D01*
X22049968Y71127228D01*
X22027959Y71168462D01*
X22019285Y71236405D01*
X22019285Y71343383D01*
X22023842Y71397718D01*
X22035686Y71435449D01*
X22053083Y71460986D01*
X22093164Y71486295D01*
X22154840Y71495791D01*
X22241669Y71495791D01*
X22241669Y71711488D01*
X22161160Y71711488D01*
X22110691Y71716866D01*
X22074106Y71731291D01*
X22047862Y71753620D01*
X22030109Y71783922D01*
X22017762Y71829339D01*
X22012966Y71895311D01*
X22012966Y72014929D01*
X22021793Y72097956D01*
X22042641Y72141966D01*
X22078028Y72168320D01*
X22129653Y72177778D01*
X22180670Y72168924D01*
X22215268Y72144547D01*
X22237639Y72102806D01*
X22246340Y72035903D01*
X22246340Y71902822D01*
X22470463Y71902822D01*
X22470463Y72017036D01*
X22580464Y72017036D01*
X22586946Y71925562D01*
X22605503Y71845277D01*
X22635327Y71774411D01*
X22677109Y71709317D01*
X22741846Y71633402D01*
X22835362Y71544700D01*
X22936886Y71447171D01*
X22991067Y71377730D01*
X23023147Y71306187D01*
X23033748Y71230085D01*
X23025338Y71165091D01*
X23003735Y71124596D01*
X22970382Y71100987D01*
X22921274Y71092424D01*
X22871395Y71101360D01*
X22837377Y71126129D01*
X22816909Y71166306D01*
X22808709Y71234298D01*
X22808709Y71312700D01*
X22584677Y71312700D01*
X22584677Y71248953D01*
X22590855Y71158607D01*
X22608032Y71084287D01*
X22634769Y71023194D01*
X22670498Y70973081D01*
X22716365Y70932323D01*
X22772272Y70902428D01*
X22840324Y70883440D01*
X22923381Y70876635D01*
X23007482Y70883415D01*
X23076807Y70902371D01*
X23134122Y70932254D01*
X23181484Y70972989D01*
X23218789Y71023346D01*
X23246461Y71083960D01*
X23264106Y71156888D01*
X23270419Y71244740D01*
X23263859Y71329089D01*
X23244762Y71405663D01*
X23213450Y71475824D01*
X23170697Y71540453D01*
X23105821Y71616021D01*
X23013415Y71704435D01*
X22912226Y71802342D01*
X22858809Y71872596D01*
X22827866Y71946550D01*
X22817135Y72033797D01*
X22825654Y72103543D01*
X22846811Y72144072D01*
X22881938Y72168790D01*
X22933822Y72177778D01*
X22984996Y72168993D01*
X23019585Y72144874D01*
X23041865Y72103740D01*
X23050509Y72038010D01*
X23050509Y71934329D01*
X23274633Y71934329D01*
X23274633Y72021249D01*
X23268395Y72111471D01*
X23251041Y72185756D01*
X23223998Y72246896D01*
X23187804Y72297121D01*
X23141393Y72337788D01*
X23084792Y72367666D01*
X23015861Y72386663D01*
X22931716Y72393475D01*
X22846551Y72386620D01*
X22776378Y72367460D01*
X22718390Y72337263D01*
X22670498Y72296114D01*
X22632891Y72245214D01*
X22604866Y72183333D01*
X22586912Y72108219D01*
X22580464Y72017036D01*
X22470463Y72017036D01*
X22470463Y72025370D01*
X22464167Y72114486D01*
X22446634Y72187917D01*
X22419263Y72248430D01*
X22382536Y72298220D01*
X22335735Y72338318D01*
X22278519Y72367874D01*
X22208694Y72386711D01*
X22123333Y72393475D01*
X22037897Y72386769D01*
X21968068Y72368105D01*
X21910912Y72338854D01*
X21864222Y72299228D01*
X21827533Y72249963D01*
X21800164Y72189844D01*
X21782608Y72116627D01*
X21776294Y72027477D01*
X21609627Y72027477D01*
X21609627Y72560142D01*
X23441300Y72560142D01*
X23441300Y70709968D01*
G37*
G36*
X24317039Y69418993D02*
G01*
X24351627Y69394874D01*
X24373908Y69353740D01*
X24382552Y69288010D01*
X24382552Y69027800D01*
X24373851Y68960897D01*
X24351480Y68919156D01*
X24316882Y68894779D01*
X24265865Y68885925D01*
X24214848Y68894779D01*
X24180250Y68919156D01*
X24157879Y68960897D01*
X24149178Y69027800D01*
X24149178Y69288010D01*
X24157823Y69353740D01*
X24180103Y69394874D01*
X24214691Y69418993D01*
X24265865Y69427778D01*
X24317039Y69418993D01*
G37*
G36*
X28771750Y67959968D02*
G01*
X21637139Y67959968D01*
X21637139Y68147701D01*
X21803806Y68147701D01*
X21963998Y68147701D01*
X21995471Y68216581D01*
X22027013Y68260816D01*
X22067205Y68293111D01*
X22121443Y68315771D01*
X22185905Y68327642D01*
X22281819Y68332349D01*
X22281819Y68501884D01*
X22040477Y68501884D01*
X22040477Y69277477D01*
X22526001Y69277477D01*
X22526001Y69147418D01*
X22530999Y69069326D01*
X22544853Y69005253D01*
X22566301Y68952787D01*
X22598123Y68907159D01*
X22640740Y68870814D01*
X22695994Y68843152D01*
X22695994Y68843061D01*
X22644687Y68817182D01*
X22604039Y68782637D01*
X22572621Y68738738D01*
X22551338Y68688246D01*
X22537408Y68624691D01*
X22532321Y68545115D01*
X22532321Y68492633D01*
X22538563Y68403510D01*
X22555917Y68330309D01*
X22582951Y68270211D01*
X22619149Y68220974D01*
X22665396Y68181161D01*
X22721621Y68151898D01*
X22789906Y68133299D01*
X22873040Y68126635D01*
X22954923Y68133308D01*
X23022726Y68152007D01*
X23079077Y68181569D01*
X23125923Y68221981D01*
X23162654Y68271772D01*
X23190024Y68332273D01*
X23207555Y68405675D01*
X23213850Y68494740D01*
X23213850Y68575340D01*
X22989727Y68575340D01*
X22989727Y68475872D01*
X22981606Y68412786D01*
X22960773Y68373536D01*
X22928666Y68350697D01*
X22881466Y68342424D01*
X22834885Y68351354D01*
X22799675Y68377228D01*
X22777665Y68418462D01*
X22768992Y68486405D01*
X22768992Y68593383D01*
X22773549Y68647718D01*
X22785393Y68685449D01*
X22802789Y68710986D01*
X22842871Y68736295D01*
X22904547Y68745791D01*
X22991375Y68745791D01*
X22991375Y68777207D01*
X23335117Y68777207D01*
X23802597Y68777207D01*
X23802597Y68992904D01*
X23335117Y68992904D01*
X23335117Y68777207D01*
X22991375Y68777207D01*
X22991375Y68961488D01*
X22910867Y68961488D01*
X22860398Y68966866D01*
X22823813Y68981291D01*
X22797569Y69003620D01*
X22779815Y69033922D01*
X22767469Y69079339D01*
X22762672Y69145311D01*
X22762672Y69264929D01*
X22771500Y69347956D01*
X22792348Y69391966D01*
X22827735Y69418320D01*
X22879359Y69427778D01*
X22930377Y69418924D01*
X22964975Y69394547D01*
X22987346Y69352806D01*
X22996047Y69285903D01*
X22996047Y69152822D01*
X23220170Y69152822D01*
X23220170Y69271249D01*
X23912507Y69271249D01*
X23912507Y69008932D01*
X23920977Y68900691D01*
X23943766Y68818734D01*
X23978269Y68757240D01*
X24027846Y68709654D01*
X24090810Y68680600D01*
X24171435Y68670228D01*
X24243422Y68678782D01*
X24300710Y68702784D01*
X24346729Y68741814D01*
X24382552Y68797329D01*
X24382552Y68519927D01*
X24378200Y68453435D01*
X24367214Y68409333D01*
X24351869Y68381350D01*
X24328708Y68360360D01*
X24298043Y68347211D01*
X24257439Y68342424D01*
X24206422Y68351277D01*
X24171824Y68375655D01*
X24149452Y68417395D01*
X24140752Y68484298D01*
X24140752Y68529178D01*
X23916628Y68529178D01*
X23916628Y68498953D01*
X23923005Y68408780D01*
X23940758Y68334503D01*
X23968470Y68273314D01*
X24005655Y68222989D01*
X24053017Y68182254D01*
X24110332Y68152371D01*
X24179657Y68133415D01*
X24263758Y68126635D01*
X24362615Y68135336D01*
X24402914Y68147701D01*
X24888593Y68147701D01*
X25048786Y68147701D01*
X25080258Y68216581D01*
X25111800Y68260816D01*
X25151993Y68293111D01*
X25206231Y68315771D01*
X25270692Y68327642D01*
X25366607Y68332349D01*
X25366607Y68501884D01*
X25125264Y68501884D01*
X25125264Y69622500D01*
X25885562Y69622500D01*
X26153099Y68868340D01*
X25898109Y68147701D01*
X26122599Y68147701D01*
X26282059Y68621960D01*
X26437398Y68147701D01*
X26686983Y68147701D01*
X26432085Y68868340D01*
X26575017Y69271249D01*
X26790848Y69271249D01*
X26790848Y68147701D01*
X27019184Y68147701D01*
X27019184Y69288010D01*
X27027657Y69355748D01*
X27048768Y69395171D01*
X27083526Y69419124D01*
X27133765Y69427778D01*
X27183940Y69419131D01*
X27218761Y69395171D01*
X27239872Y69355748D01*
X27248345Y69288010D01*
X27248345Y68147701D01*
X27485016Y68147701D01*
X27642278Y68147701D01*
X27977227Y68147701D01*
X28123680Y69195797D01*
X28270043Y68147701D01*
X28605083Y68147701D01*
X28605083Y69622500D01*
X28397721Y69622500D01*
X28397721Y68518810D01*
X28231117Y69622500D01*
X28032914Y69622500D01*
X27866402Y68519413D01*
X27866402Y69622500D01*
X27642278Y69622500D01*
X27642278Y68147701D01*
X27485016Y68147701D01*
X27485016Y69271249D01*
X27478647Y69361378D01*
X27460912Y69435628D01*
X27433228Y69496801D01*
X27396081Y69547121D01*
X27348719Y69587856D01*
X27291404Y69617739D01*
X27222079Y69636695D01*
X27137978Y69643475D01*
X27053877Y69636695D01*
X26984551Y69617739D01*
X26927236Y69587856D01*
X26879874Y69547121D01*
X26842686Y69496795D01*
X26814974Y69435619D01*
X26797223Y69361371D01*
X26790848Y69271249D01*
X26575017Y69271249D01*
X26699623Y69622500D01*
X26475133Y69622500D01*
X26303080Y69110553D01*
X26135239Y69622500D01*
X25885562Y69622500D01*
X25125264Y69622500D01*
X24888593Y69622500D01*
X24888593Y68147701D01*
X24402914Y68147701D01*
X24440678Y68159288D01*
X24502335Y68196663D01*
X24550624Y68247630D01*
X24586876Y68314324D01*
X24610535Y68400568D01*
X24619223Y68511501D01*
X24619223Y69271249D01*
X24612772Y69360036D01*
X24594731Y69433776D01*
X24566412Y69495111D01*
X24528182Y69546114D01*
X24479770Y69587300D01*
X24421393Y69617500D01*
X24351005Y69636638D01*
X24265865Y69643475D01*
X24180725Y69636638D01*
X24110337Y69617500D01*
X24051960Y69587300D01*
X24003548Y69546114D01*
X23965318Y69495111D01*
X23936999Y69433776D01*
X23918958Y69360036D01*
X23913725Y69288010D01*
X23912507Y69271249D01*
X23220170Y69271249D01*
X23220170Y69275370D01*
X23213874Y69364486D01*
X23196341Y69437917D01*
X23168970Y69498430D01*
X23132242Y69548220D01*
X23085442Y69588318D01*
X23028226Y69617874D01*
X22958400Y69636711D01*
X22873040Y69643475D01*
X22787604Y69636769D01*
X22717774Y69618105D01*
X22660619Y69588854D01*
X22613929Y69549228D01*
X22577240Y69499963D01*
X22549871Y69439844D01*
X22532315Y69366627D01*
X22526001Y69277477D01*
X22040477Y69277477D01*
X22040477Y69622500D01*
X21803806Y69622500D01*
X21803806Y68147701D01*
X21637139Y68147701D01*
X21637139Y69810142D01*
X28771750Y69810142D01*
X28771750Y67959968D01*
G37*
G36*
X23456412Y80981034D02*
G01*
X21548811Y80981034D01*
X21548811Y82622500D01*
X21715478Y82622500D01*
X21983015Y81868340D01*
X21728026Y81147701D01*
X21952515Y81147701D01*
X22111975Y81621960D01*
X22267314Y81147701D01*
X22516900Y81147701D01*
X22440606Y81363398D01*
X22570389Y81363398D01*
X22570389Y81147701D01*
X23289745Y81147701D01*
X23289745Y81363398D01*
X23048402Y81363398D01*
X23048402Y82622500D01*
X22811731Y82622500D01*
X22811731Y81363398D01*
X22570389Y81363398D01*
X22440606Y81363398D01*
X22262002Y81868340D01*
X22529539Y82622500D01*
X22305049Y82622500D01*
X22132996Y82110553D01*
X21965155Y82622500D01*
X21715478Y82622500D01*
X21548811Y82622500D01*
X21548811Y82789167D01*
X23456412Y82789167D01*
X23456412Y80981034D01*
G37*
G36*
X86080187Y1829695D02*
G01*
X83641378Y1829695D01*
X83641378Y2927283D01*
X83863600Y2927283D01*
X83863600Y2108337D01*
X84965380Y2051917D01*
X84965380Y2350992D01*
X84944741Y2350992D01*
X84855525Y2362588D01*
X84799872Y2392400D01*
X84767376Y2438494D01*
X84755575Y2506453D01*
X84767380Y2574476D01*
X84799883Y2620606D01*
X84855537Y2650435D01*
X84944741Y2662036D01*
X85384012Y2662036D01*
X85471652Y2650510D01*
X85526498Y2620803D01*
X85558656Y2574685D01*
X85570369Y2506453D01*
X85558661Y2438286D01*
X85526509Y2392203D01*
X85471665Y2362513D01*
X85384012Y2350992D01*
X85203761Y2350992D01*
X85203761Y2052161D01*
X85361664Y2052161D01*
X85481836Y2060654D01*
X85580836Y2084301D01*
X85662400Y2121213D01*
X85729494Y2170741D01*
X85783807Y2233891D01*
X85823651Y2310311D01*
X85848926Y2402744D01*
X85857965Y2514879D01*
X85848926Y2627014D01*
X85823651Y2719448D01*
X85783807Y2795868D01*
X85729494Y2859018D01*
X85662392Y2908602D01*
X85580824Y2945551D01*
X85481827Y2969219D01*
X85361664Y2977720D01*
X84919584Y2977720D01*
X84775274Y2966412D01*
X84665997Y2935986D01*
X84583995Y2889914D01*
X84520540Y2823816D01*
X84481805Y2739900D01*
X84467979Y2632482D01*
X84477510Y2545053D01*
X84504452Y2473276D01*
X84548195Y2413713D01*
X84609622Y2365212D01*
X84151196Y2389827D01*
X84151196Y2927283D01*
X83863600Y2927283D01*
X83641378Y2927283D01*
X83641378Y3818526D01*
X83863600Y3818526D01*
X85378304Y3617758D01*
X83863600Y3416868D01*
X83863600Y3098375D01*
X85830000Y3396108D01*
X85830000Y3811442D01*
X83863600Y4109052D01*
X83863600Y3818526D01*
X83641378Y3818526D01*
X83641378Y4331274D01*
X86080187Y4331274D01*
X86080187Y1829695D01*
G37*
G36*
X22168122Y79918924D02*
G01*
X22202720Y79894547D01*
X22225091Y79852806D01*
X22233792Y79785903D01*
X22233792Y78984298D01*
X22225091Y78917395D01*
X22202720Y78875655D01*
X22168122Y78851277D01*
X22117105Y78842424D01*
X22066088Y78851277D01*
X22031490Y78875655D01*
X22009118Y78917395D01*
X22000418Y78984298D01*
X22000418Y79785903D01*
X22009118Y79852806D01*
X22031490Y79894547D01*
X22066088Y79918924D01*
X22117105Y79927778D01*
X22168122Y79918924D01*
G37*
G36*
X23441300Y78459968D02*
G01*
X21596988Y78459968D01*
X21596988Y79771249D01*
X21763655Y79771249D01*
X21763655Y78998953D01*
X21770114Y78910119D01*
X21788176Y78836369D01*
X21816523Y78775052D01*
X21854788Y78724088D01*
X21903206Y78682859D01*
X21961585Y78652631D01*
X22031971Y78633477D01*
X22117105Y78626635D01*
X22202186Y78633475D01*
X22272560Y78652624D01*
X22330960Y78682852D01*
X22379422Y78724088D01*
X22417645Y78775046D01*
X22445964Y78836360D01*
X22464009Y78910112D01*
X22470463Y78998953D01*
X22470463Y79767036D01*
X22580464Y79767036D01*
X22586946Y79675562D01*
X22605503Y79595277D01*
X22635327Y79524411D01*
X22677109Y79459317D01*
X22741846Y79383402D01*
X22835362Y79294700D01*
X22936886Y79197171D01*
X22991067Y79127730D01*
X23023147Y79056187D01*
X23033748Y78980085D01*
X23025338Y78915091D01*
X23003735Y78874596D01*
X22970382Y78850987D01*
X22921274Y78842424D01*
X22871395Y78851360D01*
X22837377Y78876129D01*
X22816909Y78916306D01*
X22808709Y78984298D01*
X22808709Y79062700D01*
X22584677Y79062700D01*
X22584677Y78998953D01*
X22590855Y78908607D01*
X22608032Y78834287D01*
X22634769Y78773194D01*
X22670498Y78723081D01*
X22716365Y78682323D01*
X22772272Y78652428D01*
X22840324Y78633440D01*
X22923381Y78626635D01*
X23007482Y78633415D01*
X23076807Y78652371D01*
X23134122Y78682254D01*
X23181484Y78722989D01*
X23218789Y78773346D01*
X23246461Y78833960D01*
X23264106Y78906888D01*
X23270419Y78994740D01*
X23263859Y79079089D01*
X23244762Y79155663D01*
X23213450Y79225824D01*
X23170697Y79290453D01*
X23105821Y79366021D01*
X23013415Y79454435D01*
X22912226Y79552342D01*
X22858809Y79622596D01*
X22827866Y79696550D01*
X22817135Y79783797D01*
X22825654Y79853543D01*
X22846811Y79894072D01*
X22881938Y79918790D01*
X22933822Y79927778D01*
X22984996Y79918993D01*
X23019585Y79894874D01*
X23041865Y79853740D01*
X23050509Y79788010D01*
X23050509Y79684329D01*
X23274633Y79684329D01*
X23274633Y79771249D01*
X23268395Y79861471D01*
X23251041Y79935756D01*
X23223998Y79996896D01*
X23187804Y80047121D01*
X23141393Y80087788D01*
X23084792Y80117666D01*
X23015861Y80136663D01*
X22931716Y80143475D01*
X22846551Y80136620D01*
X22776378Y80117460D01*
X22718390Y80087263D01*
X22670498Y80046114D01*
X22632891Y79995214D01*
X22604866Y79933333D01*
X22586912Y79858219D01*
X22580464Y79767036D01*
X22470463Y79767036D01*
X22470463Y79771249D01*
X22464012Y79860036D01*
X22445971Y79933776D01*
X22417652Y79995111D01*
X22379422Y80046114D01*
X22330966Y80087307D01*
X22272569Y80117507D01*
X22202193Y80136641D01*
X22117105Y80143475D01*
X22031965Y80136638D01*
X21961577Y80117500D01*
X21903200Y80087300D01*
X21854788Y80046114D01*
X21816516Y79995105D01*
X21788169Y79933768D01*
X21770112Y79860030D01*
X21764721Y79785903D01*
X21763655Y79771249D01*
X21596988Y79771249D01*
X21596988Y80310142D01*
X23441300Y80310142D01*
X23441300Y78459968D01*
G37*
G36*
X86052222Y-11612385D02*
G01*
X83613290Y-11612385D01*
X83613290Y-10966402D01*
X83863600Y-10966402D01*
X83955440Y-11008365D01*
X84014420Y-11050421D01*
X84057480Y-11104011D01*
X84087693Y-11176328D01*
X84103522Y-11262277D01*
X84109797Y-11390163D01*
X84335844Y-11390163D01*
X84335844Y-11068373D01*
X85830000Y-11068373D01*
X85830000Y-10752811D01*
X83863600Y-10752811D01*
X83863600Y-10966402D01*
X83613290Y-10966402D01*
X83613290Y-9922508D01*
X83835512Y-9922508D01*
X83844552Y-10034643D01*
X83869826Y-10127076D01*
X83909671Y-10203496D01*
X83963984Y-10266646D01*
X84031076Y-10316170D01*
X84112658Y-10353082D01*
X84211697Y-10376731D01*
X84331936Y-10385226D01*
X84526109Y-10385226D01*
X84526109Y-10086517D01*
X84312397Y-10086517D01*
X84223193Y-10074916D01*
X84167539Y-10045087D01*
X84135035Y-9998957D01*
X84123230Y-9930934D01*
X84135850Y-9862017D01*
X84170980Y-9814919D01*
X84229984Y-9787189D01*
X84343171Y-9775351D01*
X84434210Y-9782557D01*
X84522854Y-9804166D01*
X84610129Y-9840686D01*
X84740421Y-9923934D01*
X84919584Y-10076381D01*
X85046374Y-10187533D01*
X85156502Y-10266043D01*
X85252365Y-10317815D01*
X85354746Y-10354049D01*
X85474136Y-10377067D01*
X85613478Y-10385226D01*
X85830000Y-10385226D01*
X85830000Y-9487633D01*
X85542404Y-9487633D01*
X85542404Y-10072473D01*
X85504302Y-10072473D01*
X85404715Y-10060666D01*
X85311472Y-10025334D01*
X85217577Y-9963475D01*
X85076144Y-9841297D01*
X84922813Y-9705770D01*
X84793039Y-9609576D01*
X84683401Y-9545397D01*
X84566727Y-9497305D01*
X84450007Y-9469035D01*
X84331936Y-9459667D01*
X84211705Y-9468169D01*
X84112669Y-9491841D01*
X84031084Y-9528790D01*
X83963984Y-9578369D01*
X83909671Y-9641519D01*
X83869826Y-9717939D01*
X83844552Y-9810373D01*
X83835512Y-9922508D01*
X83613290Y-9922508D01*
X83613290Y-8621670D01*
X83863600Y-8621670D01*
X85378308Y-8822437D01*
X83863600Y-9023328D01*
X83863600Y-9341820D01*
X85830000Y-9044088D01*
X85830000Y-8628753D01*
X83863600Y-8331143D01*
X83863600Y-8621670D01*
X83613290Y-8621670D01*
X83613290Y-8108921D01*
X86052222Y-8108921D01*
X86052222Y-11612385D01*
G37*
G36*
X23441300Y75959968D02*
G01*
X21727139Y75959968D01*
X21727139Y76147701D01*
X21893806Y76147701D01*
X22053998Y76147701D01*
X22085471Y76216581D01*
X22117013Y76260816D01*
X22157205Y76293111D01*
X22211443Y76315771D01*
X22275905Y76327642D01*
X22371819Y76332349D01*
X22371819Y76501884D01*
X22130477Y76501884D01*
X22130477Y77267036D01*
X22580464Y77267036D01*
X22586946Y77175562D01*
X22605503Y77095277D01*
X22635327Y77024411D01*
X22677109Y76959317D01*
X22741846Y76883402D01*
X22835362Y76794700D01*
X22936886Y76697171D01*
X22991067Y76627730D01*
X23023147Y76556187D01*
X23033748Y76480085D01*
X23025338Y76415091D01*
X23003735Y76374596D01*
X22970382Y76350987D01*
X22921274Y76342424D01*
X22871395Y76351360D01*
X22837377Y76376129D01*
X22816909Y76416306D01*
X22808709Y76484298D01*
X22808709Y76562700D01*
X22584677Y76562700D01*
X22584677Y76498953D01*
X22590855Y76408607D01*
X22608032Y76334287D01*
X22634769Y76273194D01*
X22670498Y76223081D01*
X22716365Y76182323D01*
X22772272Y76152428D01*
X22840324Y76133440D01*
X22923381Y76126635D01*
X23007482Y76133415D01*
X23076807Y76152371D01*
X23134122Y76182254D01*
X23181484Y76222989D01*
X23218789Y76273346D01*
X23246461Y76333960D01*
X23264106Y76406888D01*
X23270419Y76494740D01*
X23263859Y76579089D01*
X23244762Y76655663D01*
X23213450Y76725824D01*
X23170697Y76790453D01*
X23105821Y76866021D01*
X23013415Y76954435D01*
X22912226Y77052342D01*
X22858809Y77122596D01*
X22827866Y77196550D01*
X22817135Y77283797D01*
X22825654Y77353543D01*
X22846811Y77394072D01*
X22881938Y77418790D01*
X22933822Y77427778D01*
X22984996Y77418993D01*
X23019585Y77394874D01*
X23041865Y77353740D01*
X23050509Y77288010D01*
X23050509Y77184329D01*
X23274633Y77184329D01*
X23274633Y77271249D01*
X23268395Y77361471D01*
X23251041Y77435756D01*
X23223998Y77496896D01*
X23187804Y77547121D01*
X23141393Y77587788D01*
X23084792Y77617666D01*
X23015861Y77636663D01*
X22931716Y77643475D01*
X22846551Y77636620D01*
X22776378Y77617460D01*
X22718390Y77587263D01*
X22670498Y77546114D01*
X22632891Y77495214D01*
X22604866Y77433333D01*
X22586912Y77358219D01*
X22580464Y77267036D01*
X22130477Y77267036D01*
X22130477Y77622500D01*
X21893806Y77622500D01*
X21893806Y76147701D01*
X21727139Y76147701D01*
X21727139Y77810142D01*
X23441300Y77810142D01*
X23441300Y75959968D01*
G37*
G36*
X-27904234Y79709968D02*
G01*
X-30116010Y79709968D01*
X-30116010Y79897701D01*
X-29949343Y79897701D01*
X-29744179Y79897701D01*
X-29641856Y81020799D01*
X-29533336Y79897701D01*
X-29276148Y79897701D01*
X-29167629Y81020799D01*
X-29065306Y79897701D01*
X-28837061Y79897701D01*
X-28950509Y81017036D01*
X-28765070Y81017036D01*
X-28758588Y80925562D01*
X-28740031Y80845277D01*
X-28710207Y80774411D01*
X-28668425Y80709317D01*
X-28603688Y80633402D01*
X-28510172Y80544700D01*
X-28408648Y80447171D01*
X-28354467Y80377730D01*
X-28322387Y80306187D01*
X-28311786Y80230085D01*
X-28320196Y80165091D01*
X-28341799Y80124596D01*
X-28375152Y80100987D01*
X-28424260Y80092424D01*
X-28474139Y80101360D01*
X-28508157Y80126129D01*
X-28528625Y80166306D01*
X-28536825Y80234298D01*
X-28536825Y80312700D01*
X-28760857Y80312700D01*
X-28760857Y80248953D01*
X-28754679Y80158607D01*
X-28737502Y80084287D01*
X-28710765Y80023194D01*
X-28675036Y79973081D01*
X-28629169Y79932323D01*
X-28573262Y79902428D01*
X-28505210Y79883440D01*
X-28422153Y79876635D01*
X-28338052Y79883415D01*
X-28268727Y79902371D01*
X-28211412Y79932254D01*
X-28164050Y79972989D01*
X-28126745Y80023346D01*
X-28099073Y80083960D01*
X-28081428Y80156888D01*
X-28075115Y80244740D01*
X-28081675Y80329089D01*
X-28100772Y80405663D01*
X-28132084Y80475824D01*
X-28174837Y80540453D01*
X-28239713Y80616021D01*
X-28332119Y80704435D01*
X-28433308Y80802342D01*
X-28486725Y80872596D01*
X-28517668Y80946550D01*
X-28528399Y81033797D01*
X-28519880Y81103543D01*
X-28498723Y81144072D01*
X-28463596Y81168790D01*
X-28411712Y81177778D01*
X-28360538Y81168993D01*
X-28325949Y81144874D01*
X-28303669Y81103740D01*
X-28295025Y81038010D01*
X-28295025Y80934329D01*
X-28070901Y80934329D01*
X-28070901Y81021249D01*
X-28077139Y81111471D01*
X-28094493Y81185756D01*
X-28121536Y81246896D01*
X-28157730Y81297121D01*
X-28204141Y81337788D01*
X-28260742Y81367666D01*
X-28329673Y81386663D01*
X-28413818Y81393475D01*
X-28498983Y81386620D01*
X-28569156Y81367460D01*
X-28627144Y81337263D01*
X-28675036Y81296114D01*
X-28712643Y81245214D01*
X-28740668Y81183333D01*
X-28758622Y81108219D01*
X-28765070Y81017036D01*
X-28950509Y81017036D01*
X-28986537Y81372500D01*
X-29298313Y81372500D01*
X-29402636Y80387223D01*
X-29507049Y81372500D01*
X-29799866Y81372500D01*
X-29949343Y79897701D01*
X-30116010Y79897701D01*
X-30116010Y81560142D01*
X-27904234Y81560142D01*
X-27904234Y79709968D01*
G37*
G36*
X85187030Y-3702965D02*
G01*
X84433446Y-3404866D01*
X85187030Y-3404866D01*
X85187030Y-3702965D01*
G37*
G36*
X86052222Y-5267057D02*
G01*
X83613290Y-5267057D01*
X83613290Y-4582117D01*
X83835512Y-4582117D01*
X83844552Y-4694252D01*
X83869826Y-4786686D01*
X83909671Y-4863105D01*
X83963984Y-4926255D01*
X84031076Y-4975779D01*
X84112658Y-5012691D01*
X84211697Y-5036341D01*
X84331936Y-5044835D01*
X84526109Y-5044835D01*
X84526109Y-4746126D01*
X84312397Y-4746126D01*
X84223193Y-4734525D01*
X84167539Y-4704697D01*
X84135035Y-4658566D01*
X84123230Y-4590543D01*
X84135850Y-4521626D01*
X84170980Y-4474528D01*
X84229984Y-4446798D01*
X84343171Y-4434961D01*
X84434210Y-4442166D01*
X84522854Y-4463775D01*
X84610129Y-4500296D01*
X84740421Y-4583544D01*
X84919584Y-4735990D01*
X85046374Y-4847143D01*
X85156502Y-4925652D01*
X85252365Y-4977424D01*
X85354746Y-5013658D01*
X85474136Y-5036676D01*
X85613478Y-5044835D01*
X85830000Y-5044835D01*
X85830000Y-4147242D01*
X85542404Y-4147242D01*
X85542404Y-4732082D01*
X85504302Y-4732082D01*
X85404715Y-4720276D01*
X85311472Y-4684943D01*
X85217577Y-4623084D01*
X85076144Y-4500906D01*
X84922813Y-4365379D01*
X84793039Y-4269185D01*
X84683401Y-4205006D01*
X84566727Y-4156915D01*
X84450007Y-4128644D01*
X84331936Y-4119277D01*
X84211705Y-4127778D01*
X84112669Y-4151450D01*
X84031084Y-4188399D01*
X83963984Y-4237979D01*
X83909671Y-4301128D01*
X83869826Y-4377548D01*
X83844552Y-4469982D01*
X83835512Y-4582117D01*
X83613290Y-4582117D01*
X83613290Y-3089182D01*
X83863600Y-3089182D01*
X83863600Y-3404866D01*
X83863600Y-3431489D01*
X85190205Y-3992393D01*
X85474626Y-3992393D01*
X85474626Y-3404866D01*
X85830000Y-3404866D01*
X85830000Y-3089182D01*
X85474626Y-3089182D01*
X85474626Y-2943736D01*
X85187030Y-2943736D01*
X85187030Y-3089182D01*
X83863600Y-3089182D01*
X83613290Y-3089182D01*
X83613290Y-2161670D01*
X83863600Y-2161670D01*
X85378308Y-2362437D01*
X83863600Y-2563328D01*
X83863600Y-2881820D01*
X85830000Y-2584088D01*
X85830000Y-2168753D01*
X83863600Y-1871143D01*
X83863600Y-2161670D01*
X83613290Y-2161670D01*
X83613290Y-1648921D01*
X86052222Y-1648921D01*
X86052222Y-5267057D01*
G37*
G36*
X76402385Y-13636709D02*
G01*
X72898921Y-13636709D01*
X72898921Y-13386399D01*
X73121143Y-13386399D01*
X73411670Y-13386399D01*
X73612437Y-11871690D01*
X73813328Y-13386399D01*
X74131820Y-13386399D01*
X74060909Y-12918063D01*
X74249667Y-12918063D01*
X74258169Y-13038294D01*
X74281841Y-13137330D01*
X74318790Y-13218915D01*
X74368369Y-13286015D01*
X74431519Y-13340328D01*
X74507939Y-13380173D01*
X74600373Y-13405447D01*
X74712508Y-13414487D01*
X74824643Y-13405447D01*
X74894306Y-13386399D01*
X75542811Y-13386399D01*
X75756402Y-13386399D01*
X75798365Y-13294559D01*
X75840421Y-13235579D01*
X75894011Y-13192519D01*
X75966328Y-13162306D01*
X76052277Y-13146477D01*
X76180163Y-13140202D01*
X76180163Y-12914155D01*
X75858373Y-12914155D01*
X75858373Y-11420000D01*
X75542811Y-11420000D01*
X75542811Y-13386399D01*
X74894306Y-13386399D01*
X74917076Y-13380173D01*
X74993496Y-13340328D01*
X75056646Y-13286015D01*
X75106170Y-13218923D01*
X75143082Y-13137341D01*
X75166731Y-13038302D01*
X75175226Y-12918063D01*
X75175226Y-12723890D01*
X74876517Y-12723890D01*
X74876517Y-12937602D01*
X74864916Y-13026806D01*
X74835087Y-13082460D01*
X74788957Y-13114964D01*
X74720934Y-13126769D01*
X74652017Y-13114149D01*
X74604919Y-13079019D01*
X74577189Y-13020015D01*
X74565351Y-12906828D01*
X74572557Y-12815789D01*
X74594166Y-12727145D01*
X74630686Y-12639870D01*
X74713934Y-12509578D01*
X74866381Y-12330415D01*
X74977533Y-12203625D01*
X75056043Y-12093497D01*
X75107815Y-11997634D01*
X75144049Y-11895253D01*
X75167067Y-11775863D01*
X75175226Y-11636521D01*
X75175226Y-11420000D01*
X74277633Y-11420000D01*
X74277633Y-11707595D01*
X74862473Y-11707595D01*
X74862473Y-11745697D01*
X74850666Y-11845284D01*
X74815334Y-11938527D01*
X74753475Y-12032422D01*
X74631297Y-12173855D01*
X74495770Y-12327186D01*
X74399576Y-12456960D01*
X74335397Y-12566598D01*
X74287305Y-12683272D01*
X74259035Y-12799992D01*
X74249667Y-12918063D01*
X74060909Y-12918063D01*
X73834088Y-11420000D01*
X73418753Y-11420000D01*
X73121143Y-13386399D01*
X72898921Y-13386399D01*
X72898921Y-11197778D01*
X76402385Y-11197778D01*
X76402385Y-13636709D01*
G37*
D11*
G36*
X-67953156Y8864965D02*
G01*
X-67907026Y8832461D01*
X-67877198Y8776807D01*
X-67865597Y8687603D01*
X-67865597Y7618797D01*
X-67877198Y7529593D01*
X-67907026Y7473939D01*
X-67953156Y7441435D01*
X-68021179Y7429631D01*
X-68089202Y7441435D01*
X-68135333Y7473939D01*
X-68165161Y7529593D01*
X-68176762Y7618797D01*
X-68176762Y8687603D01*
X-68165161Y8776807D01*
X-68135333Y8832461D01*
X-68089202Y8864965D01*
X-68021179Y8876770D01*
X-67953156Y8864965D01*
G37*
G36*
X-66833547Y8864965D02*
G01*
X-66787417Y8832461D01*
X-66757588Y8776807D01*
X-66745987Y8687603D01*
X-66745987Y7618797D01*
X-66757588Y7529593D01*
X-66787417Y7473939D01*
X-66833547Y7441435D01*
X-66901570Y7429631D01*
X-66969593Y7441435D01*
X-67015723Y7473939D01*
X-67045552Y7529593D01*
X-67057153Y7618797D01*
X-67057153Y8687603D01*
X-67045552Y8776807D01*
X-67015723Y8832461D01*
X-66969593Y8864965D01*
X-66901570Y8876770D01*
X-66833547Y8864965D01*
G37*
G36*
X-69082660Y8044740D02*
G01*
X-69034465Y8027259D01*
X-69000837Y8000793D01*
X-68978196Y7963917D01*
X-68962130Y7905657D01*
X-68955775Y7817488D01*
X-68955775Y7646763D01*
X-68966943Y7551573D01*
X-68993876Y7499728D01*
X-69039614Y7469099D01*
X-69111357Y7457596D01*
X-69283671Y7457596D01*
X-69283671Y8051351D01*
X-69150558Y8051351D01*
X-69082660Y8044740D01*
G37*
G36*
X-69068422Y8836303D02*
G01*
X-69023308Y8802520D01*
X-68997207Y8747311D01*
X-68986549Y8651333D01*
X-68986549Y8542157D01*
X-68992625Y8469710D01*
X-69008416Y8419402D01*
X-69031612Y8385353D01*
X-69085054Y8351608D01*
X-69167289Y8338947D01*
X-69283671Y8338947D01*
X-69283671Y8848804D01*
X-69139323Y8848804D01*
X-69068422Y8836303D01*
G37*
G36*
X-64089031Y6919813D02*
G01*
X-69821576Y6919813D01*
X-69821576Y8338947D01*
X-69599354Y8338947D01*
X-69599354Y7457596D01*
X-69599354Y7170000D01*
X-69111357Y7170000D01*
X-68995632Y7178599D01*
X-68900967Y7202501D01*
X-68823505Y7239818D01*
X-68760258Y7290046D01*
X-68709909Y7353373D01*
X-68672600Y7430481D01*
X-68648768Y7524233D01*
X-68640213Y7638336D01*
X-68640213Y7806253D01*
X-68651437Y7941133D01*
X-68681772Y8043620D01*
X-68728055Y8120888D01*
X-68789861Y8178051D01*
X-68869557Y8217558D01*
X-68869557Y8217802D01*
X-68808462Y8251720D01*
X-68759205Y8297180D01*
X-68720447Y8355433D01*
X-68694234Y8421465D01*
X-68677177Y8503121D01*
X-68670987Y8603706D01*
X-68670987Y8668064D01*
X-68492324Y8668064D01*
X-68492324Y7638336D01*
X-68483722Y7519953D01*
X-68459667Y7421633D01*
X-68421908Y7339854D01*
X-68370935Y7271850D01*
X-68306327Y7216925D01*
X-68228465Y7176659D01*
X-68134630Y7151147D01*
X-68021179Y7142035D01*
X-67907659Y7151151D01*
X-67813809Y7176668D01*
X-67735973Y7216935D01*
X-67671424Y7271850D01*
X-67620394Y7339861D01*
X-67582598Y7421644D01*
X-67558522Y7519961D01*
X-67549913Y7638336D01*
X-67549913Y8668064D01*
X-67372715Y8668064D01*
X-67372715Y7638336D01*
X-67364113Y7519953D01*
X-67340058Y7421633D01*
X-67302299Y7339854D01*
X-67251326Y7271850D01*
X-67186718Y7216925D01*
X-67108856Y7176659D01*
X-67015021Y7151147D01*
X-66901570Y7142035D01*
X-66788050Y7151151D01*
X-66694200Y7176668D01*
X-66616364Y7216935D01*
X-66551814Y7271850D01*
X-66500785Y7339861D01*
X-66462989Y7421644D01*
X-66438913Y7519961D01*
X-66430304Y7638336D01*
X-66430304Y7754229D01*
X-66283880Y7754229D01*
X-66283880Y7638336D01*
X-66275563Y7518040D01*
X-66252424Y7418993D01*
X-66216367Y7337474D01*
X-66168109Y7270506D01*
X-66106227Y7216284D01*
X-66030759Y7176447D01*
X-65938851Y7151117D01*
X-65826657Y7142035D01*
X-65713105Y7151174D01*
X-65619541Y7176722D01*
X-65542223Y7216984D01*
X-65478367Y7271850D01*
X-65428225Y7339715D01*
X-65390858Y7422224D01*
X-65366919Y7522376D01*
X-65358322Y7643954D01*
X-65366964Y7765919D01*
X-65391707Y7872965D01*
X-65431472Y7967453D01*
X-65487182Y8054245D01*
X-65573498Y8155466D01*
X-65698186Y8273734D01*
X-65833551Y8403774D01*
X-65905792Y8496361D01*
X-65948565Y8591752D01*
X-65962701Y8693221D01*
X-65951487Y8779880D01*
X-65922683Y8833874D01*
X-65878213Y8865352D01*
X-65812736Y8876770D01*
X-65746230Y8864854D01*
X-65700872Y8831829D01*
X-65673582Y8778260D01*
X-65662648Y8687603D01*
X-65662648Y8583067D01*
X-65363939Y8583067D01*
X-65363939Y8668064D01*
X-65372177Y8788526D01*
X-65386108Y8848804D01*
X-65270394Y8848804D01*
X-64948604Y8848804D01*
X-64948604Y7170000D01*
X-64633043Y7170000D01*
X-64633043Y8848804D01*
X-64311253Y8848804D01*
X-64311253Y9136400D01*
X-65270394Y9136400D01*
X-65270394Y8848804D01*
X-65386108Y8848804D01*
X-65395079Y8887619D01*
X-65430728Y8969075D01*
X-65478367Y9035894D01*
X-65539524Y9090237D01*
X-65614066Y9130097D01*
X-65704801Y9155414D01*
X-65815544Y9164488D01*
X-65927679Y9155448D01*
X-66020113Y9130174D01*
X-66096533Y9090329D01*
X-66159682Y9036016D01*
X-66209422Y8968873D01*
X-66246317Y8888055D01*
X-66269845Y8790817D01*
X-66278262Y8673682D01*
X-66269516Y8561215D01*
X-66244052Y8459117D01*
X-66202303Y8365569D01*
X-66145299Y8279397D01*
X-66058798Y8178640D01*
X-65935590Y8060754D01*
X-65800671Y7930212D01*
X-65729449Y7836539D01*
X-65688191Y7737934D01*
X-65673883Y7621606D01*
X-65685242Y7528610D01*
X-65713451Y7474571D01*
X-65760287Y7441614D01*
X-65829466Y7429631D01*
X-65897698Y7441344D01*
X-65943816Y7473502D01*
X-65973523Y7528348D01*
X-65985049Y7615988D01*
X-65985049Y7754229D01*
X-66283880Y7754229D01*
X-66430304Y7754229D01*
X-66430304Y8668064D01*
X-66438916Y8786510D01*
X-66462998Y8884843D01*
X-66500794Y8966598D01*
X-66551814Y9034550D01*
X-66616372Y9089522D01*
X-66694211Y9129826D01*
X-66788058Y9155365D01*
X-66901570Y9164488D01*
X-67015012Y9155368D01*
X-67108844Y9129835D01*
X-67186710Y9089532D01*
X-67251326Y9034550D01*
X-67302290Y8966606D01*
X-67340049Y8884854D01*
X-67364109Y8786518D01*
X-67371295Y8687603D01*
X-67372715Y8668064D01*
X-67549913Y8668064D01*
X-67558525Y8786510D01*
X-67582607Y8884843D01*
X-67620403Y8966598D01*
X-67671424Y9034550D01*
X-67735981Y9089522D01*
X-67813820Y9129826D01*
X-67907668Y9155365D01*
X-68021179Y9164488D01*
X-68134621Y9155368D01*
X-68228454Y9129835D01*
X-68306319Y9089532D01*
X-68370935Y9034550D01*
X-68421899Y8966606D01*
X-68459658Y8884854D01*
X-68483718Y8786518D01*
X-68490904Y8687603D01*
X-68492324Y8668064D01*
X-68670987Y8668064D01*
X-68670987Y8682108D01*
X-68679124Y8798759D01*
X-68701462Y8891932D01*
X-68735798Y8966062D01*
X-68781263Y9024659D01*
X-68839272Y9070427D01*
X-68914058Y9105226D01*
X-69009595Y9128037D01*
X-69130897Y9136400D01*
X-69599354Y9136400D01*
X-69599354Y8338947D01*
X-69821576Y8338947D01*
X-69821576Y9386710D01*
X-64089031Y9386710D01*
X-64089031Y6919813D01*
G37*
D12*
G36*
X-4161226Y75816112D02*
G01*
X-4113941Y75782896D01*
X-4083399Y75726087D01*
X-4071529Y75635112D01*
X-4071529Y74566305D01*
X-4083399Y74475331D01*
X-4113941Y74418522D01*
X-4161226Y74385305D01*
X-4231020Y74373231D01*
X-4300814Y74385305D01*
X-4348099Y74418522D01*
X-4378641Y74475331D01*
X-4390511Y74566305D01*
X-4390511Y75635112D01*
X-4378641Y75726087D01*
X-4348099Y75782896D01*
X-4300814Y75816112D01*
X-4231020Y75828186D01*
X-4161226Y75816112D01*
G37*
G36*
X-2650158Y74680977D02*
G01*
X-2655776Y74680977D01*
X-2655776Y75444847D01*
X-2348030Y75444847D01*
X-2650158Y74680977D01*
G37*
G36*
X4979705Y73871107D02*
G01*
X-4920601Y73871107D01*
X-4920601Y75615573D01*
X-4698379Y75615573D01*
X-4698379Y74585845D01*
X-4689837Y74468168D01*
X-4665963Y74370532D01*
X-4628507Y74289414D01*
X-4577967Y74222045D01*
X-4513999Y74167607D01*
X-4436817Y74127681D01*
X-4343703Y74102372D01*
X-4231020Y74093329D01*
X-4118406Y74102369D01*
X-4025308Y74127672D01*
X-3948099Y74167598D01*
X-3884073Y74222045D01*
X-3833589Y74289406D01*
X-3796170Y74370521D01*
X-3772317Y74468159D01*
X-3763783Y74585845D01*
X-3763783Y75615573D01*
X-3771695Y75724627D01*
X-3109091Y75724627D01*
X-3109091Y75444847D01*
X-2963644Y75444847D01*
X-2963644Y74680977D01*
X-2963644Y74121417D01*
X-2627810Y74121417D01*
X-1553996Y74121417D01*
X-1254677Y74121417D01*
X-1044750Y74840468D01*
X-1039132Y74840468D01*
X-829328Y74121417D01*
X-501920Y74121417D01*
X-874146Y75246155D01*
X-874146Y75609955D01*
X-432189Y75609955D01*
X-423590Y75488633D01*
X-398971Y75382153D01*
X-359405Y75288165D01*
X-304030Y75201847D01*
X-218053Y75101042D01*
X-93668Y74983106D01*
X42136Y74852621D01*
X114793Y74759379D01*
X157925Y74663190D01*
X172190Y74560688D01*
X160707Y74472258D01*
X131190Y74417110D01*
X85565Y74384919D01*
X18317Y74373231D01*
X-49858Y74385461D01*
X-96477Y74419393D01*
X-124498Y74474266D01*
X-135678Y74566305D01*
X-135678Y74666934D01*
X-426571Y74666934D01*
X-426571Y74585845D01*
X-418402Y74466078D01*
X-395702Y74367668D01*
X-360394Y74286877D01*
X-313243Y74220702D01*
X-252675Y74166893D01*
X-178790Y74127410D01*
X-88789Y74102323D01*
X21126Y74093329D01*
X132424Y74102296D01*
X202376Y74121417D01*
X660920Y74121417D01*
X935083Y74121417D01*
X935083Y75293783D01*
X940700Y75293783D01*
X1240142Y74121417D01*
X1626290Y74121417D01*
X1626290Y75800220D01*
X1802877Y75800220D01*
X2334472Y75800220D01*
X2334472Y75198650D01*
X1912054Y75198650D01*
X1912054Y74918870D01*
X2334472Y74918870D01*
X2334472Y74401197D01*
X1802877Y74401197D01*
X1802877Y74121417D01*
X2642340Y74121417D01*
X2642340Y75800220D01*
X2818928Y75800220D01*
X3350522Y75800220D01*
X3350522Y75198650D01*
X2928104Y75198650D01*
X2928104Y74918870D01*
X3350522Y74918870D01*
X3350522Y74401197D01*
X2818928Y74401197D01*
X2818928Y74121417D01*
X3658390Y74121417D01*
X3658390Y74401197D01*
X3806157Y74401197D01*
X3806157Y74121417D01*
X4757483Y74121417D01*
X4757483Y74401197D01*
X4435693Y74401197D01*
X4435693Y76080000D01*
X4127947Y76080000D01*
X4127947Y74401197D01*
X3806157Y74401197D01*
X3658390Y74401197D01*
X3658390Y76080000D01*
X2818928Y76080000D01*
X2818928Y75800220D01*
X2642340Y75800220D01*
X2642340Y76080000D01*
X1802877Y76080000D01*
X1802877Y75800220D01*
X1626290Y75800220D01*
X1626290Y76080000D01*
X1352005Y76080000D01*
X1352005Y74650203D01*
X1346388Y74650203D01*
X977092Y76080000D01*
X660920Y76080000D01*
X660920Y74121417D01*
X202376Y74121417D01*
X224121Y74127361D01*
X299887Y74166865D01*
X362455Y74220702D01*
X411710Y74287203D01*
X448265Y74367340D01*
X471588Y74463856D01*
X479936Y74580227D01*
X471246Y74692057D01*
X445946Y74793590D01*
X404465Y74886630D01*
X347729Y74972335D01*
X261520Y75072679D01*
X138607Y75190224D01*
X3249Y75321210D01*
X-68389Y75415538D01*
X-110007Y75514942D01*
X-124443Y75632303D01*
X-112808Y75726668D01*
X-83776Y75782024D01*
X-35695Y75815893D01*
X35048Y75828186D01*
X105051Y75816204D01*
X152324Y75783333D01*
X182744Y75727332D01*
X194538Y75637921D01*
X194538Y75503587D01*
X485554Y75503587D01*
X485554Y75615573D01*
X477305Y75735174D01*
X454369Y75833539D01*
X418651Y75914392D01*
X370882Y75980716D01*
X309589Y76034404D01*
X234778Y76073864D01*
X143605Y76098963D01*
X32239Y76107966D01*
X-80477Y76098900D01*
X-173304Y76073561D01*
X-249968Y76033639D01*
X-313243Y75979250D01*
X-362900Y75912027D01*
X-399927Y75830200D01*
X-423661Y75730770D01*
X-432189Y75609955D01*
X-874146Y75609955D01*
X-874146Y76080000D01*
X-1181892Y76080000D01*
X-1181892Y75246155D01*
X-1553996Y74121417D01*
X-2627810Y74121417D01*
X-2068250Y75444847D01*
X-2068250Y75724627D01*
X-2655776Y75724627D01*
X-2655776Y76080000D01*
X-2963644Y76080000D01*
X-2963644Y75724627D01*
X-3109091Y75724627D01*
X-3771695Y75724627D01*
X-3772316Y75733191D01*
X-3784578Y75783368D01*
X-3557154Y75783368D01*
X-3260521Y75783368D01*
X-3260521Y76080000D01*
X-3557154Y76080000D01*
X-3557154Y75783368D01*
X-3784578Y75783368D01*
X-3796166Y75830790D01*
X-3833584Y75911889D01*
X-3884073Y75979250D01*
X-3948099Y76033698D01*
X-4025308Y76073624D01*
X-4118406Y76098927D01*
X-4231020Y76107966D01*
X-4343703Y76098923D01*
X-4436817Y76073615D01*
X-4513999Y76033688D01*
X-4577967Y75979250D01*
X-4628512Y75911881D01*
X-4665967Y75830779D01*
X-4689839Y75733183D01*
X-4696960Y75635112D01*
X-4698379Y75615573D01*
X-4920601Y75615573D01*
X-4920601Y76330188D01*
X4979705Y76330188D01*
X4979705Y73871107D01*
G37*
D13*
%TO.C,J5*%
X68350000Y-15750000D02*
X70050000Y-15750000D01*
X68350000Y-18250000D02*
X68350000Y-15750000D01*
X70050000Y-14050000D02*
X79950000Y-14050000D01*
X70050000Y-15750000D02*
X70050000Y-14050000D01*
X70050000Y-18250000D02*
X68350000Y-18250000D01*
X70050000Y-23050000D02*
X70050000Y-18250000D01*
X72000000Y-29250000D02*
X73000000Y-29250000D01*
X72500000Y-29750000D02*
X72500000Y-28750000D01*
X77000000Y-29250000D02*
X78000000Y-29250000D01*
X79950000Y-14050000D02*
X79950000Y-15750000D01*
X79950000Y-15750000D02*
X81650000Y-15750000D01*
X79950000Y-18250000D02*
X79950000Y-23050000D01*
X79950000Y-23050000D02*
X70050000Y-23050000D01*
X81650000Y-15750000D02*
X81650000Y-18250000D01*
X81650000Y-18250000D02*
X79950000Y-18250000D01*
D14*
%TO.C,C4*%
X-67452245Y-16195000D02*
X-65852245Y-16195000D01*
X-66652245Y-15395000D02*
X-66652245Y-16995000D01*
X-58762754Y-12670000D02*
X-58762754Y-28830000D01*
X-58722754Y-12670000D02*
X-58722754Y-28830000D01*
X-58682754Y-12670000D02*
X-58682754Y-28830000D01*
X-58642754Y-12671000D02*
X-58642754Y-28829000D01*
X-58602754Y-12672000D02*
X-58602754Y-28828000D01*
X-58562754Y-12672000D02*
X-58562754Y-28828000D01*
X-58522754Y-12674000D02*
X-58522754Y-28826000D01*
X-58482754Y-12675000D02*
X-58482754Y-28825000D01*
X-58442754Y-12676000D02*
X-58442754Y-28824000D01*
X-58402754Y-12678000D02*
X-58402754Y-28822000D01*
X-58362754Y-12680000D02*
X-58362754Y-28820000D01*
X-58322754Y-12682000D02*
X-58322754Y-28818000D01*
X-58282754Y-12684000D02*
X-58282754Y-28816000D01*
X-58242754Y-12687000D02*
X-58242754Y-28813000D01*
X-58202754Y-12689000D02*
X-58202754Y-28811000D01*
X-58162754Y-12692000D02*
X-58162754Y-28808000D01*
X-58122754Y-12695000D02*
X-58122754Y-28805000D01*
X-58082754Y-12699000D02*
X-58082754Y-28801000D01*
X-58042754Y-12702000D02*
X-58042754Y-28798000D01*
X-58002754Y-12706000D02*
X-58002754Y-28794000D01*
X-57962754Y-12710000D02*
X-57962754Y-28790000D01*
X-57922754Y-12714000D02*
X-57922754Y-28786000D01*
X-57882754Y-12718000D02*
X-57882754Y-28782000D01*
X-57842754Y-12722000D02*
X-57842754Y-28778000D01*
X-57802754Y-12727000D02*
X-57802754Y-28773000D01*
X-57762754Y-12732000D02*
X-57762754Y-28768000D01*
X-57722754Y-12737000D02*
X-57722754Y-28763000D01*
X-57682754Y-12742000D02*
X-57682754Y-28758000D01*
X-57642754Y-12748000D02*
X-57642754Y-28752000D01*
X-57602754Y-12753000D02*
X-57602754Y-28747000D01*
X-57562754Y-12759000D02*
X-57562754Y-28741000D01*
X-57522754Y-12765000D02*
X-57522754Y-28735000D01*
X-57482754Y-12772000D02*
X-57482754Y-28728000D01*
X-57442754Y-12778000D02*
X-57442754Y-28722000D01*
X-57402754Y-12785000D02*
X-57402754Y-28715000D01*
X-57362754Y-12792000D02*
X-57362754Y-28708000D01*
X-57322754Y-12799000D02*
X-57322754Y-28701000D01*
X-57282754Y-12806000D02*
X-57282754Y-28694000D01*
X-57242754Y-12814000D02*
X-57242754Y-28686000D01*
X-57202754Y-12821000D02*
X-57202754Y-28679000D01*
X-57162754Y-12829000D02*
X-57162754Y-28671000D01*
X-57122754Y-12837000D02*
X-57122754Y-28663000D01*
X-57082754Y-12846000D02*
X-57082754Y-28654000D01*
X-57042754Y-12854000D02*
X-57042754Y-28646000D01*
X-57002754Y-12863000D02*
X-57002754Y-28637000D01*
X-56962754Y-12872000D02*
X-56962754Y-28628000D01*
X-56922754Y-12881000D02*
X-56922754Y-28619000D01*
X-56882754Y-12891000D02*
X-56882754Y-28609000D01*
X-56842754Y-12900000D02*
X-56842754Y-28600000D01*
X-56802754Y-12910000D02*
X-56802754Y-28590000D01*
X-56762754Y-12920000D02*
X-56762754Y-28580000D01*
X-56722754Y-12930000D02*
X-56722754Y-28570000D01*
X-56682754Y-12941000D02*
X-56682754Y-28559000D01*
X-56642754Y-12952000D02*
X-56642754Y-28548000D01*
X-56602754Y-12963000D02*
X-56602754Y-28537000D01*
X-56562754Y-12974000D02*
X-56562754Y-28526000D01*
X-56522754Y-12985000D02*
X-56522754Y-28515000D01*
X-56482754Y-12997000D02*
X-56482754Y-28503000D01*
X-56442754Y-13008000D02*
X-56442754Y-19310000D01*
X-56442754Y-22190000D02*
X-56442754Y-28492000D01*
X-56402754Y-13021000D02*
X-56402754Y-19310000D01*
X-56402754Y-22190000D02*
X-56402754Y-28479000D01*
X-56362754Y-13033000D02*
X-56362754Y-19310000D01*
X-56362754Y-22190000D02*
X-56362754Y-28467000D01*
X-56322754Y-13045000D02*
X-56322754Y-19310000D01*
X-56322754Y-22190000D02*
X-56322754Y-28455000D01*
X-56282754Y-13058000D02*
X-56282754Y-19310000D01*
X-56282754Y-22190000D02*
X-56282754Y-28442000D01*
X-56242754Y-13071000D02*
X-56242754Y-19310000D01*
X-56242754Y-22190000D02*
X-56242754Y-28429000D01*
X-56202754Y-13084000D02*
X-56202754Y-19310000D01*
X-56202754Y-22190000D02*
X-56202754Y-28416000D01*
X-56162754Y-13098000D02*
X-56162754Y-19310000D01*
X-56162754Y-22190000D02*
X-56162754Y-28402000D01*
X-56122754Y-13111000D02*
X-56122754Y-19310000D01*
X-56122754Y-22190000D02*
X-56122754Y-28389000D01*
X-56082754Y-13125000D02*
X-56082754Y-19310000D01*
X-56082754Y-22190000D02*
X-56082754Y-28375000D01*
X-56042754Y-13139000D02*
X-56042754Y-19310000D01*
X-56042754Y-22190000D02*
X-56042754Y-28361000D01*
X-56002754Y-13153000D02*
X-56002754Y-19310000D01*
X-56002754Y-22190000D02*
X-56002754Y-28347000D01*
X-55962754Y-13168000D02*
X-55962754Y-19310000D01*
X-55962754Y-22190000D02*
X-55962754Y-28332000D01*
X-55922754Y-13183000D02*
X-55922754Y-19310000D01*
X-55922754Y-22190000D02*
X-55922754Y-28317000D01*
X-55882754Y-13198000D02*
X-55882754Y-19310000D01*
X-55882754Y-22190000D02*
X-55882754Y-28302000D01*
X-55842754Y-13213000D02*
X-55842754Y-19310000D01*
X-55842754Y-22190000D02*
X-55842754Y-28287000D01*
X-55802754Y-13229000D02*
X-55802754Y-19310000D01*
X-55802754Y-22190000D02*
X-55802754Y-28271000D01*
X-55762754Y-13245000D02*
X-55762754Y-19310000D01*
X-55762754Y-22190000D02*
X-55762754Y-28255000D01*
X-55722754Y-13261000D02*
X-55722754Y-19310000D01*
X-55722754Y-22190000D02*
X-55722754Y-28239000D01*
X-55682754Y-13277000D02*
X-55682754Y-19310000D01*
X-55682754Y-22190000D02*
X-55682754Y-28223000D01*
X-55642754Y-13293000D02*
X-55642754Y-19310000D01*
X-55642754Y-22190000D02*
X-55642754Y-28207000D01*
X-55602754Y-13310000D02*
X-55602754Y-19310000D01*
X-55602754Y-22190000D02*
X-55602754Y-28190000D01*
X-55562754Y-13327000D02*
X-55562754Y-19310000D01*
X-55562754Y-22190000D02*
X-55562754Y-28173000D01*
X-55522754Y-13344000D02*
X-55522754Y-19310000D01*
X-55522754Y-22190000D02*
X-55522754Y-28156000D01*
X-55482754Y-13362000D02*
X-55482754Y-19310000D01*
X-55482754Y-22190000D02*
X-55482754Y-28138000D01*
X-55442754Y-13380000D02*
X-55442754Y-19310000D01*
X-55442754Y-22190000D02*
X-55442754Y-28120000D01*
X-55402754Y-13398000D02*
X-55402754Y-19310000D01*
X-55402754Y-22190000D02*
X-55402754Y-28102000D01*
X-55362754Y-13416000D02*
X-55362754Y-19310000D01*
X-55362754Y-22190000D02*
X-55362754Y-28084000D01*
X-55322754Y-13435000D02*
X-55322754Y-19310000D01*
X-55322754Y-22190000D02*
X-55322754Y-28065000D01*
X-55282754Y-13454000D02*
X-55282754Y-19310000D01*
X-55282754Y-22190000D02*
X-55282754Y-28046000D01*
X-55242754Y-13473000D02*
X-55242754Y-19310000D01*
X-55242754Y-22190000D02*
X-55242754Y-28027000D01*
X-55202754Y-13492000D02*
X-55202754Y-19310000D01*
X-55202754Y-22190000D02*
X-55202754Y-28008000D01*
X-55162754Y-13512000D02*
X-55162754Y-19310000D01*
X-55162754Y-22190000D02*
X-55162754Y-27988000D01*
X-55122754Y-13532000D02*
X-55122754Y-19310000D01*
X-55122754Y-22190000D02*
X-55122754Y-27968000D01*
X-55082754Y-13552000D02*
X-55082754Y-19310000D01*
X-55082754Y-22190000D02*
X-55082754Y-27948000D01*
X-55042754Y-13572000D02*
X-55042754Y-19310000D01*
X-55042754Y-22190000D02*
X-55042754Y-27928000D01*
X-55002754Y-13593000D02*
X-55002754Y-19310000D01*
X-55002754Y-22190000D02*
X-55002754Y-27907000D01*
X-54962754Y-13614000D02*
X-54962754Y-19310000D01*
X-54962754Y-22190000D02*
X-54962754Y-27886000D01*
X-54922754Y-13635000D02*
X-54922754Y-19310000D01*
X-54922754Y-22190000D02*
X-54922754Y-27865000D01*
X-54882754Y-13657000D02*
X-54882754Y-19310000D01*
X-54882754Y-22190000D02*
X-54882754Y-27843000D01*
X-54842754Y-13679000D02*
X-54842754Y-19310000D01*
X-54842754Y-22190000D02*
X-54842754Y-27821000D01*
X-54802754Y-13701000D02*
X-54802754Y-19310000D01*
X-54802754Y-22190000D02*
X-54802754Y-27799000D01*
X-54762754Y-13724000D02*
X-54762754Y-19310000D01*
X-54762754Y-22190000D02*
X-54762754Y-27776000D01*
X-54722754Y-13746000D02*
X-54722754Y-19310000D01*
X-54722754Y-22190000D02*
X-54722754Y-27754000D01*
X-54682754Y-13769000D02*
X-54682754Y-19310000D01*
X-54682754Y-22190000D02*
X-54682754Y-27731000D01*
X-54642754Y-13793000D02*
X-54642754Y-19310000D01*
X-54642754Y-22190000D02*
X-54642754Y-27707000D01*
X-54602754Y-13817000D02*
X-54602754Y-19310000D01*
X-54602754Y-22190000D02*
X-54602754Y-27683000D01*
X-54562754Y-13841000D02*
X-54562754Y-19310000D01*
X-54562754Y-22190000D02*
X-54562754Y-27659000D01*
X-54522754Y-13865000D02*
X-54522754Y-19310000D01*
X-54522754Y-22190000D02*
X-54522754Y-27635000D01*
X-54482754Y-13890000D02*
X-54482754Y-19310000D01*
X-54482754Y-22190000D02*
X-54482754Y-27610000D01*
X-54442754Y-13915000D02*
X-54442754Y-19310000D01*
X-54442754Y-22190000D02*
X-54442754Y-27585000D01*
X-54402754Y-13940000D02*
X-54402754Y-19310000D01*
X-54402754Y-22190000D02*
X-54402754Y-27560000D01*
X-54362754Y-13965000D02*
X-54362754Y-19310000D01*
X-54362754Y-22190000D02*
X-54362754Y-27535000D01*
X-54322754Y-13991000D02*
X-54322754Y-19310000D01*
X-54322754Y-22190000D02*
X-54322754Y-27509000D01*
X-54282754Y-14018000D02*
X-54282754Y-19310000D01*
X-54282754Y-22190000D02*
X-54282754Y-27482000D01*
X-54242754Y-14044000D02*
X-54242754Y-19310000D01*
X-54242754Y-22190000D02*
X-54242754Y-27456000D01*
X-54202754Y-14071000D02*
X-54202754Y-19310000D01*
X-54202754Y-22190000D02*
X-54202754Y-27429000D01*
X-54162754Y-14099000D02*
X-54162754Y-19310000D01*
X-54162754Y-22190000D02*
X-54162754Y-27401000D01*
X-54122754Y-14126000D02*
X-54122754Y-19310000D01*
X-54122754Y-22190000D02*
X-54122754Y-27374000D01*
X-54082754Y-14154000D02*
X-54082754Y-19310000D01*
X-54082754Y-22190000D02*
X-54082754Y-27346000D01*
X-54042754Y-14183000D02*
X-54042754Y-19310000D01*
X-54042754Y-22190000D02*
X-54042754Y-27317000D01*
X-54002754Y-14211000D02*
X-54002754Y-19310000D01*
X-54002754Y-22190000D02*
X-54002754Y-27289000D01*
X-53962754Y-14241000D02*
X-53962754Y-19310000D01*
X-53962754Y-22190000D02*
X-53962754Y-27259000D01*
X-53922754Y-14270000D02*
X-53922754Y-19310000D01*
X-53922754Y-22190000D02*
X-53922754Y-27230000D01*
X-53882754Y-14300000D02*
X-53882754Y-19310000D01*
X-53882754Y-22190000D02*
X-53882754Y-27200000D01*
X-53842754Y-14330000D02*
X-53842754Y-19310000D01*
X-53842754Y-22190000D02*
X-53842754Y-27170000D01*
X-53802754Y-14361000D02*
X-53802754Y-19310000D01*
X-53802754Y-22190000D02*
X-53802754Y-27139000D01*
X-53762754Y-14392000D02*
X-53762754Y-19310000D01*
X-53762754Y-22190000D02*
X-53762754Y-27108000D01*
X-53722754Y-14423000D02*
X-53722754Y-19310000D01*
X-53722754Y-22190000D02*
X-53722754Y-27077000D01*
X-53682754Y-14455000D02*
X-53682754Y-19310000D01*
X-53682754Y-22190000D02*
X-53682754Y-27045000D01*
X-53642754Y-14488000D02*
X-53642754Y-19310000D01*
X-53642754Y-22190000D02*
X-53642754Y-27012000D01*
X-53602754Y-14520000D02*
X-53602754Y-19310000D01*
X-53602754Y-22190000D02*
X-53602754Y-26980000D01*
X-53562754Y-14553000D02*
X-53562754Y-26947000D01*
X-53522754Y-14587000D02*
X-53522754Y-26913000D01*
X-53482754Y-14621000D02*
X-53482754Y-26879000D01*
X-53442754Y-14656000D02*
X-53442754Y-26844000D01*
X-53402754Y-14690000D02*
X-53402754Y-26810000D01*
X-53362754Y-14726000D02*
X-53362754Y-26774000D01*
X-53322754Y-14762000D02*
X-53322754Y-26738000D01*
X-53282754Y-14798000D02*
X-53282754Y-26702000D01*
X-53242754Y-14835000D02*
X-53242754Y-26665000D01*
X-53202754Y-14872000D02*
X-53202754Y-26628000D01*
X-53162754Y-14910000D02*
X-53162754Y-26590000D01*
X-53122754Y-14948000D02*
X-53122754Y-26552000D01*
X-53082754Y-14987000D02*
X-53082754Y-26513000D01*
X-53042754Y-15027000D02*
X-53042754Y-26473000D01*
X-53002754Y-15067000D02*
X-53002754Y-26433000D01*
X-52962754Y-15107000D02*
X-52962754Y-26393000D01*
X-52922754Y-15148000D02*
X-52922754Y-26352000D01*
X-52882754Y-15190000D02*
X-52882754Y-26310000D01*
X-52842754Y-15232000D02*
X-52842754Y-26268000D01*
X-52802754Y-15275000D02*
X-52802754Y-26225000D01*
X-52762754Y-15319000D02*
X-52762754Y-26181000D01*
X-52722754Y-15363000D02*
X-52722754Y-26137000D01*
X-52682754Y-15408000D02*
X-52682754Y-26092000D01*
X-52642754Y-15453000D02*
X-52642754Y-26047000D01*
X-52602754Y-15500000D02*
X-52602754Y-26000000D01*
X-52562754Y-15546000D02*
X-52562754Y-25954000D01*
X-52522754Y-15594000D02*
X-52522754Y-25906000D01*
X-52482754Y-15643000D02*
X-52482754Y-25857000D01*
X-52442754Y-15692000D02*
X-52442754Y-25808000D01*
X-52402754Y-15742000D02*
X-52402754Y-25758000D01*
X-52362754Y-15793000D02*
X-52362754Y-25707000D01*
X-52322754Y-15844000D02*
X-52322754Y-25656000D01*
X-52282754Y-15897000D02*
X-52282754Y-25603000D01*
X-52242754Y-15950000D02*
X-52242754Y-25550000D01*
X-52202754Y-16005000D02*
X-52202754Y-25495000D01*
X-52162754Y-16060000D02*
X-52162754Y-25440000D01*
X-52122754Y-16116000D02*
X-52122754Y-25384000D01*
X-52082754Y-16174000D02*
X-52082754Y-25326000D01*
X-52042754Y-16232000D02*
X-52042754Y-25268000D01*
X-52002754Y-16291000D02*
X-52002754Y-25209000D01*
X-51962754Y-16352000D02*
X-51962754Y-25148000D01*
X-51922754Y-16414000D02*
X-51922754Y-25086000D01*
X-51882754Y-16477000D02*
X-51882754Y-25023000D01*
X-51842754Y-16542000D02*
X-51842754Y-24958000D01*
X-51802754Y-16608000D02*
X-51802754Y-24892000D01*
X-51762754Y-16675000D02*
X-51762754Y-24825000D01*
X-51722754Y-16744000D02*
X-51722754Y-24756000D01*
X-51682754Y-16814000D02*
X-51682754Y-24686000D01*
X-51642754Y-16886000D02*
X-51642754Y-24614000D01*
X-51602754Y-16960000D02*
X-51602754Y-24540000D01*
X-51562754Y-17036000D02*
X-51562754Y-24464000D01*
X-51522754Y-17113000D02*
X-51522754Y-24387000D01*
X-51482754Y-17193000D02*
X-51482754Y-24307000D01*
X-51442754Y-17275000D02*
X-51442754Y-24225000D01*
X-51402754Y-17360000D02*
X-51402754Y-24140000D01*
X-51362754Y-17447000D02*
X-51362754Y-24053000D01*
X-51322754Y-17537000D02*
X-51322754Y-23963000D01*
X-51282754Y-17630000D02*
X-51282754Y-23870000D01*
X-51242754Y-17727000D02*
X-51242754Y-23773000D01*
X-51202754Y-17827000D02*
X-51202754Y-23673000D01*
X-51162754Y-17931000D02*
X-51162754Y-23569000D01*
X-51122754Y-18040000D02*
X-51122754Y-23460000D01*
X-51082754Y-18153000D02*
X-51082754Y-23347000D01*
X-51042754Y-18273000D02*
X-51042754Y-23227000D01*
X-51002754Y-18399000D02*
X-51002754Y-23101000D01*
X-50962754Y-18533000D02*
X-50962754Y-22967000D01*
X-50922754Y-18676000D02*
X-50922754Y-22824000D01*
X-50882754Y-18830000D02*
X-50882754Y-22670000D01*
X-50842754Y-18999000D02*
X-50842754Y-22501000D01*
X-50802754Y-19186000D02*
X-50802754Y-22314000D01*
X-50762754Y-19399000D02*
X-50762754Y-22101000D01*
X-50722754Y-19653000D02*
X-50722754Y-21847000D01*
X-50682754Y-19985000D02*
X-50682754Y-21515000D01*
X-50642754Y-20750000D02*
G75*
G02*
X-66882754Y-20750000I-8120000J0D01*
G01*
X-66882754Y-20750000D02*
G75*
G02*
X-50642754Y-20750000I8120000J0D01*
G01*
D15*
%TO.C,U4*%
X-82240000Y25779999D02*
X-82240000Y-9779999D01*
X-79699999Y-12320000D02*
X-54300001Y-12320000D01*
D14*
X-74155000Y26849999D02*
X-56265000Y26849999D01*
X-74155000Y24089999D02*
X-74155000Y26849999D01*
X-74155000Y24089999D02*
X-56265000Y24089999D01*
X-74155000Y-8090001D02*
X-56265000Y-8090001D01*
X-74155000Y-10850001D02*
X-74155000Y-8090001D01*
X-74155000Y-10850001D02*
X-56265000Y-10850001D01*
X-56265000Y24089999D02*
X-56265000Y26849999D01*
X-56265000Y-10850001D02*
X-56265000Y-8090001D01*
D15*
X-54300001Y28320000D02*
X-79699999Y28320000D01*
X-51760000Y-9779999D02*
X-51760000Y25779999D01*
X-70500000Y10075000D02*
X-63500000Y10075000D01*
X-63500000Y6325000D01*
X-70500000Y6325000D01*
X-70500000Y10075000D01*
X-82240000Y25779999D02*
G75*
G02*
X-79699999Y28320000I2540001J0D01*
G01*
X-79699999Y-12320000D02*
G75*
G02*
X-82240000Y-9779999I0J2540001D01*
G01*
X-54300001Y28320000D02*
G75*
G02*
X-51760000Y25779999I1J-2540000D01*
G01*
X-51760000Y-9779999D02*
G75*
G02*
X-54300001Y-12320000I-2540000J-1D01*
G01*
D16*
%TO.C,TP3*%
X81350000Y-8140000D02*
X81850000Y-7640000D01*
X81350000Y-11740000D02*
X81350000Y-8140000D01*
X81850000Y-7640000D02*
X82650000Y-7640000D01*
X81850000Y-12240000D02*
X81350000Y-11740000D01*
X82650000Y-7640000D02*
X83150000Y-8140000D01*
X82650000Y-12240000D02*
X81850000Y-12240000D01*
X83150000Y-8140000D02*
X83150000Y-11740000D01*
X83150000Y-11740000D02*
X82650000Y-12240000D01*
D14*
%TO.C,J3*%
X-25275000Y69650000D02*
X-25275000Y68400000D01*
X-25275000Y68400000D02*
X-24025000Y68400000D01*
X-24985000Y81310000D02*
X-24985000Y68690000D01*
X-24985000Y68690000D02*
X-19015000Y68690000D01*
X-24975000Y81300000D02*
X-24975000Y79500000D01*
X-24975000Y79500000D02*
X-24225000Y79500000D01*
X-24975000Y78000000D02*
X-24975000Y72000000D01*
X-24975000Y72000000D02*
X-24225000Y72000000D01*
X-24975000Y70500000D02*
X-24975000Y68700000D01*
X-24975000Y68700000D02*
X-24225000Y68700000D01*
X-24225000Y81300000D02*
X-24975000Y81300000D01*
X-24225000Y79500000D02*
X-24225000Y81300000D01*
X-24225000Y78000000D02*
X-24975000Y78000000D01*
X-24225000Y72000000D02*
X-24225000Y78000000D01*
X-24225000Y70500000D02*
X-24975000Y70500000D01*
X-24225000Y68700000D02*
X-24225000Y70500000D01*
X-22725000Y81300000D02*
X-22725000Y80550000D01*
X-22725000Y80550000D02*
X-19775000Y80550000D01*
X-22725000Y69450000D02*
X-21385000Y69450000D01*
X-22725000Y68700000D02*
X-22725000Y69450000D01*
X-19775000Y80550000D02*
X-19775000Y75000000D01*
X-19775000Y75000000D02*
X-19775000Y70510000D01*
X-19015000Y81310000D02*
X-24985000Y81310000D01*
X-19015000Y68690000D02*
X-19015000Y81310000D01*
D16*
%TO.C,TP5*%
X19350000Y69320000D02*
X19850000Y69820000D01*
X19350000Y65720000D02*
X19350000Y69320000D01*
X19850000Y69820000D02*
X20650000Y69820000D01*
X19850000Y65220000D02*
X19350000Y65720000D01*
X20650000Y69820000D02*
X21150000Y69320000D01*
X20650000Y65220000D02*
X19850000Y65220000D01*
X21150000Y69320000D02*
X21150000Y65720000D01*
X21150000Y65720000D02*
X20650000Y65220000D01*
%TO.C,TP8*%
X81350000Y-1680000D02*
X81850000Y-1180000D01*
X81350000Y-5280000D02*
X81350000Y-1680000D01*
X81850000Y-1180000D02*
X82650000Y-1180000D01*
X81850000Y-5780000D02*
X81350000Y-5280000D01*
X82650000Y-1180000D02*
X83150000Y-1680000D01*
X82650000Y-5780000D02*
X81850000Y-5780000D01*
X83150000Y-1680000D02*
X83150000Y-5280000D01*
X83150000Y-5280000D02*
X82650000Y-5780000D01*
%TO.C,TP7*%
X19350000Y74570000D02*
X19850000Y75070000D01*
X19350000Y70970000D02*
X19350000Y74570000D01*
X19850000Y75070000D02*
X20650000Y75070000D01*
X19850000Y70470000D02*
X19350000Y70970000D01*
X20650000Y75070000D02*
X21150000Y74570000D01*
X20650000Y70470000D02*
X19850000Y70470000D01*
X21150000Y74570000D02*
X21150000Y70970000D01*
X21150000Y70970000D02*
X20650000Y70470000D01*
%TO.C,TP4*%
X19350000Y84990000D02*
X19850000Y85490000D01*
X19350000Y81390000D02*
X19350000Y84990000D01*
X19850000Y85490000D02*
X20650000Y85490000D01*
X19850000Y80890000D02*
X19350000Y81390000D01*
X20650000Y85490000D02*
X21150000Y84990000D01*
X20650000Y80890000D02*
X19850000Y80890000D01*
X21150000Y84990000D02*
X21150000Y81390000D01*
X21150000Y81390000D02*
X20650000Y80890000D01*
D13*
%TO.C,U3*%
X-17780000Y84140000D02*
X18480000Y84140000D01*
X-17780000Y66360000D02*
X-17780000Y84140000D01*
X18480000Y84140000D02*
X18480000Y66360000D01*
X18480000Y66360000D02*
X-17780000Y66360000D01*
D12*
X5600000Y77050000D02*
X-5500000Y77050000D01*
X-5500000Y73250000D01*
X5600000Y73250000D01*
X5600000Y77050000D01*
D16*
%TO.C,TP1*%
X81350000Y11320000D02*
X81850000Y11820000D01*
X81350000Y7720000D02*
X81350000Y11320000D01*
X81850000Y11820000D02*
X82650000Y11820000D01*
X81850000Y7220000D02*
X81350000Y7720000D01*
X82650000Y11820000D02*
X83150000Y11320000D01*
X82650000Y7220000D02*
X81850000Y7220000D01*
X83150000Y11320000D02*
X83150000Y7720000D01*
X83150000Y7720000D02*
X82650000Y7220000D01*
D13*
%TO.C,J2*%
X53350000Y18250000D02*
X55050000Y18250000D01*
X53350000Y15750000D02*
X53350000Y18250000D01*
X55050000Y23050000D02*
X64950000Y23050000D01*
X55050000Y18250000D02*
X55050000Y23050000D01*
X55050000Y15750000D02*
X53350000Y15750000D01*
X55050000Y14050000D02*
X55050000Y15750000D01*
X58000000Y29250000D02*
X57000000Y29250000D01*
X62500000Y29750000D02*
X62500000Y28750000D01*
X63000000Y29250000D02*
X62000000Y29250000D01*
X64950000Y23050000D02*
X64950000Y18250000D01*
X64950000Y18250000D02*
X66650000Y18250000D01*
X64950000Y15750000D02*
X64950000Y14050000D01*
X64950000Y14050000D02*
X55050000Y14050000D01*
X66650000Y18250000D02*
X66650000Y15750000D01*
X66650000Y15750000D02*
X64950000Y15750000D01*
D12*
%TO.C,SW2*%
X-30750000Y79250000D02*
X-27250000Y79250000D01*
X-30750000Y70750000D02*
X-30750000Y79250000D01*
X-27250000Y79250000D02*
X-27250000Y70750000D01*
X-27250000Y70750000D02*
X-30750000Y70750000D01*
D13*
%TO.C,J1*%
X68350000Y18250000D02*
X70050000Y18250000D01*
X68350000Y15750000D02*
X68350000Y18250000D01*
X70050000Y23050000D02*
X79950000Y23050000D01*
X70050000Y18250000D02*
X70050000Y23050000D01*
X70050000Y15750000D02*
X68350000Y15750000D01*
X70050000Y14050000D02*
X70050000Y15750000D01*
X73000000Y29250000D02*
X72000000Y29250000D01*
X77500000Y29750000D02*
X77500000Y28750000D01*
X78000000Y29250000D02*
X77000000Y29250000D01*
X79950000Y23050000D02*
X79950000Y18250000D01*
X79950000Y18250000D02*
X81650000Y18250000D01*
X79950000Y15750000D02*
X79950000Y14050000D01*
X79950000Y14050000D02*
X70050000Y14050000D01*
X81650000Y18250000D02*
X81650000Y15750000D01*
X81650000Y15750000D02*
X79950000Y15750000D01*
D14*
%TO.C,C3*%
X-84439491Y-16195000D02*
X-82839491Y-16195000D01*
X-83639491Y-15395000D02*
X-83639491Y-16995000D01*
X-75750000Y-12670000D02*
X-75750000Y-28830000D01*
X-75710000Y-12670000D02*
X-75710000Y-28830000D01*
X-75670000Y-12670000D02*
X-75670000Y-28830000D01*
X-75630000Y-12671000D02*
X-75630000Y-28829000D01*
X-75590000Y-12672000D02*
X-75590000Y-28828000D01*
X-75550000Y-12672000D02*
X-75550000Y-28828000D01*
X-75510000Y-12674000D02*
X-75510000Y-28826000D01*
X-75470000Y-12675000D02*
X-75470000Y-28825000D01*
X-75430000Y-12676000D02*
X-75430000Y-28824000D01*
X-75390000Y-12678000D02*
X-75390000Y-28822000D01*
X-75350000Y-12680000D02*
X-75350000Y-28820000D01*
X-75310000Y-12682000D02*
X-75310000Y-28818000D01*
X-75270000Y-12684000D02*
X-75270000Y-28816000D01*
X-75230000Y-12687000D02*
X-75230000Y-28813000D01*
X-75190000Y-12689000D02*
X-75190000Y-28811000D01*
X-75150000Y-12692000D02*
X-75150000Y-28808000D01*
X-75110000Y-12695000D02*
X-75110000Y-28805000D01*
X-75070000Y-12699000D02*
X-75070000Y-28801000D01*
X-75030000Y-12702000D02*
X-75030000Y-28798000D01*
X-74990000Y-12706000D02*
X-74990000Y-28794000D01*
X-74950000Y-12710000D02*
X-74950000Y-28790000D01*
X-74910000Y-12714000D02*
X-74910000Y-28786000D01*
X-74870000Y-12718000D02*
X-74870000Y-28782000D01*
X-74830000Y-12722000D02*
X-74830000Y-28778000D01*
X-74790000Y-12727000D02*
X-74790000Y-28773000D01*
X-74750000Y-12732000D02*
X-74750000Y-28768000D01*
X-74710000Y-12737000D02*
X-74710000Y-28763000D01*
X-74670000Y-12742000D02*
X-74670000Y-28758000D01*
X-74630000Y-12748000D02*
X-74630000Y-28752000D01*
X-74590000Y-12753000D02*
X-74590000Y-28747000D01*
X-74550000Y-12759000D02*
X-74550000Y-28741000D01*
X-74510000Y-12765000D02*
X-74510000Y-28735000D01*
X-74470000Y-12772000D02*
X-74470000Y-28728000D01*
X-74430000Y-12778000D02*
X-74430000Y-28722000D01*
X-74390000Y-12785000D02*
X-74390000Y-28715000D01*
X-74350000Y-12792000D02*
X-74350000Y-28708000D01*
X-74310000Y-12799000D02*
X-74310000Y-28701000D01*
X-74270000Y-12806000D02*
X-74270000Y-28694000D01*
X-74230000Y-12814000D02*
X-74230000Y-28686000D01*
X-74190000Y-12821000D02*
X-74190000Y-28679000D01*
X-74150000Y-12829000D02*
X-74150000Y-28671000D01*
X-74110000Y-12837000D02*
X-74110000Y-28663000D01*
X-74070000Y-12846000D02*
X-74070000Y-28654000D01*
X-74030000Y-12854000D02*
X-74030000Y-28646000D01*
X-73990000Y-12863000D02*
X-73990000Y-28637000D01*
X-73950000Y-12872000D02*
X-73950000Y-28628000D01*
X-73910000Y-12881000D02*
X-73910000Y-28619000D01*
X-73870000Y-12891000D02*
X-73870000Y-28609000D01*
X-73830000Y-12900000D02*
X-73830000Y-28600000D01*
X-73790000Y-12910000D02*
X-73790000Y-28590000D01*
X-73750000Y-12920000D02*
X-73750000Y-28580000D01*
X-73710000Y-12930000D02*
X-73710000Y-28570000D01*
X-73670000Y-12941000D02*
X-73670000Y-28559000D01*
X-73630000Y-12952000D02*
X-73630000Y-28548000D01*
X-73590000Y-12963000D02*
X-73590000Y-28537000D01*
X-73550000Y-12974000D02*
X-73550000Y-28526000D01*
X-73510000Y-12985000D02*
X-73510000Y-28515000D01*
X-73470000Y-12997000D02*
X-73470000Y-28503000D01*
X-73430000Y-13008000D02*
X-73430000Y-19310000D01*
X-73430000Y-22190000D02*
X-73430000Y-28492000D01*
X-73390000Y-13021000D02*
X-73390000Y-19310000D01*
X-73390000Y-22190000D02*
X-73390000Y-28479000D01*
X-73350000Y-13033000D02*
X-73350000Y-19310000D01*
X-73350000Y-22190000D02*
X-73350000Y-28467000D01*
X-73310000Y-13045000D02*
X-73310000Y-19310000D01*
X-73310000Y-22190000D02*
X-73310000Y-28455000D01*
X-73270000Y-13058000D02*
X-73270000Y-19310000D01*
X-73270000Y-22190000D02*
X-73270000Y-28442000D01*
X-73230000Y-13071000D02*
X-73230000Y-19310000D01*
X-73230000Y-22190000D02*
X-73230000Y-28429000D01*
X-73190000Y-13084000D02*
X-73190000Y-19310000D01*
X-73190000Y-22190000D02*
X-73190000Y-28416000D01*
X-73150000Y-13098000D02*
X-73150000Y-19310000D01*
X-73150000Y-22190000D02*
X-73150000Y-28402000D01*
X-73110000Y-13111000D02*
X-73110000Y-19310000D01*
X-73110000Y-22190000D02*
X-73110000Y-28389000D01*
X-73070000Y-13125000D02*
X-73070000Y-19310000D01*
X-73070000Y-22190000D02*
X-73070000Y-28375000D01*
X-73030000Y-13139000D02*
X-73030000Y-19310000D01*
X-73030000Y-22190000D02*
X-73030000Y-28361000D01*
X-72990000Y-13153000D02*
X-72990000Y-19310000D01*
X-72990000Y-22190000D02*
X-72990000Y-28347000D01*
X-72950000Y-13168000D02*
X-72950000Y-19310000D01*
X-72950000Y-22190000D02*
X-72950000Y-28332000D01*
X-72910000Y-13183000D02*
X-72910000Y-19310000D01*
X-72910000Y-22190000D02*
X-72910000Y-28317000D01*
X-72870000Y-13198000D02*
X-72870000Y-19310000D01*
X-72870000Y-22190000D02*
X-72870000Y-28302000D01*
X-72830000Y-13213000D02*
X-72830000Y-19310000D01*
X-72830000Y-22190000D02*
X-72830000Y-28287000D01*
X-72790000Y-13229000D02*
X-72790000Y-19310000D01*
X-72790000Y-22190000D02*
X-72790000Y-28271000D01*
X-72750000Y-13245000D02*
X-72750000Y-19310000D01*
X-72750000Y-22190000D02*
X-72750000Y-28255000D01*
X-72710000Y-13261000D02*
X-72710000Y-19310000D01*
X-72710000Y-22190000D02*
X-72710000Y-28239000D01*
X-72670000Y-13277000D02*
X-72670000Y-19310000D01*
X-72670000Y-22190000D02*
X-72670000Y-28223000D01*
X-72630000Y-13293000D02*
X-72630000Y-19310000D01*
X-72630000Y-22190000D02*
X-72630000Y-28207000D01*
X-72590000Y-13310000D02*
X-72590000Y-19310000D01*
X-72590000Y-22190000D02*
X-72590000Y-28190000D01*
X-72550000Y-13327000D02*
X-72550000Y-19310000D01*
X-72550000Y-22190000D02*
X-72550000Y-28173000D01*
X-72510000Y-13344000D02*
X-72510000Y-19310000D01*
X-72510000Y-22190000D02*
X-72510000Y-28156000D01*
X-72470000Y-13362000D02*
X-72470000Y-19310000D01*
X-72470000Y-22190000D02*
X-72470000Y-28138000D01*
X-72430000Y-13380000D02*
X-72430000Y-19310000D01*
X-72430000Y-22190000D02*
X-72430000Y-28120000D01*
X-72390000Y-13398000D02*
X-72390000Y-19310000D01*
X-72390000Y-22190000D02*
X-72390000Y-28102000D01*
X-72350000Y-13416000D02*
X-72350000Y-19310000D01*
X-72350000Y-22190000D02*
X-72350000Y-28084000D01*
X-72310000Y-13435000D02*
X-72310000Y-19310000D01*
X-72310000Y-22190000D02*
X-72310000Y-28065000D01*
X-72270000Y-13454000D02*
X-72270000Y-19310000D01*
X-72270000Y-22190000D02*
X-72270000Y-28046000D01*
X-72230000Y-13473000D02*
X-72230000Y-19310000D01*
X-72230000Y-22190000D02*
X-72230000Y-28027000D01*
X-72190000Y-13492000D02*
X-72190000Y-19310000D01*
X-72190000Y-22190000D02*
X-72190000Y-28008000D01*
X-72150000Y-13512000D02*
X-72150000Y-19310000D01*
X-72150000Y-22190000D02*
X-72150000Y-27988000D01*
X-72110000Y-13532000D02*
X-72110000Y-19310000D01*
X-72110000Y-22190000D02*
X-72110000Y-27968000D01*
X-72070000Y-13552000D02*
X-72070000Y-19310000D01*
X-72070000Y-22190000D02*
X-72070000Y-27948000D01*
X-72030000Y-13572000D02*
X-72030000Y-19310000D01*
X-72030000Y-22190000D02*
X-72030000Y-27928000D01*
X-71990000Y-13593000D02*
X-71990000Y-19310000D01*
X-71990000Y-22190000D02*
X-71990000Y-27907000D01*
X-71950000Y-13614000D02*
X-71950000Y-19310000D01*
X-71950000Y-22190000D02*
X-71950000Y-27886000D01*
X-71910000Y-13635000D02*
X-71910000Y-19310000D01*
X-71910000Y-22190000D02*
X-71910000Y-27865000D01*
X-71870000Y-13657000D02*
X-71870000Y-19310000D01*
X-71870000Y-22190000D02*
X-71870000Y-27843000D01*
X-71830000Y-13679000D02*
X-71830000Y-19310000D01*
X-71830000Y-22190000D02*
X-71830000Y-27821000D01*
X-71790000Y-13701000D02*
X-71790000Y-19310000D01*
X-71790000Y-22190000D02*
X-71790000Y-27799000D01*
X-71750000Y-13724000D02*
X-71750000Y-19310000D01*
X-71750000Y-22190000D02*
X-71750000Y-27776000D01*
X-71710000Y-13746000D02*
X-71710000Y-19310000D01*
X-71710000Y-22190000D02*
X-71710000Y-27754000D01*
X-71670000Y-13769000D02*
X-71670000Y-19310000D01*
X-71670000Y-22190000D02*
X-71670000Y-27731000D01*
X-71630000Y-13793000D02*
X-71630000Y-19310000D01*
X-71630000Y-22190000D02*
X-71630000Y-27707000D01*
X-71590000Y-13817000D02*
X-71590000Y-19310000D01*
X-71590000Y-22190000D02*
X-71590000Y-27683000D01*
X-71550000Y-13841000D02*
X-71550000Y-19310000D01*
X-71550000Y-22190000D02*
X-71550000Y-27659000D01*
X-71510000Y-13865000D02*
X-71510000Y-19310000D01*
X-71510000Y-22190000D02*
X-71510000Y-27635000D01*
X-71470000Y-13890000D02*
X-71470000Y-19310000D01*
X-71470000Y-22190000D02*
X-71470000Y-27610000D01*
X-71430000Y-13915000D02*
X-71430000Y-19310000D01*
X-71430000Y-22190000D02*
X-71430000Y-27585000D01*
X-71390000Y-13940000D02*
X-71390000Y-19310000D01*
X-71390000Y-22190000D02*
X-71390000Y-27560000D01*
X-71350000Y-13965000D02*
X-71350000Y-19310000D01*
X-71350000Y-22190000D02*
X-71350000Y-27535000D01*
X-71310000Y-13991000D02*
X-71310000Y-19310000D01*
X-71310000Y-22190000D02*
X-71310000Y-27509000D01*
X-71270000Y-14018000D02*
X-71270000Y-19310000D01*
X-71270000Y-22190000D02*
X-71270000Y-27482000D01*
X-71230000Y-14044000D02*
X-71230000Y-19310000D01*
X-71230000Y-22190000D02*
X-71230000Y-27456000D01*
X-71190000Y-14071000D02*
X-71190000Y-19310000D01*
X-71190000Y-22190000D02*
X-71190000Y-27429000D01*
X-71150000Y-14099000D02*
X-71150000Y-19310000D01*
X-71150000Y-22190000D02*
X-71150000Y-27401000D01*
X-71110000Y-14126000D02*
X-71110000Y-19310000D01*
X-71110000Y-22190000D02*
X-71110000Y-27374000D01*
X-71070000Y-14154000D02*
X-71070000Y-19310000D01*
X-71070000Y-22190000D02*
X-71070000Y-27346000D01*
X-71030000Y-14183000D02*
X-71030000Y-19310000D01*
X-71030000Y-22190000D02*
X-71030000Y-27317000D01*
X-70990000Y-14211000D02*
X-70990000Y-19310000D01*
X-70990000Y-22190000D02*
X-70990000Y-27289000D01*
X-70950000Y-14241000D02*
X-70950000Y-19310000D01*
X-70950000Y-22190000D02*
X-70950000Y-27259000D01*
X-70910000Y-14270000D02*
X-70910000Y-19310000D01*
X-70910000Y-22190000D02*
X-70910000Y-27230000D01*
X-70870000Y-14300000D02*
X-70870000Y-19310000D01*
X-70870000Y-22190000D02*
X-70870000Y-27200000D01*
X-70830000Y-14330000D02*
X-70830000Y-19310000D01*
X-70830000Y-22190000D02*
X-70830000Y-27170000D01*
X-70790000Y-14361000D02*
X-70790000Y-19310000D01*
X-70790000Y-22190000D02*
X-70790000Y-27139000D01*
X-70750000Y-14392000D02*
X-70750000Y-19310000D01*
X-70750000Y-22190000D02*
X-70750000Y-27108000D01*
X-70710000Y-14423000D02*
X-70710000Y-19310000D01*
X-70710000Y-22190000D02*
X-70710000Y-27077000D01*
X-70670000Y-14455000D02*
X-70670000Y-19310000D01*
X-70670000Y-22190000D02*
X-70670000Y-27045000D01*
X-70630000Y-14488000D02*
X-70630000Y-19310000D01*
X-70630000Y-22190000D02*
X-70630000Y-27012000D01*
X-70590000Y-14520000D02*
X-70590000Y-19310000D01*
X-70590000Y-22190000D02*
X-70590000Y-26980000D01*
X-70550000Y-14553000D02*
X-70550000Y-26947000D01*
X-70510000Y-14587000D02*
X-70510000Y-26913000D01*
X-70470000Y-14621000D02*
X-70470000Y-26879000D01*
X-70430000Y-14656000D02*
X-70430000Y-26844000D01*
X-70390000Y-14690000D02*
X-70390000Y-26810000D01*
X-70350000Y-14726000D02*
X-70350000Y-26774000D01*
X-70310000Y-14762000D02*
X-70310000Y-26738000D01*
X-70270000Y-14798000D02*
X-70270000Y-26702000D01*
X-70230000Y-14835000D02*
X-70230000Y-26665000D01*
X-70190000Y-14872000D02*
X-70190000Y-26628000D01*
X-70150000Y-14910000D02*
X-70150000Y-26590000D01*
X-70110000Y-14948000D02*
X-70110000Y-26552000D01*
X-70070000Y-14987000D02*
X-70070000Y-26513000D01*
X-70030000Y-15027000D02*
X-70030000Y-26473000D01*
X-69990000Y-15067000D02*
X-69990000Y-26433000D01*
X-69950000Y-15107000D02*
X-69950000Y-26393000D01*
X-69910000Y-15148000D02*
X-69910000Y-26352000D01*
X-69870000Y-15190000D02*
X-69870000Y-26310000D01*
X-69830000Y-15232000D02*
X-69830000Y-26268000D01*
X-69790000Y-15275000D02*
X-69790000Y-26225000D01*
X-69750000Y-15319000D02*
X-69750000Y-26181000D01*
X-69710000Y-15363000D02*
X-69710000Y-26137000D01*
X-69670000Y-15408000D02*
X-69670000Y-26092000D01*
X-69630000Y-15453000D02*
X-69630000Y-26047000D01*
X-69590000Y-15500000D02*
X-69590000Y-26000000D01*
X-69550000Y-15546000D02*
X-69550000Y-25954000D01*
X-69510000Y-15594000D02*
X-69510000Y-25906000D01*
X-69470000Y-15643000D02*
X-69470000Y-25857000D01*
X-69430000Y-15692000D02*
X-69430000Y-25808000D01*
X-69390000Y-15742000D02*
X-69390000Y-25758000D01*
X-69350000Y-15793000D02*
X-69350000Y-25707000D01*
X-69310000Y-15844000D02*
X-69310000Y-25656000D01*
X-69270000Y-15897000D02*
X-69270000Y-25603000D01*
X-69230000Y-15950000D02*
X-69230000Y-25550000D01*
X-69190000Y-16005000D02*
X-69190000Y-25495000D01*
X-69150000Y-16060000D02*
X-69150000Y-25440000D01*
X-69110000Y-16116000D02*
X-69110000Y-25384000D01*
X-69070000Y-16174000D02*
X-69070000Y-25326000D01*
X-69030000Y-16232000D02*
X-69030000Y-25268000D01*
X-68990000Y-16291000D02*
X-68990000Y-25209000D01*
X-68950000Y-16352000D02*
X-68950000Y-25148000D01*
X-68910000Y-16414000D02*
X-68910000Y-25086000D01*
X-68870000Y-16477000D02*
X-68870000Y-25023000D01*
X-68830000Y-16542000D02*
X-68830000Y-24958000D01*
X-68790000Y-16608000D02*
X-68790000Y-24892000D01*
X-68750000Y-16675000D02*
X-68750000Y-24825000D01*
X-68710000Y-16744000D02*
X-68710000Y-24756000D01*
X-68670000Y-16814000D02*
X-68670000Y-24686000D01*
X-68630000Y-16886000D02*
X-68630000Y-24614000D01*
X-68590000Y-16960000D02*
X-68590000Y-24540000D01*
X-68550000Y-17036000D02*
X-68550000Y-24464000D01*
X-68510000Y-17113000D02*
X-68510000Y-24387000D01*
X-68470000Y-17193000D02*
X-68470000Y-24307000D01*
X-68430000Y-17275000D02*
X-68430000Y-24225000D01*
X-68390000Y-17360000D02*
X-68390000Y-24140000D01*
X-68350000Y-17447000D02*
X-68350000Y-24053000D01*
X-68310000Y-17537000D02*
X-68310000Y-23963000D01*
X-68270000Y-17630000D02*
X-68270000Y-23870000D01*
X-68230000Y-17727000D02*
X-68230000Y-23773000D01*
X-68190000Y-17827000D02*
X-68190000Y-23673000D01*
X-68150000Y-17931000D02*
X-68150000Y-23569000D01*
X-68110000Y-18040000D02*
X-68110000Y-23460000D01*
X-68070000Y-18153000D02*
X-68070000Y-23347000D01*
X-68030000Y-18273000D02*
X-68030000Y-23227000D01*
X-67990000Y-18399000D02*
X-67990000Y-23101000D01*
X-67950000Y-18533000D02*
X-67950000Y-22967000D01*
X-67910000Y-18676000D02*
X-67910000Y-22824000D01*
X-67870000Y-18830000D02*
X-67870000Y-22670000D01*
X-67830000Y-18999000D02*
X-67830000Y-22501000D01*
X-67790000Y-19186000D02*
X-67790000Y-22314000D01*
X-67750000Y-19399000D02*
X-67750000Y-22101000D01*
X-67710000Y-19653000D02*
X-67710000Y-21847000D01*
X-67670000Y-19985000D02*
X-67670000Y-21515000D01*
X-67630000Y-20750000D02*
G75*
G02*
X-83870000Y-20750000I-8120000J0D01*
G01*
X-83870000Y-20750000D02*
G75*
G02*
X-67630000Y-20750000I8120000J0D01*
G01*
D16*
%TO.C,TP2*%
X81350000Y4820000D02*
X81850000Y5320000D01*
X81350000Y1220000D02*
X81350000Y4820000D01*
X81850000Y5320000D02*
X82650000Y5320000D01*
X81850000Y720000D02*
X81350000Y1220000D01*
X82650000Y5320000D02*
X83150000Y4820000D01*
X82650000Y720000D02*
X81850000Y720000D01*
X83150000Y4820000D02*
X83150000Y1220000D01*
X83150000Y1220000D02*
X82650000Y720000D01*
%TO.C,TP6*%
X19350000Y79820000D02*
X19850000Y80320000D01*
X19350000Y76220000D02*
X19350000Y79820000D01*
X19850000Y80320000D02*
X20650000Y80320000D01*
X19850000Y75720000D02*
X19350000Y76220000D01*
X20650000Y80320000D02*
X21150000Y79820000D01*
X20650000Y75720000D02*
X19850000Y75720000D01*
X21150000Y79820000D02*
X21150000Y76220000D01*
X21150000Y76220000D02*
X20650000Y75720000D01*
D13*
%TO.C,J4*%
X53350000Y-15750000D02*
X55050000Y-15750000D01*
X53350000Y-18250000D02*
X53350000Y-15750000D01*
X55050000Y-14050000D02*
X64950000Y-14050000D01*
X55050000Y-15750000D02*
X55050000Y-14050000D01*
X55050000Y-18250000D02*
X53350000Y-18250000D01*
X55050000Y-23050000D02*
X55050000Y-18250000D01*
X57000000Y-29250000D02*
X58000000Y-29250000D01*
X57500000Y-29750000D02*
X57500000Y-28750000D01*
X62000000Y-29250000D02*
X63000000Y-29250000D01*
X64950000Y-14050000D02*
X64950000Y-15750000D01*
X64950000Y-15750000D02*
X66650000Y-15750000D01*
X64950000Y-18250000D02*
X64950000Y-23050000D01*
X64950000Y-23050000D02*
X55050000Y-23050000D01*
X66650000Y-15750000D02*
X66650000Y-18250000D01*
X66650000Y-18250000D02*
X64950000Y-18250000D01*
%TD*%
%LPC*%
D17*
%TO.C,H32*%
X32931764Y-76187262D03*
D18*
X32931764Y-76187262D03*
%TD*%
D19*
%TO.C,H2*%
X34865279Y75322057D03*
D20*
X34865279Y75322057D03*
%TD*%
D17*
%TO.C,H26*%
X12500000Y-40416626D03*
D18*
X12500000Y-40416626D03*
%TD*%
D17*
%TO.C,H14*%
X10000000Y21875000D03*
D18*
X10000000Y21875000D03*
%TD*%
D17*
%TO.C,H23*%
X-75322057Y-34865279D03*
D18*
X-75322057Y-34865279D03*
%TD*%
D21*
%TO.C,J5*%
X77500000Y-27000000D03*
D22*
X72500000Y-27000000D03*
D23*
X80500000Y-17000000D03*
X69500000Y-17000000D03*
%TD*%
D24*
%TO.C,C4*%
X-62512754Y-20750000D03*
D25*
X-55012754Y-20750000D03*
%TD*%
D17*
%TO.C,H20*%
X40000000Y-22500000D03*
D18*
X40000000Y-22500000D03*
%TD*%
D26*
%TO.C,U4*%
X-75425000Y25469999D03*
D27*
X-72885000Y25469999D03*
X-70345000Y25469999D03*
D26*
X-75425000Y-9470001D03*
D27*
X-72885000Y-9470001D03*
X-67805000Y25469999D03*
X-65265000Y25469999D03*
X-60185000Y-9470001D03*
X-57645000Y-9470001D03*
X-62725000Y25469999D03*
X-60185000Y25469999D03*
X-57645000Y25469999D03*
X-70345000Y-9470001D03*
X-67805000Y-9470001D03*
X-65265000Y-9470001D03*
X-62725000Y-9470001D03*
%TD*%
D17*
%TO.C,H31*%
X-32931764Y-76187262D03*
D18*
X-32931764Y-76187262D03*
%TD*%
D28*
%TO.C,TP3*%
X82250000Y-11210000D03*
X82250000Y-8670000D03*
%TD*%
D17*
%TO.C,H27*%
X-29586721Y-49385711D03*
D18*
X-29586721Y-49385711D03*
%TD*%
D17*
%TO.C,H25*%
X-12500000Y-40416626D03*
D18*
X-12500000Y-40416626D03*
%TD*%
D29*
%TO.C,J3*%
X-20525000Y69650000D03*
D30*
X-22525000Y71250000D03*
D31*
X-22525000Y73750000D03*
X-22525000Y76250000D03*
X-22525000Y78750000D03*
%TD*%
D17*
%TO.C,H16*%
X4000000Y10000000D03*
D18*
X4000000Y10000000D03*
%TD*%
D28*
%TO.C,TP5*%
X20250000Y66250000D03*
X20250000Y68790000D03*
%TD*%
%TO.C,TP8*%
X82250000Y-4750000D03*
X82250000Y-2210000D03*
%TD*%
D17*
%TO.C,H12*%
X40000000Y22500000D03*
D18*
X40000000Y22500000D03*
%TD*%
D17*
%TO.C,H22*%
X49385711Y-29586721D03*
D18*
X49385711Y-29586721D03*
%TD*%
D19*
%TO.C,H34*%
X0Y-65416626D03*
D20*
X0Y-65416626D03*
%TD*%
D28*
%TO.C,TP7*%
X20250000Y71500000D03*
X20250000Y74040000D03*
%TD*%
D17*
%TO.C,H29*%
X-12500000Y-65416626D03*
D18*
X-12500000Y-65416626D03*
%TD*%
D17*
%TO.C,H18*%
X4000000Y-10000000D03*
D18*
X4000000Y-10000000D03*
%TD*%
D17*
%TO.C,H3*%
X-29586721Y49385711D03*
D18*
X-29586721Y49385711D03*
%TD*%
D17*
%TO.C,H11*%
X-40000000Y22500000D03*
D18*
X-40000000Y22500000D03*
%TD*%
D17*
%TO.C,H21*%
X-49385711Y-29586721D03*
D18*
X-49385711Y-29586721D03*
%TD*%
D28*
%TO.C,TP4*%
X20250000Y84460000D03*
X20250000Y81920000D03*
%TD*%
D17*
%TO.C,H19*%
X-40000000Y-22500000D03*
D18*
X-40000000Y-22500000D03*
%TD*%
D17*
%TO.C,H5*%
X-10000000Y41925000D03*
D18*
X-10000000Y41925000D03*
%TD*%
D32*
%TO.C,U3*%
X13970000Y82870000D03*
X11430000Y82870000D03*
X8890000Y82870000D03*
X6350000Y82870000D03*
X-16510000Y77790000D03*
X11430000Y67630000D03*
X3810000Y82870000D03*
X1270000Y82870000D03*
X-1270000Y82870000D03*
X-3810000Y82870000D03*
X-6350000Y82870000D03*
X-8890000Y82870000D03*
X-11430000Y82870000D03*
X-13970000Y82870000D03*
X-16510000Y82870000D03*
X-16510000Y67630000D03*
X-13970000Y67630000D03*
X-11430000Y67630000D03*
X-8890000Y67630000D03*
X-6350000Y67630000D03*
X-3810000Y67630000D03*
X-1270000Y67630000D03*
X1270000Y67630000D03*
X3810000Y67630000D03*
X6350000Y67630000D03*
X8890000Y67630000D03*
X16510000Y82870000D03*
X-16510000Y75250000D03*
X13970000Y67630000D03*
X-16510000Y70170000D03*
X-16510000Y72710000D03*
X-16510000Y80330000D03*
X16510000Y67630000D03*
%TD*%
D17*
%TO.C,H8*%
X75322057Y34865279D03*
D18*
X75322057Y34865279D03*
%TD*%
D17*
%TO.C,H7*%
X-75322057Y34865279D03*
D18*
X-75322057Y34865279D03*
%TD*%
D17*
%TO.C,H15*%
X-4000000Y10000000D03*
D18*
X-4000000Y10000000D03*
%TD*%
D17*
%TO.C,H17*%
X-4000000Y-10000000D03*
D18*
X-4000000Y-10000000D03*
%TD*%
D17*
%TO.C,H28*%
X29586721Y-49385711D03*
D18*
X29586721Y-49385711D03*
%TD*%
D28*
%TO.C,TP1*%
X82250000Y8250000D03*
X82250000Y10790000D03*
%TD*%
D21*
%TO.C,J2*%
X57500000Y27000000D03*
D33*
X62500000Y27000000D03*
D23*
X54500000Y17000000D03*
X65500000Y17000000D03*
%TD*%
D17*
%TO.C,H30*%
X12500000Y-65416626D03*
D18*
X12500000Y-65416626D03*
%TD*%
D17*
%TO.C,H6*%
X10000000Y41925000D03*
D18*
X10000000Y41925000D03*
%TD*%
D19*
%TO.C,H33*%
X0Y-35416626D03*
D20*
X0Y-35416626D03*
%TD*%
D17*
%TO.C,H10*%
X49385711Y29586721D03*
D18*
X49385711Y29586721D03*
%TD*%
D17*
%TO.C,H9*%
X-49385711Y29586721D03*
D18*
X-49385711Y29586721D03*
%TD*%
D17*
%TO.C,H4*%
X29586721Y49385711D03*
D18*
X29586721Y49385711D03*
%TD*%
D28*
%TO.C,SW2*%
X-29000000Y72500000D03*
X-29000000Y75000000D03*
X-29000000Y77500000D03*
%TD*%
D17*
%TO.C,H13*%
X-10000000Y21875000D03*
D18*
X-10000000Y21875000D03*
%TD*%
D21*
%TO.C,J1*%
X72500000Y27000000D03*
D33*
X77500000Y27000000D03*
D23*
X69500000Y17000000D03*
X80500000Y17000000D03*
%TD*%
D24*
%TO.C,C3*%
X-79500000Y-20750000D03*
D25*
X-72000000Y-20750000D03*
%TD*%
D17*
%TO.C,H24*%
X75322057Y-34865279D03*
D18*
X75322057Y-34865279D03*
%TD*%
D28*
%TO.C,TP2*%
X82250000Y1750000D03*
X82250000Y4290000D03*
%TD*%
%TO.C,TP6*%
X20250000Y76750000D03*
X20250000Y79290000D03*
%TD*%
D21*
%TO.C,J4*%
X62500000Y-27000000D03*
D22*
X57500000Y-27000000D03*
D23*
X65500000Y-17000000D03*
X54500000Y-17000000D03*
%TD*%
D19*
%TO.C,H1*%
X-34865279Y75322057D03*
D20*
X-34865279Y75322057D03*
%TD*%
%LPD*%
M02*
