M48
; DRILL file {KiCad 9.0.6} date 2026-02-23T20:56:21+0800
; FORMAT={-:-/ absolute / inch / decimal}
; #@! TF.CreationDate,2026-02-23T20:56:21+08:00
; #@! TF.GenerationSoftware,Kicad,Pcbnew,9.0.6
; #@! TF.FileFunction,Plated,1,2,PTH
FMAT,2
INCH
; #@! TA.AperFunction,Plated,PTH,ViaDrill
T1C0.0118
; #@! TA.AperFunction,Plated,PTH,ViaDrill
T2C0.0157
; #@! TA.AperFunction,Plated,PTH,ComponentDrill
T3C0.0315
; #@! TA.AperFunction,Plated,PTH,ComponentDrill
T4C0.0354
; #@! TA.AperFunction,Plated,PTH,ComponentDrill
T5C0.0374
; #@! TA.AperFunction,Plated,PTH,ComponentDrill
T6C0.0394
; #@! TA.AperFunction,Plated,PTH,ComponentDrill
T7C0.0402
; #@! TA.AperFunction,Plated,PTH,ComponentDrill
T8C0.0472
; #@! TA.AperFunction,Plated,PTH,ComponentDrill
T9C0.0669
; #@! TA.AperFunction,Plated,PTH,ComponentDrill
T10C0.0866
; #@! TA.AperFunction,Plated,PTH,ComponentDrill
T11C0.1260
%
G90
G05
T1
X-0.7972Y-0.1378
X-0.5906Y-0.0098
X-0.315Y0.1378
X-0.315Y-0.1378
X-0.128Y1.6437
X-0.0492Y1.6437
X0.0Y0.0886
X0.0Y-0.0689
X0.0394Y1.6437
X0.0886Y-0.128
X0.128Y1.6437
X0.128Y0.7283
X0.561Y0.0394
X0.6201Y-0.0098
X0.7972Y0.1388
T2
X-1.8898Y0.0
X-1.8535Y-0.3687
X-1.8307Y0.4035
X-1.7459Y0.7232
X-1.7459Y-0.7232
X-1.5713Y1.0499
X-1.5354Y-1.0433
X-1.3363Y1.3363
X-1.3363Y-1.3363
X-1.0499Y1.5713
X-1.0335Y-1.5945
X-0.7232Y1.7459
X-0.7232Y-1.7459
X-0.3687Y1.8535
X-0.3687Y-1.8535
X0.0Y1.8898
X0.0Y-1.8898
X0.3687Y1.8535
X0.3687Y-1.8535
X0.7232Y1.7459
X0.7232Y-1.7459
X1.0236Y-1.5945
X1.0499Y1.5713
X1.3363Y1.3363
X1.3363Y-1.3363
X1.5256Y-1.0499
X1.5713Y1.0499
X1.7459Y0.7232
X1.7459Y-0.7232
X1.8535Y0.3687
X1.8898Y0.0
X1.9291Y-0.5118
T3
X0.7972Y3.3252
X0.7972Y3.2252
X0.7972Y3.1217
X0.7972Y3.0217
X0.7972Y2.915
X0.7972Y2.815
X0.7972Y2.7083
X0.7972Y2.6083
X3.2382Y0.4248
X3.2382Y0.3248
X3.2382Y0.1689
X3.2382Y0.0689
X3.2382Y-0.087
X3.2382Y-0.187
X3.2382Y-0.3413
X3.2382Y-0.4413
T4
X-1.1417Y3.0512
X-1.1417Y2.9528
X-1.1417Y2.8543
T5
X-0.8868Y3.1004
X-0.8868Y3.002
X-0.8868Y2.9035
X-0.8868Y2.8051
T6
X-2.9695Y1.0028
X-2.9695Y-0.3728
X-2.8695Y1.0028
X-2.8695Y-0.3728
X-2.7695Y1.0028
X-2.7695Y-0.3728
X-2.6695Y1.0028
X-2.6695Y-0.3728
X-2.5695Y1.0028
X-2.5695Y-0.3728
X-2.4695Y1.0028
X-2.4695Y-0.3728
X-2.3695Y1.0028
X-2.3695Y-0.3728
X-2.2695Y1.0028
X-2.2695Y-0.3728
X2.1457Y0.6693
X2.1457Y-0.6693
X2.5787Y0.6693
X2.5787Y-0.6693
X2.7362Y0.6693
X2.7362Y-0.6693
X3.1693Y0.6693
X3.1693Y-0.6693
T7
X-0.65Y3.2626
X-0.65Y3.1626
X-0.65Y3.0626
X-0.65Y2.9626
X-0.65Y2.8626
X-0.65Y2.7626
X-0.65Y2.6626
X-0.55Y3.2626
X-0.55Y2.6626
X-0.45Y3.2626
X-0.45Y2.6626
X-0.35Y3.2626
X-0.35Y2.6626
X-0.25Y3.2626
X-0.25Y2.6626
X-0.15Y3.2626
X-0.15Y2.6626
X-0.05Y3.2626
X-0.05Y2.6626
X0.05Y3.2626
X0.05Y2.6626
X0.15Y3.2626
X0.15Y2.6626
X0.25Y3.2626
X0.25Y2.6626
X0.35Y3.2626
X0.35Y2.6626
X0.45Y3.2626
X0.45Y2.6626
X0.55Y3.2626
X0.55Y2.6626
X0.65Y3.2626
X0.65Y2.6626
T8
X-3.1299Y-0.8169
X-2.8346Y-0.8169
X-2.4611Y-0.8169
X-2.1659Y-0.8169
T9
X2.2638Y1.063
X2.2638Y-1.063
X2.4606Y1.063
X2.4606Y-1.063
X2.8543Y1.063
X2.8543Y-1.063
X3.0512Y1.063
X3.0512Y-1.063
T10
X-1.3726Y2.9654
X0.0Y-1.3944
X0.0Y-2.5755
X1.3726Y2.9654
T11
X-2.9654Y1.3726
X-2.9654Y-1.3726
X-1.9443Y1.1648
X-1.9443Y-1.1648
X-1.5748Y0.8858
X-1.5748Y-0.8858
X-1.2965Y-2.9995
X-1.1648Y1.9443
X-1.1648Y-1.9443
X-0.4921Y-1.5912
X-0.4921Y-2.5755
X-0.3937Y1.6506
X-0.3937Y0.8612
X-0.1575Y0.3937
X-0.1575Y-0.3937
X0.1575Y0.3937
X0.1575Y-0.3937
X0.3937Y1.6506
X0.3937Y0.8612
X0.4921Y-1.5912
X0.4921Y-2.5755
X1.1648Y1.9443
X1.1648Y-1.9443
X1.2965Y-2.9995
X1.5748Y0.8858
X1.5748Y-0.8858
X1.9443Y1.1648
X1.9443Y-1.1648
X2.9654Y1.3726
X2.9654Y-1.3726
M30
