%TF.GenerationSoftware,KiCad,Pcbnew,9.0.6*%
%TF.CreationDate,2026-01-24T12:28:01+08:00*%
%TF.ProjectId,layer1,6c617965-7231-42e6-9b69-6361645f7063,rev?*%
%TF.SameCoordinates,Original*%
%TF.FileFunction,Legend,Top*%
%TF.FilePolarity,Positive*%
%FSLAX46Y46*%
G04 Gerber Fmt 4.6, Leading zero omitted, Abs format (unit mm)*
G04 Created by KiCad (PCBNEW 9.0.6) date 2026-01-24 12:28:01*
%MOMM*%
%LPD*%
G01*
G04 APERTURE LIST*
G04 Aperture macros list*
%AMRoundRect*
0 Rectangle with rounded corners*
0 $1 Rounding radius*
0 $2 $3 $4 $5 $6 $7 $8 $9 X,Y pos of 4 corners*
0 Add a 4 corners polygon primitive as box body*
4,1,4,$2,$3,$4,$5,$6,$7,$8,$9,$2,$3,0*
0 Add four circle primitives for the rounded corners*
1,1,$1+$1,$2,$3*
1,1,$1+$1,$4,$5*
1,1,$1+$1,$6,$7*
1,1,$1+$1,$8,$9*
0 Add four rect primitives between the rounded corners*
20,1,$1+$1,$2,$3,$4,$5,0*
20,1,$1+$1,$4,$5,$6,$7,0*
20,1,$1+$1,$6,$7,$8,$9,0*
20,1,$1+$1,$8,$9,$2,$3,0*%
G04 Aperture macros list end*
%ADD10C,0.200000*%
%ADD11C,0.300000*%
%ADD12C,0.120000*%
%ADD13C,0.127000*%
%ADD14C,0.050000*%
%ADD15RoundRect,0.250000X0.600000X0.725000X-0.600000X0.725000X-0.600000X-0.725000X0.600000X-0.725000X0*%
%ADD16O,1.700000X1.950000*%
%ADD17C,3.600000*%
%ADD18C,5.600000*%
%ADD19R,1.700000X1.700000*%
%ADD20O,1.700000X1.700000*%
%ADD21C,1.734000*%
%ADD22RoundRect,0.250000X-0.600000X-0.725000X0.600000X-0.725000X0.600000X0.725000X-0.600000X0.725000X0*%
%ADD23C,2.600000*%
%ADD24C,3.800000*%
G04 APERTURE END LIST*
D10*
X-75950000Y2075000D02*
X-62750000Y2075000D01*
X-62750000Y-1675000D01*
X-75950000Y-1675000D01*
X-75950000Y2075000D01*
X62450000Y2075000D02*
X76250000Y2075000D01*
X76250000Y-1675000D01*
X62450000Y-1675000D01*
X62450000Y2075000D01*
X-5650000Y67225000D02*
X5650000Y67225000D01*
X5650000Y63475000D01*
X-5650000Y63475000D01*
X-5650000Y67225000D01*
D11*
G36*
X-73308845Y864696D02*
G01*
X-73261560Y831479D01*
X-73231018Y774670D01*
X-73219149Y683696D01*
X-73219149Y-385111D01*
X-73231018Y-476086D01*
X-73261560Y-532895D01*
X-73308845Y-566111D01*
X-73378639Y-578185D01*
X-73448433Y-566111D01*
X-73495719Y-532895D01*
X-73526260Y-476086D01*
X-73538130Y-385111D01*
X-73538130Y683696D01*
X-73526260Y774670D01*
X-73495719Y831479D01*
X-73448433Y864696D01*
X-73378639Y876770D01*
X-73308845Y864696D01*
G37*
G36*
X-71194679Y864696D02*
G01*
X-71147394Y831479D01*
X-71116852Y774670D01*
X-71104983Y683696D01*
X-71104983Y-385111D01*
X-71116852Y-476086D01*
X-71147394Y-532895D01*
X-71194679Y-566111D01*
X-71264473Y-578185D01*
X-71334267Y-566111D01*
X-71381553Y-532895D01*
X-71412094Y-476086D01*
X-71423964Y-385111D01*
X-71423964Y683696D01*
X-71412094Y774670D01*
X-71381553Y831479D01*
X-71334267Y864696D01*
X-71264473Y876770D01*
X-71194679Y864696D01*
G37*
G36*
X-70069413Y835951D02*
G01*
X-70023109Y801176D01*
X-69996277Y744675D01*
X-69985373Y647425D01*
X-69985373Y496239D01*
X-69991572Y422881D01*
X-70007727Y371660D01*
X-70031535Y336749D01*
X-70086214Y302188D01*
X-70170021Y289243D01*
X-70281884Y289243D01*
X-70281884Y848804D01*
X-70142055Y848804D01*
X-70069413Y835951D01*
G37*
G36*
X-68481894Y836933D02*
G01*
X-68434309Y803985D01*
X-68405251Y750194D01*
X-68393643Y658539D01*
X-68393643Y-359954D01*
X-68405246Y-451629D01*
X-68434309Y-505523D01*
X-68481883Y-538377D01*
X-68550324Y-550219D01*
X-68707006Y-550219D01*
X-68707006Y848804D01*
X-68550324Y848804D01*
X-68481894Y836933D01*
G37*
G36*
X-67359295Y835951D02*
G01*
X-67312990Y801176D01*
X-67286158Y744675D01*
X-67275255Y647425D01*
X-67275255Y496239D01*
X-67281454Y422881D01*
X-67297608Y371660D01*
X-67321417Y336749D01*
X-67376095Y302188D01*
X-67459902Y289243D01*
X-67571766Y289243D01*
X-67571766Y848804D01*
X-67431936Y848804D01*
X-67359295Y835951D01*
G37*
G36*
X-63609678Y835951D02*
G01*
X-63563374Y801176D01*
X-63536542Y744675D01*
X-63525639Y647425D01*
X-63525639Y496239D01*
X-63531837Y422881D01*
X-63547992Y371660D01*
X-63571800Y336749D01*
X-63626479Y302188D01*
X-63710286Y289243D01*
X-63822149Y289243D01*
X-63822149Y848804D01*
X-63682320Y848804D01*
X-63609678Y835951D01*
G37*
G36*
X-62959156Y-1080187D02*
G01*
X-75550285Y-1080187D01*
X-75550285Y-830000D01*
X-75328063Y-830000D01*
X-75059396Y-830000D01*
X-75059396Y652921D01*
X-75053779Y652921D01*
X-74829930Y-830000D01*
X-74572498Y-830000D01*
X-74348650Y652921D01*
X-74343154Y652921D01*
X-74343154Y-830000D01*
X-74052139Y-830000D01*
X-74052139Y664156D01*
X-73845876Y664156D01*
X-73845876Y-365572D01*
X-73837343Y-483190D01*
X-73813493Y-580789D01*
X-73776075Y-661888D01*
X-73725586Y-729249D01*
X-73661560Y-783697D01*
X-73584351Y-823623D01*
X-73491253Y-848926D01*
X-73378639Y-857965D01*
X-73265956Y-848922D01*
X-73172842Y-823614D01*
X-73095660Y-783687D01*
X-73031692Y-729249D01*
X-72981148Y-661880D01*
X-72943692Y-580778D01*
X-72919820Y-483182D01*
X-72911281Y-365572D01*
X-72911281Y664156D01*
X-72919822Y781833D01*
X-72936198Y848804D01*
X-72796731Y848804D01*
X-72474941Y848804D01*
X-72474941Y-830000D01*
X-72167195Y-830000D01*
X-72167195Y664156D01*
X-71731710Y664156D01*
X-71731710Y-365572D01*
X-71723177Y-483190D01*
X-71699327Y-580789D01*
X-71661909Y-661888D01*
X-71611420Y-729249D01*
X-71547394Y-783697D01*
X-71470185Y-823623D01*
X-71377087Y-848926D01*
X-71264473Y-857965D01*
X-71151790Y-848922D01*
X-71058676Y-823614D01*
X-70981494Y-783687D01*
X-70917526Y-729249D01*
X-70866982Y-661880D01*
X-70829526Y-580778D01*
X-70805654Y-483182D01*
X-70797114Y-365572D01*
X-70797114Y289243D01*
X-70589752Y289243D01*
X-70589752Y-830000D01*
X-70281884Y-830000D01*
X-70281884Y9463D01*
X-70175639Y9463D01*
X-70106855Y2479D01*
X-70058807Y-15913D01*
X-70025918Y-43782D01*
X-70004130Y-82147D01*
X-69988662Y-141899D01*
X-69982565Y-231238D01*
X-69982565Y-589420D01*
X-69976947Y-740484D01*
X-69954599Y-830000D01*
X-69641113Y-830000D01*
X-69659466Y-778971D01*
X-69669201Y-727906D01*
X-69674696Y-592107D01*
X-69674696Y-550219D01*
X-69014874Y-550219D01*
X-69014874Y-830000D01*
X-68544707Y-830000D01*
X-68430004Y-821156D01*
X-68337011Y-796644D01*
X-68261615Y-758421D01*
X-68200691Y-706901D01*
X-68153022Y-642611D01*
X-68117273Y-563278D01*
X-68094222Y-465712D01*
X-68085897Y-345910D01*
X-68085897Y289243D01*
X-67879634Y289243D01*
X-67879634Y-830000D01*
X-67571766Y-830000D01*
X-67571766Y9463D01*
X-67465520Y9463D01*
X-67396736Y2479D01*
X-67348688Y-15913D01*
X-67315799Y-43782D01*
X-67294011Y-82147D01*
X-67278544Y-141899D01*
X-67272446Y-231238D01*
X-67272446Y-589420D01*
X-67266828Y-740484D01*
X-67244480Y-830000D01*
X-66930994Y-830000D01*
X-66752209Y-830000D01*
X-66444341Y-830000D01*
X-66444341Y1128584D01*
X-66295963Y1128584D01*
X-65999330Y-830000D01*
X-65590834Y-830000D01*
X-65146068Y-830000D01*
X-64306605Y-830000D01*
X-64306605Y-550219D01*
X-64838200Y-550219D01*
X-64838200Y51351D01*
X-64415782Y51351D01*
X-64415782Y289243D01*
X-64130017Y289243D01*
X-64130017Y-830000D01*
X-63822149Y-830000D01*
X-63822149Y9463D01*
X-63715904Y9463D01*
X-63647120Y2479D01*
X-63599072Y-15913D01*
X-63566183Y-43782D01*
X-63544395Y-82147D01*
X-63528928Y-141899D01*
X-63522830Y-231238D01*
X-63522830Y-589420D01*
X-63517212Y-740484D01*
X-63494864Y-830000D01*
X-63181378Y-830000D01*
X-63199731Y-778971D01*
X-63209466Y-727906D01*
X-63214962Y-592107D01*
X-63214962Y-247969D01*
X-63220907Y-132494D01*
X-63237004Y-41661D01*
X-63261123Y29003D01*
X-63299286Y90354D01*
X-63351189Y135513D01*
X-63419271Y166145D01*
X-63419271Y171640D01*
X-63349706Y210781D01*
X-63295311Y265555D01*
X-63254423Y338375D01*
X-63227645Y433745D01*
X-63217770Y557788D01*
X-63217770Y678200D01*
X-63225835Y794087D01*
X-63247965Y886561D01*
X-63281961Y960050D01*
X-63326947Y1018064D01*
X-63384306Y1063289D01*
X-63458418Y1097711D01*
X-63553271Y1120297D01*
X-63673894Y1128584D01*
X-64130017Y1128584D01*
X-64130017Y289243D01*
X-64415782Y289243D01*
X-64415782Y331131D01*
X-64838200Y331131D01*
X-64838200Y848804D01*
X-64306605Y848804D01*
X-64306605Y1128584D01*
X-65146068Y1128584D01*
X-65146068Y-830000D01*
X-65590834Y-830000D01*
X-65294323Y1128584D01*
X-65576912Y1128584D01*
X-65778290Y-390729D01*
X-65783908Y-390729D01*
X-65985408Y1128584D01*
X-66295963Y1128584D01*
X-66444341Y1128584D01*
X-66752209Y1128584D01*
X-66752209Y-830000D01*
X-66930994Y-830000D01*
X-66949347Y-778971D01*
X-66959082Y-727906D01*
X-66964578Y-592107D01*
X-66964578Y-247969D01*
X-66970523Y-132494D01*
X-66986621Y-41661D01*
X-67010740Y29003D01*
X-67048902Y90354D01*
X-67100806Y135513D01*
X-67168887Y166145D01*
X-67168887Y171640D01*
X-67099322Y210781D01*
X-67044927Y265555D01*
X-67004039Y338375D01*
X-66977261Y433745D01*
X-66967387Y557788D01*
X-66967387Y678200D01*
X-66975451Y794087D01*
X-66997582Y886561D01*
X-67031577Y960050D01*
X-67076563Y1018064D01*
X-67133923Y1063289D01*
X-67208035Y1097711D01*
X-67302888Y1120297D01*
X-67423510Y1128584D01*
X-67879634Y1128584D01*
X-67879634Y289243D01*
X-68085897Y289243D01*
X-68085897Y644617D01*
X-68094220Y764351D01*
X-68117269Y861877D01*
X-68153017Y941194D01*
X-68200691Y1005485D01*
X-68261615Y1057005D01*
X-68337011Y1095228D01*
X-68430004Y1119741D01*
X-68544707Y1128584D01*
X-69014874Y1128584D01*
X-69014874Y-550219D01*
X-69674696Y-550219D01*
X-69674696Y-247969D01*
X-69680642Y-132494D01*
X-69696739Y-41661D01*
X-69720858Y29003D01*
X-69759021Y90354D01*
X-69810924Y135513D01*
X-69879006Y166145D01*
X-69879006Y171640D01*
X-69809441Y210781D01*
X-69755046Y265555D01*
X-69714158Y338375D01*
X-69687380Y433745D01*
X-69677505Y557788D01*
X-69677505Y678200D01*
X-69685570Y794087D01*
X-69707700Y886561D01*
X-69741696Y960050D01*
X-69786682Y1018064D01*
X-69844041Y1063289D01*
X-69918153Y1097711D01*
X-70013006Y1120297D01*
X-70133629Y1128584D01*
X-70589752Y1128584D01*
X-70589752Y289243D01*
X-70797114Y289243D01*
X-70797114Y664156D01*
X-70805656Y781833D01*
X-70829530Y879469D01*
X-70866986Y960587D01*
X-70917526Y1027956D01*
X-70981494Y1082394D01*
X-71058676Y1122320D01*
X-71151790Y1147629D01*
X-71264473Y1156672D01*
X-71377087Y1147632D01*
X-71470185Y1122329D01*
X-71547394Y1082403D01*
X-71611420Y1027956D01*
X-71661904Y960595D01*
X-71699323Y879480D01*
X-71723176Y781842D01*
X-71730293Y683696D01*
X-71731710Y664156D01*
X-72167195Y664156D01*
X-72167195Y848804D01*
X-71845405Y848804D01*
X-71845405Y1128584D01*
X-72796731Y1128584D01*
X-72796731Y848804D01*
X-72936198Y848804D01*
X-72943696Y879469D01*
X-72981152Y960587D01*
X-73031692Y1027956D01*
X-73095660Y1082394D01*
X-73172842Y1122320D01*
X-73265956Y1147629D01*
X-73378639Y1156672D01*
X-73491253Y1147632D01*
X-73584351Y1122329D01*
X-73661560Y1082403D01*
X-73725586Y1027956D01*
X-73776070Y960595D01*
X-73813489Y879480D01*
X-73837342Y781842D01*
X-73844459Y683696D01*
X-73845876Y664156D01*
X-74052139Y664156D01*
X-74052139Y1128584D01*
X-74491410Y1128584D01*
X-74687292Y-273248D01*
X-74692910Y-273248D01*
X-74888671Y1128584D01*
X-75328063Y1128584D01*
X-75328063Y-830000D01*
X-75550285Y-830000D01*
X-75550285Y1378894D01*
X-62959156Y1378894D01*
X-62959156Y-1080187D01*
G37*
G36*
X65273292Y864965D02*
G01*
X65319422Y832461D01*
X65349251Y776807D01*
X65360851Y687603D01*
X65360851Y-381203D01*
X65349251Y-470407D01*
X65319422Y-526061D01*
X65273292Y-558565D01*
X65205269Y-570369D01*
X65137246Y-558565D01*
X65091115Y-526061D01*
X65061287Y-470407D01*
X65049686Y-381203D01*
X65049686Y687603D01*
X65061287Y776807D01*
X65091115Y832461D01*
X65137246Y864965D01*
X65205269Y876770D01*
X65273292Y864965D01*
G37*
G36*
X67387458Y864965D02*
G01*
X67433588Y832461D01*
X67463417Y776807D01*
X67475017Y687603D01*
X67475017Y-381203D01*
X67463417Y-470407D01*
X67433588Y-526061D01*
X67387458Y-558565D01*
X67319435Y-570369D01*
X67251412Y-558565D01*
X67205281Y-526061D01*
X67175453Y-470407D01*
X67163852Y-381203D01*
X67163852Y687603D01*
X67175453Y776807D01*
X67205281Y832461D01*
X67251412Y864965D01*
X67319435Y876770D01*
X67387458Y864965D01*
G37*
G36*
X68512838Y836293D02*
G01*
X68557868Y802520D01*
X68583969Y747311D01*
X68594627Y651333D01*
X68594627Y500147D01*
X68588553Y427785D01*
X68572764Y377512D01*
X68549564Y343465D01*
X68496122Y309721D01*
X68413887Y297059D01*
X68305932Y297059D01*
X68305932Y848804D01*
X68441853Y848804D01*
X68512838Y836293D01*
G37*
G36*
X70100451Y837243D02*
G01*
X70146790Y805206D01*
X70175025Y752731D01*
X70186357Y662446D01*
X70186357Y-356046D01*
X70175029Y-446351D01*
X70146790Y-498928D01*
X70100462Y-530870D01*
X70033583Y-542404D01*
X69880810Y-542404D01*
X69880810Y848804D01*
X70033583Y848804D01*
X70100451Y837243D01*
G37*
G36*
X71222956Y836293D02*
G01*
X71267987Y802520D01*
X71294087Y747311D01*
X71304745Y651333D01*
X71304745Y500147D01*
X71298672Y427785D01*
X71282882Y377512D01*
X71259683Y343465D01*
X71206241Y309721D01*
X71124006Y297059D01*
X71016050Y297059D01*
X71016050Y848804D01*
X71151971Y848804D01*
X71222956Y836293D01*
G37*
G36*
X74972573Y836293D02*
G01*
X75017603Y802520D01*
X75043703Y747311D01*
X75054361Y651333D01*
X75054361Y500147D01*
X75048288Y427785D01*
X75032499Y377512D01*
X75009299Y343465D01*
X74955857Y309721D01*
X74873622Y297059D01*
X74765666Y297059D01*
X74765666Y848804D01*
X74901588Y848804D01*
X74972573Y836293D01*
G37*
G36*
X75630736Y-1080187D02*
G01*
X63029715Y-1080187D01*
X63029715Y-830000D01*
X63251937Y-830000D01*
X63528419Y-830000D01*
X63528419Y641600D01*
X63750558Y-830000D01*
X64014829Y-830000D01*
X64236846Y640785D01*
X64236846Y-830000D01*
X64535677Y-830000D01*
X64535677Y668064D01*
X64734124Y668064D01*
X64734124Y-361664D01*
X64742726Y-480047D01*
X64766781Y-578367D01*
X64804540Y-660146D01*
X64855513Y-728150D01*
X64920121Y-783075D01*
X64997983Y-823341D01*
X65091818Y-848853D01*
X65205269Y-857965D01*
X65318789Y-848849D01*
X65412639Y-823332D01*
X65490475Y-783065D01*
X65555024Y-728150D01*
X65606054Y-660139D01*
X65643850Y-578356D01*
X65667926Y-480039D01*
X65676535Y-361664D01*
X65676535Y668064D01*
X65667923Y786510D01*
X65652667Y848804D01*
X65783269Y848804D01*
X66105059Y848804D01*
X66105059Y-830000D01*
X66420621Y-830000D01*
X66420621Y668064D01*
X66848290Y668064D01*
X66848290Y-361664D01*
X66856892Y-480047D01*
X66880947Y-578367D01*
X66918706Y-660146D01*
X66969679Y-728150D01*
X67034287Y-783075D01*
X67112149Y-823341D01*
X67205984Y-848853D01*
X67319435Y-857965D01*
X67432955Y-848849D01*
X67526805Y-823332D01*
X67604641Y-783065D01*
X67669191Y-728150D01*
X67720220Y-660139D01*
X67758016Y-578356D01*
X67782092Y-480039D01*
X67790701Y-361664D01*
X67790701Y297059D01*
X67990248Y297059D01*
X67990248Y-830000D01*
X68305932Y-830000D01*
X68305932Y9463D01*
X68408269Y9463D01*
X68475906Y2635D01*
X68522984Y-15310D01*
X68555059Y-42438D01*
X68576309Y-79954D01*
X68591450Y-138821D01*
X68597435Y-227330D01*
X68597435Y-585512D01*
X68603053Y-737187D01*
X68626500Y-830000D01*
X68948779Y-830000D01*
X68928610Y-774703D01*
X68918615Y-723387D01*
X68913119Y-588199D01*
X68913119Y-542404D01*
X69565126Y-542404D01*
X69565126Y-830000D01*
X70039201Y-830000D01*
X70154740Y-821083D01*
X70248469Y-796362D01*
X70324520Y-757798D01*
X70386026Y-705802D01*
X70434179Y-640870D01*
X70470268Y-560854D01*
X70493524Y-462566D01*
X70501919Y-342002D01*
X70501919Y297059D01*
X70700366Y297059D01*
X70700366Y-830000D01*
X71016050Y-830000D01*
X71016050Y9463D01*
X71118388Y9463D01*
X71186025Y2635D01*
X71233102Y-15310D01*
X71265178Y-42438D01*
X71286428Y-79954D01*
X71301569Y-138821D01*
X71307554Y-227330D01*
X71307554Y-585512D01*
X71313172Y-737187D01*
X71336619Y-830000D01*
X71658897Y-830000D01*
X71827791Y-830000D01*
X72143475Y-830000D01*
X72143475Y1136400D01*
X72283426Y1136400D01*
X72581158Y-830000D01*
X72996493Y-830000D01*
X73433932Y-830000D01*
X74281211Y-830000D01*
X74281211Y-542404D01*
X73749616Y-542404D01*
X73749616Y51351D01*
X74172034Y51351D01*
X74172034Y297059D01*
X74449983Y297059D01*
X74449983Y-830000D01*
X74765666Y-830000D01*
X74765666Y9463D01*
X74868004Y9463D01*
X74935641Y2635D01*
X74982719Y-15310D01*
X75014794Y-42438D01*
X75036044Y-79954D01*
X75051185Y-138821D01*
X75057170Y-227330D01*
X75057170Y-585512D01*
X75062788Y-737187D01*
X75086235Y-830000D01*
X75408514Y-830000D01*
X75388345Y-774703D01*
X75378350Y-723387D01*
X75372854Y-588199D01*
X75372854Y-244061D01*
X75366842Y-128052D01*
X75350544Y-36550D01*
X75326082Y34864D01*
X75287603Y97066D01*
X75235845Y142491D01*
X75168664Y172930D01*
X75237980Y212001D01*
X75292352Y266959D01*
X75333287Y340222D01*
X75360135Y436389D01*
X75370045Y561696D01*
X75370045Y682108D01*
X75361909Y798759D01*
X75339571Y891932D01*
X75305235Y966062D01*
X75259770Y1024659D01*
X75201762Y1070422D01*
X75126960Y1105222D01*
X75031384Y1128035D01*
X74910014Y1136400D01*
X74449983Y1136400D01*
X74449983Y297059D01*
X74172034Y297059D01*
X74172034Y338947D01*
X73749616Y338947D01*
X73749616Y848804D01*
X74281211Y848804D01*
X74281211Y1136400D01*
X73433932Y1136400D01*
X73433932Y-830000D01*
X72996493Y-830000D01*
X73294103Y1136400D01*
X73003576Y1136400D01*
X72802808Y-378308D01*
X72601919Y1136400D01*
X72283426Y1136400D01*
X72143475Y1136400D01*
X71827791Y1136400D01*
X71827791Y-830000D01*
X71658897Y-830000D01*
X71638728Y-774703D01*
X71628733Y-723387D01*
X71623238Y-588199D01*
X71623238Y-244061D01*
X71617226Y-128052D01*
X71600928Y-36550D01*
X71576465Y34864D01*
X71537987Y97066D01*
X71486229Y142491D01*
X71419048Y172930D01*
X71488364Y212001D01*
X71542735Y266959D01*
X71583671Y340222D01*
X71610519Y436389D01*
X71620429Y561696D01*
X71620429Y682108D01*
X71612293Y798759D01*
X71589955Y891932D01*
X71555619Y966062D01*
X71510154Y1024659D01*
X71452146Y1070422D01*
X71377344Y1105222D01*
X71281768Y1128035D01*
X71160398Y1136400D01*
X70700366Y1136400D01*
X70700366Y297059D01*
X70501919Y297059D01*
X70501919Y648525D01*
X70493524Y769025D01*
X70470268Y867250D01*
X70434179Y947205D01*
X70386026Y1012080D01*
X70324512Y1064133D01*
X70248458Y1102733D01*
X70154731Y1127476D01*
X70039201Y1136400D01*
X69565126Y1136400D01*
X69565126Y-542404D01*
X68913119Y-542404D01*
X68913119Y-244061D01*
X68907107Y-128052D01*
X68890809Y-36550D01*
X68866347Y34864D01*
X68827868Y97066D01*
X68776111Y142491D01*
X68708929Y172930D01*
X68778245Y212001D01*
X68832617Y266959D01*
X68873553Y340222D01*
X68900401Y436389D01*
X68910311Y561696D01*
X68910311Y682108D01*
X68902174Y798759D01*
X68879836Y891932D01*
X68845500Y966062D01*
X68800035Y1024659D01*
X68742027Y1070422D01*
X68667225Y1105222D01*
X68571649Y1128035D01*
X68450279Y1136400D01*
X67990248Y1136400D01*
X67990248Y297059D01*
X67790701Y297059D01*
X67790701Y668064D01*
X67782089Y786510D01*
X67758007Y884843D01*
X67720211Y966598D01*
X67669191Y1034550D01*
X67604633Y1089522D01*
X67526794Y1129826D01*
X67432946Y1155365D01*
X67319435Y1164488D01*
X67205993Y1155368D01*
X67112161Y1129835D01*
X67034295Y1089532D01*
X66969679Y1034550D01*
X66918715Y966606D01*
X66880956Y884854D01*
X66856896Y786518D01*
X66849710Y687603D01*
X66848290Y668064D01*
X66420621Y668064D01*
X66420621Y848804D01*
X66742411Y848804D01*
X66742411Y1136400D01*
X65783269Y1136400D01*
X65783269Y848804D01*
X65652667Y848804D01*
X65643841Y884843D01*
X65606045Y966598D01*
X65555024Y1034550D01*
X65490467Y1089522D01*
X65412628Y1129826D01*
X65318780Y1155365D01*
X65205269Y1164488D01*
X65091827Y1155368D01*
X64997994Y1129835D01*
X64920129Y1089532D01*
X64855513Y1034550D01*
X64804549Y966606D01*
X64766790Y884854D01*
X64742730Y786518D01*
X64735544Y687603D01*
X64734124Y668064D01*
X64535677Y668064D01*
X64535677Y1136400D01*
X64089079Y1136400D01*
X63893806Y-261061D01*
X63698657Y1136400D01*
X63251937Y1136400D01*
X63251937Y-830000D01*
X63029715Y-830000D01*
X63029715Y1386710D01*
X75630736Y1386710D01*
X75630736Y-1080187D01*
G37*
G36*
X-4166905Y66058566D02*
G01*
X-4120775Y66026062D01*
X-4090946Y65970408D01*
X-4079345Y65881204D01*
X-4079345Y64812398D01*
X-4090946Y64723194D01*
X-4120775Y64667540D01*
X-4166905Y64635036D01*
X-4234928Y64623231D01*
X-4302951Y64635036D01*
X-4349081Y64667540D01*
X-4378910Y64723194D01*
X-4390511Y64812398D01*
X-4390511Y65881204D01*
X-4378910Y65970408D01*
X-4349081Y66026062D01*
X-4302951Y66058566D01*
X-4234928Y66070370D01*
X-4166905Y66058566D01*
G37*
G36*
X-2655776Y64933447D02*
G01*
X-2655776Y65687031D01*
X-2357677Y65687031D01*
X-2655776Y64933447D01*
G37*
G36*
X4979705Y64113291D02*
G01*
X-4928416Y64113291D01*
X-4928416Y65861665D01*
X-4706194Y65861665D01*
X-4706194Y64831937D01*
X-4697582Y64713491D01*
X-4673500Y64615158D01*
X-4635704Y64533403D01*
X-4584684Y64465451D01*
X-4520126Y64410479D01*
X-4442287Y64370175D01*
X-4348440Y64344636D01*
X-4234928Y64335513D01*
X-4121486Y64344633D01*
X-4027654Y64370166D01*
X-3949788Y64410469D01*
X-3885172Y64465451D01*
X-3834208Y64533395D01*
X-3796449Y64615147D01*
X-3772389Y64713483D01*
X-3763783Y64831937D01*
X-3763783Y65861665D01*
X-3771991Y65974627D01*
X-3116906Y65974627D01*
X-3116906Y65687031D01*
X-2971460Y65687031D01*
X-2971460Y64933447D01*
X-2971460Y64363601D01*
X-2629153Y64363601D01*
X-1563278Y64363601D01*
X-1255654Y64363601D01*
X-1045850Y65082234D01*
X-836167Y64363601D01*
X-500455Y64363601D01*
X-874146Y65492858D01*
X-874146Y65856047D01*
X-440005Y65856047D01*
X-431362Y65734082D01*
X-406619Y65627036D01*
X-366854Y65532548D01*
X-311144Y65445756D01*
X-224828Y65344535D01*
X-100141Y65226267D01*
X35224Y65096227D01*
X107466Y65003640D01*
X150239Y64908249D01*
X164374Y64806780D01*
X153160Y64720121D01*
X124357Y64666127D01*
X79887Y64634649D01*
X14409Y64623231D01*
X-52097Y64635147D01*
X-97454Y64668172D01*
X-124744Y64721741D01*
X-135678Y64812398D01*
X-135678Y64916934D01*
X-434387Y64916934D01*
X-434387Y64831937D01*
X-426149Y64711475D01*
X-403247Y64612382D01*
X-367598Y64530926D01*
X-319959Y64464107D01*
X-258803Y64409764D01*
X-184260Y64369904D01*
X-93525Y64344587D01*
X17218Y64335513D01*
X129353Y64344553D01*
X199017Y64363601D01*
X653104Y64363601D01*
X935083Y64363601D01*
X935083Y65530706D01*
X1233181Y64363601D01*
X1626290Y64363601D01*
X1626290Y66042405D01*
X1795062Y66042405D01*
X2326656Y66042405D01*
X2326656Y65448650D01*
X1904238Y65448650D01*
X1904238Y65161054D01*
X2326656Y65161054D01*
X2326656Y64651197D01*
X1795062Y64651197D01*
X1795062Y64363601D01*
X2642340Y64363601D01*
X2642340Y66042405D01*
X2811112Y66042405D01*
X3342706Y66042405D01*
X3342706Y65448650D01*
X2920288Y65448650D01*
X2920288Y65161054D01*
X3342706Y65161054D01*
X3342706Y64651197D01*
X2811112Y64651197D01*
X2811112Y64363601D01*
X3658390Y64363601D01*
X3658390Y64651197D01*
X3798341Y64651197D01*
X3798341Y64363601D01*
X4757483Y64363601D01*
X4757483Y64651197D01*
X4435693Y64651197D01*
X4435693Y66330000D01*
X4120131Y66330000D01*
X4120131Y64651197D01*
X3798341Y64651197D01*
X3658390Y64651197D01*
X3658390Y66330000D01*
X2811112Y66330000D01*
X2811112Y66042405D01*
X2642340Y66042405D01*
X2642340Y66330000D01*
X1795062Y66330000D01*
X1795062Y66042405D01*
X1626290Y66042405D01*
X1626290Y66330000D01*
X1344189Y66330000D01*
X1344189Y64905407D01*
X976237Y66330000D01*
X653104Y66330000D01*
X653104Y64363601D01*
X199017Y64363601D01*
X221787Y64369827D01*
X298206Y64409672D01*
X361356Y64463985D01*
X411095Y64531128D01*
X447991Y64611946D01*
X471518Y64709184D01*
X479936Y64826319D01*
X471189Y64938786D01*
X445726Y65040884D01*
X403976Y65134432D01*
X346973Y65220604D01*
X260471Y65321361D01*
X137263Y65439247D01*
X2345Y65569789D01*
X-68878Y65663462D01*
X-110136Y65762067D01*
X-124443Y65878395D01*
X-113084Y65971391D01*
X-84876Y66025430D01*
X-38040Y66058387D01*
X31140Y66070370D01*
X99371Y66058657D01*
X145490Y66026499D01*
X175196Y65971653D01*
X186722Y65884013D01*
X186722Y65745772D01*
X485554Y65745772D01*
X485554Y65861665D01*
X477237Y65981961D01*
X454098Y66081008D01*
X418040Y66162527D01*
X369782Y66229495D01*
X307901Y66283717D01*
X232432Y66323554D01*
X140525Y66348884D01*
X28331Y66357966D01*
X-85221Y66348827D01*
X-178786Y66323279D01*
X-256103Y66283017D01*
X-319959Y66228151D01*
X-370101Y66160286D01*
X-407469Y66077777D01*
X-431407Y65977625D01*
X-440005Y65856047D01*
X-874146Y65856047D01*
X-874146Y66330000D01*
X-1189708Y66330000D01*
X-1189708Y65492858D01*
X-1563278Y64363601D01*
X-2629153Y64363601D01*
X-2068250Y65690206D01*
X-2068250Y65974627D01*
X-2655776Y65974627D01*
X-2655776Y66330000D01*
X-2971460Y66330000D01*
X-2971460Y65974627D01*
X-3116906Y65974627D01*
X-3771991Y65974627D01*
X-3772385Y65980048D01*
X-3783518Y66025552D01*
X-3564970Y66025552D01*
X-3260521Y66025552D01*
X-3260521Y66330000D01*
X-3564970Y66330000D01*
X-3564970Y66025552D01*
X-3783518Y66025552D01*
X-3796440Y66078368D01*
X-3834199Y66160147D01*
X-3885172Y66228151D01*
X-3949780Y66283076D01*
X-4027642Y66323342D01*
X-4121477Y66348854D01*
X-4234928Y66357966D01*
X-4348448Y66348850D01*
X-4442298Y66323333D01*
X-4520134Y66283066D01*
X-4584684Y66228151D01*
X-4635713Y66160140D01*
X-4673509Y66078357D01*
X-4697585Y65980040D01*
X-4704773Y65881204D01*
X-4706194Y65861665D01*
X-4928416Y65861665D01*
X-4928416Y66580188D01*
X4979705Y66580188D01*
X4979705Y64113291D01*
G37*
D12*
%TO.C,Driver5*%
X-80460000Y27310000D02*
X-80460000Y21340000D01*
X-80460000Y21340000D02*
X-57840000Y21340000D01*
X-80450000Y23600000D02*
X-79700000Y23600000D01*
X-80450000Y22100000D02*
X-80450000Y21350000D01*
X-80450000Y21350000D02*
X-78650000Y21350000D01*
X-79700000Y26550000D02*
X-69150000Y26550000D01*
X-79700000Y23600000D02*
X-79700000Y26550000D01*
X-78650000Y22100000D02*
X-80450000Y22100000D01*
X-78650000Y21350000D02*
X-78650000Y22100000D01*
X-77150000Y22100000D02*
X-77150000Y21350000D01*
X-77150000Y21350000D02*
X-61150000Y21350000D01*
X-61150000Y22100000D02*
X-77150000Y22100000D01*
X-61150000Y21350000D02*
X-61150000Y22100000D01*
X-59650000Y22100000D02*
X-59650000Y21350000D01*
X-59650000Y21350000D02*
X-57850000Y21350000D01*
X-58800000Y21050000D02*
X-57550000Y21050000D01*
X-58600000Y26550000D02*
X-69150000Y26550000D01*
X-58600000Y23600000D02*
X-58600000Y26550000D01*
X-57850000Y23600000D02*
X-58600000Y23600000D01*
X-57850000Y22100000D02*
X-59650000Y22100000D01*
X-57850000Y21350000D02*
X-57850000Y22100000D01*
X-57840000Y27310000D02*
X-80460000Y27310000D01*
X-57840000Y21340000D02*
X-57840000Y27310000D01*
X-57550000Y21050000D02*
X-57550000Y22300000D01*
%TO.C,Driver2*%
X60495000Y-18720000D02*
X60495000Y-17390000D01*
X61825000Y-18720000D02*
X60495000Y-18720000D01*
X63095000Y-16060000D02*
X80935000Y-16060000D01*
X63095000Y-18720000D02*
X63095000Y-16060000D01*
X63095000Y-18720000D02*
X80935000Y-18720000D01*
X80935000Y-18720000D02*
X80935000Y-16060000D01*
D13*
%TO.C,U1*%
X-17780000Y74390000D02*
X18480000Y74390000D01*
X-17780000Y56610000D02*
X-17780000Y74390000D01*
X18480000Y74390000D02*
X18480000Y56610000D01*
X18480000Y56610000D02*
X-17780000Y56610000D01*
D12*
%TO.C,Driver4*%
X-79485000Y-19050000D02*
X-79485000Y-17720000D01*
X-78155000Y-19050000D02*
X-79485000Y-19050000D01*
X-76885000Y-16390000D02*
X-59045000Y-16390000D01*
X-76885000Y-19050000D02*
X-76885000Y-16390000D01*
X-76885000Y-19050000D02*
X-59045000Y-19050000D01*
X-59045000Y-19050000D02*
X-59045000Y-16390000D01*
%TO.C,L1-->l2Connection1*%
X-13000000Y83550000D02*
X-13000000Y82300000D01*
X-12710000Y83260000D02*
X-12710000Y77290000D01*
X-12710000Y77290000D02*
X12410000Y77290000D01*
X-12700000Y83250000D02*
X-12700000Y82500000D01*
X-12700000Y82500000D02*
X-10900000Y82500000D01*
X-12700000Y81000000D02*
X-11950000Y81000000D01*
X-11950000Y81000000D02*
X-11950000Y78050000D01*
X-11950000Y78050000D02*
X-150000Y78050000D01*
X-11750000Y83550000D02*
X-13000000Y83550000D01*
X-10900000Y83250000D02*
X-12700000Y83250000D01*
X-10900000Y82500000D02*
X-10900000Y83250000D01*
X-9400000Y83250000D02*
X-9400000Y82500000D01*
X-9400000Y82500000D02*
X9100000Y82500000D01*
X9100000Y83250000D02*
X-9400000Y83250000D01*
X9100000Y82500000D02*
X9100000Y83250000D01*
X10600000Y83250000D02*
X10600000Y82500000D01*
X10600000Y82500000D02*
X12400000Y82500000D01*
X11650000Y81000000D02*
X11650000Y78050000D01*
X11650000Y78050000D02*
X-150000Y78050000D01*
X12400000Y83250000D02*
X10600000Y83250000D01*
X12400000Y82500000D02*
X12400000Y83250000D01*
X12400000Y81000000D02*
X11650000Y81000000D01*
X12410000Y83260000D02*
X-12710000Y83260000D01*
X12410000Y77290000D02*
X12410000Y83260000D01*
%TO.C,Driver7*%
X59340000Y27510000D02*
X59340000Y21540000D01*
X59340000Y21540000D02*
X81960000Y21540000D01*
X59350000Y23800000D02*
X60100000Y23800000D01*
X59350000Y22300000D02*
X59350000Y21550000D01*
X59350000Y21550000D02*
X61150000Y21550000D01*
X60100000Y26750000D02*
X70650000Y26750000D01*
X60100000Y23800000D02*
X60100000Y26750000D01*
X61150000Y22300000D02*
X59350000Y22300000D01*
X61150000Y21550000D02*
X61150000Y22300000D01*
X62650000Y22300000D02*
X62650000Y21550000D01*
X62650000Y21550000D02*
X78650000Y21550000D01*
X78650000Y22300000D02*
X62650000Y22300000D01*
X78650000Y21550000D02*
X78650000Y22300000D01*
X80150000Y22300000D02*
X80150000Y21550000D01*
X80150000Y21550000D02*
X81950000Y21550000D01*
X81000000Y21250000D02*
X82250000Y21250000D01*
X81200000Y26750000D02*
X70650000Y26750000D01*
X81200000Y23800000D02*
X81200000Y26750000D01*
X81950000Y23800000D02*
X81200000Y23800000D01*
X81950000Y22300000D02*
X80150000Y22300000D01*
X81950000Y21550000D02*
X81950000Y22300000D01*
X81960000Y27510000D02*
X59340000Y27510000D01*
X81960000Y21540000D02*
X81960000Y27510000D01*
X82250000Y21250000D02*
X82250000Y22500000D01*
D14*
%TO.C,Modules Normal\u002A\u002A*%
X-84520000Y17349999D02*
X-84520000Y-18209999D01*
X-81979999Y-20750000D02*
X-56580001Y-20750000D01*
X-56580001Y19890000D02*
X-81979999Y19890000D01*
X-54040000Y-18209999D02*
X-54040000Y17349999D01*
X-84520000Y17349999D02*
G75*
G02*
X-81979999Y19890000I2540001J0D01*
G01*
X-81979999Y-20750000D02*
G75*
G02*
X-84520000Y-18209999I0J2540001D01*
G01*
X-56580001Y19890000D02*
G75*
G02*
X-54040000Y17349999I1J-2540000D01*
G01*
X-54040000Y-18209999D02*
G75*
G02*
X-56580001Y-20750000I-2540000J-1D01*
G01*
D12*
%TO.C,Driver1*%
X60495000Y16020000D02*
X60495000Y17350000D01*
X61825000Y16020000D02*
X60495000Y16020000D01*
X63095000Y18680000D02*
X80935000Y18680000D01*
X63095000Y16020000D02*
X63095000Y18680000D01*
X63095000Y16020000D02*
X80935000Y16020000D01*
X80935000Y16020000D02*
X80935000Y18680000D01*
%TO.C,Driver8*%
X58950000Y-21850000D02*
X58950000Y-23100000D01*
X59240000Y-22140000D02*
X59240000Y-28110000D01*
X59240000Y-28110000D02*
X81860000Y-28110000D01*
X59250000Y-22150000D02*
X59250000Y-22900000D01*
X59250000Y-22900000D02*
X61050000Y-22900000D01*
X59250000Y-24400000D02*
X60000000Y-24400000D01*
X60000000Y-24400000D02*
X60000000Y-27350000D01*
X60000000Y-27350000D02*
X70550000Y-27350000D01*
X60200000Y-21850000D02*
X58950000Y-21850000D01*
X61050000Y-22150000D02*
X59250000Y-22150000D01*
X61050000Y-22900000D02*
X61050000Y-22150000D01*
X62550000Y-22150000D02*
X62550000Y-22900000D01*
X62550000Y-22900000D02*
X78550000Y-22900000D01*
X78550000Y-22150000D02*
X62550000Y-22150000D01*
X78550000Y-22900000D02*
X78550000Y-22150000D01*
X80050000Y-22150000D02*
X80050000Y-22900000D01*
X80050000Y-22900000D02*
X81850000Y-22900000D01*
X81100000Y-24400000D02*
X81100000Y-27350000D01*
X81100000Y-27350000D02*
X70550000Y-27350000D01*
X81850000Y-22150000D02*
X80050000Y-22150000D01*
X81850000Y-22900000D02*
X81850000Y-22150000D01*
X81850000Y-24400000D02*
X81100000Y-24400000D01*
X81860000Y-22140000D02*
X59240000Y-22140000D01*
X81860000Y-28110000D02*
X81860000Y-22140000D01*
%TO.C,Driver6*%
X-81050000Y-21850000D02*
X-81050000Y-23100000D01*
X-80760000Y-22140000D02*
X-80760000Y-28110000D01*
X-80760000Y-28110000D02*
X-58140000Y-28110000D01*
X-80750000Y-22150000D02*
X-80750000Y-22900000D01*
X-80750000Y-22900000D02*
X-78950000Y-22900000D01*
X-80750000Y-24400000D02*
X-80000000Y-24400000D01*
X-80000000Y-24400000D02*
X-80000000Y-27350000D01*
X-80000000Y-27350000D02*
X-69450000Y-27350000D01*
X-79800000Y-21850000D02*
X-81050000Y-21850000D01*
X-78950000Y-22150000D02*
X-80750000Y-22150000D01*
X-78950000Y-22900000D02*
X-78950000Y-22150000D01*
X-77450000Y-22150000D02*
X-77450000Y-22900000D01*
X-77450000Y-22900000D02*
X-61450000Y-22900000D01*
X-61450000Y-22150000D02*
X-77450000Y-22150000D01*
X-61450000Y-22900000D02*
X-61450000Y-22150000D01*
X-59950000Y-22150000D02*
X-59950000Y-22900000D01*
X-59950000Y-22900000D02*
X-58150000Y-22900000D01*
X-58900000Y-24400000D02*
X-58900000Y-27350000D01*
X-58900000Y-27350000D02*
X-69450000Y-27350000D01*
X-58150000Y-22150000D02*
X-59950000Y-22150000D01*
X-58150000Y-22900000D02*
X-58150000Y-22150000D01*
X-58150000Y-24400000D02*
X-58900000Y-24400000D01*
X-58140000Y-22140000D02*
X-80760000Y-22140000D01*
X-58140000Y-28110000D02*
X-58140000Y-22140000D01*
D14*
%TO.C,Modules Normal\u002A\u002A*%
X54060000Y17499999D02*
X54060000Y-18059999D01*
X56600001Y-20600000D02*
X81999999Y-20600000D01*
X81999999Y20040000D02*
X56600001Y20040000D01*
X84540000Y-18059999D02*
X84540000Y17499999D01*
X54060000Y17499999D02*
G75*
G02*
X56600001Y20040000I2540001J0D01*
G01*
X56600001Y-20600000D02*
G75*
G02*
X54060000Y-18059999I0J2540001D01*
G01*
X81999999Y20040000D02*
G75*
G02*
X84540000Y17499999I1J-2540000D01*
G01*
X84540000Y-18059999D02*
G75*
G02*
X81999999Y-20600000I-2540000J-1D01*
G01*
D12*
%TO.C,Driver3*%
X-79485000Y15690000D02*
X-79485000Y17020000D01*
X-78155000Y15690000D02*
X-79485000Y15690000D01*
X-76885000Y18350000D02*
X-59045000Y18350000D01*
X-76885000Y15690000D02*
X-76885000Y18350000D01*
X-76885000Y15690000D02*
X-59045000Y15690000D01*
X-59045000Y15690000D02*
X-59045000Y18350000D01*
%TD*%
%LPC*%
D15*
%TO.C,Driver5*%
X-60400000Y23800000D03*
D16*
X-62900000Y23800000D03*
X-65400000Y23800000D03*
X-67900000Y23800000D03*
X-70400000Y23800000D03*
X-72900000Y23800000D03*
X-75400000Y23800000D03*
X-77900000Y23800000D03*
%TD*%
D17*
%TO.C,H32*%
X-10000000Y41900000D03*
D18*
X-10000000Y41900000D03*
%TD*%
D17*
%TO.C,H9*%
X49383092Y29588887D03*
D18*
X49383092Y29588887D03*
%TD*%
D19*
%TO.C,Driver2*%
X61825000Y-17390000D03*
D20*
X64365000Y-17390000D03*
X66905000Y-17390000D03*
X69445000Y-17390000D03*
X71985000Y-17390000D03*
X74525000Y-17390000D03*
X77065000Y-17390000D03*
X79605000Y-17390000D03*
%TD*%
D21*
%TO.C,U1*%
X13970000Y73120000D03*
X11430000Y73120000D03*
X8890000Y73120000D03*
X6350000Y73120000D03*
X-16510000Y68040000D03*
X11430000Y57880000D03*
X3810000Y73120000D03*
X1270000Y73120000D03*
X-1270000Y73120000D03*
X-3810000Y73120000D03*
X-6350000Y73120000D03*
X-8890000Y73120000D03*
X-11430000Y73120000D03*
X-13970000Y73120000D03*
X-16510000Y73120000D03*
X-16510000Y57880000D03*
X-13970000Y57880000D03*
X-11430000Y57880000D03*
X-8890000Y57880000D03*
X-6350000Y57880000D03*
X-3810000Y57880000D03*
X-1270000Y57880000D03*
X1270000Y57880000D03*
X3810000Y57880000D03*
X6350000Y57880000D03*
X8890000Y57880000D03*
X16510000Y73120000D03*
X-16510000Y65500000D03*
X13970000Y57880000D03*
X-16510000Y60420000D03*
X-16510000Y62960000D03*
X-16510000Y70580000D03*
X16510000Y57880000D03*
%TD*%
D17*
%TO.C,H33*%
X-40000000Y22500000D03*
D18*
X-40000000Y22500000D03*
%TD*%
D17*
%TO.C,H3*%
X12497381Y-65414460D03*
D18*
X12497381Y-65414460D03*
%TD*%
D17*
%TO.C,H17*%
X-49388330Y-29584555D03*
D18*
X-49388330Y-29584555D03*
%TD*%
D17*
%TO.C,H23*%
X39500000Y-22500000D03*
D18*
X39500000Y-22500000D03*
%TD*%
D17*
%TO.C,H6*%
X49383092Y-29584555D03*
D18*
X49383092Y-29584555D03*
%TD*%
D19*
%TO.C,Driver4*%
X-78155000Y-17720000D03*
D20*
X-75615000Y-17720000D03*
X-73075000Y-17720000D03*
X-70535000Y-17720000D03*
X-67995000Y-17720000D03*
X-65455000Y-17720000D03*
X-62915000Y-17720000D03*
X-60375000Y-17720000D03*
%TD*%
D17*
%TO.C,H28*%
X-4000000Y-10000000D03*
D18*
X-4000000Y-10000000D03*
%TD*%
D22*
%TO.C,L1-->l2Connection1*%
X-10150000Y80800000D03*
D16*
X-7650000Y80800000D03*
X-5150000Y80800000D03*
X-2650000Y80800000D03*
X-150000Y80800000D03*
X2350000Y80800000D03*
X4850000Y80800000D03*
X7350000Y80800000D03*
X9850000Y80800000D03*
%TD*%
D15*
%TO.C,Driver7*%
X79400000Y24000000D03*
D16*
X76900000Y24000000D03*
X74400000Y24000000D03*
X71900000Y24000000D03*
X69400000Y24000000D03*
X66900000Y24000000D03*
X64400000Y24000000D03*
X61900000Y24000000D03*
%TD*%
D17*
%TO.C,H15*%
X-75324676Y34867445D03*
D18*
X-75324676Y34867445D03*
%TD*%
D17*
%TO.C,H7*%
X75319438Y-34863113D03*
D18*
X75319438Y-34863113D03*
%TD*%
D17*
%TO.C,H27*%
X4000000Y-10000000D03*
D18*
X4000000Y-10000000D03*
%TD*%
D17*
%TO.C,H18*%
X-29589340Y-49383545D03*
D18*
X-29589340Y-49383545D03*
%TD*%
D19*
%TO.C,Driver1*%
X61825000Y17350000D03*
D20*
X64365000Y17350000D03*
X66905000Y17350000D03*
X69445000Y17350000D03*
X71985000Y17350000D03*
X74525000Y17350000D03*
X77065000Y17350000D03*
X79605000Y17350000D03*
%TD*%
D22*
%TO.C,Driver8*%
X61800000Y-24600000D03*
D16*
X64300000Y-24600000D03*
X66800000Y-24600000D03*
X69300000Y-24600000D03*
X71800000Y-24600000D03*
X74300000Y-24600000D03*
X76800000Y-24600000D03*
X79300000Y-24600000D03*
%TD*%
D17*
%TO.C,H16*%
X-75324676Y-34863113D03*
D18*
X-75324676Y-34863113D03*
%TD*%
D17*
%TO.C,H13*%
X-29589340Y49387877D03*
D18*
X-29589340Y49387877D03*
%TD*%
D17*
%TO.C,H19*%
X-32934383Y-76185096D03*
D18*
X-32934383Y-76185096D03*
%TD*%
D17*
%TO.C,H14*%
X-49388330Y29588887D03*
D18*
X-49388330Y29588887D03*
%TD*%
D17*
%TO.C,H5*%
X29584102Y-49383545D03*
D18*
X29584102Y-49383545D03*
%TD*%
D17*
%TO.C,H11*%
X34862660Y75324223D03*
D18*
X34862660Y75324223D03*
%TD*%
D22*
%TO.C,Driver6*%
X-78200000Y-24600000D03*
D16*
X-75700000Y-24600000D03*
X-73200000Y-24600000D03*
X-70700000Y-24600000D03*
X-68200000Y-24600000D03*
X-65700000Y-24600000D03*
X-63200000Y-24600000D03*
X-60700000Y-24600000D03*
%TD*%
D17*
%TO.C,H34*%
X-40000000Y-22500000D03*
D18*
X-40000000Y-22500000D03*
%TD*%
D17*
%TO.C,H29*%
X3997381Y10002166D03*
D18*
X3997381Y10002166D03*
%TD*%
D23*
%TO.C,H2*%
X-2619Y-35414460D03*
D24*
X-2619Y-35414460D03*
%TD*%
D19*
%TO.C,Driver3*%
X-78155000Y17020000D03*
D20*
X-75615000Y17020000D03*
X-73075000Y17020000D03*
X-70535000Y17020000D03*
X-67995000Y17020000D03*
X-65455000Y17020000D03*
X-62915000Y17020000D03*
X-60375000Y17020000D03*
%TD*%
D17*
%TO.C,H24*%
X40000000Y22500000D03*
D18*
X40000000Y22500000D03*
%TD*%
D17*
%TO.C,H26*%
X10000000Y21875000D03*
D18*
X10000000Y21875000D03*
%TD*%
D17*
%TO.C,H12*%
X-34867898Y75324223D03*
D18*
X-34867898Y75324223D03*
%TD*%
D17*
%TO.C,H30*%
X-4002619Y10002166D03*
D18*
X-4002619Y10002166D03*
%TD*%
D17*
%TO.C,H25*%
X10000000Y42000000D03*
D18*
X10000000Y42000000D03*
%TD*%
D17*
%TO.C,H31*%
X-10002619Y21877166D03*
D18*
X-10002619Y21877166D03*
%TD*%
D23*
%TO.C,H1*%
X-2619Y-65414460D03*
D24*
X-2619Y-65414460D03*
%TD*%
D17*
%TO.C,H4*%
X32929145Y-76185096D03*
D18*
X32929145Y-76185096D03*
%TD*%
D17*
%TO.C,H20*%
X-12502619Y-65414460D03*
D18*
X-12502619Y-65414460D03*
%TD*%
D17*
%TO.C,H10*%
X29584102Y49387877D03*
D18*
X29584102Y49387877D03*
%TD*%
D17*
%TO.C,H21*%
X-12502619Y-40414460D03*
D18*
X-12502619Y-40414460D03*
%TD*%
D17*
%TO.C,H22*%
X12250000Y-40500000D03*
D18*
X12250000Y-40500000D03*
%TD*%
D17*
%TO.C,H8*%
X75319438Y34867445D03*
D18*
X75319438Y34867445D03*
%TD*%
%LPD*%
M02*
