%TF.GenerationSoftware,KiCad,Pcbnew,9.0.5*%
%TF.CreationDate,2025-12-02T21:19:21+08:00*%
%TF.ProjectId,boost caps,626f6f73-7420-4636-9170-732e6b696361,rev?*%
%TF.SameCoordinates,Original*%
%TF.FileFunction,Copper,L2,Bot*%
%TF.FilePolarity,Positive*%
%FSLAX46Y46*%
G04 Gerber Fmt 4.6, Leading zero omitted, Abs format (unit mm)*
G04 Created by KiCad (PCBNEW 9.0.5) date 2025-12-02 21:19:21*
%MOMM*%
%LPD*%
G01*
G04 APERTURE LIST*
G04 Aperture macros list*
%AMRoundRect*
0 Rectangle with rounded corners*
0 $1 Rounding radius*
0 $2 $3 $4 $5 $6 $7 $8 $9 X,Y pos of 4 corners*
0 Add a 4 corners polygon primitive as box body*
4,1,4,$2,$3,$4,$5,$6,$7,$8,$9,$2,$3,0*
0 Add four circle primitives for the rounded corners*
1,1,$1+$1,$2,$3*
1,1,$1+$1,$4,$5*
1,1,$1+$1,$6,$7*
1,1,$1+$1,$8,$9*
0 Add four rect primitives between the rounded corners*
20,1,$1+$1,$2,$3,$4,$5,0*
20,1,$1+$1,$4,$5,$6,$7,0*
20,1,$1+$1,$6,$7,$8,$9,0*
20,1,$1+$1,$8,$9,$2,$3,0*%
G04 Aperture macros list end*
%TA.AperFunction,ComponentPad*%
%ADD10RoundRect,0.250001X0.949999X0.949999X-0.949999X0.949999X-0.949999X-0.949999X0.949999X-0.949999X0*%
%TD*%
%TA.AperFunction,ComponentPad*%
%ADD11C,2.400000*%
%TD*%
%TA.AperFunction,ComponentPad*%
%ADD12RoundRect,0.250001X-0.949999X-0.949999X0.949999X-0.949999X0.949999X0.949999X-0.949999X0.949999X0*%
%TD*%
%TA.AperFunction,ComponentPad*%
%ADD13R,1.700000X1.700000*%
%TD*%
%TA.AperFunction,ComponentPad*%
%ADD14O,1.700000X1.700000*%
%TD*%
G04 APERTURE END LIST*
D10*
%TO.P,C39,1*%
%TO.N,+24V*%
X117210000Y-109109999D03*
D11*
%TO.P,C39,2*%
%TO.N,GND*%
X109710000Y-109109999D03*
%TD*%
D12*
%TO.P,C42,1*%
%TO.N,+24V*%
X127210000Y-91109999D03*
D11*
%TO.P,C42,2*%
%TO.N,GND*%
X134710000Y-91109999D03*
%TD*%
D10*
%TO.P,C37,1*%
%TO.N,+24V*%
X117210000Y-73109999D03*
D11*
%TO.P,C37,2*%
%TO.N,GND*%
X109710000Y-73109999D03*
%TD*%
D12*
%TO.P,C41,1*%
%TO.N,+24V*%
X127210000Y-73309999D03*
D11*
%TO.P,C41,2*%
%TO.N,GND*%
X134710000Y-73309999D03*
%TD*%
D13*
%TO.P,J2,1,Pin_1*%
%TO.N,+24V*%
X127345000Y-121329999D03*
D14*
%TO.P,J2,2,Pin_2*%
X124805000Y-121329999D03*
%TO.P,J2,3,Pin_3*%
%TO.N,unconnected-(J2-Pin_3-Pad3)*%
X122265000Y-121329999D03*
%TO.P,J2,4,Pin_4*%
%TO.N,GND*%
X119725000Y-121329999D03*
%TO.P,J2,5,Pin_5*%
X117185000Y-121329999D03*
%TD*%
D13*
%TO.P,J1,1,Pin_1*%
%TO.N,+24V*%
X127325000Y-60209999D03*
D14*
%TO.P,J1,2,Pin_2*%
X124785000Y-60209999D03*
%TO.P,J1,3,Pin_3*%
%TO.N,unconnected-(J1-Pin_3-Pad3)*%
X122245000Y-60209999D03*
%TO.P,J1,4,Pin_4*%
%TO.N,GND*%
X119705000Y-60209999D03*
%TO.P,J1,5,Pin_5*%
X117165000Y-60209999D03*
%TD*%
D12*
%TO.P,C43,1*%
%TO.N,+24V*%
X127210000Y-109109999D03*
D11*
%TO.P,C43,2*%
%TO.N,GND*%
X134710000Y-109109999D03*
%TD*%
D10*
%TO.P,C38,1*%
%TO.N,+24V*%
X117210000Y-91109999D03*
D11*
%TO.P,C38,2*%
%TO.N,GND*%
X109710000Y-91109999D03*
%TD*%
%TA.AperFunction,Conductor*%
%TO.N,GND*%
G36*
X151464041Y-55710764D02*
G01*
X151486989Y-55712268D01*
X151718114Y-55727416D01*
X151734172Y-55729531D01*
X151979888Y-55778407D01*
X151995554Y-55782605D01*
X152146736Y-55833924D01*
X152232788Y-55863135D01*
X152247765Y-55869338D01*
X152465336Y-55976632D01*
X152472460Y-55980145D01*
X152486507Y-55988255D01*
X152527649Y-56015745D01*
X152694812Y-56127440D01*
X152707679Y-56137313D01*
X152896034Y-56302496D01*
X152907503Y-56313965D01*
X153072686Y-56502319D01*
X153082560Y-56515187D01*
X153221746Y-56723494D01*
X153229855Y-56737539D01*
X153340536Y-56961980D01*
X153340657Y-56962224D01*
X153346864Y-56977210D01*
X153427394Y-57214444D01*
X153431592Y-57230110D01*
X153480466Y-57475813D01*
X153482584Y-57491895D01*
X153499235Y-57745940D01*
X153499500Y-57754050D01*
X153499500Y-123785931D01*
X153499235Y-123794041D01*
X153482583Y-124048103D01*
X153480465Y-124064184D01*
X153431591Y-124309889D01*
X153427393Y-124325556D01*
X153346866Y-124562782D01*
X153340659Y-124577768D01*
X153229851Y-124802463D01*
X153221741Y-124816510D01*
X153082562Y-125024807D01*
X153072688Y-125037675D01*
X152907503Y-125226033D01*
X152896034Y-125237502D01*
X152707679Y-125402685D01*
X152694811Y-125412559D01*
X152486507Y-125551743D01*
X152472460Y-125559853D01*
X152247772Y-125670657D01*
X152232786Y-125676864D01*
X151995554Y-125757393D01*
X151979888Y-125761591D01*
X151734186Y-125810465D01*
X151718104Y-125812583D01*
X151464057Y-125829234D01*
X151455947Y-125829499D01*
X93044068Y-125829499D01*
X93035958Y-125829234D01*
X92781896Y-125812582D01*
X92765815Y-125810464D01*
X92732043Y-125803746D01*
X92520111Y-125761590D01*
X92504445Y-125757392D01*
X92267214Y-125676863D01*
X92252228Y-125670656D01*
X92027540Y-125559852D01*
X92013493Y-125551742D01*
X91846331Y-125440048D01*
X91805187Y-125412557D01*
X91792321Y-125402684D01*
X91603966Y-125237501D01*
X91592497Y-125226032D01*
X91427312Y-125037675D01*
X91417438Y-125024807D01*
X91278255Y-124816504D01*
X91270149Y-124802463D01*
X91159341Y-124577768D01*
X91153134Y-124562782D01*
X91072607Y-124325556D01*
X91068409Y-124309889D01*
X91059737Y-124266290D01*
X91019533Y-124064173D01*
X91017418Y-124048115D01*
X91000764Y-123794023D01*
X91000500Y-123785918D01*
X91000500Y-121223712D01*
X120914500Y-121223712D01*
X120914500Y-121436285D01*
X120947753Y-121646238D01*
X121013444Y-121848413D01*
X121109951Y-122037819D01*
X121234890Y-122209785D01*
X121385213Y-122360108D01*
X121557179Y-122485047D01*
X121557181Y-122485048D01*
X121557184Y-122485050D01*
X121746588Y-122581556D01*
X121948757Y-122647245D01*
X122158713Y-122680499D01*
X122158714Y-122680499D01*
X122371286Y-122680499D01*
X122371287Y-122680499D01*
X122581243Y-122647245D01*
X122783412Y-122581556D01*
X122972816Y-122485050D01*
X123059138Y-122422334D01*
X123144786Y-122360108D01*
X123144788Y-122360105D01*
X123144792Y-122360103D01*
X123295104Y-122209791D01*
X123295106Y-122209787D01*
X123295109Y-122209785D01*
X123420048Y-122037819D01*
X123420047Y-122037819D01*
X123420051Y-122037815D01*
X123424514Y-122029053D01*
X123472488Y-121978258D01*
X123540308Y-121961462D01*
X123606444Y-121983998D01*
X123645486Y-122029055D01*
X123649951Y-122037819D01*
X123774890Y-122209785D01*
X123925213Y-122360108D01*
X124097179Y-122485047D01*
X124097181Y-122485048D01*
X124097184Y-122485050D01*
X124286588Y-122581556D01*
X124488757Y-122647245D01*
X124698713Y-122680499D01*
X124698714Y-122680499D01*
X124911286Y-122680499D01*
X124911287Y-122680499D01*
X125121243Y-122647245D01*
X125323412Y-122581556D01*
X125512816Y-122485050D01*
X125684792Y-122360103D01*
X125798329Y-122246565D01*
X125859648Y-122213083D01*
X125929340Y-122218067D01*
X125985274Y-122259938D01*
X126002189Y-122290916D01*
X126051202Y-122422327D01*
X126051206Y-122422334D01*
X126137452Y-122537543D01*
X126137455Y-122537546D01*
X126252664Y-122623792D01*
X126252671Y-122623796D01*
X126387517Y-122674090D01*
X126387516Y-122674090D01*
X126394444Y-122674834D01*
X126447127Y-122680499D01*
X128242872Y-122680498D01*
X128302483Y-122674090D01*
X128437331Y-122623795D01*
X128552546Y-122537545D01*
X128638796Y-122422330D01*
X128689091Y-122287482D01*
X128695500Y-122227872D01*
X128695499Y-120432127D01*
X128689091Y-120372516D01*
X128687810Y-120369082D01*
X128638797Y-120237670D01*
X128638793Y-120237663D01*
X128552547Y-120122454D01*
X128552544Y-120122451D01*
X128437335Y-120036205D01*
X128437328Y-120036201D01*
X128302482Y-119985907D01*
X128302483Y-119985907D01*
X128242883Y-119979500D01*
X128242881Y-119979499D01*
X128242873Y-119979499D01*
X128242864Y-119979499D01*
X126447129Y-119979499D01*
X126447123Y-119979500D01*
X126387516Y-119985907D01*
X126252671Y-120036201D01*
X126252664Y-120036205D01*
X126137455Y-120122451D01*
X126137452Y-120122454D01*
X126051206Y-120237663D01*
X126051203Y-120237668D01*
X126002189Y-120369082D01*
X125960317Y-120425015D01*
X125894853Y-120449432D01*
X125826580Y-120434580D01*
X125798326Y-120413429D01*
X125684786Y-120299889D01*
X125512820Y-120174950D01*
X125323414Y-120078443D01*
X125323413Y-120078442D01*
X125323412Y-120078442D01*
X125121243Y-120012753D01*
X125121241Y-120012752D01*
X125121240Y-120012752D01*
X124959957Y-119987207D01*
X124911287Y-119979499D01*
X124698713Y-119979499D01*
X124650042Y-119987207D01*
X124488760Y-120012752D01*
X124286585Y-120078443D01*
X124097179Y-120174950D01*
X123925213Y-120299889D01*
X123774890Y-120450212D01*
X123649949Y-120622181D01*
X123645484Y-120630945D01*
X123597509Y-120681741D01*
X123529688Y-120698535D01*
X123463553Y-120675997D01*
X123424516Y-120630945D01*
X123420050Y-120622181D01*
X123295109Y-120450212D01*
X123144786Y-120299889D01*
X122972820Y-120174950D01*
X122783414Y-120078443D01*
X122783413Y-120078442D01*
X122783412Y-120078442D01*
X122581243Y-120012753D01*
X122581241Y-120012752D01*
X122581240Y-120012752D01*
X122419957Y-119987207D01*
X122371287Y-119979499D01*
X122158713Y-119979499D01*
X122110042Y-119987207D01*
X121948760Y-120012752D01*
X121746585Y-120078443D01*
X121557179Y-120174950D01*
X121385213Y-120299889D01*
X121234890Y-120450212D01*
X121109951Y-120622178D01*
X121013444Y-120811584D01*
X120947753Y-121013759D01*
X120914500Y-121223712D01*
X91000500Y-121223712D01*
X91000500Y-108109983D01*
X115509500Y-108109983D01*
X115509500Y-110110014D01*
X115520000Y-110212794D01*
X115520001Y-110212795D01*
X115575186Y-110379334D01*
X115575187Y-110379336D01*
X115667286Y-110528650D01*
X115667289Y-110528654D01*
X115791344Y-110652709D01*
X115791348Y-110652712D01*
X115940662Y-110744811D01*
X115940664Y-110744812D01*
X115940666Y-110744813D01*
X116107203Y-110799998D01*
X116209992Y-110810499D01*
X116209997Y-110810499D01*
X118210003Y-110810499D01*
X118210008Y-110810499D01*
X118312797Y-110799998D01*
X118479334Y-110744813D01*
X118628655Y-110652710D01*
X118752711Y-110528654D01*
X118844814Y-110379333D01*
X118899999Y-110212796D01*
X118910500Y-110110007D01*
X118910500Y-108109991D01*
X118910499Y-108109983D01*
X125509500Y-108109983D01*
X125509500Y-110110014D01*
X125520000Y-110212794D01*
X125520001Y-110212795D01*
X125575186Y-110379334D01*
X125575187Y-110379336D01*
X125667286Y-110528650D01*
X125667289Y-110528654D01*
X125791344Y-110652709D01*
X125791348Y-110652712D01*
X125940662Y-110744811D01*
X125940664Y-110744812D01*
X125940666Y-110744813D01*
X126107203Y-110799998D01*
X126209992Y-110810499D01*
X126209997Y-110810499D01*
X128210003Y-110810499D01*
X128210008Y-110810499D01*
X128312797Y-110799998D01*
X128479334Y-110744813D01*
X128628655Y-110652710D01*
X128752711Y-110528654D01*
X128844814Y-110379333D01*
X128899999Y-110212796D01*
X128910500Y-110110007D01*
X128910500Y-108109991D01*
X128899999Y-108007202D01*
X128844814Y-107840665D01*
X128752711Y-107691344D01*
X128628655Y-107567288D01*
X128628651Y-107567285D01*
X128479337Y-107475186D01*
X128479335Y-107475185D01*
X128396065Y-107447592D01*
X128312797Y-107420000D01*
X128312795Y-107419999D01*
X128210015Y-107409499D01*
X128210008Y-107409499D01*
X126209992Y-107409499D01*
X126209984Y-107409499D01*
X126107204Y-107419999D01*
X126107203Y-107420000D01*
X125940664Y-107475185D01*
X125940662Y-107475186D01*
X125791348Y-107567285D01*
X125791344Y-107567288D01*
X125667289Y-107691343D01*
X125667286Y-107691347D01*
X125575187Y-107840661D01*
X125575186Y-107840663D01*
X125520001Y-108007202D01*
X125520000Y-108007203D01*
X125509500Y-108109983D01*
X118910499Y-108109983D01*
X118899999Y-108007202D01*
X118844814Y-107840665D01*
X118752711Y-107691344D01*
X118628655Y-107567288D01*
X118628651Y-107567285D01*
X118479337Y-107475186D01*
X118479335Y-107475185D01*
X118396065Y-107447592D01*
X118312797Y-107420000D01*
X118312795Y-107419999D01*
X118210015Y-107409499D01*
X118210008Y-107409499D01*
X116209992Y-107409499D01*
X116209984Y-107409499D01*
X116107204Y-107419999D01*
X116107203Y-107420000D01*
X115940664Y-107475185D01*
X115940662Y-107475186D01*
X115791348Y-107567285D01*
X115791344Y-107567288D01*
X115667289Y-107691343D01*
X115667286Y-107691347D01*
X115575187Y-107840661D01*
X115575186Y-107840663D01*
X115520001Y-108007202D01*
X115520000Y-108007203D01*
X115509500Y-108109983D01*
X91000500Y-108109983D01*
X91000500Y-90109983D01*
X115509500Y-90109983D01*
X115509500Y-92110014D01*
X115520000Y-92212794D01*
X115520001Y-92212795D01*
X115575186Y-92379334D01*
X115575187Y-92379336D01*
X115667286Y-92528650D01*
X115667289Y-92528654D01*
X115791344Y-92652709D01*
X115791348Y-92652712D01*
X115940662Y-92744811D01*
X115940664Y-92744812D01*
X115940666Y-92744813D01*
X116107203Y-92799998D01*
X116209992Y-92810499D01*
X116209997Y-92810499D01*
X118210003Y-92810499D01*
X118210008Y-92810499D01*
X118312797Y-92799998D01*
X118479334Y-92744813D01*
X118628655Y-92652710D01*
X118752711Y-92528654D01*
X118844814Y-92379333D01*
X118899999Y-92212796D01*
X118910500Y-92110007D01*
X118910500Y-90109991D01*
X118910499Y-90109983D01*
X125509500Y-90109983D01*
X125509500Y-92110014D01*
X125520000Y-92212794D01*
X125520001Y-92212795D01*
X125575186Y-92379334D01*
X125575187Y-92379336D01*
X125667286Y-92528650D01*
X125667289Y-92528654D01*
X125791344Y-92652709D01*
X125791348Y-92652712D01*
X125940662Y-92744811D01*
X125940664Y-92744812D01*
X125940666Y-92744813D01*
X126107203Y-92799998D01*
X126209992Y-92810499D01*
X126209997Y-92810499D01*
X128210003Y-92810499D01*
X128210008Y-92810499D01*
X128312797Y-92799998D01*
X128479334Y-92744813D01*
X128628655Y-92652710D01*
X128752711Y-92528654D01*
X128844814Y-92379333D01*
X128899999Y-92212796D01*
X128910500Y-92110007D01*
X128910500Y-90109991D01*
X128899999Y-90007202D01*
X128844814Y-89840665D01*
X128752711Y-89691344D01*
X128628655Y-89567288D01*
X128628651Y-89567285D01*
X128479337Y-89475186D01*
X128479335Y-89475185D01*
X128396065Y-89447592D01*
X128312797Y-89420000D01*
X128312795Y-89419999D01*
X128210015Y-89409499D01*
X128210008Y-89409499D01*
X126209992Y-89409499D01*
X126209984Y-89409499D01*
X126107204Y-89419999D01*
X126107203Y-89420000D01*
X125940664Y-89475185D01*
X125940662Y-89475186D01*
X125791348Y-89567285D01*
X125791344Y-89567288D01*
X125667289Y-89691343D01*
X125667286Y-89691347D01*
X125575187Y-89840661D01*
X125575186Y-89840663D01*
X125520001Y-90007202D01*
X125520000Y-90007203D01*
X125509500Y-90109983D01*
X118910499Y-90109983D01*
X118899999Y-90007202D01*
X118844814Y-89840665D01*
X118752711Y-89691344D01*
X118628655Y-89567288D01*
X118628651Y-89567285D01*
X118479337Y-89475186D01*
X118479335Y-89475185D01*
X118396065Y-89447592D01*
X118312797Y-89420000D01*
X118312795Y-89419999D01*
X118210015Y-89409499D01*
X118210008Y-89409499D01*
X116209992Y-89409499D01*
X116209984Y-89409499D01*
X116107204Y-89419999D01*
X116107203Y-89420000D01*
X115940664Y-89475185D01*
X115940662Y-89475186D01*
X115791348Y-89567285D01*
X115791344Y-89567288D01*
X115667289Y-89691343D01*
X115667286Y-89691347D01*
X115575187Y-89840661D01*
X115575186Y-89840663D01*
X115520001Y-90007202D01*
X115520000Y-90007203D01*
X115509500Y-90109983D01*
X91000500Y-90109983D01*
X91000500Y-72109983D01*
X115509500Y-72109983D01*
X115509500Y-74110014D01*
X115520000Y-74212794D01*
X115520001Y-74212795D01*
X115575186Y-74379334D01*
X115575187Y-74379336D01*
X115667286Y-74528650D01*
X115667289Y-74528654D01*
X115791344Y-74652709D01*
X115791348Y-74652712D01*
X115940662Y-74744811D01*
X115940664Y-74744812D01*
X115940666Y-74744813D01*
X116107203Y-74799998D01*
X116209992Y-74810499D01*
X116209997Y-74810499D01*
X118210003Y-74810499D01*
X118210008Y-74810499D01*
X118312797Y-74799998D01*
X118479334Y-74744813D01*
X118628655Y-74652710D01*
X118752711Y-74528654D01*
X118844814Y-74379333D01*
X118899999Y-74212796D01*
X118910500Y-74110007D01*
X118910500Y-72309983D01*
X125509500Y-72309983D01*
X125509500Y-74310014D01*
X125520000Y-74412794D01*
X125520001Y-74412795D01*
X125575186Y-74579334D01*
X125575187Y-74579336D01*
X125667286Y-74728650D01*
X125667289Y-74728654D01*
X125791344Y-74852709D01*
X125791348Y-74852712D01*
X125940662Y-74944811D01*
X125940664Y-74944812D01*
X125940666Y-74944813D01*
X126107203Y-74999998D01*
X126209992Y-75010499D01*
X126209997Y-75010499D01*
X128210003Y-75010499D01*
X128210008Y-75010499D01*
X128312797Y-74999998D01*
X128479334Y-74944813D01*
X128628655Y-74852710D01*
X128752711Y-74728654D01*
X128844814Y-74579333D01*
X128899999Y-74412796D01*
X128910500Y-74310007D01*
X128910500Y-72309991D01*
X128899999Y-72207202D01*
X128844814Y-72040665D01*
X128824174Y-72007203D01*
X128752713Y-71891347D01*
X128752710Y-71891343D01*
X128628655Y-71767288D01*
X128628651Y-71767285D01*
X128479337Y-71675186D01*
X128479335Y-71675185D01*
X128396065Y-71647592D01*
X128312797Y-71620000D01*
X128312795Y-71619999D01*
X128210015Y-71609499D01*
X128210008Y-71609499D01*
X126209992Y-71609499D01*
X126209984Y-71609499D01*
X126107204Y-71619999D01*
X126107203Y-71620000D01*
X125940664Y-71675185D01*
X125940662Y-71675186D01*
X125791348Y-71767285D01*
X125791344Y-71767288D01*
X125667289Y-71891343D01*
X125667286Y-71891347D01*
X125575187Y-72040661D01*
X125575186Y-72040663D01*
X125520001Y-72207202D01*
X125520000Y-72207203D01*
X125509500Y-72309983D01*
X118910500Y-72309983D01*
X118910500Y-72109991D01*
X118899999Y-72007202D01*
X118844814Y-71840665D01*
X118799552Y-71767285D01*
X118752713Y-71691347D01*
X118752710Y-71691343D01*
X118628655Y-71567288D01*
X118628651Y-71567285D01*
X118479337Y-71475186D01*
X118479335Y-71475185D01*
X118396065Y-71447592D01*
X118312797Y-71420000D01*
X118312795Y-71419999D01*
X118210015Y-71409499D01*
X118210008Y-71409499D01*
X116209992Y-71409499D01*
X116209984Y-71409499D01*
X116107204Y-71419999D01*
X116107203Y-71420000D01*
X115940664Y-71475185D01*
X115940662Y-71475186D01*
X115791348Y-71567285D01*
X115791344Y-71567288D01*
X115667289Y-71691343D01*
X115667286Y-71691347D01*
X115575187Y-71840661D01*
X115575186Y-71840663D01*
X115520001Y-72007202D01*
X115520000Y-72007203D01*
X115509500Y-72109983D01*
X91000500Y-72109983D01*
X91000500Y-60103712D01*
X120894500Y-60103712D01*
X120894500Y-60316285D01*
X120927753Y-60526238D01*
X120993444Y-60728413D01*
X121089951Y-60917819D01*
X121214890Y-61089785D01*
X121365213Y-61240108D01*
X121537179Y-61365047D01*
X121537181Y-61365048D01*
X121537184Y-61365050D01*
X121726588Y-61461556D01*
X121928757Y-61527245D01*
X122138713Y-61560499D01*
X122138714Y-61560499D01*
X122351286Y-61560499D01*
X122351287Y-61560499D01*
X122561243Y-61527245D01*
X122763412Y-61461556D01*
X122952816Y-61365050D01*
X123039138Y-61302334D01*
X123124786Y-61240108D01*
X123124788Y-61240105D01*
X123124792Y-61240103D01*
X123275104Y-61089791D01*
X123275106Y-61089787D01*
X123275109Y-61089785D01*
X123400048Y-60917819D01*
X123400047Y-60917819D01*
X123400051Y-60917815D01*
X123404514Y-60909053D01*
X123452488Y-60858258D01*
X123520308Y-60841462D01*
X123586444Y-60863998D01*
X123625486Y-60909055D01*
X123629951Y-60917819D01*
X123754890Y-61089785D01*
X123905213Y-61240108D01*
X124077179Y-61365047D01*
X124077181Y-61365048D01*
X124077184Y-61365050D01*
X124266588Y-61461556D01*
X124468757Y-61527245D01*
X124678713Y-61560499D01*
X124678714Y-61560499D01*
X124891286Y-61560499D01*
X124891287Y-61560499D01*
X125101243Y-61527245D01*
X125303412Y-61461556D01*
X125492816Y-61365050D01*
X125664792Y-61240103D01*
X125778329Y-61126565D01*
X125839648Y-61093083D01*
X125909340Y-61098067D01*
X125965274Y-61139938D01*
X125982189Y-61170916D01*
X126031202Y-61302327D01*
X126031206Y-61302334D01*
X126117452Y-61417543D01*
X126117455Y-61417546D01*
X126232664Y-61503792D01*
X126232671Y-61503796D01*
X126367517Y-61554090D01*
X126367516Y-61554090D01*
X126374444Y-61554834D01*
X126427127Y-61560499D01*
X128222872Y-61560498D01*
X128282483Y-61554090D01*
X128417331Y-61503795D01*
X128532546Y-61417545D01*
X128618796Y-61302330D01*
X128669091Y-61167482D01*
X128675500Y-61107872D01*
X128675499Y-59312127D01*
X128669091Y-59252516D01*
X128667810Y-59249082D01*
X128618797Y-59117670D01*
X128618793Y-59117663D01*
X128532547Y-59002454D01*
X128532544Y-59002451D01*
X128417335Y-58916205D01*
X128417328Y-58916201D01*
X128282482Y-58865907D01*
X128282483Y-58865907D01*
X128222883Y-58859500D01*
X128222881Y-58859499D01*
X128222873Y-58859499D01*
X128222864Y-58859499D01*
X126427129Y-58859499D01*
X126427123Y-58859500D01*
X126367516Y-58865907D01*
X126232671Y-58916201D01*
X126232664Y-58916205D01*
X126117455Y-59002451D01*
X126117452Y-59002454D01*
X126031206Y-59117663D01*
X126031203Y-59117668D01*
X125982189Y-59249082D01*
X125940317Y-59305015D01*
X125874853Y-59329432D01*
X125806580Y-59314580D01*
X125778326Y-59293429D01*
X125664786Y-59179889D01*
X125492820Y-59054950D01*
X125303414Y-58958443D01*
X125303413Y-58958442D01*
X125303412Y-58958442D01*
X125101243Y-58892753D01*
X125101241Y-58892752D01*
X125101240Y-58892752D01*
X124939957Y-58867207D01*
X124891287Y-58859499D01*
X124678713Y-58859499D01*
X124630042Y-58867207D01*
X124468760Y-58892752D01*
X124266585Y-58958443D01*
X124077179Y-59054950D01*
X123905213Y-59179889D01*
X123754890Y-59330212D01*
X123629949Y-59502181D01*
X123625484Y-59510945D01*
X123577509Y-59561741D01*
X123509688Y-59578535D01*
X123443553Y-59555997D01*
X123404516Y-59510945D01*
X123400050Y-59502181D01*
X123275109Y-59330212D01*
X123124786Y-59179889D01*
X122952820Y-59054950D01*
X122763414Y-58958443D01*
X122763413Y-58958442D01*
X122763412Y-58958442D01*
X122561243Y-58892753D01*
X122561241Y-58892752D01*
X122561240Y-58892752D01*
X122399957Y-58867207D01*
X122351287Y-58859499D01*
X122138713Y-58859499D01*
X122090042Y-58867207D01*
X121928760Y-58892752D01*
X121726585Y-58958443D01*
X121537179Y-59054950D01*
X121365213Y-59179889D01*
X121214890Y-59330212D01*
X121089951Y-59502178D01*
X120993444Y-59691584D01*
X120927753Y-59893759D01*
X120894500Y-60103712D01*
X91000500Y-60103712D01*
X91000500Y-57754066D01*
X91000765Y-57745957D01*
X91004819Y-57684108D01*
X91017417Y-57491883D01*
X91019531Y-57475829D01*
X91068409Y-57230105D01*
X91072606Y-57214444D01*
X91095741Y-57146290D01*
X91153137Y-56977205D01*
X91159336Y-56962239D01*
X91270149Y-56737533D01*
X91278255Y-56723494D01*
X91417448Y-56515176D01*
X91427305Y-56502330D01*
X91592502Y-56313959D01*
X91603960Y-56302501D01*
X91792330Y-56137305D01*
X91805176Y-56127448D01*
X92013498Y-55988252D01*
X92027533Y-55980149D01*
X92252238Y-55869337D01*
X92267209Y-55863136D01*
X92504452Y-55782603D01*
X92520099Y-55778410D01*
X92765828Y-55729532D01*
X92781882Y-55727417D01*
X93035976Y-55710763D01*
X93044080Y-55710499D01*
X93105893Y-55710499D01*
X151394107Y-55710499D01*
X151455932Y-55710499D01*
X151464041Y-55710764D01*
G37*
%TD.AperFunction*%
%TD*%
M02*
