M48
; DRILL file {KiCad 9.0.5} date 2025-12-02T21:17:33+0800
; FORMAT={-:-/ absolute / inch / decimal}
; #@! TF.CreationDate,2025-12-02T21:17:33+08:00
; #@! TF.GenerationSoftware,Kicad,Pcbnew,9.0.5
; #@! TF.FileFunction,Plated,1,2,PTH
FMAT,2
INCH
; #@! TA.AperFunction,Plated,PTH,ComponentDrill
T1C0.0394
; #@! TA.AperFunction,Plated,PTH,ComponentDrill
T2C0.0472
%
G90
G05
T1
X4.6128Y-2.3705
X4.6136Y-4.7768
X4.7128Y-2.3705
X4.7136Y-4.7768
X4.8128Y-2.3705
X4.8136Y-4.7768
X4.9128Y-2.3705
X4.9136Y-4.7768
X5.0128Y-2.3705
X5.0136Y-4.7768
T2
X4.3193Y-2.8783
X4.3193Y-3.587
X4.3193Y-4.2957
X4.6146Y-2.8783
X4.6146Y-3.587
X4.6146Y-4.2957
X5.0083Y-2.8862
X5.0083Y-3.587
X5.0083Y-4.2957
X5.3035Y-2.8862
X5.3035Y-3.587
X5.3035Y-4.2957
M30
