%TF.GenerationSoftware,KiCad,Pcbnew,9.0.5*%
%TF.CreationDate,2025-12-02T21:19:21+08:00*%
%TF.ProjectId,boost caps,626f6f73-7420-4636-9170-732e6b696361,rev?*%
%TF.SameCoordinates,Original*%
%TF.FileFunction,Legend,Bot*%
%TF.FilePolarity,Positive*%
%FSLAX46Y46*%
G04 Gerber Fmt 4.6, Leading zero omitted, Abs format (unit mm)*
G04 Created by KiCad (PCBNEW 9.0.5) date 2025-12-02 21:19:21*
%MOMM*%
%LPD*%
G01*
G04 APERTURE LIST*
G04 Aperture macros list*
%AMRoundRect*
0 Rectangle with rounded corners*
0 $1 Rounding radius*
0 $2 $3 $4 $5 $6 $7 $8 $9 X,Y pos of 4 corners*
0 Add a 4 corners polygon primitive as box body*
4,1,4,$2,$3,$4,$5,$6,$7,$8,$9,$2,$3,0*
0 Add four circle primitives for the rounded corners*
1,1,$1+$1,$2,$3*
1,1,$1+$1,$4,$5*
1,1,$1+$1,$6,$7*
1,1,$1+$1,$8,$9*
0 Add four rect primitives between the rounded corners*
20,1,$1+$1,$2,$3,$4,$5,0*
20,1,$1+$1,$4,$5,$6,$7,0*
20,1,$1+$1,$6,$7,$8,$9,0*
20,1,$1+$1,$8,$9,$2,$3,0*%
G04 Aperture macros list end*
%ADD10C,0.200000*%
%ADD11RoundRect,0.250001X0.949999X0.949999X-0.949999X0.949999X-0.949999X-0.949999X0.949999X-0.949999X0*%
%ADD12C,2.400000*%
%ADD13RoundRect,0.250001X-0.949999X-0.949999X0.949999X-0.949999X0.949999X0.949999X-0.949999X0.949999X0*%
%ADD14R,1.700000X1.700000*%
%ADD15O,1.700000X1.700000*%
G04 APERTURE END LIST*
D10*
X130678572Y-100222218D02*
X130678572Y-99222218D01*
X130678572Y-99222218D02*
X130440477Y-99222218D01*
X130440477Y-99222218D02*
X130297620Y-99269837D01*
X130297620Y-99269837D02*
X130202382Y-99365075D01*
X130202382Y-99365075D02*
X130154763Y-99460313D01*
X130154763Y-99460313D02*
X130107144Y-99650789D01*
X130107144Y-99650789D02*
X130107144Y-99793646D01*
X130107144Y-99793646D02*
X130154763Y-99984122D01*
X130154763Y-99984122D02*
X130202382Y-100079360D01*
X130202382Y-100079360D02*
X130297620Y-100174599D01*
X130297620Y-100174599D02*
X130440477Y-100222218D01*
X130440477Y-100222218D02*
X130678572Y-100222218D01*
X129297620Y-100174599D02*
X129392858Y-100222218D01*
X129392858Y-100222218D02*
X129583334Y-100222218D01*
X129583334Y-100222218D02*
X129678572Y-100174599D01*
X129678572Y-100174599D02*
X129726191Y-100079360D01*
X129726191Y-100079360D02*
X129726191Y-99698408D01*
X129726191Y-99698408D02*
X129678572Y-99603170D01*
X129678572Y-99603170D02*
X129583334Y-99555551D01*
X129583334Y-99555551D02*
X129392858Y-99555551D01*
X129392858Y-99555551D02*
X129297620Y-99603170D01*
X129297620Y-99603170D02*
X129250001Y-99698408D01*
X129250001Y-99698408D02*
X129250001Y-99793646D01*
X129250001Y-99793646D02*
X129726191Y-99888884D01*
X128869048Y-100174599D02*
X128773810Y-100222218D01*
X128773810Y-100222218D02*
X128583334Y-100222218D01*
X128583334Y-100222218D02*
X128488096Y-100174599D01*
X128488096Y-100174599D02*
X128440477Y-100079360D01*
X128440477Y-100079360D02*
X128440477Y-100031741D01*
X128440477Y-100031741D02*
X128488096Y-99936503D01*
X128488096Y-99936503D02*
X128583334Y-99888884D01*
X128583334Y-99888884D02*
X128726191Y-99888884D01*
X128726191Y-99888884D02*
X128821429Y-99841265D01*
X128821429Y-99841265D02*
X128869048Y-99746027D01*
X128869048Y-99746027D02*
X128869048Y-99698408D01*
X128869048Y-99698408D02*
X128821429Y-99603170D01*
X128821429Y-99603170D02*
X128726191Y-99555551D01*
X128726191Y-99555551D02*
X128583334Y-99555551D01*
X128583334Y-99555551D02*
X128488096Y-99603170D01*
X128011905Y-100222218D02*
X128011905Y-99555551D01*
X128011905Y-99222218D02*
X128059524Y-99269837D01*
X128059524Y-99269837D02*
X128011905Y-99317456D01*
X128011905Y-99317456D02*
X127964286Y-99269837D01*
X127964286Y-99269837D02*
X128011905Y-99222218D01*
X128011905Y-99222218D02*
X128011905Y-99317456D01*
X127107144Y-99555551D02*
X127107144Y-100365075D01*
X127107144Y-100365075D02*
X127154763Y-100460313D01*
X127154763Y-100460313D02*
X127202382Y-100507932D01*
X127202382Y-100507932D02*
X127297620Y-100555551D01*
X127297620Y-100555551D02*
X127440477Y-100555551D01*
X127440477Y-100555551D02*
X127535715Y-100507932D01*
X127107144Y-100174599D02*
X127202382Y-100222218D01*
X127202382Y-100222218D02*
X127392858Y-100222218D01*
X127392858Y-100222218D02*
X127488096Y-100174599D01*
X127488096Y-100174599D02*
X127535715Y-100126979D01*
X127535715Y-100126979D02*
X127583334Y-100031741D01*
X127583334Y-100031741D02*
X127583334Y-99746027D01*
X127583334Y-99746027D02*
X127535715Y-99650789D01*
X127535715Y-99650789D02*
X127488096Y-99603170D01*
X127488096Y-99603170D02*
X127392858Y-99555551D01*
X127392858Y-99555551D02*
X127202382Y-99555551D01*
X127202382Y-99555551D02*
X127107144Y-99603170D01*
X126630953Y-99555551D02*
X126630953Y-100222218D01*
X126630953Y-99650789D02*
X126583334Y-99603170D01*
X126583334Y-99603170D02*
X126488096Y-99555551D01*
X126488096Y-99555551D02*
X126345239Y-99555551D01*
X126345239Y-99555551D02*
X126250001Y-99603170D01*
X126250001Y-99603170D02*
X126202382Y-99698408D01*
X126202382Y-99698408D02*
X126202382Y-100222218D01*
X124630953Y-99698408D02*
X124488096Y-99746027D01*
X124488096Y-99746027D02*
X124440477Y-99793646D01*
X124440477Y-99793646D02*
X124392858Y-99888884D01*
X124392858Y-99888884D02*
X124392858Y-100031741D01*
X124392858Y-100031741D02*
X124440477Y-100126979D01*
X124440477Y-100126979D02*
X124488096Y-100174599D01*
X124488096Y-100174599D02*
X124583334Y-100222218D01*
X124583334Y-100222218D02*
X124964286Y-100222218D01*
X124964286Y-100222218D02*
X124964286Y-99222218D01*
X124964286Y-99222218D02*
X124630953Y-99222218D01*
X124630953Y-99222218D02*
X124535715Y-99269837D01*
X124535715Y-99269837D02*
X124488096Y-99317456D01*
X124488096Y-99317456D02*
X124440477Y-99412694D01*
X124440477Y-99412694D02*
X124440477Y-99507932D01*
X124440477Y-99507932D02*
X124488096Y-99603170D01*
X124488096Y-99603170D02*
X124535715Y-99650789D01*
X124535715Y-99650789D02*
X124630953Y-99698408D01*
X124630953Y-99698408D02*
X124964286Y-99698408D01*
X124059524Y-99555551D02*
X123821429Y-100222218D01*
X123583334Y-99555551D02*
X123821429Y-100222218D01*
X123821429Y-100222218D02*
X123916667Y-100460313D01*
X123916667Y-100460313D02*
X123964286Y-100507932D01*
X123964286Y-100507932D02*
X124059524Y-100555551D01*
X122440476Y-99698408D02*
X122107143Y-99698408D01*
X121964286Y-100222218D02*
X122440476Y-100222218D01*
X122440476Y-100222218D02*
X122440476Y-99222218D01*
X122440476Y-99222218D02*
X121964286Y-99222218D01*
X121107143Y-99555551D02*
X121107143Y-100222218D01*
X121535714Y-99555551D02*
X121535714Y-100079360D01*
X121535714Y-100079360D02*
X121488095Y-100174599D01*
X121488095Y-100174599D02*
X121392857Y-100222218D01*
X121392857Y-100222218D02*
X121250000Y-100222218D01*
X121250000Y-100222218D02*
X121154762Y-100174599D01*
X121154762Y-100174599D02*
X121107143Y-100126979D01*
X120678571Y-100174599D02*
X120583333Y-100222218D01*
X120583333Y-100222218D02*
X120392857Y-100222218D01*
X120392857Y-100222218D02*
X120297619Y-100174599D01*
X120297619Y-100174599D02*
X120250000Y-100079360D01*
X120250000Y-100079360D02*
X120250000Y-100031741D01*
X120250000Y-100031741D02*
X120297619Y-99936503D01*
X120297619Y-99936503D02*
X120392857Y-99888884D01*
X120392857Y-99888884D02*
X120535714Y-99888884D01*
X120535714Y-99888884D02*
X120630952Y-99841265D01*
X120630952Y-99841265D02*
X120678571Y-99746027D01*
X120678571Y-99746027D02*
X120678571Y-99698408D01*
X120678571Y-99698408D02*
X120630952Y-99603170D01*
X120630952Y-99603170D02*
X120535714Y-99555551D01*
X120535714Y-99555551D02*
X120392857Y-99555551D01*
X120392857Y-99555551D02*
X120297619Y-99603170D01*
X119964285Y-99555551D02*
X119583333Y-99555551D01*
X119821428Y-99222218D02*
X119821428Y-100079360D01*
X119821428Y-100079360D02*
X119773809Y-100174599D01*
X119773809Y-100174599D02*
X119678571Y-100222218D01*
X119678571Y-100222218D02*
X119583333Y-100222218D01*
X119107142Y-100222218D02*
X119202380Y-100174599D01*
X119202380Y-100174599D02*
X119249999Y-100126979D01*
X119249999Y-100126979D02*
X119297618Y-100031741D01*
X119297618Y-100031741D02*
X119297618Y-99746027D01*
X119297618Y-99746027D02*
X119249999Y-99650789D01*
X119249999Y-99650789D02*
X119202380Y-99603170D01*
X119202380Y-99603170D02*
X119107142Y-99555551D01*
X119107142Y-99555551D02*
X118964285Y-99555551D01*
X118964285Y-99555551D02*
X118869047Y-99603170D01*
X118869047Y-99603170D02*
X118821428Y-99650789D01*
X118821428Y-99650789D02*
X118773809Y-99746027D01*
X118773809Y-99746027D02*
X118773809Y-100031741D01*
X118773809Y-100031741D02*
X118821428Y-100126979D01*
X118821428Y-100126979D02*
X118869047Y-100174599D01*
X118869047Y-100174599D02*
X118964285Y-100222218D01*
X118964285Y-100222218D02*
X119107142Y-100222218D01*
X118345237Y-99555551D02*
X118345237Y-100222218D01*
X118345237Y-99650789D02*
X118297618Y-99603170D01*
X118297618Y-99603170D02*
X118202380Y-99555551D01*
X118202380Y-99555551D02*
X118059523Y-99555551D01*
X118059523Y-99555551D02*
X117964285Y-99603170D01*
X117964285Y-99603170D02*
X117916666Y-99698408D01*
X117916666Y-99698408D02*
X117916666Y-100222218D01*
X116821427Y-99222218D02*
X116249999Y-99222218D01*
X116535713Y-100222218D02*
X116535713Y-99222218D01*
X115488094Y-100222218D02*
X115488094Y-99698408D01*
X115488094Y-99698408D02*
X115535713Y-99603170D01*
X115535713Y-99603170D02*
X115630951Y-99555551D01*
X115630951Y-99555551D02*
X115821427Y-99555551D01*
X115821427Y-99555551D02*
X115916665Y-99603170D01*
X115488094Y-100174599D02*
X115583332Y-100222218D01*
X115583332Y-100222218D02*
X115821427Y-100222218D01*
X115821427Y-100222218D02*
X115916665Y-100174599D01*
X115916665Y-100174599D02*
X115964284Y-100079360D01*
X115964284Y-100079360D02*
X115964284Y-99984122D01*
X115964284Y-99984122D02*
X115916665Y-99888884D01*
X115916665Y-99888884D02*
X115821427Y-99841265D01*
X115821427Y-99841265D02*
X115583332Y-99841265D01*
X115583332Y-99841265D02*
X115488094Y-99793646D01*
X115011903Y-99555551D02*
X115011903Y-100222218D01*
X115011903Y-99650789D02*
X114964284Y-99603170D01*
X114964284Y-99603170D02*
X114869046Y-99555551D01*
X114869046Y-99555551D02*
X114726189Y-99555551D01*
X114726189Y-99555551D02*
X114630951Y-99603170D01*
X114630951Y-99603170D02*
X114583332Y-99698408D01*
X114583332Y-99698408D02*
X114583332Y-100222218D01*
X131488095Y-80612274D02*
X131488095Y-79612274D01*
X131488095Y-80564655D02*
X131583333Y-80612274D01*
X131583333Y-80612274D02*
X131773809Y-80612274D01*
X131773809Y-80612274D02*
X131869047Y-80564655D01*
X131869047Y-80564655D02*
X131916666Y-80517035D01*
X131916666Y-80517035D02*
X131964285Y-80421797D01*
X131964285Y-80421797D02*
X131964285Y-80136083D01*
X131964285Y-80136083D02*
X131916666Y-80040845D01*
X131916666Y-80040845D02*
X131869047Y-79993226D01*
X131869047Y-79993226D02*
X131773809Y-79945607D01*
X131773809Y-79945607D02*
X131583333Y-79945607D01*
X131583333Y-79945607D02*
X131488095Y-79993226D01*
X130630952Y-80564655D02*
X130726190Y-80612274D01*
X130726190Y-80612274D02*
X130916666Y-80612274D01*
X130916666Y-80612274D02*
X131011904Y-80564655D01*
X131011904Y-80564655D02*
X131059523Y-80469416D01*
X131059523Y-80469416D02*
X131059523Y-80088464D01*
X131059523Y-80088464D02*
X131011904Y-79993226D01*
X131011904Y-79993226D02*
X130916666Y-79945607D01*
X130916666Y-79945607D02*
X130726190Y-79945607D01*
X130726190Y-79945607D02*
X130630952Y-79993226D01*
X130630952Y-79993226D02*
X130583333Y-80088464D01*
X130583333Y-80088464D02*
X130583333Y-80183702D01*
X130583333Y-80183702D02*
X131059523Y-80278940D01*
X130202380Y-80564655D02*
X130107142Y-80612274D01*
X130107142Y-80612274D02*
X129916666Y-80612274D01*
X129916666Y-80612274D02*
X129821428Y-80564655D01*
X129821428Y-80564655D02*
X129773809Y-80469416D01*
X129773809Y-80469416D02*
X129773809Y-80421797D01*
X129773809Y-80421797D02*
X129821428Y-80326559D01*
X129821428Y-80326559D02*
X129916666Y-80278940D01*
X129916666Y-80278940D02*
X130059523Y-80278940D01*
X130059523Y-80278940D02*
X130154761Y-80231321D01*
X130154761Y-80231321D02*
X130202380Y-80136083D01*
X130202380Y-80136083D02*
X130202380Y-80088464D01*
X130202380Y-80088464D02*
X130154761Y-79993226D01*
X130154761Y-79993226D02*
X130059523Y-79945607D01*
X130059523Y-79945607D02*
X129916666Y-79945607D01*
X129916666Y-79945607D02*
X129821428Y-79993226D01*
X129345237Y-80612274D02*
X129345237Y-79945607D01*
X129345237Y-79612274D02*
X129392856Y-79659893D01*
X129392856Y-79659893D02*
X129345237Y-79707512D01*
X129345237Y-79707512D02*
X129297618Y-79659893D01*
X129297618Y-79659893D02*
X129345237Y-79612274D01*
X129345237Y-79612274D02*
X129345237Y-79707512D01*
X128440476Y-79945607D02*
X128440476Y-80755131D01*
X128440476Y-80755131D02*
X128488095Y-80850369D01*
X128488095Y-80850369D02*
X128535714Y-80897988D01*
X128535714Y-80897988D02*
X128630952Y-80945607D01*
X128630952Y-80945607D02*
X128773809Y-80945607D01*
X128773809Y-80945607D02*
X128869047Y-80897988D01*
X128440476Y-80564655D02*
X128535714Y-80612274D01*
X128535714Y-80612274D02*
X128726190Y-80612274D01*
X128726190Y-80612274D02*
X128821428Y-80564655D01*
X128821428Y-80564655D02*
X128869047Y-80517035D01*
X128869047Y-80517035D02*
X128916666Y-80421797D01*
X128916666Y-80421797D02*
X128916666Y-80136083D01*
X128916666Y-80136083D02*
X128869047Y-80040845D01*
X128869047Y-80040845D02*
X128821428Y-79993226D01*
X128821428Y-79993226D02*
X128726190Y-79945607D01*
X128726190Y-79945607D02*
X128535714Y-79945607D01*
X128535714Y-79945607D02*
X128440476Y-79993226D01*
X127964285Y-79945607D02*
X127964285Y-80612274D01*
X127964285Y-80040845D02*
X127916666Y-79993226D01*
X127916666Y-79993226D02*
X127821428Y-79945607D01*
X127821428Y-79945607D02*
X127678571Y-79945607D01*
X127678571Y-79945607D02*
X127583333Y-79993226D01*
X127583333Y-79993226D02*
X127535714Y-80088464D01*
X127535714Y-80088464D02*
X127535714Y-80612274D01*
X126154761Y-80612274D02*
X126249999Y-80564655D01*
X126249999Y-80564655D02*
X126297618Y-80517035D01*
X126297618Y-80517035D02*
X126345237Y-80421797D01*
X126345237Y-80421797D02*
X126345237Y-80136083D01*
X126345237Y-80136083D02*
X126297618Y-80040845D01*
X126297618Y-80040845D02*
X126249999Y-79993226D01*
X126249999Y-79993226D02*
X126154761Y-79945607D01*
X126154761Y-79945607D02*
X126011904Y-79945607D01*
X126011904Y-79945607D02*
X125916666Y-79993226D01*
X125916666Y-79993226D02*
X125869047Y-80040845D01*
X125869047Y-80040845D02*
X125821428Y-80136083D01*
X125821428Y-80136083D02*
X125821428Y-80421797D01*
X125821428Y-80421797D02*
X125869047Y-80517035D01*
X125869047Y-80517035D02*
X125916666Y-80564655D01*
X125916666Y-80564655D02*
X126011904Y-80612274D01*
X126011904Y-80612274D02*
X126154761Y-80612274D01*
X125535713Y-79945607D02*
X125154761Y-79945607D01*
X125392856Y-80612274D02*
X125392856Y-79755131D01*
X125392856Y-79755131D02*
X125345237Y-79659893D01*
X125345237Y-79659893D02*
X125249999Y-79612274D01*
X125249999Y-79612274D02*
X125154761Y-79612274D01*
X124107141Y-79707512D02*
X124059522Y-79659893D01*
X124059522Y-79659893D02*
X123964284Y-79612274D01*
X123964284Y-79612274D02*
X123726189Y-79612274D01*
X123726189Y-79612274D02*
X123630951Y-79659893D01*
X123630951Y-79659893D02*
X123583332Y-79707512D01*
X123583332Y-79707512D02*
X123535713Y-79802750D01*
X123535713Y-79802750D02*
X123535713Y-79897988D01*
X123535713Y-79897988D02*
X123583332Y-80040845D01*
X123583332Y-80040845D02*
X124154760Y-80612274D01*
X124154760Y-80612274D02*
X123535713Y-80612274D01*
X123107141Y-80231321D02*
X122345237Y-80231321D01*
X121297618Y-80517035D02*
X121345237Y-80564655D01*
X121345237Y-80564655D02*
X121488094Y-80612274D01*
X121488094Y-80612274D02*
X121583332Y-80612274D01*
X121583332Y-80612274D02*
X121726189Y-80564655D01*
X121726189Y-80564655D02*
X121821427Y-80469416D01*
X121821427Y-80469416D02*
X121869046Y-80374178D01*
X121869046Y-80374178D02*
X121916665Y-80183702D01*
X121916665Y-80183702D02*
X121916665Y-80040845D01*
X121916665Y-80040845D02*
X121869046Y-79850369D01*
X121869046Y-79850369D02*
X121821427Y-79755131D01*
X121821427Y-79755131D02*
X121726189Y-79659893D01*
X121726189Y-79659893D02*
X121583332Y-79612274D01*
X121583332Y-79612274D02*
X121488094Y-79612274D01*
X121488094Y-79612274D02*
X121345237Y-79659893D01*
X121345237Y-79659893D02*
X121297618Y-79707512D01*
X120869046Y-80612274D02*
X120869046Y-79612274D01*
X120440475Y-80612274D02*
X120440475Y-80088464D01*
X120440475Y-80088464D02*
X120488094Y-79993226D01*
X120488094Y-79993226D02*
X120583332Y-79945607D01*
X120583332Y-79945607D02*
X120726189Y-79945607D01*
X120726189Y-79945607D02*
X120821427Y-79993226D01*
X120821427Y-79993226D02*
X120869046Y-80040845D01*
X119535713Y-80612274D02*
X119535713Y-80088464D01*
X119535713Y-80088464D02*
X119583332Y-79993226D01*
X119583332Y-79993226D02*
X119678570Y-79945607D01*
X119678570Y-79945607D02*
X119869046Y-79945607D01*
X119869046Y-79945607D02*
X119964284Y-79993226D01*
X119535713Y-80564655D02*
X119630951Y-80612274D01*
X119630951Y-80612274D02*
X119869046Y-80612274D01*
X119869046Y-80612274D02*
X119964284Y-80564655D01*
X119964284Y-80564655D02*
X120011903Y-80469416D01*
X120011903Y-80469416D02*
X120011903Y-80374178D01*
X120011903Y-80374178D02*
X119964284Y-80278940D01*
X119964284Y-80278940D02*
X119869046Y-80231321D01*
X119869046Y-80231321D02*
X119630951Y-80231321D01*
X119630951Y-80231321D02*
X119535713Y-80183702D01*
X119059522Y-80612274D02*
X119059522Y-79945607D01*
X119059522Y-79612274D02*
X119107141Y-79659893D01*
X119107141Y-79659893D02*
X119059522Y-79707512D01*
X119059522Y-79707512D02*
X119011903Y-79659893D01*
X119011903Y-79659893D02*
X119059522Y-79612274D01*
X119059522Y-79612274D02*
X119059522Y-79707512D01*
X118583332Y-80612274D02*
X118583332Y-79945607D01*
X118583332Y-80136083D02*
X118535713Y-80040845D01*
X118535713Y-80040845D02*
X118488094Y-79993226D01*
X118488094Y-79993226D02*
X118392856Y-79945607D01*
X118392856Y-79945607D02*
X118297618Y-79945607D01*
X118011903Y-80564655D02*
X117916665Y-80612274D01*
X117916665Y-80612274D02*
X117726189Y-80612274D01*
X117726189Y-80612274D02*
X117630951Y-80564655D01*
X117630951Y-80564655D02*
X117583332Y-80469416D01*
X117583332Y-80469416D02*
X117583332Y-80421797D01*
X117583332Y-80421797D02*
X117630951Y-80326559D01*
X117630951Y-80326559D02*
X117726189Y-80278940D01*
X117726189Y-80278940D02*
X117869046Y-80278940D01*
X117869046Y-80278940D02*
X117964284Y-80231321D01*
X117964284Y-80231321D02*
X118011903Y-80136083D01*
X118011903Y-80136083D02*
X118011903Y-80088464D01*
X118011903Y-80088464D02*
X117964284Y-79993226D01*
X117964284Y-79993226D02*
X117869046Y-79945607D01*
X117869046Y-79945607D02*
X117726189Y-79945607D01*
X117726189Y-79945607D02*
X117630951Y-79993226D01*
X117154760Y-80517035D02*
X117107141Y-80564655D01*
X117107141Y-80564655D02*
X117154760Y-80612274D01*
X117154760Y-80612274D02*
X117202379Y-80564655D01*
X117202379Y-80564655D02*
X117154760Y-80517035D01*
X117154760Y-80517035D02*
X117154760Y-80612274D01*
X115964284Y-79707512D02*
X115916665Y-79659893D01*
X115916665Y-79659893D02*
X115821427Y-79612274D01*
X115821427Y-79612274D02*
X115583332Y-79612274D01*
X115583332Y-79612274D02*
X115488094Y-79659893D01*
X115488094Y-79659893D02*
X115440475Y-79707512D01*
X115440475Y-79707512D02*
X115392856Y-79802750D01*
X115392856Y-79802750D02*
X115392856Y-79897988D01*
X115392856Y-79897988D02*
X115440475Y-80040845D01*
X115440475Y-80040845D02*
X116011903Y-80612274D01*
X116011903Y-80612274D02*
X115392856Y-80612274D01*
X114773808Y-79612274D02*
X114678570Y-79612274D01*
X114678570Y-79612274D02*
X114583332Y-79659893D01*
X114583332Y-79659893D02*
X114535713Y-79707512D01*
X114535713Y-79707512D02*
X114488094Y-79802750D01*
X114488094Y-79802750D02*
X114440475Y-79993226D01*
X114440475Y-79993226D02*
X114440475Y-80231321D01*
X114440475Y-80231321D02*
X114488094Y-80421797D01*
X114488094Y-80421797D02*
X114535713Y-80517035D01*
X114535713Y-80517035D02*
X114583332Y-80564655D01*
X114583332Y-80564655D02*
X114678570Y-80612274D01*
X114678570Y-80612274D02*
X114773808Y-80612274D01*
X114773808Y-80612274D02*
X114869046Y-80564655D01*
X114869046Y-80564655D02*
X114916665Y-80517035D01*
X114916665Y-80517035D02*
X114964284Y-80421797D01*
X114964284Y-80421797D02*
X115011903Y-80231321D01*
X115011903Y-80231321D02*
X115011903Y-79993226D01*
X115011903Y-79993226D02*
X114964284Y-79802750D01*
X114964284Y-79802750D02*
X114916665Y-79707512D01*
X114916665Y-79707512D02*
X114869046Y-79659893D01*
X114869046Y-79659893D02*
X114773808Y-79612274D01*
X114059522Y-79707512D02*
X114011903Y-79659893D01*
X114011903Y-79659893D02*
X113916665Y-79612274D01*
X113916665Y-79612274D02*
X113678570Y-79612274D01*
X113678570Y-79612274D02*
X113583332Y-79659893D01*
X113583332Y-79659893D02*
X113535713Y-79707512D01*
X113535713Y-79707512D02*
X113488094Y-79802750D01*
X113488094Y-79802750D02*
X113488094Y-79897988D01*
X113488094Y-79897988D02*
X113535713Y-80040845D01*
X113535713Y-80040845D02*
X114107141Y-80612274D01*
X114107141Y-80612274D02*
X113488094Y-80612274D01*
X112583332Y-79612274D02*
X113059522Y-79612274D01*
X113059522Y-79612274D02*
X113107141Y-80088464D01*
X113107141Y-80088464D02*
X113059522Y-80040845D01*
X113059522Y-80040845D02*
X112964284Y-79993226D01*
X112964284Y-79993226D02*
X112726189Y-79993226D01*
X112726189Y-79993226D02*
X112630951Y-80040845D01*
X112630951Y-80040845D02*
X112583332Y-80088464D01*
X112583332Y-80088464D02*
X112535713Y-80183702D01*
X112535713Y-80183702D02*
X112535713Y-80421797D01*
X112535713Y-80421797D02*
X112583332Y-80517035D01*
X112583332Y-80517035D02*
X112630951Y-80564655D01*
X112630951Y-80564655D02*
X112726189Y-80612274D01*
X112726189Y-80612274D02*
X112964284Y-80612274D01*
X112964284Y-80612274D02*
X113059522Y-80564655D01*
X113059522Y-80564655D02*
X113107141Y-80517035D01*
X132535715Y-81222218D02*
X132535715Y-81936503D01*
X132535715Y-81936503D02*
X132583334Y-82079360D01*
X132583334Y-82079360D02*
X132678572Y-82174599D01*
X132678572Y-82174599D02*
X132821429Y-82222218D01*
X132821429Y-82222218D02*
X132916667Y-82222218D01*
X131583334Y-82222218D02*
X132059524Y-82222218D01*
X132059524Y-82222218D02*
X132059524Y-81222218D01*
X130678572Y-82126979D02*
X130726191Y-82174599D01*
X130726191Y-82174599D02*
X130869048Y-82222218D01*
X130869048Y-82222218D02*
X130964286Y-82222218D01*
X130964286Y-82222218D02*
X131107143Y-82174599D01*
X131107143Y-82174599D02*
X131202381Y-82079360D01*
X131202381Y-82079360D02*
X131250000Y-81984122D01*
X131250000Y-81984122D02*
X131297619Y-81793646D01*
X131297619Y-81793646D02*
X131297619Y-81650789D01*
X131297619Y-81650789D02*
X131250000Y-81460313D01*
X131250000Y-81460313D02*
X131202381Y-81365075D01*
X131202381Y-81365075D02*
X131107143Y-81269837D01*
X131107143Y-81269837D02*
X130964286Y-81222218D01*
X130964286Y-81222218D02*
X130869048Y-81222218D01*
X130869048Y-81222218D02*
X130726191Y-81269837D01*
X130726191Y-81269837D02*
X130678572Y-81317456D01*
X129297619Y-81222218D02*
X129107143Y-81222218D01*
X129107143Y-81222218D02*
X129011905Y-81269837D01*
X129011905Y-81269837D02*
X128916667Y-81365075D01*
X128916667Y-81365075D02*
X128869048Y-81555551D01*
X128869048Y-81555551D02*
X128869048Y-81888884D01*
X128869048Y-81888884D02*
X128916667Y-82079360D01*
X128916667Y-82079360D02*
X129011905Y-82174599D01*
X129011905Y-82174599D02*
X129107143Y-82222218D01*
X129107143Y-82222218D02*
X129297619Y-82222218D01*
X129297619Y-82222218D02*
X129392857Y-82174599D01*
X129392857Y-82174599D02*
X129488095Y-82079360D01*
X129488095Y-82079360D02*
X129535714Y-81888884D01*
X129535714Y-81888884D02*
X129535714Y-81555551D01*
X129535714Y-81555551D02*
X129488095Y-81365075D01*
X129488095Y-81365075D02*
X129392857Y-81269837D01*
X129392857Y-81269837D02*
X129297619Y-81222218D01*
X128440476Y-82222218D02*
X128440476Y-81555551D01*
X128440476Y-81746027D02*
X128392857Y-81650789D01*
X128392857Y-81650789D02*
X128345238Y-81603170D01*
X128345238Y-81603170D02*
X128250000Y-81555551D01*
X128250000Y-81555551D02*
X128154762Y-81555551D01*
X127392857Y-82222218D02*
X127392857Y-81222218D01*
X127392857Y-82174599D02*
X127488095Y-82222218D01*
X127488095Y-82222218D02*
X127678571Y-82222218D01*
X127678571Y-82222218D02*
X127773809Y-82174599D01*
X127773809Y-82174599D02*
X127821428Y-82126979D01*
X127821428Y-82126979D02*
X127869047Y-82031741D01*
X127869047Y-82031741D02*
X127869047Y-81746027D01*
X127869047Y-81746027D02*
X127821428Y-81650789D01*
X127821428Y-81650789D02*
X127773809Y-81603170D01*
X127773809Y-81603170D02*
X127678571Y-81555551D01*
X127678571Y-81555551D02*
X127488095Y-81555551D01*
X127488095Y-81555551D02*
X127392857Y-81603170D01*
X126535714Y-82174599D02*
X126630952Y-82222218D01*
X126630952Y-82222218D02*
X126821428Y-82222218D01*
X126821428Y-82222218D02*
X126916666Y-82174599D01*
X126916666Y-82174599D02*
X126964285Y-82079360D01*
X126964285Y-82079360D02*
X126964285Y-81698408D01*
X126964285Y-81698408D02*
X126916666Y-81603170D01*
X126916666Y-81603170D02*
X126821428Y-81555551D01*
X126821428Y-81555551D02*
X126630952Y-81555551D01*
X126630952Y-81555551D02*
X126535714Y-81603170D01*
X126535714Y-81603170D02*
X126488095Y-81698408D01*
X126488095Y-81698408D02*
X126488095Y-81793646D01*
X126488095Y-81793646D02*
X126964285Y-81888884D01*
X126059523Y-82222218D02*
X126059523Y-81555551D01*
X126059523Y-81746027D02*
X126011904Y-81650789D01*
X126011904Y-81650789D02*
X125964285Y-81603170D01*
X125964285Y-81603170D02*
X125869047Y-81555551D01*
X125869047Y-81555551D02*
X125773809Y-81555551D01*
X124678570Y-82222218D02*
X124678570Y-81222218D01*
X124678570Y-81222218D02*
X124107142Y-82222218D01*
X124107142Y-82222218D02*
X124107142Y-81222218D01*
X123488094Y-82222218D02*
X123583332Y-82174599D01*
X123583332Y-82174599D02*
X123630951Y-82126979D01*
X123630951Y-82126979D02*
X123678570Y-82031741D01*
X123678570Y-82031741D02*
X123678570Y-81746027D01*
X123678570Y-81746027D02*
X123630951Y-81650789D01*
X123630951Y-81650789D02*
X123583332Y-81603170D01*
X123583332Y-81603170D02*
X123488094Y-81555551D01*
X123488094Y-81555551D02*
X123345237Y-81555551D01*
X123345237Y-81555551D02*
X123249999Y-81603170D01*
X123249999Y-81603170D02*
X123202380Y-81650789D01*
X123202380Y-81650789D02*
X123154761Y-81746027D01*
X123154761Y-81746027D02*
X123154761Y-82031741D01*
X123154761Y-82031741D02*
X123202380Y-82126979D01*
X123202380Y-82126979D02*
X123249999Y-82174599D01*
X123249999Y-82174599D02*
X123345237Y-82222218D01*
X123345237Y-82222218D02*
X123488094Y-82222218D01*
X122726189Y-82126979D02*
X122678570Y-82174599D01*
X122678570Y-82174599D02*
X122726189Y-82222218D01*
X122726189Y-82222218D02*
X122773808Y-82174599D01*
X122773808Y-82174599D02*
X122726189Y-82126979D01*
X122726189Y-82126979D02*
X122726189Y-82222218D01*
X121202380Y-81222218D02*
X121202380Y-81936503D01*
X121202380Y-81936503D02*
X121249999Y-82079360D01*
X121249999Y-82079360D02*
X121345237Y-82174599D01*
X121345237Y-82174599D02*
X121488094Y-82222218D01*
X121488094Y-82222218D02*
X121583332Y-82222218D01*
X120249999Y-82222218D02*
X120726189Y-82222218D01*
X120726189Y-82222218D02*
X120726189Y-81222218D01*
X119345237Y-82126979D02*
X119392856Y-82174599D01*
X119392856Y-82174599D02*
X119535713Y-82222218D01*
X119535713Y-82222218D02*
X119630951Y-82222218D01*
X119630951Y-82222218D02*
X119773808Y-82174599D01*
X119773808Y-82174599D02*
X119869046Y-82079360D01*
X119869046Y-82079360D02*
X119916665Y-81984122D01*
X119916665Y-81984122D02*
X119964284Y-81793646D01*
X119964284Y-81793646D02*
X119964284Y-81650789D01*
X119964284Y-81650789D02*
X119916665Y-81460313D01*
X119916665Y-81460313D02*
X119869046Y-81365075D01*
X119869046Y-81365075D02*
X119773808Y-81269837D01*
X119773808Y-81269837D02*
X119630951Y-81222218D01*
X119630951Y-81222218D02*
X119535713Y-81222218D01*
X119535713Y-81222218D02*
X119392856Y-81269837D01*
X119392856Y-81269837D02*
X119345237Y-81317456D01*
X118630951Y-81222218D02*
X118630951Y-81936503D01*
X118630951Y-81936503D02*
X118678570Y-82079360D01*
X118678570Y-82079360D02*
X118773808Y-82174599D01*
X118773808Y-82174599D02*
X118916665Y-82222218D01*
X118916665Y-82222218D02*
X119011903Y-82222218D01*
X117678570Y-82222218D02*
X118154760Y-82222218D01*
X118154760Y-82222218D02*
X118154760Y-81222218D01*
X116773808Y-82126979D02*
X116821427Y-82174599D01*
X116821427Y-82174599D02*
X116964284Y-82222218D01*
X116964284Y-82222218D02*
X117059522Y-82222218D01*
X117059522Y-82222218D02*
X117202379Y-82174599D01*
X117202379Y-82174599D02*
X117297617Y-82079360D01*
X117297617Y-82079360D02*
X117345236Y-81984122D01*
X117345236Y-81984122D02*
X117392855Y-81793646D01*
X117392855Y-81793646D02*
X117392855Y-81650789D01*
X117392855Y-81650789D02*
X117345236Y-81460313D01*
X117345236Y-81460313D02*
X117297617Y-81365075D01*
X117297617Y-81365075D02*
X117202379Y-81269837D01*
X117202379Y-81269837D02*
X117059522Y-81222218D01*
X117059522Y-81222218D02*
X116964284Y-81222218D01*
X116964284Y-81222218D02*
X116821427Y-81269837D01*
X116821427Y-81269837D02*
X116773808Y-81317456D01*
X116059522Y-81222218D02*
X116059522Y-81936503D01*
X116059522Y-81936503D02*
X116107141Y-82079360D01*
X116107141Y-82079360D02*
X116202379Y-82174599D01*
X116202379Y-82174599D02*
X116345236Y-82222218D01*
X116345236Y-82222218D02*
X116440474Y-82222218D01*
X115107141Y-82222218D02*
X115583331Y-82222218D01*
X115583331Y-82222218D02*
X115583331Y-81222218D01*
X114202379Y-82126979D02*
X114249998Y-82174599D01*
X114249998Y-82174599D02*
X114392855Y-82222218D01*
X114392855Y-82222218D02*
X114488093Y-82222218D01*
X114488093Y-82222218D02*
X114630950Y-82174599D01*
X114630950Y-82174599D02*
X114726188Y-82079360D01*
X114726188Y-82079360D02*
X114773807Y-81984122D01*
X114773807Y-81984122D02*
X114821426Y-81793646D01*
X114821426Y-81793646D02*
X114821426Y-81650789D01*
X114821426Y-81650789D02*
X114773807Y-81460313D01*
X114773807Y-81460313D02*
X114726188Y-81365075D01*
X114726188Y-81365075D02*
X114630950Y-81269837D01*
X114630950Y-81269837D02*
X114488093Y-81222218D01*
X114488093Y-81222218D02*
X114392855Y-81222218D01*
X114392855Y-81222218D02*
X114249998Y-81269837D01*
X114249998Y-81269837D02*
X114202379Y-81317456D01*
X113488093Y-81222218D02*
X113488093Y-81936503D01*
X113488093Y-81936503D02*
X113535712Y-82079360D01*
X113535712Y-82079360D02*
X113630950Y-82174599D01*
X113630950Y-82174599D02*
X113773807Y-82222218D01*
X113773807Y-82222218D02*
X113869045Y-82222218D01*
X112535712Y-82222218D02*
X113011902Y-82222218D01*
X113011902Y-82222218D02*
X113011902Y-81222218D01*
X111630950Y-82126979D02*
X111678569Y-82174599D01*
X111678569Y-82174599D02*
X111821426Y-82222218D01*
X111821426Y-82222218D02*
X111916664Y-82222218D01*
X111916664Y-82222218D02*
X112059521Y-82174599D01*
X112059521Y-82174599D02*
X112154759Y-82079360D01*
X112154759Y-82079360D02*
X112202378Y-81984122D01*
X112202378Y-81984122D02*
X112249997Y-81793646D01*
X112249997Y-81793646D02*
X112249997Y-81650789D01*
X112249997Y-81650789D02*
X112202378Y-81460313D01*
X112202378Y-81460313D02*
X112154759Y-81365075D01*
X112154759Y-81365075D02*
X112059521Y-81269837D01*
X112059521Y-81269837D02*
X111916664Y-81222218D01*
X111916664Y-81222218D02*
X111821426Y-81222218D01*
X111821426Y-81222218D02*
X111678569Y-81269837D01*
X111678569Y-81269837D02*
X111630950Y-81317456D01*
X124940475Y-83832162D02*
X124940475Y-83165495D01*
X124940475Y-83355971D02*
X124892856Y-83260733D01*
X124892856Y-83260733D02*
X124845237Y-83213114D01*
X124845237Y-83213114D02*
X124749999Y-83165495D01*
X124749999Y-83165495D02*
X124654761Y-83165495D01*
X123940475Y-83784543D02*
X124035713Y-83832162D01*
X124035713Y-83832162D02*
X124226189Y-83832162D01*
X124226189Y-83832162D02*
X124321427Y-83784543D01*
X124321427Y-83784543D02*
X124369046Y-83689304D01*
X124369046Y-83689304D02*
X124369046Y-83308352D01*
X124369046Y-83308352D02*
X124321427Y-83213114D01*
X124321427Y-83213114D02*
X124226189Y-83165495D01*
X124226189Y-83165495D02*
X124035713Y-83165495D01*
X124035713Y-83165495D02*
X123940475Y-83213114D01*
X123940475Y-83213114D02*
X123892856Y-83308352D01*
X123892856Y-83308352D02*
X123892856Y-83403590D01*
X123892856Y-83403590D02*
X124369046Y-83498828D01*
X123559522Y-83165495D02*
X123321427Y-83832162D01*
X123321427Y-83832162D02*
X123083332Y-83165495D01*
X122702379Y-83736923D02*
X122654760Y-83784543D01*
X122654760Y-83784543D02*
X122702379Y-83832162D01*
X122702379Y-83832162D02*
X122749998Y-83784543D01*
X122749998Y-83784543D02*
X122702379Y-83736923D01*
X122702379Y-83736923D02*
X122702379Y-83832162D01*
X120940475Y-83832162D02*
X121511903Y-83832162D01*
X121226189Y-83832162D02*
X121226189Y-82832162D01*
X121226189Y-82832162D02*
X121321427Y-82975019D01*
X121321427Y-82975019D02*
X121416665Y-83070257D01*
X121416665Y-83070257D02*
X121511903Y-83117876D01*
X120511903Y-83736923D02*
X120464284Y-83784543D01*
X120464284Y-83784543D02*
X120511903Y-83832162D01*
X120511903Y-83832162D02*
X120559522Y-83784543D01*
X120559522Y-83784543D02*
X120511903Y-83736923D01*
X120511903Y-83736923D02*
X120511903Y-83832162D01*
X119845237Y-82832162D02*
X119749999Y-82832162D01*
X119749999Y-82832162D02*
X119654761Y-82879781D01*
X119654761Y-82879781D02*
X119607142Y-82927400D01*
X119607142Y-82927400D02*
X119559523Y-83022638D01*
X119559523Y-83022638D02*
X119511904Y-83213114D01*
X119511904Y-83213114D02*
X119511904Y-83451209D01*
X119511904Y-83451209D02*
X119559523Y-83641685D01*
X119559523Y-83641685D02*
X119607142Y-83736923D01*
X119607142Y-83736923D02*
X119654761Y-83784543D01*
X119654761Y-83784543D02*
X119749999Y-83832162D01*
X119749999Y-83832162D02*
X119845237Y-83832162D01*
X119845237Y-83832162D02*
X119940475Y-83784543D01*
X119940475Y-83784543D02*
X119988094Y-83736923D01*
X119988094Y-83736923D02*
X120035713Y-83641685D01*
X120035713Y-83641685D02*
X120083332Y-83451209D01*
X120083332Y-83451209D02*
X120083332Y-83213114D01*
X120083332Y-83213114D02*
X120035713Y-83022638D01*
X120035713Y-83022638D02*
X119988094Y-82927400D01*
X119988094Y-82927400D02*
X119940475Y-82879781D01*
X119940475Y-82879781D02*
X119845237Y-82832162D01*
%LPC*%
D11*
%TO.C,C39*%
X117210000Y-109109999D03*
D12*
X109710000Y-109109999D03*
%TD*%
D13*
%TO.C,C42*%
X127210000Y-91109999D03*
D12*
X134710000Y-91109999D03*
%TD*%
D11*
%TO.C,C37*%
X117210000Y-73109999D03*
D12*
X109710000Y-73109999D03*
%TD*%
D13*
%TO.C,C41*%
X127210000Y-73309999D03*
D12*
X134710000Y-73309999D03*
%TD*%
D14*
%TO.C,J2*%
X127345000Y-121329999D03*
D15*
X124805000Y-121329999D03*
X122265000Y-121329999D03*
X119725000Y-121329999D03*
X117185000Y-121329999D03*
%TD*%
D14*
%TO.C,J1*%
X127325000Y-60209999D03*
D15*
X124785000Y-60209999D03*
X122245000Y-60209999D03*
X119705000Y-60209999D03*
X117165000Y-60209999D03*
%TD*%
D13*
%TO.C,C43*%
X127210000Y-109109999D03*
D12*
X134710000Y-109109999D03*
%TD*%
D11*
%TO.C,C38*%
X117210000Y-91109999D03*
D12*
X109710000Y-91109999D03*
%TD*%
%LPD*%
M02*
