%TF.GenerationSoftware,KiCad,Pcbnew,9.0.5*%
%TF.CreationDate,2025-12-02T21:17:32+08:00*%
%TF.ProjectId,boost caps,626f6f73-7420-4636-9170-732e6b696361,rev?*%
%TF.SameCoordinates,Original*%
%TF.FileFunction,Legend,Top*%
%TF.FilePolarity,Positive*%
%FSLAX46Y46*%
G04 Gerber Fmt 4.6, Leading zero omitted, Abs format (unit mm)*
G04 Created by KiCad (PCBNEW 9.0.5) date 2025-12-02 21:17:32*
%MOMM*%
%LPD*%
G01*
G04 APERTURE LIST*
G04 Aperture macros list*
%AMRoundRect*
0 Rectangle with rounded corners*
0 $1 Rounding radius*
0 $2 $3 $4 $5 $6 $7 $8 $9 X,Y pos of 4 corners*
0 Add a 4 corners polygon primitive as box body*
4,1,4,$2,$3,$4,$5,$6,$7,$8,$9,$2,$3,0*
0 Add four circle primitives for the rounded corners*
1,1,$1+$1,$2,$3*
1,1,$1+$1,$4,$5*
1,1,$1+$1,$6,$7*
1,1,$1+$1,$8,$9*
0 Add four rect primitives between the rounded corners*
20,1,$1+$1,$2,$3,$4,$5,0*
20,1,$1+$1,$4,$5,$6,$7,0*
20,1,$1+$1,$6,$7,$8,$9,0*
20,1,$1+$1,$8,$9,$2,$3,0*%
G04 Aperture macros list end*
%ADD10C,0.120000*%
%ADD11RoundRect,0.250001X0.949999X0.949999X-0.949999X0.949999X-0.949999X-0.949999X0.949999X-0.949999X0*%
%ADD12C,2.400000*%
%ADD13RoundRect,0.250001X-0.949999X-0.949999X0.949999X-0.949999X0.949999X0.949999X-0.949999X0.949999X0*%
%ADD14R,1.700000X1.700000*%
%ADD15O,1.700000X1.700000*%
G04 APERTURE END LIST*
D10*
%TO.C,C39*%
X105380000Y-109874999D02*
X105380000Y-108344999D01*
X105420000Y-110206999D02*
X105420000Y-108012999D01*
X105460000Y-110460999D02*
X105460000Y-107758999D01*
X105500000Y-110673999D02*
X105500000Y-107545999D01*
X105540000Y-110860999D02*
X105540000Y-107358999D01*
X105580000Y-111029999D02*
X105580000Y-107189999D01*
X105620000Y-111183999D02*
X105620000Y-107035999D01*
X105660000Y-111326999D02*
X105660000Y-106892999D01*
X105700000Y-111460999D02*
X105700000Y-106758999D01*
X105740000Y-111586999D02*
X105740000Y-106632999D01*
X105780000Y-111706999D02*
X105780000Y-106512999D01*
X105820000Y-111819999D02*
X105820000Y-106399999D01*
X105860000Y-111928999D02*
X105860000Y-106290999D01*
X105900000Y-112032999D02*
X105900000Y-106186999D01*
X105940000Y-112132999D02*
X105940000Y-106086999D01*
X105980000Y-112229999D02*
X105980000Y-105989999D01*
X106020000Y-112322999D02*
X106020000Y-105896999D01*
X106060000Y-112412999D02*
X106060000Y-105806999D01*
X106100000Y-112499999D02*
X106100000Y-105719999D01*
X106140000Y-112584999D02*
X106140000Y-105634999D01*
X106180000Y-112666999D02*
X106180000Y-105552999D01*
X106220000Y-112746999D02*
X106220000Y-105472999D01*
X106260000Y-112823999D02*
X106260000Y-105395999D01*
X106300000Y-112899999D02*
X106300000Y-105319999D01*
X106340000Y-112973999D02*
X106340000Y-105245999D01*
X106380000Y-113045999D02*
X106380000Y-105173999D01*
X106420000Y-113115999D02*
X106420000Y-105103999D01*
X106460000Y-113184999D02*
X106460000Y-105034999D01*
X106500000Y-113251999D02*
X106500000Y-104967999D01*
X106540000Y-113317999D02*
X106540000Y-104901999D01*
X106580000Y-113382999D02*
X106580000Y-104836999D01*
X106620000Y-113445999D02*
X106620000Y-104773999D01*
X106660000Y-113507999D02*
X106660000Y-104711999D01*
X106700000Y-113568999D02*
X106700000Y-104650999D01*
X106740000Y-113627999D02*
X106740000Y-104591999D01*
X106780000Y-113685999D02*
X106780000Y-104533999D01*
X106820000Y-113743999D02*
X106820000Y-104475999D01*
X106860000Y-113799999D02*
X106860000Y-104419999D01*
X106900000Y-113854999D02*
X106900000Y-104364999D01*
X106940000Y-113909999D02*
X106940000Y-104309999D01*
X106980000Y-113962999D02*
X106980000Y-104256999D01*
X107020000Y-114015999D02*
X107020000Y-104203999D01*
X107060000Y-114066999D02*
X107060000Y-104152999D01*
X107100000Y-114117999D02*
X107100000Y-104101999D01*
X107140000Y-114167999D02*
X107140000Y-104051999D01*
X107180000Y-114216999D02*
X107180000Y-104002999D01*
X107220000Y-114265999D02*
X107220000Y-103953999D01*
X107260000Y-114313999D02*
X107260000Y-103905999D01*
X107300000Y-114359999D02*
X107300000Y-103859999D01*
X107340000Y-114406999D02*
X107340000Y-103812999D01*
X107380000Y-114451999D02*
X107380000Y-103767999D01*
X107420000Y-114496999D02*
X107420000Y-103722999D01*
X107460000Y-114540999D02*
X107460000Y-103678999D01*
X107500000Y-114584999D02*
X107500000Y-103634999D01*
X107540000Y-114627999D02*
X107540000Y-103591999D01*
X107580000Y-114669999D02*
X107580000Y-103549999D01*
X107620000Y-114711999D02*
X107620000Y-103507999D01*
X107660000Y-114752999D02*
X107660000Y-103466999D01*
X107700000Y-114792999D02*
X107700000Y-103426999D01*
X107740000Y-114832999D02*
X107740000Y-103386999D01*
X107780000Y-114872999D02*
X107780000Y-103346999D01*
X107820000Y-114911999D02*
X107820000Y-103307999D01*
X107860000Y-114949999D02*
X107860000Y-103269999D01*
X107900000Y-114987999D02*
X107900000Y-103231999D01*
X107940000Y-115024999D02*
X107940000Y-103194999D01*
X107980000Y-115061999D02*
X107980000Y-103157999D01*
X108020000Y-115097999D02*
X108020000Y-103121999D01*
X108060000Y-115133999D02*
X108060000Y-103085999D01*
X108100000Y-115169999D02*
X108100000Y-103049999D01*
X108140000Y-115203999D02*
X108140000Y-103015999D01*
X108180000Y-115238999D02*
X108180000Y-102980999D01*
X108220000Y-115272999D02*
X108220000Y-102946999D01*
X108260000Y-115306999D02*
X108260000Y-102912999D01*
X108300000Y-107669999D02*
X108300000Y-102879999D01*
X108300000Y-115339999D02*
X108300000Y-110549999D01*
X108340000Y-107669999D02*
X108340000Y-102847999D01*
X108340000Y-115371999D02*
X108340000Y-110549999D01*
X108380000Y-107669999D02*
X108380000Y-102814999D01*
X108380000Y-115404999D02*
X108380000Y-110549999D01*
X108420000Y-107669999D02*
X108420000Y-102782999D01*
X108420000Y-115436999D02*
X108420000Y-110549999D01*
X108460000Y-107669999D02*
X108460000Y-102751999D01*
X108460000Y-115467999D02*
X108460000Y-110549999D01*
X108500000Y-107669999D02*
X108500000Y-102720999D01*
X108500000Y-115498999D02*
X108500000Y-110549999D01*
X108540000Y-107669999D02*
X108540000Y-102689999D01*
X108540000Y-115529999D02*
X108540000Y-110549999D01*
X108580000Y-107669999D02*
X108580000Y-102659999D01*
X108580000Y-115559999D02*
X108580000Y-110549999D01*
X108620000Y-107669999D02*
X108620000Y-102629999D01*
X108620000Y-115589999D02*
X108620000Y-110549999D01*
X108660000Y-107669999D02*
X108660000Y-102600999D01*
X108660000Y-115618999D02*
X108660000Y-110549999D01*
X108700000Y-107669999D02*
X108700000Y-102570999D01*
X108700000Y-115648999D02*
X108700000Y-110549999D01*
X108740000Y-107669999D02*
X108740000Y-102542999D01*
X108740000Y-115676999D02*
X108740000Y-110549999D01*
X108780000Y-107669999D02*
X108780000Y-102513999D01*
X108780000Y-115705999D02*
X108780000Y-110549999D01*
X108820000Y-107669999D02*
X108820000Y-102485999D01*
X108820000Y-115733999D02*
X108820000Y-110549999D01*
X108860000Y-107669999D02*
X108860000Y-102458999D01*
X108860000Y-115760999D02*
X108860000Y-110549999D01*
X108900000Y-107669999D02*
X108900000Y-102430999D01*
X108900000Y-115788999D02*
X108900000Y-110549999D01*
X108940000Y-107669999D02*
X108940000Y-102403999D01*
X108940000Y-115815999D02*
X108940000Y-110549999D01*
X108980000Y-107669999D02*
X108980000Y-102377999D01*
X108980000Y-115841999D02*
X108980000Y-110549999D01*
X109020000Y-107669999D02*
X109020000Y-102350999D01*
X109020000Y-115868999D02*
X109020000Y-110549999D01*
X109060000Y-107669999D02*
X109060000Y-102324999D01*
X109060000Y-115894999D02*
X109060000Y-110549999D01*
X109100000Y-107669999D02*
X109100000Y-102299999D01*
X109100000Y-115919999D02*
X109100000Y-110549999D01*
X109140000Y-107669999D02*
X109140000Y-102274999D01*
X109140000Y-115944999D02*
X109140000Y-110549999D01*
X109180000Y-107669999D02*
X109180000Y-102249999D01*
X109180000Y-115969999D02*
X109180000Y-110549999D01*
X109220000Y-107669999D02*
X109220000Y-102224999D01*
X109220000Y-115994999D02*
X109220000Y-110549999D01*
X109260000Y-107669999D02*
X109260000Y-102200999D01*
X109260000Y-116018999D02*
X109260000Y-110549999D01*
X109300000Y-107669999D02*
X109300000Y-102176999D01*
X109300000Y-116042999D02*
X109300000Y-110549999D01*
X109340000Y-107669999D02*
X109340000Y-102152999D01*
X109340000Y-116066999D02*
X109340000Y-110549999D01*
X109380000Y-107669999D02*
X109380000Y-102128999D01*
X109380000Y-116090999D02*
X109380000Y-110549999D01*
X109420000Y-107669999D02*
X109420000Y-102105999D01*
X109420000Y-116113999D02*
X109420000Y-110549999D01*
X109460000Y-107669999D02*
X109460000Y-102083999D01*
X109460000Y-116135999D02*
X109460000Y-110549999D01*
X109500000Y-107669999D02*
X109500000Y-102060999D01*
X109500000Y-116158999D02*
X109500000Y-110549999D01*
X109540000Y-107669999D02*
X109540000Y-102038999D01*
X109540000Y-116180999D02*
X109540000Y-110549999D01*
X109580000Y-107669999D02*
X109580000Y-102016999D01*
X109580000Y-116202999D02*
X109580000Y-110549999D01*
X109620000Y-107669999D02*
X109620000Y-101994999D01*
X109620000Y-116224999D02*
X109620000Y-110549999D01*
X109660000Y-107669999D02*
X109660000Y-101973999D01*
X109660000Y-116245999D02*
X109660000Y-110549999D01*
X109700000Y-107669999D02*
X109700000Y-101952999D01*
X109700000Y-116266999D02*
X109700000Y-110549999D01*
X109740000Y-107669999D02*
X109740000Y-101931999D01*
X109740000Y-116287999D02*
X109740000Y-110549999D01*
X109780000Y-107669999D02*
X109780000Y-101911999D01*
X109780000Y-116307999D02*
X109780000Y-110549999D01*
X109820000Y-107669999D02*
X109820000Y-101891999D01*
X109820000Y-116327999D02*
X109820000Y-110549999D01*
X109860000Y-107669999D02*
X109860000Y-101871999D01*
X109860000Y-116347999D02*
X109860000Y-110549999D01*
X109900000Y-107669999D02*
X109900000Y-101851999D01*
X109900000Y-116367999D02*
X109900000Y-110549999D01*
X109940000Y-107669999D02*
X109940000Y-101832999D01*
X109940000Y-116386999D02*
X109940000Y-110549999D01*
X109980000Y-107669999D02*
X109980000Y-101813999D01*
X109980000Y-116405999D02*
X109980000Y-110549999D01*
X110020000Y-107669999D02*
X110020000Y-101794999D01*
X110020000Y-116424999D02*
X110020000Y-110549999D01*
X110060000Y-107669999D02*
X110060000Y-101775999D01*
X110060000Y-116443999D02*
X110060000Y-110549999D01*
X110100000Y-107669999D02*
X110100000Y-101757999D01*
X110100000Y-116461999D02*
X110100000Y-110549999D01*
X110140000Y-107669999D02*
X110140000Y-101739999D01*
X110140000Y-116479999D02*
X110140000Y-110549999D01*
X110180000Y-107669999D02*
X110180000Y-101721999D01*
X110180000Y-116497999D02*
X110180000Y-110549999D01*
X110220000Y-107669999D02*
X110220000Y-101703999D01*
X110220000Y-116515999D02*
X110220000Y-110549999D01*
X110260000Y-107669999D02*
X110260000Y-101686999D01*
X110260000Y-116532999D02*
X110260000Y-110549999D01*
X110300000Y-107669999D02*
X110300000Y-101669999D01*
X110300000Y-116549999D02*
X110300000Y-110549999D01*
X110340000Y-107669999D02*
X110340000Y-101652999D01*
X110340000Y-116566999D02*
X110340000Y-110549999D01*
X110380000Y-107669999D02*
X110380000Y-101636999D01*
X110380000Y-116582999D02*
X110380000Y-110549999D01*
X110420000Y-107669999D02*
X110420000Y-101620999D01*
X110420000Y-116598999D02*
X110420000Y-110549999D01*
X110460000Y-107669999D02*
X110460000Y-101604999D01*
X110460000Y-116614999D02*
X110460000Y-110549999D01*
X110500000Y-107669999D02*
X110500000Y-101588999D01*
X110500000Y-116630999D02*
X110500000Y-110549999D01*
X110540000Y-107669999D02*
X110540000Y-101572999D01*
X110540000Y-116646999D02*
X110540000Y-110549999D01*
X110580000Y-107669999D02*
X110580000Y-101557999D01*
X110580000Y-116661999D02*
X110580000Y-110549999D01*
X110620000Y-107669999D02*
X110620000Y-101542999D01*
X110620000Y-116676999D02*
X110620000Y-110549999D01*
X110660000Y-107669999D02*
X110660000Y-101527999D01*
X110660000Y-116691999D02*
X110660000Y-110549999D01*
X110700000Y-107669999D02*
X110700000Y-101512999D01*
X110700000Y-116706999D02*
X110700000Y-110549999D01*
X110740000Y-107669999D02*
X110740000Y-101498999D01*
X110740000Y-116720999D02*
X110740000Y-110549999D01*
X110780000Y-107669999D02*
X110780000Y-101484999D01*
X110780000Y-116734999D02*
X110780000Y-110549999D01*
X110820000Y-107669999D02*
X110820000Y-101470999D01*
X110820000Y-116748999D02*
X110820000Y-110549999D01*
X110860000Y-107669999D02*
X110860000Y-101457999D01*
X110860000Y-116761999D02*
X110860000Y-110549999D01*
X110900000Y-107669999D02*
X110900000Y-101443999D01*
X110900000Y-116775999D02*
X110900000Y-110549999D01*
X110940000Y-107669999D02*
X110940000Y-101430999D01*
X110940000Y-116788999D02*
X110940000Y-110549999D01*
X110980000Y-107669999D02*
X110980000Y-101417999D01*
X110980000Y-116801999D02*
X110980000Y-110549999D01*
X111020000Y-107669999D02*
X111020000Y-101404999D01*
X111020000Y-116814999D02*
X111020000Y-110549999D01*
X111060000Y-107669999D02*
X111060000Y-101392999D01*
X111060000Y-116826999D02*
X111060000Y-110549999D01*
X111100000Y-107669999D02*
X111100000Y-101380999D01*
X111100000Y-116838999D02*
X111100000Y-110549999D01*
X111140000Y-107669999D02*
X111140000Y-101367999D01*
X111140000Y-116851999D02*
X111140000Y-110549999D01*
X111180000Y-116862999D02*
X111180000Y-101356999D01*
X111220000Y-116874999D02*
X111220000Y-101344999D01*
X111260000Y-116885999D02*
X111260000Y-101333999D01*
X111300000Y-116896999D02*
X111300000Y-101322999D01*
X111340000Y-116907999D02*
X111340000Y-101311999D01*
X111380000Y-116918999D02*
X111380000Y-101300999D01*
X111420000Y-116929999D02*
X111420000Y-101289999D01*
X111460000Y-116939999D02*
X111460000Y-101279999D01*
X111500000Y-116949999D02*
X111500000Y-101269999D01*
X111540000Y-116959999D02*
X111540000Y-101259999D01*
X111580000Y-116968999D02*
X111580000Y-101250999D01*
X111620000Y-116978999D02*
X111620000Y-101240999D01*
X111660000Y-116987999D02*
X111660000Y-101231999D01*
X111700000Y-116996999D02*
X111700000Y-101222999D01*
X111740000Y-117005999D02*
X111740000Y-101213999D01*
X111780000Y-117013999D02*
X111780000Y-101205999D01*
X111820000Y-117022999D02*
X111820000Y-101196999D01*
X111860000Y-117030999D02*
X111860000Y-101188999D01*
X111900000Y-117038999D02*
X111900000Y-101180999D01*
X111940000Y-117045999D02*
X111940000Y-101173999D01*
X111980000Y-117053999D02*
X111980000Y-101165999D01*
X112020000Y-117060999D02*
X112020000Y-101158999D01*
X112060000Y-117067999D02*
X112060000Y-101151999D01*
X112100000Y-117074999D02*
X112100000Y-101144999D01*
X112140000Y-117081999D02*
X112140000Y-101137999D01*
X112180000Y-117087999D02*
X112180000Y-101131999D01*
X112220000Y-117094999D02*
X112220000Y-101124999D01*
X112260000Y-117100999D02*
X112260000Y-101118999D01*
X112300000Y-117106999D02*
X112300000Y-101112999D01*
X112340000Y-117111999D02*
X112340000Y-101107999D01*
X112380000Y-117117999D02*
X112380000Y-101101999D01*
X112420000Y-117122999D02*
X112420000Y-101096999D01*
X112460000Y-117127999D02*
X112460000Y-101091999D01*
X112500000Y-117132999D02*
X112500000Y-101086999D01*
X112540000Y-117137999D02*
X112540000Y-101081999D01*
X112580000Y-117141999D02*
X112580000Y-101077999D01*
X112620000Y-117145999D02*
X112620000Y-101073999D01*
X112660000Y-117149999D02*
X112660000Y-101069999D01*
X112700000Y-117153999D02*
X112700000Y-101065999D01*
X112740000Y-117157999D02*
X112740000Y-101061999D01*
X112780000Y-117160999D02*
X112780000Y-101058999D01*
X112820000Y-117164999D02*
X112820000Y-101054999D01*
X112860000Y-117167999D02*
X112860000Y-101051999D01*
X112900000Y-117170999D02*
X112900000Y-101048999D01*
X112940000Y-117172999D02*
X112940000Y-101046999D01*
X112980000Y-117175999D02*
X112980000Y-101043999D01*
X113020000Y-117177999D02*
X113020000Y-101041999D01*
X113060000Y-117179999D02*
X113060000Y-101039999D01*
X113100000Y-117181999D02*
X113100000Y-101037999D01*
X113140000Y-117183999D02*
X113140000Y-101035999D01*
X113180000Y-117184999D02*
X113180000Y-101034999D01*
X113220000Y-117185999D02*
X113220000Y-101033999D01*
X113260000Y-117187999D02*
X113260000Y-101031999D01*
X113300000Y-117187999D02*
X113300000Y-101031999D01*
X113340000Y-117188999D02*
X113340000Y-101030999D01*
X113380000Y-117189999D02*
X113380000Y-101029999D01*
X113420000Y-117189999D02*
X113420000Y-101029999D01*
X113460000Y-117189999D02*
X113460000Y-101029999D01*
X121349491Y-114464999D02*
X121349491Y-112864999D01*
X122149491Y-113664999D02*
X120549491Y-113664999D01*
X121580000Y-109109999D02*
G75*
G02*
X105340000Y-109109999I-8120000J0D01*
G01*
X105340000Y-109109999D02*
G75*
G02*
X121580000Y-109109999I8120000J0D01*
G01*
%TO.C,C42*%
X122270509Y-86554999D02*
X123870509Y-86554999D01*
X123070509Y-85754999D02*
X123070509Y-87354999D01*
X130960000Y-83029999D02*
X130960000Y-99189999D01*
X131000000Y-83029999D02*
X131000000Y-99189999D01*
X131040000Y-83029999D02*
X131040000Y-99189999D01*
X131080000Y-83030999D02*
X131080000Y-99188999D01*
X131120000Y-83031999D02*
X131120000Y-99187999D01*
X131160000Y-83031999D02*
X131160000Y-99187999D01*
X131200000Y-83033999D02*
X131200000Y-99185999D01*
X131240000Y-83034999D02*
X131240000Y-99184999D01*
X131280000Y-83035999D02*
X131280000Y-99183999D01*
X131320000Y-83037999D02*
X131320000Y-99181999D01*
X131360000Y-83039999D02*
X131360000Y-99179999D01*
X131400000Y-83041999D02*
X131400000Y-99177999D01*
X131440000Y-83043999D02*
X131440000Y-99175999D01*
X131480000Y-83046999D02*
X131480000Y-99172999D01*
X131520000Y-83048999D02*
X131520000Y-99170999D01*
X131560000Y-83051999D02*
X131560000Y-99167999D01*
X131600000Y-83054999D02*
X131600000Y-99164999D01*
X131640000Y-83058999D02*
X131640000Y-99160999D01*
X131680000Y-83061999D02*
X131680000Y-99157999D01*
X131720000Y-83065999D02*
X131720000Y-99153999D01*
X131760000Y-83069999D02*
X131760000Y-99149999D01*
X131800000Y-83073999D02*
X131800000Y-99145999D01*
X131840000Y-83077999D02*
X131840000Y-99141999D01*
X131880000Y-83081999D02*
X131880000Y-99137999D01*
X131920000Y-83086999D02*
X131920000Y-99132999D01*
X131960000Y-83091999D02*
X131960000Y-99127999D01*
X132000000Y-83096999D02*
X132000000Y-99122999D01*
X132040000Y-83101999D02*
X132040000Y-99117999D01*
X132080000Y-83107999D02*
X132080000Y-99111999D01*
X132120000Y-83112999D02*
X132120000Y-99106999D01*
X132160000Y-83118999D02*
X132160000Y-99100999D01*
X132200000Y-83124999D02*
X132200000Y-99094999D01*
X132240000Y-83131999D02*
X132240000Y-99087999D01*
X132280000Y-83137999D02*
X132280000Y-99081999D01*
X132320000Y-83144999D02*
X132320000Y-99074999D01*
X132360000Y-83151999D02*
X132360000Y-99067999D01*
X132400000Y-83158999D02*
X132400000Y-99060999D01*
X132440000Y-83165999D02*
X132440000Y-99053999D01*
X132480000Y-83173999D02*
X132480000Y-99045999D01*
X132520000Y-83180999D02*
X132520000Y-99038999D01*
X132560000Y-83188999D02*
X132560000Y-99030999D01*
X132600000Y-83196999D02*
X132600000Y-99022999D01*
X132640000Y-83205999D02*
X132640000Y-99013999D01*
X132680000Y-83213999D02*
X132680000Y-99005999D01*
X132720000Y-83222999D02*
X132720000Y-98996999D01*
X132760000Y-83231999D02*
X132760000Y-98987999D01*
X132800000Y-83240999D02*
X132800000Y-98978999D01*
X132840000Y-83250999D02*
X132840000Y-98968999D01*
X132880000Y-83259999D02*
X132880000Y-98959999D01*
X132920000Y-83269999D02*
X132920000Y-98949999D01*
X132960000Y-83279999D02*
X132960000Y-98939999D01*
X133000000Y-83289999D02*
X133000000Y-98929999D01*
X133040000Y-83300999D02*
X133040000Y-98918999D01*
X133080000Y-83311999D02*
X133080000Y-98907999D01*
X133120000Y-83322999D02*
X133120000Y-98896999D01*
X133160000Y-83333999D02*
X133160000Y-98885999D01*
X133200000Y-83344999D02*
X133200000Y-98874999D01*
X133240000Y-83356999D02*
X133240000Y-98862999D01*
X133280000Y-83367999D02*
X133280000Y-89669999D01*
X133280000Y-92549999D02*
X133280000Y-98851999D01*
X133320000Y-83380999D02*
X133320000Y-89669999D01*
X133320000Y-92549999D02*
X133320000Y-98838999D01*
X133360000Y-83392999D02*
X133360000Y-89669999D01*
X133360000Y-92549999D02*
X133360000Y-98826999D01*
X133400000Y-83404999D02*
X133400000Y-89669999D01*
X133400000Y-92549999D02*
X133400000Y-98814999D01*
X133440000Y-83417999D02*
X133440000Y-89669999D01*
X133440000Y-92549999D02*
X133440000Y-98801999D01*
X133480000Y-83430999D02*
X133480000Y-89669999D01*
X133480000Y-92549999D02*
X133480000Y-98788999D01*
X133520000Y-83443999D02*
X133520000Y-89669999D01*
X133520000Y-92549999D02*
X133520000Y-98775999D01*
X133560000Y-83457999D02*
X133560000Y-89669999D01*
X133560000Y-92549999D02*
X133560000Y-98761999D01*
X133600000Y-83470999D02*
X133600000Y-89669999D01*
X133600000Y-92549999D02*
X133600000Y-98748999D01*
X133640000Y-83484999D02*
X133640000Y-89669999D01*
X133640000Y-92549999D02*
X133640000Y-98734999D01*
X133680000Y-83498999D02*
X133680000Y-89669999D01*
X133680000Y-92549999D02*
X133680000Y-98720999D01*
X133720000Y-83512999D02*
X133720000Y-89669999D01*
X133720000Y-92549999D02*
X133720000Y-98706999D01*
X133760000Y-83527999D02*
X133760000Y-89669999D01*
X133760000Y-92549999D02*
X133760000Y-98691999D01*
X133800000Y-83542999D02*
X133800000Y-89669999D01*
X133800000Y-92549999D02*
X133800000Y-98676999D01*
X133840000Y-83557999D02*
X133840000Y-89669999D01*
X133840000Y-92549999D02*
X133840000Y-98661999D01*
X133880000Y-83572999D02*
X133880000Y-89669999D01*
X133880000Y-92549999D02*
X133880000Y-98646999D01*
X133920000Y-83588999D02*
X133920000Y-89669999D01*
X133920000Y-92549999D02*
X133920000Y-98630999D01*
X133960000Y-83604999D02*
X133960000Y-89669999D01*
X133960000Y-92549999D02*
X133960000Y-98614999D01*
X134000000Y-83620999D02*
X134000000Y-89669999D01*
X134000000Y-92549999D02*
X134000000Y-98598999D01*
X134040000Y-83636999D02*
X134040000Y-89669999D01*
X134040000Y-92549999D02*
X134040000Y-98582999D01*
X134080000Y-83652999D02*
X134080000Y-89669999D01*
X134080000Y-92549999D02*
X134080000Y-98566999D01*
X134120000Y-83669999D02*
X134120000Y-89669999D01*
X134120000Y-92549999D02*
X134120000Y-98549999D01*
X134160000Y-83686999D02*
X134160000Y-89669999D01*
X134160000Y-92549999D02*
X134160000Y-98532999D01*
X134200000Y-83703999D02*
X134200000Y-89669999D01*
X134200000Y-92549999D02*
X134200000Y-98515999D01*
X134240000Y-83721999D02*
X134240000Y-89669999D01*
X134240000Y-92549999D02*
X134240000Y-98497999D01*
X134280000Y-83739999D02*
X134280000Y-89669999D01*
X134280000Y-92549999D02*
X134280000Y-98479999D01*
X134320000Y-83757999D02*
X134320000Y-89669999D01*
X134320000Y-92549999D02*
X134320000Y-98461999D01*
X134360000Y-83775999D02*
X134360000Y-89669999D01*
X134360000Y-92549999D02*
X134360000Y-98443999D01*
X134400000Y-83794999D02*
X134400000Y-89669999D01*
X134400000Y-92549999D02*
X134400000Y-98424999D01*
X134440000Y-83813999D02*
X134440000Y-89669999D01*
X134440000Y-92549999D02*
X134440000Y-98405999D01*
X134480000Y-83832999D02*
X134480000Y-89669999D01*
X134480000Y-92549999D02*
X134480000Y-98386999D01*
X134520000Y-83851999D02*
X134520000Y-89669999D01*
X134520000Y-92549999D02*
X134520000Y-98367999D01*
X134560000Y-83871999D02*
X134560000Y-89669999D01*
X134560000Y-92549999D02*
X134560000Y-98347999D01*
X134600000Y-83891999D02*
X134600000Y-89669999D01*
X134600000Y-92549999D02*
X134600000Y-98327999D01*
X134640000Y-83911999D02*
X134640000Y-89669999D01*
X134640000Y-92549999D02*
X134640000Y-98307999D01*
X134680000Y-83931999D02*
X134680000Y-89669999D01*
X134680000Y-92549999D02*
X134680000Y-98287999D01*
X134720000Y-83952999D02*
X134720000Y-89669999D01*
X134720000Y-92549999D02*
X134720000Y-98266999D01*
X134760000Y-83973999D02*
X134760000Y-89669999D01*
X134760000Y-92549999D02*
X134760000Y-98245999D01*
X134800000Y-83994999D02*
X134800000Y-89669999D01*
X134800000Y-92549999D02*
X134800000Y-98224999D01*
X134840000Y-84016999D02*
X134840000Y-89669999D01*
X134840000Y-92549999D02*
X134840000Y-98202999D01*
X134880000Y-84038999D02*
X134880000Y-89669999D01*
X134880000Y-92549999D02*
X134880000Y-98180999D01*
X134920000Y-84060999D02*
X134920000Y-89669999D01*
X134920000Y-92549999D02*
X134920000Y-98158999D01*
X134960000Y-84083999D02*
X134960000Y-89669999D01*
X134960000Y-92549999D02*
X134960000Y-98135999D01*
X135000000Y-84105999D02*
X135000000Y-89669999D01*
X135000000Y-92549999D02*
X135000000Y-98113999D01*
X135040000Y-84128999D02*
X135040000Y-89669999D01*
X135040000Y-92549999D02*
X135040000Y-98090999D01*
X135080000Y-84152999D02*
X135080000Y-89669999D01*
X135080000Y-92549999D02*
X135080000Y-98066999D01*
X135120000Y-84176999D02*
X135120000Y-89669999D01*
X135120000Y-92549999D02*
X135120000Y-98042999D01*
X135160000Y-84200999D02*
X135160000Y-89669999D01*
X135160000Y-92549999D02*
X135160000Y-98018999D01*
X135200000Y-84224999D02*
X135200000Y-89669999D01*
X135200000Y-92549999D02*
X135200000Y-97994999D01*
X135240000Y-84249999D02*
X135240000Y-89669999D01*
X135240000Y-92549999D02*
X135240000Y-97969999D01*
X135280000Y-84274999D02*
X135280000Y-89669999D01*
X135280000Y-92549999D02*
X135280000Y-97944999D01*
X135320000Y-84299999D02*
X135320000Y-89669999D01*
X135320000Y-92549999D02*
X135320000Y-97919999D01*
X135360000Y-84324999D02*
X135360000Y-89669999D01*
X135360000Y-92549999D02*
X135360000Y-97894999D01*
X135400000Y-84350999D02*
X135400000Y-89669999D01*
X135400000Y-92549999D02*
X135400000Y-97868999D01*
X135440000Y-84377999D02*
X135440000Y-89669999D01*
X135440000Y-92549999D02*
X135440000Y-97841999D01*
X135480000Y-84403999D02*
X135480000Y-89669999D01*
X135480000Y-92549999D02*
X135480000Y-97815999D01*
X135520000Y-84430999D02*
X135520000Y-89669999D01*
X135520000Y-92549999D02*
X135520000Y-97788999D01*
X135560000Y-84458999D02*
X135560000Y-89669999D01*
X135560000Y-92549999D02*
X135560000Y-97760999D01*
X135600000Y-84485999D02*
X135600000Y-89669999D01*
X135600000Y-92549999D02*
X135600000Y-97733999D01*
X135640000Y-84513999D02*
X135640000Y-89669999D01*
X135640000Y-92549999D02*
X135640000Y-97705999D01*
X135680000Y-84542999D02*
X135680000Y-89669999D01*
X135680000Y-92549999D02*
X135680000Y-97676999D01*
X135720000Y-84570999D02*
X135720000Y-89669999D01*
X135720000Y-92549999D02*
X135720000Y-97648999D01*
X135760000Y-84600999D02*
X135760000Y-89669999D01*
X135760000Y-92549999D02*
X135760000Y-97618999D01*
X135800000Y-84629999D02*
X135800000Y-89669999D01*
X135800000Y-92549999D02*
X135800000Y-97589999D01*
X135840000Y-84659999D02*
X135840000Y-89669999D01*
X135840000Y-92549999D02*
X135840000Y-97559999D01*
X135880000Y-84689999D02*
X135880000Y-89669999D01*
X135880000Y-92549999D02*
X135880000Y-97529999D01*
X135920000Y-84720999D02*
X135920000Y-89669999D01*
X135920000Y-92549999D02*
X135920000Y-97498999D01*
X135960000Y-84751999D02*
X135960000Y-89669999D01*
X135960000Y-92549999D02*
X135960000Y-97467999D01*
X136000000Y-84782999D02*
X136000000Y-89669999D01*
X136000000Y-92549999D02*
X136000000Y-97436999D01*
X136040000Y-84814999D02*
X136040000Y-89669999D01*
X136040000Y-92549999D02*
X136040000Y-97404999D01*
X136080000Y-84847999D02*
X136080000Y-89669999D01*
X136080000Y-92549999D02*
X136080000Y-97371999D01*
X136120000Y-84879999D02*
X136120000Y-89669999D01*
X136120000Y-92549999D02*
X136120000Y-97339999D01*
X136160000Y-84912999D02*
X136160000Y-97306999D01*
X136200000Y-84946999D02*
X136200000Y-97272999D01*
X136240000Y-84980999D02*
X136240000Y-97238999D01*
X136280000Y-85015999D02*
X136280000Y-97203999D01*
X136320000Y-85049999D02*
X136320000Y-97169999D01*
X136360000Y-85085999D02*
X136360000Y-97133999D01*
X136400000Y-85121999D02*
X136400000Y-97097999D01*
X136440000Y-85157999D02*
X136440000Y-97061999D01*
X136480000Y-85194999D02*
X136480000Y-97024999D01*
X136520000Y-85231999D02*
X136520000Y-96987999D01*
X136560000Y-85269999D02*
X136560000Y-96949999D01*
X136600000Y-85307999D02*
X136600000Y-96911999D01*
X136640000Y-85346999D02*
X136640000Y-96872999D01*
X136680000Y-85386999D02*
X136680000Y-96832999D01*
X136720000Y-85426999D02*
X136720000Y-96792999D01*
X136760000Y-85466999D02*
X136760000Y-96752999D01*
X136800000Y-85507999D02*
X136800000Y-96711999D01*
X136840000Y-85549999D02*
X136840000Y-96669999D01*
X136880000Y-85591999D02*
X136880000Y-96627999D01*
X136920000Y-85634999D02*
X136920000Y-96584999D01*
X136960000Y-85678999D02*
X136960000Y-96540999D01*
X137000000Y-85722999D02*
X137000000Y-96496999D01*
X137040000Y-85767999D02*
X137040000Y-96451999D01*
X137080000Y-85812999D02*
X137080000Y-96406999D01*
X137120000Y-85859999D02*
X137120000Y-96359999D01*
X137160000Y-85905999D02*
X137160000Y-96313999D01*
X137200000Y-85953999D02*
X137200000Y-96265999D01*
X137240000Y-86002999D02*
X137240000Y-96216999D01*
X137280000Y-86051999D02*
X137280000Y-96167999D01*
X137320000Y-86101999D02*
X137320000Y-96117999D01*
X137360000Y-86152999D02*
X137360000Y-96066999D01*
X137400000Y-86203999D02*
X137400000Y-96015999D01*
X137440000Y-86256999D02*
X137440000Y-95962999D01*
X137480000Y-86309999D02*
X137480000Y-95909999D01*
X137520000Y-86364999D02*
X137520000Y-95854999D01*
X137560000Y-86419999D02*
X137560000Y-95799999D01*
X137600000Y-86475999D02*
X137600000Y-95743999D01*
X137640000Y-86533999D02*
X137640000Y-95685999D01*
X137680000Y-86591999D02*
X137680000Y-95627999D01*
X137720000Y-86650999D02*
X137720000Y-95568999D01*
X137760000Y-86711999D02*
X137760000Y-95507999D01*
X137800000Y-86773999D02*
X137800000Y-95445999D01*
X137840000Y-86836999D02*
X137840000Y-95382999D01*
X137880000Y-86901999D02*
X137880000Y-95317999D01*
X137920000Y-86967999D02*
X137920000Y-95251999D01*
X137960000Y-87034999D02*
X137960000Y-95184999D01*
X138000000Y-87103999D02*
X138000000Y-95115999D01*
X138040000Y-87173999D02*
X138040000Y-95045999D01*
X138080000Y-87245999D02*
X138080000Y-94973999D01*
X138120000Y-87319999D02*
X138120000Y-94899999D01*
X138160000Y-87395999D02*
X138160000Y-94823999D01*
X138200000Y-87472999D02*
X138200000Y-94746999D01*
X138240000Y-87552999D02*
X138240000Y-94666999D01*
X138280000Y-87634999D02*
X138280000Y-94584999D01*
X138320000Y-87719999D02*
X138320000Y-94499999D01*
X138360000Y-87806999D02*
X138360000Y-94412999D01*
X138400000Y-87896999D02*
X138400000Y-94322999D01*
X138440000Y-87989999D02*
X138440000Y-94229999D01*
X138480000Y-88086999D02*
X138480000Y-94132999D01*
X138520000Y-88186999D02*
X138520000Y-94032999D01*
X138560000Y-88290999D02*
X138560000Y-93928999D01*
X138600000Y-88399999D02*
X138600000Y-93819999D01*
X138640000Y-88512999D02*
X138640000Y-93706999D01*
X138680000Y-88632999D02*
X138680000Y-93586999D01*
X138720000Y-88758999D02*
X138720000Y-93460999D01*
X138760000Y-88892999D02*
X138760000Y-93326999D01*
X138800000Y-89035999D02*
X138800000Y-93183999D01*
X138840000Y-89189999D02*
X138840000Y-93029999D01*
X138880000Y-89358999D02*
X138880000Y-92860999D01*
X138920000Y-89545999D02*
X138920000Y-92673999D01*
X138960000Y-89758999D02*
X138960000Y-92460999D01*
X139000000Y-90012999D02*
X139000000Y-92206999D01*
X139040000Y-90344999D02*
X139040000Y-91874999D01*
X139080000Y-91109999D02*
G75*
G02*
X122840000Y-91109999I-8120000J0D01*
G01*
X122840000Y-91109999D02*
G75*
G02*
X139080000Y-91109999I8120000J0D01*
G01*
%TO.C,C37*%
X105380000Y-73874999D02*
X105380000Y-72344999D01*
X105420000Y-74206999D02*
X105420000Y-72012999D01*
X105460000Y-74460999D02*
X105460000Y-71758999D01*
X105500000Y-74673999D02*
X105500000Y-71545999D01*
X105540000Y-74860999D02*
X105540000Y-71358999D01*
X105580000Y-75029999D02*
X105580000Y-71189999D01*
X105620000Y-75183999D02*
X105620000Y-71035999D01*
X105660000Y-75326999D02*
X105660000Y-70892999D01*
X105700000Y-75460999D02*
X105700000Y-70758999D01*
X105740000Y-75586999D02*
X105740000Y-70632999D01*
X105780000Y-75706999D02*
X105780000Y-70512999D01*
X105820000Y-75819999D02*
X105820000Y-70399999D01*
X105860000Y-75928999D02*
X105860000Y-70290999D01*
X105900000Y-76032999D02*
X105900000Y-70186999D01*
X105940000Y-76132999D02*
X105940000Y-70086999D01*
X105980000Y-76229999D02*
X105980000Y-69989999D01*
X106020000Y-76322999D02*
X106020000Y-69896999D01*
X106060000Y-76412999D02*
X106060000Y-69806999D01*
X106100000Y-76499999D02*
X106100000Y-69719999D01*
X106140000Y-76584999D02*
X106140000Y-69634999D01*
X106180000Y-76666999D02*
X106180000Y-69552999D01*
X106220000Y-76746999D02*
X106220000Y-69472999D01*
X106260000Y-76823999D02*
X106260000Y-69395999D01*
X106300000Y-76899999D02*
X106300000Y-69319999D01*
X106340000Y-76973999D02*
X106340000Y-69245999D01*
X106380000Y-77045999D02*
X106380000Y-69173999D01*
X106420000Y-77115999D02*
X106420000Y-69103999D01*
X106460000Y-77184999D02*
X106460000Y-69034999D01*
X106500000Y-77251999D02*
X106500000Y-68967999D01*
X106540000Y-77317999D02*
X106540000Y-68901999D01*
X106580000Y-77382999D02*
X106580000Y-68836999D01*
X106620000Y-77445999D02*
X106620000Y-68773999D01*
X106660000Y-77507999D02*
X106660000Y-68711999D01*
X106700000Y-77568999D02*
X106700000Y-68650999D01*
X106740000Y-77627999D02*
X106740000Y-68591999D01*
X106780000Y-77685999D02*
X106780000Y-68533999D01*
X106820000Y-77743999D02*
X106820000Y-68475999D01*
X106860000Y-77799999D02*
X106860000Y-68419999D01*
X106900000Y-77854999D02*
X106900000Y-68364999D01*
X106940000Y-77909999D02*
X106940000Y-68309999D01*
X106980000Y-77962999D02*
X106980000Y-68256999D01*
X107020000Y-78015999D02*
X107020000Y-68203999D01*
X107060000Y-78066999D02*
X107060000Y-68152999D01*
X107100000Y-78117999D02*
X107100000Y-68101999D01*
X107140000Y-78167999D02*
X107140000Y-68051999D01*
X107180000Y-78216999D02*
X107180000Y-68002999D01*
X107220000Y-78265999D02*
X107220000Y-67953999D01*
X107260000Y-78313999D02*
X107260000Y-67905999D01*
X107300000Y-78359999D02*
X107300000Y-67859999D01*
X107340000Y-78406999D02*
X107340000Y-67812999D01*
X107380000Y-78451999D02*
X107380000Y-67767999D01*
X107420000Y-78496999D02*
X107420000Y-67722999D01*
X107460000Y-78540999D02*
X107460000Y-67678999D01*
X107500000Y-78584999D02*
X107500000Y-67634999D01*
X107540000Y-78627999D02*
X107540000Y-67591999D01*
X107580000Y-78669999D02*
X107580000Y-67549999D01*
X107620000Y-78711999D02*
X107620000Y-67507999D01*
X107660000Y-78752999D02*
X107660000Y-67466999D01*
X107700000Y-78792999D02*
X107700000Y-67426999D01*
X107740000Y-78832999D02*
X107740000Y-67386999D01*
X107780000Y-78872999D02*
X107780000Y-67346999D01*
X107820000Y-78911999D02*
X107820000Y-67307999D01*
X107860000Y-78949999D02*
X107860000Y-67269999D01*
X107900000Y-78987999D02*
X107900000Y-67231999D01*
X107940000Y-79024999D02*
X107940000Y-67194999D01*
X107980000Y-79061999D02*
X107980000Y-67157999D01*
X108020000Y-79097999D02*
X108020000Y-67121999D01*
X108060000Y-79133999D02*
X108060000Y-67085999D01*
X108100000Y-79169999D02*
X108100000Y-67049999D01*
X108140000Y-79203999D02*
X108140000Y-67015999D01*
X108180000Y-79238999D02*
X108180000Y-66980999D01*
X108220000Y-79272999D02*
X108220000Y-66946999D01*
X108260000Y-79306999D02*
X108260000Y-66912999D01*
X108300000Y-71669999D02*
X108300000Y-66879999D01*
X108300000Y-79339999D02*
X108300000Y-74549999D01*
X108340000Y-71669999D02*
X108340000Y-66847999D01*
X108340000Y-79371999D02*
X108340000Y-74549999D01*
X108380000Y-71669999D02*
X108380000Y-66814999D01*
X108380000Y-79404999D02*
X108380000Y-74549999D01*
X108420000Y-71669999D02*
X108420000Y-66782999D01*
X108420000Y-79436999D02*
X108420000Y-74549999D01*
X108460000Y-71669999D02*
X108460000Y-66751999D01*
X108460000Y-79467999D02*
X108460000Y-74549999D01*
X108500000Y-71669999D02*
X108500000Y-66720999D01*
X108500000Y-79498999D02*
X108500000Y-74549999D01*
X108540000Y-71669999D02*
X108540000Y-66689999D01*
X108540000Y-79529999D02*
X108540000Y-74549999D01*
X108580000Y-71669999D02*
X108580000Y-66659999D01*
X108580000Y-79559999D02*
X108580000Y-74549999D01*
X108620000Y-71669999D02*
X108620000Y-66629999D01*
X108620000Y-79589999D02*
X108620000Y-74549999D01*
X108660000Y-71669999D02*
X108660000Y-66600999D01*
X108660000Y-79618999D02*
X108660000Y-74549999D01*
X108700000Y-71669999D02*
X108700000Y-66570999D01*
X108700000Y-79648999D02*
X108700000Y-74549999D01*
X108740000Y-71669999D02*
X108740000Y-66542999D01*
X108740000Y-79676999D02*
X108740000Y-74549999D01*
X108780000Y-71669999D02*
X108780000Y-66513999D01*
X108780000Y-79705999D02*
X108780000Y-74549999D01*
X108820000Y-71669999D02*
X108820000Y-66485999D01*
X108820000Y-79733999D02*
X108820000Y-74549999D01*
X108860000Y-71669999D02*
X108860000Y-66458999D01*
X108860000Y-79760999D02*
X108860000Y-74549999D01*
X108900000Y-71669999D02*
X108900000Y-66430999D01*
X108900000Y-79788999D02*
X108900000Y-74549999D01*
X108940000Y-71669999D02*
X108940000Y-66403999D01*
X108940000Y-79815999D02*
X108940000Y-74549999D01*
X108980000Y-71669999D02*
X108980000Y-66377999D01*
X108980000Y-79841999D02*
X108980000Y-74549999D01*
X109020000Y-71669999D02*
X109020000Y-66350999D01*
X109020000Y-79868999D02*
X109020000Y-74549999D01*
X109060000Y-71669999D02*
X109060000Y-66324999D01*
X109060000Y-79894999D02*
X109060000Y-74549999D01*
X109100000Y-71669999D02*
X109100000Y-66299999D01*
X109100000Y-79919999D02*
X109100000Y-74549999D01*
X109140000Y-71669999D02*
X109140000Y-66274999D01*
X109140000Y-79944999D02*
X109140000Y-74549999D01*
X109180000Y-71669999D02*
X109180000Y-66249999D01*
X109180000Y-79969999D02*
X109180000Y-74549999D01*
X109220000Y-71669999D02*
X109220000Y-66224999D01*
X109220000Y-79994999D02*
X109220000Y-74549999D01*
X109260000Y-71669999D02*
X109260000Y-66200999D01*
X109260000Y-80018999D02*
X109260000Y-74549999D01*
X109300000Y-71669999D02*
X109300000Y-66176999D01*
X109300000Y-80042999D02*
X109300000Y-74549999D01*
X109340000Y-71669999D02*
X109340000Y-66152999D01*
X109340000Y-80066999D02*
X109340000Y-74549999D01*
X109380000Y-71669999D02*
X109380000Y-66128999D01*
X109380000Y-80090999D02*
X109380000Y-74549999D01*
X109420000Y-71669999D02*
X109420000Y-66105999D01*
X109420000Y-80113999D02*
X109420000Y-74549999D01*
X109460000Y-71669999D02*
X109460000Y-66083999D01*
X109460000Y-80135999D02*
X109460000Y-74549999D01*
X109500000Y-71669999D02*
X109500000Y-66060999D01*
X109500000Y-80158999D02*
X109500000Y-74549999D01*
X109540000Y-71669999D02*
X109540000Y-66038999D01*
X109540000Y-80180999D02*
X109540000Y-74549999D01*
X109580000Y-71669999D02*
X109580000Y-66016999D01*
X109580000Y-80202999D02*
X109580000Y-74549999D01*
X109620000Y-71669999D02*
X109620000Y-65994999D01*
X109620000Y-80224999D02*
X109620000Y-74549999D01*
X109660000Y-71669999D02*
X109660000Y-65973999D01*
X109660000Y-80245999D02*
X109660000Y-74549999D01*
X109700000Y-71669999D02*
X109700000Y-65952999D01*
X109700000Y-80266999D02*
X109700000Y-74549999D01*
X109740000Y-71669999D02*
X109740000Y-65931999D01*
X109740000Y-80287999D02*
X109740000Y-74549999D01*
X109780000Y-71669999D02*
X109780000Y-65911999D01*
X109780000Y-80307999D02*
X109780000Y-74549999D01*
X109820000Y-71669999D02*
X109820000Y-65891999D01*
X109820000Y-80327999D02*
X109820000Y-74549999D01*
X109860000Y-71669999D02*
X109860000Y-65871999D01*
X109860000Y-80347999D02*
X109860000Y-74549999D01*
X109900000Y-71669999D02*
X109900000Y-65851999D01*
X109900000Y-80367999D02*
X109900000Y-74549999D01*
X109940000Y-71669999D02*
X109940000Y-65832999D01*
X109940000Y-80386999D02*
X109940000Y-74549999D01*
X109980000Y-71669999D02*
X109980000Y-65813999D01*
X109980000Y-80405999D02*
X109980000Y-74549999D01*
X110020000Y-71669999D02*
X110020000Y-65794999D01*
X110020000Y-80424999D02*
X110020000Y-74549999D01*
X110060000Y-71669999D02*
X110060000Y-65775999D01*
X110060000Y-80443999D02*
X110060000Y-74549999D01*
X110100000Y-71669999D02*
X110100000Y-65757999D01*
X110100000Y-80461999D02*
X110100000Y-74549999D01*
X110140000Y-71669999D02*
X110140000Y-65739999D01*
X110140000Y-80479999D02*
X110140000Y-74549999D01*
X110180000Y-71669999D02*
X110180000Y-65721999D01*
X110180000Y-80497999D02*
X110180000Y-74549999D01*
X110220000Y-71669999D02*
X110220000Y-65703999D01*
X110220000Y-80515999D02*
X110220000Y-74549999D01*
X110260000Y-71669999D02*
X110260000Y-65686999D01*
X110260000Y-80532999D02*
X110260000Y-74549999D01*
X110300000Y-71669999D02*
X110300000Y-65669999D01*
X110300000Y-80549999D02*
X110300000Y-74549999D01*
X110340000Y-71669999D02*
X110340000Y-65652999D01*
X110340000Y-80566999D02*
X110340000Y-74549999D01*
X110380000Y-71669999D02*
X110380000Y-65636999D01*
X110380000Y-80582999D02*
X110380000Y-74549999D01*
X110420000Y-71669999D02*
X110420000Y-65620999D01*
X110420000Y-80598999D02*
X110420000Y-74549999D01*
X110460000Y-71669999D02*
X110460000Y-65604999D01*
X110460000Y-80614999D02*
X110460000Y-74549999D01*
X110500000Y-71669999D02*
X110500000Y-65588999D01*
X110500000Y-80630999D02*
X110500000Y-74549999D01*
X110540000Y-71669999D02*
X110540000Y-65572999D01*
X110540000Y-80646999D02*
X110540000Y-74549999D01*
X110580000Y-71669999D02*
X110580000Y-65557999D01*
X110580000Y-80661999D02*
X110580000Y-74549999D01*
X110620000Y-71669999D02*
X110620000Y-65542999D01*
X110620000Y-80676999D02*
X110620000Y-74549999D01*
X110660000Y-71669999D02*
X110660000Y-65527999D01*
X110660000Y-80691999D02*
X110660000Y-74549999D01*
X110700000Y-71669999D02*
X110700000Y-65512999D01*
X110700000Y-80706999D02*
X110700000Y-74549999D01*
X110740000Y-71669999D02*
X110740000Y-65498999D01*
X110740000Y-80720999D02*
X110740000Y-74549999D01*
X110780000Y-71669999D02*
X110780000Y-65484999D01*
X110780000Y-80734999D02*
X110780000Y-74549999D01*
X110820000Y-71669999D02*
X110820000Y-65470999D01*
X110820000Y-80748999D02*
X110820000Y-74549999D01*
X110860000Y-71669999D02*
X110860000Y-65457999D01*
X110860000Y-80761999D02*
X110860000Y-74549999D01*
X110900000Y-71669999D02*
X110900000Y-65443999D01*
X110900000Y-80775999D02*
X110900000Y-74549999D01*
X110940000Y-71669999D02*
X110940000Y-65430999D01*
X110940000Y-80788999D02*
X110940000Y-74549999D01*
X110980000Y-71669999D02*
X110980000Y-65417999D01*
X110980000Y-80801999D02*
X110980000Y-74549999D01*
X111020000Y-71669999D02*
X111020000Y-65404999D01*
X111020000Y-80814999D02*
X111020000Y-74549999D01*
X111060000Y-71669999D02*
X111060000Y-65392999D01*
X111060000Y-80826999D02*
X111060000Y-74549999D01*
X111100000Y-71669999D02*
X111100000Y-65380999D01*
X111100000Y-80838999D02*
X111100000Y-74549999D01*
X111140000Y-71669999D02*
X111140000Y-65367999D01*
X111140000Y-80851999D02*
X111140000Y-74549999D01*
X111180000Y-80862999D02*
X111180000Y-65356999D01*
X111220000Y-80874999D02*
X111220000Y-65344999D01*
X111260000Y-80885999D02*
X111260000Y-65333999D01*
X111300000Y-80896999D02*
X111300000Y-65322999D01*
X111340000Y-80907999D02*
X111340000Y-65311999D01*
X111380000Y-80918999D02*
X111380000Y-65300999D01*
X111420000Y-80929999D02*
X111420000Y-65289999D01*
X111460000Y-80939999D02*
X111460000Y-65279999D01*
X111500000Y-80949999D02*
X111500000Y-65269999D01*
X111540000Y-80959999D02*
X111540000Y-65259999D01*
X111580000Y-80968999D02*
X111580000Y-65250999D01*
X111620000Y-80978999D02*
X111620000Y-65240999D01*
X111660000Y-80987999D02*
X111660000Y-65231999D01*
X111700000Y-80996999D02*
X111700000Y-65222999D01*
X111740000Y-81005999D02*
X111740000Y-65213999D01*
X111780000Y-81013999D02*
X111780000Y-65205999D01*
X111820000Y-81022999D02*
X111820000Y-65196999D01*
X111860000Y-81030999D02*
X111860000Y-65188999D01*
X111900000Y-81038999D02*
X111900000Y-65180999D01*
X111940000Y-81045999D02*
X111940000Y-65173999D01*
X111980000Y-81053999D02*
X111980000Y-65165999D01*
X112020000Y-81060999D02*
X112020000Y-65158999D01*
X112060000Y-81067999D02*
X112060000Y-65151999D01*
X112100000Y-81074999D02*
X112100000Y-65144999D01*
X112140000Y-81081999D02*
X112140000Y-65137999D01*
X112180000Y-81087999D02*
X112180000Y-65131999D01*
X112220000Y-81094999D02*
X112220000Y-65124999D01*
X112260000Y-81100999D02*
X112260000Y-65118999D01*
X112300000Y-81106999D02*
X112300000Y-65112999D01*
X112340000Y-81111999D02*
X112340000Y-65107999D01*
X112380000Y-81117999D02*
X112380000Y-65101999D01*
X112420000Y-81122999D02*
X112420000Y-65096999D01*
X112460000Y-81127999D02*
X112460000Y-65091999D01*
X112500000Y-81132999D02*
X112500000Y-65086999D01*
X112540000Y-81137999D02*
X112540000Y-65081999D01*
X112580000Y-81141999D02*
X112580000Y-65077999D01*
X112620000Y-81145999D02*
X112620000Y-65073999D01*
X112660000Y-81149999D02*
X112660000Y-65069999D01*
X112700000Y-81153999D02*
X112700000Y-65065999D01*
X112740000Y-81157999D02*
X112740000Y-65061999D01*
X112780000Y-81160999D02*
X112780000Y-65058999D01*
X112820000Y-81164999D02*
X112820000Y-65054999D01*
X112860000Y-81167999D02*
X112860000Y-65051999D01*
X112900000Y-81170999D02*
X112900000Y-65048999D01*
X112940000Y-81172999D02*
X112940000Y-65046999D01*
X112980000Y-81175999D02*
X112980000Y-65043999D01*
X113020000Y-81177999D02*
X113020000Y-65041999D01*
X113060000Y-81179999D02*
X113060000Y-65039999D01*
X113100000Y-81181999D02*
X113100000Y-65037999D01*
X113140000Y-81183999D02*
X113140000Y-65035999D01*
X113180000Y-81184999D02*
X113180000Y-65034999D01*
X113220000Y-81185999D02*
X113220000Y-65033999D01*
X113260000Y-81187999D02*
X113260000Y-65031999D01*
X113300000Y-81187999D02*
X113300000Y-65031999D01*
X113340000Y-81188999D02*
X113340000Y-65030999D01*
X113380000Y-81189999D02*
X113380000Y-65029999D01*
X113420000Y-81189999D02*
X113420000Y-65029999D01*
X113460000Y-81189999D02*
X113460000Y-65029999D01*
X121349491Y-78464999D02*
X121349491Y-76864999D01*
X122149491Y-77664999D02*
X120549491Y-77664999D01*
X121580000Y-73109999D02*
G75*
G02*
X105340000Y-73109999I-8120000J0D01*
G01*
X105340000Y-73109999D02*
G75*
G02*
X121580000Y-73109999I8120000J0D01*
G01*
%TO.C,C41*%
X122270509Y-68754999D02*
X123870509Y-68754999D01*
X123070509Y-67954999D02*
X123070509Y-69554999D01*
X130960000Y-65229999D02*
X130960000Y-81389999D01*
X131000000Y-65229999D02*
X131000000Y-81389999D01*
X131040000Y-65229999D02*
X131040000Y-81389999D01*
X131080000Y-65230999D02*
X131080000Y-81388999D01*
X131120000Y-65231999D02*
X131120000Y-81387999D01*
X131160000Y-65231999D02*
X131160000Y-81387999D01*
X131200000Y-65233999D02*
X131200000Y-81385999D01*
X131240000Y-65234999D02*
X131240000Y-81384999D01*
X131280000Y-65235999D02*
X131280000Y-81383999D01*
X131320000Y-65237999D02*
X131320000Y-81381999D01*
X131360000Y-65239999D02*
X131360000Y-81379999D01*
X131400000Y-65241999D02*
X131400000Y-81377999D01*
X131440000Y-65243999D02*
X131440000Y-81375999D01*
X131480000Y-65246999D02*
X131480000Y-81372999D01*
X131520000Y-65248999D02*
X131520000Y-81370999D01*
X131560000Y-65251999D02*
X131560000Y-81367999D01*
X131600000Y-65254999D02*
X131600000Y-81364999D01*
X131640000Y-65258999D02*
X131640000Y-81360999D01*
X131680000Y-65261999D02*
X131680000Y-81357999D01*
X131720000Y-65265999D02*
X131720000Y-81353999D01*
X131760000Y-65269999D02*
X131760000Y-81349999D01*
X131800000Y-65273999D02*
X131800000Y-81345999D01*
X131840000Y-65277999D02*
X131840000Y-81341999D01*
X131880000Y-65281999D02*
X131880000Y-81337999D01*
X131920000Y-65286999D02*
X131920000Y-81332999D01*
X131960000Y-65291999D02*
X131960000Y-81327999D01*
X132000000Y-65296999D02*
X132000000Y-81322999D01*
X132040000Y-65301999D02*
X132040000Y-81317999D01*
X132080000Y-65307999D02*
X132080000Y-81311999D01*
X132120000Y-65312999D02*
X132120000Y-81306999D01*
X132160000Y-65318999D02*
X132160000Y-81300999D01*
X132200000Y-65324999D02*
X132200000Y-81294999D01*
X132240000Y-65331999D02*
X132240000Y-81287999D01*
X132280000Y-65337999D02*
X132280000Y-81281999D01*
X132320000Y-65344999D02*
X132320000Y-81274999D01*
X132360000Y-65351999D02*
X132360000Y-81267999D01*
X132400000Y-65358999D02*
X132400000Y-81260999D01*
X132440000Y-65365999D02*
X132440000Y-81253999D01*
X132480000Y-65373999D02*
X132480000Y-81245999D01*
X132520000Y-65380999D02*
X132520000Y-81238999D01*
X132560000Y-65388999D02*
X132560000Y-81230999D01*
X132600000Y-65396999D02*
X132600000Y-81222999D01*
X132640000Y-65405999D02*
X132640000Y-81213999D01*
X132680000Y-65413999D02*
X132680000Y-81205999D01*
X132720000Y-65422999D02*
X132720000Y-81196999D01*
X132760000Y-65431999D02*
X132760000Y-81187999D01*
X132800000Y-65440999D02*
X132800000Y-81178999D01*
X132840000Y-65450999D02*
X132840000Y-81168999D01*
X132880000Y-65459999D02*
X132880000Y-81159999D01*
X132920000Y-65469999D02*
X132920000Y-81149999D01*
X132960000Y-65479999D02*
X132960000Y-81139999D01*
X133000000Y-65489999D02*
X133000000Y-81129999D01*
X133040000Y-65500999D02*
X133040000Y-81118999D01*
X133080000Y-65511999D02*
X133080000Y-81107999D01*
X133120000Y-65522999D02*
X133120000Y-81096999D01*
X133160000Y-65533999D02*
X133160000Y-81085999D01*
X133200000Y-65544999D02*
X133200000Y-81074999D01*
X133240000Y-65556999D02*
X133240000Y-81062999D01*
X133280000Y-65567999D02*
X133280000Y-71869999D01*
X133280000Y-74749999D02*
X133280000Y-81051999D01*
X133320000Y-65580999D02*
X133320000Y-71869999D01*
X133320000Y-74749999D02*
X133320000Y-81038999D01*
X133360000Y-65592999D02*
X133360000Y-71869999D01*
X133360000Y-74749999D02*
X133360000Y-81026999D01*
X133400000Y-65604999D02*
X133400000Y-71869999D01*
X133400000Y-74749999D02*
X133400000Y-81014999D01*
X133440000Y-65617999D02*
X133440000Y-71869999D01*
X133440000Y-74749999D02*
X133440000Y-81001999D01*
X133480000Y-65630999D02*
X133480000Y-71869999D01*
X133480000Y-74749999D02*
X133480000Y-80988999D01*
X133520000Y-65643999D02*
X133520000Y-71869999D01*
X133520000Y-74749999D02*
X133520000Y-80975999D01*
X133560000Y-65657999D02*
X133560000Y-71869999D01*
X133560000Y-74749999D02*
X133560000Y-80961999D01*
X133600000Y-65670999D02*
X133600000Y-71869999D01*
X133600000Y-74749999D02*
X133600000Y-80948999D01*
X133640000Y-65684999D02*
X133640000Y-71869999D01*
X133640000Y-74749999D02*
X133640000Y-80934999D01*
X133680000Y-65698999D02*
X133680000Y-71869999D01*
X133680000Y-74749999D02*
X133680000Y-80920999D01*
X133720000Y-65712999D02*
X133720000Y-71869999D01*
X133720000Y-74749999D02*
X133720000Y-80906999D01*
X133760000Y-65727999D02*
X133760000Y-71869999D01*
X133760000Y-74749999D02*
X133760000Y-80891999D01*
X133800000Y-65742999D02*
X133800000Y-71869999D01*
X133800000Y-74749999D02*
X133800000Y-80876999D01*
X133840000Y-65757999D02*
X133840000Y-71869999D01*
X133840000Y-74749999D02*
X133840000Y-80861999D01*
X133880000Y-65772999D02*
X133880000Y-71869999D01*
X133880000Y-74749999D02*
X133880000Y-80846999D01*
X133920000Y-65788999D02*
X133920000Y-71869999D01*
X133920000Y-74749999D02*
X133920000Y-80830999D01*
X133960000Y-65804999D02*
X133960000Y-71869999D01*
X133960000Y-74749999D02*
X133960000Y-80814999D01*
X134000000Y-65820999D02*
X134000000Y-71869999D01*
X134000000Y-74749999D02*
X134000000Y-80798999D01*
X134040000Y-65836999D02*
X134040000Y-71869999D01*
X134040000Y-74749999D02*
X134040000Y-80782999D01*
X134080000Y-65852999D02*
X134080000Y-71869999D01*
X134080000Y-74749999D02*
X134080000Y-80766999D01*
X134120000Y-65869999D02*
X134120000Y-71869999D01*
X134120000Y-74749999D02*
X134120000Y-80749999D01*
X134160000Y-65886999D02*
X134160000Y-71869999D01*
X134160000Y-74749999D02*
X134160000Y-80732999D01*
X134200000Y-65903999D02*
X134200000Y-71869999D01*
X134200000Y-74749999D02*
X134200000Y-80715999D01*
X134240000Y-65921999D02*
X134240000Y-71869999D01*
X134240000Y-74749999D02*
X134240000Y-80697999D01*
X134280000Y-65939999D02*
X134280000Y-71869999D01*
X134280000Y-74749999D02*
X134280000Y-80679999D01*
X134320000Y-65957999D02*
X134320000Y-71869999D01*
X134320000Y-74749999D02*
X134320000Y-80661999D01*
X134360000Y-65975999D02*
X134360000Y-71869999D01*
X134360000Y-74749999D02*
X134360000Y-80643999D01*
X134400000Y-65994999D02*
X134400000Y-71869999D01*
X134400000Y-74749999D02*
X134400000Y-80624999D01*
X134440000Y-66013999D02*
X134440000Y-71869999D01*
X134440000Y-74749999D02*
X134440000Y-80605999D01*
X134480000Y-66032999D02*
X134480000Y-71869999D01*
X134480000Y-74749999D02*
X134480000Y-80586999D01*
X134520000Y-66051999D02*
X134520000Y-71869999D01*
X134520000Y-74749999D02*
X134520000Y-80567999D01*
X134560000Y-66071999D02*
X134560000Y-71869999D01*
X134560000Y-74749999D02*
X134560000Y-80547999D01*
X134600000Y-66091999D02*
X134600000Y-71869999D01*
X134600000Y-74749999D02*
X134600000Y-80527999D01*
X134640000Y-66111999D02*
X134640000Y-71869999D01*
X134640000Y-74749999D02*
X134640000Y-80507999D01*
X134680000Y-66131999D02*
X134680000Y-71869999D01*
X134680000Y-74749999D02*
X134680000Y-80487999D01*
X134720000Y-66152999D02*
X134720000Y-71869999D01*
X134720000Y-74749999D02*
X134720000Y-80466999D01*
X134760000Y-66173999D02*
X134760000Y-71869999D01*
X134760000Y-74749999D02*
X134760000Y-80445999D01*
X134800000Y-66194999D02*
X134800000Y-71869999D01*
X134800000Y-74749999D02*
X134800000Y-80424999D01*
X134840000Y-66216999D02*
X134840000Y-71869999D01*
X134840000Y-74749999D02*
X134840000Y-80402999D01*
X134880000Y-66238999D02*
X134880000Y-71869999D01*
X134880000Y-74749999D02*
X134880000Y-80380999D01*
X134920000Y-66260999D02*
X134920000Y-71869999D01*
X134920000Y-74749999D02*
X134920000Y-80358999D01*
X134960000Y-66283999D02*
X134960000Y-71869999D01*
X134960000Y-74749999D02*
X134960000Y-80335999D01*
X135000000Y-66305999D02*
X135000000Y-71869999D01*
X135000000Y-74749999D02*
X135000000Y-80313999D01*
X135040000Y-66328999D02*
X135040000Y-71869999D01*
X135040000Y-74749999D02*
X135040000Y-80290999D01*
X135080000Y-66352999D02*
X135080000Y-71869999D01*
X135080000Y-74749999D02*
X135080000Y-80266999D01*
X135120000Y-66376999D02*
X135120000Y-71869999D01*
X135120000Y-74749999D02*
X135120000Y-80242999D01*
X135160000Y-66400999D02*
X135160000Y-71869999D01*
X135160000Y-74749999D02*
X135160000Y-80218999D01*
X135200000Y-66424999D02*
X135200000Y-71869999D01*
X135200000Y-74749999D02*
X135200000Y-80194999D01*
X135240000Y-66449999D02*
X135240000Y-71869999D01*
X135240000Y-74749999D02*
X135240000Y-80169999D01*
X135280000Y-66474999D02*
X135280000Y-71869999D01*
X135280000Y-74749999D02*
X135280000Y-80144999D01*
X135320000Y-66499999D02*
X135320000Y-71869999D01*
X135320000Y-74749999D02*
X135320000Y-80119999D01*
X135360000Y-66524999D02*
X135360000Y-71869999D01*
X135360000Y-74749999D02*
X135360000Y-80094999D01*
X135400000Y-66550999D02*
X135400000Y-71869999D01*
X135400000Y-74749999D02*
X135400000Y-80068999D01*
X135440000Y-66577999D02*
X135440000Y-71869999D01*
X135440000Y-74749999D02*
X135440000Y-80041999D01*
X135480000Y-66603999D02*
X135480000Y-71869999D01*
X135480000Y-74749999D02*
X135480000Y-80015999D01*
X135520000Y-66630999D02*
X135520000Y-71869999D01*
X135520000Y-74749999D02*
X135520000Y-79988999D01*
X135560000Y-66658999D02*
X135560000Y-71869999D01*
X135560000Y-74749999D02*
X135560000Y-79960999D01*
X135600000Y-66685999D02*
X135600000Y-71869999D01*
X135600000Y-74749999D02*
X135600000Y-79933999D01*
X135640000Y-66713999D02*
X135640000Y-71869999D01*
X135640000Y-74749999D02*
X135640000Y-79905999D01*
X135680000Y-66742999D02*
X135680000Y-71869999D01*
X135680000Y-74749999D02*
X135680000Y-79876999D01*
X135720000Y-66770999D02*
X135720000Y-71869999D01*
X135720000Y-74749999D02*
X135720000Y-79848999D01*
X135760000Y-66800999D02*
X135760000Y-71869999D01*
X135760000Y-74749999D02*
X135760000Y-79818999D01*
X135800000Y-66829999D02*
X135800000Y-71869999D01*
X135800000Y-74749999D02*
X135800000Y-79789999D01*
X135840000Y-66859999D02*
X135840000Y-71869999D01*
X135840000Y-74749999D02*
X135840000Y-79759999D01*
X135880000Y-66889999D02*
X135880000Y-71869999D01*
X135880000Y-74749999D02*
X135880000Y-79729999D01*
X135920000Y-66920999D02*
X135920000Y-71869999D01*
X135920000Y-74749999D02*
X135920000Y-79698999D01*
X135960000Y-66951999D02*
X135960000Y-71869999D01*
X135960000Y-74749999D02*
X135960000Y-79667999D01*
X136000000Y-66982999D02*
X136000000Y-71869999D01*
X136000000Y-74749999D02*
X136000000Y-79636999D01*
X136040000Y-67014999D02*
X136040000Y-71869999D01*
X136040000Y-74749999D02*
X136040000Y-79604999D01*
X136080000Y-67047999D02*
X136080000Y-71869999D01*
X136080000Y-74749999D02*
X136080000Y-79571999D01*
X136120000Y-67079999D02*
X136120000Y-71869999D01*
X136120000Y-74749999D02*
X136120000Y-79539999D01*
X136160000Y-67112999D02*
X136160000Y-79506999D01*
X136200000Y-67146999D02*
X136200000Y-79472999D01*
X136240000Y-67180999D02*
X136240000Y-79438999D01*
X136280000Y-67215999D02*
X136280000Y-79403999D01*
X136320000Y-67249999D02*
X136320000Y-79369999D01*
X136360000Y-67285999D02*
X136360000Y-79333999D01*
X136400000Y-67321999D02*
X136400000Y-79297999D01*
X136440000Y-67357999D02*
X136440000Y-79261999D01*
X136480000Y-67394999D02*
X136480000Y-79224999D01*
X136520000Y-67431999D02*
X136520000Y-79187999D01*
X136560000Y-67469999D02*
X136560000Y-79149999D01*
X136600000Y-67507999D02*
X136600000Y-79111999D01*
X136640000Y-67546999D02*
X136640000Y-79072999D01*
X136680000Y-67586999D02*
X136680000Y-79032999D01*
X136720000Y-67626999D02*
X136720000Y-78992999D01*
X136760000Y-67666999D02*
X136760000Y-78952999D01*
X136800000Y-67707999D02*
X136800000Y-78911999D01*
X136840000Y-67749999D02*
X136840000Y-78869999D01*
X136880000Y-67791999D02*
X136880000Y-78827999D01*
X136920000Y-67834999D02*
X136920000Y-78784999D01*
X136960000Y-67878999D02*
X136960000Y-78740999D01*
X137000000Y-67922999D02*
X137000000Y-78696999D01*
X137040000Y-67967999D02*
X137040000Y-78651999D01*
X137080000Y-68012999D02*
X137080000Y-78606999D01*
X137120000Y-68059999D02*
X137120000Y-78559999D01*
X137160000Y-68105999D02*
X137160000Y-78513999D01*
X137200000Y-68153999D02*
X137200000Y-78465999D01*
X137240000Y-68202999D02*
X137240000Y-78416999D01*
X137280000Y-68251999D02*
X137280000Y-78367999D01*
X137320000Y-68301999D02*
X137320000Y-78317999D01*
X137360000Y-68352999D02*
X137360000Y-78266999D01*
X137400000Y-68403999D02*
X137400000Y-78215999D01*
X137440000Y-68456999D02*
X137440000Y-78162999D01*
X137480000Y-68509999D02*
X137480000Y-78109999D01*
X137520000Y-68564999D02*
X137520000Y-78054999D01*
X137560000Y-68619999D02*
X137560000Y-77999999D01*
X137600000Y-68675999D02*
X137600000Y-77943999D01*
X137640000Y-68733999D02*
X137640000Y-77885999D01*
X137680000Y-68791999D02*
X137680000Y-77827999D01*
X137720000Y-68850999D02*
X137720000Y-77768999D01*
X137760000Y-68911999D02*
X137760000Y-77707999D01*
X137800000Y-68973999D02*
X137800000Y-77645999D01*
X137840000Y-69036999D02*
X137840000Y-77582999D01*
X137880000Y-69101999D02*
X137880000Y-77517999D01*
X137920000Y-69167999D02*
X137920000Y-77451999D01*
X137960000Y-69234999D02*
X137960000Y-77384999D01*
X138000000Y-69303999D02*
X138000000Y-77315999D01*
X138040000Y-69373999D02*
X138040000Y-77245999D01*
X138080000Y-69445999D02*
X138080000Y-77173999D01*
X138120000Y-69519999D02*
X138120000Y-77099999D01*
X138160000Y-69595999D02*
X138160000Y-77023999D01*
X138200000Y-69672999D02*
X138200000Y-76946999D01*
X138240000Y-69752999D02*
X138240000Y-76866999D01*
X138280000Y-69834999D02*
X138280000Y-76784999D01*
X138320000Y-69919999D02*
X138320000Y-76699999D01*
X138360000Y-70006999D02*
X138360000Y-76612999D01*
X138400000Y-70096999D02*
X138400000Y-76522999D01*
X138440000Y-70189999D02*
X138440000Y-76429999D01*
X138480000Y-70286999D02*
X138480000Y-76332999D01*
X138520000Y-70386999D02*
X138520000Y-76232999D01*
X138560000Y-70490999D02*
X138560000Y-76128999D01*
X138600000Y-70599999D02*
X138600000Y-76019999D01*
X138640000Y-70712999D02*
X138640000Y-75906999D01*
X138680000Y-70832999D02*
X138680000Y-75786999D01*
X138720000Y-70958999D02*
X138720000Y-75660999D01*
X138760000Y-71092999D02*
X138760000Y-75526999D01*
X138800000Y-71235999D02*
X138800000Y-75383999D01*
X138840000Y-71389999D02*
X138840000Y-75229999D01*
X138880000Y-71558999D02*
X138880000Y-75060999D01*
X138920000Y-71745999D02*
X138920000Y-74873999D01*
X138960000Y-71958999D02*
X138960000Y-74660999D01*
X139000000Y-72212999D02*
X139000000Y-74406999D01*
X139040000Y-72544999D02*
X139040000Y-74074999D01*
X139080000Y-73309999D02*
G75*
G02*
X122840000Y-73309999I-8120000J0D01*
G01*
X122840000Y-73309999D02*
G75*
G02*
X139080000Y-73309999I8120000J0D01*
G01*
%TO.C,J2*%
X115855000Y-119999999D02*
X115855000Y-122659999D01*
X126075000Y-119999999D02*
X115855000Y-119999999D01*
X126075000Y-119999999D02*
X126075000Y-122659999D01*
X126075000Y-122659999D02*
X115855000Y-122659999D01*
X127345000Y-119999999D02*
X128675000Y-119999999D01*
X128675000Y-119999999D02*
X128675000Y-121329999D01*
%TO.C,J1*%
X115835000Y-58879999D02*
X115835000Y-61539999D01*
X126055000Y-58879999D02*
X115835000Y-58879999D01*
X126055000Y-58879999D02*
X126055000Y-61539999D01*
X126055000Y-61539999D02*
X115835000Y-61539999D01*
X127325000Y-58879999D02*
X128655000Y-58879999D01*
X128655000Y-58879999D02*
X128655000Y-60209999D01*
%TO.C,C43*%
X122270509Y-104554999D02*
X123870509Y-104554999D01*
X123070509Y-103754999D02*
X123070509Y-105354999D01*
X130960000Y-101029999D02*
X130960000Y-117189999D01*
X131000000Y-101029999D02*
X131000000Y-117189999D01*
X131040000Y-101029999D02*
X131040000Y-117189999D01*
X131080000Y-101030999D02*
X131080000Y-117188999D01*
X131120000Y-101031999D02*
X131120000Y-117187999D01*
X131160000Y-101031999D02*
X131160000Y-117187999D01*
X131200000Y-101033999D02*
X131200000Y-117185999D01*
X131240000Y-101034999D02*
X131240000Y-117184999D01*
X131280000Y-101035999D02*
X131280000Y-117183999D01*
X131320000Y-101037999D02*
X131320000Y-117181999D01*
X131360000Y-101039999D02*
X131360000Y-117179999D01*
X131400000Y-101041999D02*
X131400000Y-117177999D01*
X131440000Y-101043999D02*
X131440000Y-117175999D01*
X131480000Y-101046999D02*
X131480000Y-117172999D01*
X131520000Y-101048999D02*
X131520000Y-117170999D01*
X131560000Y-101051999D02*
X131560000Y-117167999D01*
X131600000Y-101054999D02*
X131600000Y-117164999D01*
X131640000Y-101058999D02*
X131640000Y-117160999D01*
X131680000Y-101061999D02*
X131680000Y-117157999D01*
X131720000Y-101065999D02*
X131720000Y-117153999D01*
X131760000Y-101069999D02*
X131760000Y-117149999D01*
X131800000Y-101073999D02*
X131800000Y-117145999D01*
X131840000Y-101077999D02*
X131840000Y-117141999D01*
X131880000Y-101081999D02*
X131880000Y-117137999D01*
X131920000Y-101086999D02*
X131920000Y-117132999D01*
X131960000Y-101091999D02*
X131960000Y-117127999D01*
X132000000Y-101096999D02*
X132000000Y-117122999D01*
X132040000Y-101101999D02*
X132040000Y-117117999D01*
X132080000Y-101107999D02*
X132080000Y-117111999D01*
X132120000Y-101112999D02*
X132120000Y-117106999D01*
X132160000Y-101118999D02*
X132160000Y-117100999D01*
X132200000Y-101124999D02*
X132200000Y-117094999D01*
X132240000Y-101131999D02*
X132240000Y-117087999D01*
X132280000Y-101137999D02*
X132280000Y-117081999D01*
X132320000Y-101144999D02*
X132320000Y-117074999D01*
X132360000Y-101151999D02*
X132360000Y-117067999D01*
X132400000Y-101158999D02*
X132400000Y-117060999D01*
X132440000Y-101165999D02*
X132440000Y-117053999D01*
X132480000Y-101173999D02*
X132480000Y-117045999D01*
X132520000Y-101180999D02*
X132520000Y-117038999D01*
X132560000Y-101188999D02*
X132560000Y-117030999D01*
X132600000Y-101196999D02*
X132600000Y-117022999D01*
X132640000Y-101205999D02*
X132640000Y-117013999D01*
X132680000Y-101213999D02*
X132680000Y-117005999D01*
X132720000Y-101222999D02*
X132720000Y-116996999D01*
X132760000Y-101231999D02*
X132760000Y-116987999D01*
X132800000Y-101240999D02*
X132800000Y-116978999D01*
X132840000Y-101250999D02*
X132840000Y-116968999D01*
X132880000Y-101259999D02*
X132880000Y-116959999D01*
X132920000Y-101269999D02*
X132920000Y-116949999D01*
X132960000Y-101279999D02*
X132960000Y-116939999D01*
X133000000Y-101289999D02*
X133000000Y-116929999D01*
X133040000Y-101300999D02*
X133040000Y-116918999D01*
X133080000Y-101311999D02*
X133080000Y-116907999D01*
X133120000Y-101322999D02*
X133120000Y-116896999D01*
X133160000Y-101333999D02*
X133160000Y-116885999D01*
X133200000Y-101344999D02*
X133200000Y-116874999D01*
X133240000Y-101356999D02*
X133240000Y-116862999D01*
X133280000Y-101367999D02*
X133280000Y-107669999D01*
X133280000Y-110549999D02*
X133280000Y-116851999D01*
X133320000Y-101380999D02*
X133320000Y-107669999D01*
X133320000Y-110549999D02*
X133320000Y-116838999D01*
X133360000Y-101392999D02*
X133360000Y-107669999D01*
X133360000Y-110549999D02*
X133360000Y-116826999D01*
X133400000Y-101404999D02*
X133400000Y-107669999D01*
X133400000Y-110549999D02*
X133400000Y-116814999D01*
X133440000Y-101417999D02*
X133440000Y-107669999D01*
X133440000Y-110549999D02*
X133440000Y-116801999D01*
X133480000Y-101430999D02*
X133480000Y-107669999D01*
X133480000Y-110549999D02*
X133480000Y-116788999D01*
X133520000Y-101443999D02*
X133520000Y-107669999D01*
X133520000Y-110549999D02*
X133520000Y-116775999D01*
X133560000Y-101457999D02*
X133560000Y-107669999D01*
X133560000Y-110549999D02*
X133560000Y-116761999D01*
X133600000Y-101470999D02*
X133600000Y-107669999D01*
X133600000Y-110549999D02*
X133600000Y-116748999D01*
X133640000Y-101484999D02*
X133640000Y-107669999D01*
X133640000Y-110549999D02*
X133640000Y-116734999D01*
X133680000Y-101498999D02*
X133680000Y-107669999D01*
X133680000Y-110549999D02*
X133680000Y-116720999D01*
X133720000Y-101512999D02*
X133720000Y-107669999D01*
X133720000Y-110549999D02*
X133720000Y-116706999D01*
X133760000Y-101527999D02*
X133760000Y-107669999D01*
X133760000Y-110549999D02*
X133760000Y-116691999D01*
X133800000Y-101542999D02*
X133800000Y-107669999D01*
X133800000Y-110549999D02*
X133800000Y-116676999D01*
X133840000Y-101557999D02*
X133840000Y-107669999D01*
X133840000Y-110549999D02*
X133840000Y-116661999D01*
X133880000Y-101572999D02*
X133880000Y-107669999D01*
X133880000Y-110549999D02*
X133880000Y-116646999D01*
X133920000Y-101588999D02*
X133920000Y-107669999D01*
X133920000Y-110549999D02*
X133920000Y-116630999D01*
X133960000Y-101604999D02*
X133960000Y-107669999D01*
X133960000Y-110549999D02*
X133960000Y-116614999D01*
X134000000Y-101620999D02*
X134000000Y-107669999D01*
X134000000Y-110549999D02*
X134000000Y-116598999D01*
X134040000Y-101636999D02*
X134040000Y-107669999D01*
X134040000Y-110549999D02*
X134040000Y-116582999D01*
X134080000Y-101652999D02*
X134080000Y-107669999D01*
X134080000Y-110549999D02*
X134080000Y-116566999D01*
X134120000Y-101669999D02*
X134120000Y-107669999D01*
X134120000Y-110549999D02*
X134120000Y-116549999D01*
X134160000Y-101686999D02*
X134160000Y-107669999D01*
X134160000Y-110549999D02*
X134160000Y-116532999D01*
X134200000Y-101703999D02*
X134200000Y-107669999D01*
X134200000Y-110549999D02*
X134200000Y-116515999D01*
X134240000Y-101721999D02*
X134240000Y-107669999D01*
X134240000Y-110549999D02*
X134240000Y-116497999D01*
X134280000Y-101739999D02*
X134280000Y-107669999D01*
X134280000Y-110549999D02*
X134280000Y-116479999D01*
X134320000Y-101757999D02*
X134320000Y-107669999D01*
X134320000Y-110549999D02*
X134320000Y-116461999D01*
X134360000Y-101775999D02*
X134360000Y-107669999D01*
X134360000Y-110549999D02*
X134360000Y-116443999D01*
X134400000Y-101794999D02*
X134400000Y-107669999D01*
X134400000Y-110549999D02*
X134400000Y-116424999D01*
X134440000Y-101813999D02*
X134440000Y-107669999D01*
X134440000Y-110549999D02*
X134440000Y-116405999D01*
X134480000Y-101832999D02*
X134480000Y-107669999D01*
X134480000Y-110549999D02*
X134480000Y-116386999D01*
X134520000Y-101851999D02*
X134520000Y-107669999D01*
X134520000Y-110549999D02*
X134520000Y-116367999D01*
X134560000Y-101871999D02*
X134560000Y-107669999D01*
X134560000Y-110549999D02*
X134560000Y-116347999D01*
X134600000Y-101891999D02*
X134600000Y-107669999D01*
X134600000Y-110549999D02*
X134600000Y-116327999D01*
X134640000Y-101911999D02*
X134640000Y-107669999D01*
X134640000Y-110549999D02*
X134640000Y-116307999D01*
X134680000Y-101931999D02*
X134680000Y-107669999D01*
X134680000Y-110549999D02*
X134680000Y-116287999D01*
X134720000Y-101952999D02*
X134720000Y-107669999D01*
X134720000Y-110549999D02*
X134720000Y-116266999D01*
X134760000Y-101973999D02*
X134760000Y-107669999D01*
X134760000Y-110549999D02*
X134760000Y-116245999D01*
X134800000Y-101994999D02*
X134800000Y-107669999D01*
X134800000Y-110549999D02*
X134800000Y-116224999D01*
X134840000Y-102016999D02*
X134840000Y-107669999D01*
X134840000Y-110549999D02*
X134840000Y-116202999D01*
X134880000Y-102038999D02*
X134880000Y-107669999D01*
X134880000Y-110549999D02*
X134880000Y-116180999D01*
X134920000Y-102060999D02*
X134920000Y-107669999D01*
X134920000Y-110549999D02*
X134920000Y-116158999D01*
X134960000Y-102083999D02*
X134960000Y-107669999D01*
X134960000Y-110549999D02*
X134960000Y-116135999D01*
X135000000Y-102105999D02*
X135000000Y-107669999D01*
X135000000Y-110549999D02*
X135000000Y-116113999D01*
X135040000Y-102128999D02*
X135040000Y-107669999D01*
X135040000Y-110549999D02*
X135040000Y-116090999D01*
X135080000Y-102152999D02*
X135080000Y-107669999D01*
X135080000Y-110549999D02*
X135080000Y-116066999D01*
X135120000Y-102176999D02*
X135120000Y-107669999D01*
X135120000Y-110549999D02*
X135120000Y-116042999D01*
X135160000Y-102200999D02*
X135160000Y-107669999D01*
X135160000Y-110549999D02*
X135160000Y-116018999D01*
X135200000Y-102224999D02*
X135200000Y-107669999D01*
X135200000Y-110549999D02*
X135200000Y-115994999D01*
X135240000Y-102249999D02*
X135240000Y-107669999D01*
X135240000Y-110549999D02*
X135240000Y-115969999D01*
X135280000Y-102274999D02*
X135280000Y-107669999D01*
X135280000Y-110549999D02*
X135280000Y-115944999D01*
X135320000Y-102299999D02*
X135320000Y-107669999D01*
X135320000Y-110549999D02*
X135320000Y-115919999D01*
X135360000Y-102324999D02*
X135360000Y-107669999D01*
X135360000Y-110549999D02*
X135360000Y-115894999D01*
X135400000Y-102350999D02*
X135400000Y-107669999D01*
X135400000Y-110549999D02*
X135400000Y-115868999D01*
X135440000Y-102377999D02*
X135440000Y-107669999D01*
X135440000Y-110549999D02*
X135440000Y-115841999D01*
X135480000Y-102403999D02*
X135480000Y-107669999D01*
X135480000Y-110549999D02*
X135480000Y-115815999D01*
X135520000Y-102430999D02*
X135520000Y-107669999D01*
X135520000Y-110549999D02*
X135520000Y-115788999D01*
X135560000Y-102458999D02*
X135560000Y-107669999D01*
X135560000Y-110549999D02*
X135560000Y-115760999D01*
X135600000Y-102485999D02*
X135600000Y-107669999D01*
X135600000Y-110549999D02*
X135600000Y-115733999D01*
X135640000Y-102513999D02*
X135640000Y-107669999D01*
X135640000Y-110549999D02*
X135640000Y-115705999D01*
X135680000Y-102542999D02*
X135680000Y-107669999D01*
X135680000Y-110549999D02*
X135680000Y-115676999D01*
X135720000Y-102570999D02*
X135720000Y-107669999D01*
X135720000Y-110549999D02*
X135720000Y-115648999D01*
X135760000Y-102600999D02*
X135760000Y-107669999D01*
X135760000Y-110549999D02*
X135760000Y-115618999D01*
X135800000Y-102629999D02*
X135800000Y-107669999D01*
X135800000Y-110549999D02*
X135800000Y-115589999D01*
X135840000Y-102659999D02*
X135840000Y-107669999D01*
X135840000Y-110549999D02*
X135840000Y-115559999D01*
X135880000Y-102689999D02*
X135880000Y-107669999D01*
X135880000Y-110549999D02*
X135880000Y-115529999D01*
X135920000Y-102720999D02*
X135920000Y-107669999D01*
X135920000Y-110549999D02*
X135920000Y-115498999D01*
X135960000Y-102751999D02*
X135960000Y-107669999D01*
X135960000Y-110549999D02*
X135960000Y-115467999D01*
X136000000Y-102782999D02*
X136000000Y-107669999D01*
X136000000Y-110549999D02*
X136000000Y-115436999D01*
X136040000Y-102814999D02*
X136040000Y-107669999D01*
X136040000Y-110549999D02*
X136040000Y-115404999D01*
X136080000Y-102847999D02*
X136080000Y-107669999D01*
X136080000Y-110549999D02*
X136080000Y-115371999D01*
X136120000Y-102879999D02*
X136120000Y-107669999D01*
X136120000Y-110549999D02*
X136120000Y-115339999D01*
X136160000Y-102912999D02*
X136160000Y-115306999D01*
X136200000Y-102946999D02*
X136200000Y-115272999D01*
X136240000Y-102980999D02*
X136240000Y-115238999D01*
X136280000Y-103015999D02*
X136280000Y-115203999D01*
X136320000Y-103049999D02*
X136320000Y-115169999D01*
X136360000Y-103085999D02*
X136360000Y-115133999D01*
X136400000Y-103121999D02*
X136400000Y-115097999D01*
X136440000Y-103157999D02*
X136440000Y-115061999D01*
X136480000Y-103194999D02*
X136480000Y-115024999D01*
X136520000Y-103231999D02*
X136520000Y-114987999D01*
X136560000Y-103269999D02*
X136560000Y-114949999D01*
X136600000Y-103307999D02*
X136600000Y-114911999D01*
X136640000Y-103346999D02*
X136640000Y-114872999D01*
X136680000Y-103386999D02*
X136680000Y-114832999D01*
X136720000Y-103426999D02*
X136720000Y-114792999D01*
X136760000Y-103466999D02*
X136760000Y-114752999D01*
X136800000Y-103507999D02*
X136800000Y-114711999D01*
X136840000Y-103549999D02*
X136840000Y-114669999D01*
X136880000Y-103591999D02*
X136880000Y-114627999D01*
X136920000Y-103634999D02*
X136920000Y-114584999D01*
X136960000Y-103678999D02*
X136960000Y-114540999D01*
X137000000Y-103722999D02*
X137000000Y-114496999D01*
X137040000Y-103767999D02*
X137040000Y-114451999D01*
X137080000Y-103812999D02*
X137080000Y-114406999D01*
X137120000Y-103859999D02*
X137120000Y-114359999D01*
X137160000Y-103905999D02*
X137160000Y-114313999D01*
X137200000Y-103953999D02*
X137200000Y-114265999D01*
X137240000Y-104002999D02*
X137240000Y-114216999D01*
X137280000Y-104051999D02*
X137280000Y-114167999D01*
X137320000Y-104101999D02*
X137320000Y-114117999D01*
X137360000Y-104152999D02*
X137360000Y-114066999D01*
X137400000Y-104203999D02*
X137400000Y-114015999D01*
X137440000Y-104256999D02*
X137440000Y-113962999D01*
X137480000Y-104309999D02*
X137480000Y-113909999D01*
X137520000Y-104364999D02*
X137520000Y-113854999D01*
X137560000Y-104419999D02*
X137560000Y-113799999D01*
X137600000Y-104475999D02*
X137600000Y-113743999D01*
X137640000Y-104533999D02*
X137640000Y-113685999D01*
X137680000Y-104591999D02*
X137680000Y-113627999D01*
X137720000Y-104650999D02*
X137720000Y-113568999D01*
X137760000Y-104711999D02*
X137760000Y-113507999D01*
X137800000Y-104773999D02*
X137800000Y-113445999D01*
X137840000Y-104836999D02*
X137840000Y-113382999D01*
X137880000Y-104901999D02*
X137880000Y-113317999D01*
X137920000Y-104967999D02*
X137920000Y-113251999D01*
X137960000Y-105034999D02*
X137960000Y-113184999D01*
X138000000Y-105103999D02*
X138000000Y-113115999D01*
X138040000Y-105173999D02*
X138040000Y-113045999D01*
X138080000Y-105245999D02*
X138080000Y-112973999D01*
X138120000Y-105319999D02*
X138120000Y-112899999D01*
X138160000Y-105395999D02*
X138160000Y-112823999D01*
X138200000Y-105472999D02*
X138200000Y-112746999D01*
X138240000Y-105552999D02*
X138240000Y-112666999D01*
X138280000Y-105634999D02*
X138280000Y-112584999D01*
X138320000Y-105719999D02*
X138320000Y-112499999D01*
X138360000Y-105806999D02*
X138360000Y-112412999D01*
X138400000Y-105896999D02*
X138400000Y-112322999D01*
X138440000Y-105989999D02*
X138440000Y-112229999D01*
X138480000Y-106086999D02*
X138480000Y-112132999D01*
X138520000Y-106186999D02*
X138520000Y-112032999D01*
X138560000Y-106290999D02*
X138560000Y-111928999D01*
X138600000Y-106399999D02*
X138600000Y-111819999D01*
X138640000Y-106512999D02*
X138640000Y-111706999D01*
X138680000Y-106632999D02*
X138680000Y-111586999D01*
X138720000Y-106758999D02*
X138720000Y-111460999D01*
X138760000Y-106892999D02*
X138760000Y-111326999D01*
X138800000Y-107035999D02*
X138800000Y-111183999D01*
X138840000Y-107189999D02*
X138840000Y-111029999D01*
X138880000Y-107358999D02*
X138880000Y-110860999D01*
X138920000Y-107545999D02*
X138920000Y-110673999D01*
X138960000Y-107758999D02*
X138960000Y-110460999D01*
X139000000Y-108012999D02*
X139000000Y-110206999D01*
X139040000Y-108344999D02*
X139040000Y-109874999D01*
X139080000Y-109109999D02*
G75*
G02*
X122840000Y-109109999I-8120000J0D01*
G01*
X122840000Y-109109999D02*
G75*
G02*
X139080000Y-109109999I8120000J0D01*
G01*
%TO.C,C38*%
X105380000Y-91874999D02*
X105380000Y-90344999D01*
X105420000Y-92206999D02*
X105420000Y-90012999D01*
X105460000Y-92460999D02*
X105460000Y-89758999D01*
X105500000Y-92673999D02*
X105500000Y-89545999D01*
X105540000Y-92860999D02*
X105540000Y-89358999D01*
X105580000Y-93029999D02*
X105580000Y-89189999D01*
X105620000Y-93183999D02*
X105620000Y-89035999D01*
X105660000Y-93326999D02*
X105660000Y-88892999D01*
X105700000Y-93460999D02*
X105700000Y-88758999D01*
X105740000Y-93586999D02*
X105740000Y-88632999D01*
X105780000Y-93706999D02*
X105780000Y-88512999D01*
X105820000Y-93819999D02*
X105820000Y-88399999D01*
X105860000Y-93928999D02*
X105860000Y-88290999D01*
X105900000Y-94032999D02*
X105900000Y-88186999D01*
X105940000Y-94132999D02*
X105940000Y-88086999D01*
X105980000Y-94229999D02*
X105980000Y-87989999D01*
X106020000Y-94322999D02*
X106020000Y-87896999D01*
X106060000Y-94412999D02*
X106060000Y-87806999D01*
X106100000Y-94499999D02*
X106100000Y-87719999D01*
X106140000Y-94584999D02*
X106140000Y-87634999D01*
X106180000Y-94666999D02*
X106180000Y-87552999D01*
X106220000Y-94746999D02*
X106220000Y-87472999D01*
X106260000Y-94823999D02*
X106260000Y-87395999D01*
X106300000Y-94899999D02*
X106300000Y-87319999D01*
X106340000Y-94973999D02*
X106340000Y-87245999D01*
X106380000Y-95045999D02*
X106380000Y-87173999D01*
X106420000Y-95115999D02*
X106420000Y-87103999D01*
X106460000Y-95184999D02*
X106460000Y-87034999D01*
X106500000Y-95251999D02*
X106500000Y-86967999D01*
X106540000Y-95317999D02*
X106540000Y-86901999D01*
X106580000Y-95382999D02*
X106580000Y-86836999D01*
X106620000Y-95445999D02*
X106620000Y-86773999D01*
X106660000Y-95507999D02*
X106660000Y-86711999D01*
X106700000Y-95568999D02*
X106700000Y-86650999D01*
X106740000Y-95627999D02*
X106740000Y-86591999D01*
X106780000Y-95685999D02*
X106780000Y-86533999D01*
X106820000Y-95743999D02*
X106820000Y-86475999D01*
X106860000Y-95799999D02*
X106860000Y-86419999D01*
X106900000Y-95854999D02*
X106900000Y-86364999D01*
X106940000Y-95909999D02*
X106940000Y-86309999D01*
X106980000Y-95962999D02*
X106980000Y-86256999D01*
X107020000Y-96015999D02*
X107020000Y-86203999D01*
X107060000Y-96066999D02*
X107060000Y-86152999D01*
X107100000Y-96117999D02*
X107100000Y-86101999D01*
X107140000Y-96167999D02*
X107140000Y-86051999D01*
X107180000Y-96216999D02*
X107180000Y-86002999D01*
X107220000Y-96265999D02*
X107220000Y-85953999D01*
X107260000Y-96313999D02*
X107260000Y-85905999D01*
X107300000Y-96359999D02*
X107300000Y-85859999D01*
X107340000Y-96406999D02*
X107340000Y-85812999D01*
X107380000Y-96451999D02*
X107380000Y-85767999D01*
X107420000Y-96496999D02*
X107420000Y-85722999D01*
X107460000Y-96540999D02*
X107460000Y-85678999D01*
X107500000Y-96584999D02*
X107500000Y-85634999D01*
X107540000Y-96627999D02*
X107540000Y-85591999D01*
X107580000Y-96669999D02*
X107580000Y-85549999D01*
X107620000Y-96711999D02*
X107620000Y-85507999D01*
X107660000Y-96752999D02*
X107660000Y-85466999D01*
X107700000Y-96792999D02*
X107700000Y-85426999D01*
X107740000Y-96832999D02*
X107740000Y-85386999D01*
X107780000Y-96872999D02*
X107780000Y-85346999D01*
X107820000Y-96911999D02*
X107820000Y-85307999D01*
X107860000Y-96949999D02*
X107860000Y-85269999D01*
X107900000Y-96987999D02*
X107900000Y-85231999D01*
X107940000Y-97024999D02*
X107940000Y-85194999D01*
X107980000Y-97061999D02*
X107980000Y-85157999D01*
X108020000Y-97097999D02*
X108020000Y-85121999D01*
X108060000Y-97133999D02*
X108060000Y-85085999D01*
X108100000Y-97169999D02*
X108100000Y-85049999D01*
X108140000Y-97203999D02*
X108140000Y-85015999D01*
X108180000Y-97238999D02*
X108180000Y-84980999D01*
X108220000Y-97272999D02*
X108220000Y-84946999D01*
X108260000Y-97306999D02*
X108260000Y-84912999D01*
X108300000Y-89669999D02*
X108300000Y-84879999D01*
X108300000Y-97339999D02*
X108300000Y-92549999D01*
X108340000Y-89669999D02*
X108340000Y-84847999D01*
X108340000Y-97371999D02*
X108340000Y-92549999D01*
X108380000Y-89669999D02*
X108380000Y-84814999D01*
X108380000Y-97404999D02*
X108380000Y-92549999D01*
X108420000Y-89669999D02*
X108420000Y-84782999D01*
X108420000Y-97436999D02*
X108420000Y-92549999D01*
X108460000Y-89669999D02*
X108460000Y-84751999D01*
X108460000Y-97467999D02*
X108460000Y-92549999D01*
X108500000Y-89669999D02*
X108500000Y-84720999D01*
X108500000Y-97498999D02*
X108500000Y-92549999D01*
X108540000Y-89669999D02*
X108540000Y-84689999D01*
X108540000Y-97529999D02*
X108540000Y-92549999D01*
X108580000Y-89669999D02*
X108580000Y-84659999D01*
X108580000Y-97559999D02*
X108580000Y-92549999D01*
X108620000Y-89669999D02*
X108620000Y-84629999D01*
X108620000Y-97589999D02*
X108620000Y-92549999D01*
X108660000Y-89669999D02*
X108660000Y-84600999D01*
X108660000Y-97618999D02*
X108660000Y-92549999D01*
X108700000Y-89669999D02*
X108700000Y-84570999D01*
X108700000Y-97648999D02*
X108700000Y-92549999D01*
X108740000Y-89669999D02*
X108740000Y-84542999D01*
X108740000Y-97676999D02*
X108740000Y-92549999D01*
X108780000Y-89669999D02*
X108780000Y-84513999D01*
X108780000Y-97705999D02*
X108780000Y-92549999D01*
X108820000Y-89669999D02*
X108820000Y-84485999D01*
X108820000Y-97733999D02*
X108820000Y-92549999D01*
X108860000Y-89669999D02*
X108860000Y-84458999D01*
X108860000Y-97760999D02*
X108860000Y-92549999D01*
X108900000Y-89669999D02*
X108900000Y-84430999D01*
X108900000Y-97788999D02*
X108900000Y-92549999D01*
X108940000Y-89669999D02*
X108940000Y-84403999D01*
X108940000Y-97815999D02*
X108940000Y-92549999D01*
X108980000Y-89669999D02*
X108980000Y-84377999D01*
X108980000Y-97841999D02*
X108980000Y-92549999D01*
X109020000Y-89669999D02*
X109020000Y-84350999D01*
X109020000Y-97868999D02*
X109020000Y-92549999D01*
X109060000Y-89669999D02*
X109060000Y-84324999D01*
X109060000Y-97894999D02*
X109060000Y-92549999D01*
X109100000Y-89669999D02*
X109100000Y-84299999D01*
X109100000Y-97919999D02*
X109100000Y-92549999D01*
X109140000Y-89669999D02*
X109140000Y-84274999D01*
X109140000Y-97944999D02*
X109140000Y-92549999D01*
X109180000Y-89669999D02*
X109180000Y-84249999D01*
X109180000Y-97969999D02*
X109180000Y-92549999D01*
X109220000Y-89669999D02*
X109220000Y-84224999D01*
X109220000Y-97994999D02*
X109220000Y-92549999D01*
X109260000Y-89669999D02*
X109260000Y-84200999D01*
X109260000Y-98018999D02*
X109260000Y-92549999D01*
X109300000Y-89669999D02*
X109300000Y-84176999D01*
X109300000Y-98042999D02*
X109300000Y-92549999D01*
X109340000Y-89669999D02*
X109340000Y-84152999D01*
X109340000Y-98066999D02*
X109340000Y-92549999D01*
X109380000Y-89669999D02*
X109380000Y-84128999D01*
X109380000Y-98090999D02*
X109380000Y-92549999D01*
X109420000Y-89669999D02*
X109420000Y-84105999D01*
X109420000Y-98113999D02*
X109420000Y-92549999D01*
X109460000Y-89669999D02*
X109460000Y-84083999D01*
X109460000Y-98135999D02*
X109460000Y-92549999D01*
X109500000Y-89669999D02*
X109500000Y-84060999D01*
X109500000Y-98158999D02*
X109500000Y-92549999D01*
X109540000Y-89669999D02*
X109540000Y-84038999D01*
X109540000Y-98180999D02*
X109540000Y-92549999D01*
X109580000Y-89669999D02*
X109580000Y-84016999D01*
X109580000Y-98202999D02*
X109580000Y-92549999D01*
X109620000Y-89669999D02*
X109620000Y-83994999D01*
X109620000Y-98224999D02*
X109620000Y-92549999D01*
X109660000Y-89669999D02*
X109660000Y-83973999D01*
X109660000Y-98245999D02*
X109660000Y-92549999D01*
X109700000Y-89669999D02*
X109700000Y-83952999D01*
X109700000Y-98266999D02*
X109700000Y-92549999D01*
X109740000Y-89669999D02*
X109740000Y-83931999D01*
X109740000Y-98287999D02*
X109740000Y-92549999D01*
X109780000Y-89669999D02*
X109780000Y-83911999D01*
X109780000Y-98307999D02*
X109780000Y-92549999D01*
X109820000Y-89669999D02*
X109820000Y-83891999D01*
X109820000Y-98327999D02*
X109820000Y-92549999D01*
X109860000Y-89669999D02*
X109860000Y-83871999D01*
X109860000Y-98347999D02*
X109860000Y-92549999D01*
X109900000Y-89669999D02*
X109900000Y-83851999D01*
X109900000Y-98367999D02*
X109900000Y-92549999D01*
X109940000Y-89669999D02*
X109940000Y-83832999D01*
X109940000Y-98386999D02*
X109940000Y-92549999D01*
X109980000Y-89669999D02*
X109980000Y-83813999D01*
X109980000Y-98405999D02*
X109980000Y-92549999D01*
X110020000Y-89669999D02*
X110020000Y-83794999D01*
X110020000Y-98424999D02*
X110020000Y-92549999D01*
X110060000Y-89669999D02*
X110060000Y-83775999D01*
X110060000Y-98443999D02*
X110060000Y-92549999D01*
X110100000Y-89669999D02*
X110100000Y-83757999D01*
X110100000Y-98461999D02*
X110100000Y-92549999D01*
X110140000Y-89669999D02*
X110140000Y-83739999D01*
X110140000Y-98479999D02*
X110140000Y-92549999D01*
X110180000Y-89669999D02*
X110180000Y-83721999D01*
X110180000Y-98497999D02*
X110180000Y-92549999D01*
X110220000Y-89669999D02*
X110220000Y-83703999D01*
X110220000Y-98515999D02*
X110220000Y-92549999D01*
X110260000Y-89669999D02*
X110260000Y-83686999D01*
X110260000Y-98532999D02*
X110260000Y-92549999D01*
X110300000Y-89669999D02*
X110300000Y-83669999D01*
X110300000Y-98549999D02*
X110300000Y-92549999D01*
X110340000Y-89669999D02*
X110340000Y-83652999D01*
X110340000Y-98566999D02*
X110340000Y-92549999D01*
X110380000Y-89669999D02*
X110380000Y-83636999D01*
X110380000Y-98582999D02*
X110380000Y-92549999D01*
X110420000Y-89669999D02*
X110420000Y-83620999D01*
X110420000Y-98598999D02*
X110420000Y-92549999D01*
X110460000Y-89669999D02*
X110460000Y-83604999D01*
X110460000Y-98614999D02*
X110460000Y-92549999D01*
X110500000Y-89669999D02*
X110500000Y-83588999D01*
X110500000Y-98630999D02*
X110500000Y-92549999D01*
X110540000Y-89669999D02*
X110540000Y-83572999D01*
X110540000Y-98646999D02*
X110540000Y-92549999D01*
X110580000Y-89669999D02*
X110580000Y-83557999D01*
X110580000Y-98661999D02*
X110580000Y-92549999D01*
X110620000Y-89669999D02*
X110620000Y-83542999D01*
X110620000Y-98676999D02*
X110620000Y-92549999D01*
X110660000Y-89669999D02*
X110660000Y-83527999D01*
X110660000Y-98691999D02*
X110660000Y-92549999D01*
X110700000Y-89669999D02*
X110700000Y-83512999D01*
X110700000Y-98706999D02*
X110700000Y-92549999D01*
X110740000Y-89669999D02*
X110740000Y-83498999D01*
X110740000Y-98720999D02*
X110740000Y-92549999D01*
X110780000Y-89669999D02*
X110780000Y-83484999D01*
X110780000Y-98734999D02*
X110780000Y-92549999D01*
X110820000Y-89669999D02*
X110820000Y-83470999D01*
X110820000Y-98748999D02*
X110820000Y-92549999D01*
X110860000Y-89669999D02*
X110860000Y-83457999D01*
X110860000Y-98761999D02*
X110860000Y-92549999D01*
X110900000Y-89669999D02*
X110900000Y-83443999D01*
X110900000Y-98775999D02*
X110900000Y-92549999D01*
X110940000Y-89669999D02*
X110940000Y-83430999D01*
X110940000Y-98788999D02*
X110940000Y-92549999D01*
X110980000Y-89669999D02*
X110980000Y-83417999D01*
X110980000Y-98801999D02*
X110980000Y-92549999D01*
X111020000Y-89669999D02*
X111020000Y-83404999D01*
X111020000Y-98814999D02*
X111020000Y-92549999D01*
X111060000Y-89669999D02*
X111060000Y-83392999D01*
X111060000Y-98826999D02*
X111060000Y-92549999D01*
X111100000Y-89669999D02*
X111100000Y-83380999D01*
X111100000Y-98838999D02*
X111100000Y-92549999D01*
X111140000Y-89669999D02*
X111140000Y-83367999D01*
X111140000Y-98851999D02*
X111140000Y-92549999D01*
X111180000Y-98862999D02*
X111180000Y-83356999D01*
X111220000Y-98874999D02*
X111220000Y-83344999D01*
X111260000Y-98885999D02*
X111260000Y-83333999D01*
X111300000Y-98896999D02*
X111300000Y-83322999D01*
X111340000Y-98907999D02*
X111340000Y-83311999D01*
X111380000Y-98918999D02*
X111380000Y-83300999D01*
X111420000Y-98929999D02*
X111420000Y-83289999D01*
X111460000Y-98939999D02*
X111460000Y-83279999D01*
X111500000Y-98949999D02*
X111500000Y-83269999D01*
X111540000Y-98959999D02*
X111540000Y-83259999D01*
X111580000Y-98968999D02*
X111580000Y-83250999D01*
X111620000Y-98978999D02*
X111620000Y-83240999D01*
X111660000Y-98987999D02*
X111660000Y-83231999D01*
X111700000Y-98996999D02*
X111700000Y-83222999D01*
X111740000Y-99005999D02*
X111740000Y-83213999D01*
X111780000Y-99013999D02*
X111780000Y-83205999D01*
X111820000Y-99022999D02*
X111820000Y-83196999D01*
X111860000Y-99030999D02*
X111860000Y-83188999D01*
X111900000Y-99038999D02*
X111900000Y-83180999D01*
X111940000Y-99045999D02*
X111940000Y-83173999D01*
X111980000Y-99053999D02*
X111980000Y-83165999D01*
X112020000Y-99060999D02*
X112020000Y-83158999D01*
X112060000Y-99067999D02*
X112060000Y-83151999D01*
X112100000Y-99074999D02*
X112100000Y-83144999D01*
X112140000Y-99081999D02*
X112140000Y-83137999D01*
X112180000Y-99087999D02*
X112180000Y-83131999D01*
X112220000Y-99094999D02*
X112220000Y-83124999D01*
X112260000Y-99100999D02*
X112260000Y-83118999D01*
X112300000Y-99106999D02*
X112300000Y-83112999D01*
X112340000Y-99111999D02*
X112340000Y-83107999D01*
X112380000Y-99117999D02*
X112380000Y-83101999D01*
X112420000Y-99122999D02*
X112420000Y-83096999D01*
X112460000Y-99127999D02*
X112460000Y-83091999D01*
X112500000Y-99132999D02*
X112500000Y-83086999D01*
X112540000Y-99137999D02*
X112540000Y-83081999D01*
X112580000Y-99141999D02*
X112580000Y-83077999D01*
X112620000Y-99145999D02*
X112620000Y-83073999D01*
X112660000Y-99149999D02*
X112660000Y-83069999D01*
X112700000Y-99153999D02*
X112700000Y-83065999D01*
X112740000Y-99157999D02*
X112740000Y-83061999D01*
X112780000Y-99160999D02*
X112780000Y-83058999D01*
X112820000Y-99164999D02*
X112820000Y-83054999D01*
X112860000Y-99167999D02*
X112860000Y-83051999D01*
X112900000Y-99170999D02*
X112900000Y-83048999D01*
X112940000Y-99172999D02*
X112940000Y-83046999D01*
X112980000Y-99175999D02*
X112980000Y-83043999D01*
X113020000Y-99177999D02*
X113020000Y-83041999D01*
X113060000Y-99179999D02*
X113060000Y-83039999D01*
X113100000Y-99181999D02*
X113100000Y-83037999D01*
X113140000Y-99183999D02*
X113140000Y-83035999D01*
X113180000Y-99184999D02*
X113180000Y-83034999D01*
X113220000Y-99185999D02*
X113220000Y-83033999D01*
X113260000Y-99187999D02*
X113260000Y-83031999D01*
X113300000Y-99187999D02*
X113300000Y-83031999D01*
X113340000Y-99188999D02*
X113340000Y-83030999D01*
X113380000Y-99189999D02*
X113380000Y-83029999D01*
X113420000Y-99189999D02*
X113420000Y-83029999D01*
X113460000Y-99189999D02*
X113460000Y-83029999D01*
X121349491Y-96464999D02*
X121349491Y-94864999D01*
X122149491Y-95664999D02*
X120549491Y-95664999D01*
X121580000Y-91109999D02*
G75*
G02*
X105340000Y-91109999I-8120000J0D01*
G01*
X105340000Y-91109999D02*
G75*
G02*
X121580000Y-91109999I8120000J0D01*
G01*
%TD*%
%LPC*%
D11*
%TO.C,C39*%
X117210000Y-109109999D03*
D12*
X109710000Y-109109999D03*
%TD*%
D13*
%TO.C,C42*%
X127210000Y-91109999D03*
D12*
X134710000Y-91109999D03*
%TD*%
D11*
%TO.C,C37*%
X117210000Y-73109999D03*
D12*
X109710000Y-73109999D03*
%TD*%
D13*
%TO.C,C41*%
X127210000Y-73309999D03*
D12*
X134710000Y-73309999D03*
%TD*%
D14*
%TO.C,J2*%
X127345000Y-121329999D03*
D15*
X124805000Y-121329999D03*
X122265000Y-121329999D03*
X119725000Y-121329999D03*
X117185000Y-121329999D03*
%TD*%
D14*
%TO.C,J1*%
X127325000Y-60209999D03*
D15*
X124785000Y-60209999D03*
X122245000Y-60209999D03*
X119705000Y-60209999D03*
X117165000Y-60209999D03*
%TD*%
D13*
%TO.C,C43*%
X127210000Y-109109999D03*
D12*
X134710000Y-109109999D03*
%TD*%
D11*
%TO.C,C38*%
X117210000Y-91109999D03*
D12*
X109710000Y-91109999D03*
%TD*%
%LPD*%
M02*
