%TF.GenerationSoftware,KiCad,Pcbnew,9.0.6*%
%TF.CreationDate,2025-11-30T13:32:29+08:00*%
%TF.ProjectId,boost,626f6f73-742e-46b6-9963-61645f706362,rev?*%
%TF.SameCoordinates,Original*%
%TF.FileFunction,Copper,L2,Bot*%
%TF.FilePolarity,Positive*%
%FSLAX46Y46*%
G04 Gerber Fmt 4.6, Leading zero omitted, Abs format (unit mm)*
G04 Created by KiCad (PCBNEW 9.0.6) date 2025-11-30 13:32:29*
%MOMM*%
%LPD*%
G01*
G04 APERTURE LIST*
G04 Aperture macros list*
%AMRoundRect*
0 Rectangle with rounded corners*
0 $1 Rounding radius*
0 $2 $3 $4 $5 $6 $7 $8 $9 X,Y pos of 4 corners*
0 Add a 4 corners polygon primitive as box body*
4,1,4,$2,$3,$4,$5,$6,$7,$8,$9,$2,$3,0*
0 Add four circle primitives for the rounded corners*
1,1,$1+$1,$2,$3*
1,1,$1+$1,$4,$5*
1,1,$1+$1,$6,$7*
1,1,$1+$1,$8,$9*
0 Add four rect primitives between the rounded corners*
20,1,$1+$1,$2,$3,$4,$5,0*
20,1,$1+$1,$4,$5,$6,$7,0*
20,1,$1+$1,$6,$7,$8,$9,0*
20,1,$1+$1,$8,$9,$2,$3,0*%
G04 Aperture macros list end*
%TA.AperFunction,ComponentPad*%
%ADD10R,1.700000X1.700000*%
%TD*%
%TA.AperFunction,ComponentPad*%
%ADD11O,1.700000X1.700000*%
%TD*%
%TA.AperFunction,ComponentPad*%
%ADD12C,0.800000*%
%TD*%
%TA.AperFunction,ComponentPad*%
%ADD13RoundRect,0.250000X-0.550000X-0.550000X0.550000X-0.550000X0.550000X0.550000X-0.550000X0.550000X0*%
%TD*%
%TA.AperFunction,ComponentPad*%
%ADD14C,1.600000*%
%TD*%
%TA.AperFunction,ComponentPad*%
%ADD15R,2.000000X2.000000*%
%TD*%
%TA.AperFunction,ComponentPad*%
%ADD16C,2.000000*%
%TD*%
%TA.AperFunction,ViaPad*%
%ADD17C,0.700000*%
%TD*%
G04 APERTURE END LIST*
D10*
%TO.P,J2,1,Pin_1*%
%TO.N,unconnected-(J2-Pin_1-Pad1)*%
X-8425000Y-17470001D03*
D11*
%TO.P,J2,2,Pin_2*%
%TO.N,unconnected-(J2-Pin_2-Pad2)*%
X-5885000Y-17470001D03*
%TO.P,J2,3,Pin_3*%
%TO.N,+24V*%
X-3345000Y-17470001D03*
%TO.P,J2,4,Pin_4*%
X-805000Y-17470001D03*
%TO.P,J2,5,Pin_5*%
X1735000Y-17470001D03*
%TO.P,J2,6,Pin_6*%
X4275000Y-17470001D03*
%TO.P,J2,7,Pin_7*%
%TO.N,unconnected-(J2-Pin_7-Pad7)*%
X6815000Y-17470001D03*
%TO.P,J2,8,Pin_8*%
%TO.N,unconnected-(J2-Pin_8-Pad8)*%
X9355000Y-17470001D03*
%TD*%
D12*
%TO.P,U1,6,GND*%
%TO.N,GND*%
X-6690000Y5979999D03*
X-4890000Y5979999D03*
X-3090000Y5979999D03*
X-1290000Y5979999D03*
X510000Y5979999D03*
X2310000Y5979999D03*
X-6690000Y7779999D03*
X-4890000Y7779999D03*
X-3090000Y7779999D03*
X-1290000Y7779999D03*
X510000Y7779999D03*
X2310000Y7779999D03*
X-6690000Y9579999D03*
X-4890000Y9579999D03*
X-3090000Y9579999D03*
X-1290000Y9579999D03*
X510000Y9579999D03*
X2310000Y9579999D03*
X-6690000Y11379999D03*
X-4890000Y11379999D03*
X-3090000Y11379999D03*
X-1290000Y11379999D03*
X510000Y11379999D03*
X2310000Y11379999D03*
X-6690000Y13179999D03*
X-4890000Y13179999D03*
X-3090000Y13179999D03*
X-1290000Y13179999D03*
X510000Y13179999D03*
X2310000Y13179999D03*
%TD*%
D13*
%TO.P,C1,1*%
%TO.N,+12V*%
X6657349Y9979999D03*
D14*
%TO.P,C1,2*%
%TO.N,GND*%
X10157349Y9979999D03*
%TD*%
D15*
%TO.P,D2,1,K*%
%TO.N,+24V*%
X-8730000Y-9470001D03*
D16*
%TO.P,D2,2,A*%
%TO.N,Net-(D2-A)*%
X-3650000Y-9470001D03*
%TD*%
D10*
%TO.P,J1,1,Pin_1*%
%TO.N,+12V*%
X-8425000Y17469999D03*
D11*
%TO.P,J1,2,Pin_2*%
X-5885000Y17469999D03*
%TO.P,J1,3,Pin_3*%
X-3345000Y17469999D03*
%TO.P,J1,4,Pin_4*%
%TO.N,unconnected-(J1-Pin_4-Pad4)*%
X-805000Y17469999D03*
%TO.P,J1,5,Pin_5*%
%TO.N,unconnected-(J1-Pin_5-Pad5)*%
X1735000Y17469999D03*
%TO.P,J1,6,Pin_6*%
%TO.N,GND*%
X4275000Y17469999D03*
%TO.P,J1,7,Pin_7*%
X6815000Y17469999D03*
%TO.P,J1,8,Pin_8*%
X9355000Y17469999D03*
%TD*%
D13*
%TO.P,C36,1*%
%TO.N,+12V*%
X6657349Y1229999D03*
D14*
%TO.P,C36,2*%
%TO.N,GND*%
X10157349Y1229999D03*
%TD*%
D17*
%TO.N,GND*%
X-1415000Y-4520001D03*
X-2190000Y-1120001D03*
X2810000Y-495001D03*
%TD*%
%TA.AperFunction,Conductor*%
%TO.N,GND*%
G36*
X12704041Y19819235D02*
G01*
X12726989Y19817731D01*
X12958114Y19802583D01*
X12974172Y19800468D01*
X13219888Y19751592D01*
X13235554Y19747394D01*
X13386736Y19696075D01*
X13472788Y19666864D01*
X13487765Y19660661D01*
X13705336Y19553367D01*
X13712460Y19549854D01*
X13726507Y19541744D01*
X13767649Y19514254D01*
X13934812Y19402559D01*
X13947676Y19392689D01*
X14006861Y19340785D01*
X14136034Y19227503D01*
X14147503Y19216034D01*
X14302231Y19039601D01*
X14312686Y19027680D01*
X14322560Y19014812D01*
X14461746Y18806505D01*
X14469855Y18792460D01*
X14580536Y18568019D01*
X14580657Y18567775D01*
X14586864Y18552789D01*
X14667394Y18315555D01*
X14671592Y18299889D01*
X14720466Y18054186D01*
X14722584Y18038104D01*
X14739235Y17784059D01*
X14739500Y17775949D01*
X14739500Y-17775932D01*
X14739235Y-17784042D01*
X14722583Y-18038104D01*
X14720465Y-18054185D01*
X14671591Y-18299890D01*
X14667393Y-18315557D01*
X14586866Y-18552783D01*
X14580659Y-18567769D01*
X14469851Y-18792464D01*
X14461741Y-18806511D01*
X14322562Y-19014808D01*
X14312688Y-19027676D01*
X14147503Y-19216034D01*
X14136034Y-19227503D01*
X13947679Y-19392686D01*
X13934811Y-19402560D01*
X13726507Y-19541744D01*
X13712460Y-19549854D01*
X13487772Y-19660658D01*
X13472786Y-19666865D01*
X13235554Y-19747394D01*
X13219888Y-19751592D01*
X12974186Y-19800466D01*
X12958104Y-19802584D01*
X12704057Y-19819235D01*
X12695947Y-19819500D01*
X11613721Y-19819500D01*
X11546682Y-19799815D01*
X11500927Y-19747011D01*
X11490983Y-19677853D01*
X11520008Y-19614297D01*
X11535057Y-19599646D01*
X11573706Y-19567928D01*
X11607918Y-19533717D01*
X11670792Y-19457105D01*
X11697578Y-19417016D01*
X11744288Y-19329626D01*
X11762802Y-19284929D01*
X11791567Y-19190107D01*
X11803403Y-19130607D01*
X11803403Y-19130603D01*
X11803405Y-19130596D01*
X11805363Y-19117389D01*
X11810682Y-19081535D01*
X11813065Y-19057342D01*
X11815500Y-19007790D01*
X11815500Y-11282211D01*
X11813064Y-11232649D01*
X11810681Y-11208461D01*
X11803404Y-11159407D01*
X11791568Y-11099902D01*
X11762799Y-11005065D01*
X11744285Y-10960370D01*
X11732871Y-10939017D01*
X11697585Y-10872999D01*
X11697571Y-10872975D01*
X11670797Y-10832905D01*
X11670784Y-10832887D01*
X11607915Y-10756281D01*
X11573719Y-10722086D01*
X11573714Y-10722081D01*
X11497113Y-10659215D01*
X11495564Y-10658180D01*
X11457021Y-10632426D01*
X11457011Y-10632420D01*
X11369608Y-10585704D01*
X11369607Y-10585703D01*
X11324912Y-10567191D01*
X11230100Y-10538433D01*
X11230097Y-10538432D01*
X11230096Y-10538432D01*
X11170596Y-10526597D01*
X11170591Y-10526596D01*
X11170573Y-10526593D01*
X11121570Y-10519323D01*
X11121511Y-10519316D01*
X11097350Y-10516936D01*
X11084303Y-10516295D01*
X11047789Y-10514501D01*
X11047775Y-10514501D01*
X-2310790Y-10514501D01*
X-2377829Y-10494816D01*
X-2423584Y-10442012D01*
X-2433528Y-10372854D01*
X-2411108Y-10317615D01*
X-2366657Y-10256434D01*
X-2259432Y-10045993D01*
X-2186447Y-9821369D01*
X-2149500Y-9588098D01*
X-2149500Y-9351903D01*
X-2186447Y-9118632D01*
X-2259434Y-8894004D01*
X-2315998Y-8782992D01*
X-2366657Y-8683568D01*
X-2505483Y-8492491D01*
X-2672490Y-8325484D01*
X-2863567Y-8186658D01*
X-3074004Y-8079434D01*
X-3298632Y-8006447D01*
X-3531903Y-7969501D01*
X-3531908Y-7969501D01*
X-3768092Y-7969501D01*
X-3768097Y-7969501D01*
X-4001369Y-8006447D01*
X-4225997Y-8079434D01*
X-4436434Y-8186658D01*
X-4545450Y-8265863D01*
X-4627510Y-8325484D01*
X-4627512Y-8325486D01*
X-4627513Y-8325486D01*
X-4794515Y-8492488D01*
X-4794515Y-8492489D01*
X-4794517Y-8492491D01*
X-4863930Y-8588029D01*
X-4933345Y-8683570D01*
X-4950016Y-8716289D01*
X-4997991Y-8767084D01*
X-5065812Y-8783879D01*
X-5131946Y-8761341D01*
X-5175397Y-8706625D01*
X-5184500Y-8659993D01*
X-5184500Y-5532224D01*
X-5184500Y-5532211D01*
X-5186935Y-5482655D01*
X-5189318Y-5458464D01*
X-5189319Y-5458461D01*
X-5189320Y-5458447D01*
X-5196594Y-5409420D01*
X-5196597Y-5409399D01*
X-5208433Y-5349897D01*
X-5208435Y-5349889D01*
X-5237195Y-5255084D01*
X-5237200Y-5255069D01*
X-5237201Y-5255065D01*
X-5255715Y-5210370D01*
X-5302424Y-5122984D01*
X-5329215Y-5082888D01*
X-5373449Y-5025944D01*
X-5373450Y-5025943D01*
X-5391109Y-5006283D01*
X-5397036Y-4999684D01*
X-5448927Y-4949609D01*
X-5448933Y-4949605D01*
X-5461031Y-4942131D01*
X-5474525Y-4932491D01*
X-5502880Y-4909219D01*
X-5502885Y-4909216D01*
X-5542979Y-4882426D01*
X-5542989Y-4882420D01*
X-5615186Y-4843831D01*
X-5630390Y-4835705D01*
X-5630392Y-4835704D01*
X-5630393Y-4835703D01*
X-5675088Y-4817191D01*
X-5769900Y-4788433D01*
X-5769903Y-4788432D01*
X-5769904Y-4788432D01*
X-5829404Y-4776597D01*
X-5829409Y-4776596D01*
X-5829427Y-4776593D01*
X-5878430Y-4769323D01*
X-5878489Y-4769316D01*
X-5902650Y-4766936D01*
X-5915697Y-4766295D01*
X-5952211Y-4764501D01*
X-11177789Y-4764501D01*
X-11204353Y-4765805D01*
X-11227310Y-4766932D01*
X-11227348Y-4766935D01*
X-11251472Y-4769310D01*
X-11251523Y-4769316D01*
X-11300569Y-4776591D01*
X-11300587Y-4776594D01*
X-11300590Y-4776595D01*
X-11308172Y-4778103D01*
X-11360095Y-4788430D01*
X-11454930Y-4817198D01*
X-11499620Y-4835708D01*
X-11587008Y-4882418D01*
X-11587019Y-4882424D01*
X-11617193Y-4902586D01*
X-11627113Y-4909215D01*
X-11627116Y-4909217D01*
X-11627120Y-4909219D01*
X-11703724Y-4972087D01*
X-11737914Y-5006277D01*
X-11800782Y-5082881D01*
X-11800784Y-5082885D01*
X-11827578Y-5122984D01*
X-11827582Y-5122991D01*
X-11874301Y-5210399D01*
X-11892808Y-5255085D01*
X-11892812Y-5255096D01*
X-11921566Y-5349889D01*
X-11933401Y-5409388D01*
X-11933407Y-5409420D01*
X-11940681Y-5458447D01*
X-11940684Y-5458474D01*
X-11943065Y-5482645D01*
X-11943065Y-5482654D01*
X-11943065Y-5482655D01*
X-11945500Y-5532211D01*
X-11945500Y-18315000D01*
X-11945500Y-19007790D01*
X-11943065Y-19057342D01*
X-11943065Y-19057346D01*
X-11943065Y-19057355D01*
X-11940685Y-19081512D01*
X-11940678Y-19081571D01*
X-11933408Y-19130574D01*
X-11933405Y-19130592D01*
X-11933404Y-19130597D01*
X-11927108Y-19162252D01*
X-11921568Y-19190101D01*
X-11892810Y-19284913D01*
X-11874298Y-19329608D01*
X-11874297Y-19329609D01*
X-11827581Y-19417012D01*
X-11827575Y-19417022D01*
X-11813393Y-19438247D01*
X-11800786Y-19457114D01*
X-11737920Y-19533715D01*
X-11737915Y-19533720D01*
X-11703720Y-19567916D01*
X-11665056Y-19599647D01*
X-11625722Y-19657393D01*
X-11623851Y-19727238D01*
X-11660039Y-19787006D01*
X-11722795Y-19817722D01*
X-11743721Y-19819500D01*
X-12695932Y-19819500D01*
X-12704042Y-19819235D01*
X-12958104Y-19802583D01*
X-12974185Y-19800465D01*
X-13007957Y-19793747D01*
X-13219889Y-19751591D01*
X-13235555Y-19747393D01*
X-13472786Y-19666864D01*
X-13487772Y-19660657D01*
X-13712460Y-19549853D01*
X-13726507Y-19541743D01*
X-13913158Y-19417027D01*
X-13934813Y-19402558D01*
X-13947679Y-19392685D01*
X-14136034Y-19227502D01*
X-14147503Y-19216033D01*
X-14312688Y-19027676D01*
X-14322562Y-19014808D01*
X-14327251Y-19007790D01*
X-14461745Y-18806505D01*
X-14469851Y-18792464D01*
X-14580659Y-18567769D01*
X-14586866Y-18552783D01*
X-14667393Y-18315557D01*
X-14671591Y-18299890D01*
X-14680263Y-18256291D01*
X-14720467Y-18054174D01*
X-14722582Y-18038116D01*
X-14739236Y-17784024D01*
X-14739500Y-17775919D01*
X-14739500Y17775933D01*
X-14739235Y17784042D01*
X-14735181Y17845891D01*
X-14722583Y18038116D01*
X-14720469Y18054170D01*
X-14671591Y18299894D01*
X-14667394Y18315555D01*
X-14604746Y18500109D01*
X-14586863Y18552794D01*
X-14580664Y18567760D01*
X-14506678Y18717789D01*
X-10445500Y18717789D01*
X-10445500Y14492210D01*
X-10443065Y14442654D01*
X-10443065Y14442645D01*
X-10440685Y14418488D01*
X-10440678Y14418429D01*
X-10433408Y14369426D01*
X-10433405Y14369408D01*
X-10421568Y14309899D01*
X-10392810Y14215087D01*
X-10374298Y14170392D01*
X-10374297Y14170391D01*
X-10374296Y14170389D01*
X-10327578Y14082983D01*
X-10300786Y14042886D01*
X-10237920Y13966285D01*
X-10237915Y13966280D01*
X-10203720Y13932084D01*
X-10203715Y13932080D01*
X-10127109Y13869211D01*
X-10127102Y13869207D01*
X-10127096Y13869202D01*
X-10087026Y13842428D01*
X-10087017Y13842423D01*
X-10087014Y13842421D01*
X-9999627Y13795712D01*
X-9977279Y13786455D01*
X-9954939Y13777201D01*
X-9954937Y13777201D01*
X-9954931Y13777198D01*
X-9860103Y13748432D01*
X-9800601Y13736596D01*
X-9791702Y13735276D01*
X-9751553Y13729319D01*
X-9751539Y13729318D01*
X-9751536Y13729317D01*
X-9727345Y13726934D01*
X-9677789Y13724499D01*
X2930500Y13724499D01*
X2997539Y13704814D01*
X3043294Y13652010D01*
X3054500Y13600499D01*
X3054500Y-58529D01*
X3064211Y-157140D01*
X3064213Y-157150D01*
X3073652Y-204603D01*
X3089786Y-257790D01*
X3102420Y-299437D01*
X3137067Y-383084D01*
X3144123Y-406343D01*
X3164915Y-510865D01*
X3166739Y-519635D01*
X3167681Y-523968D01*
X3169691Y-532828D01*
X3169692Y-532830D01*
X3222371Y-666720D01*
X3222373Y-666723D01*
X3222374Y-666726D01*
X3245367Y-707105D01*
X3256945Y-727436D01*
X3345208Y-841058D01*
X3461910Y-925214D01*
X3517998Y-954554D01*
X3519460Y-955420D01*
X3523818Y-957599D01*
X3523821Y-957600D01*
X3523824Y-957602D01*
X3659509Y-1005470D01*
X3699400Y-1013405D01*
X3699407Y-1013406D01*
X3699405Y-1013406D01*
X3714286Y-1015613D01*
X3748464Y-1020683D01*
X3772655Y-1023066D01*
X3822211Y-1025501D01*
X3822225Y-1025501D01*
X8547776Y-1025501D01*
X8547789Y-1025501D01*
X8597349Y-1023066D01*
X8621538Y-1020683D01*
X8670596Y-1013405D01*
X8730100Y-1001569D01*
X8824928Y-972803D01*
X8869625Y-954289D01*
X8957025Y-907572D01*
X8997115Y-880784D01*
X9073706Y-817928D01*
X9107918Y-783717D01*
X9170792Y-707105D01*
X9197578Y-667016D01*
X9244288Y-579626D01*
X9262802Y-534929D01*
X9291567Y-440107D01*
X9303403Y-380607D01*
X9310682Y-331535D01*
X9313065Y-307342D01*
X9315500Y-257790D01*
X9315500Y15717789D01*
X9313064Y15767351D01*
X9310681Y15791539D01*
X9303404Y15840593D01*
X9291568Y15900098D01*
X9262799Y15994935D01*
X9244285Y16039630D01*
X9232871Y16060983D01*
X9197585Y16127001D01*
X9197571Y16127025D01*
X9170797Y16167095D01*
X9170784Y16167113D01*
X9107915Y16243719D01*
X9073719Y16277914D01*
X9073714Y16277919D01*
X8997113Y16340785D01*
X8995564Y16341820D01*
X8957021Y16367574D01*
X8957011Y16367580D01*
X8869608Y16414296D01*
X8869607Y16414297D01*
X8824912Y16432809D01*
X8730100Y16461567D01*
X8730097Y16461568D01*
X8730096Y16461568D01*
X8670596Y16473403D01*
X8670591Y16473404D01*
X8670573Y16473407D01*
X8621570Y16480677D01*
X8621511Y16480684D01*
X8597350Y16483064D01*
X8584303Y16483705D01*
X8547789Y16485499D01*
X8547775Y16485499D01*
X2932393Y16485499D01*
X2865354Y16505184D01*
X2819599Y16557988D01*
X2809655Y16627146D01*
X2832075Y16682384D01*
X2890048Y16762179D01*
X2890047Y16762179D01*
X2890051Y16762183D01*
X2986557Y16951587D01*
X3052246Y17153756D01*
X3085500Y17363712D01*
X3085500Y17576286D01*
X3052246Y17786242D01*
X2986557Y17988411D01*
X2890051Y18177815D01*
X2890049Y18177818D01*
X2890048Y18177820D01*
X2765109Y18349786D01*
X2614786Y18500109D01*
X2442820Y18625048D01*
X2253414Y18721555D01*
X2253413Y18721556D01*
X2253412Y18721556D01*
X2051243Y18787245D01*
X2051241Y18787246D01*
X2051240Y18787246D01*
X1889957Y18812791D01*
X1841287Y18820499D01*
X1628713Y18820499D01*
X1580042Y18812791D01*
X1418760Y18787246D01*
X1216585Y18721555D01*
X1027179Y18625048D01*
X855213Y18500109D01*
X704890Y18349786D01*
X579949Y18177817D01*
X575484Y18169053D01*
X527509Y18118257D01*
X459688Y18101463D01*
X393553Y18124001D01*
X354516Y18169053D01*
X350050Y18177817D01*
X225109Y18349786D01*
X74786Y18500109D01*
X-97180Y18625048D01*
X-286586Y18721555D01*
X-286587Y18721556D01*
X-286588Y18721556D01*
X-488757Y18787245D01*
X-488759Y18787246D01*
X-488760Y18787246D01*
X-650043Y18812791D01*
X-698713Y18820499D01*
X-911287Y18820499D01*
X-950798Y18814242D01*
X-1121241Y18787246D01*
X-1284627Y18734158D01*
X-1354468Y18732163D01*
X-1414301Y18768243D01*
X-1445129Y18830944D01*
X-1445592Y18833822D01*
X-1446597Y18840601D01*
X-1458433Y18900103D01*
X-1458435Y18900111D01*
X-1487195Y18994916D01*
X-1487200Y18994931D01*
X-1487201Y18994935D01*
X-1505715Y19039630D01*
X-1552424Y19127016D01*
X-1570285Y19153747D01*
X-1579214Y19167111D01*
X-1623449Y19224056D01*
X-1623450Y19224057D01*
X-1641109Y19243717D01*
X-1647036Y19250316D01*
X-1698927Y19300391D01*
X-1698933Y19300395D01*
X-1711031Y19307869D01*
X-1724525Y19317509D01*
X-1752880Y19340781D01*
X-1752885Y19340784D01*
X-1792979Y19367574D01*
X-1792989Y19367580D01*
X-1865186Y19406169D01*
X-1880390Y19414295D01*
X-1880392Y19414296D01*
X-1880393Y19414297D01*
X-1925088Y19432809D01*
X-2019900Y19461567D01*
X-2019903Y19461568D01*
X-2019904Y19461568D01*
X-2079404Y19473403D01*
X-2079409Y19473404D01*
X-2079427Y19473407D01*
X-2128430Y19480677D01*
X-2128489Y19480684D01*
X-2152650Y19483064D01*
X-2165697Y19483705D01*
X-2202211Y19485499D01*
X-9677789Y19485499D01*
X-9704353Y19484195D01*
X-9727310Y19483068D01*
X-9727348Y19483065D01*
X-9751472Y19480690D01*
X-9751523Y19480684D01*
X-9800569Y19473409D01*
X-9800587Y19473406D01*
X-9800590Y19473405D01*
X-9808172Y19471897D01*
X-9860095Y19461570D01*
X-9954930Y19432802D01*
X-9999620Y19414292D01*
X-10087008Y19367582D01*
X-10087019Y19367576D01*
X-10117193Y19347414D01*
X-10127113Y19340785D01*
X-10127116Y19340783D01*
X-10127120Y19340781D01*
X-10203724Y19277913D01*
X-10237914Y19243723D01*
X-10300782Y19167119D01*
X-10300784Y19167116D01*
X-10300785Y19167114D01*
X-10309636Y19153869D01*
X-10327578Y19127016D01*
X-10327582Y19127009D01*
X-10374301Y19039601D01*
X-10392808Y18994915D01*
X-10392812Y18994904D01*
X-10421566Y18900111D01*
X-10433401Y18840612D01*
X-10433407Y18840580D01*
X-10440681Y18791553D01*
X-10440684Y18791526D01*
X-10443065Y18767355D01*
X-10443065Y18767346D01*
X-10443065Y18767345D01*
X-10445500Y18717789D01*
X-14506678Y18717789D01*
X-14469851Y18792466D01*
X-14461745Y18806505D01*
X-14322552Y19014823D01*
X-14312695Y19027669D01*
X-14147498Y19216040D01*
X-14136040Y19227498D01*
X-13947670Y19392694D01*
X-13934824Y19402551D01*
X-13726502Y19541747D01*
X-13712467Y19549850D01*
X-13487762Y19660662D01*
X-13472791Y19666863D01*
X-13235548Y19747396D01*
X-13219901Y19751589D01*
X-12974172Y19800467D01*
X-12958118Y19802582D01*
X-12704024Y19819236D01*
X-12695920Y19819500D01*
X-12634107Y19819500D01*
X12634107Y19819500D01*
X12695932Y19819500D01*
X12704041Y19819235D01*
G37*
%TD.AperFunction*%
%TD*%
%TA.AperFunction,Conductor*%
%TO.N,+12V*%
G36*
X-2178020Y18977616D02*
G01*
X-2118520Y18965781D01*
X-2073825Y18947269D01*
X-2033728Y18920477D01*
X-2027836Y18914585D01*
X-2023104Y18912525D01*
X-1999524Y18886273D01*
X-1972733Y18846177D01*
X-1954219Y18801482D01*
X-1950458Y18782572D01*
X-1942383Y18741980D01*
X-1940000Y18717789D01*
X-1940000Y18245507D01*
X-1957862Y18182167D01*
X-1957839Y18182155D01*
X-1957898Y18182040D01*
X-1958269Y18180723D01*
X-1960049Y18177820D01*
X-2056556Y17988414D01*
X-2122247Y17786239D01*
X-2155500Y17576286D01*
X-2155500Y17363713D01*
X-2122247Y17153760D01*
X-2056556Y16951585D01*
X-1960052Y16762184D01*
X-1958273Y16759282D01*
X-1957902Y16757965D01*
X-1957839Y16757842D01*
X-1957864Y16757830D01*
X-1940000Y16694491D01*
X-1940000Y15979999D01*
X8547789Y15979999D01*
X8571980Y15977616D01*
X8631480Y15965781D01*
X8676175Y15947269D01*
X8716272Y15920477D01*
X8750477Y15886272D01*
X8777267Y15846177D01*
X8795781Y15801482D01*
X8807617Y15741977D01*
X8810000Y15717789D01*
X8810000Y-257790D01*
X8807617Y-281983D01*
X8795781Y-341483D01*
X8777267Y-386180D01*
X8750481Y-426269D01*
X8716269Y-460480D01*
X8691102Y-477297D01*
X8676179Y-487268D01*
X8631482Y-505782D01*
X8611872Y-509683D01*
X8571978Y-517618D01*
X8547789Y-520001D01*
X6560000Y-520001D01*
X3822211Y-520001D01*
X3798020Y-517618D01*
X3784527Y-514934D01*
X3758129Y-509683D01*
X3696218Y-477297D01*
X3661644Y-416581D01*
X3660704Y-412257D01*
X3642047Y-318465D01*
X3627816Y-246919D01*
X3569439Y-105985D01*
X3560000Y-58532D01*
X3560000Y14229999D01*
X3310000Y14229999D01*
X-9677789Y14229999D01*
X-9701980Y14232382D01*
X-9716811Y14235332D01*
X-9761482Y14244218D01*
X-9806178Y14262732D01*
X-9846273Y14289522D01*
X-9880478Y14323727D01*
X-9907270Y14363824D01*
X-9925782Y14408519D01*
X-9937617Y14468019D01*
X-9940000Y14492210D01*
X-9940000Y18717789D01*
X-9937617Y18741980D01*
X-9925781Y18801482D01*
X-9907271Y18846173D01*
X-9880476Y18886275D01*
X-9846276Y18920475D01*
X-9806174Y18947270D01*
X-9761486Y18965780D01*
X-9701972Y18977618D01*
X-9677789Y18979999D01*
X-2202211Y18979999D01*
X-2178020Y18977616D01*
G37*
%TD.AperFunction*%
%TD*%
%TA.AperFunction,Conductor*%
%TO.N,+24V*%
G36*
X-5928020Y-5272384D02*
G01*
X-5868520Y-5284219D01*
X-5823825Y-5302731D01*
X-5783728Y-5329523D01*
X-5777836Y-5335415D01*
X-5773104Y-5337475D01*
X-5749524Y-5363727D01*
X-5722733Y-5403823D01*
X-5704219Y-5448518D01*
X-5700458Y-5467428D01*
X-5692383Y-5508020D01*
X-5690000Y-5532211D01*
X-5690000Y-11020001D01*
X11047789Y-11020001D01*
X11071980Y-11022384D01*
X11131480Y-11034219D01*
X11176175Y-11052731D01*
X11216272Y-11079523D01*
X11250477Y-11113728D01*
X11277267Y-11153823D01*
X11295781Y-11198518D01*
X11307617Y-11258023D01*
X11310000Y-11282211D01*
X11310000Y-19007790D01*
X11307617Y-19031981D01*
X11307617Y-19031983D01*
X11295781Y-19091483D01*
X11277267Y-19136180D01*
X11250481Y-19176269D01*
X11216269Y-19210480D01*
X11181975Y-19233395D01*
X11176179Y-19237268D01*
X11131482Y-19255782D01*
X11097857Y-19262470D01*
X11071978Y-19267618D01*
X11047789Y-19270001D01*
X-11177789Y-19270001D01*
X-11201980Y-19267618D01*
X-11216811Y-19264668D01*
X-11261482Y-19255782D01*
X-11306178Y-19237268D01*
X-11346273Y-19210478D01*
X-11380478Y-19176273D01*
X-11407270Y-19136176D01*
X-11425782Y-19091481D01*
X-11437617Y-19031981D01*
X-11440000Y-19007790D01*
X-11440000Y-16572136D01*
X-9775500Y-16572136D01*
X-9775500Y-18367871D01*
X-9775499Y-18367877D01*
X-9769092Y-18427484D01*
X-9718798Y-18562329D01*
X-9718794Y-18562336D01*
X-9632548Y-18677545D01*
X-9632545Y-18677548D01*
X-9517336Y-18763794D01*
X-9517329Y-18763798D01*
X-9382483Y-18814092D01*
X-9382484Y-18814092D01*
X-9375556Y-18814836D01*
X-9322873Y-18820501D01*
X-7527128Y-18820500D01*
X-7467517Y-18814092D01*
X-7332669Y-18763797D01*
X-7217454Y-18677547D01*
X-7131204Y-18562332D01*
X-7082190Y-18430917D01*
X-7040319Y-18374985D01*
X-6974855Y-18350567D01*
X-6906582Y-18365418D01*
X-6878327Y-18386570D01*
X-6764787Y-18500110D01*
X-6592821Y-18625049D01*
X-6592819Y-18625050D01*
X-6592816Y-18625052D01*
X-6403412Y-18721558D01*
X-6201243Y-18787247D01*
X-5991287Y-18820501D01*
X-5991286Y-18820501D01*
X-5778714Y-18820501D01*
X-5778713Y-18820501D01*
X-5568757Y-18787247D01*
X-5366588Y-18721558D01*
X-5177184Y-18625052D01*
X-5090862Y-18562336D01*
X-5005214Y-18500110D01*
X-5005212Y-18500107D01*
X-5005208Y-18500105D01*
X-4854896Y-18349793D01*
X-4854894Y-18349789D01*
X-4854891Y-18349787D01*
X-4729952Y-18177821D01*
X-4729953Y-18177821D01*
X-4729949Y-18177817D01*
X-4633443Y-17988413D01*
X-4567754Y-17786244D01*
X-4534500Y-17576288D01*
X-4534500Y-17363714D01*
X5464500Y-17363714D01*
X5464500Y-17576287D01*
X5497753Y-17786240D01*
X5563444Y-17988415D01*
X5659951Y-18177821D01*
X5784890Y-18349787D01*
X5935213Y-18500110D01*
X6107179Y-18625049D01*
X6107181Y-18625050D01*
X6107184Y-18625052D01*
X6296588Y-18721558D01*
X6498757Y-18787247D01*
X6708713Y-18820501D01*
X6708714Y-18820501D01*
X6921286Y-18820501D01*
X6921287Y-18820501D01*
X7131243Y-18787247D01*
X7333412Y-18721558D01*
X7522816Y-18625052D01*
X7609138Y-18562336D01*
X7694786Y-18500110D01*
X7694788Y-18500107D01*
X7694792Y-18500105D01*
X7845104Y-18349793D01*
X7845106Y-18349789D01*
X7845109Y-18349787D01*
X7970048Y-18177821D01*
X7970047Y-18177821D01*
X7970051Y-18177817D01*
X7974514Y-18169055D01*
X8022488Y-18118260D01*
X8090308Y-18101464D01*
X8156444Y-18124000D01*
X8195486Y-18169057D01*
X8199951Y-18177821D01*
X8324890Y-18349787D01*
X8475213Y-18500110D01*
X8647179Y-18625049D01*
X8647181Y-18625050D01*
X8647184Y-18625052D01*
X8836588Y-18721558D01*
X9038757Y-18787247D01*
X9248713Y-18820501D01*
X9248714Y-18820501D01*
X9461286Y-18820501D01*
X9461287Y-18820501D01*
X9671243Y-18787247D01*
X9873412Y-18721558D01*
X10062816Y-18625052D01*
X10149138Y-18562336D01*
X10234786Y-18500110D01*
X10234788Y-18500107D01*
X10234792Y-18500105D01*
X10385104Y-18349793D01*
X10385106Y-18349789D01*
X10385109Y-18349787D01*
X10510048Y-18177821D01*
X10510047Y-18177821D01*
X10510051Y-18177817D01*
X10606557Y-17988413D01*
X10672246Y-17786244D01*
X10705500Y-17576288D01*
X10705500Y-17363714D01*
X10672246Y-17153758D01*
X10606557Y-16951589D01*
X10510051Y-16762185D01*
X10510049Y-16762182D01*
X10510048Y-16762180D01*
X10385109Y-16590214D01*
X10234786Y-16439891D01*
X10062820Y-16314952D01*
X9873414Y-16218445D01*
X9873413Y-16218444D01*
X9873412Y-16218444D01*
X9671243Y-16152755D01*
X9671241Y-16152754D01*
X9671240Y-16152754D01*
X9509957Y-16127209D01*
X9461287Y-16119501D01*
X9248713Y-16119501D01*
X9200042Y-16127209D01*
X9038760Y-16152754D01*
X8836585Y-16218445D01*
X8647179Y-16314952D01*
X8475213Y-16439891D01*
X8324890Y-16590214D01*
X8199949Y-16762183D01*
X8195484Y-16770947D01*
X8147509Y-16821743D01*
X8079688Y-16838537D01*
X8013553Y-16815999D01*
X7974516Y-16770947D01*
X7970050Y-16762183D01*
X7845109Y-16590214D01*
X7694786Y-16439891D01*
X7522820Y-16314952D01*
X7333414Y-16218445D01*
X7333413Y-16218444D01*
X7333412Y-16218444D01*
X7131243Y-16152755D01*
X7131241Y-16152754D01*
X7131240Y-16152754D01*
X6969957Y-16127209D01*
X6921287Y-16119501D01*
X6708713Y-16119501D01*
X6660042Y-16127209D01*
X6498760Y-16152754D01*
X6296585Y-16218445D01*
X6107179Y-16314952D01*
X5935213Y-16439891D01*
X5784890Y-16590214D01*
X5659951Y-16762180D01*
X5563444Y-16951586D01*
X5497753Y-17153761D01*
X5464500Y-17363714D01*
X-4534500Y-17363714D01*
X-4567754Y-17153758D01*
X-4633443Y-16951589D01*
X-4729949Y-16762185D01*
X-4729951Y-16762182D01*
X-4729952Y-16762180D01*
X-4854891Y-16590214D01*
X-5005214Y-16439891D01*
X-5177180Y-16314952D01*
X-5366586Y-16218445D01*
X-5366587Y-16218444D01*
X-5366588Y-16218444D01*
X-5568757Y-16152755D01*
X-5568759Y-16152754D01*
X-5568760Y-16152754D01*
X-5730043Y-16127209D01*
X-5778713Y-16119501D01*
X-5991287Y-16119501D01*
X-6039958Y-16127209D01*
X-6201240Y-16152754D01*
X-6403415Y-16218445D01*
X-6592821Y-16314952D01*
X-6764785Y-16439890D01*
X-6878327Y-16553432D01*
X-6939650Y-16586916D01*
X-7009342Y-16581932D01*
X-7065275Y-16540060D01*
X-7082190Y-16509083D01*
X-7131203Y-16377672D01*
X-7131207Y-16377665D01*
X-7217453Y-16262456D01*
X-7217456Y-16262453D01*
X-7332665Y-16176207D01*
X-7332672Y-16176203D01*
X-7467518Y-16125909D01*
X-7467517Y-16125909D01*
X-7527117Y-16119502D01*
X-7527119Y-16119501D01*
X-7527127Y-16119501D01*
X-7527136Y-16119501D01*
X-9322871Y-16119501D01*
X-9322877Y-16119502D01*
X-9382484Y-16125909D01*
X-9517329Y-16176203D01*
X-9517336Y-16176207D01*
X-9632545Y-16262453D01*
X-9632548Y-16262456D01*
X-9718794Y-16377665D01*
X-9718798Y-16377672D01*
X-9769092Y-16512518D01*
X-9775499Y-16572117D01*
X-9775500Y-16572136D01*
X-11440000Y-16572136D01*
X-11440000Y-5532211D01*
X-11437617Y-5508020D01*
X-11425781Y-5448518D01*
X-11407271Y-5403827D01*
X-11380476Y-5363725D01*
X-11346276Y-5329525D01*
X-11306174Y-5302730D01*
X-11261486Y-5284220D01*
X-11201972Y-5272382D01*
X-11177789Y-5270001D01*
X-5952211Y-5270001D01*
X-5928020Y-5272384D01*
G37*
%TD.AperFunction*%
%TD*%
M02*
