%TF.GenerationSoftware,KiCad,Pcbnew,9.0.6*%
%TF.CreationDate,2025-11-30T13:32:29+08:00*%
%TF.ProjectId,boost,626f6f73-742e-46b6-9963-61645f706362,rev?*%
%TF.SameCoordinates,Original*%
%TF.FileFunction,Soldermask,Bot*%
%TF.FilePolarity,Negative*%
%FSLAX46Y46*%
G04 Gerber Fmt 4.6, Leading zero omitted, Abs format (unit mm)*
G04 Created by KiCad (PCBNEW 9.0.6) date 2025-11-30 13:32:29*
%MOMM*%
%LPD*%
G01*
G04 APERTURE LIST*
G04 Aperture macros list*
%AMRoundRect*
0 Rectangle with rounded corners*
0 $1 Rounding radius*
0 $2 $3 $4 $5 $6 $7 $8 $9 X,Y pos of 4 corners*
0 Add a 4 corners polygon primitive as box body*
4,1,4,$2,$3,$4,$5,$6,$7,$8,$9,$2,$3,0*
0 Add four circle primitives for the rounded corners*
1,1,$1+$1,$2,$3*
1,1,$1+$1,$4,$5*
1,1,$1+$1,$6,$7*
1,1,$1+$1,$8,$9*
0 Add four rect primitives between the rounded corners*
20,1,$1+$1,$2,$3,$4,$5,0*
20,1,$1+$1,$4,$5,$6,$7,0*
20,1,$1+$1,$6,$7,$8,$9,0*
20,1,$1+$1,$8,$9,$2,$3,0*%
G04 Aperture macros list end*
%ADD10R,1.700000X1.700000*%
%ADD11O,1.700000X1.700000*%
%ADD12C,0.800000*%
%ADD13RoundRect,0.250000X-0.550000X-0.550000X0.550000X-0.550000X0.550000X0.550000X-0.550000X0.550000X0*%
%ADD14C,1.600000*%
%ADD15R,2.000000X2.000000*%
%ADD16C,2.000000*%
G04 APERTURE END LIST*
D10*
%TO.C,J2*%
X-8425000Y-17470001D03*
D11*
X-5885000Y-17470001D03*
X-3345000Y-17470001D03*
X-805000Y-17470001D03*
X1735000Y-17470001D03*
X4275000Y-17470001D03*
X6815000Y-17470001D03*
X9355000Y-17470001D03*
%TD*%
D12*
%TO.C,U1*%
X-6690000Y5979999D03*
X-4890000Y5979999D03*
X-3090000Y5979999D03*
X-1290000Y5979999D03*
X510000Y5979999D03*
X2310000Y5979999D03*
X-6690000Y7779999D03*
X-4890000Y7779999D03*
X-3090000Y7779999D03*
X-1290000Y7779999D03*
X510000Y7779999D03*
X2310000Y7779999D03*
X-6690000Y9579999D03*
X-4890000Y9579999D03*
X-3090000Y9579999D03*
X-1290000Y9579999D03*
X510000Y9579999D03*
X2310000Y9579999D03*
X-6690000Y11379999D03*
X-4890000Y11379999D03*
X-3090000Y11379999D03*
X-1290000Y11379999D03*
X510000Y11379999D03*
X2310000Y11379999D03*
X-6690000Y13179999D03*
X-4890000Y13179999D03*
X-3090000Y13179999D03*
X-1290000Y13179999D03*
X510000Y13179999D03*
X2310000Y13179999D03*
%TD*%
D13*
%TO.C,C1*%
X6657349Y9979999D03*
D14*
X10157349Y9979999D03*
%TD*%
D15*
%TO.C,D2*%
X-8730000Y-9470001D03*
D16*
X-3650000Y-9470001D03*
%TD*%
D10*
%TO.C,J1*%
X-8425000Y17469999D03*
D11*
X-5885000Y17469999D03*
X-3345000Y17469999D03*
X-805000Y17469999D03*
X1735000Y17469999D03*
X4275000Y17469999D03*
X6815000Y17469999D03*
X9355000Y17469999D03*
%TD*%
D13*
%TO.C,C36*%
X6657349Y1229999D03*
D14*
X10157349Y1229999D03*
%TD*%
M02*
