%TF.GenerationSoftware,KiCad,Pcbnew,9.0.6*%
%TF.CreationDate,2025-11-30T13:32:29+08:00*%
%TF.ProjectId,boost,626f6f73-742e-46b6-9963-61645f706362,rev?*%
%TF.SameCoordinates,Original*%
%TF.FileFunction,Legend,Top*%
%TF.FilePolarity,Positive*%
%FSLAX46Y46*%
G04 Gerber Fmt 4.6, Leading zero omitted, Abs format (unit mm)*
G04 Created by KiCad (PCBNEW 9.0.6) date 2025-11-30 13:32:29*
%MOMM*%
%LPD*%
G01*
G04 APERTURE LIST*
G04 Aperture macros list*
%AMRoundRect*
0 Rectangle with rounded corners*
0 $1 Rounding radius*
0 $2 $3 $4 $5 $6 $7 $8 $9 X,Y pos of 4 corners*
0 Add a 4 corners polygon primitive as box body*
4,1,4,$2,$3,$4,$5,$6,$7,$8,$9,$2,$3,0*
0 Add four circle primitives for the rounded corners*
1,1,$1+$1,$2,$3*
1,1,$1+$1,$4,$5*
1,1,$1+$1,$6,$7*
1,1,$1+$1,$8,$9*
0 Add four rect primitives between the rounded corners*
20,1,$1+$1,$2,$3,$4,$5,0*
20,1,$1+$1,$4,$5,$6,$7,0*
20,1,$1+$1,$6,$7,$8,$9,0*
20,1,$1+$1,$8,$9,$2,$3,0*%
G04 Aperture macros list end*
%ADD10C,0.120000*%
%ADD11C,0.127000*%
%ADD12C,0.200000*%
%ADD13C,0.100000*%
%ADD14C,0.010000*%
%ADD15RoundRect,0.225000X-0.225000X-0.250000X0.225000X-0.250000X0.225000X0.250000X-0.225000X0.250000X0*%
%ADD16R,1.700000X1.700000*%
%ADD17O,1.700000X1.700000*%
%ADD18C,0.800000*%
%ADD19R,1.200000X1.200000*%
%ADD20R,1.600000X1.500000*%
%ADD21RoundRect,0.250000X-0.550000X-0.550000X0.550000X-0.550000X0.550000X0.550000X-0.550000X0.550000X0*%
%ADD22C,1.600000*%
%ADD23RoundRect,0.225000X0.225000X0.250000X-0.225000X0.250000X-0.225000X-0.250000X0.225000X-0.250000X0*%
%ADD24R,2.000000X2.000000*%
%ADD25C,2.000000*%
%ADD26RoundRect,0.225000X0.250000X-0.225000X0.250000X0.225000X-0.250000X0.225000X-0.250000X-0.225000X0*%
%ADD27RoundRect,0.250002X1.799998X1.799998X-1.799998X1.799998X-1.799998X-1.799998X1.799998X-1.799998X0*%
G04 APERTURE END LIST*
D10*
%TO.C,C40*%
X-2330580Y-4010001D02*
X-2049420Y-4010001D01*
X-2330580Y-5030001D02*
X-2049420Y-5030001D01*
%TO.C,J2*%
X-9755000Y-18800001D02*
X-9755000Y-17470001D01*
X-8425000Y-18800001D02*
X-9755000Y-18800001D01*
X-7155000Y-16140001D02*
X10685000Y-16140001D01*
X-7155000Y-18800001D02*
X-7155000Y-16140001D01*
X-7155000Y-18800001D02*
X10685000Y-18800001D01*
X10685000Y-18800001D02*
X10685000Y-16140001D01*
D11*
%TO.C,U1*%
X-7270000Y4859999D02*
X-7270000Y2574999D01*
X-7270000Y2574999D02*
X2890000Y2574999D01*
X2890000Y2574999D02*
X2890000Y4859999D01*
D12*
X-6590000Y1979999D02*
G75*
G02*
X-6790000Y1979999I-100000J0D01*
G01*
X-6790000Y1979999D02*
G75*
G02*
X-6590000Y1979999I100000J0D01*
G01*
%TO.C,VR1*%
X-11190000Y479999D02*
X-11190000Y-2070001D01*
X-10890000Y479999D02*
X-11190000Y479999D01*
D13*
X-10690000Y-4170001D02*
X-10690000Y-4170001D01*
X-10690000Y-4270001D02*
X-10690000Y-4270001D01*
D12*
X-8490000Y479999D02*
X-8190000Y479999D01*
X-8190000Y479999D02*
X-8190000Y-2070001D01*
D13*
X-10690000Y-4170001D02*
G75*
G02*
X-10690000Y-4270001I0J-50000D01*
G01*
X-10690000Y-4270001D02*
G75*
G02*
X-10690000Y-4170001I0J50000D01*
G01*
D10*
%TO.C,R38*%
X-5305580Y-4010001D02*
X-5024420Y-4010001D01*
X-5305580Y-5030001D02*
X-5024420Y-5030001D01*
%TO.C,C1*%
X3997651Y12294999D02*
X4797651Y12294999D01*
X4397651Y12694999D02*
X4397651Y11894999D01*
X8407349Y14059999D02*
X8407349Y5899999D01*
X8447349Y14059999D02*
X8447349Y5899999D01*
X8487349Y14058999D02*
X8487349Y5900999D01*
X8527349Y14057999D02*
X8527349Y5901999D01*
X8567349Y14056999D02*
X8567349Y5902999D01*
X8607349Y14054999D02*
X8607349Y5904999D01*
X8647349Y14052999D02*
X8647349Y5906999D01*
X8687349Y14049999D02*
X8687349Y5909999D01*
X8727349Y14047999D02*
X8727349Y5911999D01*
X8767349Y14043999D02*
X8767349Y5915999D01*
X8807349Y14040999D02*
X8807349Y5918999D01*
X8847349Y14035999D02*
X8847349Y5923999D01*
X8887349Y14031999D02*
X8887349Y5927999D01*
X8927349Y14026999D02*
X8927349Y5932999D01*
X8967349Y14021999D02*
X8967349Y5937999D01*
X9007349Y14015999D02*
X9007349Y5943999D01*
X9047349Y14009999D02*
X9047349Y5949999D01*
X9087349Y14002999D02*
X9087349Y5956999D01*
X9127349Y13996999D02*
X9127349Y11019999D01*
X9127349Y8939999D02*
X9127349Y5962999D01*
X9167349Y13988999D02*
X9167349Y11019999D01*
X9167349Y8939999D02*
X9167349Y5970999D01*
X9207349Y13981999D02*
X9207349Y11019999D01*
X9207349Y8939999D02*
X9207349Y5977999D01*
X9247349Y13972999D02*
X9247349Y11019999D01*
X9247349Y8939999D02*
X9247349Y5986999D01*
X9287349Y13964999D02*
X9287349Y11019999D01*
X9287349Y8939999D02*
X9287349Y5994999D01*
X9327349Y13955999D02*
X9327349Y11019999D01*
X9327349Y8939999D02*
X9327349Y6003999D01*
X9367349Y13946999D02*
X9367349Y11019999D01*
X9367349Y8939999D02*
X9367349Y6012999D01*
X9407349Y13936999D02*
X9407349Y11019999D01*
X9407349Y8939999D02*
X9407349Y6022999D01*
X9447349Y13926999D02*
X9447349Y11019999D01*
X9447349Y8939999D02*
X9447349Y6032999D01*
X9487349Y13915999D02*
X9487349Y11019999D01*
X9487349Y8939999D02*
X9487349Y6043999D01*
X9527349Y13904999D02*
X9527349Y11019999D01*
X9527349Y8939999D02*
X9527349Y6054999D01*
X9567349Y13892999D02*
X9567349Y11019999D01*
X9567349Y8939999D02*
X9567349Y6066999D01*
X9607349Y13880999D02*
X9607349Y11019999D01*
X9607349Y8939999D02*
X9607349Y6078999D01*
X9647349Y13868999D02*
X9647349Y11019999D01*
X9647349Y8939999D02*
X9647349Y6090999D01*
X9687349Y13855999D02*
X9687349Y11019999D01*
X9687349Y8939999D02*
X9687349Y6103999D01*
X9727349Y13842999D02*
X9727349Y11019999D01*
X9727349Y8939999D02*
X9727349Y6116999D01*
X9767349Y13828999D02*
X9767349Y11019999D01*
X9767349Y8939999D02*
X9767349Y6130999D01*
X9807349Y13814999D02*
X9807349Y11019999D01*
X9807349Y8939999D02*
X9807349Y6144999D01*
X9847349Y13799999D02*
X9847349Y11019999D01*
X9847349Y8939999D02*
X9847349Y6159999D01*
X9887349Y13784999D02*
X9887349Y11019999D01*
X9887349Y8939999D02*
X9887349Y6174999D01*
X9927349Y13768999D02*
X9927349Y11019999D01*
X9927349Y8939999D02*
X9927349Y6190999D01*
X9967349Y13752999D02*
X9967349Y11019999D01*
X9967349Y8939999D02*
X9967349Y6206999D01*
X10007349Y13736999D02*
X10007349Y11019999D01*
X10007349Y8939999D02*
X10007349Y6222999D01*
X10047349Y13719999D02*
X10047349Y11019999D01*
X10047349Y8939999D02*
X10047349Y6239999D01*
X10087349Y13701999D02*
X10087349Y11019999D01*
X10087349Y8939999D02*
X10087349Y6257999D01*
X10127349Y13683999D02*
X10127349Y11019999D01*
X10127349Y8939999D02*
X10127349Y6275999D01*
X10167349Y13664999D02*
X10167349Y11019999D01*
X10167349Y8939999D02*
X10167349Y6294999D01*
X10207349Y13645999D02*
X10207349Y11019999D01*
X10207349Y8939999D02*
X10207349Y6313999D01*
X10247349Y13625999D02*
X10247349Y11019999D01*
X10247349Y8939999D02*
X10247349Y6333999D01*
X10287349Y13605999D02*
X10287349Y11019999D01*
X10287349Y8939999D02*
X10287349Y6353999D01*
X10327349Y13584999D02*
X10327349Y11019999D01*
X10327349Y8939999D02*
X10327349Y6374999D01*
X10367349Y13563999D02*
X10367349Y11019999D01*
X10367349Y8939999D02*
X10367349Y6395999D01*
X10407349Y13541999D02*
X10407349Y11019999D01*
X10407349Y8939999D02*
X10407349Y6417999D01*
X10447349Y13518999D02*
X10447349Y11019999D01*
X10447349Y8939999D02*
X10447349Y6440999D01*
X10487349Y13495999D02*
X10487349Y11019999D01*
X10487349Y8939999D02*
X10487349Y6463999D01*
X10527349Y13472999D02*
X10527349Y11019999D01*
X10527349Y8939999D02*
X10527349Y6486999D01*
X10567349Y13447999D02*
X10567349Y11019999D01*
X10567349Y8939999D02*
X10567349Y6511999D01*
X10607349Y13422999D02*
X10607349Y11019999D01*
X10607349Y8939999D02*
X10607349Y6536999D01*
X10647349Y13397999D02*
X10647349Y11019999D01*
X10647349Y8939999D02*
X10647349Y6561999D01*
X10687349Y13371999D02*
X10687349Y11019999D01*
X10687349Y8939999D02*
X10687349Y6587999D01*
X10727349Y13344999D02*
X10727349Y11019999D01*
X10727349Y8939999D02*
X10727349Y6614999D01*
X10767349Y13316999D02*
X10767349Y11019999D01*
X10767349Y8939999D02*
X10767349Y6642999D01*
X10807349Y13288999D02*
X10807349Y11019999D01*
X10807349Y8939999D02*
X10807349Y6670999D01*
X10847349Y13259999D02*
X10847349Y11019999D01*
X10847349Y8939999D02*
X10847349Y6699999D01*
X10887349Y13229999D02*
X10887349Y11019999D01*
X10887349Y8939999D02*
X10887349Y6729999D01*
X10927349Y13198999D02*
X10927349Y11019999D01*
X10927349Y8939999D02*
X10927349Y6760999D01*
X10967349Y13167999D02*
X10967349Y11019999D01*
X10967349Y8939999D02*
X10967349Y6791999D01*
X11007349Y13135999D02*
X11007349Y11019999D01*
X11007349Y8939999D02*
X11007349Y6823999D01*
X11047349Y13102999D02*
X11047349Y11019999D01*
X11047349Y8939999D02*
X11047349Y6856999D01*
X11087349Y13068999D02*
X11087349Y11019999D01*
X11087349Y8939999D02*
X11087349Y6890999D01*
X11127349Y13034999D02*
X11127349Y11019999D01*
X11127349Y8939999D02*
X11127349Y6924999D01*
X11167349Y12998999D02*
X11167349Y11019999D01*
X11167349Y8939999D02*
X11167349Y6960999D01*
X11207349Y12961999D02*
X11207349Y6997999D01*
X11247349Y12924999D02*
X11247349Y7034999D01*
X11287349Y12885999D02*
X11287349Y7073999D01*
X11327349Y12846999D02*
X11327349Y7112999D01*
X11367349Y12805999D02*
X11367349Y7153999D01*
X11407349Y12763999D02*
X11407349Y7195999D01*
X11447349Y12720999D02*
X11447349Y7238999D01*
X11487349Y12675999D02*
X11487349Y7283999D01*
X11527349Y12630999D02*
X11527349Y7328999D01*
X11567349Y12583999D02*
X11567349Y7375999D01*
X11607349Y12534999D02*
X11607349Y7424999D01*
X11647349Y12484999D02*
X11647349Y7474999D01*
X11687349Y12432999D02*
X11687349Y7526999D01*
X11727349Y12379999D02*
X11727349Y7579999D01*
X11767349Y12323999D02*
X11767349Y7635999D01*
X11807349Y12266999D02*
X11807349Y7692999D01*
X11847349Y12206999D02*
X11847349Y7752999D01*
X11887349Y12144999D02*
X11887349Y7814999D01*
X11927349Y12080999D02*
X11927349Y7878999D01*
X11967349Y12013999D02*
X11967349Y7945999D01*
X12007349Y11943999D02*
X12007349Y8015999D01*
X12047349Y11869999D02*
X12047349Y8089999D01*
X12087349Y11792999D02*
X12087349Y8166999D01*
X12127349Y11710999D02*
X12127349Y8248999D01*
X12167349Y11623999D02*
X12167349Y8335999D01*
X12207349Y11531999D02*
X12207349Y8427999D01*
X12247349Y11432999D02*
X12247349Y8526999D01*
X12287349Y11325999D02*
X12287349Y8633999D01*
X12327349Y11207999D02*
X12327349Y8751999D01*
X12367349Y11076999D02*
X12367349Y8882999D01*
X12407349Y10926999D02*
X12407349Y9032999D01*
X12447349Y10747999D02*
X12447349Y9211999D01*
X12487349Y10512999D02*
X12487349Y9446999D01*
X12527349Y9979999D02*
G75*
G02*
X4287349Y9979999I-4120000J0D01*
G01*
X4287349Y9979999D02*
G75*
G02*
X12527349Y9979999I4120000J0D01*
G01*
%TO.C,R36*%
X-9549420Y3489999D02*
X-9830580Y3489999D01*
X-9549420Y2469999D02*
X-9830580Y2469999D01*
%TO.C,D2*%
X-11300000Y-6210001D02*
X-1080000Y-6210001D01*
X-11300000Y-7590001D02*
X-1080000Y-7590001D01*
X-11300000Y-10830001D02*
X-11300000Y-6210001D01*
X-8040000Y-6210001D02*
X-8040000Y-7590001D01*
X-4340000Y-6210001D02*
X-4340000Y-7590001D01*
X-1080000Y-6210001D02*
X-1080000Y-10830001D01*
X-1080000Y-10830001D02*
X-11300000Y-10830001D01*
%TO.C,J1*%
X-9755000Y16139999D02*
X-9755000Y17469999D01*
X-8425000Y16139999D02*
X-9755000Y16139999D01*
X-7155000Y18799999D02*
X10685000Y18799999D01*
X-7155000Y16139999D02*
X-7155000Y18799999D01*
X-7155000Y16139999D02*
X10685000Y16139999D01*
X10685000Y16139999D02*
X10685000Y18799999D01*
%TO.C,C36*%
X3997651Y3544999D02*
X4797651Y3544999D01*
X4397651Y3944999D02*
X4397651Y3144999D01*
X8407349Y5309999D02*
X8407349Y-2850001D01*
X8447349Y5309999D02*
X8447349Y-2850001D01*
X8487349Y5308999D02*
X8487349Y-2849001D01*
X8527349Y5307999D02*
X8527349Y-2848001D01*
X8567349Y5306999D02*
X8567349Y-2847001D01*
X8607349Y5304999D02*
X8607349Y-2845001D01*
X8647349Y5302999D02*
X8647349Y-2843001D01*
X8687349Y5299999D02*
X8687349Y-2840001D01*
X8727349Y5297999D02*
X8727349Y-2838001D01*
X8767349Y5293999D02*
X8767349Y-2834001D01*
X8807349Y5290999D02*
X8807349Y-2831001D01*
X8847349Y5285999D02*
X8847349Y-2826001D01*
X8887349Y5281999D02*
X8887349Y-2822001D01*
X8927349Y5276999D02*
X8927349Y-2817001D01*
X8967349Y5271999D02*
X8967349Y-2812001D01*
X9007349Y5265999D02*
X9007349Y-2806001D01*
X9047349Y5259999D02*
X9047349Y-2800001D01*
X9087349Y5252999D02*
X9087349Y-2793001D01*
X9127349Y5246999D02*
X9127349Y2269999D01*
X9127349Y189999D02*
X9127349Y-2787001D01*
X9167349Y5238999D02*
X9167349Y2269999D01*
X9167349Y189999D02*
X9167349Y-2779001D01*
X9207349Y5231999D02*
X9207349Y2269999D01*
X9207349Y189999D02*
X9207349Y-2772001D01*
X9247349Y5222999D02*
X9247349Y2269999D01*
X9247349Y189999D02*
X9247349Y-2763001D01*
X9287349Y5214999D02*
X9287349Y2269999D01*
X9287349Y189999D02*
X9287349Y-2755001D01*
X9327349Y5205999D02*
X9327349Y2269999D01*
X9327349Y189999D02*
X9327349Y-2746001D01*
X9367349Y5196999D02*
X9367349Y2269999D01*
X9367349Y189999D02*
X9367349Y-2737001D01*
X9407349Y5186999D02*
X9407349Y2269999D01*
X9407349Y189999D02*
X9407349Y-2727001D01*
X9447349Y5176999D02*
X9447349Y2269999D01*
X9447349Y189999D02*
X9447349Y-2717001D01*
X9487349Y5165999D02*
X9487349Y2269999D01*
X9487349Y189999D02*
X9487349Y-2706001D01*
X9527349Y5154999D02*
X9527349Y2269999D01*
X9527349Y189999D02*
X9527349Y-2695001D01*
X9567349Y5142999D02*
X9567349Y2269999D01*
X9567349Y189999D02*
X9567349Y-2683001D01*
X9607349Y5130999D02*
X9607349Y2269999D01*
X9607349Y189999D02*
X9607349Y-2671001D01*
X9647349Y5118999D02*
X9647349Y2269999D01*
X9647349Y189999D02*
X9647349Y-2659001D01*
X9687349Y5105999D02*
X9687349Y2269999D01*
X9687349Y189999D02*
X9687349Y-2646001D01*
X9727349Y5092999D02*
X9727349Y2269999D01*
X9727349Y189999D02*
X9727349Y-2633001D01*
X9767349Y5078999D02*
X9767349Y2269999D01*
X9767349Y189999D02*
X9767349Y-2619001D01*
X9807349Y5064999D02*
X9807349Y2269999D01*
X9807349Y189999D02*
X9807349Y-2605001D01*
X9847349Y5049999D02*
X9847349Y2269999D01*
X9847349Y189999D02*
X9847349Y-2590001D01*
X9887349Y5034999D02*
X9887349Y2269999D01*
X9887349Y189999D02*
X9887349Y-2575001D01*
X9927349Y5018999D02*
X9927349Y2269999D01*
X9927349Y189999D02*
X9927349Y-2559001D01*
X9967349Y5002999D02*
X9967349Y2269999D01*
X9967349Y189999D02*
X9967349Y-2543001D01*
X10007349Y4986999D02*
X10007349Y2269999D01*
X10007349Y189999D02*
X10007349Y-2527001D01*
X10047349Y4969999D02*
X10047349Y2269999D01*
X10047349Y189999D02*
X10047349Y-2510001D01*
X10087349Y4951999D02*
X10087349Y2269999D01*
X10087349Y189999D02*
X10087349Y-2492001D01*
X10127349Y4933999D02*
X10127349Y2269999D01*
X10127349Y189999D02*
X10127349Y-2474001D01*
X10167349Y4914999D02*
X10167349Y2269999D01*
X10167349Y189999D02*
X10167349Y-2455001D01*
X10207349Y4895999D02*
X10207349Y2269999D01*
X10207349Y189999D02*
X10207349Y-2436001D01*
X10247349Y4875999D02*
X10247349Y2269999D01*
X10247349Y189999D02*
X10247349Y-2416001D01*
X10287349Y4855999D02*
X10287349Y2269999D01*
X10287349Y189999D02*
X10287349Y-2396001D01*
X10327349Y4834999D02*
X10327349Y2269999D01*
X10327349Y189999D02*
X10327349Y-2375001D01*
X10367349Y4813999D02*
X10367349Y2269999D01*
X10367349Y189999D02*
X10367349Y-2354001D01*
X10407349Y4791999D02*
X10407349Y2269999D01*
X10407349Y189999D02*
X10407349Y-2332001D01*
X10447349Y4768999D02*
X10447349Y2269999D01*
X10447349Y189999D02*
X10447349Y-2309001D01*
X10487349Y4745999D02*
X10487349Y2269999D01*
X10487349Y189999D02*
X10487349Y-2286001D01*
X10527349Y4722999D02*
X10527349Y2269999D01*
X10527349Y189999D02*
X10527349Y-2263001D01*
X10567349Y4697999D02*
X10567349Y2269999D01*
X10567349Y189999D02*
X10567349Y-2238001D01*
X10607349Y4672999D02*
X10607349Y2269999D01*
X10607349Y189999D02*
X10607349Y-2213001D01*
X10647349Y4647999D02*
X10647349Y2269999D01*
X10647349Y189999D02*
X10647349Y-2188001D01*
X10687349Y4621999D02*
X10687349Y2269999D01*
X10687349Y189999D02*
X10687349Y-2162001D01*
X10727349Y4594999D02*
X10727349Y2269999D01*
X10727349Y189999D02*
X10727349Y-2135001D01*
X10767349Y4566999D02*
X10767349Y2269999D01*
X10767349Y189999D02*
X10767349Y-2107001D01*
X10807349Y4538999D02*
X10807349Y2269999D01*
X10807349Y189999D02*
X10807349Y-2079001D01*
X10847349Y4509999D02*
X10847349Y2269999D01*
X10847349Y189999D02*
X10847349Y-2050001D01*
X10887349Y4479999D02*
X10887349Y2269999D01*
X10887349Y189999D02*
X10887349Y-2020001D01*
X10927349Y4448999D02*
X10927349Y2269999D01*
X10927349Y189999D02*
X10927349Y-1989001D01*
X10967349Y4417999D02*
X10967349Y2269999D01*
X10967349Y189999D02*
X10967349Y-1958001D01*
X11007349Y4385999D02*
X11007349Y2269999D01*
X11007349Y189999D02*
X11007349Y-1926001D01*
X11047349Y4352999D02*
X11047349Y2269999D01*
X11047349Y189999D02*
X11047349Y-1893001D01*
X11087349Y4318999D02*
X11087349Y2269999D01*
X11087349Y189999D02*
X11087349Y-1859001D01*
X11127349Y4284999D02*
X11127349Y2269999D01*
X11127349Y189999D02*
X11127349Y-1825001D01*
X11167349Y4248999D02*
X11167349Y2269999D01*
X11167349Y189999D02*
X11167349Y-1789001D01*
X11207349Y4211999D02*
X11207349Y-1752001D01*
X11247349Y4174999D02*
X11247349Y-1715001D01*
X11287349Y4135999D02*
X11287349Y-1676001D01*
X11327349Y4096999D02*
X11327349Y-1637001D01*
X11367349Y4055999D02*
X11367349Y-1596001D01*
X11407349Y4013999D02*
X11407349Y-1554001D01*
X11447349Y3970999D02*
X11447349Y-1511001D01*
X11487349Y3925999D02*
X11487349Y-1466001D01*
X11527349Y3880999D02*
X11527349Y-1421001D01*
X11567349Y3833999D02*
X11567349Y-1374001D01*
X11607349Y3784999D02*
X11607349Y-1325001D01*
X11647349Y3734999D02*
X11647349Y-1275001D01*
X11687349Y3682999D02*
X11687349Y-1223001D01*
X11727349Y3629999D02*
X11727349Y-1170001D01*
X11767349Y3573999D02*
X11767349Y-1114001D01*
X11807349Y3516999D02*
X11807349Y-1057001D01*
X11847349Y3456999D02*
X11847349Y-997001D01*
X11887349Y3394999D02*
X11887349Y-935001D01*
X11927349Y3330999D02*
X11927349Y-871001D01*
X11967349Y3263999D02*
X11967349Y-804001D01*
X12007349Y3193999D02*
X12007349Y-734001D01*
X12047349Y3119999D02*
X12047349Y-660001D01*
X12087349Y3042999D02*
X12087349Y-583001D01*
X12127349Y2960999D02*
X12127349Y-501001D01*
X12167349Y2873999D02*
X12167349Y-414001D01*
X12207349Y2781999D02*
X12207349Y-322001D01*
X12247349Y2682999D02*
X12247349Y-223001D01*
X12287349Y2575999D02*
X12287349Y-116001D01*
X12327349Y2457999D02*
X12327349Y1999D01*
X12367349Y2326999D02*
X12367349Y132999D01*
X12407349Y2176999D02*
X12407349Y282999D01*
X12447349Y1997999D02*
X12447349Y461999D01*
X12487349Y1762999D02*
X12487349Y696999D01*
X12527349Y1229999D02*
G75*
G02*
X4287349Y1229999I-4120000J0D01*
G01*
X4287349Y1229999D02*
G75*
G02*
X12527349Y1229999I4120000J0D01*
G01*
%TO.C,C35*%
X2300000Y-1410581D02*
X2300000Y-1129421D01*
X3320000Y-1410581D02*
X3320000Y-1129421D01*
%TO.C,L33*%
X1050000Y-3410001D02*
X12070000Y-3410001D01*
X1050000Y-6210001D02*
X1050000Y-3410001D01*
X1050000Y-13630001D02*
X1050000Y-10830001D01*
X12070000Y-3410001D02*
X12070000Y-6210001D01*
X12070000Y-10830001D02*
X12070000Y-13630001D01*
X12070000Y-13630001D02*
X1050000Y-13630001D01*
%TD*%
%LPC*%
D14*
%TO.C,U1*%
X3230000Y5109999D02*
X-7610000Y5109999D01*
X-7610000Y13849999D01*
X3230000Y13849999D01*
X3230000Y5109999D01*
G36*
X3230000Y5109999D02*
G01*
X-7610000Y5109999D01*
X-7610000Y13849999D01*
X3230000Y13849999D01*
X3230000Y5109999D01*
G37*
X-5020000Y-2890001D02*
X-6160000Y-2890001D01*
X-6160000Y649999D01*
X-5020000Y649999D01*
X-5020000Y-2890001D01*
G36*
X-5020000Y-2890001D02*
G01*
X-6160000Y-2890001D01*
X-6160000Y649999D01*
X-5020000Y649999D01*
X-5020000Y-2890001D01*
G37*
X-3320000Y-2890001D02*
X-4460000Y-2890001D01*
X-4460000Y649999D01*
X-3320000Y649999D01*
X-3320000Y-2890001D01*
G36*
X-3320000Y-2890001D02*
G01*
X-4460000Y-2890001D01*
X-4460000Y649999D01*
X-3320000Y649999D01*
X-3320000Y-2890001D01*
G37*
X-1620000Y-2890001D02*
X-2760000Y-2890001D01*
X-2760000Y649999D01*
X-1620000Y649999D01*
X-1620000Y-2890001D01*
G36*
X-1620000Y-2890001D02*
G01*
X-2760000Y-2890001D01*
X-2760000Y649999D01*
X-1620000Y649999D01*
X-1620000Y-2890001D01*
G37*
X80000Y-2890001D02*
X-1060000Y-2890001D01*
X-1060000Y649999D01*
X80000Y649999D01*
X80000Y-2890001D01*
G36*
X80000Y-2890001D02*
G01*
X-1060000Y-2890001D01*
X-1060000Y649999D01*
X80000Y649999D01*
X80000Y-2890001D01*
G37*
X1780000Y-2890001D02*
X640000Y-2890001D01*
X640000Y649999D01*
X1780000Y649999D01*
X1780000Y-2890001D01*
G36*
X1780000Y-2890001D02*
G01*
X640000Y-2890001D01*
X640000Y649999D01*
X1780000Y649999D01*
X1780000Y-2890001D01*
G37*
%TD*%
D15*
%TO.C,C40*%
X-2965000Y-4520001D03*
X-1415000Y-4520001D03*
%TD*%
D16*
%TO.C,J2*%
X-8425000Y-17470001D03*
D17*
X-5885000Y-17470001D03*
X-3345000Y-17470001D03*
X-805000Y-17470001D03*
X1735000Y-17470001D03*
X4275000Y-17470001D03*
X6815000Y-17470001D03*
X9355000Y-17470001D03*
%TD*%
D18*
%TO.C,U1*%
X-6690000Y5979999D03*
X-4890000Y5979999D03*
X-3090000Y5979999D03*
X-1290000Y5979999D03*
X510000Y5979999D03*
X2310000Y5979999D03*
X-6690000Y7779999D03*
X-4890000Y7779999D03*
X-3090000Y7779999D03*
X-1290000Y7779999D03*
X510000Y7779999D03*
X2310000Y7779999D03*
X-6690000Y9579999D03*
X-4890000Y9579999D03*
X-3090000Y9579999D03*
X-1290000Y9579999D03*
X510000Y9579999D03*
X2310000Y9579999D03*
X-6690000Y11379999D03*
X-4890000Y11379999D03*
X-3090000Y11379999D03*
X-1290000Y11379999D03*
X510000Y11379999D03*
X2310000Y11379999D03*
X-6690000Y13179999D03*
X-4890000Y13179999D03*
X-3090000Y13179999D03*
X-1290000Y13179999D03*
X510000Y13179999D03*
X2310000Y13179999D03*
%TD*%
D19*
%TO.C,VR1*%
X-10690000Y-3070001D03*
D20*
X-9690000Y179999D03*
D19*
X-8690000Y-3070001D03*
%TD*%
D15*
%TO.C,R38*%
X-5940000Y-4520001D03*
X-4390000Y-4520001D03*
%TD*%
D21*
%TO.C,C1*%
X6657349Y9979999D03*
D22*
X10157349Y9979999D03*
%TD*%
D23*
%TO.C,R36*%
X-8915000Y2979999D03*
X-10465000Y2979999D03*
%TD*%
D24*
%TO.C,D2*%
X-8730000Y-9470001D03*
D25*
X-3650000Y-9470001D03*
%TD*%
D16*
%TO.C,J1*%
X-8425000Y17469999D03*
D17*
X-5885000Y17469999D03*
X-3345000Y17469999D03*
X-805000Y17469999D03*
X1735000Y17469999D03*
X4275000Y17469999D03*
X6815000Y17469999D03*
X9355000Y17469999D03*
%TD*%
D21*
%TO.C,C36*%
X6657349Y1229999D03*
D22*
X10157349Y1229999D03*
%TD*%
D26*
%TO.C,C35*%
X2810000Y-2045001D03*
X2810000Y-495001D03*
%TD*%
D27*
%TO.C,L33*%
X11310000Y-8520001D03*
X1810000Y-8520001D03*
%TD*%
%LPD*%
M02*
