M48
; DRILL file {KiCad 9.0.6} date 2025-11-30T13:32:29+0800
; FORMAT={-:-/ absolute / inch / decimal}
; #@! TF.CreationDate,2025-11-30T13:32:29+08:00
; #@! TF.GenerationSoftware,Kicad,Pcbnew,9.0.6
; #@! TF.FileFunction,Plated,1,2,PTH
FMAT,2
INCH
; #@! TA.AperFunction,Plated,PTH,ViaDrill
T1C0.0118
; #@! TA.AperFunction,Plated,PTH,ComponentDrill
T2C0.0118
; #@! TA.AperFunction,Plated,PTH,ComponentDrill
T3C0.0315
; #@! TA.AperFunction,Plated,PTH,ComponentDrill
T4C0.0394
; #@! TA.AperFunction,Plated,PTH,ComponentDrill
T5C0.0433
%
G90
G05
T1
X-0.0862Y-0.0441
X-0.0557Y-0.178
X0.1106Y-0.0195
T2
X-0.2634Y0.5189
X-0.2634Y0.448
X-0.2634Y0.3772
X-0.2634Y0.3063
X-0.2634Y0.2354
X-0.1925Y0.5189
X-0.1925Y0.448
X-0.1925Y0.3772
X-0.1925Y0.3063
X-0.1925Y0.2354
X-0.1217Y0.5189
X-0.1217Y0.448
X-0.1217Y0.3772
X-0.1217Y0.3063
X-0.1217Y0.2354
X-0.0508Y0.5189
X-0.0508Y0.448
X-0.0508Y0.3772
X-0.0508Y0.3063
X-0.0508Y0.2354
X0.0201Y0.5189
X0.0201Y0.448
X0.0201Y0.3772
X0.0201Y0.3063
X0.0201Y0.2354
X0.0909Y0.5189
X0.0909Y0.448
X0.0909Y0.3772
X0.0909Y0.3063
X0.0909Y0.2354
T3
X0.2621Y0.3929
X0.2621Y0.0484
X0.3999Y0.3929
X0.3999Y0.0484
T4
X-0.3317Y0.6878
X-0.3317Y-0.6878
X-0.2317Y0.6878
X-0.2317Y-0.6878
X-0.1317Y0.6878
X-0.1317Y-0.6878
X-0.0317Y0.6878
X-0.0317Y-0.6878
X0.0683Y0.6878
X0.0683Y-0.6878
X0.1683Y0.6878
X0.1683Y-0.6878
X0.2683Y0.6878
X0.2683Y-0.6878
X0.3683Y0.6878
X0.3683Y-0.6878
T5
X-0.3437Y-0.3728
X-0.1437Y-0.3728
M30
