%TF.GenerationSoftware,KiCad,Pcbnew,9.0.5*%
%TF.CreationDate,2025-12-02T20:43:54+08:00*%
%TF.ProjectId,boost,626f6f73-742e-46b6-9963-61645f706362,rev?*%
%TF.SameCoordinates,Original*%
%TF.FileFunction,Copper,L1,Top*%
%TF.FilePolarity,Positive*%
%FSLAX46Y46*%
G04 Gerber Fmt 4.6, Leading zero omitted, Abs format (unit mm)*
G04 Created by KiCad (PCBNEW 9.0.5) date 2025-12-02 20:43:54*
%MOMM*%
%LPD*%
G01*
G04 APERTURE LIST*
G04 Aperture macros list*
%AMRoundRect*
0 Rectangle with rounded corners*
0 $1 Rounding radius*
0 $2 $3 $4 $5 $6 $7 $8 $9 X,Y pos of 4 corners*
0 Add a 4 corners polygon primitive as box body*
4,1,4,$2,$3,$4,$5,$6,$7,$8,$9,$2,$3,0*
0 Add four circle primitives for the rounded corners*
1,1,$1+$1,$2,$3*
1,1,$1+$1,$4,$5*
1,1,$1+$1,$6,$7*
1,1,$1+$1,$8,$9*
0 Add four rect primitives between the rounded corners*
20,1,$1+$1,$2,$3,$4,$5,0*
20,1,$1+$1,$4,$5,$6,$7,0*
20,1,$1+$1,$6,$7,$8,$9,0*
20,1,$1+$1,$8,$9,$2,$3,0*%
G04 Aperture macros list end*
%TA.AperFunction,SMDPad,CuDef*%
%ADD10RoundRect,0.225000X-0.225000X-0.250000X0.225000X-0.250000X0.225000X0.250000X-0.225000X0.250000X0*%
%TD*%
%TA.AperFunction,ComponentPad*%
%ADD11R,1.700000X1.700000*%
%TD*%
%TA.AperFunction,ComponentPad*%
%ADD12O,1.700000X1.700000*%
%TD*%
%TA.AperFunction,SMDPad,CuDef*%
%ADD13R,1.000000X3.400000*%
%TD*%
%TA.AperFunction,ComponentPad*%
%ADD14C,0.800000*%
%TD*%
%TA.AperFunction,SMDPad,CuDef*%
%ADD15R,10.700000X8.600000*%
%TD*%
%TA.AperFunction,SMDPad,CuDef*%
%ADD16R,1.200000X1.200000*%
%TD*%
%TA.AperFunction,SMDPad,CuDef*%
%ADD17R,1.600000X1.500000*%
%TD*%
%TA.AperFunction,ComponentPad*%
%ADD18RoundRect,0.250000X-0.550000X-0.550000X0.550000X-0.550000X0.550000X0.550000X-0.550000X0.550000X0*%
%TD*%
%TA.AperFunction,ComponentPad*%
%ADD19C,1.600000*%
%TD*%
%TA.AperFunction,SMDPad,CuDef*%
%ADD20RoundRect,0.225000X0.225000X0.250000X-0.225000X0.250000X-0.225000X-0.250000X0.225000X-0.250000X0*%
%TD*%
%TA.AperFunction,ComponentPad*%
%ADD21R,2.000000X2.000000*%
%TD*%
%TA.AperFunction,ComponentPad*%
%ADD22C,2.000000*%
%TD*%
%TA.AperFunction,SMDPad,CuDef*%
%ADD23RoundRect,0.225000X0.250000X-0.225000X0.250000X0.225000X-0.250000X0.225000X-0.250000X-0.225000X0*%
%TD*%
%TA.AperFunction,SMDPad,CuDef*%
%ADD24RoundRect,0.250002X1.799998X1.799998X-1.799998X1.799998X-1.799998X-1.799998X1.799998X-1.799998X0*%
%TD*%
%TA.AperFunction,ViaPad*%
%ADD25C,0.700000*%
%TD*%
%TA.AperFunction,Conductor*%
%ADD26C,0.500000*%
%TD*%
G04 APERTURE END LIST*
D10*
%TO.P,C40,1*%
%TO.N,Net-(C40-Pad1)*%
X-2965000Y-4520001D03*
%TO.P,C40,2*%
%TO.N,GND*%
X-1415000Y-4520001D03*
%TD*%
D11*
%TO.P,J2,1,Pin_1*%
%TO.N,unconnected-(J2-Pin_1-Pad1)*%
X-8425000Y-17470001D03*
D12*
%TO.P,J2,2,Pin_2*%
%TO.N,unconnected-(J2-Pin_2-Pad2)*%
X-5885000Y-17470001D03*
%TO.P,J2,3,Pin_3*%
%TO.N,+24V*%
X-3345000Y-17470001D03*
%TO.P,J2,4,Pin_4*%
X-805000Y-17470001D03*
%TO.P,J2,5,Pin_5*%
X1735000Y-17470001D03*
%TO.P,J2,6,Pin_6*%
X4275000Y-17470001D03*
%TO.P,J2,7,Pin_7*%
%TO.N,unconnected-(J2-Pin_7-Pad7)*%
X6815000Y-17470001D03*
%TO.P,J2,8,Pin_8*%
%TO.N,unconnected-(J2-Pin_8-Pad8)*%
X9355000Y-17470001D03*
%TD*%
D13*
%TO.P,U1,1,COMP*%
%TO.N,Net-(U1-COMP)*%
X-5590000Y-1120001D03*
%TO.P,U1,2,FB*%
%TO.N,Net-(U1-FB)*%
X-3890000Y-1120001D03*
%TO.P,U1,3,GND*%
%TO.N,GND*%
X-2190000Y-1120001D03*
%TO.P,U1,4,SW*%
%TO.N,Net-(D2-A)*%
X-490000Y-1120001D03*
%TO.P,U1,5,VIN*%
%TO.N,+12V*%
X1210000Y-1120001D03*
D14*
%TO.P,U1,6,GND*%
%TO.N,GND*%
X-6690000Y5979999D03*
X-4890000Y5979999D03*
X-3090000Y5979999D03*
X-1290000Y5979999D03*
X510000Y5979999D03*
X2310000Y5979999D03*
X-6690000Y7779999D03*
X-4890000Y7779999D03*
X-3090000Y7779999D03*
X-1290000Y7779999D03*
X510000Y7779999D03*
X2310000Y7779999D03*
D15*
X-2190000Y9479999D03*
D14*
X-6690000Y9579999D03*
X-4890000Y9579999D03*
X-3090000Y9579999D03*
X-1290000Y9579999D03*
X510000Y9579999D03*
X2310000Y9579999D03*
X-6690000Y11379999D03*
X-4890000Y11379999D03*
X-3090000Y11379999D03*
X-1290000Y11379999D03*
X510000Y11379999D03*
X2310000Y11379999D03*
X-6690000Y13179999D03*
X-4890000Y13179999D03*
X-3090000Y13179999D03*
X-1290000Y13179999D03*
X510000Y13179999D03*
X2310000Y13179999D03*
%TD*%
D16*
%TO.P,VR1,1,1*%
%TO.N,Net-(U1-FB)*%
X-10690000Y-3070001D03*
D17*
%TO.P,VR1,2,2*%
X-9690000Y179999D03*
D16*
%TO.P,VR1,3,3*%
%TO.N,+24V*%
X-8690000Y-3070001D03*
%TD*%
D10*
%TO.P,R38,1*%
%TO.N,Net-(U1-COMP)*%
X-5940000Y-4520001D03*
%TO.P,R38,2*%
%TO.N,Net-(C40-Pad1)*%
X-4390000Y-4520001D03*
%TD*%
D18*
%TO.P,C1,1*%
%TO.N,+12V*%
X6657349Y9979999D03*
D19*
%TO.P,C1,2*%
%TO.N,GND*%
X10157349Y9979999D03*
%TD*%
D20*
%TO.P,R36,1*%
%TO.N,Net-(U1-FB)*%
X-8915000Y2979999D03*
%TO.P,R36,2*%
%TO.N,GND*%
X-10465000Y2979999D03*
%TD*%
D21*
%TO.P,D2,1,K*%
%TO.N,+24V*%
X-8730000Y-9470001D03*
D22*
%TO.P,D2,2,A*%
%TO.N,Net-(D2-A)*%
X-3650000Y-9470001D03*
%TD*%
D11*
%TO.P,J1,1,Pin_1*%
%TO.N,+12V*%
X-8425000Y17469999D03*
D12*
%TO.P,J1,2,Pin_2*%
X-5885000Y17469999D03*
%TO.P,J1,3,Pin_3*%
X-3345000Y17469999D03*
%TO.P,J1,4,Pin_4*%
%TO.N,unconnected-(J1-Pin_4-Pad4)*%
X-805000Y17469999D03*
%TO.P,J1,5,Pin_5*%
%TO.N,unconnected-(J1-Pin_5-Pad5)*%
X1735000Y17469999D03*
%TO.P,J1,6,Pin_6*%
%TO.N,GND*%
X4275000Y17469999D03*
%TO.P,J1,7,Pin_7*%
X6815000Y17469999D03*
%TO.P,J1,8,Pin_8*%
X9355000Y17469999D03*
%TD*%
D18*
%TO.P,C36,1*%
%TO.N,+12V*%
X6657349Y1229999D03*
D19*
%TO.P,C36,2*%
%TO.N,GND*%
X10157349Y1229999D03*
%TD*%
D23*
%TO.P,C35,1*%
%TO.N,+12V*%
X2810000Y-2045001D03*
%TO.P,C35,2*%
%TO.N,GND*%
X2810000Y-495001D03*
%TD*%
D24*
%TO.P,L33,1,1*%
%TO.N,+12V*%
X11310000Y-8520001D03*
%TO.P,L33,2,2*%
%TO.N,Net-(D2-A)*%
X1810000Y-8520001D03*
%TD*%
D25*
%TO.N,GND*%
X-1415000Y-4520001D03*
X-2190000Y-1120001D03*
X2810000Y-495001D03*
%TD*%
D26*
%TO.N,Net-(C40-Pad1)*%
X-4390000Y-4520001D02*
X-2965000Y-4520001D01*
%TO.N,+24V*%
X-8690000Y-3070001D02*
X-8690000Y-9430001D01*
%TO.N,Net-(U1-FB)*%
X-3890000Y-1120001D02*
X-3890000Y1429999D01*
X-9690000Y179999D02*
X-9690000Y-2070001D01*
X-3890000Y1429999D02*
X-4190000Y1729999D01*
X-8915000Y2504999D02*
X-8915000Y2979999D01*
X-9690000Y-2070001D02*
X-10690000Y-3070001D01*
X-4190000Y1729999D02*
X-8140000Y1729999D01*
X-8140000Y1729999D02*
X-8915000Y2504999D01*
X-8140000Y1729999D02*
X-9690000Y179999D01*
%TO.N,Net-(U1-COMP)*%
X-5590000Y-4170001D02*
X-5940000Y-4520001D01*
X-5590000Y-1120001D02*
X-5590000Y-4170001D01*
%TD*%
%TA.AperFunction,Conductor*%
%TO.N,Net-(U1-COMP)*%
G36*
X-5340000Y-3320001D02*
G01*
X-5336094Y-3182917D01*
X-5308750Y-3017593D01*
X-5278965Y-2941355D01*
X-5234531Y-2878473D01*
X-5172520Y-2835753D01*
X-5090000Y-2820001D01*
X-5590000Y-1119001D01*
X-6090000Y-2820001D01*
X-6042378Y-2824818D01*
X-6001223Y-2838539D01*
X-5935351Y-2889558D01*
X-5885700Y-2975156D01*
X-5852738Y-3103248D01*
X-5840248Y-3272156D01*
X-5840000Y-3320001D01*
X-5340000Y-3320001D01*
G37*
%TD.AperFunction*%
%TD*%
%TA.AperFunction,Conductor*%
%TO.N,Net-(D2-A)*%
G36*
X152539Y710314D02*
G01*
X198294Y657510D01*
X209500Y605999D01*
X209500Y-2867871D01*
X209501Y-2867877D01*
X215908Y-2927484D01*
X266202Y-3062329D01*
X266206Y-3062336D01*
X352452Y-3177545D01*
X352455Y-3177548D01*
X467664Y-3263794D01*
X467671Y-3263798D01*
X602517Y-3314092D01*
X602516Y-3314092D01*
X609444Y-3314836D01*
X662127Y-3320501D01*
X1757872Y-3320500D01*
X1817483Y-3314092D01*
X1952331Y-3263797D01*
X2067546Y-3177547D01*
X2148289Y-3069689D01*
X2204223Y-3027819D01*
X2247555Y-3020001D01*
X5297789Y-3020001D01*
X5321980Y-3022384D01*
X5381480Y-3034219D01*
X5426175Y-3052731D01*
X5466272Y-3079523D01*
X5500477Y-3113728D01*
X5527267Y-3153823D01*
X5545781Y-3198518D01*
X5557617Y-3258023D01*
X5560000Y-3282211D01*
X5560000Y-10757790D01*
X5557617Y-10781981D01*
X5557617Y-10781983D01*
X5545781Y-10841483D01*
X5527267Y-10886180D01*
X5500481Y-10926269D01*
X5466269Y-10960480D01*
X5431975Y-10983395D01*
X5426179Y-10987268D01*
X5381482Y-11005782D01*
X5347857Y-11012470D01*
X5321978Y-11017618D01*
X5297789Y-11020001D01*
X-5427789Y-11020001D01*
X-5451980Y-11017618D01*
X-5466811Y-11014668D01*
X-5511482Y-11005782D01*
X-5556178Y-10987268D01*
X-5596273Y-10960478D01*
X-5630478Y-10926273D01*
X-5657270Y-10886176D01*
X-5675782Y-10841481D01*
X-5687617Y-10781981D01*
X-5690000Y-10757790D01*
X-5690000Y-5609863D01*
X-5670315Y-5542824D01*
X-5617511Y-5497069D01*
X-5578601Y-5486505D01*
X-5567292Y-5485350D01*
X-5406303Y-5432004D01*
X-5261956Y-5342969D01*
X-5252681Y-5333694D01*
X-5191358Y-5300209D01*
X-5121666Y-5305193D01*
X-5077319Y-5333694D01*
X-5068045Y-5342968D01*
X-5068041Y-5342971D01*
X-4923706Y-5431999D01*
X-4923703Y-5432000D01*
X-4923697Y-5432004D01*
X-4762708Y-5485350D01*
X-4663345Y-5495501D01*
X-4116656Y-5495500D01*
X-4116648Y-5495499D01*
X-4116645Y-5495499D01*
X-4062240Y-5489941D01*
X-4017292Y-5485350D01*
X-3856303Y-5432004D01*
X-3742597Y-5361869D01*
X-3675205Y-5343428D01*
X-3612403Y-5361869D01*
X-3498706Y-5431999D01*
X-3498703Y-5432000D01*
X-3498697Y-5432004D01*
X-3337708Y-5485350D01*
X-3238345Y-5495501D01*
X-2691656Y-5495500D01*
X-2691648Y-5495499D01*
X-2691645Y-5495499D01*
X-2637240Y-5489941D01*
X-2592292Y-5485350D01*
X-2431303Y-5432004D01*
X-2286956Y-5342969D01*
X-2277681Y-5333694D01*
X-2216358Y-5300209D01*
X-2146666Y-5305193D01*
X-2102319Y-5333694D01*
X-2093045Y-5342968D01*
X-2093041Y-5342971D01*
X-1948706Y-5431999D01*
X-1948703Y-5432000D01*
X-1948697Y-5432004D01*
X-1787708Y-5485350D01*
X-1688345Y-5495501D01*
X-1141656Y-5495500D01*
X-1141648Y-5495499D01*
X-1141645Y-5495499D01*
X-1087240Y-5489941D01*
X-1042292Y-5485350D01*
X-881303Y-5432004D01*
X-736956Y-5342969D01*
X-617032Y-5223045D01*
X-527997Y-5078698D01*
X-474651Y-4917709D01*
X-464500Y-4818346D01*
X-464501Y-4221657D01*
X-474651Y-4122293D01*
X-527997Y-3961304D01*
X-528001Y-3961298D01*
X-528002Y-3961295D01*
X-617030Y-3816960D01*
X-617033Y-3816956D01*
X-736956Y-3697033D01*
X-736960Y-3697030D01*
X-881295Y-3608002D01*
X-881301Y-3607999D01*
X-881303Y-3607998D01*
X-965500Y-3580098D01*
X-1042291Y-3554652D01*
X-1078604Y-3550942D01*
X-1143295Y-3524545D01*
X-1183446Y-3467364D01*
X-1190000Y-3427584D01*
X-1190000Y-2879168D01*
X-1189573Y-2871189D01*
X-1189678Y-2871184D01*
X-1189503Y-2867899D01*
X-1189500Y-2867874D01*
X-1189501Y470299D01*
X-1187118Y494489D01*
X-1175782Y551480D01*
X-1157271Y596173D01*
X-1130476Y636275D01*
X-1096276Y670475D01*
X-1056174Y697270D01*
X-1011486Y715780D01*
X-951972Y727618D01*
X-927789Y729999D01*
X85500Y729999D01*
X152539Y710314D01*
G37*
%TD.AperFunction*%
%TD*%
%TA.AperFunction,Conductor*%
%TO.N,Net-(U1-FB)*%
G36*
X-9940000Y-2035686D02*
G01*
X-10095543Y-2174128D01*
X-10196405Y-2243170D01*
X-10309290Y-2307420D01*
X-10425218Y-2361325D01*
X-10549025Y-2406636D01*
X-10666930Y-2438523D01*
X-10789182Y-2460049D01*
X-10943683Y-2470001D01*
X-10690000Y-3071001D01*
X-10090000Y-3313452D01*
X-10071197Y-3144232D01*
X-10009125Y-2936192D01*
X-9895392Y-2687232D01*
X-9727022Y-2406170D01*
X-9520513Y-2128127D01*
X-9440000Y-2035686D01*
X-9940000Y-2035686D01*
G37*
%TD.AperFunction*%
%TD*%
%TA.AperFunction,Conductor*%
%TO.N,Net-(U1-FB)*%
G36*
X-4140000Y1079999D02*
G01*
X-4143906Y942915D01*
X-4171250Y777591D01*
X-4201035Y701353D01*
X-4245469Y638471D01*
X-4307480Y595751D01*
X-4390000Y579999D01*
X-3890000Y-1121001D01*
X-3390000Y579999D01*
X-3437622Y584816D01*
X-3478777Y598537D01*
X-3544649Y649556D01*
X-3594300Y735154D01*
X-3627262Y863246D01*
X-3639752Y1032154D01*
X-3640000Y1079999D01*
X-4140000Y1079999D01*
G37*
%TD.AperFunction*%
%TD*%
%TA.AperFunction,Conductor*%
%TO.N,+24V*%
G36*
X-8440000Y-4270001D02*
G01*
X-8433783Y-4153750D01*
X-8410263Y-4011755D01*
X-8382280Y-3917518D01*
X-8341931Y-3829665D01*
X-8303792Y-3773793D01*
X-8257334Y-3727436D01*
X-8212896Y-3698544D01*
X-8162044Y-3679046D01*
X-8090000Y-3670001D01*
X-8690000Y-3069001D01*
X-9290000Y-3670001D01*
X-9236612Y-3674835D01*
X-9188794Y-3688673D01*
X-9106473Y-3741426D01*
X-9037970Y-3829838D01*
X-8983626Y-3959842D01*
X-8948731Y-4131260D01*
X-8940000Y-4270001D01*
X-8440000Y-4270001D01*
G37*
%TD.AperFunction*%
%TD*%
%TA.AperFunction,Conductor*%
%TO.N,Net-(C40-Pad1)*%
G36*
X-3280889Y-4081831D02*
G01*
X-3276838Y-4085352D01*
X-2968920Y-4513166D01*
X-2966868Y-4521883D01*
X-2968920Y-4526836D01*
X-3276404Y-4954046D01*
X-3284018Y-4958759D01*
X-3292735Y-4956707D01*
X-3296435Y-4952300D01*
X-3320676Y-4902101D01*
X-3320678Y-4902099D01*
X-3320679Y-4902097D01*
X-3372314Y-4851410D01*
X-3372320Y-4851406D01*
X-3438247Y-4815440D01*
X-3438258Y-4815436D01*
X-3488129Y-4799799D01*
X-3513915Y-4791714D01*
X-3513917Y-4791713D01*
X-3513919Y-4791713D01*
X-3513920Y-4791712D01*
X-3676195Y-4771072D01*
X-3822643Y-4769638D01*
X-3822668Y-4769638D01*
X-3822689Y-4769638D01*
X-3853201Y-4769899D01*
X-3861502Y-4766544D01*
X-3865000Y-4758300D01*
X-3865000Y-4281802D01*
X-3861573Y-4273529D01*
X-3853300Y-4270102D01*
X-3853228Y-4270102D01*
X-3822689Y-4270364D01*
X-3822677Y-4270363D01*
X-3822659Y-4270364D01*
X-3682654Y-4268709D01*
X-3668650Y-4268544D01*
X-3512218Y-4247889D01*
X-3402175Y-4207387D01*
X-3329538Y-4149212D01*
X-3296690Y-4086741D01*
X-3289806Y-4081014D01*
X-3280889Y-4081831D01*
G37*
%TD.AperFunction*%
%TD*%
%TA.AperFunction,Conductor*%
%TO.N,Net-(U1-FB)*%
G36*
X-8586447Y1637105D02*
G01*
X-8695652Y1535243D01*
X-8827161Y1426853D01*
X-8973725Y1319697D01*
X-9134636Y1216351D01*
X-9284108Y1133152D01*
X-9439601Y1059940D01*
X-9575551Y1007768D01*
X-9712799Y967366D01*
X-9831317Y943522D01*
X-9948816Y931330D01*
X-10000660Y929999D01*
X-9690707Y179292D01*
X-8890000Y-80661D01*
X-8880448Y108404D01*
X-8831199Y322081D01*
X-8737331Y560713D01*
X-8596063Y818858D01*
X-8413175Y1078875D01*
X-8232894Y1283552D01*
X-8586447Y1637105D01*
G37*
%TD.AperFunction*%
%TD*%
%TA.AperFunction,Conductor*%
%TO.N,+12V*%
G36*
X8810000Y-3020001D02*
G01*
X13547789Y-3020001D01*
X13571980Y-3022384D01*
X13631480Y-3034219D01*
X13676175Y-3052731D01*
X13716272Y-3079523D01*
X13750477Y-3113728D01*
X13777267Y-3153823D01*
X13795781Y-3198518D01*
X13799542Y-3217428D01*
X13807617Y-3258023D01*
X13810000Y-3282211D01*
X13810000Y-10757790D01*
X13807617Y-10781983D01*
X13795781Y-10841483D01*
X13777267Y-10886180D01*
X13750481Y-10926269D01*
X13716269Y-10960480D01*
X13681975Y-10983395D01*
X13676179Y-10987268D01*
X13631482Y-11005782D01*
X13597857Y-11012470D01*
X13571978Y-11017618D01*
X13547789Y-11020001D01*
X6176477Y-11020001D01*
X6109438Y-11000316D01*
X6063683Y-10947512D01*
X6053739Y-10878354D01*
X6053819Y-10877809D01*
X6060681Y-10831542D01*
X6060681Y-10831541D01*
X6060682Y-10831535D01*
X6063065Y-10807342D01*
X6065500Y-10757790D01*
X6065500Y-3282211D01*
X6063064Y-3232649D01*
X6060681Y-3208461D01*
X6053404Y-3159407D01*
X6041568Y-3099902D01*
X6012799Y-3005065D01*
X5994285Y-2960370D01*
X5950882Y-2879168D01*
X5947585Y-2872999D01*
X5947571Y-2872975D01*
X5920797Y-2832905D01*
X5920784Y-2832887D01*
X5857915Y-2756281D01*
X5823719Y-2722086D01*
X5823714Y-2722081D01*
X5747113Y-2659215D01*
X5745564Y-2658180D01*
X5707021Y-2632426D01*
X5707011Y-2632420D01*
X5619608Y-2585704D01*
X5619607Y-2585703D01*
X5574912Y-2567191D01*
X5480100Y-2538433D01*
X5480097Y-2538432D01*
X5480096Y-2538432D01*
X5420596Y-2526597D01*
X5420591Y-2526596D01*
X5420573Y-2526593D01*
X5371570Y-2519323D01*
X5371511Y-2519316D01*
X5347350Y-2516936D01*
X5334303Y-2516295D01*
X5297789Y-2514501D01*
X2247555Y-2514501D01*
X2247551Y-2514501D01*
X2157822Y-2522530D01*
X2157806Y-2522532D01*
X2114458Y-2530353D01*
X2027582Y-2554186D01*
X2027581Y-2554187D01*
X2027580Y-2554187D01*
X2027578Y-2554188D01*
X1975463Y-2582643D01*
X1901298Y-2623138D01*
X1845398Y-2664982D01*
X1845371Y-2665003D01*
X1845352Y-2665017D01*
X1845349Y-2665020D01*
X1743628Y-2766739D01*
X1740722Y-2770094D01*
X1739605Y-2769126D01*
X1688746Y-2807188D01*
X1645429Y-2815000D01*
X839000Y-2815000D01*
X771961Y-2795315D01*
X726206Y-2742511D01*
X715000Y-2691000D01*
X715000Y-221648D01*
X1834500Y-221648D01*
X1834500Y-768338D01*
X1834501Y-768356D01*
X1844650Y-867708D01*
X1844651Y-867711D01*
X1897996Y-1028695D01*
X1898001Y-1028706D01*
X1987029Y-1173041D01*
X1987032Y-1173045D01*
X2106955Y-1292968D01*
X2106959Y-1292971D01*
X2251294Y-1381999D01*
X2251297Y-1382000D01*
X2251303Y-1382004D01*
X2412292Y-1435350D01*
X2511655Y-1445501D01*
X3108344Y-1445500D01*
X3108352Y-1445499D01*
X3108355Y-1445499D01*
X3162760Y-1439941D01*
X3207708Y-1435350D01*
X3368697Y-1382004D01*
X3513044Y-1292969D01*
X3632968Y-1173045D01*
X3722003Y-1028698D01*
X3775349Y-867709D01*
X3785500Y-768346D01*
X3785499Y-221657D01*
X3775349Y-122293D01*
X3722003Y38696D01*
X3721999Y38702D01*
X3721998Y38705D01*
X3632970Y183040D01*
X3632967Y183044D01*
X3513044Y302967D01*
X3513040Y302970D01*
X3368705Y391998D01*
X3368699Y392001D01*
X3368697Y392002D01*
X3368694Y392003D01*
X3207709Y445348D01*
X3108346Y455499D01*
X2511662Y455499D01*
X2511644Y455498D01*
X2412292Y445349D01*
X2412289Y445348D01*
X2251305Y392003D01*
X2251294Y391998D01*
X2106959Y302970D01*
X2106955Y302967D01*
X1987032Y183044D01*
X1987029Y183040D01*
X1898001Y38705D01*
X1897996Y38694D01*
X1844651Y-122291D01*
X1834500Y-221648D01*
X715000Y-221648D01*
X715000Y605989D01*
X715000Y605999D01*
X703447Y713455D01*
X692241Y764966D01*
X684040Y789607D01*
X658116Y867497D01*
X658113Y867503D01*
X579685Y989538D01*
X560000Y1056577D01*
X560000Y2217789D01*
X562383Y2241980D01*
X574218Y2301480D01*
X592729Y2346173D01*
X619524Y2386275D01*
X653724Y2420475D01*
X693826Y2447270D01*
X738514Y2465780D01*
X798028Y2477618D01*
X822211Y2479999D01*
X3560000Y2479999D01*
X8810000Y2479999D01*
X8810000Y-3020001D01*
G37*
%TD.AperFunction*%
%TD*%
%TA.AperFunction,Conductor*%
%TO.N,Net-(C40-Pad1)*%
G36*
X-4062266Y-4083294D02*
G01*
X-4058565Y-4087702D01*
X-4034323Y-4137901D01*
X-4034322Y-4137902D01*
X-4034321Y-4137904D01*
X-3982686Y-4188591D01*
X-3982684Y-4188592D01*
X-3982682Y-4188594D01*
X-3916749Y-4224563D01*
X-3841085Y-4248288D01*
X-3841082Y-4248288D01*
X-3841081Y-4248289D01*
X-3678806Y-4268929D01*
X-3666619Y-4269048D01*
X-3532311Y-4270364D01*
X-3501798Y-4270102D01*
X-3493498Y-4273457D01*
X-3490000Y-4281701D01*
X-3490000Y-4758199D01*
X-3493427Y-4766472D01*
X-3501700Y-4769899D01*
X-3501800Y-4769899D01*
X-3532342Y-4769637D01*
X-3686347Y-4771457D01*
X-3686353Y-4771458D01*
X-3811495Y-4787981D01*
X-3842781Y-4792112D01*
X-3842782Y-4792112D01*
X-3842787Y-4792113D01*
X-3952824Y-4832614D01*
X-3952825Y-4832615D01*
X-4025462Y-4890789D01*
X-4025463Y-4890790D01*
X-4058311Y-4953259D01*
X-4065195Y-4958987D01*
X-4074112Y-4958170D01*
X-4078163Y-4954649D01*
X-4124126Y-4890789D01*
X-4386082Y-4526835D01*
X-4388133Y-4518119D01*
X-4386081Y-4513166D01*
X-4078595Y-4085953D01*
X-4070983Y-4081242D01*
X-4062266Y-4083294D01*
G37*
%TD.AperFunction*%
%TD*%
%TA.AperFunction,Conductor*%
%TO.N,Net-(U1-FB)*%
G36*
X-9440000Y-1320001D02*
G01*
X-9418460Y-1126136D01*
X-9390393Y-1014255D01*
X-9349328Y-901178D01*
X-9305929Y-813929D01*
X-9252760Y-734428D01*
X-9202192Y-678382D01*
X-9144542Y-631922D01*
X-9089559Y-601393D01*
X-9029015Y-580553D01*
X-8940000Y-570001D01*
X-9690000Y180999D01*
X-10440000Y-570001D01*
X-10378953Y-574853D01*
X-10322536Y-588821D01*
X-10219380Y-643256D01*
X-10127019Y-734710D01*
X-10045934Y-867595D01*
X-9981450Y-1042491D01*
X-9944214Y-1240733D01*
X-9940000Y-1320001D01*
X-9440000Y-1320001D01*
G37*
%TD.AperFunction*%
%TD*%
%TA.AperFunction,Conductor*%
%TO.N,Net-(U1-COMP)*%
G36*
X-5344976Y-3641545D02*
G01*
X-5341549Y-3649818D01*
X-5341639Y-3651265D01*
X-5362419Y-3817984D01*
X-5362639Y-3819214D01*
X-5387977Y-3927033D01*
X-5413061Y-4033770D01*
X-5413063Y-4033780D01*
X-5413064Y-4033779D01*
X-5470115Y-4278424D01*
X-5496998Y-4474867D01*
X-5490791Y-4592031D01*
X-5493776Y-4600474D01*
X-5501856Y-4604334D01*
X-5504670Y-4604142D01*
X-5935122Y-4521932D01*
X-5942605Y-4517014D01*
X-5942719Y-4516844D01*
X-5970173Y-4474869D01*
X-6230451Y-4076929D01*
X-6232110Y-4068132D01*
X-6227062Y-4060735D01*
X-6221445Y-4058853D01*
X-6148418Y-4053939D01*
X-6135928Y-4053099D01*
X-6115742Y-4047380D01*
X-6075366Y-4035942D01*
X-6023170Y-4010428D01*
X-5972480Y-3972304D01*
X-5931427Y-3927042D01*
X-5891722Y-3862432D01*
X-5864556Y-3794279D01*
X-5845569Y-3711036D01*
X-5840826Y-3648925D01*
X-5836779Y-3640939D01*
X-5829160Y-3638118D01*
X-5353249Y-3638118D01*
X-5344976Y-3641545D01*
G37*
%TD.AperFunction*%
%TD*%
%TA.AperFunction,Conductor*%
%TO.N,Net-(U1-FB)*%
G36*
X-8484778Y3058720D02*
G01*
X-8479874Y3051228D01*
X-8481700Y3042468D01*
X-8514522Y2994281D01*
X-8514524Y2994278D01*
X-8546905Y2928954D01*
X-8546906Y2928950D01*
X-8569634Y2858591D01*
X-8580770Y2789499D01*
X-8581071Y2712678D01*
X-8570053Y2639421D01*
X-8545206Y2558566D01*
X-8510892Y2485849D01*
X-8510883Y2485833D01*
X-8466748Y2417760D01*
X-8427123Y2371807D01*
X-8424316Y2363304D01*
X-8427711Y2355894D01*
X-8764363Y2019242D01*
X-8772636Y2015815D01*
X-8780909Y2019242D01*
X-8781750Y2020179D01*
X-8839982Y2092529D01*
X-8840593Y2093360D01*
X-8914300Y2203558D01*
X-8914342Y2203621D01*
X-8967734Y2284564D01*
X-8967735Y2284565D01*
X-8967742Y2284576D01*
X-9076327Y2429033D01*
X-9117659Y2465785D01*
X-9154410Y2498465D01*
X-9154413Y2498466D01*
X-9201576Y2515092D01*
X-9208239Y2521074D01*
X-9208720Y2530016D01*
X-9207491Y2532509D01*
X-9190527Y2558566D01*
X-8918432Y2976522D01*
X-8911047Y2981585D01*
X-8910814Y2981632D01*
X-8493543Y3060550D01*
X-8484778Y3058720D01*
G37*
%TD.AperFunction*%
%TD*%
%TA.AperFunction,Conductor*%
%TO.N,GND*%
G36*
X12704041Y19819235D02*
G01*
X12726989Y19817731D01*
X12958114Y19802583D01*
X12974172Y19800468D01*
X13219888Y19751592D01*
X13235554Y19747394D01*
X13386736Y19696075D01*
X13472788Y19666864D01*
X13487765Y19660661D01*
X13705336Y19553367D01*
X13712460Y19549854D01*
X13726507Y19541744D01*
X13767649Y19514254D01*
X13934812Y19402559D01*
X13947676Y19392689D01*
X14006861Y19340785D01*
X14136034Y19227503D01*
X14147503Y19216034D01*
X14302231Y19039601D01*
X14312686Y19027680D01*
X14322560Y19014812D01*
X14461746Y18806505D01*
X14469855Y18792460D01*
X14580536Y18568019D01*
X14580657Y18567775D01*
X14586864Y18552789D01*
X14667394Y18315555D01*
X14671592Y18299889D01*
X14720466Y18054186D01*
X14722584Y18038104D01*
X14739235Y17784059D01*
X14739500Y17775949D01*
X14739500Y-17775932D01*
X14739235Y-17784042D01*
X14722583Y-18038104D01*
X14720465Y-18054185D01*
X14671591Y-18299890D01*
X14667393Y-18315557D01*
X14586866Y-18552783D01*
X14580659Y-18567769D01*
X14469851Y-18792464D01*
X14461741Y-18806511D01*
X14322562Y-19014808D01*
X14312688Y-19027676D01*
X14147503Y-19216034D01*
X14136034Y-19227503D01*
X13947679Y-19392686D01*
X13934811Y-19402560D01*
X13726507Y-19541744D01*
X13712460Y-19549854D01*
X13487772Y-19660658D01*
X13472786Y-19666865D01*
X13235554Y-19747394D01*
X13219888Y-19751592D01*
X12974186Y-19800466D01*
X12958104Y-19802584D01*
X12704057Y-19819235D01*
X12695947Y-19819500D01*
X11613721Y-19819500D01*
X11546682Y-19799815D01*
X11500927Y-19747011D01*
X11490983Y-19677853D01*
X11520008Y-19614297D01*
X11535057Y-19599646D01*
X11573706Y-19567928D01*
X11607918Y-19533717D01*
X11670792Y-19457105D01*
X11697578Y-19417016D01*
X11744288Y-19329626D01*
X11762802Y-19284929D01*
X11791567Y-19190107D01*
X11803403Y-19130607D01*
X11803403Y-19130603D01*
X11803405Y-19130596D01*
X11805363Y-19117389D01*
X11810682Y-19081535D01*
X11813065Y-19057342D01*
X11815500Y-19007790D01*
X11815500Y-11649501D01*
X11835185Y-11582462D01*
X11887989Y-11536707D01*
X11939500Y-11525501D01*
X13547776Y-11525501D01*
X13547789Y-11525501D01*
X13597349Y-11523066D01*
X13621538Y-11520683D01*
X13670596Y-11513405D01*
X13730100Y-11501569D01*
X13824928Y-11472803D01*
X13869625Y-11454289D01*
X13957025Y-11407572D01*
X13997115Y-11380784D01*
X14073706Y-11317928D01*
X14107918Y-11283717D01*
X14170792Y-11207105D01*
X14197578Y-11167016D01*
X14244288Y-11079626D01*
X14262802Y-11034929D01*
X14291567Y-10940107D01*
X14303403Y-10880607D01*
X14310682Y-10831535D01*
X14313065Y-10807342D01*
X14315500Y-10757790D01*
X14315500Y-3282211D01*
X14313064Y-3232649D01*
X14310681Y-3208461D01*
X14303404Y-3159407D01*
X14291568Y-3099902D01*
X14262799Y-3005065D01*
X14244285Y-2960370D01*
X14200882Y-2879168D01*
X14197585Y-2872999D01*
X14197571Y-2872975D01*
X14170797Y-2832905D01*
X14170784Y-2832887D01*
X14107915Y-2756281D01*
X14073719Y-2722086D01*
X14073714Y-2722081D01*
X13997113Y-2659215D01*
X13995564Y-2658180D01*
X13957021Y-2632426D01*
X13957011Y-2632420D01*
X13869608Y-2585704D01*
X13869607Y-2585703D01*
X13824912Y-2567191D01*
X13730100Y-2538433D01*
X13730097Y-2538432D01*
X13730096Y-2538432D01*
X13670596Y-2526597D01*
X13670591Y-2526596D01*
X13670573Y-2526593D01*
X13621570Y-2519323D01*
X13621511Y-2519316D01*
X13597350Y-2516936D01*
X13584303Y-2516295D01*
X13547789Y-2514501D01*
X13547775Y-2514501D01*
X9439500Y-2514501D01*
X9372461Y-2494816D01*
X9326706Y-2442012D01*
X9315500Y-2390501D01*
X9315500Y15717776D01*
X9315500Y15717789D01*
X9313064Y15767351D01*
X9310681Y15791539D01*
X9303404Y15840593D01*
X9291568Y15900098D01*
X9262799Y15994935D01*
X9244285Y16039630D01*
X9232871Y16060983D01*
X9197585Y16127001D01*
X9197571Y16127025D01*
X9170797Y16167095D01*
X9170784Y16167113D01*
X9107915Y16243719D01*
X9073719Y16277914D01*
X9073714Y16277919D01*
X8997113Y16340785D01*
X8995564Y16341820D01*
X8957021Y16367574D01*
X8957011Y16367580D01*
X8869608Y16414296D01*
X8869607Y16414297D01*
X8824912Y16432809D01*
X8730100Y16461567D01*
X8730097Y16461568D01*
X8730096Y16461568D01*
X8670596Y16473403D01*
X8670591Y16473404D01*
X8670573Y16473407D01*
X8621570Y16480677D01*
X8621511Y16480684D01*
X8597350Y16483064D01*
X8584303Y16483705D01*
X8547789Y16485499D01*
X8547775Y16485499D01*
X2932393Y16485499D01*
X2865354Y16505184D01*
X2819599Y16557988D01*
X2809655Y16627146D01*
X2832075Y16682384D01*
X2890048Y16762179D01*
X2890047Y16762179D01*
X2890051Y16762183D01*
X2986557Y16951587D01*
X3052246Y17153756D01*
X3085500Y17363712D01*
X3085500Y17576286D01*
X3052246Y17786242D01*
X2986557Y17988411D01*
X2890051Y18177815D01*
X2890049Y18177818D01*
X2890048Y18177820D01*
X2765109Y18349786D01*
X2614786Y18500109D01*
X2442820Y18625048D01*
X2253414Y18721555D01*
X2253413Y18721556D01*
X2253412Y18721556D01*
X2051243Y18787245D01*
X2051241Y18787246D01*
X2051240Y18787246D01*
X1889957Y18812791D01*
X1841287Y18820499D01*
X1628713Y18820499D01*
X1580042Y18812791D01*
X1418760Y18787246D01*
X1216585Y18721555D01*
X1027179Y18625048D01*
X855213Y18500109D01*
X704890Y18349786D01*
X579949Y18177817D01*
X575484Y18169053D01*
X527509Y18118257D01*
X459688Y18101463D01*
X393553Y18124001D01*
X354516Y18169053D01*
X350050Y18177817D01*
X225109Y18349786D01*
X74786Y18500109D01*
X-97180Y18625048D01*
X-286586Y18721555D01*
X-286587Y18721556D01*
X-286588Y18721556D01*
X-488757Y18787245D01*
X-488759Y18787246D01*
X-488760Y18787246D01*
X-650043Y18812791D01*
X-698713Y18820499D01*
X-911287Y18820499D01*
X-950798Y18814242D01*
X-1121241Y18787246D01*
X-1284627Y18734158D01*
X-1354468Y18732163D01*
X-1414301Y18768243D01*
X-1445129Y18830944D01*
X-1445592Y18833822D01*
X-1446597Y18840601D01*
X-1458433Y18900103D01*
X-1458435Y18900111D01*
X-1487195Y18994916D01*
X-1487200Y18994931D01*
X-1487201Y18994935D01*
X-1505715Y19039630D01*
X-1552424Y19127016D01*
X-1570285Y19153747D01*
X-1579214Y19167111D01*
X-1623449Y19224056D01*
X-1623450Y19224057D01*
X-1641109Y19243717D01*
X-1647036Y19250316D01*
X-1698927Y19300391D01*
X-1698933Y19300395D01*
X-1711031Y19307869D01*
X-1724525Y19317509D01*
X-1752880Y19340781D01*
X-1752885Y19340784D01*
X-1792979Y19367574D01*
X-1792989Y19367580D01*
X-1865186Y19406169D01*
X-1880390Y19414295D01*
X-1880392Y19414296D01*
X-1880393Y19414297D01*
X-1925088Y19432809D01*
X-2019900Y19461567D01*
X-2019903Y19461568D01*
X-2019904Y19461568D01*
X-2079404Y19473403D01*
X-2079409Y19473404D01*
X-2079427Y19473407D01*
X-2128430Y19480677D01*
X-2128489Y19480684D01*
X-2152650Y19483064D01*
X-2165697Y19483705D01*
X-2202211Y19485499D01*
X-9677789Y19485499D01*
X-9704353Y19484195D01*
X-9727310Y19483068D01*
X-9727348Y19483065D01*
X-9751472Y19480690D01*
X-9751523Y19480684D01*
X-9800569Y19473409D01*
X-9800587Y19473406D01*
X-9800590Y19473405D01*
X-9808172Y19471897D01*
X-9860095Y19461570D01*
X-9954930Y19432802D01*
X-9999620Y19414292D01*
X-10087008Y19367582D01*
X-10087019Y19367576D01*
X-10117193Y19347414D01*
X-10127113Y19340785D01*
X-10127116Y19340783D01*
X-10127120Y19340781D01*
X-10203724Y19277913D01*
X-10237914Y19243723D01*
X-10300782Y19167119D01*
X-10300784Y19167116D01*
X-10300785Y19167114D01*
X-10309636Y19153869D01*
X-10327578Y19127016D01*
X-10327582Y19127009D01*
X-10374301Y19039601D01*
X-10392808Y18994915D01*
X-10392812Y18994904D01*
X-10421566Y18900111D01*
X-10433401Y18840612D01*
X-10433407Y18840580D01*
X-10440681Y18791553D01*
X-10440684Y18791526D01*
X-10443065Y18767355D01*
X-10443065Y18767346D01*
X-10443065Y18767345D01*
X-10445500Y18717789D01*
X-10445500Y14492210D01*
X-10443065Y14442654D01*
X-10443065Y14442645D01*
X-10440685Y14418488D01*
X-10440678Y14418429D01*
X-10433408Y14369426D01*
X-10433405Y14369408D01*
X-10421568Y14309899D01*
X-10392810Y14215087D01*
X-10374298Y14170392D01*
X-10374297Y14170391D01*
X-10374296Y14170389D01*
X-10327578Y14082983D01*
X-10300786Y14042886D01*
X-10237920Y13966285D01*
X-10237915Y13966280D01*
X-10203720Y13932084D01*
X-10203715Y13932080D01*
X-10127109Y13869211D01*
X-10127102Y13869207D01*
X-10127096Y13869202D01*
X-10087026Y13842428D01*
X-10087017Y13842423D01*
X-10087014Y13842421D01*
X-9999627Y13795712D01*
X-9977279Y13786455D01*
X-9954939Y13777201D01*
X-9954937Y13777201D01*
X-9954931Y13777198D01*
X-9860103Y13748432D01*
X-9800601Y13736596D01*
X-9791702Y13735276D01*
X-9751553Y13729319D01*
X-9751539Y13729318D01*
X-9751536Y13729317D01*
X-9727345Y13726934D01*
X-9677789Y13724499D01*
X-9677775Y13724499D01*
X-7788065Y13724499D01*
X-7698327Y13732530D01*
X-7698325Y13732530D01*
X-7698322Y13732531D01*
X-7698317Y13732531D01*
X-7654984Y13740349D01*
X-7568078Y13764190D01*
X-7564367Y13765575D01*
X-7560061Y13767180D01*
X-7516725Y13774999D01*
X3030999Y13774999D01*
X3098038Y13755314D01*
X3143793Y13702510D01*
X3154999Y13650999D01*
X3154999Y5206444D01*
X3143793Y5154931D01*
X3094663Y5047356D01*
X3074976Y4980311D01*
X3054500Y4837892D01*
X3054500Y3109499D01*
X3034815Y3042460D01*
X2982011Y2996705D01*
X2930500Y2985499D01*
X822211Y2985499D01*
X795647Y2984195D01*
X772690Y2983068D01*
X772652Y2983065D01*
X748528Y2980690D01*
X748477Y2980684D01*
X699431Y2973409D01*
X699413Y2973406D01*
X699410Y2973405D01*
X691828Y2971897D01*
X639905Y2961570D01*
X545070Y2932802D01*
X500380Y2914292D01*
X412992Y2867582D01*
X412981Y2867576D01*
X372884Y2840783D01*
X372880Y2840781D01*
X296276Y2777913D01*
X262086Y2743723D01*
X199218Y2667119D01*
X199216Y2667115D01*
X172422Y2627016D01*
X172418Y2627009D01*
X125706Y2539614D01*
X125705Y2539611D01*
X107189Y2494908D01*
X78432Y2400104D01*
X66595Y2340592D01*
X66592Y2340574D01*
X59322Y2291571D01*
X59315Y2291512D01*
X56935Y2267355D01*
X56935Y2267346D01*
X56935Y2267345D01*
X54500Y2217789D01*
X54500Y2217776D01*
X54500Y1359499D01*
X34815Y1292460D01*
X-17989Y1246705D01*
X-69500Y1235499D01*
X-927789Y1235499D01*
X-954353Y1234195D01*
X-977310Y1233068D01*
X-977348Y1233065D01*
X-1001472Y1230690D01*
X-1001523Y1230684D01*
X-1050569Y1223409D01*
X-1050587Y1223406D01*
X-1050590Y1223405D01*
X-1058172Y1221897D01*
X-1110095Y1211570D01*
X-1204930Y1182802D01*
X-1249620Y1164292D01*
X-1337008Y1117582D01*
X-1337019Y1117576D01*
X-1377116Y1090783D01*
X-1377120Y1090781D01*
X-1453724Y1027913D01*
X-1487914Y993723D01*
X-1550782Y917119D01*
X-1550784Y917115D01*
X-1577578Y877016D01*
X-1577582Y877009D01*
X-1624294Y789614D01*
X-1624295Y789611D01*
X-1642811Y744908D01*
X-1671568Y650104D01*
X-1682906Y593101D01*
X-1682908Y593088D01*
X-1690182Y544059D01*
X-1692565Y519879D01*
X-1692566Y519867D01*
X-1692566Y519857D01*
X-1695001Y470299D01*
X-1695001Y470287D01*
X-1695001Y-2858804D01*
X-1695045Y-2862110D01*
X-1695500Y-2879170D01*
X-1695500Y-3427580D01*
X-1688778Y-3509746D01*
X-1688778Y-3509747D01*
X-1682221Y-3549546D01*
X-1662227Y-3629534D01*
X-1597147Y-3757848D01*
X-1597141Y-3757859D01*
X-1557000Y-3815025D01*
X-1556994Y-3815033D01*
X-1458400Y-3919816D01*
X-1390702Y-3959501D01*
X-1334279Y-3992578D01*
X-1334275Y-3992580D01*
X-1269584Y-4018977D01*
X-1269579Y-4018979D01*
X-1187105Y-4039565D01*
X-1178168Y-4042157D01*
X-1110137Y-4064700D01*
X-1084053Y-4076864D01*
X-1068251Y-4086612D01*
X-1064955Y-4088645D01*
X-1042379Y-4106496D01*
X-1026504Y-4122370D01*
X-1008644Y-4144956D01*
X-996864Y-4164054D01*
X-984698Y-4190143D01*
X-976295Y-4215504D01*
X-970001Y-4254504D01*
X-970001Y-4785496D01*
X-970452Y-4788289D01*
X-970074Y-4789761D01*
X-976296Y-4824502D01*
X-984696Y-4849850D01*
X-996863Y-4875941D01*
X-1008649Y-4895049D01*
X-1026506Y-4917633D01*
X-1042368Y-4933495D01*
X-1064952Y-4951352D01*
X-1084060Y-4963138D01*
X-1110151Y-4975305D01*
X-1135499Y-4983705D01*
X-1174505Y-4990000D01*
X-1655495Y-4990000D01*
X-1658289Y-4989549D01*
X-1659761Y-4989927D01*
X-1694502Y-4983705D01*
X-1719858Y-4975302D01*
X-1745948Y-4963135D01*
X-1804113Y-4927258D01*
X-1816819Y-4918274D01*
X-1829017Y-4908445D01*
X-1829020Y-4908443D01*
X-1873364Y-4879944D01*
X-1946006Y-4843582D01*
X-1997143Y-4795971D01*
X-2014501Y-4732701D01*
X-2014501Y-4221657D01*
X-2014630Y-4220398D01*
X-2024651Y-4122293D01*
X-2024652Y-4122290D01*
X-2029886Y-4106496D01*
X-2077997Y-3961304D01*
X-2078001Y-3961298D01*
X-2078002Y-3961295D01*
X-2167030Y-3816960D01*
X-2167033Y-3816956D01*
X-2286956Y-3697033D01*
X-2286960Y-3697030D01*
X-2431295Y-3608002D01*
X-2431301Y-3607999D01*
X-2431303Y-3607998D01*
X-2431306Y-3607997D01*
X-2592291Y-3554652D01*
X-2691648Y-3544501D01*
X-3205041Y-3544501D01*
X-3205049Y-3544501D01*
X-3238344Y-3544502D01*
X-3337708Y-3554652D01*
X-3371834Y-3565960D01*
X-3371841Y-3565961D01*
X-3498695Y-3607997D01*
X-3498700Y-3607999D01*
X-3612403Y-3678133D01*
X-3679796Y-3696573D01*
X-3742597Y-3678133D01*
X-3856301Y-3607999D01*
X-3856306Y-3607997D01*
X-3994494Y-3562206D01*
X-4051939Y-3522433D01*
X-4078762Y-3457917D01*
X-4066447Y-3389141D01*
X-4018904Y-3337942D01*
X-3955493Y-3320500D01*
X-3342128Y-3320500D01*
X-3282517Y-3314092D01*
X-3147669Y-3263797D01*
X-3032454Y-3177547D01*
X-2946204Y-3062332D01*
X-2895909Y-2927484D01*
X-2889500Y-2867874D01*
X-2889501Y556539D01*
X-2888069Y571787D01*
X-2889501Y581320D01*
X-2889501Y627871D01*
X-2895909Y687482D01*
X-2917330Y744914D01*
X-2946203Y822328D01*
X-2946207Y822335D01*
X-3032453Y937544D01*
X-3084857Y976774D01*
X-3084894Y976824D01*
X-3084952Y976845D01*
X-3106053Y1005090D01*
X-3126727Y1032708D01*
X-3126744Y1032786D01*
X-3126769Y1032819D01*
X-3126932Y1033650D01*
X-3134238Y1067314D01*
X-3134444Y1070222D01*
X-3134447Y1070971D01*
X-3137481Y1123725D01*
X-3138495Y1127654D01*
X-3139193Y1137550D01*
X-3138920Y1138801D01*
X-3139500Y1146276D01*
X-3139500Y1503920D01*
X-3168341Y1648907D01*
X-3168342Y1648908D01*
X-3168342Y1648912D01*
X-3169788Y1652403D01*
X-3224913Y1785488D01*
X-3224917Y1785495D01*
X-3245486Y1816279D01*
X-3261279Y1839915D01*
X-3278572Y1865797D01*
X-3307044Y1908410D01*
X-3307048Y1908415D01*
X-3711579Y2312947D01*
X-3711580Y2312948D01*
X-3752953Y2340592D01*
X-3822730Y2387215D01*
X-3834505Y2395083D01*
X-3834510Y2395086D01*
X-3971083Y2451656D01*
X-3971093Y2451659D01*
X-4116080Y2480499D01*
X-4116082Y2480499D01*
X-7777770Y2480499D01*
X-7807211Y2489144D01*
X-7837197Y2495667D01*
X-7842213Y2499422D01*
X-7844809Y2500184D01*
X-7865451Y2516818D01*
X-7928933Y2580300D01*
X-7962418Y2641623D01*
X-7964489Y2678489D01*
X-7964661Y2678497D01*
X-7964580Y2680099D01*
X-7964608Y2680601D01*
X-7964500Y2681654D01*
X-7964501Y3278343D01*
X-7974651Y3377707D01*
X-8027997Y3538696D01*
X-8028001Y3538702D01*
X-8028002Y3538705D01*
X-8117030Y3683040D01*
X-8117033Y3683044D01*
X-8236956Y3802967D01*
X-8236960Y3802970D01*
X-8381295Y3891998D01*
X-8381301Y3892001D01*
X-8381303Y3892002D01*
X-8381306Y3892003D01*
X-8542291Y3945348D01*
X-8641654Y3955499D01*
X-9188338Y3955499D01*
X-9188356Y3955498D01*
X-9287708Y3945349D01*
X-9287711Y3945348D01*
X-9448695Y3892003D01*
X-9448706Y3891998D01*
X-9593041Y3802970D01*
X-9593045Y3802967D01*
X-9712968Y3683044D01*
X-9712971Y3683040D01*
X-9801999Y3538705D01*
X-9802004Y3538694D01*
X-9855349Y3377709D01*
X-9865500Y3278352D01*
X-9865500Y2681662D01*
X-9865499Y2681644D01*
X-9855350Y2582292D01*
X-9855349Y2582289D01*
X-9802004Y2421305D01*
X-9801999Y2421294D01*
X-9712971Y2276959D01*
X-9712970Y2276958D01*
X-9712968Y2276955D01*
X-9593045Y2157032D01*
X-9591569Y2155865D01*
X-9565372Y2127485D01*
X-9497952Y2026583D01*
X-9337163Y1865794D01*
X-9326543Y1846346D01*
X-9312035Y1829593D01*
X-9310125Y1816279D01*
X-9303679Y1804474D01*
X-9305260Y1782371D01*
X-9302112Y1760431D01*
X-9307704Y1748197D01*
X-9308663Y1734782D01*
X-9321943Y1717042D01*
X-9331156Y1696884D01*
X-9347862Y1682419D01*
X-9350534Y1678848D01*
X-9357837Y1673780D01*
X-9391122Y1652403D01*
X-9397822Y1648392D01*
X-9463647Y1611752D01*
X-9463687Y1611731D01*
X-9463686Y1611730D01*
X-9511297Y1585228D01*
X-9518785Y1581387D01*
X-9633952Y1527163D01*
X-9642345Y1523582D01*
X-9733106Y1488751D01*
X-9742518Y1485566D01*
X-9829036Y1460098D01*
X-9839594Y1457487D01*
X-9892672Y1446808D01*
X-9892682Y1446808D01*
X-9901632Y1445006D01*
X-9913297Y1443231D01*
X-9976648Y1436658D01*
X-9977983Y1436527D01*
X-9982128Y1436143D01*
X-9996624Y1435770D01*
X-10035668Y1431173D01*
X-10037197Y1431030D01*
X-10037755Y1431139D01*
X-10048659Y1430499D01*
X-10537871Y1430499D01*
X-10537877Y1430498D01*
X-10597484Y1424091D01*
X-10732329Y1373797D01*
X-10732336Y1373793D01*
X-10847545Y1287547D01*
X-10847548Y1287544D01*
X-10933794Y1172335D01*
X-10933798Y1172328D01*
X-10984092Y1037482D01*
X-10990499Y977883D01*
X-10990500Y977864D01*
X-10990500Y-617871D01*
X-10990499Y-617877D01*
X-10984092Y-677484D01*
X-10933798Y-812329D01*
X-10933794Y-812336D01*
X-10847548Y-927545D01*
X-10847545Y-927548D01*
X-10732336Y-1013794D01*
X-10732329Y-1013798D01*
X-10597487Y-1064091D01*
X-10597486Y-1064091D01*
X-10597483Y-1064092D01*
X-10585212Y-1065411D01*
X-10570538Y-1071489D01*
X-10554697Y-1072682D01*
X-10538921Y-1084584D01*
X-10520663Y-1092147D01*
X-10510921Y-1105710D01*
X-10498922Y-1114763D01*
X-10482124Y-1145802D01*
X-10475999Y-1162414D01*
X-10474028Y-1167758D01*
X-10468503Y-1187765D01*
X-10448739Y-1292991D01*
X-10446783Y-1309292D01*
X-10445375Y-1335761D01*
X-10441052Y-1381920D01*
X-10441576Y-1381969D01*
X-10440500Y-1393545D01*
X-10440500Y-1707771D01*
X-10449145Y-1737208D01*
X-10455668Y-1767199D01*
X-10459423Y-1772214D01*
X-10460185Y-1774810D01*
X-10476820Y-1795453D01*
X-10521852Y-1840484D01*
X-10557249Y-1865241D01*
X-10614255Y-1891748D01*
X-10623910Y-1895751D01*
X-10697103Y-1922538D01*
X-10707342Y-1925790D01*
X-10771597Y-1943168D01*
X-10782468Y-1945589D01*
X-10842721Y-1956198D01*
X-10856251Y-1957820D01*
X-10959757Y-1964488D01*
X-10984247Y-1968143D01*
X-11002549Y-1969501D01*
X-11337870Y-1969501D01*
X-11337877Y-1969502D01*
X-11397484Y-1975909D01*
X-11532329Y-2026203D01*
X-11532336Y-2026207D01*
X-11647545Y-2112453D01*
X-11647548Y-2112456D01*
X-11733794Y-2227665D01*
X-11733798Y-2227672D01*
X-11784092Y-2362518D01*
X-11787100Y-2390501D01*
X-11790499Y-2422124D01*
X-11790500Y-2422136D01*
X-11790500Y-3717871D01*
X-11790499Y-3717877D01*
X-11784092Y-3777484D01*
X-11733798Y-3912329D01*
X-11733794Y-3912336D01*
X-11647548Y-4027545D01*
X-11647545Y-4027548D01*
X-11532336Y-4113794D01*
X-11532329Y-4113798D01*
X-11397483Y-4164092D01*
X-11397484Y-4164092D01*
X-11390556Y-4164836D01*
X-11337873Y-4170501D01*
X-10042128Y-4170500D01*
X-9982517Y-4164092D01*
X-9847669Y-4113797D01*
X-9764311Y-4051394D01*
X-9741832Y-4043010D01*
X-9721263Y-4030668D01*
X-9709694Y-4031023D01*
X-9698847Y-4026978D01*
X-9675406Y-4032077D01*
X-9651426Y-4032814D01*
X-9636615Y-4040515D01*
X-9630574Y-4041829D01*
X-9619787Y-4048455D01*
X-9617717Y-4049877D01*
X-9532331Y-4113797D01*
X-9515571Y-4120048D01*
X-9502994Y-4128688D01*
X-9490186Y-4144421D01*
X-9473945Y-4156577D01*
X-9468578Y-4170963D01*
X-9458883Y-4182873D01*
X-9456614Y-4203034D01*
X-9449524Y-4222040D01*
X-9449452Y-4223106D01*
X-9445194Y-4290772D01*
X-9443208Y-4310422D01*
X-9441975Y-4322626D01*
X-9441128Y-4331000D01*
X-9440500Y-4343467D01*
X-9440500Y-4640501D01*
X-9460185Y-4707540D01*
X-9512989Y-4753295D01*
X-9564500Y-4764501D01*
X-11177789Y-4764501D01*
X-11204353Y-4765805D01*
X-11227310Y-4766932D01*
X-11227348Y-4766935D01*
X-11251472Y-4769310D01*
X-11251523Y-4769316D01*
X-11300569Y-4776591D01*
X-11300587Y-4776594D01*
X-11300590Y-4776595D01*
X-11308172Y-4778103D01*
X-11360095Y-4788430D01*
X-11454930Y-4817198D01*
X-11499620Y-4835708D01*
X-11587008Y-4882418D01*
X-11587019Y-4882424D01*
X-11617193Y-4902586D01*
X-11625959Y-4908444D01*
X-11627116Y-4909217D01*
X-11627120Y-4909219D01*
X-11703724Y-4972087D01*
X-11737914Y-5006277D01*
X-11800782Y-5082881D01*
X-11800784Y-5082885D01*
X-11827577Y-5122982D01*
X-11827583Y-5122992D01*
X-11874295Y-5210386D01*
X-11874299Y-5210396D01*
X-11892804Y-5255073D01*
X-11921571Y-5349905D01*
X-11933409Y-5409425D01*
X-11940683Y-5458468D01*
X-11940684Y-5458475D01*
X-11943065Y-5482645D01*
X-11943065Y-5482654D01*
X-11943065Y-5482655D01*
X-11945500Y-5532211D01*
X-11945500Y-18315000D01*
X-11945500Y-19007790D01*
X-11943065Y-19057342D01*
X-11943065Y-19057346D01*
X-11943065Y-19057355D01*
X-11940685Y-19081512D01*
X-11940678Y-19081571D01*
X-11933408Y-19130574D01*
X-11933405Y-19130592D01*
X-11933404Y-19130597D01*
X-11927108Y-19162252D01*
X-11921568Y-19190101D01*
X-11892810Y-19284913D01*
X-11874298Y-19329608D01*
X-11874297Y-19329609D01*
X-11827581Y-19417012D01*
X-11827575Y-19417022D01*
X-11813393Y-19438247D01*
X-11800786Y-19457114D01*
X-11737920Y-19533715D01*
X-11737915Y-19533720D01*
X-11703720Y-19567916D01*
X-11665056Y-19599647D01*
X-11625722Y-19657393D01*
X-11623851Y-19727238D01*
X-11660039Y-19787006D01*
X-11722795Y-19817722D01*
X-11743721Y-19819500D01*
X-12695932Y-19819500D01*
X-12704042Y-19819235D01*
X-12958104Y-19802583D01*
X-12974185Y-19800465D01*
X-13007957Y-19793747D01*
X-13219889Y-19751591D01*
X-13235555Y-19747393D01*
X-13472786Y-19666864D01*
X-13487772Y-19660657D01*
X-13712460Y-19549853D01*
X-13726507Y-19541743D01*
X-13913158Y-19417027D01*
X-13934813Y-19402558D01*
X-13947679Y-19392685D01*
X-14136034Y-19227502D01*
X-14147503Y-19216033D01*
X-14312688Y-19027676D01*
X-14322562Y-19014808D01*
X-14327251Y-19007790D01*
X-14461745Y-18806505D01*
X-14469851Y-18792464D01*
X-14580659Y-18567769D01*
X-14586866Y-18552783D01*
X-14667393Y-18315557D01*
X-14671591Y-18299890D01*
X-14680263Y-18256291D01*
X-14720467Y-18054174D01*
X-14722582Y-18038116D01*
X-14739236Y-17784024D01*
X-14739500Y-17775919D01*
X-14739500Y17775933D01*
X-14739235Y17784042D01*
X-14735181Y17845891D01*
X-14722583Y18038116D01*
X-14720469Y18054170D01*
X-14671591Y18299894D01*
X-14667394Y18315555D01*
X-14604746Y18500109D01*
X-14586863Y18552794D01*
X-14580664Y18567760D01*
X-14469851Y18792466D01*
X-14461745Y18806505D01*
X-14322552Y19014823D01*
X-14312695Y19027669D01*
X-14147498Y19216040D01*
X-14136040Y19227498D01*
X-13947670Y19392694D01*
X-13934824Y19402551D01*
X-13726502Y19541747D01*
X-13712467Y19549850D01*
X-13487762Y19660662D01*
X-13472791Y19666863D01*
X-13235548Y19747396D01*
X-13219901Y19751589D01*
X-12974172Y19800467D01*
X-12958118Y19802582D01*
X-12704024Y19819236D01*
X-12695920Y19819500D01*
X-12634107Y19819500D01*
X12634107Y19819500D01*
X12695932Y19819500D01*
X12704041Y19819235D01*
G37*
%TD.AperFunction*%
%TA.AperFunction,Conductor*%
G36*
X3114490Y-56292D02*
G01*
X3139860Y-64699D01*
X3165943Y-76862D01*
X3185046Y-88645D01*
X3207621Y-106496D01*
X3223496Y-122370D01*
X3241356Y-144956D01*
X3253136Y-164054D01*
X3265302Y-190143D01*
X3273705Y-215501D01*
X3279999Y-254504D01*
X3279999Y-735496D01*
X3273704Y-774502D01*
X3265304Y-799850D01*
X3253137Y-825941D01*
X3241351Y-845049D01*
X3223494Y-867633D01*
X3207632Y-883495D01*
X3185048Y-901352D01*
X3165940Y-913138D01*
X3139849Y-925305D01*
X3114501Y-933705D01*
X3075495Y-940000D01*
X2544505Y-940000D01*
X2541711Y-939549D01*
X2540239Y-939927D01*
X2505498Y-933705D01*
X2480142Y-925302D01*
X2454053Y-913136D01*
X2434959Y-901359D01*
X2412374Y-883501D01*
X2396500Y-867627D01*
X2378644Y-845045D01*
X2366863Y-825946D01*
X2354693Y-799847D01*
X2346293Y-774495D01*
X2340000Y-735495D01*
X2340000Y-254503D01*
X2340450Y-251712D01*
X2340073Y-250243D01*
X2346291Y-215508D01*
X2354697Y-190140D01*
X2366861Y-164056D01*
X2378640Y-144959D01*
X2396494Y-122378D01*
X2412377Y-106496D01*
X2434947Y-88649D01*
X2454058Y-76861D01*
X2480140Y-64698D01*
X2505508Y-56292D01*
X2544504Y-50001D01*
X3075495Y-50001D01*
X3114490Y-56292D01*
G37*
%TD.AperFunction*%
%TD*%
%TA.AperFunction,Conductor*%
%TO.N,+12V*%
G36*
X-2178020Y18977616D02*
G01*
X-2118520Y18965781D01*
X-2073825Y18947269D01*
X-2033728Y18920477D01*
X-2027836Y18914585D01*
X-2023104Y18912525D01*
X-1999524Y18886273D01*
X-1972733Y18846177D01*
X-1954219Y18801482D01*
X-1950458Y18782572D01*
X-1942383Y18741980D01*
X-1940000Y18717789D01*
X-1940000Y18245507D01*
X-1957862Y18182167D01*
X-1957839Y18182155D01*
X-1957898Y18182040D01*
X-1958269Y18180723D01*
X-1960049Y18177820D01*
X-2056556Y17988414D01*
X-2122247Y17786239D01*
X-2155500Y17576286D01*
X-2155500Y17363713D01*
X-2122247Y17153760D01*
X-2056556Y16951585D01*
X-1960052Y16762184D01*
X-1958273Y16759282D01*
X-1957902Y16757965D01*
X-1957839Y16757842D01*
X-1957864Y16757830D01*
X-1940000Y16694491D01*
X-1940000Y15979999D01*
X8547789Y15979999D01*
X8571980Y15977616D01*
X8631480Y15965781D01*
X8676175Y15947269D01*
X8716272Y15920477D01*
X8750477Y15886272D01*
X8777267Y15846177D01*
X8795781Y15801482D01*
X8807617Y15741977D01*
X8810000Y15717789D01*
X8810000Y2479999D01*
X3560000Y2479999D01*
X3560000Y4837893D01*
X3579685Y4904932D01*
X3584734Y4912205D01*
X3603796Y4937668D01*
X3654091Y5072516D01*
X3660500Y5132126D01*
X3660499Y13827871D01*
X3654091Y13887482D01*
X3603796Y14022330D01*
X3584733Y14047795D01*
X3560316Y14113260D01*
X3560000Y14122106D01*
X3560000Y14229999D01*
X3408069Y14229999D01*
X3364736Y14237817D01*
X3267482Y14274091D01*
X3267483Y14274091D01*
X3207883Y14280498D01*
X3207881Y14280499D01*
X3207873Y14280499D01*
X3207864Y14280499D01*
X-7587871Y14280499D01*
X-7587877Y14280498D01*
X-7647484Y14274091D01*
X-7744736Y14237817D01*
X-7788069Y14229999D01*
X-9677789Y14229999D01*
X-9701980Y14232382D01*
X-9716811Y14235332D01*
X-9761482Y14244218D01*
X-9806178Y14262732D01*
X-9846273Y14289522D01*
X-9880478Y14323727D01*
X-9907270Y14363824D01*
X-9925782Y14408519D01*
X-9937617Y14468019D01*
X-9940000Y14492210D01*
X-9940000Y18717789D01*
X-9937617Y18741980D01*
X-9925781Y18801482D01*
X-9907271Y18846173D01*
X-9880476Y18886275D01*
X-9846276Y18920475D01*
X-9806174Y18947270D01*
X-9761486Y18965780D01*
X-9701972Y18977618D01*
X-9677789Y18979999D01*
X-2202211Y18979999D01*
X-2178020Y18977616D01*
G37*
%TD.AperFunction*%
%TD*%
%TA.AperFunction,Conductor*%
%TO.N,+24V*%
G36*
X-6675335Y-5289686D02*
G01*
X-6654693Y-5306320D01*
X-6618045Y-5342968D01*
X-6618041Y-5342971D01*
X-6473706Y-5431999D01*
X-6473703Y-5432000D01*
X-6473697Y-5432004D01*
X-6312708Y-5485350D01*
X-6306901Y-5485943D01*
X-6242211Y-5512335D01*
X-6202056Y-5569514D01*
X-6195500Y-5609301D01*
X-6195500Y-5609863D01*
X-6195500Y-10757790D01*
X-6193065Y-10807342D01*
X-6193065Y-10807346D01*
X-6193065Y-10807355D01*
X-6190685Y-10831512D01*
X-6190678Y-10831571D01*
X-6183408Y-10880574D01*
X-6183405Y-10880592D01*
X-6171568Y-10940101D01*
X-6142810Y-11034913D01*
X-6124298Y-11079608D01*
X-6124297Y-11079609D01*
X-6124296Y-11079611D01*
X-6077578Y-11167017D01*
X-6050786Y-11207114D01*
X-5987920Y-11283715D01*
X-5987915Y-11283720D01*
X-5953720Y-11317916D01*
X-5953715Y-11317920D01*
X-5877109Y-11380789D01*
X-5877102Y-11380793D01*
X-5877096Y-11380798D01*
X-5837026Y-11407572D01*
X-5837017Y-11407577D01*
X-5837014Y-11407579D01*
X-5749627Y-11454288D01*
X-5727279Y-11463545D01*
X-5704939Y-11472799D01*
X-5704937Y-11472799D01*
X-5704931Y-11472802D01*
X-5610103Y-11501568D01*
X-5550601Y-11513404D01*
X-5550567Y-11513409D01*
X-5501553Y-11520681D01*
X-5501539Y-11520682D01*
X-5501536Y-11520683D01*
X-5477345Y-11523066D01*
X-5427789Y-11525501D01*
X-5427775Y-11525501D01*
X5297776Y-11525501D01*
X5297789Y-11525501D01*
X5347349Y-11523066D01*
X5371538Y-11520683D01*
X5420596Y-11513405D01*
X5480100Y-11501569D01*
X5574928Y-11472803D01*
X5619625Y-11454289D01*
X5698827Y-11411953D01*
X5767229Y-11397711D01*
X5828434Y-11421162D01*
X5828684Y-11420775D01*
X5830545Y-11421971D01*
X5832473Y-11422710D01*
X5835408Y-11425096D01*
X5836138Y-11425565D01*
X5836141Y-11425568D01*
X5836144Y-11425569D01*
X5836145Y-11425570D01*
X5939568Y-11472803D01*
X5967018Y-11485339D01*
X6034057Y-11505024D01*
X6034061Y-11505025D01*
X6176477Y-11525501D01*
X6176480Y-11525501D01*
X11186000Y-11525501D01*
X11253039Y-11545186D01*
X11298794Y-11597990D01*
X11310000Y-11649501D01*
X11310000Y-19007790D01*
X11307617Y-19031981D01*
X11307617Y-19031983D01*
X11295781Y-19091483D01*
X11277267Y-19136180D01*
X11250481Y-19176269D01*
X11216269Y-19210480D01*
X11181975Y-19233395D01*
X11176179Y-19237268D01*
X11131482Y-19255782D01*
X11097857Y-19262470D01*
X11071978Y-19267618D01*
X11047789Y-19270001D01*
X-11177789Y-19270001D01*
X-11201980Y-19267618D01*
X-11216811Y-19264668D01*
X-11261482Y-19255782D01*
X-11306178Y-19237268D01*
X-11346273Y-19210478D01*
X-11380478Y-19176273D01*
X-11407270Y-19136176D01*
X-11425782Y-19091481D01*
X-11437617Y-19031981D01*
X-11440000Y-19007790D01*
X-11440000Y-16572136D01*
X-9775500Y-16572136D01*
X-9775500Y-18367871D01*
X-9775499Y-18367877D01*
X-9769092Y-18427484D01*
X-9718798Y-18562329D01*
X-9718794Y-18562336D01*
X-9632548Y-18677545D01*
X-9632545Y-18677548D01*
X-9517336Y-18763794D01*
X-9517329Y-18763798D01*
X-9382483Y-18814092D01*
X-9382484Y-18814092D01*
X-9375556Y-18814836D01*
X-9322873Y-18820501D01*
X-7527128Y-18820500D01*
X-7467517Y-18814092D01*
X-7332669Y-18763797D01*
X-7217454Y-18677547D01*
X-7131204Y-18562332D01*
X-7082190Y-18430917D01*
X-7040319Y-18374985D01*
X-6974855Y-18350567D01*
X-6906582Y-18365418D01*
X-6878327Y-18386570D01*
X-6764787Y-18500110D01*
X-6592821Y-18625049D01*
X-6592819Y-18625050D01*
X-6592816Y-18625052D01*
X-6403412Y-18721558D01*
X-6201243Y-18787247D01*
X-5991287Y-18820501D01*
X-5991286Y-18820501D01*
X-5778714Y-18820501D01*
X-5778713Y-18820501D01*
X-5568757Y-18787247D01*
X-5366588Y-18721558D01*
X-5177184Y-18625052D01*
X-5090862Y-18562336D01*
X-5005214Y-18500110D01*
X-5005212Y-18500107D01*
X-5005208Y-18500105D01*
X-4854896Y-18349793D01*
X-4854894Y-18349789D01*
X-4854891Y-18349787D01*
X-4729952Y-18177821D01*
X-4729953Y-18177821D01*
X-4729949Y-18177817D01*
X-4633443Y-17988413D01*
X-4567754Y-17786244D01*
X-4534500Y-17576288D01*
X-4534500Y-17363714D01*
X5464500Y-17363714D01*
X5464500Y-17576287D01*
X5497753Y-17786240D01*
X5563444Y-17988415D01*
X5659951Y-18177821D01*
X5784890Y-18349787D01*
X5935213Y-18500110D01*
X6107179Y-18625049D01*
X6107181Y-18625050D01*
X6107184Y-18625052D01*
X6296588Y-18721558D01*
X6498757Y-18787247D01*
X6708713Y-18820501D01*
X6708714Y-18820501D01*
X6921286Y-18820501D01*
X6921287Y-18820501D01*
X7131243Y-18787247D01*
X7333412Y-18721558D01*
X7522816Y-18625052D01*
X7609138Y-18562336D01*
X7694786Y-18500110D01*
X7694788Y-18500107D01*
X7694792Y-18500105D01*
X7845104Y-18349793D01*
X7845106Y-18349789D01*
X7845109Y-18349787D01*
X7970048Y-18177821D01*
X7970047Y-18177821D01*
X7970051Y-18177817D01*
X7974514Y-18169055D01*
X8022488Y-18118260D01*
X8090308Y-18101464D01*
X8156444Y-18124000D01*
X8195486Y-18169057D01*
X8199951Y-18177821D01*
X8324890Y-18349787D01*
X8475213Y-18500110D01*
X8647179Y-18625049D01*
X8647181Y-18625050D01*
X8647184Y-18625052D01*
X8836588Y-18721558D01*
X9038757Y-18787247D01*
X9248713Y-18820501D01*
X9248714Y-18820501D01*
X9461286Y-18820501D01*
X9461287Y-18820501D01*
X9671243Y-18787247D01*
X9873412Y-18721558D01*
X10062816Y-18625052D01*
X10149138Y-18562336D01*
X10234786Y-18500110D01*
X10234788Y-18500107D01*
X10234792Y-18500105D01*
X10385104Y-18349793D01*
X10385106Y-18349789D01*
X10385109Y-18349787D01*
X10510048Y-18177821D01*
X10510047Y-18177821D01*
X10510051Y-18177817D01*
X10606557Y-17988413D01*
X10672246Y-17786244D01*
X10705500Y-17576288D01*
X10705500Y-17363714D01*
X10672246Y-17153758D01*
X10606557Y-16951589D01*
X10510051Y-16762185D01*
X10510049Y-16762182D01*
X10510048Y-16762180D01*
X10385109Y-16590214D01*
X10234786Y-16439891D01*
X10062820Y-16314952D01*
X9873414Y-16218445D01*
X9873413Y-16218444D01*
X9873412Y-16218444D01*
X9671243Y-16152755D01*
X9671241Y-16152754D01*
X9671240Y-16152754D01*
X9509957Y-16127209D01*
X9461287Y-16119501D01*
X9248713Y-16119501D01*
X9200042Y-16127209D01*
X9038760Y-16152754D01*
X8836585Y-16218445D01*
X8647179Y-16314952D01*
X8475213Y-16439891D01*
X8324890Y-16590214D01*
X8199949Y-16762183D01*
X8195484Y-16770947D01*
X8147509Y-16821743D01*
X8079688Y-16838537D01*
X8013553Y-16815999D01*
X7974516Y-16770947D01*
X7970050Y-16762183D01*
X7845109Y-16590214D01*
X7694786Y-16439891D01*
X7522820Y-16314952D01*
X7333414Y-16218445D01*
X7333413Y-16218444D01*
X7333412Y-16218444D01*
X7131243Y-16152755D01*
X7131241Y-16152754D01*
X7131240Y-16152754D01*
X6969957Y-16127209D01*
X6921287Y-16119501D01*
X6708713Y-16119501D01*
X6660042Y-16127209D01*
X6498760Y-16152754D01*
X6296585Y-16218445D01*
X6107179Y-16314952D01*
X5935213Y-16439891D01*
X5784890Y-16590214D01*
X5659951Y-16762180D01*
X5563444Y-16951586D01*
X5497753Y-17153761D01*
X5464500Y-17363714D01*
X-4534500Y-17363714D01*
X-4567754Y-17153758D01*
X-4633443Y-16951589D01*
X-4729949Y-16762185D01*
X-4729951Y-16762182D01*
X-4729952Y-16762180D01*
X-4854891Y-16590214D01*
X-5005214Y-16439891D01*
X-5177180Y-16314952D01*
X-5366586Y-16218445D01*
X-5366587Y-16218444D01*
X-5366588Y-16218444D01*
X-5568757Y-16152755D01*
X-5568759Y-16152754D01*
X-5568760Y-16152754D01*
X-5730043Y-16127209D01*
X-5778713Y-16119501D01*
X-5991287Y-16119501D01*
X-6039958Y-16127209D01*
X-6201240Y-16152754D01*
X-6403415Y-16218445D01*
X-6592821Y-16314952D01*
X-6764785Y-16439890D01*
X-6878327Y-16553432D01*
X-6939650Y-16586916D01*
X-7009342Y-16581932D01*
X-7065275Y-16540060D01*
X-7082190Y-16509083D01*
X-7131203Y-16377672D01*
X-7131207Y-16377665D01*
X-7217453Y-16262456D01*
X-7217456Y-16262453D01*
X-7332665Y-16176207D01*
X-7332672Y-16176203D01*
X-7467518Y-16125909D01*
X-7467517Y-16125909D01*
X-7527117Y-16119502D01*
X-7527119Y-16119501D01*
X-7527127Y-16119501D01*
X-7527136Y-16119501D01*
X-9322871Y-16119501D01*
X-9322877Y-16119502D01*
X-9382484Y-16125909D01*
X-9517329Y-16176203D01*
X-9517336Y-16176207D01*
X-9632545Y-16262453D01*
X-9632548Y-16262456D01*
X-9718794Y-16377665D01*
X-9718798Y-16377672D01*
X-9769092Y-16512518D01*
X-9775499Y-16572117D01*
X-9775500Y-16572136D01*
X-11440000Y-16572136D01*
X-11440000Y-5532211D01*
X-11437617Y-5508020D01*
X-11425782Y-5448518D01*
X-11407271Y-5403827D01*
X-11380476Y-5363725D01*
X-11346276Y-5329525D01*
X-11306174Y-5302730D01*
X-11261486Y-5284220D01*
X-11201972Y-5272382D01*
X-11177789Y-5270001D01*
X-6742374Y-5270001D01*
X-6675335Y-5289686D01*
G37*
%TD.AperFunction*%
%TD*%
M02*
