%TF.GenerationSoftware,KiCad,Pcbnew,9.0.5*%
%TF.CreationDate,2025-12-02T20:43:54+08:00*%
%TF.ProjectId,boost,626f6f73-742e-46b6-9963-61645f706362,rev?*%
%TF.SameCoordinates,Original*%
%TF.FileFunction,Legend,Bot*%
%TF.FilePolarity,Positive*%
%FSLAX46Y46*%
G04 Gerber Fmt 4.6, Leading zero omitted, Abs format (unit mm)*
G04 Created by KiCad (PCBNEW 9.0.5) date 2025-12-02 20:43:54*
%MOMM*%
%LPD*%
G01*
G04 APERTURE LIST*
G04 Aperture macros list*
%AMRoundRect*
0 Rectangle with rounded corners*
0 $1 Rounding radius*
0 $2 $3 $4 $5 $6 $7 $8 $9 X,Y pos of 4 corners*
0 Add a 4 corners polygon primitive as box body*
4,1,4,$2,$3,$4,$5,$6,$7,$8,$9,$2,$3,0*
0 Add four circle primitives for the rounded corners*
1,1,$1+$1,$2,$3*
1,1,$1+$1,$4,$5*
1,1,$1+$1,$6,$7*
1,1,$1+$1,$8,$9*
0 Add four rect primitives between the rounded corners*
20,1,$1+$1,$2,$3,$4,$5,0*
20,1,$1+$1,$4,$5,$6,$7,0*
20,1,$1+$1,$6,$7,$8,$9,0*
20,1,$1+$1,$8,$9,$2,$3,0*%
G04 Aperture macros list end*
%ADD10C,0.200000*%
%ADD11R,1.700000X1.700000*%
%ADD12O,1.700000X1.700000*%
%ADD13C,0.800000*%
%ADD14RoundRect,0.250000X-0.550000X-0.550000X0.550000X-0.550000X0.550000X0.550000X-0.550000X0.550000X0*%
%ADD15C,1.600000*%
%ADD16R,2.000000X2.000000*%
%ADD17C,2.000000*%
G04 APERTURE END LIST*
D10*
X8428572Y-13452219D02*
X8428572Y-12452219D01*
X8428572Y-12452219D02*
X8190477Y-12452219D01*
X8190477Y-12452219D02*
X8047620Y-12499838D01*
X8047620Y-12499838D02*
X7952382Y-12595076D01*
X7952382Y-12595076D02*
X7904763Y-12690314D01*
X7904763Y-12690314D02*
X7857144Y-12880790D01*
X7857144Y-12880790D02*
X7857144Y-13023647D01*
X7857144Y-13023647D02*
X7904763Y-13214123D01*
X7904763Y-13214123D02*
X7952382Y-13309361D01*
X7952382Y-13309361D02*
X8047620Y-13404600D01*
X8047620Y-13404600D02*
X8190477Y-13452219D01*
X8190477Y-13452219D02*
X8428572Y-13452219D01*
X7047620Y-13404600D02*
X7142858Y-13452219D01*
X7142858Y-13452219D02*
X7333334Y-13452219D01*
X7333334Y-13452219D02*
X7428572Y-13404600D01*
X7428572Y-13404600D02*
X7476191Y-13309361D01*
X7476191Y-13309361D02*
X7476191Y-12928409D01*
X7476191Y-12928409D02*
X7428572Y-12833171D01*
X7428572Y-12833171D02*
X7333334Y-12785552D01*
X7333334Y-12785552D02*
X7142858Y-12785552D01*
X7142858Y-12785552D02*
X7047620Y-12833171D01*
X7047620Y-12833171D02*
X7000001Y-12928409D01*
X7000001Y-12928409D02*
X7000001Y-13023647D01*
X7000001Y-13023647D02*
X7476191Y-13118885D01*
X6619048Y-13404600D02*
X6523810Y-13452219D01*
X6523810Y-13452219D02*
X6333334Y-13452219D01*
X6333334Y-13452219D02*
X6238096Y-13404600D01*
X6238096Y-13404600D02*
X6190477Y-13309361D01*
X6190477Y-13309361D02*
X6190477Y-13261742D01*
X6190477Y-13261742D02*
X6238096Y-13166504D01*
X6238096Y-13166504D02*
X6333334Y-13118885D01*
X6333334Y-13118885D02*
X6476191Y-13118885D01*
X6476191Y-13118885D02*
X6571429Y-13071266D01*
X6571429Y-13071266D02*
X6619048Y-12976028D01*
X6619048Y-12976028D02*
X6619048Y-12928409D01*
X6619048Y-12928409D02*
X6571429Y-12833171D01*
X6571429Y-12833171D02*
X6476191Y-12785552D01*
X6476191Y-12785552D02*
X6333334Y-12785552D01*
X6333334Y-12785552D02*
X6238096Y-12833171D01*
X5761905Y-13452219D02*
X5761905Y-12785552D01*
X5761905Y-12452219D02*
X5809524Y-12499838D01*
X5809524Y-12499838D02*
X5761905Y-12547457D01*
X5761905Y-12547457D02*
X5714286Y-12499838D01*
X5714286Y-12499838D02*
X5761905Y-12452219D01*
X5761905Y-12452219D02*
X5761905Y-12547457D01*
X4857144Y-12785552D02*
X4857144Y-13595076D01*
X4857144Y-13595076D02*
X4904763Y-13690314D01*
X4904763Y-13690314D02*
X4952382Y-13737933D01*
X4952382Y-13737933D02*
X5047620Y-13785552D01*
X5047620Y-13785552D02*
X5190477Y-13785552D01*
X5190477Y-13785552D02*
X5285715Y-13737933D01*
X4857144Y-13404600D02*
X4952382Y-13452219D01*
X4952382Y-13452219D02*
X5142858Y-13452219D01*
X5142858Y-13452219D02*
X5238096Y-13404600D01*
X5238096Y-13404600D02*
X5285715Y-13356980D01*
X5285715Y-13356980D02*
X5333334Y-13261742D01*
X5333334Y-13261742D02*
X5333334Y-12976028D01*
X5333334Y-12976028D02*
X5285715Y-12880790D01*
X5285715Y-12880790D02*
X5238096Y-12833171D01*
X5238096Y-12833171D02*
X5142858Y-12785552D01*
X5142858Y-12785552D02*
X4952382Y-12785552D01*
X4952382Y-12785552D02*
X4857144Y-12833171D01*
X4380953Y-12785552D02*
X4380953Y-13452219D01*
X4380953Y-12880790D02*
X4333334Y-12833171D01*
X4333334Y-12833171D02*
X4238096Y-12785552D01*
X4238096Y-12785552D02*
X4095239Y-12785552D01*
X4095239Y-12785552D02*
X4000001Y-12833171D01*
X4000001Y-12833171D02*
X3952382Y-12928409D01*
X3952382Y-12928409D02*
X3952382Y-13452219D01*
X2380953Y-12928409D02*
X2238096Y-12976028D01*
X2238096Y-12976028D02*
X2190477Y-13023647D01*
X2190477Y-13023647D02*
X2142858Y-13118885D01*
X2142858Y-13118885D02*
X2142858Y-13261742D01*
X2142858Y-13261742D02*
X2190477Y-13356980D01*
X2190477Y-13356980D02*
X2238096Y-13404600D01*
X2238096Y-13404600D02*
X2333334Y-13452219D01*
X2333334Y-13452219D02*
X2714286Y-13452219D01*
X2714286Y-13452219D02*
X2714286Y-12452219D01*
X2714286Y-12452219D02*
X2380953Y-12452219D01*
X2380953Y-12452219D02*
X2285715Y-12499838D01*
X2285715Y-12499838D02*
X2238096Y-12547457D01*
X2238096Y-12547457D02*
X2190477Y-12642695D01*
X2190477Y-12642695D02*
X2190477Y-12737933D01*
X2190477Y-12737933D02*
X2238096Y-12833171D01*
X2238096Y-12833171D02*
X2285715Y-12880790D01*
X2285715Y-12880790D02*
X2380953Y-12928409D01*
X2380953Y-12928409D02*
X2714286Y-12928409D01*
X1809524Y-12785552D02*
X1571429Y-13452219D01*
X1333334Y-12785552D02*
X1571429Y-13452219D01*
X1571429Y-13452219D02*
X1666667Y-13690314D01*
X1666667Y-13690314D02*
X1714286Y-13737933D01*
X1714286Y-13737933D02*
X1809524Y-13785552D01*
X190476Y-12928409D02*
X-142857Y-12928409D01*
X-285714Y-13452219D02*
X190476Y-13452219D01*
X190476Y-13452219D02*
X190476Y-12452219D01*
X190476Y-12452219D02*
X-285714Y-12452219D01*
X-1142857Y-12785552D02*
X-1142857Y-13452219D01*
X-714286Y-12785552D02*
X-714286Y-13309361D01*
X-714286Y-13309361D02*
X-761905Y-13404600D01*
X-761905Y-13404600D02*
X-857143Y-13452219D01*
X-857143Y-13452219D02*
X-1000000Y-13452219D01*
X-1000000Y-13452219D02*
X-1095238Y-13404600D01*
X-1095238Y-13404600D02*
X-1142857Y-13356980D01*
X-1571429Y-13404600D02*
X-1666667Y-13452219D01*
X-1666667Y-13452219D02*
X-1857143Y-13452219D01*
X-1857143Y-13452219D02*
X-1952381Y-13404600D01*
X-1952381Y-13404600D02*
X-2000000Y-13309361D01*
X-2000000Y-13309361D02*
X-2000000Y-13261742D01*
X-2000000Y-13261742D02*
X-1952381Y-13166504D01*
X-1952381Y-13166504D02*
X-1857143Y-13118885D01*
X-1857143Y-13118885D02*
X-1714286Y-13118885D01*
X-1714286Y-13118885D02*
X-1619048Y-13071266D01*
X-1619048Y-13071266D02*
X-1571429Y-12976028D01*
X-1571429Y-12976028D02*
X-1571429Y-12928409D01*
X-1571429Y-12928409D02*
X-1619048Y-12833171D01*
X-1619048Y-12833171D02*
X-1714286Y-12785552D01*
X-1714286Y-12785552D02*
X-1857143Y-12785552D01*
X-1857143Y-12785552D02*
X-1952381Y-12833171D01*
X-2285715Y-12785552D02*
X-2666667Y-12785552D01*
X-2428572Y-12452219D02*
X-2428572Y-13309361D01*
X-2428572Y-13309361D02*
X-2476191Y-13404600D01*
X-2476191Y-13404600D02*
X-2571429Y-13452219D01*
X-2571429Y-13452219D02*
X-2666667Y-13452219D01*
X-3142858Y-13452219D02*
X-3047620Y-13404600D01*
X-3047620Y-13404600D02*
X-3000001Y-13356980D01*
X-3000001Y-13356980D02*
X-2952382Y-13261742D01*
X-2952382Y-13261742D02*
X-2952382Y-12976028D01*
X-2952382Y-12976028D02*
X-3000001Y-12880790D01*
X-3000001Y-12880790D02*
X-3047620Y-12833171D01*
X-3047620Y-12833171D02*
X-3142858Y-12785552D01*
X-3142858Y-12785552D02*
X-3285715Y-12785552D01*
X-3285715Y-12785552D02*
X-3380953Y-12833171D01*
X-3380953Y-12833171D02*
X-3428572Y-12880790D01*
X-3428572Y-12880790D02*
X-3476191Y-12976028D01*
X-3476191Y-12976028D02*
X-3476191Y-13261742D01*
X-3476191Y-13261742D02*
X-3428572Y-13356980D01*
X-3428572Y-13356980D02*
X-3380953Y-13404600D01*
X-3380953Y-13404600D02*
X-3285715Y-13452219D01*
X-3285715Y-13452219D02*
X-3142858Y-13452219D01*
X-3904763Y-12785552D02*
X-3904763Y-13452219D01*
X-3904763Y-12880790D02*
X-3952382Y-12833171D01*
X-3952382Y-12833171D02*
X-4047620Y-12785552D01*
X-4047620Y-12785552D02*
X-4190477Y-12785552D01*
X-4190477Y-12785552D02*
X-4285715Y-12833171D01*
X-4285715Y-12833171D02*
X-4333334Y-12928409D01*
X-4333334Y-12928409D02*
X-4333334Y-13452219D01*
X-5428573Y-12452219D02*
X-6000001Y-12452219D01*
X-5714287Y-13452219D02*
X-5714287Y-12452219D01*
X-6761906Y-13452219D02*
X-6761906Y-12928409D01*
X-6761906Y-12928409D02*
X-6714287Y-12833171D01*
X-6714287Y-12833171D02*
X-6619049Y-12785552D01*
X-6619049Y-12785552D02*
X-6428573Y-12785552D01*
X-6428573Y-12785552D02*
X-6333335Y-12833171D01*
X-6761906Y-13404600D02*
X-6666668Y-13452219D01*
X-6666668Y-13452219D02*
X-6428573Y-13452219D01*
X-6428573Y-13452219D02*
X-6333335Y-13404600D01*
X-6333335Y-13404600D02*
X-6285716Y-13309361D01*
X-6285716Y-13309361D02*
X-6285716Y-13214123D01*
X-6285716Y-13214123D02*
X-6333335Y-13118885D01*
X-6333335Y-13118885D02*
X-6428573Y-13071266D01*
X-6428573Y-13071266D02*
X-6666668Y-13071266D01*
X-6666668Y-13071266D02*
X-6761906Y-13023647D01*
X-7238097Y-12785552D02*
X-7238097Y-13452219D01*
X-7238097Y-12880790D02*
X-7285716Y-12833171D01*
X-7285716Y-12833171D02*
X-7380954Y-12785552D01*
X-7380954Y-12785552D02*
X-7523811Y-12785552D01*
X-7523811Y-12785552D02*
X-7619049Y-12833171D01*
X-7619049Y-12833171D02*
X-7666668Y-12928409D01*
X-7666668Y-12928409D02*
X-7666668Y-13452219D01*
X9238095Y-2842275D02*
X9238095Y-1842275D01*
X9238095Y-2794656D02*
X9333333Y-2842275D01*
X9333333Y-2842275D02*
X9523809Y-2842275D01*
X9523809Y-2842275D02*
X9619047Y-2794656D01*
X9619047Y-2794656D02*
X9666666Y-2747036D01*
X9666666Y-2747036D02*
X9714285Y-2651798D01*
X9714285Y-2651798D02*
X9714285Y-2366084D01*
X9714285Y-2366084D02*
X9666666Y-2270846D01*
X9666666Y-2270846D02*
X9619047Y-2223227D01*
X9619047Y-2223227D02*
X9523809Y-2175608D01*
X9523809Y-2175608D02*
X9333333Y-2175608D01*
X9333333Y-2175608D02*
X9238095Y-2223227D01*
X8380952Y-2794656D02*
X8476190Y-2842275D01*
X8476190Y-2842275D02*
X8666666Y-2842275D01*
X8666666Y-2842275D02*
X8761904Y-2794656D01*
X8761904Y-2794656D02*
X8809523Y-2699417D01*
X8809523Y-2699417D02*
X8809523Y-2318465D01*
X8809523Y-2318465D02*
X8761904Y-2223227D01*
X8761904Y-2223227D02*
X8666666Y-2175608D01*
X8666666Y-2175608D02*
X8476190Y-2175608D01*
X8476190Y-2175608D02*
X8380952Y-2223227D01*
X8380952Y-2223227D02*
X8333333Y-2318465D01*
X8333333Y-2318465D02*
X8333333Y-2413703D01*
X8333333Y-2413703D02*
X8809523Y-2508941D01*
X7952380Y-2794656D02*
X7857142Y-2842275D01*
X7857142Y-2842275D02*
X7666666Y-2842275D01*
X7666666Y-2842275D02*
X7571428Y-2794656D01*
X7571428Y-2794656D02*
X7523809Y-2699417D01*
X7523809Y-2699417D02*
X7523809Y-2651798D01*
X7523809Y-2651798D02*
X7571428Y-2556560D01*
X7571428Y-2556560D02*
X7666666Y-2508941D01*
X7666666Y-2508941D02*
X7809523Y-2508941D01*
X7809523Y-2508941D02*
X7904761Y-2461322D01*
X7904761Y-2461322D02*
X7952380Y-2366084D01*
X7952380Y-2366084D02*
X7952380Y-2318465D01*
X7952380Y-2318465D02*
X7904761Y-2223227D01*
X7904761Y-2223227D02*
X7809523Y-2175608D01*
X7809523Y-2175608D02*
X7666666Y-2175608D01*
X7666666Y-2175608D02*
X7571428Y-2223227D01*
X7095237Y-2842275D02*
X7095237Y-2175608D01*
X7095237Y-1842275D02*
X7142856Y-1889894D01*
X7142856Y-1889894D02*
X7095237Y-1937513D01*
X7095237Y-1937513D02*
X7047618Y-1889894D01*
X7047618Y-1889894D02*
X7095237Y-1842275D01*
X7095237Y-1842275D02*
X7095237Y-1937513D01*
X6190476Y-2175608D02*
X6190476Y-2985132D01*
X6190476Y-2985132D02*
X6238095Y-3080370D01*
X6238095Y-3080370D02*
X6285714Y-3127989D01*
X6285714Y-3127989D02*
X6380952Y-3175608D01*
X6380952Y-3175608D02*
X6523809Y-3175608D01*
X6523809Y-3175608D02*
X6619047Y-3127989D01*
X6190476Y-2794656D02*
X6285714Y-2842275D01*
X6285714Y-2842275D02*
X6476190Y-2842275D01*
X6476190Y-2842275D02*
X6571428Y-2794656D01*
X6571428Y-2794656D02*
X6619047Y-2747036D01*
X6619047Y-2747036D02*
X6666666Y-2651798D01*
X6666666Y-2651798D02*
X6666666Y-2366084D01*
X6666666Y-2366084D02*
X6619047Y-2270846D01*
X6619047Y-2270846D02*
X6571428Y-2223227D01*
X6571428Y-2223227D02*
X6476190Y-2175608D01*
X6476190Y-2175608D02*
X6285714Y-2175608D01*
X6285714Y-2175608D02*
X6190476Y-2223227D01*
X5714285Y-2175608D02*
X5714285Y-2842275D01*
X5714285Y-2270846D02*
X5666666Y-2223227D01*
X5666666Y-2223227D02*
X5571428Y-2175608D01*
X5571428Y-2175608D02*
X5428571Y-2175608D01*
X5428571Y-2175608D02*
X5333333Y-2223227D01*
X5333333Y-2223227D02*
X5285714Y-2318465D01*
X5285714Y-2318465D02*
X5285714Y-2842275D01*
X3904761Y-2842275D02*
X3999999Y-2794656D01*
X3999999Y-2794656D02*
X4047618Y-2747036D01*
X4047618Y-2747036D02*
X4095237Y-2651798D01*
X4095237Y-2651798D02*
X4095237Y-2366084D01*
X4095237Y-2366084D02*
X4047618Y-2270846D01*
X4047618Y-2270846D02*
X3999999Y-2223227D01*
X3999999Y-2223227D02*
X3904761Y-2175608D01*
X3904761Y-2175608D02*
X3761904Y-2175608D01*
X3761904Y-2175608D02*
X3666666Y-2223227D01*
X3666666Y-2223227D02*
X3619047Y-2270846D01*
X3619047Y-2270846D02*
X3571428Y-2366084D01*
X3571428Y-2366084D02*
X3571428Y-2651798D01*
X3571428Y-2651798D02*
X3619047Y-2747036D01*
X3619047Y-2747036D02*
X3666666Y-2794656D01*
X3666666Y-2794656D02*
X3761904Y-2842275D01*
X3761904Y-2842275D02*
X3904761Y-2842275D01*
X3285713Y-2175608D02*
X2904761Y-2175608D01*
X3142856Y-2842275D02*
X3142856Y-1985132D01*
X3142856Y-1985132D02*
X3095237Y-1889894D01*
X3095237Y-1889894D02*
X2999999Y-1842275D01*
X2999999Y-1842275D02*
X2904761Y-1842275D01*
X1857141Y-1937513D02*
X1809522Y-1889894D01*
X1809522Y-1889894D02*
X1714284Y-1842275D01*
X1714284Y-1842275D02*
X1476189Y-1842275D01*
X1476189Y-1842275D02*
X1380951Y-1889894D01*
X1380951Y-1889894D02*
X1333332Y-1937513D01*
X1333332Y-1937513D02*
X1285713Y-2032751D01*
X1285713Y-2032751D02*
X1285713Y-2127989D01*
X1285713Y-2127989D02*
X1333332Y-2270846D01*
X1333332Y-2270846D02*
X1904760Y-2842275D01*
X1904760Y-2842275D02*
X1285713Y-2842275D01*
X857141Y-2461322D02*
X95237Y-2461322D01*
X-952382Y-2747036D02*
X-904763Y-2794656D01*
X-904763Y-2794656D02*
X-761906Y-2842275D01*
X-761906Y-2842275D02*
X-666668Y-2842275D01*
X-666668Y-2842275D02*
X-523811Y-2794656D01*
X-523811Y-2794656D02*
X-428573Y-2699417D01*
X-428573Y-2699417D02*
X-380954Y-2604179D01*
X-380954Y-2604179D02*
X-333335Y-2413703D01*
X-333335Y-2413703D02*
X-333335Y-2270846D01*
X-333335Y-2270846D02*
X-380954Y-2080370D01*
X-380954Y-2080370D02*
X-428573Y-1985132D01*
X-428573Y-1985132D02*
X-523811Y-1889894D01*
X-523811Y-1889894D02*
X-666668Y-1842275D01*
X-666668Y-1842275D02*
X-761906Y-1842275D01*
X-761906Y-1842275D02*
X-904763Y-1889894D01*
X-904763Y-1889894D02*
X-952382Y-1937513D01*
X-1380954Y-2842275D02*
X-1380954Y-1842275D01*
X-1809525Y-2842275D02*
X-1809525Y-2318465D01*
X-1809525Y-2318465D02*
X-1761906Y-2223227D01*
X-1761906Y-2223227D02*
X-1666668Y-2175608D01*
X-1666668Y-2175608D02*
X-1523811Y-2175608D01*
X-1523811Y-2175608D02*
X-1428573Y-2223227D01*
X-1428573Y-2223227D02*
X-1380954Y-2270846D01*
X-2714287Y-2842275D02*
X-2714287Y-2318465D01*
X-2714287Y-2318465D02*
X-2666668Y-2223227D01*
X-2666668Y-2223227D02*
X-2571430Y-2175608D01*
X-2571430Y-2175608D02*
X-2380954Y-2175608D01*
X-2380954Y-2175608D02*
X-2285716Y-2223227D01*
X-2714287Y-2794656D02*
X-2619049Y-2842275D01*
X-2619049Y-2842275D02*
X-2380954Y-2842275D01*
X-2380954Y-2842275D02*
X-2285716Y-2794656D01*
X-2285716Y-2794656D02*
X-2238097Y-2699417D01*
X-2238097Y-2699417D02*
X-2238097Y-2604179D01*
X-2238097Y-2604179D02*
X-2285716Y-2508941D01*
X-2285716Y-2508941D02*
X-2380954Y-2461322D01*
X-2380954Y-2461322D02*
X-2619049Y-2461322D01*
X-2619049Y-2461322D02*
X-2714287Y-2413703D01*
X-3190478Y-2842275D02*
X-3190478Y-2175608D01*
X-3190478Y-1842275D02*
X-3142859Y-1889894D01*
X-3142859Y-1889894D02*
X-3190478Y-1937513D01*
X-3190478Y-1937513D02*
X-3238097Y-1889894D01*
X-3238097Y-1889894D02*
X-3190478Y-1842275D01*
X-3190478Y-1842275D02*
X-3190478Y-1937513D01*
X-3666668Y-2842275D02*
X-3666668Y-2175608D01*
X-3666668Y-2366084D02*
X-3714287Y-2270846D01*
X-3714287Y-2270846D02*
X-3761906Y-2223227D01*
X-3761906Y-2223227D02*
X-3857144Y-2175608D01*
X-3857144Y-2175608D02*
X-3952382Y-2175608D01*
X-4238097Y-2794656D02*
X-4333335Y-2842275D01*
X-4333335Y-2842275D02*
X-4523811Y-2842275D01*
X-4523811Y-2842275D02*
X-4619049Y-2794656D01*
X-4619049Y-2794656D02*
X-4666668Y-2699417D01*
X-4666668Y-2699417D02*
X-4666668Y-2651798D01*
X-4666668Y-2651798D02*
X-4619049Y-2556560D01*
X-4619049Y-2556560D02*
X-4523811Y-2508941D01*
X-4523811Y-2508941D02*
X-4380954Y-2508941D01*
X-4380954Y-2508941D02*
X-4285716Y-2461322D01*
X-4285716Y-2461322D02*
X-4238097Y-2366084D01*
X-4238097Y-2366084D02*
X-4238097Y-2318465D01*
X-4238097Y-2318465D02*
X-4285716Y-2223227D01*
X-4285716Y-2223227D02*
X-4380954Y-2175608D01*
X-4380954Y-2175608D02*
X-4523811Y-2175608D01*
X-4523811Y-2175608D02*
X-4619049Y-2223227D01*
X-5095240Y-2747036D02*
X-5142859Y-2794656D01*
X-5142859Y-2794656D02*
X-5095240Y-2842275D01*
X-5095240Y-2842275D02*
X-5047621Y-2794656D01*
X-5047621Y-2794656D02*
X-5095240Y-2747036D01*
X-5095240Y-2747036D02*
X-5095240Y-2842275D01*
X-6285716Y-1937513D02*
X-6333335Y-1889894D01*
X-6333335Y-1889894D02*
X-6428573Y-1842275D01*
X-6428573Y-1842275D02*
X-6666668Y-1842275D01*
X-6666668Y-1842275D02*
X-6761906Y-1889894D01*
X-6761906Y-1889894D02*
X-6809525Y-1937513D01*
X-6809525Y-1937513D02*
X-6857144Y-2032751D01*
X-6857144Y-2032751D02*
X-6857144Y-2127989D01*
X-6857144Y-2127989D02*
X-6809525Y-2270846D01*
X-6809525Y-2270846D02*
X-6238097Y-2842275D01*
X-6238097Y-2842275D02*
X-6857144Y-2842275D01*
X-7476192Y-1842275D02*
X-7571430Y-1842275D01*
X-7571430Y-1842275D02*
X-7666668Y-1889894D01*
X-7666668Y-1889894D02*
X-7714287Y-1937513D01*
X-7714287Y-1937513D02*
X-7761906Y-2032751D01*
X-7761906Y-2032751D02*
X-7809525Y-2223227D01*
X-7809525Y-2223227D02*
X-7809525Y-2461322D01*
X-7809525Y-2461322D02*
X-7761906Y-2651798D01*
X-7761906Y-2651798D02*
X-7714287Y-2747036D01*
X-7714287Y-2747036D02*
X-7666668Y-2794656D01*
X-7666668Y-2794656D02*
X-7571430Y-2842275D01*
X-7571430Y-2842275D02*
X-7476192Y-2842275D01*
X-7476192Y-2842275D02*
X-7380954Y-2794656D01*
X-7380954Y-2794656D02*
X-7333335Y-2747036D01*
X-7333335Y-2747036D02*
X-7285716Y-2651798D01*
X-7285716Y-2651798D02*
X-7238097Y-2461322D01*
X-7238097Y-2461322D02*
X-7238097Y-2223227D01*
X-7238097Y-2223227D02*
X-7285716Y-2032751D01*
X-7285716Y-2032751D02*
X-7333335Y-1937513D01*
X-7333335Y-1937513D02*
X-7380954Y-1889894D01*
X-7380954Y-1889894D02*
X-7476192Y-1842275D01*
X-8190478Y-1937513D02*
X-8238097Y-1889894D01*
X-8238097Y-1889894D02*
X-8333335Y-1842275D01*
X-8333335Y-1842275D02*
X-8571430Y-1842275D01*
X-8571430Y-1842275D02*
X-8666668Y-1889894D01*
X-8666668Y-1889894D02*
X-8714287Y-1937513D01*
X-8714287Y-1937513D02*
X-8761906Y-2032751D01*
X-8761906Y-2032751D02*
X-8761906Y-2127989D01*
X-8761906Y-2127989D02*
X-8714287Y-2270846D01*
X-8714287Y-2270846D02*
X-8142859Y-2842275D01*
X-8142859Y-2842275D02*
X-8761906Y-2842275D01*
X-9666668Y-1842275D02*
X-9190478Y-1842275D01*
X-9190478Y-1842275D02*
X-9142859Y-2318465D01*
X-9142859Y-2318465D02*
X-9190478Y-2270846D01*
X-9190478Y-2270846D02*
X-9285716Y-2223227D01*
X-9285716Y-2223227D02*
X-9523811Y-2223227D01*
X-9523811Y-2223227D02*
X-9619049Y-2270846D01*
X-9619049Y-2270846D02*
X-9666668Y-2318465D01*
X-9666668Y-2318465D02*
X-9714287Y-2413703D01*
X-9714287Y-2413703D02*
X-9714287Y-2651798D01*
X-9714287Y-2651798D02*
X-9666668Y-2747036D01*
X-9666668Y-2747036D02*
X-9619049Y-2794656D01*
X-9619049Y-2794656D02*
X-9523811Y-2842275D01*
X-9523811Y-2842275D02*
X-9285716Y-2842275D01*
X-9285716Y-2842275D02*
X-9190478Y-2794656D01*
X-9190478Y-2794656D02*
X-9142859Y-2747036D01*
X10285715Y-3452219D02*
X10285715Y-4166504D01*
X10285715Y-4166504D02*
X10333334Y-4309361D01*
X10333334Y-4309361D02*
X10428572Y-4404600D01*
X10428572Y-4404600D02*
X10571429Y-4452219D01*
X10571429Y-4452219D02*
X10666667Y-4452219D01*
X9333334Y-4452219D02*
X9809524Y-4452219D01*
X9809524Y-4452219D02*
X9809524Y-3452219D01*
X8428572Y-4356980D02*
X8476191Y-4404600D01*
X8476191Y-4404600D02*
X8619048Y-4452219D01*
X8619048Y-4452219D02*
X8714286Y-4452219D01*
X8714286Y-4452219D02*
X8857143Y-4404600D01*
X8857143Y-4404600D02*
X8952381Y-4309361D01*
X8952381Y-4309361D02*
X9000000Y-4214123D01*
X9000000Y-4214123D02*
X9047619Y-4023647D01*
X9047619Y-4023647D02*
X9047619Y-3880790D01*
X9047619Y-3880790D02*
X9000000Y-3690314D01*
X9000000Y-3690314D02*
X8952381Y-3595076D01*
X8952381Y-3595076D02*
X8857143Y-3499838D01*
X8857143Y-3499838D02*
X8714286Y-3452219D01*
X8714286Y-3452219D02*
X8619048Y-3452219D01*
X8619048Y-3452219D02*
X8476191Y-3499838D01*
X8476191Y-3499838D02*
X8428572Y-3547457D01*
X7047619Y-3452219D02*
X6857143Y-3452219D01*
X6857143Y-3452219D02*
X6761905Y-3499838D01*
X6761905Y-3499838D02*
X6666667Y-3595076D01*
X6666667Y-3595076D02*
X6619048Y-3785552D01*
X6619048Y-3785552D02*
X6619048Y-4118885D01*
X6619048Y-4118885D02*
X6666667Y-4309361D01*
X6666667Y-4309361D02*
X6761905Y-4404600D01*
X6761905Y-4404600D02*
X6857143Y-4452219D01*
X6857143Y-4452219D02*
X7047619Y-4452219D01*
X7047619Y-4452219D02*
X7142857Y-4404600D01*
X7142857Y-4404600D02*
X7238095Y-4309361D01*
X7238095Y-4309361D02*
X7285714Y-4118885D01*
X7285714Y-4118885D02*
X7285714Y-3785552D01*
X7285714Y-3785552D02*
X7238095Y-3595076D01*
X7238095Y-3595076D02*
X7142857Y-3499838D01*
X7142857Y-3499838D02*
X7047619Y-3452219D01*
X6190476Y-4452219D02*
X6190476Y-3785552D01*
X6190476Y-3976028D02*
X6142857Y-3880790D01*
X6142857Y-3880790D02*
X6095238Y-3833171D01*
X6095238Y-3833171D02*
X6000000Y-3785552D01*
X6000000Y-3785552D02*
X5904762Y-3785552D01*
X5142857Y-4452219D02*
X5142857Y-3452219D01*
X5142857Y-4404600D02*
X5238095Y-4452219D01*
X5238095Y-4452219D02*
X5428571Y-4452219D01*
X5428571Y-4452219D02*
X5523809Y-4404600D01*
X5523809Y-4404600D02*
X5571428Y-4356980D01*
X5571428Y-4356980D02*
X5619047Y-4261742D01*
X5619047Y-4261742D02*
X5619047Y-3976028D01*
X5619047Y-3976028D02*
X5571428Y-3880790D01*
X5571428Y-3880790D02*
X5523809Y-3833171D01*
X5523809Y-3833171D02*
X5428571Y-3785552D01*
X5428571Y-3785552D02*
X5238095Y-3785552D01*
X5238095Y-3785552D02*
X5142857Y-3833171D01*
X4285714Y-4404600D02*
X4380952Y-4452219D01*
X4380952Y-4452219D02*
X4571428Y-4452219D01*
X4571428Y-4452219D02*
X4666666Y-4404600D01*
X4666666Y-4404600D02*
X4714285Y-4309361D01*
X4714285Y-4309361D02*
X4714285Y-3928409D01*
X4714285Y-3928409D02*
X4666666Y-3833171D01*
X4666666Y-3833171D02*
X4571428Y-3785552D01*
X4571428Y-3785552D02*
X4380952Y-3785552D01*
X4380952Y-3785552D02*
X4285714Y-3833171D01*
X4285714Y-3833171D02*
X4238095Y-3928409D01*
X4238095Y-3928409D02*
X4238095Y-4023647D01*
X4238095Y-4023647D02*
X4714285Y-4118885D01*
X3809523Y-4452219D02*
X3809523Y-3785552D01*
X3809523Y-3976028D02*
X3761904Y-3880790D01*
X3761904Y-3880790D02*
X3714285Y-3833171D01*
X3714285Y-3833171D02*
X3619047Y-3785552D01*
X3619047Y-3785552D02*
X3523809Y-3785552D01*
X2428570Y-4452219D02*
X2428570Y-3452219D01*
X2428570Y-3452219D02*
X1857142Y-4452219D01*
X1857142Y-4452219D02*
X1857142Y-3452219D01*
X1238094Y-4452219D02*
X1333332Y-4404600D01*
X1333332Y-4404600D02*
X1380951Y-4356980D01*
X1380951Y-4356980D02*
X1428570Y-4261742D01*
X1428570Y-4261742D02*
X1428570Y-3976028D01*
X1428570Y-3976028D02*
X1380951Y-3880790D01*
X1380951Y-3880790D02*
X1333332Y-3833171D01*
X1333332Y-3833171D02*
X1238094Y-3785552D01*
X1238094Y-3785552D02*
X1095237Y-3785552D01*
X1095237Y-3785552D02*
X999999Y-3833171D01*
X999999Y-3833171D02*
X952380Y-3880790D01*
X952380Y-3880790D02*
X904761Y-3976028D01*
X904761Y-3976028D02*
X904761Y-4261742D01*
X904761Y-4261742D02*
X952380Y-4356980D01*
X952380Y-4356980D02*
X999999Y-4404600D01*
X999999Y-4404600D02*
X1095237Y-4452219D01*
X1095237Y-4452219D02*
X1238094Y-4452219D01*
X476189Y-4356980D02*
X428570Y-4404600D01*
X428570Y-4404600D02*
X476189Y-4452219D01*
X476189Y-4452219D02*
X523808Y-4404600D01*
X523808Y-4404600D02*
X476189Y-4356980D01*
X476189Y-4356980D02*
X476189Y-4452219D01*
X-1047620Y-3452219D02*
X-1047620Y-4166504D01*
X-1047620Y-4166504D02*
X-1000001Y-4309361D01*
X-1000001Y-4309361D02*
X-904763Y-4404600D01*
X-904763Y-4404600D02*
X-761906Y-4452219D01*
X-761906Y-4452219D02*
X-666668Y-4452219D01*
X-2000001Y-4452219D02*
X-1523811Y-4452219D01*
X-1523811Y-4452219D02*
X-1523811Y-3452219D01*
X-2904763Y-4356980D02*
X-2857144Y-4404600D01*
X-2857144Y-4404600D02*
X-2714287Y-4452219D01*
X-2714287Y-4452219D02*
X-2619049Y-4452219D01*
X-2619049Y-4452219D02*
X-2476192Y-4404600D01*
X-2476192Y-4404600D02*
X-2380954Y-4309361D01*
X-2380954Y-4309361D02*
X-2333335Y-4214123D01*
X-2333335Y-4214123D02*
X-2285716Y-4023647D01*
X-2285716Y-4023647D02*
X-2285716Y-3880790D01*
X-2285716Y-3880790D02*
X-2333335Y-3690314D01*
X-2333335Y-3690314D02*
X-2380954Y-3595076D01*
X-2380954Y-3595076D02*
X-2476192Y-3499838D01*
X-2476192Y-3499838D02*
X-2619049Y-3452219D01*
X-2619049Y-3452219D02*
X-2714287Y-3452219D01*
X-2714287Y-3452219D02*
X-2857144Y-3499838D01*
X-2857144Y-3499838D02*
X-2904763Y-3547457D01*
X-3619049Y-3452219D02*
X-3619049Y-4166504D01*
X-3619049Y-4166504D02*
X-3571430Y-4309361D01*
X-3571430Y-4309361D02*
X-3476192Y-4404600D01*
X-3476192Y-4404600D02*
X-3333335Y-4452219D01*
X-3333335Y-4452219D02*
X-3238097Y-4452219D01*
X-4571430Y-4452219D02*
X-4095240Y-4452219D01*
X-4095240Y-4452219D02*
X-4095240Y-3452219D01*
X-5476192Y-4356980D02*
X-5428573Y-4404600D01*
X-5428573Y-4404600D02*
X-5285716Y-4452219D01*
X-5285716Y-4452219D02*
X-5190478Y-4452219D01*
X-5190478Y-4452219D02*
X-5047621Y-4404600D01*
X-5047621Y-4404600D02*
X-4952383Y-4309361D01*
X-4952383Y-4309361D02*
X-4904764Y-4214123D01*
X-4904764Y-4214123D02*
X-4857145Y-4023647D01*
X-4857145Y-4023647D02*
X-4857145Y-3880790D01*
X-4857145Y-3880790D02*
X-4904764Y-3690314D01*
X-4904764Y-3690314D02*
X-4952383Y-3595076D01*
X-4952383Y-3595076D02*
X-5047621Y-3499838D01*
X-5047621Y-3499838D02*
X-5190478Y-3452219D01*
X-5190478Y-3452219D02*
X-5285716Y-3452219D01*
X-5285716Y-3452219D02*
X-5428573Y-3499838D01*
X-5428573Y-3499838D02*
X-5476192Y-3547457D01*
X-6190478Y-3452219D02*
X-6190478Y-4166504D01*
X-6190478Y-4166504D02*
X-6142859Y-4309361D01*
X-6142859Y-4309361D02*
X-6047621Y-4404600D01*
X-6047621Y-4404600D02*
X-5904764Y-4452219D01*
X-5904764Y-4452219D02*
X-5809526Y-4452219D01*
X-7142859Y-4452219D02*
X-6666669Y-4452219D01*
X-6666669Y-4452219D02*
X-6666669Y-3452219D01*
X-8047621Y-4356980D02*
X-8000002Y-4404600D01*
X-8000002Y-4404600D02*
X-7857145Y-4452219D01*
X-7857145Y-4452219D02*
X-7761907Y-4452219D01*
X-7761907Y-4452219D02*
X-7619050Y-4404600D01*
X-7619050Y-4404600D02*
X-7523812Y-4309361D01*
X-7523812Y-4309361D02*
X-7476193Y-4214123D01*
X-7476193Y-4214123D02*
X-7428574Y-4023647D01*
X-7428574Y-4023647D02*
X-7428574Y-3880790D01*
X-7428574Y-3880790D02*
X-7476193Y-3690314D01*
X-7476193Y-3690314D02*
X-7523812Y-3595076D01*
X-7523812Y-3595076D02*
X-7619050Y-3499838D01*
X-7619050Y-3499838D02*
X-7761907Y-3452219D01*
X-7761907Y-3452219D02*
X-7857145Y-3452219D01*
X-7857145Y-3452219D02*
X-8000002Y-3499838D01*
X-8000002Y-3499838D02*
X-8047621Y-3547457D01*
X-8761907Y-3452219D02*
X-8761907Y-4166504D01*
X-8761907Y-4166504D02*
X-8714288Y-4309361D01*
X-8714288Y-4309361D02*
X-8619050Y-4404600D01*
X-8619050Y-4404600D02*
X-8476193Y-4452219D01*
X-8476193Y-4452219D02*
X-8380955Y-4452219D01*
X-9714288Y-4452219D02*
X-9238098Y-4452219D01*
X-9238098Y-4452219D02*
X-9238098Y-3452219D01*
X-10619050Y-4356980D02*
X-10571431Y-4404600D01*
X-10571431Y-4404600D02*
X-10428574Y-4452219D01*
X-10428574Y-4452219D02*
X-10333336Y-4452219D01*
X-10333336Y-4452219D02*
X-10190479Y-4404600D01*
X-10190479Y-4404600D02*
X-10095241Y-4309361D01*
X-10095241Y-4309361D02*
X-10047622Y-4214123D01*
X-10047622Y-4214123D02*
X-10000003Y-4023647D01*
X-10000003Y-4023647D02*
X-10000003Y-3880790D01*
X-10000003Y-3880790D02*
X-10047622Y-3690314D01*
X-10047622Y-3690314D02*
X-10095241Y-3595076D01*
X-10095241Y-3595076D02*
X-10190479Y-3499838D01*
X-10190479Y-3499838D02*
X-10333336Y-3452219D01*
X-10333336Y-3452219D02*
X-10428574Y-3452219D01*
X-10428574Y-3452219D02*
X-10571431Y-3499838D01*
X-10571431Y-3499838D02*
X-10619050Y-3547457D01*
X2690475Y-6062163D02*
X2690475Y-5395496D01*
X2690475Y-5585972D02*
X2642856Y-5490734D01*
X2642856Y-5490734D02*
X2595237Y-5443115D01*
X2595237Y-5443115D02*
X2499999Y-5395496D01*
X2499999Y-5395496D02*
X2404761Y-5395496D01*
X1690475Y-6014544D02*
X1785713Y-6062163D01*
X1785713Y-6062163D02*
X1976189Y-6062163D01*
X1976189Y-6062163D02*
X2071427Y-6014544D01*
X2071427Y-6014544D02*
X2119046Y-5919305D01*
X2119046Y-5919305D02*
X2119046Y-5538353D01*
X2119046Y-5538353D02*
X2071427Y-5443115D01*
X2071427Y-5443115D02*
X1976189Y-5395496D01*
X1976189Y-5395496D02*
X1785713Y-5395496D01*
X1785713Y-5395496D02*
X1690475Y-5443115D01*
X1690475Y-5443115D02*
X1642856Y-5538353D01*
X1642856Y-5538353D02*
X1642856Y-5633591D01*
X1642856Y-5633591D02*
X2119046Y-5728829D01*
X1309522Y-5395496D02*
X1071427Y-6062163D01*
X1071427Y-6062163D02*
X833332Y-5395496D01*
X452379Y-5966924D02*
X404760Y-6014544D01*
X404760Y-6014544D02*
X452379Y-6062163D01*
X452379Y-6062163D02*
X499998Y-6014544D01*
X499998Y-6014544D02*
X452379Y-5966924D01*
X452379Y-5966924D02*
X452379Y-6062163D01*
X-1309525Y-6062163D02*
X-738097Y-6062163D01*
X-1023811Y-6062163D02*
X-1023811Y-5062163D01*
X-1023811Y-5062163D02*
X-928573Y-5205020D01*
X-928573Y-5205020D02*
X-833335Y-5300258D01*
X-833335Y-5300258D02*
X-738097Y-5347877D01*
X-1738097Y-5966924D02*
X-1785716Y-6014544D01*
X-1785716Y-6014544D02*
X-1738097Y-6062163D01*
X-1738097Y-6062163D02*
X-1690478Y-6014544D01*
X-1690478Y-6014544D02*
X-1738097Y-5966924D01*
X-1738097Y-5966924D02*
X-1738097Y-6062163D01*
X-2404763Y-5062163D02*
X-2500001Y-5062163D01*
X-2500001Y-5062163D02*
X-2595239Y-5109782D01*
X-2595239Y-5109782D02*
X-2642858Y-5157401D01*
X-2642858Y-5157401D02*
X-2690477Y-5252639D01*
X-2690477Y-5252639D02*
X-2738096Y-5443115D01*
X-2738096Y-5443115D02*
X-2738096Y-5681210D01*
X-2738096Y-5681210D02*
X-2690477Y-5871686D01*
X-2690477Y-5871686D02*
X-2642858Y-5966924D01*
X-2642858Y-5966924D02*
X-2595239Y-6014544D01*
X-2595239Y-6014544D02*
X-2500001Y-6062163D01*
X-2500001Y-6062163D02*
X-2404763Y-6062163D01*
X-2404763Y-6062163D02*
X-2309525Y-6014544D01*
X-2309525Y-6014544D02*
X-2261906Y-5966924D01*
X-2261906Y-5966924D02*
X-2214287Y-5871686D01*
X-2214287Y-5871686D02*
X-2166668Y-5681210D01*
X-2166668Y-5681210D02*
X-2166668Y-5443115D01*
X-2166668Y-5443115D02*
X-2214287Y-5252639D01*
X-2214287Y-5252639D02*
X-2261906Y-5157401D01*
X-2261906Y-5157401D02*
X-2309525Y-5109782D01*
X-2309525Y-5109782D02*
X-2404763Y-5062163D01*
%LPC*%
D11*
%TO.C,J2*%
X-8425000Y-17470001D03*
D12*
X-5885000Y-17470001D03*
X-3345000Y-17470001D03*
X-805000Y-17470001D03*
X1735000Y-17470001D03*
X4275000Y-17470001D03*
X6815000Y-17470001D03*
X9355000Y-17470001D03*
%TD*%
D13*
%TO.C,U1*%
X-6690000Y5979999D03*
X-4890000Y5979999D03*
X-3090000Y5979999D03*
X-1290000Y5979999D03*
X510000Y5979999D03*
X2310000Y5979999D03*
X-6690000Y7779999D03*
X-4890000Y7779999D03*
X-3090000Y7779999D03*
X-1290000Y7779999D03*
X510000Y7779999D03*
X2310000Y7779999D03*
X-6690000Y9579999D03*
X-4890000Y9579999D03*
X-3090000Y9579999D03*
X-1290000Y9579999D03*
X510000Y9579999D03*
X2310000Y9579999D03*
X-6690000Y11379999D03*
X-4890000Y11379999D03*
X-3090000Y11379999D03*
X-1290000Y11379999D03*
X510000Y11379999D03*
X2310000Y11379999D03*
X-6690000Y13179999D03*
X-4890000Y13179999D03*
X-3090000Y13179999D03*
X-1290000Y13179999D03*
X510000Y13179999D03*
X2310000Y13179999D03*
%TD*%
D14*
%TO.C,C1*%
X6657349Y9979999D03*
D15*
X10157349Y9979999D03*
%TD*%
D16*
%TO.C,D2*%
X-8730000Y-9470001D03*
D17*
X-3650000Y-9470001D03*
%TD*%
D11*
%TO.C,J1*%
X-8425000Y17469999D03*
D12*
X-5885000Y17469999D03*
X-3345000Y17469999D03*
X-805000Y17469999D03*
X1735000Y17469999D03*
X4275000Y17469999D03*
X6815000Y17469999D03*
X9355000Y17469999D03*
%TD*%
D14*
%TO.C,C36*%
X6657349Y1229999D03*
D15*
X10157349Y1229999D03*
%TD*%
%LPD*%
M02*
