%TF.GenerationSoftware,KiCad,Pcbnew,9.0.6*%
%TF.CreationDate,2026-01-24T13:05:55+08:00*%
%TF.ProjectId,Lightgate(LED),4c696768-7467-4617-9465-284c4544292e,rev?*%
%TF.SameCoordinates,Original*%
%TF.FileFunction,Profile,NP*%
%FSLAX46Y46*%
G04 Gerber Fmt 4.6, Leading zero omitted, Abs format (unit mm)*
G04 Created by KiCad (PCBNEW 9.0.6) date 2026-01-24 13:05:55*
%MOMM*%
%LPD*%
G01*
G04 APERTURE LIST*
%TA.AperFunction,Profile*%
%ADD10C,0.050000*%
%TD*%
G04 APERTURE END LIST*
D10*
X100213458Y-81500000D02*
X100213458Y-82099998D01*
X100213458Y-45999998D02*
G75*
G02*
X99713457Y-46499958I-499958J-2D01*
G01*
X100713459Y-82599999D02*
X109713457Y-82599999D01*
X111926915Y-46499999D02*
X110713459Y-46499999D01*
X98000000Y-47000000D02*
G75*
G02*
X98500001Y-46500000I500000J0D01*
G01*
X100713459Y-82599999D02*
G75*
G02*
X100213501Y-82099998I41J499999D01*
G01*
X97499999Y-55999999D02*
X88500001Y-55999999D01*
X88000000Y-56500000D02*
X88000000Y-80499998D01*
X110213458Y-45999997D02*
X110213458Y-35400000D01*
X110713459Y-80999999D02*
X111926915Y-80999999D01*
X99713457Y-46499999D02*
X98500001Y-46499999D01*
X100213458Y-35400000D02*
G75*
G02*
X100713459Y-34899958I500042J0D01*
G01*
X110213458Y-81500000D02*
G75*
G02*
X110713459Y-80999958I500042J0D01*
G01*
X98000000Y-47000000D02*
X98000000Y-55499998D01*
X88000000Y-56500000D02*
G75*
G02*
X88500001Y-56000000I500000J0D01*
G01*
X109713457Y-34899999D02*
X100713459Y-34899999D01*
X88500001Y-80999999D02*
G75*
G02*
X88000001Y-80499998I-1J499999D01*
G01*
X111926915Y-46499999D02*
G75*
G02*
X112426901Y-47000000I-15J-500001D01*
G01*
X112426916Y-80499998D02*
X112426916Y-47000000D01*
X99713457Y-80999999D02*
G75*
G02*
X100213501Y-81500000I43J-500001D01*
G01*
X98000000Y-55499998D02*
G75*
G02*
X97499999Y-56000000I-500000J-2D01*
G01*
X109713457Y-34899999D02*
G75*
G02*
X110213501Y-35400000I43J-500001D01*
G01*
X100213458Y-35400000D02*
X100213458Y-45999998D01*
X110713459Y-46499999D02*
G75*
G02*
X110213501Y-45999997I41J499999D01*
G01*
X110213458Y-82099998D02*
G75*
G02*
X109713457Y-82599958I-499958J-2D01*
G01*
X88500001Y-80999999D02*
X99713457Y-80999999D01*
X110213458Y-82099998D02*
X110213458Y-81500000D01*
X112426916Y-80499998D02*
G75*
G02*
X111926915Y-81000016I-500016J-2D01*
G01*
M02*
