ISO-10303-21;
HEADER;
/* Generated by software containing ST-Developer
 * from STEP Tools, Inc. (www.steptools.com) 
 */

FILE_DESCRIPTION(
/* description */ (''),
/* implementation_level */ '2;1');

FILE_NAME(
/* name */ 'Rollers v4.step',
/* time_stamp */ '2026-02-22T08:40:37+08:00',
/* author */ (''),
/* organization */ (''),
/* preprocessor_version */ 'ST-DEVELOPER v20.1',
/* originating_system */ 'Autodesk Translation Framework v14.24.0.0',
/* authorisation */ '');

FILE_SCHEMA (('AUTOMOTIVE_DESIGN { 1 0 10303 214 3 1 1 }'));
ENDSEC;

DATA;
#10=MECHANICAL_DESIGN_GEOMETRIC_PRESENTATION_REPRESENTATION('',(#26,#27),
#171);
#11=ITEM_DEFINED_TRANSFORMATION($,$,#100,#113);
#12=(
REPRESENTATION_RELATIONSHIP($,$,#182,#181)
REPRESENTATION_RELATIONSHIP_WITH_TRANSFORMATION(#11)
SHAPE_REPRESENTATION_RELATIONSHIP()
);
#13=CONTEXT_DEPENDENT_SHAPE_REPRESENTATION(#12,#180);
#14=NEXT_ASSEMBLY_USAGE_OCCURRENCE('O-Ring v1:1','O-Ring v1:1',
'O-Ring v1:1',#184,#185,'O-Ring v1:1');
#15=LINE('',#163,#16);
#16=VECTOR('',#140,1.25);
#17=CYLINDRICAL_SURFACE('',#110,1.25);
#18=FACE_BOUND('',#38,.T.);
#19=FACE_BOUND('',#41,.T.);
#20=PLANE('',#108);
#21=PLANE('',#112);
#22=SHAPE_REPRESENTATION_RELATIONSHIP('SRR','None',#182,#24);
#23=SHAPE_REPRESENTATION_RELATIONSHIP('SRR','None',#181,#25);
#24=ADVANCED_BREP_SHAPE_REPRESENTATION('',(#28),#170);
#25=ADVANCED_BREP_SHAPE_REPRESENTATION('',(#29),#169);
#26=STYLED_ITEM('',(#197),#28);
#27=STYLED_ITEM('',(#196),#29);
#28=MANIFOLD_SOLID_BREP('Body1',#85);
#29=MANIFOLD_SOLID_BREP('Body1',#86);
#30=FACE_OUTER_BOUND('',#35,.T.);
#31=FACE_OUTER_BOUND('',#36,.T.);
#32=FACE_OUTER_BOUND('',#37,.T.);
#33=FACE_OUTER_BOUND('',#39,.T.);
#34=FACE_OUTER_BOUND('',#40,.T.);
#35=EDGE_LOOP('',(#62,#63,#64,#65));
#36=EDGE_LOOP('',(#66,#67,#68,#69));
#37=EDGE_LOOP('',(#70));
#38=EDGE_LOOP('',(#71));
#39=EDGE_LOOP('',(#72,#73,#74,#75));
#40=EDGE_LOOP('',(#76));
#41=EDGE_LOOP('',(#77));
#42=CIRCLE('',#102,1.5);
#43=CIRCLE('',#103,2.5);
#44=CIRCLE('',#105,4.);
#45=CIRCLE('',#106,1.5);
#46=CIRCLE('',#107,4.);
#47=CIRCLE('',#109,1.25);
#48=CIRCLE('',#111,1.25);
#49=VERTEX_POINT('',#148);
#50=VERTEX_POINT('',#152);
#51=VERTEX_POINT('',#154);
#52=VERTEX_POINT('',#158);
#53=VERTEX_POINT('',#161);
#54=EDGE_CURVE('',#49,#49,#42,.T.);
#55=EDGE_CURVE('',#49,#49,#43,.T.);
#56=EDGE_CURVE('',#50,#50,#44,.T.);
#57=EDGE_CURVE('',#50,#51,#45,.T.);
#58=EDGE_CURVE('',#51,#51,#46,.T.);
#59=EDGE_CURVE('',#52,#52,#47,.T.);
#60=EDGE_CURVE('',#53,#53,#48,.T.);
#61=EDGE_CURVE('',#53,#52,#15,.T.);
#62=ORIENTED_EDGE('',*,*,#54,.F.);
#63=ORIENTED_EDGE('',*,*,#55,.T.);
#64=ORIENTED_EDGE('',*,*,#54,.T.);
#65=ORIENTED_EDGE('',*,*,#55,.F.);
#66=ORIENTED_EDGE('',*,*,#56,.F.);
#67=ORIENTED_EDGE('',*,*,#57,.T.);
#68=ORIENTED_EDGE('',*,*,#58,.F.);
#69=ORIENTED_EDGE('',*,*,#57,.F.);
#70=ORIENTED_EDGE('',*,*,#58,.T.);
#71=ORIENTED_EDGE('',*,*,#59,.T.);
#72=ORIENTED_EDGE('',*,*,#60,.F.);
#73=ORIENTED_EDGE('',*,*,#61,.T.);
#74=ORIENTED_EDGE('',*,*,#59,.F.);
#75=ORIENTED_EDGE('',*,*,#61,.F.);
#76=ORIENTED_EDGE('',*,*,#56,.T.);
#77=ORIENTED_EDGE('',*,*,#60,.T.);
#78=TOROIDAL_SURFACE('',#101,4.,1.5);
#79=TOROIDAL_SURFACE('',#104,4.,1.5);
#80=ADVANCED_FACE('',(#30),#78,.T.);
#81=ADVANCED_FACE('',(#31),#79,.F.);
#82=ADVANCED_FACE('',(#32,#18),#20,.F.);
#83=ADVANCED_FACE('',(#33),#17,.F.);
#84=ADVANCED_FACE('',(#34,#19),#21,.T.);
#85=CLOSED_SHELL('',(#80));
#86=CLOSED_SHELL('',(#81,#82,#83,#84));
#87=DERIVED_UNIT_ELEMENT(#89,1.);
#88=DERIVED_UNIT_ELEMENT(#173,-3.);
#89=(
MASS_UNIT()
NAMED_UNIT(*)
SI_UNIT(.KILO.,.GRAM.)
);
#90=DERIVED_UNIT((#87,#88));
#91=MEASURE_REPRESENTATION_ITEM('density measure',
POSITIVE_RATIO_MEASURE(7850.),#90);
#92=PROPERTY_DEFINITION_REPRESENTATION(#97,#94);
#93=PROPERTY_DEFINITION_REPRESENTATION(#98,#95);
#94=REPRESENTATION('material name',(#96),#170);
#95=REPRESENTATION('density',(#91),#170);
#96=DESCRIPTIVE_REPRESENTATION_ITEM('Steel','Steel');
#97=PROPERTY_DEFINITION('material property','material name',#185);
#98=PROPERTY_DEFINITION('material property','density of part',#185);
#99=AXIS2_PLACEMENT_3D('',#145,#114,#115);
#100=AXIS2_PLACEMENT_3D('',#146,#116,#117);
#101=AXIS2_PLACEMENT_3D('',#147,#118,#119);
#102=AXIS2_PLACEMENT_3D('',#149,#120,#121);
#103=AXIS2_PLACEMENT_3D('',#150,#122,#123);
#104=AXIS2_PLACEMENT_3D('',#151,#124,#125);
#105=AXIS2_PLACEMENT_3D('',#153,#126,#127);
#106=AXIS2_PLACEMENT_3D('',#155,#128,#129);
#107=AXIS2_PLACEMENT_3D('',#156,#130,#131);
#108=AXIS2_PLACEMENT_3D('',#157,#132,#133);
#109=AXIS2_PLACEMENT_3D('',#159,#134,#135);
#110=AXIS2_PLACEMENT_3D('',#160,#136,#137);
#111=AXIS2_PLACEMENT_3D('',#162,#138,#139);
#112=AXIS2_PLACEMENT_3D('',#164,#141,#142);
#113=AXIS2_PLACEMENT_3D('',#165,#143,#144);
#114=DIRECTION('axis',(0.,0.,1.));
#115=DIRECTION('refdir',(1.,0.,0.));
#116=DIRECTION('axis',(0.,0.,1.));
#117=DIRECTION('refdir',(1.,0.,0.));
#118=DIRECTION('center_axis',(1.,-1.26107834862914E-15,0.));
#119=DIRECTION('ref_axis',(0.,0.,-1.));
#120=DIRECTION('center_axis',(-1.26107834862914E-15,-1.,-1.22464679914735E-16));
#121=DIRECTION('ref_axis',(-1.79286569368412E-31,-1.22464679914735E-16,
1.));
#122=DIRECTION('center_axis',(-1.,1.26107834862914E-15,0.));
#123=DIRECTION('ref_axis',(0.,-1.75162308040602E-46,-1.));
#124=DIRECTION('center_axis',(8.7250029001033E-16,1.,0.));
#125=DIRECTION('ref_axis',(0.,0.,-1.));
#126=DIRECTION('center_axis',(0.,1.,0.));
#127=DIRECTION('ref_axis',(1.,0.,0.));
#128=DIRECTION('center_axis',(-1.,8.7250029001033E-16,1.22464679914735E-16));
#129=DIRECTION('ref_axis',(1.22464679914735E-16,-1.79286569368412E-31,1.));
#130=DIRECTION('center_axis',(0.,-1.,0.));
#131=DIRECTION('ref_axis',(1.,0.,0.));
#132=DIRECTION('center_axis',(0.,1.,0.));
#133=DIRECTION('ref_axis',(1.,0.,0.));
#134=DIRECTION('center_axis',(0.,1.,0.));
#135=DIRECTION('ref_axis',(1.,0.,0.));
#136=DIRECTION('center_axis',(0.,1.,0.));
#137=DIRECTION('ref_axis',(1.,0.,0.));
#138=DIRECTION('center_axis',(0.,-1.,0.));
#139=DIRECTION('ref_axis',(1.,0.,0.));
#140=DIRECTION('',(0.,-1.,0.));
#141=DIRECTION('center_axis',(0.,1.,0.));
#142=DIRECTION('ref_axis',(1.,0.,0.));
#143=DIRECTION('',(0.,0.,1.));
#144=DIRECTION('',(-3.88578058618805E-16,1.,0.));
#145=CARTESIAN_POINT('',(0.,0.,0.));
#146=CARTESIAN_POINT('',(0.,0.,0.));
#147=CARTESIAN_POINT('Origin',(-4.9960036108132E-15,5.17689969051289E-30,
0.));
#148=CARTESIAN_POINT('',(-4.8123065909411E-15,-3.06161699786833E-16,2.5));
#149=CARTESIAN_POINT('Origin',(-4.99600361081321E-15,-4.89858719658936E-16,
4.));
#150=CARTESIAN_POINT('Origin',(-5.17970063068531E-15,5.4085560249813E-30,
0.));
#151=CARTESIAN_POINT('Origin',(-3.23556230657056E-30,-4.9960036108132E-15,
0.));
#152=CARTESIAN_POINT('',(1.79860915467444E-15,1.5,4.));
#153=CARTESIAN_POINT('Origin',(0.,1.5,0.));
#154=CARTESIAN_POINT('',(-8.18891715356553E-16,-1.5,4.));
#155=CARTESIAN_POINT('Origin',(4.89858719658938E-16,-4.99600361081321E-15,
4.));
#156=CARTESIAN_POINT('Origin',(0.,-1.5,0.));
#157=CARTESIAN_POINT('Origin',(0.,-1.5,0.));
#158=CARTESIAN_POINT('',(-1.25,-1.5,1.53080849893419E-16));
#159=CARTESIAN_POINT('Origin',(0.,-1.5,0.));
#160=CARTESIAN_POINT('Origin',(0.,0.,0.));
#161=CARTESIAN_POINT('',(-1.25,1.5,1.53080849893419E-16));
#162=CARTESIAN_POINT('Origin',(0.,1.5,0.));
#163=CARTESIAN_POINT('',(-1.25,0.,1.53080849893419E-16));
#164=CARTESIAN_POINT('Origin',(0.,1.5,0.));
#165=CARTESIAN_POINT('',(0.,0.,0.));
#166=UNCERTAINTY_MEASURE_WITH_UNIT(LENGTH_MEASURE(0.01),#172,
'DISTANCE_ACCURACY_VALUE',
'Maximum model space distance between geometric entities at asserted c
onnectivities');
#167=UNCERTAINTY_MEASURE_WITH_UNIT(LENGTH_MEASURE(0.01),#172,
'DISTANCE_ACCURACY_VALUE',
'Maximum model space distance between geometric entities at asserted c
onnectivities');
#168=UNCERTAINTY_MEASURE_WITH_UNIT(LENGTH_MEASURE(0.01),#172,
'DISTANCE_ACCURACY_VALUE',
'Maximum model space distance between geometric entities at asserted c
onnectivities');
#169=(
GEOMETRIC_REPRESENTATION_CONTEXT(3)
GLOBAL_UNCERTAINTY_ASSIGNED_CONTEXT((#166))
GLOBAL_UNIT_ASSIGNED_CONTEXT((#172,#174,#175))
REPRESENTATION_CONTEXT('','3D')
);
#170=(
GEOMETRIC_REPRESENTATION_CONTEXT(3)
GLOBAL_UNCERTAINTY_ASSIGNED_CONTEXT((#167))
GLOBAL_UNIT_ASSIGNED_CONTEXT((#172,#174,#175))
REPRESENTATION_CONTEXT('','3D')
);
#171=(
GEOMETRIC_REPRESENTATION_CONTEXT(3)
GLOBAL_UNCERTAINTY_ASSIGNED_CONTEXT((#168))
GLOBAL_UNIT_ASSIGNED_CONTEXT((#172,#174,#175))
REPRESENTATION_CONTEXT('','3D')
);
#172=(
LENGTH_UNIT()
NAMED_UNIT(*)
SI_UNIT(.MILLI.,.METRE.)
);
#173=(
LENGTH_UNIT()
NAMED_UNIT(*)
SI_UNIT($,.METRE.)
);
#174=(
NAMED_UNIT(*)
PLANE_ANGLE_UNIT()
SI_UNIT($,.RADIAN.)
);
#175=(
NAMED_UNIT(*)
SI_UNIT($,.STERADIAN.)
SOLID_ANGLE_UNIT()
);
#176=SHAPE_DEFINITION_REPRESENTATION(#178,#181);
#177=SHAPE_DEFINITION_REPRESENTATION(#179,#182);
#178=PRODUCT_DEFINITION_SHAPE('',$,#184);
#179=PRODUCT_DEFINITION_SHAPE('',$,#185);
#180=PRODUCT_DEFINITION_SHAPE($,$,#14);
#181=SHAPE_REPRESENTATION('',(#99,#113),#169);
#182=SHAPE_REPRESENTATION('',(#100),#170);
#183=PRODUCT_DEFINITION_CONTEXT('part definition',#191,'design');
#184=PRODUCT_DEFINITION('Rollers','Rollers v4',#186,#183);
#185=PRODUCT_DEFINITION('O-Ring','O-Ring v1',#187,#183);
#186=PRODUCT_DEFINITION_FORMATION('',$,#193);
#187=PRODUCT_DEFINITION_FORMATION('',$,#194);
#188=PRODUCT_RELATED_PRODUCT_CATEGORY('Rollers v4','Rollers v4',(#193));
#189=PRODUCT_RELATED_PRODUCT_CATEGORY('O-Ring v1','O-Ring v1',(#194));
#190=APPLICATION_PROTOCOL_DEFINITION('international standard',
'automotive_design',2009,#191);
#191=APPLICATION_CONTEXT(
'Core Data for Automotive Mechanical Design Process');
#192=PRODUCT_CONTEXT('part definition',#191,'mechanical');
#193=PRODUCT('Rollers','Rollers v4',$,(#192));
#194=PRODUCT('O-Ring','O-Ring v1',$,(#192));
#195=PRESENTATION_STYLE_ASSIGNMENT((#198));
#196=PRESENTATION_STYLE_ASSIGNMENT((#199));
#197=PRESENTATION_STYLE_ASSIGNMENT((#200));
#198=SURFACE_STYLE_USAGE(.BOTH.,#201);
#199=SURFACE_STYLE_USAGE(.BOTH.,#202);
#200=SURFACE_STYLE_USAGE(.BOTH.,#203);
#201=SURFACE_SIDE_STYLE('',(#204));
#202=SURFACE_SIDE_STYLE('',(#205));
#203=SURFACE_SIDE_STYLE('',(#206));
#204=SURFACE_STYLE_FILL_AREA(#207);
#205=SURFACE_STYLE_FILL_AREA(#208);
#206=SURFACE_STYLE_FILL_AREA(#209);
#207=FILL_AREA_STYLE('Steel - Satin',(#210));
#208=FILL_AREA_STYLE('ABS (White)',(#211));
#209=FILL_AREA_STYLE('Rubber - Hard',(#212));
#210=FILL_AREA_STYLE_COLOUR('Steel - Satin',#213);
#211=FILL_AREA_STYLE_COLOUR('ABS (White)',#214);
#212=FILL_AREA_STYLE_COLOUR('Rubber - Hard',#215);
#213=COLOUR_RGB('Steel - Satin',0.627450980392157,0.627450980392157,0.627450980392157);
#214=COLOUR_RGB('ABS (White)',0.964705882352941,0.964705882352941,0.952941176470588);
#215=COLOUR_RGB('Rubber - Hard',0.152941176470588,0.152941176470588,0.152941176470588);
ENDSEC;
END-ISO-10303-21;
