0
SECTION
2
HEADER
9
$INSUNITS
70
4
9
$ACADVER
1
AC1014
9
$HANDSEED
5
FFFF
0
ENDSEC
0
SECTION
2
TABLES
0
TABLE
2
VPORT
5
8
100
AcDbSymbolTable
0
ENDTAB
0
TABLE
2
LTYPE
5
5
100
AcDbSymbolTable
0
LTYPE
5
14
100
AcDbSymbolTableRecord
100
AcDbLinetypeTableRecord
2
BYBLOCK
70
0
0
LTYPE
5
15
100
AcDbSymbolTableRecord
100
AcDbLinetypeTableRecord
2
BYLAYER
70
0
0
LTYPE
5
16
100
AcDbSymbolTableRecord
100
AcDbLinetypeTableRecord
2
DASHED
70
0
3
Dashed __ __ __ __ __ __ __ __ __ __ __ __ __ _
72
65
73
2
40
0.75
49
0.5
74
0
49
-0.25
74
0
0
ENDTAB
0
TABLE
2
LAYER
5
2
100
AcDbSymbolTable
70
2
0
LAYER
5
50
100
AcDbSymbolTableRecord
100
AcDbLayerTableRecord
2
0
70
0
62
7
6
CONTINUOUS
0
ENDTAB
0
TABLE
2
STYLE
5
3
100
AcDbSymbolTable
70
1
0
STYLE
5
11
100
AcDbSymbolTableRecord
100
AcDbTextStyleTableRecord
2
STANDARD
70
0
0
ENDTAB
0
TABLE
2
VIEW
5
6
100
AcDbSymbolTable
70
0
0
ENDTAB
0
TABLE
2
UCS
5
7
100
AcDbSymbolTable
70
0
0
ENDTAB
0
TABLE
2
APPID
5
9
100
AcDbSymbolTable
70
2
0
APPID
5
12
100
AcDbSymbolTableRecord
100
AcDbRegAppTableRecord
2
ACAD
70
0
0
ENDTAB
0
TABLE
2
DIMSTYLE
5
A
100
AcDbSymbolTable
70
1
0
ENDTAB
0
TABLE
2
BLOCK_RECORD
5
1
100
AcDbSymbolTable
70
1
0
BLOCK_RECORD
5
1F
100
AcDbSymbolTableRecord
100
AcDbBlockTableRecord
2
*MODEL_SPACE
0
BLOCK_RECORD
5
1B
100
AcDbSymbolTableRecord
100
AcDbBlockTableRecord
2
*PAPER_SPACE
0
ENDTAB
0
ENDSEC
0
SECTION
2
BLOCKS
0
BLOCK
5
20
100
AcDbEntity
100
AcDbBlockBegin
2
*MODEL_SPACE
0
ENDBLK
5
21
100
AcDbEntity
100
AcDbBlockEnd
0
BLOCK
5
1C
100
AcDbEntity
100
AcDbBlockBegin
2
*PAPER_SPACE
0
ENDBLK
5
1D
100
AcDbEntity
100
AcDbBlockEnd
0
ENDSEC
0
SECTION
2
ENTITIES
0
CIRCLE
5
100
100
AcDbEntity
8
0
100
AcDbCircle
10
75.322057428653423
20
30.665229148672132
30
0
40
1.5000000000000036
210
0
220
-1.5407439555097887e-33
230
1
0
CIRCLE
5
101
100
AcDbEntity
8
0
100
AcDbCircle
10
-75.322057428653423
20
30.665229148672132
30
0
40
1.5000000000000036
210
0
220
-1.5407439555097887e-33
230
1
0
CIRCLE
5
102
100
AcDbEntity
8
0
100
AcDbCircle
10
0
20
-19.440049635737946
30
0
40
1.3250000000000002
210
0
220
-0
230
1
0
LWPOLYLINE
5
103
100
AcDbEntity
8
0
100
AcDbPolyline
90
9
70
1
43
0.0
10
3.75
20
3.2999503642620542
10
8.8408340175183842
20
3.1148597894798788
42
-0.4036089688749096
10
11.249999999999993
20
0.61651049819543935
10
11.249999999999998
20
-9.2000496357379387
42
-0.41421356237309515
10
8.7499999999999982
20
-11.700049635737939
10
-1.2500000000000009
20
-11.700049635737946
42
-0.4142135623730952
10
-3.7500000000000022
20
-9.2000496357379458
10
-3.7500000000000027
20
0.79995036426205623
42
-0.41421356237309515
10
-1.2500000000000024
20
3.299950364262056
0
CIRCLE
5
104
100
AcDbEntity
8
0
100
AcDbCircle
10
0
20
11.039950364262054
30
0
40
1.3250000000000002
210
0
220
-0
230
1
0
CIRCLE
5
105
100
AcDbEntity
8
0
100
AcDbCircle
10
75.322057428652954
20
-39.065328420149051
30
0
40
1.5000000000000036
210
0
220
-1.5407439555097887e-33
230
1
0
CIRCLE
5
106
100
AcDbEntity
8
0
100
AcDbCircle
10
-75.322057428652954
20
-39.065328420149051
30
0
40
1.5000000000000036
210
0
220
-1.5407439555097887e-33
230
1
0
LWPOLYLINE
5
107
100
AcDbEntity
8
0
100
AcDbPolyline
90
32
70
1
43
0.0
10
80.714197277171209
20
22.485272627998452
42
0.52163602777495022
10
83.529808810095801
20
26.520807125570659
42
0.032994868791080038
10
78.762600255330483
20
37.242112482315342
42
0.27849117802371481
10
76.107681145599926
20
38.845185669347309
10
26.245691183492951
20
38.845185669347863
42
-0.13024584045415377
10
24.760086022163165
20
39.23885159547509
42
0.26498691332954283
10
-24.760086022163161
20
39.23885159547509
42
-0.13024584045415524
10
-26.245691183492958
20
38.84518566934787
10
-76.107681145599912
20
38.845185669347877
42
0.27849117802366868
10
-78.762600255330028
20
37.242112482316273
42
0.032994868791082578
10
-83.52980881009583
20
26.520807125570691
42
0.52163602777495355
10
-80.714197277171223
20
22.485272627998455
10
-47.413136463041056
20
22.485272627998452
42
-0.55741902176414704
10
-44.729374021736845
20
18.144594009296391
42
0.23587872162975632
10
-44.729374021736845
20
-26.544693280772279
42
-0.55741902176414737
10
-47.413136463041056
20
-30.885371899474343
10
-80.714197277171223
20
-30.885371899474343
42
0.52163602777494489
10
-83.529808810095801
20
-34.920906397046558
42
0.032994868791083209
10
-78.762600255329929
20
-45.642211753792346
42
0.27849117802366163
10
-76.107681145599926
20
-47.245284940824284
10
-26.245691183492958
20
-47.245284940823765
42
-0.13024584045415458
10
-24.760086022163165
20
-47.638950866950978
42
0.26498691332954283
10
24.760086022163158
20
-47.638950866950978
42
-0.13024584045415458
10
26.245691183492951
20
-47.245284940823765
10
76.107681145599926
20
-47.245284940823765
42
0.27849117802367984
10
78.762600255330156
20
-45.642211753791877
42
0.032994868791081523
10
83.529808810095801
20
-34.920906397046572
42
0.52163602777495177
10
80.714197277171209
20
-30.885371899474357
10
47.413136463041056
20
-30.88537189947435
42
-0.55741902176414648
10
44.729374021736845
20
-26.544693280772297
42
0.23587872162975637
10
44.729374021736852
20
18.144594009296387
42
-0.55741902176414826
10
47.413136463041056
20
22.485272627998462
0
ENDSEC
0
SECTION
2
OBJECTS
0
DICTIONARY
5
C
100
AcDbDictionary
3
ACAD_GROUP
350
D
3
ACAD_MLINESTYLE
350
17
0
DICTIONARY
5
D
100
AcDbDictionary
0
DICTIONARY
5
1A
330
C
100
AcDbDictionary
0
DICTIONARY
5
17
100
AcDbDictionary
0
ENDSEC
0
EOF
