%TF.GenerationSoftware,KiCad,Pcbnew,9.0.5*%
%TF.CreationDate,2025-10-21T22:43:35+08:00*%
%TF.ProjectId,motordrivers,6d6f746f-7264-4726-9976-6572732e6b69,rev?*%
%TF.SameCoordinates,Original*%
%TF.FileFunction,Legend,Bot*%
%TF.FilePolarity,Positive*%
%FSLAX46Y46*%
G04 Gerber Fmt 4.6, Leading zero omitted, Abs format (unit mm)*
G04 Created by KiCad (PCBNEW 9.0.5) date 2025-10-21 22:43:35*
%MOMM*%
%LPD*%
G01*
G04 APERTURE LIST*
G04 Aperture macros list*
%AMRoundRect*
0 Rectangle with rounded corners*
0 $1 Rounding radius*
0 $2 $3 $4 $5 $6 $7 $8 $9 X,Y pos of 4 corners*
0 Add a 4 corners polygon primitive as box body*
4,1,4,$2,$3,$4,$5,$6,$7,$8,$9,$2,$3,0*
0 Add four circle primitives for the rounded corners*
1,1,$1+$1,$2,$3*
1,1,$1+$1,$4,$5*
1,1,$1+$1,$6,$7*
1,1,$1+$1,$8,$9*
0 Add four rect primitives between the rounded corners*
20,1,$1+$1,$2,$3,$4,$5,0*
20,1,$1+$1,$4,$5,$6,$7,0*
20,1,$1+$1,$6,$7,$8,$9,0*
20,1,$1+$1,$8,$9,$2,$3,0*%
G04 Aperture macros list end*
%ADD10C,0.200000*%
%ADD11R,1.700000X1.700000*%
%ADD12O,1.700000X1.700000*%
%ADD13C,1.000000*%
%ADD14RoundRect,0.250000X-0.550000X0.550000X-0.550000X-0.550000X0.550000X-0.550000X0.550000X0.550000X0*%
%ADD15C,1.600000*%
%ADD16RoundRect,0.750000X-0.750000X0.750000X-0.750000X-0.750000X0.750000X-0.750000X0.750000X0.750000X0*%
%ADD17C,3.000000*%
G04 APERTURE END LIST*
D10*
X9238095Y-13147247D02*
X9238095Y-12147247D01*
X9238095Y-13099628D02*
X9333333Y-13147247D01*
X9333333Y-13147247D02*
X9523809Y-13147247D01*
X9523809Y-13147247D02*
X9619047Y-13099628D01*
X9619047Y-13099628D02*
X9666666Y-13052008D01*
X9666666Y-13052008D02*
X9714285Y-12956770D01*
X9714285Y-12956770D02*
X9714285Y-12671056D01*
X9714285Y-12671056D02*
X9666666Y-12575818D01*
X9666666Y-12575818D02*
X9619047Y-12528199D01*
X9619047Y-12528199D02*
X9523809Y-12480580D01*
X9523809Y-12480580D02*
X9333333Y-12480580D01*
X9333333Y-12480580D02*
X9238095Y-12528199D01*
X8380952Y-13099628D02*
X8476190Y-13147247D01*
X8476190Y-13147247D02*
X8666666Y-13147247D01*
X8666666Y-13147247D02*
X8761904Y-13099628D01*
X8761904Y-13099628D02*
X8809523Y-13004389D01*
X8809523Y-13004389D02*
X8809523Y-12623437D01*
X8809523Y-12623437D02*
X8761904Y-12528199D01*
X8761904Y-12528199D02*
X8666666Y-12480580D01*
X8666666Y-12480580D02*
X8476190Y-12480580D01*
X8476190Y-12480580D02*
X8380952Y-12528199D01*
X8380952Y-12528199D02*
X8333333Y-12623437D01*
X8333333Y-12623437D02*
X8333333Y-12718675D01*
X8333333Y-12718675D02*
X8809523Y-12813913D01*
X7952380Y-13099628D02*
X7857142Y-13147247D01*
X7857142Y-13147247D02*
X7666666Y-13147247D01*
X7666666Y-13147247D02*
X7571428Y-13099628D01*
X7571428Y-13099628D02*
X7523809Y-13004389D01*
X7523809Y-13004389D02*
X7523809Y-12956770D01*
X7523809Y-12956770D02*
X7571428Y-12861532D01*
X7571428Y-12861532D02*
X7666666Y-12813913D01*
X7666666Y-12813913D02*
X7809523Y-12813913D01*
X7809523Y-12813913D02*
X7904761Y-12766294D01*
X7904761Y-12766294D02*
X7952380Y-12671056D01*
X7952380Y-12671056D02*
X7952380Y-12623437D01*
X7952380Y-12623437D02*
X7904761Y-12528199D01*
X7904761Y-12528199D02*
X7809523Y-12480580D01*
X7809523Y-12480580D02*
X7666666Y-12480580D01*
X7666666Y-12480580D02*
X7571428Y-12528199D01*
X7095237Y-13147247D02*
X7095237Y-12480580D01*
X7095237Y-12147247D02*
X7142856Y-12194866D01*
X7142856Y-12194866D02*
X7095237Y-12242485D01*
X7095237Y-12242485D02*
X7047618Y-12194866D01*
X7047618Y-12194866D02*
X7095237Y-12147247D01*
X7095237Y-12147247D02*
X7095237Y-12242485D01*
X6190476Y-12480580D02*
X6190476Y-13290104D01*
X6190476Y-13290104D02*
X6238095Y-13385342D01*
X6238095Y-13385342D02*
X6285714Y-13432961D01*
X6285714Y-13432961D02*
X6380952Y-13480580D01*
X6380952Y-13480580D02*
X6523809Y-13480580D01*
X6523809Y-13480580D02*
X6619047Y-13432961D01*
X6190476Y-13099628D02*
X6285714Y-13147247D01*
X6285714Y-13147247D02*
X6476190Y-13147247D01*
X6476190Y-13147247D02*
X6571428Y-13099628D01*
X6571428Y-13099628D02*
X6619047Y-13052008D01*
X6619047Y-13052008D02*
X6666666Y-12956770D01*
X6666666Y-12956770D02*
X6666666Y-12671056D01*
X6666666Y-12671056D02*
X6619047Y-12575818D01*
X6619047Y-12575818D02*
X6571428Y-12528199D01*
X6571428Y-12528199D02*
X6476190Y-12480580D01*
X6476190Y-12480580D02*
X6285714Y-12480580D01*
X6285714Y-12480580D02*
X6190476Y-12528199D01*
X5714285Y-12480580D02*
X5714285Y-13147247D01*
X5714285Y-12575818D02*
X5666666Y-12528199D01*
X5666666Y-12528199D02*
X5571428Y-12480580D01*
X5571428Y-12480580D02*
X5428571Y-12480580D01*
X5428571Y-12480580D02*
X5333333Y-12528199D01*
X5333333Y-12528199D02*
X5285714Y-12623437D01*
X5285714Y-12623437D02*
X5285714Y-13147247D01*
X3904761Y-13147247D02*
X3999999Y-13099628D01*
X3999999Y-13099628D02*
X4047618Y-13052008D01*
X4047618Y-13052008D02*
X4095237Y-12956770D01*
X4095237Y-12956770D02*
X4095237Y-12671056D01*
X4095237Y-12671056D02*
X4047618Y-12575818D01*
X4047618Y-12575818D02*
X3999999Y-12528199D01*
X3999999Y-12528199D02*
X3904761Y-12480580D01*
X3904761Y-12480580D02*
X3761904Y-12480580D01*
X3761904Y-12480580D02*
X3666666Y-12528199D01*
X3666666Y-12528199D02*
X3619047Y-12575818D01*
X3619047Y-12575818D02*
X3571428Y-12671056D01*
X3571428Y-12671056D02*
X3571428Y-12956770D01*
X3571428Y-12956770D02*
X3619047Y-13052008D01*
X3619047Y-13052008D02*
X3666666Y-13099628D01*
X3666666Y-13099628D02*
X3761904Y-13147247D01*
X3761904Y-13147247D02*
X3904761Y-13147247D01*
X3285713Y-12480580D02*
X2904761Y-12480580D01*
X3142856Y-13147247D02*
X3142856Y-12290104D01*
X3142856Y-12290104D02*
X3095237Y-12194866D01*
X3095237Y-12194866D02*
X2999999Y-12147247D01*
X2999999Y-12147247D02*
X2904761Y-12147247D01*
X1857141Y-12242485D02*
X1809522Y-12194866D01*
X1809522Y-12194866D02*
X1714284Y-12147247D01*
X1714284Y-12147247D02*
X1476189Y-12147247D01*
X1476189Y-12147247D02*
X1380951Y-12194866D01*
X1380951Y-12194866D02*
X1333332Y-12242485D01*
X1333332Y-12242485D02*
X1285713Y-12337723D01*
X1285713Y-12337723D02*
X1285713Y-12432961D01*
X1285713Y-12432961D02*
X1333332Y-12575818D01*
X1333332Y-12575818D02*
X1904760Y-13147247D01*
X1904760Y-13147247D02*
X1285713Y-13147247D01*
X857141Y-12766294D02*
X95237Y-12766294D01*
X-952382Y-13052008D02*
X-904763Y-13099628D01*
X-904763Y-13099628D02*
X-761906Y-13147247D01*
X-761906Y-13147247D02*
X-666668Y-13147247D01*
X-666668Y-13147247D02*
X-523811Y-13099628D01*
X-523811Y-13099628D02*
X-428573Y-13004389D01*
X-428573Y-13004389D02*
X-380954Y-12909151D01*
X-380954Y-12909151D02*
X-333335Y-12718675D01*
X-333335Y-12718675D02*
X-333335Y-12575818D01*
X-333335Y-12575818D02*
X-380954Y-12385342D01*
X-380954Y-12385342D02*
X-428573Y-12290104D01*
X-428573Y-12290104D02*
X-523811Y-12194866D01*
X-523811Y-12194866D02*
X-666668Y-12147247D01*
X-666668Y-12147247D02*
X-761906Y-12147247D01*
X-761906Y-12147247D02*
X-904763Y-12194866D01*
X-904763Y-12194866D02*
X-952382Y-12242485D01*
X-1380954Y-13147247D02*
X-1380954Y-12147247D01*
X-1809525Y-13147247D02*
X-1809525Y-12623437D01*
X-1809525Y-12623437D02*
X-1761906Y-12528199D01*
X-1761906Y-12528199D02*
X-1666668Y-12480580D01*
X-1666668Y-12480580D02*
X-1523811Y-12480580D01*
X-1523811Y-12480580D02*
X-1428573Y-12528199D01*
X-1428573Y-12528199D02*
X-1380954Y-12575818D01*
X-2714287Y-13147247D02*
X-2714287Y-12623437D01*
X-2714287Y-12623437D02*
X-2666668Y-12528199D01*
X-2666668Y-12528199D02*
X-2571430Y-12480580D01*
X-2571430Y-12480580D02*
X-2380954Y-12480580D01*
X-2380954Y-12480580D02*
X-2285716Y-12528199D01*
X-2714287Y-13099628D02*
X-2619049Y-13147247D01*
X-2619049Y-13147247D02*
X-2380954Y-13147247D01*
X-2380954Y-13147247D02*
X-2285716Y-13099628D01*
X-2285716Y-13099628D02*
X-2238097Y-13004389D01*
X-2238097Y-13004389D02*
X-2238097Y-12909151D01*
X-2238097Y-12909151D02*
X-2285716Y-12813913D01*
X-2285716Y-12813913D02*
X-2380954Y-12766294D01*
X-2380954Y-12766294D02*
X-2619049Y-12766294D01*
X-2619049Y-12766294D02*
X-2714287Y-12718675D01*
X-3190478Y-13147247D02*
X-3190478Y-12480580D01*
X-3190478Y-12147247D02*
X-3142859Y-12194866D01*
X-3142859Y-12194866D02*
X-3190478Y-12242485D01*
X-3190478Y-12242485D02*
X-3238097Y-12194866D01*
X-3238097Y-12194866D02*
X-3190478Y-12147247D01*
X-3190478Y-12147247D02*
X-3190478Y-12242485D01*
X-3666668Y-13147247D02*
X-3666668Y-12480580D01*
X-3666668Y-12671056D02*
X-3714287Y-12575818D01*
X-3714287Y-12575818D02*
X-3761906Y-12528199D01*
X-3761906Y-12528199D02*
X-3857144Y-12480580D01*
X-3857144Y-12480580D02*
X-3952382Y-12480580D01*
X-4238097Y-13099628D02*
X-4333335Y-13147247D01*
X-4333335Y-13147247D02*
X-4523811Y-13147247D01*
X-4523811Y-13147247D02*
X-4619049Y-13099628D01*
X-4619049Y-13099628D02*
X-4666668Y-13004389D01*
X-4666668Y-13004389D02*
X-4666668Y-12956770D01*
X-4666668Y-12956770D02*
X-4619049Y-12861532D01*
X-4619049Y-12861532D02*
X-4523811Y-12813913D01*
X-4523811Y-12813913D02*
X-4380954Y-12813913D01*
X-4380954Y-12813913D02*
X-4285716Y-12766294D01*
X-4285716Y-12766294D02*
X-4238097Y-12671056D01*
X-4238097Y-12671056D02*
X-4238097Y-12623437D01*
X-4238097Y-12623437D02*
X-4285716Y-12528199D01*
X-4285716Y-12528199D02*
X-4380954Y-12480580D01*
X-4380954Y-12480580D02*
X-4523811Y-12480580D01*
X-4523811Y-12480580D02*
X-4619049Y-12528199D01*
X-5095240Y-13052008D02*
X-5142859Y-13099628D01*
X-5142859Y-13099628D02*
X-5095240Y-13147247D01*
X-5095240Y-13147247D02*
X-5047621Y-13099628D01*
X-5047621Y-13099628D02*
X-5095240Y-13052008D01*
X-5095240Y-13052008D02*
X-5095240Y-13147247D01*
X-6285716Y-12242485D02*
X-6333335Y-12194866D01*
X-6333335Y-12194866D02*
X-6428573Y-12147247D01*
X-6428573Y-12147247D02*
X-6666668Y-12147247D01*
X-6666668Y-12147247D02*
X-6761906Y-12194866D01*
X-6761906Y-12194866D02*
X-6809525Y-12242485D01*
X-6809525Y-12242485D02*
X-6857144Y-12337723D01*
X-6857144Y-12337723D02*
X-6857144Y-12432961D01*
X-6857144Y-12432961D02*
X-6809525Y-12575818D01*
X-6809525Y-12575818D02*
X-6238097Y-13147247D01*
X-6238097Y-13147247D02*
X-6857144Y-13147247D01*
X-7476192Y-12147247D02*
X-7571430Y-12147247D01*
X-7571430Y-12147247D02*
X-7666668Y-12194866D01*
X-7666668Y-12194866D02*
X-7714287Y-12242485D01*
X-7714287Y-12242485D02*
X-7761906Y-12337723D01*
X-7761906Y-12337723D02*
X-7809525Y-12528199D01*
X-7809525Y-12528199D02*
X-7809525Y-12766294D01*
X-7809525Y-12766294D02*
X-7761906Y-12956770D01*
X-7761906Y-12956770D02*
X-7714287Y-13052008D01*
X-7714287Y-13052008D02*
X-7666668Y-13099628D01*
X-7666668Y-13099628D02*
X-7571430Y-13147247D01*
X-7571430Y-13147247D02*
X-7476192Y-13147247D01*
X-7476192Y-13147247D02*
X-7380954Y-13099628D01*
X-7380954Y-13099628D02*
X-7333335Y-13052008D01*
X-7333335Y-13052008D02*
X-7285716Y-12956770D01*
X-7285716Y-12956770D02*
X-7238097Y-12766294D01*
X-7238097Y-12766294D02*
X-7238097Y-12528199D01*
X-7238097Y-12528199D02*
X-7285716Y-12337723D01*
X-7285716Y-12337723D02*
X-7333335Y-12242485D01*
X-7333335Y-12242485D02*
X-7380954Y-12194866D01*
X-7380954Y-12194866D02*
X-7476192Y-12147247D01*
X-8190478Y-12242485D02*
X-8238097Y-12194866D01*
X-8238097Y-12194866D02*
X-8333335Y-12147247D01*
X-8333335Y-12147247D02*
X-8571430Y-12147247D01*
X-8571430Y-12147247D02*
X-8666668Y-12194866D01*
X-8666668Y-12194866D02*
X-8714287Y-12242485D01*
X-8714287Y-12242485D02*
X-8761906Y-12337723D01*
X-8761906Y-12337723D02*
X-8761906Y-12432961D01*
X-8761906Y-12432961D02*
X-8714287Y-12575818D01*
X-8714287Y-12575818D02*
X-8142859Y-13147247D01*
X-8142859Y-13147247D02*
X-8761906Y-13147247D01*
X-9666668Y-12147247D02*
X-9190478Y-12147247D01*
X-9190478Y-12147247D02*
X-9142859Y-12623437D01*
X-9142859Y-12623437D02*
X-9190478Y-12575818D01*
X-9190478Y-12575818D02*
X-9285716Y-12528199D01*
X-9285716Y-12528199D02*
X-9523811Y-12528199D01*
X-9523811Y-12528199D02*
X-9619049Y-12575818D01*
X-9619049Y-12575818D02*
X-9666668Y-12623437D01*
X-9666668Y-12623437D02*
X-9714287Y-12718675D01*
X-9714287Y-12718675D02*
X-9714287Y-12956770D01*
X-9714287Y-12956770D02*
X-9666668Y-13052008D01*
X-9666668Y-13052008D02*
X-9619049Y-13099628D01*
X-9619049Y-13099628D02*
X-9523811Y-13147247D01*
X-9523811Y-13147247D02*
X-9285716Y-13147247D01*
X-9285716Y-13147247D02*
X-9190478Y-13099628D01*
X-9190478Y-13099628D02*
X-9142859Y-13052008D01*
X10285715Y-13757191D02*
X10285715Y-14471476D01*
X10285715Y-14471476D02*
X10333334Y-14614333D01*
X10333334Y-14614333D02*
X10428572Y-14709572D01*
X10428572Y-14709572D02*
X10571429Y-14757191D01*
X10571429Y-14757191D02*
X10666667Y-14757191D01*
X9333334Y-14757191D02*
X9809524Y-14757191D01*
X9809524Y-14757191D02*
X9809524Y-13757191D01*
X8428572Y-14661952D02*
X8476191Y-14709572D01*
X8476191Y-14709572D02*
X8619048Y-14757191D01*
X8619048Y-14757191D02*
X8714286Y-14757191D01*
X8714286Y-14757191D02*
X8857143Y-14709572D01*
X8857143Y-14709572D02*
X8952381Y-14614333D01*
X8952381Y-14614333D02*
X9000000Y-14519095D01*
X9000000Y-14519095D02*
X9047619Y-14328619D01*
X9047619Y-14328619D02*
X9047619Y-14185762D01*
X9047619Y-14185762D02*
X9000000Y-13995286D01*
X9000000Y-13995286D02*
X8952381Y-13900048D01*
X8952381Y-13900048D02*
X8857143Y-13804810D01*
X8857143Y-13804810D02*
X8714286Y-13757191D01*
X8714286Y-13757191D02*
X8619048Y-13757191D01*
X8619048Y-13757191D02*
X8476191Y-13804810D01*
X8476191Y-13804810D02*
X8428572Y-13852429D01*
X7047619Y-13757191D02*
X6857143Y-13757191D01*
X6857143Y-13757191D02*
X6761905Y-13804810D01*
X6761905Y-13804810D02*
X6666667Y-13900048D01*
X6666667Y-13900048D02*
X6619048Y-14090524D01*
X6619048Y-14090524D02*
X6619048Y-14423857D01*
X6619048Y-14423857D02*
X6666667Y-14614333D01*
X6666667Y-14614333D02*
X6761905Y-14709572D01*
X6761905Y-14709572D02*
X6857143Y-14757191D01*
X6857143Y-14757191D02*
X7047619Y-14757191D01*
X7047619Y-14757191D02*
X7142857Y-14709572D01*
X7142857Y-14709572D02*
X7238095Y-14614333D01*
X7238095Y-14614333D02*
X7285714Y-14423857D01*
X7285714Y-14423857D02*
X7285714Y-14090524D01*
X7285714Y-14090524D02*
X7238095Y-13900048D01*
X7238095Y-13900048D02*
X7142857Y-13804810D01*
X7142857Y-13804810D02*
X7047619Y-13757191D01*
X6190476Y-14757191D02*
X6190476Y-14090524D01*
X6190476Y-14281000D02*
X6142857Y-14185762D01*
X6142857Y-14185762D02*
X6095238Y-14138143D01*
X6095238Y-14138143D02*
X6000000Y-14090524D01*
X6000000Y-14090524D02*
X5904762Y-14090524D01*
X5142857Y-14757191D02*
X5142857Y-13757191D01*
X5142857Y-14709572D02*
X5238095Y-14757191D01*
X5238095Y-14757191D02*
X5428571Y-14757191D01*
X5428571Y-14757191D02*
X5523809Y-14709572D01*
X5523809Y-14709572D02*
X5571428Y-14661952D01*
X5571428Y-14661952D02*
X5619047Y-14566714D01*
X5619047Y-14566714D02*
X5619047Y-14281000D01*
X5619047Y-14281000D02*
X5571428Y-14185762D01*
X5571428Y-14185762D02*
X5523809Y-14138143D01*
X5523809Y-14138143D02*
X5428571Y-14090524D01*
X5428571Y-14090524D02*
X5238095Y-14090524D01*
X5238095Y-14090524D02*
X5142857Y-14138143D01*
X4285714Y-14709572D02*
X4380952Y-14757191D01*
X4380952Y-14757191D02*
X4571428Y-14757191D01*
X4571428Y-14757191D02*
X4666666Y-14709572D01*
X4666666Y-14709572D02*
X4714285Y-14614333D01*
X4714285Y-14614333D02*
X4714285Y-14233381D01*
X4714285Y-14233381D02*
X4666666Y-14138143D01*
X4666666Y-14138143D02*
X4571428Y-14090524D01*
X4571428Y-14090524D02*
X4380952Y-14090524D01*
X4380952Y-14090524D02*
X4285714Y-14138143D01*
X4285714Y-14138143D02*
X4238095Y-14233381D01*
X4238095Y-14233381D02*
X4238095Y-14328619D01*
X4238095Y-14328619D02*
X4714285Y-14423857D01*
X3809523Y-14757191D02*
X3809523Y-14090524D01*
X3809523Y-14281000D02*
X3761904Y-14185762D01*
X3761904Y-14185762D02*
X3714285Y-14138143D01*
X3714285Y-14138143D02*
X3619047Y-14090524D01*
X3619047Y-14090524D02*
X3523809Y-14090524D01*
X2428570Y-14757191D02*
X2428570Y-13757191D01*
X2428570Y-13757191D02*
X1857142Y-14757191D01*
X1857142Y-14757191D02*
X1857142Y-13757191D01*
X1238094Y-14757191D02*
X1333332Y-14709572D01*
X1333332Y-14709572D02*
X1380951Y-14661952D01*
X1380951Y-14661952D02*
X1428570Y-14566714D01*
X1428570Y-14566714D02*
X1428570Y-14281000D01*
X1428570Y-14281000D02*
X1380951Y-14185762D01*
X1380951Y-14185762D02*
X1333332Y-14138143D01*
X1333332Y-14138143D02*
X1238094Y-14090524D01*
X1238094Y-14090524D02*
X1095237Y-14090524D01*
X1095237Y-14090524D02*
X999999Y-14138143D01*
X999999Y-14138143D02*
X952380Y-14185762D01*
X952380Y-14185762D02*
X904761Y-14281000D01*
X904761Y-14281000D02*
X904761Y-14566714D01*
X904761Y-14566714D02*
X952380Y-14661952D01*
X952380Y-14661952D02*
X999999Y-14709572D01*
X999999Y-14709572D02*
X1095237Y-14757191D01*
X1095237Y-14757191D02*
X1238094Y-14757191D01*
X476189Y-14661952D02*
X428570Y-14709572D01*
X428570Y-14709572D02*
X476189Y-14757191D01*
X476189Y-14757191D02*
X523808Y-14709572D01*
X523808Y-14709572D02*
X476189Y-14661952D01*
X476189Y-14661952D02*
X476189Y-14757191D01*
X-1047620Y-13757191D02*
X-1047620Y-14471476D01*
X-1047620Y-14471476D02*
X-1000001Y-14614333D01*
X-1000001Y-14614333D02*
X-904763Y-14709572D01*
X-904763Y-14709572D02*
X-761906Y-14757191D01*
X-761906Y-14757191D02*
X-666668Y-14757191D01*
X-2000001Y-14757191D02*
X-1523811Y-14757191D01*
X-1523811Y-14757191D02*
X-1523811Y-13757191D01*
X-2904763Y-14661952D02*
X-2857144Y-14709572D01*
X-2857144Y-14709572D02*
X-2714287Y-14757191D01*
X-2714287Y-14757191D02*
X-2619049Y-14757191D01*
X-2619049Y-14757191D02*
X-2476192Y-14709572D01*
X-2476192Y-14709572D02*
X-2380954Y-14614333D01*
X-2380954Y-14614333D02*
X-2333335Y-14519095D01*
X-2333335Y-14519095D02*
X-2285716Y-14328619D01*
X-2285716Y-14328619D02*
X-2285716Y-14185762D01*
X-2285716Y-14185762D02*
X-2333335Y-13995286D01*
X-2333335Y-13995286D02*
X-2380954Y-13900048D01*
X-2380954Y-13900048D02*
X-2476192Y-13804810D01*
X-2476192Y-13804810D02*
X-2619049Y-13757191D01*
X-2619049Y-13757191D02*
X-2714287Y-13757191D01*
X-2714287Y-13757191D02*
X-2857144Y-13804810D01*
X-2857144Y-13804810D02*
X-2904763Y-13852429D01*
X-3619049Y-13757191D02*
X-3619049Y-14471476D01*
X-3619049Y-14471476D02*
X-3571430Y-14614333D01*
X-3571430Y-14614333D02*
X-3476192Y-14709572D01*
X-3476192Y-14709572D02*
X-3333335Y-14757191D01*
X-3333335Y-14757191D02*
X-3238097Y-14757191D01*
X-4571430Y-14757191D02*
X-4095240Y-14757191D01*
X-4095240Y-14757191D02*
X-4095240Y-13757191D01*
X-5476192Y-14661952D02*
X-5428573Y-14709572D01*
X-5428573Y-14709572D02*
X-5285716Y-14757191D01*
X-5285716Y-14757191D02*
X-5190478Y-14757191D01*
X-5190478Y-14757191D02*
X-5047621Y-14709572D01*
X-5047621Y-14709572D02*
X-4952383Y-14614333D01*
X-4952383Y-14614333D02*
X-4904764Y-14519095D01*
X-4904764Y-14519095D02*
X-4857145Y-14328619D01*
X-4857145Y-14328619D02*
X-4857145Y-14185762D01*
X-4857145Y-14185762D02*
X-4904764Y-13995286D01*
X-4904764Y-13995286D02*
X-4952383Y-13900048D01*
X-4952383Y-13900048D02*
X-5047621Y-13804810D01*
X-5047621Y-13804810D02*
X-5190478Y-13757191D01*
X-5190478Y-13757191D02*
X-5285716Y-13757191D01*
X-5285716Y-13757191D02*
X-5428573Y-13804810D01*
X-5428573Y-13804810D02*
X-5476192Y-13852429D01*
X-6190478Y-13757191D02*
X-6190478Y-14471476D01*
X-6190478Y-14471476D02*
X-6142859Y-14614333D01*
X-6142859Y-14614333D02*
X-6047621Y-14709572D01*
X-6047621Y-14709572D02*
X-5904764Y-14757191D01*
X-5904764Y-14757191D02*
X-5809526Y-14757191D01*
X-7142859Y-14757191D02*
X-6666669Y-14757191D01*
X-6666669Y-14757191D02*
X-6666669Y-13757191D01*
X-8047621Y-14661952D02*
X-8000002Y-14709572D01*
X-8000002Y-14709572D02*
X-7857145Y-14757191D01*
X-7857145Y-14757191D02*
X-7761907Y-14757191D01*
X-7761907Y-14757191D02*
X-7619050Y-14709572D01*
X-7619050Y-14709572D02*
X-7523812Y-14614333D01*
X-7523812Y-14614333D02*
X-7476193Y-14519095D01*
X-7476193Y-14519095D02*
X-7428574Y-14328619D01*
X-7428574Y-14328619D02*
X-7428574Y-14185762D01*
X-7428574Y-14185762D02*
X-7476193Y-13995286D01*
X-7476193Y-13995286D02*
X-7523812Y-13900048D01*
X-7523812Y-13900048D02*
X-7619050Y-13804810D01*
X-7619050Y-13804810D02*
X-7761907Y-13757191D01*
X-7761907Y-13757191D02*
X-7857145Y-13757191D01*
X-7857145Y-13757191D02*
X-8000002Y-13804810D01*
X-8000002Y-13804810D02*
X-8047621Y-13852429D01*
X-8761907Y-13757191D02*
X-8761907Y-14471476D01*
X-8761907Y-14471476D02*
X-8714288Y-14614333D01*
X-8714288Y-14614333D02*
X-8619050Y-14709572D01*
X-8619050Y-14709572D02*
X-8476193Y-14757191D01*
X-8476193Y-14757191D02*
X-8380955Y-14757191D01*
X-9714288Y-14757191D02*
X-9238098Y-14757191D01*
X-9238098Y-14757191D02*
X-9238098Y-13757191D01*
X-10619050Y-14661952D02*
X-10571431Y-14709572D01*
X-10571431Y-14709572D02*
X-10428574Y-14757191D01*
X-10428574Y-14757191D02*
X-10333336Y-14757191D01*
X-10333336Y-14757191D02*
X-10190479Y-14709572D01*
X-10190479Y-14709572D02*
X-10095241Y-14614333D01*
X-10095241Y-14614333D02*
X-10047622Y-14519095D01*
X-10047622Y-14519095D02*
X-10000003Y-14328619D01*
X-10000003Y-14328619D02*
X-10000003Y-14185762D01*
X-10000003Y-14185762D02*
X-10047622Y-13995286D01*
X-10047622Y-13995286D02*
X-10095241Y-13900048D01*
X-10095241Y-13900048D02*
X-10190479Y-13804810D01*
X-10190479Y-13804810D02*
X-10333336Y-13757191D01*
X-10333336Y-13757191D02*
X-10428574Y-13757191D01*
X-10428574Y-13757191D02*
X-10571431Y-13804810D01*
X-10571431Y-13804810D02*
X-10619050Y-13852429D01*
%LPC*%
D11*
%TO.C,J2*%
X-8875000Y17500000D03*
D12*
X-6335000Y17500000D03*
X-3795000Y17500000D03*
X-1255000Y17500000D03*
X1285000Y17500000D03*
X3825000Y17500000D03*
X6365000Y17500000D03*
X8905000Y17500000D03*
%TD*%
D11*
%TO.C,J3*%
X-8875000Y-17500000D03*
D12*
X-6335000Y-17500000D03*
X-3795000Y-17500000D03*
X-1255000Y-17500000D03*
X1285000Y-17500000D03*
X3825000Y-17500000D03*
X6365000Y-17500000D03*
X8905000Y-17500000D03*
%TD*%
D13*
%TO.C,IC2*%
X9200000Y-4600000D03*
X9200000Y-3600000D03*
X9200000Y-2600000D03*
X8200000Y-4600000D03*
X8200000Y-3600000D03*
X8200000Y-2600000D03*
X7200000Y-4600000D03*
X7200000Y-3600000D03*
X7200000Y-2600000D03*
X800000Y-4600000D03*
X800000Y-3600000D03*
X800000Y-2600000D03*
X-200000Y-4600000D03*
X-200000Y-3600000D03*
X-200000Y-2600000D03*
X-1200000Y-4600000D03*
X-1200000Y-3600000D03*
X-1200000Y-2600000D03*
X6000000Y1900000D03*
X6000000Y2900000D03*
X5000000Y1900000D03*
X5000000Y2900000D03*
X4000000Y1900000D03*
X4000000Y2900000D03*
X3000000Y1900000D03*
X3000000Y2900000D03*
X2000000Y1900000D03*
X2000000Y2900000D03*
%TD*%
D14*
%TO.C,C15*%
X-9500000Y5152651D03*
D15*
X-9500000Y1652651D03*
%TD*%
D16*
%TO.C,J1*%
X-9400000Y-4300000D03*
D17*
X-9400000Y-9300000D03*
%TD*%
%LPD*%
M02*
