%TF.GenerationSoftware,KiCad,Pcbnew,9.0.5*%
%TF.CreationDate,2025-10-21T22:43:35+08:00*%
%TF.ProjectId,motordrivers,6d6f746f-7264-4726-9976-6572732e6b69,rev?*%
%TF.SameCoordinates,Original*%
%TF.FileFunction,Soldermask,Top*%
%TF.FilePolarity,Negative*%
%FSLAX46Y46*%
G04 Gerber Fmt 4.6, Leading zero omitted, Abs format (unit mm)*
G04 Created by KiCad (PCBNEW 9.0.5) date 2025-10-21 22:43:35*
%MOMM*%
%LPD*%
G01*
G04 APERTURE LIST*
G04 Aperture macros list*
%AMRoundRect*
0 Rectangle with rounded corners*
0 $1 Rounding radius*
0 $2 $3 $4 $5 $6 $7 $8 $9 X,Y pos of 4 corners*
0 Add a 4 corners polygon primitive as box body*
4,1,4,$2,$3,$4,$5,$6,$7,$8,$9,$2,$3,0*
0 Add four circle primitives for the rounded corners*
1,1,$1+$1,$2,$3*
1,1,$1+$1,$4,$5*
1,1,$1+$1,$6,$7*
1,1,$1+$1,$8,$9*
0 Add four rect primitives between the rounded corners*
20,1,$1+$1,$2,$3,$4,$5,0*
20,1,$1+$1,$4,$5,$6,$7,0*
20,1,$1+$1,$6,$7,$8,$9,0*
20,1,$1+$1,$8,$9,$2,$3,0*%
G04 Aperture macros list end*
%ADD10R,1.700000X1.700000*%
%ADD11O,1.700000X1.700000*%
%ADD12RoundRect,0.100000X-0.400000X0.400000X-0.400000X-0.400000X0.400000X-0.400000X0.400000X0.400000X0*%
%ADD13RoundRect,0.061000X0.574000X0.244000X-0.574000X0.244000X-0.574000X-0.244000X0.574000X-0.244000X0*%
%ADD14RoundRect,0.061000X-0.574000X-0.244000X0.574000X-0.244000X0.574000X0.244000X-0.574000X0.244000X0*%
%ADD15RoundRect,0.187500X1.767500X-1.687500X1.767500X1.687500X-1.767500X1.687500X-1.767500X-1.687500X0*%
%ADD16RoundRect,0.100000X0.400000X-0.400000X0.400000X0.400000X-0.400000X0.400000X-0.400000X-0.400000X0*%
%ADD17R,0.680000X1.300000*%
%ADD18C,1.000000*%
%ADD19RoundRect,0.200000X-2.900000X2.500000X-2.900000X-2.500000X2.900000X-2.500000X2.900000X2.500000X0*%
%ADD20RoundRect,0.200000X-4.950000X2.400000X-4.950000X-2.400000X4.950000X-2.400000X4.950000X2.400000X0*%
%ADD21RoundRect,0.250000X-0.550000X0.550000X-0.550000X-0.550000X0.550000X-0.550000X0.550000X0.550000X0*%
%ADD22C,1.600000*%
%ADD23RoundRect,0.750000X-0.750000X0.750000X-0.750000X-0.750000X0.750000X-0.750000X0.750000X0.750000X0*%
%ADD24C,3.000000*%
G04 APERTURE END LIST*
D10*
%TO.C,J2*%
X-8875000Y17500000D03*
D11*
X-6335000Y17500000D03*
X-3795000Y17500000D03*
X-1255000Y17500000D03*
X1285000Y17500000D03*
X3825000Y17500000D03*
X6365000Y17500000D03*
X8905000Y17500000D03*
%TD*%
D10*
%TO.C,J3*%
X-8875000Y-17500000D03*
D11*
X-6335000Y-17500000D03*
X-3795000Y-17500000D03*
X-1255000Y-17500000D03*
X1285000Y-17500000D03*
X3825000Y-17500000D03*
X6365000Y-17500000D03*
X8905000Y-17500000D03*
%TD*%
D12*
%TO.C,R8*%
X9600000Y13399999D03*
X9600000Y11799999D03*
%TD*%
%TO.C,R12*%
X5600000Y13399999D03*
X5600000Y11799999D03*
%TD*%
%TO.C,R13*%
X-4400000Y13399999D03*
X-4400000Y11799999D03*
%TD*%
%TO.C,R14*%
X-400000Y13399999D03*
X-400000Y11799999D03*
%TD*%
D13*
%TO.C,Q1*%
X-6825000Y9350000D03*
X-6825000Y10620000D03*
X-6825000Y11890000D03*
X-6825000Y13160000D03*
D14*
X-12165000Y13160000D03*
X-12165000Y11890000D03*
X-12165000Y10620000D03*
X-12165000Y9350000D03*
D15*
X-10100000Y11225000D03*
%TD*%
D12*
%TO.C,R10*%
X3600000Y13399999D03*
X3600000Y11799999D03*
%TD*%
%TO.C,R9*%
X11600000Y13399999D03*
X11600000Y11799999D03*
%TD*%
D16*
%TO.C,C16*%
X7600000Y11799999D03*
X7600000Y13399999D03*
%TD*%
D17*
%TO.C,IC2*%
X11000000Y8550000D03*
X10000000Y8550000D03*
X9000000Y8550000D03*
X8000000Y8550000D03*
X7000000Y8550000D03*
X6000000Y8550000D03*
X5000000Y8550000D03*
X4000000Y8550000D03*
X3000000Y8550000D03*
X2000000Y8550000D03*
X1000000Y8550000D03*
X0Y8550000D03*
X-1000000Y8550000D03*
X-2000000Y8550000D03*
X-3000000Y8550000D03*
X-3000000Y-9750000D03*
X-2000000Y-9750000D03*
X-1000000Y-9750000D03*
X0Y-9750000D03*
X1000000Y-9750000D03*
X2000000Y-9750000D03*
X3000000Y-9750000D03*
X4000000Y-9750000D03*
X5000000Y-9750000D03*
X6000000Y-9750000D03*
X7000000Y-9750000D03*
X8000000Y-9750000D03*
X9000000Y-9750000D03*
X10000000Y-9750000D03*
X11000000Y-9750000D03*
D18*
X9200000Y-4600000D03*
X9200000Y-3600000D03*
X9200000Y-2600000D03*
X8200000Y-4600000D03*
X8200000Y-3600000D03*
D19*
X8200000Y-3600000D03*
D18*
X8200000Y-2600000D03*
X7200000Y-4600000D03*
X7200000Y-3600000D03*
X7200000Y-2600000D03*
X800000Y-4600000D03*
X800000Y-3600000D03*
X800000Y-2600000D03*
X-200000Y-4600000D03*
X-200000Y-3600000D03*
D19*
X-200000Y-3600000D03*
D18*
X-200000Y-2600000D03*
X-1200000Y-4600000D03*
X-1200000Y-3600000D03*
X-1200000Y-2600000D03*
X6000000Y1900000D03*
X6000000Y2900000D03*
X5000000Y1900000D03*
X5000000Y2900000D03*
X4000000Y1900000D03*
D20*
X4000000Y2400000D03*
D18*
X4000000Y2900000D03*
X3000000Y1900000D03*
X3000000Y2900000D03*
X2000000Y1900000D03*
X2000000Y2900000D03*
%TD*%
D21*
%TO.C,C15*%
X-9500000Y5152651D03*
D22*
X-9500000Y1652651D03*
%TD*%
D12*
%TO.C,R11*%
X-2400000Y13399999D03*
X-2400000Y11799999D03*
%TD*%
%TO.C,R15*%
X1600000Y13399999D03*
X1600000Y11799999D03*
%TD*%
D23*
%TO.C,J1*%
X-9400000Y-4300000D03*
D24*
X-9400000Y-9300000D03*
%TD*%
M02*
