M48
; DRILL file {KiCad 9.0.5} date 2025-10-21T22:43:35+0800
; FORMAT={-:-/ absolute / inch / decimal}
; #@! TF.CreationDate,2025-10-21T22:43:35+08:00
; #@! TF.GenerationSoftware,Kicad,Pcbnew,9.0.5
; #@! TF.FileFunction,Plated,1,2,PTH
FMAT,2
INCH
; #@! TA.AperFunction,Plated,PTH,ViaDrill
T1C0.0118
; #@! TA.AperFunction,Plated,PTH,ComponentDrill
T2C0.0197
; #@! TA.AperFunction,Plated,PTH,ComponentDrill
T3C0.0315
; #@! TA.AperFunction,Plated,PTH,ComponentDrill
T4C0.0394
; #@! TA.AperFunction,Plated,PTH,ComponentDrill
T5C0.0709
%
G90
G05
T1
X-0.2687Y0.5181
X-0.2677Y0.3307
X-0.2677Y0.2992
X-0.2362Y0.3307
X-0.2362Y0.2992
X-0.2047Y0.3937
X-0.2047Y0.3622
X-0.2047Y0.3307
X-0.2047Y0.2992
X-0.1732Y0.3937
X-0.1732Y0.3622
X-0.1732Y0.3307
X-0.1732Y0.2992
X-0.1732Y0.2677
X-0.1181Y0.3366
X-0.1181Y-0.3839
X-0.1181Y-0.4173
X-0.0945Y0.5276
X0.0Y0.3366
X0.0394Y0.3366
X0.063Y0.4646
X0.0787Y-0.3839
X0.0787Y-0.4173
X0.1417Y0.5276
X0.1575Y-0.3839
X0.1575Y-0.4173
X0.3543Y0.3366
X0.378Y0.5276
X0.378Y0.4646
X0.4567Y0.5276
X0.4567Y0.4646
T2
X-0.0472Y-0.1024
X-0.0472Y-0.1417
X-0.0472Y-0.1811
X-0.0079Y-0.1024
X-0.0079Y-0.1417
X-0.0079Y-0.1811
X0.0315Y-0.1024
X0.0315Y-0.1417
X0.0315Y-0.1811
X0.0787Y0.1142
X0.0787Y0.0748
X0.1181Y0.1142
X0.1181Y0.0748
X0.1575Y0.1142
X0.1575Y0.0748
X0.1969Y0.1142
X0.1969Y0.0748
X0.2362Y0.1142
X0.2362Y0.0748
X0.2835Y-0.1024
X0.2835Y-0.1417
X0.2835Y-0.1811
X0.3228Y-0.1024
X0.3228Y-0.1417
X0.3228Y-0.1811
X0.3622Y-0.1024
X0.3622Y-0.1417
X0.3622Y-0.1811
T3
X-0.374Y0.2029
X-0.374Y0.0651
T4
X-0.3494Y0.689
X-0.3494Y-0.689
X-0.2494Y0.689
X-0.2494Y-0.689
X-0.1494Y0.689
X-0.1494Y-0.689
X-0.0494Y0.689
X-0.0494Y-0.689
X0.0506Y0.689
X0.0506Y-0.689
X0.1506Y0.689
X0.1506Y-0.689
X0.2506Y0.689
X0.2506Y-0.689
X0.3506Y0.689
X0.3506Y-0.689
T5
X-0.3701Y-0.1693
X-0.3701Y-0.3661
M30
