%TF.GenerationSoftware,KiCad,Pcbnew,9.0.5*%
%TF.CreationDate,2025-10-21T22:43:35+08:00*%
%TF.ProjectId,motordrivers,6d6f746f-7264-4726-9976-6572732e6b69,rev?*%
%TF.SameCoordinates,Original*%
%TF.FileFunction,Legend,Top*%
%TF.FilePolarity,Positive*%
%FSLAX46Y46*%
G04 Gerber Fmt 4.6, Leading zero omitted, Abs format (unit mm)*
G04 Created by KiCad (PCBNEW 9.0.5) date 2025-10-21 22:43:35*
%MOMM*%
%LPD*%
G01*
G04 APERTURE LIST*
G04 Aperture macros list*
%AMRoundRect*
0 Rectangle with rounded corners*
0 $1 Rounding radius*
0 $2 $3 $4 $5 $6 $7 $8 $9 X,Y pos of 4 corners*
0 Add a 4 corners polygon primitive as box body*
4,1,4,$2,$3,$4,$5,$6,$7,$8,$9,$2,$3,0*
0 Add four circle primitives for the rounded corners*
1,1,$1+$1,$2,$3*
1,1,$1+$1,$4,$5*
1,1,$1+$1,$6,$7*
1,1,$1+$1,$8,$9*
0 Add four rect primitives between the rounded corners*
20,1,$1+$1,$2,$3,$4,$5,0*
20,1,$1+$1,$4,$5,$6,$7,0*
20,1,$1+$1,$6,$7,$8,$9,0*
20,1,$1+$1,$8,$9,$2,$3,0*%
G04 Aperture macros list end*
%ADD10C,0.120000*%
%ADD11C,0.100000*%
%ADD12C,0.200000*%
%ADD13C,0.300000*%
%ADD14C,0.000000*%
%ADD15R,1.700000X1.700000*%
%ADD16O,1.700000X1.700000*%
%ADD17RoundRect,0.100000X-0.400000X0.400000X-0.400000X-0.400000X0.400000X-0.400000X0.400000X0.400000X0*%
%ADD18RoundRect,0.061000X0.574000X0.244000X-0.574000X0.244000X-0.574000X-0.244000X0.574000X-0.244000X0*%
%ADD19RoundRect,0.061000X-0.574000X-0.244000X0.574000X-0.244000X0.574000X0.244000X-0.574000X0.244000X0*%
%ADD20RoundRect,0.187500X1.767500X-1.687500X1.767500X1.687500X-1.767500X1.687500X-1.767500X-1.687500X0*%
%ADD21RoundRect,0.100000X0.400000X-0.400000X0.400000X0.400000X-0.400000X0.400000X-0.400000X-0.400000X0*%
%ADD22R,0.680000X1.300000*%
%ADD23C,1.000000*%
%ADD24RoundRect,0.200000X-2.900000X2.500000X-2.900000X-2.500000X2.900000X-2.500000X2.900000X2.500000X0*%
%ADD25RoundRect,0.200000X-4.950000X2.400000X-4.950000X-2.400000X4.950000X-2.400000X4.950000X2.400000X0*%
%ADD26RoundRect,0.250000X-0.550000X0.550000X-0.550000X-0.550000X0.550000X-0.550000X0.550000X0.550000X0*%
%ADD27C,1.600000*%
%ADD28RoundRect,0.750000X-0.750000X0.750000X-0.750000X-0.750000X0.750000X-0.750000X0.750000X0.750000X0*%
%ADD29C,3.000000*%
G04 APERTURE END LIST*
D10*
%TO.C,J2*%
X-10205000Y16170000D02*
X-10205000Y17500000D01*
X-8875000Y16170000D02*
X-10205000Y16170000D01*
X-7605000Y18830000D02*
X10235000Y18830000D01*
X-7605000Y16170000D02*
X-7605000Y18830000D01*
X-7605000Y16170000D02*
X10235000Y16170000D01*
X10235000Y16170000D02*
X10235000Y18830000D01*
%TO.C,J3*%
X-10205000Y-18830000D02*
X-10205000Y-17500000D01*
X-8875000Y-18830000D02*
X-10205000Y-18830000D01*
X-7605000Y-16170000D02*
X10235000Y-16170000D01*
X-7605000Y-18830000D02*
X-7605000Y-16170000D01*
X-7605000Y-18830000D02*
X10235000Y-18830000D01*
X10235000Y-18830000D02*
X10235000Y-16170000D01*
D11*
%TO.C,R8*%
X8700000Y14099999D02*
X8700000Y11099999D01*
X9000000Y14399999D02*
X10200000Y14399999D01*
X10200000Y10799999D02*
X9000000Y10799999D01*
X10500000Y14099999D02*
X10500000Y11099999D01*
X8700000Y14099999D02*
G75*
G02*
X9000000Y14399999I300000J0D01*
G01*
X9000000Y10799999D02*
G75*
G02*
X8700000Y11099999I0J300000D01*
G01*
X10200000Y14399999D02*
G75*
G02*
X10500000Y14099999I0J-300000D01*
G01*
X10500000Y11099999D02*
G75*
G02*
X10200000Y10799999I-300000J0D01*
G01*
%TO.C,R12*%
X4700000Y14099999D02*
X4700000Y11099999D01*
X5000000Y14399999D02*
X6200000Y14399999D01*
X6200000Y10799999D02*
X5000000Y10799999D01*
X6500000Y14099999D02*
X6500000Y11099999D01*
X4700000Y14099999D02*
G75*
G02*
X5000000Y14399999I300000J0D01*
G01*
X5000000Y10799999D02*
G75*
G02*
X4700000Y11099999I0J300000D01*
G01*
X6200000Y14399999D02*
G75*
G02*
X6500000Y14099999I0J-300000D01*
G01*
X6500000Y11099999D02*
G75*
G02*
X6200000Y10799999I-300000J0D01*
G01*
%TO.C,R13*%
X-5300000Y14099999D02*
X-5300000Y11099999D01*
X-5000000Y14399999D02*
X-3800000Y14399999D01*
X-3800000Y10799999D02*
X-5000000Y10799999D01*
X-3500000Y14099999D02*
X-3500000Y11099999D01*
X-5300000Y14099999D02*
G75*
G02*
X-5000000Y14399999I300000J0D01*
G01*
X-5000000Y10799999D02*
G75*
G02*
X-5300000Y11099999I0J300000D01*
G01*
X-3800000Y14399999D02*
G75*
G02*
X-3500000Y14099999I0J-300000D01*
G01*
X-3500000Y11099999D02*
G75*
G02*
X-3800000Y10799999I-300000J0D01*
G01*
%TO.C,R14*%
X-1300000Y14099999D02*
X-1300000Y11099999D01*
X-1000000Y14399999D02*
X200000Y14399999D01*
X200000Y10799999D02*
X-1000000Y10799999D01*
X500000Y14099999D02*
X500000Y11099999D01*
X-1300000Y14099999D02*
G75*
G02*
X-1000000Y14399999I300000J0D01*
G01*
X-1000000Y10799999D02*
G75*
G02*
X-1300000Y11099999I0J300000D01*
G01*
X200000Y14399999D02*
G75*
G02*
X500000Y14099999I0J-300000D01*
G01*
X500000Y11099999D02*
G75*
G02*
X200000Y10799999I-300000J0D01*
G01*
%TO.C,Q1*%
D12*
X-13100000Y8375000D02*
X-5900000Y8375000D01*
X-5900000Y14075000D01*
X-13100000Y14075000D01*
X-13100000Y8375000D01*
D13*
X-5350000Y7725000D02*
G75*
G02*
X-5650000Y7725000I-150000J0D01*
G01*
X-5650000Y7725000D02*
G75*
G02*
X-5350000Y7725000I150000J0D01*
G01*
D11*
%TO.C,R10*%
X2700000Y14099999D02*
X2700000Y11099999D01*
X3000000Y14399999D02*
X4200000Y14399999D01*
X4200000Y10799999D02*
X3000000Y10799999D01*
X4500000Y14099999D02*
X4500000Y11099999D01*
X2700000Y14099999D02*
G75*
G02*
X3000000Y14399999I300000J0D01*
G01*
X3000000Y10799999D02*
G75*
G02*
X2700000Y11099999I0J300000D01*
G01*
X4200000Y14399999D02*
G75*
G02*
X4500000Y14099999I0J-300000D01*
G01*
X4500000Y11099999D02*
G75*
G02*
X4200000Y10799999I-300000J0D01*
G01*
%TO.C,R9*%
X10700000Y14099999D02*
X10700000Y11099999D01*
X11000000Y14399999D02*
X12200000Y14399999D01*
X12200000Y10799999D02*
X11000000Y10799999D01*
X12500000Y14099999D02*
X12500000Y11099999D01*
X10700000Y14099999D02*
G75*
G02*
X11000000Y14399999I300000J0D01*
G01*
X11000000Y10799999D02*
G75*
G02*
X10700000Y11099999I0J300000D01*
G01*
X12200000Y14399999D02*
G75*
G02*
X12500000Y14099999I0J-300000D01*
G01*
X12500000Y11099999D02*
G75*
G02*
X12200000Y10799999I-300000J0D01*
G01*
%TO.C,C16*%
X6700000Y11099999D02*
X6700000Y14099999D01*
X7000000Y14399999D02*
X8200000Y14399999D01*
X8200000Y10799999D02*
X7000000Y10799999D01*
X8500000Y11099999D02*
X8500000Y14099999D01*
X6700000Y14099999D02*
G75*
G02*
X7000000Y14399999I300000J0D01*
G01*
X7000000Y10799999D02*
G75*
G02*
X6700000Y11099999I0J300000D01*
G01*
X8200000Y14399999D02*
G75*
G02*
X8500000Y14099999I0J-300000D01*
G01*
X8500000Y11099999D02*
G75*
G02*
X8200000Y10799999I-300000J0D01*
G01*
%TO.C,IC2*%
D12*
X12600000Y-8600000D02*
X-4600000Y-8600000D01*
X-4600000Y7400000D01*
X12600000Y7400000D01*
X12600000Y-8600000D01*
D14*
G36*
X12125121Y8892068D02*
G01*
X12199038Y8849392D01*
X12259392Y8789038D01*
X12302068Y8715121D01*
X12324159Y8632676D01*
X12324159Y8547324D01*
X12302068Y8464879D01*
X12259392Y8390962D01*
X12199038Y8330608D01*
X12125121Y8287932D01*
X12042676Y8265841D01*
X11957324Y8265841D01*
X11874879Y8287932D01*
X11800962Y8330608D01*
X11740608Y8390962D01*
X11697932Y8464879D01*
X11675841Y8547324D01*
X11675841Y8632676D01*
X11697932Y8715121D01*
X11740608Y8789038D01*
X11800962Y8849392D01*
X11874879Y8892068D01*
X11957324Y8914159D01*
X12042676Y8914159D01*
X12125121Y8892068D01*
G37*
D10*
%TO.C,C15*%
X-10540000Y2682651D02*
X-13517000Y2682651D01*
X-10540000Y2642651D02*
X-13509000Y2642651D01*
X-10540000Y2602651D02*
X-13502000Y2602651D01*
X-10540000Y2562651D02*
X-13493000Y2562651D01*
X-10540000Y2522651D02*
X-13485000Y2522651D01*
X-10540000Y2482651D02*
X-13476000Y2482651D01*
X-10540000Y2442651D02*
X-13467000Y2442651D01*
X-10540000Y2402651D02*
X-13457000Y2402651D01*
X-10540000Y2362651D02*
X-13447000Y2362651D01*
X-10540000Y2322651D02*
X-13436000Y2322651D01*
X-10540000Y2282651D02*
X-13425000Y2282651D01*
X-10540000Y2242651D02*
X-13413000Y2242651D01*
X-10540000Y2202651D02*
X-13401000Y2202651D01*
X-10540000Y2162651D02*
X-13389000Y2162651D01*
X-10540000Y2122651D02*
X-13376000Y2122651D01*
X-10540000Y2082651D02*
X-13363000Y2082651D01*
X-10540000Y2042651D02*
X-13349000Y2042651D01*
X-10540000Y2002651D02*
X-13335000Y2002651D01*
X-10540000Y1962651D02*
X-13320000Y1962651D01*
X-10540000Y1922651D02*
X-13305000Y1922651D01*
X-10540000Y1882651D02*
X-13289000Y1882651D01*
X-10540000Y1842651D02*
X-13273000Y1842651D01*
X-10540000Y1802651D02*
X-13257000Y1802651D01*
X-10540000Y1762651D02*
X-13240000Y1762651D01*
X-10540000Y1722651D02*
X-13222000Y1722651D01*
X-10540000Y1682651D02*
X-13204000Y1682651D01*
X-10540000Y1642651D02*
X-13185000Y1642651D01*
X-10540000Y1602651D02*
X-13166000Y1602651D01*
X-10540000Y1562651D02*
X-13146000Y1562651D01*
X-10540000Y1522651D02*
X-13126000Y1522651D01*
X-10540000Y1482651D02*
X-13105000Y1482651D01*
X-10540000Y1442651D02*
X-13084000Y1442651D01*
X-10540000Y1402651D02*
X-13062000Y1402651D01*
X-10540000Y1362651D02*
X-13039000Y1362651D01*
X-10540000Y1322651D02*
X-13016000Y1322651D01*
X-10540000Y1282651D02*
X-12993000Y1282651D01*
X-10540000Y1242651D02*
X-12968000Y1242651D01*
X-10540000Y1202651D02*
X-12943000Y1202651D01*
X-10540000Y1162651D02*
X-12918000Y1162651D01*
X-10540000Y1122651D02*
X-12892000Y1122651D01*
X-10540000Y1082651D02*
X-12865000Y1082651D01*
X-10540000Y1042651D02*
X-12837000Y1042651D01*
X-10540000Y1002651D02*
X-12809000Y1002651D01*
X-10540000Y962651D02*
X-12780000Y962651D01*
X-10540000Y922651D02*
X-12750000Y922651D01*
X-10540000Y882651D02*
X-12719000Y882651D01*
X-10540000Y842651D02*
X-12688000Y842651D01*
X-10540000Y802651D02*
X-12656000Y802651D01*
X-10540000Y762651D02*
X-12623000Y762651D01*
X-10540000Y722651D02*
X-12589000Y722651D01*
X-10540000Y682651D02*
X-12555000Y682651D01*
X-10540000Y642651D02*
X-12519000Y642651D01*
X-8967000Y-677349D02*
X-10033000Y-677349D01*
X-8732000Y-637349D02*
X-10268000Y-637349D01*
X-8553000Y-597349D02*
X-10447000Y-597349D01*
X-8403000Y-557349D02*
X-10597000Y-557349D01*
X-8272000Y-517349D02*
X-10728000Y-517349D01*
X-8154000Y-477349D02*
X-10846000Y-477349D01*
X-8047000Y-437349D02*
X-10953000Y-437349D01*
X-7948000Y-397349D02*
X-11052000Y-397349D01*
X-7856000Y-357349D02*
X-11144000Y-357349D01*
X-7769000Y-317349D02*
X-11231000Y-317349D01*
X-7687000Y-277349D02*
X-11313000Y-277349D01*
X-7610000Y-237349D02*
X-11390000Y-237349D01*
X-7536000Y-197349D02*
X-11464000Y-197349D01*
X-7466000Y-157349D02*
X-11534000Y-157349D01*
X-7399000Y-117349D02*
X-11601000Y-117349D01*
X-7335000Y-77349D02*
X-11665000Y-77349D01*
X-7273000Y-37349D02*
X-11727000Y-37349D01*
X-7213000Y2651D02*
X-11787000Y2651D01*
X-7185000Y7812349D02*
X-7185000Y7012349D01*
X-7156000Y42651D02*
X-11844000Y42651D01*
X-7100000Y82651D02*
X-11900000Y82651D01*
X-7047000Y122651D02*
X-11953000Y122651D01*
X-6995000Y162651D02*
X-12005000Y162651D01*
X-6945000Y202651D02*
X-12055000Y202651D01*
X-6896000Y242651D02*
X-12104000Y242651D01*
X-6849000Y282651D02*
X-12151000Y282651D01*
X-6804000Y322651D02*
X-12196000Y322651D01*
X-6785000Y7412349D02*
X-7585000Y7412349D01*
X-6759000Y362651D02*
X-12241000Y362651D01*
X-6716000Y402651D02*
X-12284000Y402651D01*
X-6674000Y442651D02*
X-12326000Y442651D01*
X-6633000Y482651D02*
X-12367000Y482651D01*
X-6594000Y522651D02*
X-12406000Y522651D01*
X-6555000Y562651D02*
X-12445000Y562651D01*
X-6518000Y602651D02*
X-12482000Y602651D01*
X-6481000Y642651D02*
X-8460000Y642651D01*
X-6445000Y682651D02*
X-8460000Y682651D01*
X-6411000Y722651D02*
X-8460000Y722651D01*
X-6377000Y762651D02*
X-8460000Y762651D01*
X-6344000Y802651D02*
X-8460000Y802651D01*
X-6312000Y842651D02*
X-8460000Y842651D01*
X-6281000Y882651D02*
X-8460000Y882651D01*
X-6250000Y922651D02*
X-8460000Y922651D01*
X-6220000Y962651D02*
X-8460000Y962651D01*
X-6191000Y1002651D02*
X-8460000Y1002651D01*
X-6163000Y1042651D02*
X-8460000Y1042651D01*
X-6135000Y1082651D02*
X-8460000Y1082651D01*
X-6108000Y1122651D02*
X-8460000Y1122651D01*
X-6082000Y1162651D02*
X-8460000Y1162651D01*
X-6057000Y1202651D02*
X-8460000Y1202651D01*
X-6032000Y1242651D02*
X-8460000Y1242651D01*
X-6007000Y1282651D02*
X-8460000Y1282651D01*
X-5984000Y1322651D02*
X-8460000Y1322651D01*
X-5961000Y1362651D02*
X-8460000Y1362651D01*
X-5938000Y1402651D02*
X-8460000Y1402651D01*
X-5916000Y1442651D02*
X-8460000Y1442651D01*
X-5895000Y1482651D02*
X-8460000Y1482651D01*
X-5874000Y1522651D02*
X-8460000Y1522651D01*
X-5854000Y1562651D02*
X-8460000Y1562651D01*
X-5834000Y1602651D02*
X-8460000Y1602651D01*
X-5815000Y1642651D02*
X-8460000Y1642651D01*
X-5796000Y1682651D02*
X-8460000Y1682651D01*
X-5778000Y1722651D02*
X-8460000Y1722651D01*
X-5760000Y1762651D02*
X-8460000Y1762651D01*
X-5743000Y1802651D02*
X-8460000Y1802651D01*
X-5727000Y1842651D02*
X-8460000Y1842651D01*
X-5711000Y1882651D02*
X-8460000Y1882651D01*
X-5695000Y1922651D02*
X-8460000Y1922651D01*
X-5680000Y1962651D02*
X-8460000Y1962651D01*
X-5665000Y2002651D02*
X-8460000Y2002651D01*
X-5651000Y2042651D02*
X-8460000Y2042651D01*
X-5637000Y2082651D02*
X-8460000Y2082651D01*
X-5624000Y2122651D02*
X-8460000Y2122651D01*
X-5611000Y2162651D02*
X-8460000Y2162651D01*
X-5599000Y2202651D02*
X-8460000Y2202651D01*
X-5587000Y2242651D02*
X-8460000Y2242651D01*
X-5575000Y2282651D02*
X-8460000Y2282651D01*
X-5564000Y2322651D02*
X-8460000Y2322651D01*
X-5553000Y2362651D02*
X-8460000Y2362651D01*
X-5543000Y2402651D02*
X-8460000Y2402651D01*
X-5533000Y2442651D02*
X-8460000Y2442651D01*
X-5524000Y2482651D02*
X-8460000Y2482651D01*
X-5515000Y2522651D02*
X-8460000Y2522651D01*
X-5507000Y2562651D02*
X-8460000Y2562651D01*
X-5498000Y2602651D02*
X-8460000Y2602651D01*
X-5491000Y2642651D02*
X-8460000Y2642651D01*
X-5483000Y2682651D02*
X-8460000Y2682651D01*
X-5477000Y2722651D02*
X-13523000Y2722651D01*
X-5470000Y2762651D02*
X-13530000Y2762651D01*
X-5464000Y2802651D02*
X-13536000Y2802651D01*
X-5458000Y2842651D02*
X-13542000Y2842651D01*
X-5453000Y2882651D02*
X-13547000Y2882651D01*
X-5448000Y2922651D02*
X-13552000Y2922651D01*
X-5444000Y2962651D02*
X-13556000Y2962651D01*
X-5439000Y3002651D02*
X-13561000Y3002651D01*
X-5436000Y3042651D02*
X-13564000Y3042651D01*
X-5432000Y3082651D02*
X-13568000Y3082651D01*
X-5430000Y3122651D02*
X-13570000Y3122651D01*
X-5427000Y3162651D02*
X-13573000Y3162651D01*
X-5425000Y3202651D02*
X-13575000Y3202651D01*
X-5423000Y3242651D02*
X-13577000Y3242651D01*
X-5422000Y3282651D02*
X-13578000Y3282651D01*
X-5421000Y3322651D02*
X-13579000Y3322651D01*
X-5420000Y3402651D02*
X-13580000Y3402651D01*
X-5420000Y3362651D02*
X-13580000Y3362651D01*
X-5380000Y3402651D02*
G75*
G02*
X-13620000Y3402651I-4120000J0D01*
G01*
X-13620000Y3402651D02*
G75*
G02*
X-5380000Y3402651I4120000J0D01*
G01*
D11*
%TO.C,R11*%
X-3300000Y14099999D02*
X-3300000Y11099999D01*
X-3000000Y14399999D02*
X-1800000Y14399999D01*
X-1800000Y10799999D02*
X-3000000Y10799999D01*
X-1500000Y14099999D02*
X-1500000Y11099999D01*
X-3300000Y14099999D02*
G75*
G02*
X-3000000Y14399999I300000J0D01*
G01*
X-3000000Y10799999D02*
G75*
G02*
X-3300000Y11099999I0J300000D01*
G01*
X-1800000Y14399999D02*
G75*
G02*
X-1500000Y14099999I0J-300000D01*
G01*
X-1500000Y11099999D02*
G75*
G02*
X-1800000Y10799999I-300000J0D01*
G01*
%TO.C,R15*%
X700000Y14099999D02*
X700000Y11099999D01*
X1000000Y14399999D02*
X2200000Y14399999D01*
X2200000Y10799999D02*
X1000000Y10799999D01*
X2500000Y14099999D02*
X2500000Y11099999D01*
X700000Y14099999D02*
G75*
G02*
X1000000Y14399999I300000J0D01*
G01*
X1000000Y10799999D02*
G75*
G02*
X700000Y11099999I0J300000D01*
G01*
X2200000Y14399999D02*
G75*
G02*
X2500000Y14099999I0J-300000D01*
G01*
X2500000Y11099999D02*
G75*
G02*
X2200000Y10799999I-300000J0D01*
G01*
D10*
%TO.C,J1*%
X-12110000Y-3290000D02*
X-12110000Y-12010000D01*
X-10810000Y-1590000D02*
X-12110000Y-3290000D01*
X-7990000Y-1590000D02*
X-10810000Y-1590000D01*
X-7990000Y-1590000D02*
X-6690000Y-3290000D01*
X-6690000Y-3290000D02*
X-6690000Y-12010000D01*
X-6690000Y-12010000D02*
X-12110000Y-12010000D01*
%TD*%
%LPC*%
D15*
%TO.C,J2*%
X-8875000Y17500000D03*
D16*
X-6335000Y17500000D03*
X-3795000Y17500000D03*
X-1255000Y17500000D03*
X1285000Y17500000D03*
X3825000Y17500000D03*
X6365000Y17500000D03*
X8905000Y17500000D03*
%TD*%
D15*
%TO.C,J3*%
X-8875000Y-17500000D03*
D16*
X-6335000Y-17500000D03*
X-3795000Y-17500000D03*
X-1255000Y-17500000D03*
X1285000Y-17500000D03*
X3825000Y-17500000D03*
X6365000Y-17500000D03*
X8905000Y-17500000D03*
%TD*%
D17*
%TO.C,R8*%
X9600000Y13399999D03*
X9600000Y11799999D03*
%TD*%
%TO.C,R12*%
X5600000Y13399999D03*
X5600000Y11799999D03*
%TD*%
%TO.C,R13*%
X-4400000Y13399999D03*
X-4400000Y11799999D03*
%TD*%
%TO.C,R14*%
X-400000Y13399999D03*
X-400000Y11799999D03*
%TD*%
D18*
%TO.C,Q1*%
X-6825000Y9350000D03*
X-6825000Y10620000D03*
X-6825000Y11890000D03*
X-6825000Y13160000D03*
D19*
X-12165000Y13160000D03*
X-12165000Y11890000D03*
X-12165000Y10620000D03*
X-12165000Y9350000D03*
D20*
X-10100000Y11225000D03*
%TD*%
D17*
%TO.C,R10*%
X3600000Y13399999D03*
X3600000Y11799999D03*
%TD*%
%TO.C,R9*%
X11600000Y13399999D03*
X11600000Y11799999D03*
%TD*%
D21*
%TO.C,C16*%
X7600000Y11799999D03*
X7600000Y13399999D03*
%TD*%
D22*
%TO.C,IC2*%
X11000000Y8550000D03*
X10000000Y8550000D03*
X9000000Y8550000D03*
X8000000Y8550000D03*
X7000000Y8550000D03*
X6000000Y8550000D03*
X5000000Y8550000D03*
X4000000Y8550000D03*
X3000000Y8550000D03*
X2000000Y8550000D03*
X1000000Y8550000D03*
X0Y8550000D03*
X-1000000Y8550000D03*
X-2000000Y8550000D03*
X-3000000Y8550000D03*
X-3000000Y-9750000D03*
X-2000000Y-9750000D03*
X-1000000Y-9750000D03*
X0Y-9750000D03*
X1000000Y-9750000D03*
X2000000Y-9750000D03*
X3000000Y-9750000D03*
X4000000Y-9750000D03*
X5000000Y-9750000D03*
X6000000Y-9750000D03*
X7000000Y-9750000D03*
X8000000Y-9750000D03*
X9000000Y-9750000D03*
X10000000Y-9750000D03*
X11000000Y-9750000D03*
D23*
X9200000Y-4600000D03*
X9200000Y-3600000D03*
X9200000Y-2600000D03*
X8200000Y-4600000D03*
X8200000Y-3600000D03*
D24*
X8200000Y-3600000D03*
D23*
X8200000Y-2600000D03*
X7200000Y-4600000D03*
X7200000Y-3600000D03*
X7200000Y-2600000D03*
X800000Y-4600000D03*
X800000Y-3600000D03*
X800000Y-2600000D03*
X-200000Y-4600000D03*
X-200000Y-3600000D03*
D24*
X-200000Y-3600000D03*
D23*
X-200000Y-2600000D03*
X-1200000Y-4600000D03*
X-1200000Y-3600000D03*
X-1200000Y-2600000D03*
X6000000Y1900000D03*
X6000000Y2900000D03*
X5000000Y1900000D03*
X5000000Y2900000D03*
X4000000Y1900000D03*
D25*
X4000000Y2400000D03*
D23*
X4000000Y2900000D03*
X3000000Y1900000D03*
X3000000Y2900000D03*
X2000000Y1900000D03*
X2000000Y2900000D03*
%TD*%
D26*
%TO.C,C15*%
X-9500000Y5152651D03*
D27*
X-9500000Y1652651D03*
%TD*%
D17*
%TO.C,R11*%
X-2400000Y13399999D03*
X-2400000Y11799999D03*
%TD*%
%TO.C,R15*%
X1600000Y13399999D03*
X1600000Y11799999D03*
%TD*%
D28*
%TO.C,J1*%
X-9400000Y-4300000D03*
D29*
X-9400000Y-9300000D03*
%TD*%
%LPD*%
M02*
