%TF.GenerationSoftware,KiCad,Pcbnew,9.0.5*%
%TF.CreationDate,2025-10-21T22:43:35+08:00*%
%TF.ProjectId,motordrivers,6d6f746f-7264-4726-9976-6572732e6b69,rev?*%
%TF.SameCoordinates,Original*%
%TF.FileFunction,Copper,L2,Bot*%
%TF.FilePolarity,Positive*%
%FSLAX46Y46*%
G04 Gerber Fmt 4.6, Leading zero omitted, Abs format (unit mm)*
G04 Created by KiCad (PCBNEW 9.0.5) date 2025-10-21 22:43:35*
%MOMM*%
%LPD*%
G01*
G04 APERTURE LIST*
G04 Aperture macros list*
%AMRoundRect*
0 Rectangle with rounded corners*
0 $1 Rounding radius*
0 $2 $3 $4 $5 $6 $7 $8 $9 X,Y pos of 4 corners*
0 Add a 4 corners polygon primitive as box body*
4,1,4,$2,$3,$4,$5,$6,$7,$8,$9,$2,$3,0*
0 Add four circle primitives for the rounded corners*
1,1,$1+$1,$2,$3*
1,1,$1+$1,$4,$5*
1,1,$1+$1,$6,$7*
1,1,$1+$1,$8,$9*
0 Add four rect primitives between the rounded corners*
20,1,$1+$1,$2,$3,$4,$5,0*
20,1,$1+$1,$4,$5,$6,$7,0*
20,1,$1+$1,$6,$7,$8,$9,0*
20,1,$1+$1,$8,$9,$2,$3,0*%
G04 Aperture macros list end*
%TA.AperFunction,ComponentPad*%
%ADD10R,1.700000X1.700000*%
%TD*%
%TA.AperFunction,ComponentPad*%
%ADD11O,1.700000X1.700000*%
%TD*%
%TA.AperFunction,ComponentPad*%
%ADD12C,1.000000*%
%TD*%
%TA.AperFunction,ComponentPad*%
%ADD13RoundRect,0.250000X-0.550000X0.550000X-0.550000X-0.550000X0.550000X-0.550000X0.550000X0.550000X0*%
%TD*%
%TA.AperFunction,ComponentPad*%
%ADD14C,1.600000*%
%TD*%
%TA.AperFunction,ComponentPad*%
%ADD15RoundRect,0.750000X-0.750000X0.750000X-0.750000X-0.750000X0.750000X-0.750000X0.750000X0.750000X0*%
%TD*%
%TA.AperFunction,ComponentPad*%
%ADD16C,3.000000*%
%TD*%
%TA.AperFunction,ViaPad*%
%ADD17C,0.700000*%
%TD*%
%TA.AperFunction,Conductor*%
%ADD18C,0.300000*%
%TD*%
%TA.AperFunction,Conductor*%
%ADD19C,0.500000*%
%TD*%
%TA.AperFunction,Conductor*%
%ADD20C,1.500000*%
%TD*%
%TA.AperFunction,Conductor*%
%ADD21C,0.200000*%
%TD*%
G04 APERTURE END LIST*
D10*
%TO.P,J2,1,Pin_1*%
%TO.N,GND*%
X-8875000Y17500000D03*
D11*
%TO.P,J2,2,Pin_2*%
%TO.N,/M IN B*%
X-6335000Y17500000D03*
%TO.P,J2,3,Pin_3*%
%TO.N,/M PWM*%
X-3795000Y17500000D03*
%TO.P,J2,4,Pin_4*%
%TO.N,+3V3*%
X-1255000Y17500000D03*
%TO.P,J2,5,Pin_5*%
X1285000Y17500000D03*
%TO.P,J2,6,Pin_6*%
%TO.N,/M SW*%
X3825000Y17500000D03*
%TO.P,J2,7,Pin_7*%
%TO.N,/M IN A*%
X6365000Y17500000D03*
%TO.P,J2,8,Pin_8*%
%TO.N,GND*%
X8905000Y17500000D03*
%TD*%
D10*
%TO.P,J3,1,Pin_1*%
%TO.N,+12V*%
X-8875000Y-17500000D03*
D11*
%TO.P,J3,2,Pin_2*%
X-6335000Y-17500000D03*
%TO.P,J3,3,Pin_3*%
X-3795000Y-17500000D03*
%TO.P,J3,4,Pin_4*%
%TO.N,unconnected-(J3-Pin_4-Pad4)*%
X-1255000Y-17500000D03*
%TO.P,J3,5,Pin_5*%
%TO.N,unconnected-(J3-Pin_5-Pad5)*%
X1285000Y-17500000D03*
%TO.P,J3,6,Pin_6*%
%TO.N,GND*%
X3825000Y-17500000D03*
%TO.P,J3,7,Pin_7*%
X6365000Y-17500000D03*
%TO.P,J3,8,Pin_8*%
X8905000Y-17500000D03*
%TD*%
D12*
%TO.P,IC2,31,OUTA*%
%TO.N,/OUT A M*%
X9200000Y-4600000D03*
X9200000Y-3600000D03*
X9200000Y-2600000D03*
X8200000Y-4600000D03*
X8200000Y-3600000D03*
X8200000Y-2600000D03*
X7200000Y-4600000D03*
X7200000Y-3600000D03*
X7200000Y-2600000D03*
%TO.P,IC2,32,OUTB*%
%TO.N,/OUT B M*%
X800000Y-4600000D03*
X800000Y-3600000D03*
X800000Y-2600000D03*
X-200000Y-4600000D03*
X-200000Y-3600000D03*
X-200000Y-2600000D03*
X-1200000Y-4600000D03*
X-1200000Y-3600000D03*
X-1200000Y-2600000D03*
%TO.P,IC2,33,VCC*%
%TO.N,Net-(C15-Pad1)*%
X6000000Y1900000D03*
X6000000Y2900000D03*
X5000000Y1900000D03*
X5000000Y2900000D03*
X4000000Y1900000D03*
X4000000Y2900000D03*
X3000000Y1900000D03*
X3000000Y2900000D03*
X2000000Y1900000D03*
X2000000Y2900000D03*
%TD*%
D13*
%TO.P,C15,1*%
%TO.N,Net-(C15-Pad1)*%
X-9500000Y5152651D03*
D14*
%TO.P,C15,2*%
%TO.N,GND*%
X-9500000Y1652651D03*
%TD*%
D15*
%TO.P,J1,1,Pin_1*%
%TO.N,/OUT B M*%
X-9400000Y-4300000D03*
D16*
%TO.P,J1,2,Pin_2*%
%TO.N,/OUT A M*%
X-9400000Y-9300000D03*
%TD*%
D17*
%TO.N,Net-(C15-Pad1)*%
X4000000Y-10600000D03*
X9000000Y8550000D03*
X4000000Y-9750000D03*
%TO.N,GND*%
X1600000Y11800000D03*
%TO.N,/OUT B M*%
X-3000000Y-9750000D03*
X2000000Y-9750000D03*
X-3000000Y8550000D03*
X2000000Y-10600000D03*
X-3000000Y-10600000D03*
%TO.N,/CPM1*%
X-6825000Y13160000D03*
X1000000Y8550000D03*
%TO.N,+12V*%
X-4400000Y7600000D03*
X-6800000Y7600000D03*
X-6800000Y8400000D03*
X-6000000Y7600000D03*
X-4400000Y10000000D03*
X-4400000Y8400000D03*
X-6000000Y8400000D03*
X0Y8550000D03*
X-4400000Y6800000D03*
X-5200000Y9200000D03*
X-5200000Y10000000D03*
X-5200000Y8400000D03*
X-5200000Y7600000D03*
X-4400000Y9200000D03*
%TO.N,+3V3*%
X9600000Y11800000D03*
X11600000Y11800000D03*
%TO.N,/M SW*%
X3600000Y13399999D03*
X9600000Y13399998D03*
X11600000Y13399998D03*
X-2400000Y13399999D03*
%TD*%
D18*
%TO.N,/CPM1*%
X1000000Y10750000D02*
X1000000Y8550000D01*
X-50000Y11800000D02*
X1000000Y10750000D01*
X-5465000Y11800000D02*
X-50000Y11800000D01*
X-6825000Y13160000D02*
X-5465000Y11800000D01*
D19*
%TO.N,/M SW*%
X3600000Y13399999D02*
X-2400000Y13399999D01*
X11600000Y13399998D02*
X9600000Y13399998D01*
X9599999Y13399999D02*
X3600000Y13399999D01*
%TO.N,+3V3*%
X13400000Y15200000D02*
X0Y15200000D01*
X13500000Y15100000D02*
X13400000Y15200000D01*
X13500000Y12300000D02*
X13500000Y15100000D01*
X0Y15200000D02*
X0Y17500000D01*
X13000000Y11800000D02*
X13500000Y12300000D01*
X11600000Y11800000D02*
X13000000Y11800000D01*
D20*
X-1255000Y17500000D02*
X0Y17500000D01*
X0Y17500000D02*
X1285000Y17500000D01*
D19*
X11600000Y11800000D02*
X9600000Y11800000D01*
D21*
%TO.N,/M SW*%
X9600000Y13399998D02*
X9599999Y13399999D01*
%TD*%
%TA.AperFunction,Conductor*%
%TO.N,+12V*%
G36*
X-7193604Y12383720D02*
G01*
X-7174340Y12372736D01*
X-7174323Y12372727D01*
X-7173292Y12372173D01*
X-7150810Y12360805D01*
X-7079016Y12326722D01*
X-7051783Y12314762D01*
X-7051764Y12314755D01*
X-7051761Y12314753D01*
X-7050521Y12314251D01*
X-7050507Y12314246D01*
X-7050495Y12314241D01*
X-7022086Y12303729D01*
X-6960065Y12282869D01*
X-6905055Y12264367D01*
X-6903405Y12263825D01*
X-6898462Y12262200D01*
X-6898216Y12262121D01*
X-6894191Y12260847D01*
X-6868635Y12252876D01*
X-6860526Y12248389D01*
X-6854675Y12247580D01*
X-6828816Y12230842D01*
X-6824879Y12228663D01*
X-6824074Y12227973D01*
X-6784696Y12193014D01*
X-6754488Y12168216D01*
X-6754048Y12167972D01*
X-6749784Y12164319D01*
X-6749570Y12163989D01*
X-6742784Y12157838D01*
X-5879677Y11294730D01*
X-5879674Y11294728D01*
X-5879670Y11294724D01*
X-5855108Y11278313D01*
X-5810305Y11224704D01*
X-5800000Y11175212D01*
X-5800000Y10800000D01*
X-8000000Y10800000D01*
X-8000000Y12276000D01*
X-7980315Y12343039D01*
X-7927511Y12388794D01*
X-7876000Y12400000D01*
X-7255023Y12400000D01*
X-7193604Y12383720D01*
G37*
%TD.AperFunction*%
%TD*%
%TA.AperFunction,Conductor*%
%TO.N,GND*%
G36*
X12704041Y19819235D02*
G01*
X12726989Y19817731D01*
X12958114Y19802583D01*
X12974172Y19800468D01*
X13219888Y19751592D01*
X13235554Y19747394D01*
X13386736Y19696075D01*
X13472788Y19666864D01*
X13487765Y19660661D01*
X13705336Y19553367D01*
X13712460Y19549854D01*
X13726507Y19541744D01*
X13767649Y19514254D01*
X13934812Y19402559D01*
X13947679Y19392686D01*
X14136034Y19227503D01*
X14147503Y19216034D01*
X14312686Y19027680D01*
X14322560Y19014812D01*
X14461746Y18806505D01*
X14469855Y18792460D01*
X14580536Y18568019D01*
X14580657Y18567775D01*
X14586864Y18552789D01*
X14667394Y18315555D01*
X14671592Y18299889D01*
X14720466Y18054186D01*
X14722584Y18038104D01*
X14739235Y17784059D01*
X14739500Y17775949D01*
X14739500Y-17775932D01*
X14739235Y-17784042D01*
X14722583Y-18038104D01*
X14720465Y-18054185D01*
X14671591Y-18299890D01*
X14667393Y-18315557D01*
X14586866Y-18552783D01*
X14580659Y-18567769D01*
X14469851Y-18792464D01*
X14461741Y-18806511D01*
X14322562Y-19014808D01*
X14312688Y-19027676D01*
X14147503Y-19216034D01*
X14136034Y-19227503D01*
X13947679Y-19392686D01*
X13934811Y-19402560D01*
X13726507Y-19541744D01*
X13712460Y-19549854D01*
X13487772Y-19660658D01*
X13472786Y-19666865D01*
X13235554Y-19747394D01*
X13219888Y-19751592D01*
X12974186Y-19800466D01*
X12958104Y-19802584D01*
X12704057Y-19819235D01*
X12695947Y-19819500D01*
X-2175963Y-19819500D01*
X-2243002Y-19799815D01*
X-2288757Y-19747011D01*
X-2298701Y-19677855D01*
X-2294500Y-19648638D01*
X-2294500Y-18657433D01*
X-2274815Y-18590394D01*
X-2222011Y-18544639D01*
X-2152853Y-18534695D01*
X-2097615Y-18557115D01*
X-1983490Y-18640031D01*
X-1962816Y-18655051D01*
X-1773412Y-18751557D01*
X-1571243Y-18817246D01*
X-1361287Y-18850500D01*
X-1361286Y-18850500D01*
X-1148714Y-18850500D01*
X-1148713Y-18850500D01*
X-938757Y-18817246D01*
X-736588Y-18751557D01*
X-547184Y-18655051D01*
X-525211Y-18639086D01*
X-375214Y-18530109D01*
X-375212Y-18530106D01*
X-375208Y-18530104D01*
X-224896Y-18379792D01*
X-224894Y-18379788D01*
X-224891Y-18379786D01*
X-99952Y-18207820D01*
X-99953Y-18207820D01*
X-99949Y-18207816D01*
X-95486Y-18199054D01*
X-47512Y-18148259D01*
X20308Y-18131463D01*
X86444Y-18153999D01*
X125486Y-18199056D01*
X129951Y-18207820D01*
X254890Y-18379786D01*
X405213Y-18530109D01*
X577179Y-18655048D01*
X577181Y-18655049D01*
X577184Y-18655051D01*
X766588Y-18751557D01*
X968757Y-18817246D01*
X1178713Y-18850500D01*
X1178714Y-18850500D01*
X1391286Y-18850500D01*
X1391287Y-18850500D01*
X1601243Y-18817246D01*
X1803412Y-18751557D01*
X1992816Y-18655051D01*
X2014789Y-18639086D01*
X2164786Y-18530109D01*
X2164788Y-18530106D01*
X2164792Y-18530104D01*
X2315104Y-18379792D01*
X2315106Y-18379788D01*
X2315109Y-18379786D01*
X2440048Y-18207820D01*
X2440047Y-18207820D01*
X2440051Y-18207816D01*
X2536557Y-18018412D01*
X2602246Y-17816243D01*
X2635500Y-17606287D01*
X2635500Y-17393713D01*
X2602246Y-17183757D01*
X2536557Y-16981588D01*
X2440051Y-16792184D01*
X2440049Y-16792181D01*
X2440048Y-16792179D01*
X2315109Y-16620213D01*
X2164786Y-16469890D01*
X1992820Y-16344951D01*
X1803414Y-16248444D01*
X1803413Y-16248443D01*
X1803412Y-16248443D01*
X1601243Y-16182754D01*
X1601241Y-16182753D01*
X1601240Y-16182753D01*
X1439957Y-16157208D01*
X1391287Y-16149500D01*
X1178713Y-16149500D01*
X1130042Y-16157208D01*
X968760Y-16182753D01*
X766585Y-16248444D01*
X577179Y-16344951D01*
X405213Y-16469890D01*
X254890Y-16620213D01*
X129949Y-16792182D01*
X125484Y-16800946D01*
X77509Y-16851742D01*
X9688Y-16868536D01*
X-56447Y-16845998D01*
X-95484Y-16800946D01*
X-99950Y-16792182D01*
X-224891Y-16620213D01*
X-375214Y-16469890D01*
X-547180Y-16344951D01*
X-736586Y-16248444D01*
X-736587Y-16248443D01*
X-736588Y-16248443D01*
X-938757Y-16182754D01*
X-938759Y-16182753D01*
X-938760Y-16182753D01*
X-1100043Y-16157208D01*
X-1148713Y-16149500D01*
X-1361287Y-16149500D01*
X-1409958Y-16157208D01*
X-1571240Y-16182753D01*
X-1773415Y-16248444D01*
X-1962816Y-16344948D01*
X-2097615Y-16442885D01*
X-2163422Y-16466364D01*
X-2231476Y-16450538D01*
X-2280170Y-16400432D01*
X-2294500Y-16342566D01*
X-2294500Y-11629500D01*
X-2274815Y-11562461D01*
X-2222011Y-11516706D01*
X-2170500Y-11505500D01*
X2475990Y-11505500D01*
X2476000Y-11505500D01*
X2583456Y-11493947D01*
X2634967Y-11482741D01*
X2669197Y-11471347D01*
X2737497Y-11448616D01*
X2737501Y-11448613D01*
X2737504Y-11448613D01*
X2858543Y-11370825D01*
X2911347Y-11325070D01*
X3005567Y-11216336D01*
X3005568Y-11216332D01*
X3009905Y-11211328D01*
X3068684Y-11173554D01*
X3138553Y-11173554D01*
X3197331Y-11211329D01*
X3207933Y-11225491D01*
X3229170Y-11258537D01*
X3229179Y-11258548D01*
X3274923Y-11311340D01*
X3274926Y-11311343D01*
X3274930Y-11311347D01*
X3383664Y-11405567D01*
X3383667Y-11405568D01*
X3383668Y-11405569D01*
X3477925Y-11448616D01*
X3514541Y-11465338D01*
X3581580Y-11485023D01*
X3581584Y-11485024D01*
X3724000Y-11505500D01*
X3724003Y-11505500D01*
X4275990Y-11505500D01*
X4276000Y-11505500D01*
X4383456Y-11493947D01*
X4434967Y-11482741D01*
X4469197Y-11471347D01*
X4537497Y-11448616D01*
X4537501Y-11448613D01*
X4537504Y-11448613D01*
X4658543Y-11370825D01*
X4711347Y-11325070D01*
X4805567Y-11216336D01*
X4865338Y-11085459D01*
X4885023Y-11018420D01*
X4885024Y-11018416D01*
X4905500Y-10876000D01*
X4905500Y-2698543D01*
X6199499Y-2698543D01*
X6237947Y-2891829D01*
X6237950Y-2891839D01*
X6304517Y-3052548D01*
X6311986Y-3122017D01*
X6304517Y-3147452D01*
X6237950Y-3308160D01*
X6237947Y-3308170D01*
X6199500Y-3501456D01*
X6199500Y-3501459D01*
X6199500Y-3698541D01*
X6199500Y-3698543D01*
X6199499Y-3698543D01*
X6237947Y-3891829D01*
X6237950Y-3891839D01*
X6304517Y-4052548D01*
X6311986Y-4122017D01*
X6304517Y-4147452D01*
X6237950Y-4308160D01*
X6237947Y-4308170D01*
X6199500Y-4501456D01*
X6199500Y-4501459D01*
X6199500Y-4698541D01*
X6199500Y-4698543D01*
X6199499Y-4698543D01*
X6237947Y-4891829D01*
X6237950Y-4891839D01*
X6313364Y-5073907D01*
X6313371Y-5073920D01*
X6422860Y-5237781D01*
X6422863Y-5237785D01*
X6562214Y-5377136D01*
X6562218Y-5377139D01*
X6726079Y-5486628D01*
X6726092Y-5486635D01*
X6908160Y-5562049D01*
X6908165Y-5562051D01*
X6908169Y-5562051D01*
X6908170Y-5562052D01*
X7101456Y-5600500D01*
X7101459Y-5600500D01*
X7298543Y-5600500D01*
X7428582Y-5574632D01*
X7491835Y-5562051D01*
X7652548Y-5495481D01*
X7722017Y-5488013D01*
X7747449Y-5495480D01*
X7908165Y-5562051D01*
X7908169Y-5562051D01*
X7908170Y-5562052D01*
X8101456Y-5600500D01*
X8101459Y-5600500D01*
X8298543Y-5600500D01*
X8428582Y-5574632D01*
X8491835Y-5562051D01*
X8652548Y-5495481D01*
X8722017Y-5488013D01*
X8747449Y-5495480D01*
X8908165Y-5562051D01*
X8908169Y-5562051D01*
X8908170Y-5562052D01*
X9101456Y-5600500D01*
X9101459Y-5600500D01*
X9298543Y-5600500D01*
X9428582Y-5574632D01*
X9491835Y-5562051D01*
X9673914Y-5486632D01*
X9837782Y-5377139D01*
X9977139Y-5237782D01*
X10086632Y-5073914D01*
X10162051Y-4891835D01*
X10200500Y-4698541D01*
X10200500Y-4501459D01*
X10200500Y-4501456D01*
X10162052Y-4308170D01*
X10162051Y-4308169D01*
X10162051Y-4308165D01*
X10095481Y-4147451D01*
X10088013Y-4077983D01*
X10095482Y-4052547D01*
X10162051Y-3891835D01*
X10200500Y-3698541D01*
X10200500Y-3501459D01*
X10200500Y-3501456D01*
X10162052Y-3308170D01*
X10162051Y-3308169D01*
X10162051Y-3308165D01*
X10095481Y-3147451D01*
X10088013Y-3077983D01*
X10095482Y-3052547D01*
X10162051Y-2891835D01*
X10200500Y-2698541D01*
X10200500Y-2501459D01*
X10200500Y-2501456D01*
X10162052Y-2308170D01*
X10162051Y-2308169D01*
X10162051Y-2308165D01*
X10162049Y-2308160D01*
X10086635Y-2126092D01*
X10086628Y-2126079D01*
X9977139Y-1962218D01*
X9977136Y-1962214D01*
X9837785Y-1822863D01*
X9837781Y-1822860D01*
X9673920Y-1713371D01*
X9673907Y-1713364D01*
X9491839Y-1637950D01*
X9491829Y-1637947D01*
X9298543Y-1599500D01*
X9298541Y-1599500D01*
X9101459Y-1599500D01*
X9101457Y-1599500D01*
X8908170Y-1637947D01*
X8908160Y-1637950D01*
X8747452Y-1704517D01*
X8677983Y-1711986D01*
X8652548Y-1704517D01*
X8491839Y-1637950D01*
X8491829Y-1637947D01*
X8298543Y-1599500D01*
X8298541Y-1599500D01*
X8101459Y-1599500D01*
X8101457Y-1599500D01*
X7908170Y-1637947D01*
X7908160Y-1637950D01*
X7747452Y-1704517D01*
X7677983Y-1711986D01*
X7652548Y-1704517D01*
X7491839Y-1637950D01*
X7491829Y-1637947D01*
X7298543Y-1599500D01*
X7298541Y-1599500D01*
X7101459Y-1599500D01*
X7101457Y-1599500D01*
X6908170Y-1637947D01*
X6908160Y-1637950D01*
X6726092Y-1713364D01*
X6726079Y-1713371D01*
X6562218Y-1822860D01*
X6562214Y-1822863D01*
X6422863Y-1962214D01*
X6422860Y-1962218D01*
X6313371Y-2126079D01*
X6313364Y-2126092D01*
X6237950Y-2308160D01*
X6237947Y-2308170D01*
X6199500Y-2501456D01*
X6199500Y-2501459D01*
X6199500Y-2698541D01*
X6199500Y-2698543D01*
X6199499Y-2698543D01*
X4905500Y-2698543D01*
X4905500Y-1429500D01*
X4925185Y-1362461D01*
X4977989Y-1316706D01*
X5029500Y-1305500D01*
X9475990Y-1305500D01*
X9476000Y-1305500D01*
X9583456Y-1293947D01*
X9634967Y-1282741D01*
X9669197Y-1271347D01*
X9737497Y-1248616D01*
X9737501Y-1248613D01*
X9737504Y-1248613D01*
X9858543Y-1170825D01*
X9911347Y-1125070D01*
X10005567Y-1016336D01*
X10065338Y-885459D01*
X10085023Y-818420D01*
X10085024Y-818416D01*
X10105500Y-676000D01*
X10105500Y9276000D01*
X10093947Y9383456D01*
X10082741Y9434967D01*
X10082637Y9435278D01*
X10048616Y9537498D01*
X10048613Y9537504D01*
X9970828Y9658538D01*
X9970825Y9658543D01*
X9970820Y9658549D01*
X9925076Y9711341D01*
X9925072Y9711344D01*
X9925070Y9711347D01*
X9816336Y9805567D01*
X9816333Y9805569D01*
X9816331Y9805570D01*
X9685465Y9865336D01*
X9685460Y9865338D01*
X9685459Y9865338D01*
X9618420Y9885023D01*
X9618422Y9885023D01*
X9618417Y9885024D01*
X9556347Y9893948D01*
X9476000Y9905500D01*
X8724000Y9905500D01*
X8723991Y9905500D01*
X8723990Y9905499D01*
X8616549Y9893948D01*
X8616537Y9893946D01*
X8565027Y9882740D01*
X8462502Y9848617D01*
X8462496Y9848614D01*
X8341462Y9770829D01*
X8341451Y9770821D01*
X8288659Y9725077D01*
X8194433Y9616336D01*
X8194430Y9616332D01*
X8134664Y9485466D01*
X8114976Y9418418D01*
X8109949Y9383451D01*
X8094502Y9276010D01*
X8094500Y9275999D01*
X8094500Y5829500D01*
X8074815Y5762461D01*
X8022011Y5716706D01*
X7970500Y5705500D01*
X-770500Y5705500D01*
X-837539Y5725185D01*
X-883294Y5777989D01*
X-894500Y5829500D01*
X-894500Y7120500D01*
X-874815Y7187539D01*
X-822011Y7233294D01*
X-770500Y7244500D01*
X198639Y7244500D01*
X205701Y7244879D01*
X252676Y7247397D01*
X252682Y7247398D01*
X252688Y7247398D01*
X261462Y7248342D01*
X279035Y7250231D01*
X332456Y7258888D01*
X467264Y7309171D01*
X528587Y7342657D01*
X643766Y7428881D01*
X693371Y7478487D01*
X740596Y7532988D01*
X761747Y7561242D01*
X800758Y7621947D01*
X800760Y7621955D01*
X803736Y7627897D01*
X805663Y7626933D01*
X841455Y7674757D01*
X906916Y7699183D01*
X915779Y7699500D01*
X1083768Y7699500D01*
X1083769Y7699501D01*
X1248082Y7732184D01*
X1402863Y7796297D01*
X1542162Y7889374D01*
X1660626Y8007838D01*
X1753703Y8147137D01*
X1817816Y8301918D01*
X1850500Y8466233D01*
X1850500Y8633767D01*
X1836279Y8705259D01*
X1834514Y8717110D01*
X1831107Y8751322D01*
X1810399Y8835185D01*
X1803737Y8859535D01*
X1803400Y8860656D01*
X1795500Y8884729D01*
X1768831Y8959607D01*
X1757880Y8987677D01*
X1757337Y8988955D01*
X1744830Y9016128D01*
X1689931Y9126669D01*
X1687746Y9131016D01*
X1687629Y9131246D01*
X1687606Y9131291D01*
X1684756Y9136810D01*
X1672287Y9160586D01*
X1669726Y9169492D01*
X1666163Y9174197D01*
X1659712Y9204319D01*
X1658469Y9208642D01*
X1658384Y9209741D01*
X1655263Y9262261D01*
X1651434Y9301183D01*
X1651295Y9301665D01*
X1650867Y9307226D01*
X1650949Y9307614D01*
X1650500Y9316760D01*
X1650500Y10814072D01*
X1625502Y10939739D01*
X1625501Y10939740D01*
X1625501Y10939744D01*
X1576465Y11058127D01*
X1562959Y11078341D01*
X1557020Y11087230D01*
X1557020Y11087231D01*
X1505279Y11164666D01*
X1505273Y11164674D01*
X364673Y12305274D01*
X364669Y12305277D01*
X258127Y12376465D01*
X174901Y12410939D01*
X120499Y12454779D01*
X98434Y12521073D01*
X115713Y12588772D01*
X166850Y12636383D01*
X222355Y12649499D01*
X2863477Y12649499D01*
X2869917Y12649332D01*
X2877305Y12648948D01*
X2903719Y12644380D01*
X3039238Y12640526D01*
X3040659Y12640452D01*
X3041035Y12640320D01*
X3049388Y12639688D01*
X3110282Y12632175D01*
X3122045Y12630144D01*
X3210346Y12610483D01*
X3210390Y12610473D01*
X3409966Y12565959D01*
X3410020Y12565947D01*
X3413565Y12565170D01*
X3413797Y12565120D01*
X3473859Y12555911D01*
X3473862Y12555912D01*
X3473863Y12555911D01*
X3478423Y12555680D01*
X3496343Y12553456D01*
X3504045Y12551924D01*
X3516231Y12549499D01*
X3516233Y12549499D01*
X3683768Y12549499D01*
X3705286Y12553780D01*
X3744387Y12561558D01*
X3744394Y12561559D01*
X3751677Y12563007D01*
X3789981Y12565948D01*
X3982302Y12608845D01*
X4103061Y12633320D01*
X4121696Y12635644D01*
X4306474Y12644549D01*
X4348241Y12648304D01*
X4348242Y12648305D01*
X4353934Y12648816D01*
X4353971Y12648399D01*
X4366043Y12649499D01*
X8863476Y12649499D01*
X8873397Y12649101D01*
X8879041Y12648648D01*
X8903722Y12644380D01*
X8947842Y12643126D01*
X8951036Y12642869D01*
X8980786Y12631478D01*
X9011092Y12621635D01*
X9013190Y12619070D01*
X9016286Y12617884D01*
X9035149Y12592224D01*
X9055328Y12567553D01*
X9055706Y12564258D01*
X9057669Y12561588D01*
X9059664Y12529804D01*
X9063302Y12498139D01*
X9061839Y12495164D01*
X9062047Y12491856D01*
X9046540Y12464037D01*
X9032483Y12435434D01*
X9028797Y12431586D01*
X8939373Y12342162D01*
X8846295Y12202861D01*
X8782184Y12048083D01*
X8782182Y12048075D01*
X8749500Y11883772D01*
X8749500Y11716229D01*
X8782182Y11551926D01*
X8782184Y11551918D01*
X8846295Y11397140D01*
X8939373Y11257838D01*
X9057837Y11139374D01*
X9085152Y11121123D01*
X9197137Y11046297D01*
X9197138Y11046297D01*
X9197139Y11046296D01*
X9223949Y11035191D01*
X9351918Y10982184D01*
X9485159Y10955681D01*
X9516228Y10949501D01*
X9516232Y10949500D01*
X9516233Y10949500D01*
X9683768Y10949500D01*
X9718066Y10956323D01*
X9744387Y10961559D01*
X9744394Y10961560D01*
X9751677Y10963008D01*
X9789981Y10965949D01*
X9982302Y11008846D01*
X10103061Y11033321D01*
X10121696Y11035645D01*
X10306474Y11044550D01*
X10348241Y11048305D01*
X10348242Y11048306D01*
X10353934Y11048817D01*
X10353971Y11048400D01*
X10366043Y11049500D01*
X10863477Y11049500D01*
X10869917Y11049333D01*
X10877305Y11048949D01*
X10903719Y11044381D01*
X11039238Y11040527D01*
X11040659Y11040453D01*
X11041035Y11040321D01*
X11049388Y11039689D01*
X11110282Y11032176D01*
X11122045Y11030145D01*
X11210346Y11010484D01*
X11210390Y11010474D01*
X11337222Y10982185D01*
X11410020Y10965948D01*
X11413565Y10965171D01*
X11413797Y10965121D01*
X11473859Y10955912D01*
X11473862Y10955913D01*
X11473863Y10955912D01*
X11478423Y10955681D01*
X11496343Y10953457D01*
X11504045Y10951925D01*
X11516231Y10949500D01*
X11516233Y10949500D01*
X11683768Y10949500D01*
X11718066Y10956323D01*
X11744387Y10961559D01*
X11744394Y10961560D01*
X11751677Y10963008D01*
X11789981Y10965949D01*
X11982302Y11008846D01*
X12103061Y11033321D01*
X12121696Y11035645D01*
X12306474Y11044550D01*
X12348241Y11048305D01*
X12348242Y11048306D01*
X12353934Y11048817D01*
X12353971Y11048400D01*
X12366043Y11049500D01*
X13073920Y11049500D01*
X13171462Y11068904D01*
X13218913Y11078342D01*
X13355495Y11134916D01*
X13414735Y11174499D01*
X13478416Y11217048D01*
X14082952Y11821584D01*
X14136898Y11902321D01*
X14165084Y11944505D01*
X14221658Y12081087D01*
X14245881Y12202861D01*
X14250500Y12226080D01*
X14250500Y15173921D01*
X14221659Y15318908D01*
X14221658Y15318909D01*
X14221658Y15318913D01*
X14221656Y15318918D01*
X14165087Y15455489D01*
X14165080Y15455502D01*
X14082952Y15578415D01*
X14082951Y15578416D01*
X13982951Y15678416D01*
X13878416Y15782952D01*
X13878415Y15782953D01*
X13878414Y15782954D01*
X13804729Y15832188D01*
X13804729Y15832187D01*
X13755491Y15865087D01*
X13618917Y15921657D01*
X13618907Y15921660D01*
X13473920Y15950500D01*
X13473918Y15950500D01*
X6749343Y15950500D01*
X6682304Y15970185D01*
X6636549Y16022989D01*
X6626605Y16092147D01*
X6655630Y16155703D01*
X6711024Y16192431D01*
X6883412Y16248443D01*
X7072816Y16344949D01*
X7094789Y16360914D01*
X7244786Y16469891D01*
X7244788Y16469894D01*
X7244792Y16469896D01*
X7395104Y16620208D01*
X7395106Y16620212D01*
X7395109Y16620214D01*
X7520048Y16792180D01*
X7520047Y16792180D01*
X7520051Y16792184D01*
X7616557Y16981588D01*
X7682246Y17183757D01*
X7715500Y17393713D01*
X7715500Y17606287D01*
X7682246Y17816243D01*
X7616557Y18018412D01*
X7520051Y18207816D01*
X7520049Y18207819D01*
X7520048Y18207821D01*
X7395109Y18379787D01*
X7244786Y18530110D01*
X7072820Y18655049D01*
X6883414Y18751556D01*
X6883413Y18751557D01*
X6883412Y18751557D01*
X6681243Y18817246D01*
X6681241Y18817247D01*
X6681240Y18817247D01*
X6519957Y18842792D01*
X6471287Y18850500D01*
X6258713Y18850500D01*
X6210042Y18842792D01*
X6048760Y18817247D01*
X5846585Y18751556D01*
X5657179Y18655049D01*
X5485213Y18530110D01*
X5334890Y18379787D01*
X5209949Y18207818D01*
X5205484Y18199054D01*
X5157509Y18148258D01*
X5089688Y18131464D01*
X5023553Y18154002D01*
X4984516Y18199054D01*
X4980050Y18207818D01*
X4855109Y18379787D01*
X4704786Y18530110D01*
X4532820Y18655049D01*
X4343414Y18751556D01*
X4343413Y18751557D01*
X4343412Y18751557D01*
X4141243Y18817246D01*
X4141241Y18817247D01*
X4141240Y18817247D01*
X3979957Y18842792D01*
X3931287Y18850500D01*
X3718713Y18850500D01*
X3670042Y18842792D01*
X3508760Y18817247D01*
X3306585Y18751556D01*
X3117179Y18655049D01*
X2945213Y18530110D01*
X2794890Y18379787D01*
X2669949Y18207818D01*
X2665484Y18199054D01*
X2617509Y18148258D01*
X2549688Y18131464D01*
X2483553Y18154002D01*
X2444516Y18199054D01*
X2440050Y18207818D01*
X2315109Y18379787D01*
X2164786Y18530110D01*
X1992820Y18655049D01*
X1803414Y18751556D01*
X1803413Y18751557D01*
X1803412Y18751557D01*
X1601243Y18817246D01*
X1601241Y18817247D01*
X1601240Y18817247D01*
X1439957Y18842792D01*
X1391287Y18850500D01*
X1178713Y18850500D01*
X1139202Y18844243D01*
X968759Y18817247D01*
X782012Y18756569D01*
X743694Y18750500D01*
X-713694Y18750500D01*
X-752012Y18756569D01*
X-938760Y18817247D01*
X-1100043Y18842792D01*
X-1148713Y18850500D01*
X-1361287Y18850500D01*
X-1409958Y18842792D01*
X-1571240Y18817247D01*
X-1773415Y18751556D01*
X-1962821Y18655049D01*
X-2134787Y18530110D01*
X-2285110Y18379787D01*
X-2410051Y18207818D01*
X-2414516Y18199054D01*
X-2462491Y18148258D01*
X-2530312Y18131464D01*
X-2596447Y18154002D01*
X-2635484Y18199054D01*
X-2639950Y18207818D01*
X-2764891Y18379787D01*
X-2915214Y18530110D01*
X-3087180Y18655049D01*
X-3276586Y18751556D01*
X-3276587Y18751557D01*
X-3276588Y18751557D01*
X-3478757Y18817246D01*
X-3478759Y18817247D01*
X-3478760Y18817247D01*
X-3640043Y18842792D01*
X-3688713Y18850500D01*
X-3901287Y18850500D01*
X-3949958Y18842792D01*
X-4111240Y18817247D01*
X-4313415Y18751556D01*
X-4502821Y18655049D01*
X-4674787Y18530110D01*
X-4825110Y18379787D01*
X-4950051Y18207818D01*
X-4954516Y18199054D01*
X-5002491Y18148258D01*
X-5070312Y18131464D01*
X-5136447Y18154002D01*
X-5175484Y18199054D01*
X-5179950Y18207818D01*
X-5304891Y18379787D01*
X-5455214Y18530110D01*
X-5627180Y18655049D01*
X-5816586Y18751556D01*
X-5816587Y18751557D01*
X-5816588Y18751557D01*
X-6018757Y18817246D01*
X-6018759Y18817247D01*
X-6018760Y18817247D01*
X-6180043Y18842792D01*
X-6228713Y18850500D01*
X-6441287Y18850500D01*
X-6489958Y18842792D01*
X-6651240Y18817247D01*
X-6853415Y18751556D01*
X-7042821Y18655049D01*
X-7214787Y18530110D01*
X-7365110Y18379787D01*
X-7490049Y18207821D01*
X-7586556Y18018415D01*
X-7652247Y17816240D01*
X-7685500Y17606287D01*
X-7685500Y17393714D01*
X-7652247Y17183761D01*
X-7586556Y16981586D01*
X-7490049Y16792180D01*
X-7365110Y16620214D01*
X-7214787Y16469891D01*
X-7042821Y16344952D01*
X-7042819Y16344951D01*
X-7042816Y16344949D01*
X-6853412Y16248443D01*
X-6651243Y16182754D01*
X-6441287Y16149500D01*
X-6441286Y16149500D01*
X-6228714Y16149500D01*
X-6228713Y16149500D01*
X-6018757Y16182754D01*
X-5816588Y16248443D01*
X-5627184Y16344949D01*
X-5605211Y16360914D01*
X-5455214Y16469891D01*
X-5455212Y16469894D01*
X-5455208Y16469896D01*
X-5304896Y16620208D01*
X-5304894Y16620212D01*
X-5304891Y16620214D01*
X-5179952Y16792180D01*
X-5179953Y16792180D01*
X-5179949Y16792184D01*
X-5175486Y16800946D01*
X-5127512Y16851741D01*
X-5059692Y16868537D01*
X-4993556Y16846001D01*
X-4954514Y16800944D01*
X-4950049Y16792180D01*
X-4825110Y16620214D01*
X-4674787Y16469891D01*
X-4502821Y16344952D01*
X-4502819Y16344951D01*
X-4502816Y16344949D01*
X-4313412Y16248443D01*
X-4111243Y16182754D01*
X-3901287Y16149500D01*
X-3901286Y16149500D01*
X-3688714Y16149500D01*
X-3688713Y16149500D01*
X-3478757Y16182754D01*
X-3276588Y16248443D01*
X-3087184Y16344949D01*
X-3065211Y16360914D01*
X-2915214Y16469891D01*
X-2915212Y16469894D01*
X-2915208Y16469896D01*
X-2764896Y16620208D01*
X-2764894Y16620212D01*
X-2764891Y16620214D01*
X-2639952Y16792180D01*
X-2639953Y16792180D01*
X-2639949Y16792184D01*
X-2635486Y16800946D01*
X-2587512Y16851741D01*
X-2519692Y16868537D01*
X-2453556Y16846001D01*
X-2414514Y16800944D01*
X-2410049Y16792180D01*
X-2285110Y16620214D01*
X-2134787Y16469891D01*
X-1962821Y16344952D01*
X-1962819Y16344951D01*
X-1962816Y16344949D01*
X-1773412Y16248443D01*
X-1571243Y16182754D01*
X-1361287Y16149500D01*
X-1361286Y16149500D01*
X-1148714Y16149500D01*
X-1148713Y16149500D01*
X-938757Y16182754D01*
X-912819Y16191183D01*
X-842979Y16193179D01*
X-783145Y16157099D01*
X-752316Y16094399D01*
X-750500Y16073252D01*
X-750500Y15126082D01*
X-750500Y15126080D01*
X-750501Y15126080D01*
X-721660Y14981093D01*
X-721657Y14981083D01*
X-665088Y14844512D01*
X-665081Y14844499D01*
X-582952Y14721585D01*
X-582949Y14721581D01*
X-478420Y14617052D01*
X-478416Y14617049D01*
X-355502Y14534920D01*
X-355489Y14534913D01*
X-218918Y14478344D01*
X-218913Y14478342D01*
X-218909Y14478342D01*
X-218908Y14478341D01*
X-73921Y14449500D01*
X-73918Y14449500D01*
X73918Y14449500D01*
X3250414Y14449500D01*
X3271358Y14443350D01*
X3293138Y14441907D01*
X3304221Y14433701D01*
X3317453Y14429815D01*
X3331745Y14413321D01*
X3349290Y14400330D01*
X3354177Y14387433D01*
X3363208Y14377011D01*
X3366314Y14355407D01*
X3374050Y14334994D01*
X3371189Y14321504D01*
X3373152Y14307853D01*
X3364083Y14287997D01*
X3359556Y14266644D01*
X3349856Y14256843D01*
X3344127Y14244297D01*
X3325762Y14232495D01*
X3310410Y14216981D01*
X3288992Y14208865D01*
X3285349Y14206523D01*
X3277407Y14204474D01*
X3218819Y14191407D01*
X3216456Y14190904D01*
X3096949Y14166684D01*
X3078290Y14164357D01*
X2893532Y14155451D01*
X2846038Y14151180D01*
X2846000Y14151599D01*
X2833939Y14150499D01*
X-1663469Y14150499D01*
X-1669911Y14150666D01*
X-1677303Y14151051D01*
X-1703721Y14155619D01*
X-1839200Y14159473D01*
X-1840658Y14159548D01*
X-1841036Y14159681D01*
X-1849399Y14160314D01*
X-1910279Y14167825D01*
X-1922045Y14169856D01*
X-2012220Y14189934D01*
X-2012265Y14189944D01*
X-2210070Y14234064D01*
X-2215246Y14235189D01*
X-2215476Y14235238D01*
X-2215488Y14235240D01*
X-2273867Y14244090D01*
X-2278319Y14244312D01*
X-2296315Y14246538D01*
X-2310801Y14249419D01*
X-2316233Y14250499D01*
X-2483767Y14250499D01*
X-2483772Y14250499D01*
X-2648075Y14217817D01*
X-2648083Y14217815D01*
X-2802861Y14153704D01*
X-2942163Y14060626D01*
X-3060627Y13942162D01*
X-3153705Y13802860D01*
X-3217816Y13648082D01*
X-3217818Y13648074D01*
X-3250500Y13483771D01*
X-3250500Y13316228D01*
X-3217818Y13151925D01*
X-3217816Y13151917D01*
X-3153705Y12997139D01*
X-3060627Y12857837D01*
X-2942166Y12739376D01*
X-2942158Y12739370D01*
X-2849716Y12677602D01*
X-2804910Y12623990D01*
X-2796203Y12554665D01*
X-2826357Y12491638D01*
X-2885800Y12454918D01*
X-2918606Y12450500D01*
X-5144192Y12450500D01*
X-5211231Y12470185D01*
X-5231873Y12486819D01*
X-5839095Y13094041D01*
X-5846994Y13102726D01*
X-5850782Y13107309D01*
X-5862147Y13124104D01*
X-5889883Y13154619D01*
X-5891746Y13156873D01*
X-5893480Y13160917D01*
X-5909124Y13184718D01*
X-5915556Y13198922D01*
X-5921293Y13214193D01*
X-5924513Y13224842D01*
X-5924537Y13224922D01*
X-5926749Y13232046D01*
X-5926864Y13232407D01*
X-5929642Y13240870D01*
X-5969982Y13360190D01*
X-5985914Y13401310D01*
X-5986731Y13403173D01*
X-6006081Y13442555D01*
X-6069649Y13558884D01*
X-6071297Y13562863D01*
X-6074186Y13567186D01*
X-6084280Y13585659D01*
X-6095118Y13604516D01*
X-6095639Y13605379D01*
X-6139588Y13667173D01*
X-6139591Y13667176D01*
X-6139650Y13667259D01*
X-6149999Y13680649D01*
X-6164374Y13702162D01*
X-6282838Y13820626D01*
X-6282839Y13820627D01*
X-6282840Y13820628D01*
X-6422140Y13913705D01*
X-6576918Y13977816D01*
X-6576926Y13977818D01*
X-6741229Y14010500D01*
X-6741233Y14010500D01*
X-6908767Y14010500D01*
X-6908772Y14010500D01*
X-7073075Y13977818D01*
X-7073083Y13977816D01*
X-7227861Y13913705D01*
X-7367163Y13820627D01*
X-7485627Y13702163D01*
X-7578705Y13562861D01*
X-7642816Y13408083D01*
X-7642818Y13408075D01*
X-7675500Y13243772D01*
X-7675500Y13076235D01*
X-7671016Y13053690D01*
X-7677245Y12984098D01*
X-7720109Y12928921D01*
X-7785999Y12905678D01*
X-7792634Y12905500D01*
X-7876000Y12905500D01*
X-7876009Y12905500D01*
X-7876010Y12905499D01*
X-7983451Y12893948D01*
X-7983463Y12893946D01*
X-8034973Y12882740D01*
X-8137498Y12848617D01*
X-8137504Y12848614D01*
X-8258538Y12770829D01*
X-8258549Y12770821D01*
X-8311341Y12725077D01*
X-8405567Y12616336D01*
X-8405570Y12616332D01*
X-8465336Y12485466D01*
X-8485024Y12418418D01*
X-8505500Y12275999D01*
X-8505500Y11429500D01*
X-8525185Y11362461D01*
X-8577989Y11316706D01*
X-8629500Y11305500D01*
X-14198640Y11305500D01*
X-14252689Y11302603D01*
X-14252690Y11302603D01*
X-14279023Y11299771D01*
X-14279050Y11299768D01*
X-14332446Y11291115D01*
X-14332448Y11291115D01*
X-14467253Y11240834D01*
X-14528576Y11207350D01*
X-14528580Y11207347D01*
X-14541193Y11197906D01*
X-14606656Y11173491D01*
X-14674929Y11188344D01*
X-14724333Y11237750D01*
X-14739500Y11297175D01*
X-14739500Y17775933D01*
X-14739235Y17784042D01*
X-14737125Y17816240D01*
X-14722583Y18038116D01*
X-14720469Y18054170D01*
X-14671591Y18299894D01*
X-14667394Y18315555D01*
X-14594562Y18530110D01*
X-14586863Y18552794D01*
X-14580664Y18567760D01*
X-14469851Y18792466D01*
X-14461745Y18806505D01*
X-14322552Y19014823D01*
X-14312695Y19027669D01*
X-14147498Y19216040D01*
X-14136040Y19227498D01*
X-13947670Y19392694D01*
X-13934824Y19402551D01*
X-13726502Y19541747D01*
X-13712467Y19549850D01*
X-13487762Y19660662D01*
X-13472791Y19666863D01*
X-13235548Y19747396D01*
X-13219901Y19751589D01*
X-12974172Y19800467D01*
X-12958118Y19802582D01*
X-12704024Y19819236D01*
X-12695920Y19819500D01*
X-12634107Y19819500D01*
X12634107Y19819500D01*
X12695932Y19819500D01*
X12704041Y19819235D01*
G37*
%TD.AperFunction*%
%TA.AperFunction,Conductor*%
G36*
X-9427799Y2446125D02*
G01*
X-9380972Y2438709D01*
X-9323477Y2429604D01*
X-9304561Y2425062D01*
X-9204104Y2392421D01*
X-9186133Y2384977D01*
X-9092011Y2337019D01*
X-9075442Y2326866D01*
X-8989982Y2264777D01*
X-8975192Y2252144D01*
X-8900512Y2177464D01*
X-8887874Y2162667D01*
X-8825793Y2077218D01*
X-8815627Y2060629D01*
X-8767676Y1966521D01*
X-8760230Y1948544D01*
X-8727592Y1848094D01*
X-8723050Y1829176D01*
X-8706527Y1724863D01*
X-8705000Y1705463D01*
X-8705000Y1599841D01*
X-8706527Y1580441D01*
X-8723050Y1476128D01*
X-8727592Y1457210D01*
X-8760229Y1356762D01*
X-8767675Y1338785D01*
X-8815625Y1244678D01*
X-8825791Y1228089D01*
X-8864233Y1175177D01*
X-8864234Y1175175D01*
X-8887879Y1142631D01*
X-8900516Y1127836D01*
X-8975185Y1053167D01*
X-8989980Y1040530D01*
X-9021382Y1017715D01*
X-9021530Y1017609D01*
X-9075437Y978443D01*
X-9092027Y968276D01*
X-9186134Y920326D01*
X-9204111Y912880D01*
X-9304559Y880243D01*
X-9323477Y875701D01*
X-9399516Y863657D01*
X-9427792Y859178D01*
X-9447189Y857651D01*
X-9552813Y857651D01*
X-9572210Y859178D01*
X-9624365Y867439D01*
X-9676518Y875699D01*
X-9695438Y880241D01*
X-9795897Y912883D01*
X-9813872Y920329D01*
X-9907978Y968278D01*
X-9924569Y978445D01*
X-10010017Y1040526D01*
X-10024813Y1053163D01*
X-10099494Y1127844D01*
X-10112132Y1142641D01*
X-10174208Y1228083D01*
X-10184374Y1244672D01*
X-10232324Y1338778D01*
X-10239770Y1356755D01*
X-10272410Y1457212D01*
X-10276952Y1476133D01*
X-10293473Y1580445D01*
X-10295000Y1599842D01*
X-10295000Y1705463D01*
X-10293473Y1724860D01*
X-10276952Y1829172D01*
X-10272410Y1848093D01*
X-10239767Y1948559D01*
X-10232326Y1966521D01*
X-10184371Y2060640D01*
X-10174210Y2077218D01*
X-10112127Y2162671D01*
X-10099500Y2177455D01*
X-10024804Y2252151D01*
X-10010020Y2264778D01*
X-9924566Y2326863D01*
X-9907989Y2337022D01*
X-9813868Y2384979D01*
X-9795908Y2392418D01*
X-9695430Y2425065D01*
X-9676541Y2429600D01*
X-9572198Y2446126D01*
X-9552811Y2447651D01*
X-9447195Y2447651D01*
X-9427799Y2446125D01*
G37*
%TD.AperFunction*%
%TD*%
%TA.AperFunction,Conductor*%
%TO.N,/OUT B M*%
G36*
X-2916755Y8894602D02*
G01*
X-2916752Y8894649D01*
X-2913722Y8894500D01*
X-2913719Y8894500D01*
X-1879500Y8894500D01*
X-1812461Y8874815D01*
X-1766706Y8822011D01*
X-1755500Y8770500D01*
X-1755500Y8051360D01*
X-1752603Y7997312D01*
X-1752603Y7997311D01*
X-1749771Y7970978D01*
X-1749768Y7970951D01*
X-1741115Y7917555D01*
X-1741115Y7917553D01*
X-1690834Y7782748D01*
X-1690832Y7782743D01*
X-1657347Y7721420D01*
X-1571123Y7606239D01*
X-1436318Y7471434D01*
X-1402834Y7410113D01*
X-1400000Y7383754D01*
X-1400000Y5676158D01*
X-1419685Y5609119D01*
X-1455135Y5573670D01*
X-1454994Y5573482D01*
X-1456296Y5572508D01*
X-1456959Y5571844D01*
X-1458534Y5570832D01*
X-1458549Y5570821D01*
X-1511341Y5525077D01*
X-1605567Y5416336D01*
X-1605570Y5416332D01*
X-1665336Y5285466D01*
X-1665338Y5285459D01*
X-1685023Y5218420D01*
X-1685024Y5218416D01*
X-1705500Y5076000D01*
X-1705500Y-676000D01*
X-1705499Y-676009D01*
X-1693948Y-783450D01*
X-1693946Y-783462D01*
X-1682740Y-834972D01*
X-1648617Y-937497D01*
X-1648614Y-937503D01*
X-1570829Y-1058537D01*
X-1570821Y-1058548D01*
X-1525077Y-1111340D01*
X-1525074Y-1111343D01*
X-1525070Y-1111347D01*
X-1416336Y-1205567D01*
X-1285459Y-1265338D01*
X-1218420Y-1285023D01*
X-1218416Y-1285024D01*
X-1076000Y-1305500D01*
X1970500Y-1305500D01*
X2037539Y-1325185D01*
X2083294Y-1377989D01*
X2094500Y-1429500D01*
X2094500Y-8876000D01*
X2094501Y-8876009D01*
X2106052Y-8983450D01*
X2106054Y-8983462D01*
X2117260Y-9034972D01*
X2151383Y-9137497D01*
X2151386Y-9137503D01*
X2229171Y-9258537D01*
X2229179Y-9258548D01*
X2274923Y-9311340D01*
X2274926Y-9311343D01*
X2274930Y-9311347D01*
X2383664Y-9405567D01*
X2383667Y-9405568D01*
X2383668Y-9405569D01*
X2514542Y-9465339D01*
X2518685Y-9466884D01*
X2517969Y-9468803D01*
X2569702Y-9502040D01*
X2598735Y-9565592D01*
X2600000Y-9583256D01*
X2600000Y-10876000D01*
X2580315Y-10943039D01*
X2527511Y-10988794D01*
X2476000Y-11000000D01*
X-2655076Y-11000000D01*
X-2706590Y-10988793D01*
X-2709922Y-10987271D01*
X-2714538Y-10985163D01*
X-2781583Y-10965476D01*
X-2829056Y-10958650D01*
X-2924000Y-10945000D01*
X-2924002Y-10945000D01*
X-3021769Y-10945000D01*
X-3045958Y-10942617D01*
X-3075764Y-10936688D01*
X-3088659Y-10934123D01*
X-3111915Y-10927068D01*
X-3152135Y-10910409D01*
X-3173575Y-10898949D01*
X-3209776Y-10874760D01*
X-3228566Y-10859339D01*
X-3259341Y-10828564D01*
X-3274762Y-10809773D01*
X-3304582Y-10765144D01*
X-3304588Y-10765136D01*
X-3306086Y-10762894D01*
X-3306089Y-10762888D01*
X-3310330Y-10756541D01*
X-3310338Y-10756516D01*
X-3327371Y-10718320D01*
X-3330426Y-10706350D01*
X-3331883Y-10699926D01*
X-3342619Y-10645951D01*
X-3345000Y-10621769D01*
X-3345000Y-10578232D01*
X-3342618Y-10554043D01*
X-3331178Y-10496526D01*
X-3328138Y-10484447D01*
X-3307140Y-10415835D01*
X-3297708Y-10369601D01*
X-3294316Y-10337572D01*
X-3287530Y-10273518D01*
X-3287530Y-10273517D01*
X-3285760Y-10093116D01*
X-3290200Y-10021125D01*
X-3290200Y-10021122D01*
X-3294880Y-9986139D01*
X-3299751Y-9962644D01*
X-3309525Y-9915493D01*
X-3309526Y-9915492D01*
X-3309526Y-9915489D01*
X-3316326Y-9900208D01*
X-3321776Y-9885521D01*
X-3329018Y-9861432D01*
X-3331879Y-9849950D01*
X-3337581Y-9821281D01*
X-3342618Y-9795953D01*
X-3345000Y-9771765D01*
X-3345000Y-9728224D01*
X-3342618Y-9704035D01*
X-3334129Y-9661354D01*
X-3327783Y-9640437D01*
X-3327876Y-9640404D01*
X-3327206Y-9638537D01*
X-3327066Y-9638076D01*
X-3326872Y-9637609D01*
X-3298597Y-9545210D01*
X-3289165Y-9498976D01*
X-3285969Y-9468803D01*
X-3278987Y-9402895D01*
X-3278987Y-9402894D01*
X-3221118Y-3505633D01*
X-3109154Y7904296D01*
X-3111768Y7960828D01*
X-3114596Y7988403D01*
X-3123510Y8044283D01*
X-3173792Y8179092D01*
X-3207277Y8240415D01*
X-3212679Y8247630D01*
X-3216507Y8253040D01*
X-3240319Y8288677D01*
X-3240318Y8288677D01*
X-3298956Y8376436D01*
X-3310411Y8397869D01*
X-3327068Y8438083D01*
X-3334125Y8461345D01*
X-3342618Y8504045D01*
X-3345000Y8528235D01*
X-3345000Y8571768D01*
X-3342618Y8595958D01*
X-3334125Y8638658D01*
X-3327068Y8661920D01*
X-3310412Y8702132D01*
X-3298953Y8723570D01*
X-3269429Y8767756D01*
X-3258376Y8781950D01*
X-3246205Y8795432D01*
X-3230238Y8815050D01*
X-3209213Y8843761D01*
X-3205795Y8846377D01*
X-3204064Y8850318D01*
X-3178293Y8867421D01*
X-3153724Y8886219D01*
X-3148417Y8887246D01*
X-3145847Y8888951D01*
X-3117209Y8893284D01*
X-3110989Y8894487D01*
X-3110104Y8894500D01*
X-3086281Y8894500D01*
X-3082108Y8894912D01*
X-3076935Y8894987D01*
X-3076702Y8894923D01*
X-3075115Y8895000D01*
X-2924885Y8895000D01*
X-2916755Y8894602D01*
G37*
%TD.AperFunction*%
%TD*%
%TA.AperFunction,Conductor*%
%TO.N,Net-(C15-Pad1)*%
G36*
X9543039Y9380315D02*
G01*
X9588794Y9327511D01*
X9600000Y9276000D01*
X9600000Y-676000D01*
X9580315Y-743039D01*
X9527511Y-788794D01*
X9476000Y-800000D01*
X4400000Y-800000D01*
X4400000Y-10876000D01*
X4380315Y-10943039D01*
X4327511Y-10988794D01*
X4276000Y-11000000D01*
X3724000Y-11000000D01*
X3656961Y-10980315D01*
X3611206Y-10927511D01*
X3600000Y-10876000D01*
X3600000Y-9000000D01*
X2724000Y-9000000D01*
X2656961Y-8980315D01*
X2611206Y-8927511D01*
X2600000Y-8876000D01*
X2600000Y-800000D01*
X-1076000Y-800000D01*
X-1143039Y-780315D01*
X-1188794Y-727511D01*
X-1200000Y-676000D01*
X-1200000Y5076000D01*
X-1180315Y5143039D01*
X-1127511Y5188794D01*
X-1076000Y5200000D01*
X8600000Y5200000D01*
X8600000Y9276000D01*
X8619685Y9343039D01*
X8672489Y9388794D01*
X8724000Y9400000D01*
X9476000Y9400000D01*
X9543039Y9380315D01*
G37*
%TD.AperFunction*%
%TD*%
%TA.AperFunction,Conductor*%
%TO.N,+12V*%
G36*
X45731Y10780315D02*
G01*
X66373Y10763681D01*
X313181Y10516873D01*
X346666Y10455550D01*
X349500Y10429192D01*
X349500Y9293782D01*
X348944Y9282053D01*
X348381Y9276137D01*
X344542Y9256220D01*
X342577Y9215048D01*
X342300Y9212125D01*
X340667Y9208043D01*
X334902Y9180159D01*
X329408Y9165568D01*
X322671Y9150717D01*
X317319Y9140726D01*
X313384Y9133229D01*
X313249Y9132965D01*
X309738Y9126005D01*
X253850Y9013024D01*
X236052Y8972713D01*
X236049Y8972705D01*
X235314Y8970822D01*
X229188Y8952861D01*
X221139Y8929265D01*
X185702Y8808448D01*
X185703Y8808447D01*
X183829Y8802057D01*
X182184Y8798082D01*
X181171Y8792994D01*
X179618Y8787695D01*
X179617Y8787692D01*
X175242Y8772775D01*
X169490Y8751452D01*
X169249Y8750470D01*
X156709Y8675980D01*
X156709Y8675978D01*
X156667Y8675727D01*
X154544Y8659132D01*
X149500Y8633772D01*
X149500Y8466229D01*
X182182Y8301926D01*
X182184Y8301918D01*
X246295Y8147140D01*
X339373Y8007838D01*
X343239Y8003128D01*
X341955Y8002075D01*
X347509Y7997917D01*
X356744Y7973158D01*
X369409Y7949964D01*
X368763Y7940935D01*
X371927Y7932453D01*
X366310Y7906631D01*
X364425Y7880272D01*
X358607Y7871220D01*
X357076Y7864180D01*
X335925Y7835926D01*
X286320Y7786320D01*
X224997Y7752834D01*
X198638Y7750000D01*
X-948638Y7750000D01*
X-1015677Y7769685D01*
X-1036319Y7786319D01*
X-1213681Y7963681D01*
X-1247166Y8025004D01*
X-1250000Y8051362D01*
X-1250000Y9400000D01*
X-1500000Y9400000D01*
X-2913719Y9400000D01*
X-2916233Y9400500D01*
X-3083767Y9400500D01*
X-3086281Y9400000D01*
X-3350000Y9400000D01*
X-3600000Y9400000D01*
X-3600001Y9400000D01*
X-3601954Y9200987D01*
X-3622296Y9134144D01*
X-3638263Y9114526D01*
X-3660629Y9092160D01*
X-3660629Y9092159D01*
X-3753705Y8952861D01*
X-3817816Y8798083D01*
X-3817818Y8798075D01*
X-3850500Y8633772D01*
X-3850500Y8466229D01*
X-3817818Y8301926D01*
X-3817816Y8301918D01*
X-3753705Y8147140D01*
X-3660627Y8007838D01*
X-3650943Y7998154D01*
X-3617458Y7936831D01*
X-3614630Y7909256D01*
X-3784463Y-9397932D01*
X-3793895Y-9444166D01*
X-3817817Y-9501920D01*
X-3817819Y-9501925D01*
X-3850500Y-9666228D01*
X-3850500Y-9833771D01*
X-3817818Y-9998074D01*
X-3817816Y-9998081D01*
X-3800668Y-10039482D01*
X-3798952Y-10048340D01*
X-3795916Y-10053167D01*
X-3791236Y-10088150D01*
X-3793006Y-10268557D01*
X-3802438Y-10314791D01*
X-3817816Y-10351917D01*
X-3817818Y-10351925D01*
X-3850500Y-10516228D01*
X-3850500Y-10683771D01*
X-3817818Y-10848074D01*
X-3817815Y-10848086D01*
X-3809983Y-10866996D01*
X-3809971Y-10867021D01*
X-3799136Y-10893181D01*
X-3800000Y-10981379D01*
X-3762442Y-10981767D01*
X-3753703Y-11002863D01*
X-3726394Y-11043733D01*
X-3726390Y-11043742D01*
X-3660627Y-11142161D01*
X-3660624Y-11142165D01*
X-3542163Y-11260626D01*
X-3482488Y-11300499D01*
X-3402863Y-11353703D01*
X-3248082Y-11417816D01*
X-3093254Y-11448613D01*
X-3083772Y-11450499D01*
X-3083768Y-11450500D01*
X-2924000Y-11450500D01*
X-2856961Y-11470185D01*
X-2811206Y-11522989D01*
X-2800000Y-11574500D01*
X-2800000Y-19648638D01*
X-2808645Y-19678078D01*
X-2815168Y-19708065D01*
X-2818923Y-19713080D01*
X-2819685Y-19715677D01*
X-2836319Y-19736319D01*
X-2883181Y-19783181D01*
X-2944504Y-19816666D01*
X-2970862Y-19819500D01*
X-12695932Y-19819500D01*
X-12704042Y-19819235D01*
X-12958104Y-19802583D01*
X-12974185Y-19800465D01*
X-13007957Y-19793747D01*
X-13219889Y-19751591D01*
X-13235555Y-19747393D01*
X-13472786Y-19666864D01*
X-13487772Y-19660657D01*
X-13712460Y-19549853D01*
X-13726507Y-19541743D01*
X-13934811Y-19402559D01*
X-13947679Y-19392685D01*
X-14136034Y-19227502D01*
X-14147503Y-19216033D01*
X-14312688Y-19027676D01*
X-14322562Y-19014808D01*
X-14418576Y-18871112D01*
X-14461745Y-18806505D01*
X-14469851Y-18792463D01*
X-14487212Y-18757258D01*
X-14500000Y-18702415D01*
X-14500000Y-9168872D01*
X-11400500Y-9168872D01*
X-11400500Y-9431127D01*
X-11373877Y-9633339D01*
X-11366270Y-9691116D01*
X-11328047Y-9833767D01*
X-11298398Y-9944418D01*
X-11298395Y-9944428D01*
X-11198047Y-10186690D01*
X-11198042Y-10186700D01*
X-11066925Y-10413803D01*
X-10907282Y-10621851D01*
X-10907274Y-10621860D01*
X-10721860Y-10807274D01*
X-10721852Y-10807281D01*
X-10513804Y-10966924D01*
X-10286701Y-11098041D01*
X-10286691Y-11098046D01*
X-10044429Y-11198394D01*
X-10044419Y-11198398D01*
X-9791116Y-11266270D01*
X-9531120Y-11300500D01*
X-9531113Y-11300500D01*
X-9268887Y-11300500D01*
X-9268880Y-11300500D01*
X-9008884Y-11266270D01*
X-8755581Y-11198398D01*
X-8513303Y-11098043D01*
X-8286197Y-10966924D01*
X-8078149Y-10807282D01*
X-8078145Y-10807277D01*
X-8078140Y-10807274D01*
X-7892726Y-10621860D01*
X-7892723Y-10621855D01*
X-7892718Y-10621851D01*
X-7733076Y-10413803D01*
X-7601957Y-10186697D01*
X-7501602Y-9944419D01*
X-7433730Y-9691116D01*
X-7399500Y-9431120D01*
X-7399500Y-9168880D01*
X-7433730Y-8908884D01*
X-7501602Y-8655581D01*
X-7501606Y-8655571D01*
X-7601954Y-8413309D01*
X-7601959Y-8413299D01*
X-7733076Y-8186196D01*
X-7892719Y-7978148D01*
X-7892726Y-7978140D01*
X-8078140Y-7792726D01*
X-8078149Y-7792718D01*
X-8286197Y-7633075D01*
X-8513300Y-7501958D01*
X-8513310Y-7501953D01*
X-8755572Y-7401605D01*
X-8755579Y-7401603D01*
X-8755581Y-7401602D01*
X-9008884Y-7333730D01*
X-9066661Y-7326123D01*
X-9268873Y-7299500D01*
X-9268880Y-7299500D01*
X-9531120Y-7299500D01*
X-9531128Y-7299500D01*
X-9762228Y-7329926D01*
X-9791116Y-7333730D01*
X-10044419Y-7401602D01*
X-10044429Y-7401605D01*
X-10286691Y-7501953D01*
X-10286701Y-7501958D01*
X-10513804Y-7633075D01*
X-10721852Y-7792718D01*
X-10907282Y-7978148D01*
X-11066925Y-8186196D01*
X-11198042Y-8413299D01*
X-11198047Y-8413309D01*
X-11298395Y-8655571D01*
X-11298398Y-8655581D01*
X-11363755Y-8899500D01*
X-11366270Y-8908885D01*
X-11400500Y-9168872D01*
X-14500000Y-9168872D01*
X-14500000Y-3485777D01*
X-11400500Y-3485777D01*
X-11400500Y-5114208D01*
X-11400499Y-5114223D01*
X-11390096Y-5246413D01*
X-11390095Y-5246420D01*
X-11335098Y-5464678D01*
X-11335097Y-5464681D01*
X-11242009Y-5669622D01*
X-11242003Y-5669632D01*
X-11113826Y-5854645D01*
X-11113822Y-5854650D01*
X-11113819Y-5854654D01*
X-10954654Y-6013819D01*
X-10954650Y-6013822D01*
X-10954646Y-6013825D01*
X-10815397Y-6110297D01*
X-10769626Y-6142007D01*
X-10564683Y-6235096D01*
X-10564679Y-6235097D01*
X-10346421Y-6290094D01*
X-10346419Y-6290094D01*
X-10346412Y-6290096D01*
X-10214217Y-6300500D01*
X-8585784Y-6300499D01*
X-8453588Y-6290096D01*
X-8235317Y-6235096D01*
X-8030374Y-6142007D01*
X-7845346Y-6013819D01*
X-7686181Y-5854654D01*
X-7557993Y-5669626D01*
X-7464904Y-5464683D01*
X-7409904Y-5246412D01*
X-7399500Y-5114217D01*
X-7399501Y-3485784D01*
X-7409904Y-3353588D01*
X-7421350Y-3308165D01*
X-7464903Y-3135321D01*
X-7464904Y-3135318D01*
X-7492795Y-3073914D01*
X-7557993Y-2930374D01*
X-7686181Y-2745346D01*
X-7845346Y-2586181D01*
X-7845350Y-2586178D01*
X-7845355Y-2586174D01*
X-8030368Y-2457997D01*
X-8030370Y-2457995D01*
X-8030374Y-2457993D01*
X-8235317Y-2364904D01*
X-8235319Y-2364903D01*
X-8235322Y-2364902D01*
X-8453580Y-2309905D01*
X-8453587Y-2309904D01*
X-8497653Y-2306436D01*
X-8585783Y-2299500D01*
X-8585785Y-2299500D01*
X-10214209Y-2299500D01*
X-10214224Y-2299501D01*
X-10346414Y-2309904D01*
X-10346421Y-2309905D01*
X-10564679Y-2364902D01*
X-10564682Y-2364903D01*
X-10769623Y-2457991D01*
X-10769633Y-2457997D01*
X-10954646Y-2586174D01*
X-10954658Y-2586184D01*
X-11113816Y-2745342D01*
X-11113826Y-2745354D01*
X-11242003Y-2930367D01*
X-11242009Y-2930377D01*
X-11335097Y-3135318D01*
X-11335098Y-3135321D01*
X-11390095Y-3353579D01*
X-11390096Y-3353586D01*
X-11400500Y-3485777D01*
X-14500000Y-3485777D01*
X-14500000Y1755003D01*
X-10800500Y1755003D01*
X-10800500Y1550300D01*
X-10768478Y1348117D01*
X-10705219Y1153428D01*
X-10612285Y971038D01*
X-10491972Y805438D01*
X-10347214Y660680D01*
X-10192251Y548095D01*
X-10181610Y540364D01*
X-10065393Y481148D01*
X-9999224Y447433D01*
X-9999222Y447433D01*
X-9999219Y447431D01*
X-9894863Y413524D01*
X-9804535Y384174D01*
X-9703443Y368163D01*
X-9602352Y352151D01*
X-9602351Y352151D01*
X-9397649Y352151D01*
X-9397648Y352151D01*
X-9195466Y384174D01*
X-9000781Y447431D01*
X-8818390Y540364D01*
X-8725410Y607919D01*
X-8652787Y660680D01*
X-8652785Y660683D01*
X-8652781Y660685D01*
X-8508034Y805432D01*
X-8508032Y805436D01*
X-8508029Y805438D01*
X-8455268Y878061D01*
X-8387713Y971041D01*
X-8294780Y1153432D01*
X-8231523Y1348117D01*
X-8199500Y1550299D01*
X-8199500Y1755003D01*
X-8231523Y1957185D01*
X-8294780Y2151870D01*
X-8294782Y2151873D01*
X-8294782Y2151875D01*
X-8328497Y2218044D01*
X-8387713Y2334261D01*
X-8395444Y2344902D01*
X-8508029Y2499865D01*
X-8652787Y2644623D01*
X-8818387Y2764936D01*
X-8818388Y2764937D01*
X-8818390Y2764938D01*
X-8875347Y2793960D01*
X-9000777Y2857870D01*
X-9195466Y2921129D01*
X-9370005Y2948773D01*
X-9397648Y2953151D01*
X-9602352Y2953151D01*
X-9626671Y2949300D01*
X-9804535Y2921129D01*
X-9999224Y2857870D01*
X-10181614Y2764936D01*
X-10347214Y2644623D01*
X-10491972Y2499865D01*
X-10612285Y2334265D01*
X-10705219Y2151875D01*
X-10768478Y1957186D01*
X-10800500Y1755003D01*
X-14500000Y1755003D01*
X-14500000Y5752668D01*
X-10800500Y5752668D01*
X-10800500Y4552650D01*
X-10800499Y4552633D01*
X-10790000Y4449855D01*
X-10789999Y4449852D01*
X-10734815Y4283320D01*
X-10734814Y4283317D01*
X-10642712Y4133995D01*
X-10518656Y4009939D01*
X-10369334Y3917837D01*
X-10202797Y3862652D01*
X-10100009Y3852151D01*
X-8899992Y3852152D01*
X-8797203Y3862652D01*
X-8630666Y3917837D01*
X-8481344Y4009939D01*
X-8357288Y4133995D01*
X-8265186Y4283317D01*
X-8210001Y4449854D01*
X-8199500Y4552642D01*
X-8199501Y5752659D01*
X-8210001Y5855448D01*
X-8265186Y6021985D01*
X-8357288Y6171307D01*
X-8481344Y6295363D01*
X-8630666Y6387465D01*
X-8797203Y6442650D01*
X-8797205Y6442651D01*
X-8899990Y6453151D01*
X-10100002Y6453151D01*
X-10100019Y6453150D01*
X-10202797Y6442651D01*
X-10202800Y6442650D01*
X-10369332Y6387466D01*
X-10369337Y6387464D01*
X-10518658Y6295362D01*
X-10642711Y6171309D01*
X-10734813Y6021988D01*
X-10734814Y6021985D01*
X-10789999Y5855448D01*
X-10789999Y5855447D01*
X-10790000Y5855447D01*
X-10800500Y5752668D01*
X-14500000Y5752668D01*
X-14500000Y10498638D01*
X-14480315Y10565677D01*
X-14463681Y10586319D01*
X-14286319Y10763681D01*
X-14224996Y10797166D01*
X-14198638Y10800000D01*
X-8000000Y10800000D01*
X-5800000Y10800000D01*
X-21308Y10800000D01*
X45731Y10780315D01*
G37*
%TD.AperFunction*%
%TD*%
%TA.AperFunction,Conductor*%
%TO.N,/CPM1*%
G36*
X1147248Y9239848D02*
G01*
X1150654Y9232269D01*
X1157037Y9124869D01*
X1157038Y9124861D01*
X1176026Y9036064D01*
X1176027Y9036060D01*
X1176028Y9036057D01*
X1203786Y8965527D01*
X1225524Y8924076D01*
X1237074Y8902051D01*
X1237191Y8901821D01*
X1292090Y8791280D01*
X1292633Y8790002D01*
X1319302Y8715124D01*
X1319639Y8714003D01*
X1340347Y8630140D01*
X1339003Y8621286D01*
X1331793Y8615976D01*
X1331303Y8615866D01*
X1002315Y8549468D01*
X997685Y8549468D01*
X669226Y8615759D01*
X661795Y8620755D01*
X660072Y8629543D01*
X660310Y8630509D01*
X706212Y8787014D01*
X706947Y8788897D01*
X762811Y8901827D01*
X762938Y8902074D01*
X787855Y8948592D01*
X794233Y8965527D01*
X832277Y9066552D01*
X832277Y9066553D01*
X832280Y9066560D01*
X845285Y9144440D01*
X849468Y9232135D01*
X853285Y9240233D01*
X861155Y9243275D01*
X1138975Y9243275D01*
X1147248Y9239848D01*
G37*
%TD.AperFunction*%
%TD*%
%TA.AperFunction,Conductor*%
%TO.N,/CPM1*%
G36*
X-6528392Y13344122D02*
G01*
X-6527871Y13343259D01*
X-6449672Y13200155D01*
X-6448855Y13198292D01*
X-6408515Y13078972D01*
X-6408400Y13078611D01*
X-6393147Y13028168D01*
X-6341143Y12913335D01*
X-6341142Y12913334D01*
X-6295268Y12849069D01*
X-6267041Y12818013D01*
X-6236218Y12784102D01*
X-6233189Y12775675D01*
X-6236603Y12767960D01*
X-6433052Y12571511D01*
X-6441325Y12568084D01*
X-6449092Y12571035D01*
X-6529552Y12642467D01*
X-6529554Y12642469D01*
X-6529558Y12642472D01*
X-6605773Y12691834D01*
X-6675282Y12722083D01*
X-6743655Y12743412D01*
X-6743901Y12743491D01*
X-6860939Y12782855D01*
X-6862227Y12783376D01*
X-6934021Y12817459D01*
X-6935052Y12818013D01*
X-7008996Y12862673D01*
X-7014306Y12869883D01*
X-7012962Y12878737D01*
X-7012706Y12879141D01*
X-6827011Y13158745D01*
X-6823745Y13162011D01*
X-6544608Y13347396D01*
X-6535823Y13349118D01*
X-6528392Y13344122D01*
G37*
%TD.AperFunction*%
%TD*%
%TA.AperFunction,Conductor*%
%TO.N,/M SW*%
G36*
X3528885Y13739132D02*
G01*
X3534030Y13731803D01*
X3534080Y13731571D01*
X3600532Y13402314D01*
X3600532Y13397684D01*
X3534080Y13068428D01*
X3529084Y13060997D01*
X3520296Y13059274D01*
X3520064Y13059324D01*
X3322914Y13103297D01*
X3202298Y13130153D01*
X3202285Y13130155D01*
X3202281Y13130156D01*
X3202279Y13130156D01*
X3151560Y13136414D01*
X3081820Y13145018D01*
X3081813Y13145019D01*
X3081809Y13145019D01*
X3038581Y13146249D01*
X2918092Y13149676D01*
X2909920Y13153336D01*
X2906725Y13161371D01*
X2906725Y13638850D01*
X2910152Y13647123D01*
X2917861Y13650536D01*
X3150440Y13661746D01*
X3322909Y13696701D01*
X3520064Y13740675D01*
X3528885Y13739132D01*
G37*
%TD.AperFunction*%
%TD*%
%TA.AperFunction,Conductor*%
%TO.N,/M SW*%
G36*
X-2320080Y13740679D02*
G01*
X-2280783Y13731914D01*
X-2122912Y13696701D01*
X-2002296Y13669845D01*
X-2002290Y13669844D01*
X-2002276Y13669841D01*
X-1881807Y13654979D01*
X-1718091Y13650323D01*
X-1709920Y13646663D01*
X-1706725Y13638628D01*
X-1706725Y13161149D01*
X-1710152Y13152876D01*
X-1717862Y13149463D01*
X-1950438Y13138253D01*
X-1950441Y13138253D01*
X-2122941Y13103292D01*
X-2320065Y13059324D01*
X-2328886Y13060867D01*
X-2334031Y13068196D01*
X-2334069Y13068368D01*
X-2400533Y13397686D01*
X-2400533Y13402314D01*
X-2334080Y13731574D01*
X-2329085Y13739002D01*
X-2320297Y13740725D01*
X-2320080Y13740679D01*
G37*
%TD.AperFunction*%
%TD*%
%TA.AperFunction,Conductor*%
%TO.N,/M SW*%
G36*
X11528885Y13739131D02*
G01*
X11534030Y13731802D01*
X11534080Y13731570D01*
X11600532Y13402313D01*
X11600532Y13397683D01*
X11534080Y13068427D01*
X11529084Y13060996D01*
X11520296Y13059273D01*
X11520064Y13059323D01*
X11322914Y13103296D01*
X11202298Y13130152D01*
X11202285Y13130154D01*
X11202281Y13130155D01*
X11202279Y13130155D01*
X11151560Y13136413D01*
X11081820Y13145017D01*
X11081813Y13145018D01*
X11081809Y13145018D01*
X11038581Y13146248D01*
X10918092Y13149675D01*
X10909920Y13153335D01*
X10906725Y13161370D01*
X10906725Y13638849D01*
X10910152Y13647122D01*
X10917861Y13650535D01*
X11150440Y13661745D01*
X11322909Y13696700D01*
X11520064Y13740674D01*
X11528885Y13739131D01*
G37*
%TD.AperFunction*%
%TD*%
%TA.AperFunction,Conductor*%
%TO.N,/M SW*%
G36*
X9679920Y13740678D02*
G01*
X9719217Y13731913D01*
X9877088Y13696700D01*
X9997704Y13669844D01*
X9997710Y13669843D01*
X9997724Y13669840D01*
X10118193Y13654978D01*
X10281909Y13650322D01*
X10290080Y13646662D01*
X10293275Y13638627D01*
X10293275Y13161148D01*
X10289848Y13152875D01*
X10282138Y13149462D01*
X10049562Y13138252D01*
X10049559Y13138252D01*
X9877059Y13103291D01*
X9679935Y13059323D01*
X9671114Y13060866D01*
X9665969Y13068195D01*
X9665931Y13068367D01*
X9599467Y13397685D01*
X9599467Y13402313D01*
X9665920Y13731573D01*
X9670915Y13739001D01*
X9679703Y13740724D01*
X9679920Y13740678D01*
G37*
%TD.AperFunction*%
%TD*%
%TA.AperFunction,Conductor*%
%TO.N,/M SW*%
G36*
X3679920Y13740679D02*
G01*
X3719217Y13731914D01*
X3877088Y13696701D01*
X3997704Y13669845D01*
X3997710Y13669844D01*
X3997724Y13669841D01*
X4118193Y13654979D01*
X4281909Y13650323D01*
X4290080Y13646663D01*
X4293275Y13638628D01*
X4293275Y13161149D01*
X4289848Y13152876D01*
X4282138Y13149463D01*
X4049562Y13138253D01*
X4049559Y13138253D01*
X3877059Y13103292D01*
X3679935Y13059324D01*
X3671114Y13060867D01*
X3665969Y13068196D01*
X3665931Y13068368D01*
X3599467Y13397686D01*
X3599467Y13402314D01*
X3665920Y13731574D01*
X3670915Y13739002D01*
X3679703Y13740725D01*
X3679920Y13740679D01*
G37*
%TD.AperFunction*%
%TD*%
%TA.AperFunction,Conductor*%
%TO.N,/M SW*%
G36*
X9528885Y13739131D02*
G01*
X9534030Y13731802D01*
X9534080Y13731570D01*
X9600532Y13402313D01*
X9600532Y13397683D01*
X9534080Y13068427D01*
X9529084Y13060996D01*
X9520296Y13059273D01*
X9520064Y13059323D01*
X9322912Y13103297D01*
X9202295Y13130154D01*
X9202282Y13130156D01*
X9202278Y13130157D01*
X9202276Y13130157D01*
X9151546Y13136416D01*
X9081818Y13145018D01*
X9081811Y13145019D01*
X9081807Y13145019D01*
X9038946Y13146239D01*
X8918092Y13149676D01*
X8909920Y13153336D01*
X8906725Y13161371D01*
X8906725Y13638850D01*
X8910152Y13647123D01*
X8917861Y13650536D01*
X9150441Y13661746D01*
X9322911Y13696701D01*
X9520064Y13740674D01*
X9528885Y13739131D01*
G37*
%TD.AperFunction*%
%TD*%
%TA.AperFunction,Conductor*%
%TO.N,+3V3*%
G36*
X11679920Y12140680D02*
G01*
X11719217Y12131915D01*
X11877088Y12096702D01*
X11997704Y12069846D01*
X11997710Y12069845D01*
X11997724Y12069842D01*
X12118193Y12054980D01*
X12281909Y12050324D01*
X12290080Y12046664D01*
X12293275Y12038629D01*
X12293275Y11561150D01*
X12289848Y11552877D01*
X12282138Y11549464D01*
X12049562Y11538254D01*
X12049559Y11538254D01*
X11877059Y11503293D01*
X11679935Y11459325D01*
X11671114Y11460868D01*
X11665969Y11468197D01*
X11665931Y11468369D01*
X11599467Y11797687D01*
X11599467Y11802315D01*
X11665920Y12131575D01*
X11670915Y12139003D01*
X11679703Y12140726D01*
X11679920Y12140680D01*
G37*
%TD.AperFunction*%
%TD*%
%TA.AperFunction,Conductor*%
%TO.N,+3V3*%
G36*
X-541549Y17963871D02*
G01*
X-438258Y17834960D01*
X-323773Y17734244D01*
X-209037Y17659331D01*
X-153665Y17629397D01*
X-98300Y17599467D01*
X-73990Y17586370D01*
X-4375Y17548864D01*
X-3219Y17548149D01*
X106256Y17471211D01*
X108553Y17469085D01*
X181397Y17380764D01*
X182883Y17378456D01*
X209670Y17323634D01*
X210326Y17321987D01*
X230783Y17256507D01*
X231155Y17254944D01*
X245015Y17171900D01*
X245161Y17170544D01*
X249402Y17083603D01*
X246382Y17075173D01*
X238286Y17071347D01*
X237716Y17071333D01*
X-239036Y17071333D01*
X-247309Y17074760D01*
X-250711Y17082275D01*
X-255014Y17148528D01*
X-255015Y17148529D01*
X-255015Y17148533D01*
X-269694Y17195895D01*
X-293489Y17216869D01*
X-293491Y17216870D01*
X-325849Y17214905D01*
X-325852Y17214904D01*
X-366232Y17193453D01*
X-414089Y17155959D01*
X-530047Y17046632D01*
X-636527Y16944512D01*
X-637126Y16943975D01*
X-808161Y16801150D01*
X-809617Y16800113D01*
X-955844Y16711906D01*
X-958124Y16710846D01*
X-1076535Y16670626D01*
X-1085471Y16671210D01*
X-1091376Y16677941D01*
X-1091774Y16679424D01*
X-1115958Y16801150D01*
X-1253476Y17493328D01*
X-1251727Y17502108D01*
X-1248495Y17505338D01*
X-557169Y17966290D01*
X-548385Y17968027D01*
X-541549Y17963871D01*
G37*
%TD.AperFunction*%
%TD*%
%TA.AperFunction,Conductor*%
%TO.N,+3V3*%
G36*
X587060Y17966362D02*
G01*
X1278490Y17505341D01*
X1283472Y17497900D01*
X1283475Y17493326D01*
X1121652Y16678813D01*
X1116678Y16671366D01*
X1107896Y16669617D01*
X1106944Y16669848D01*
X1036813Y16690005D01*
X1035231Y16690586D01*
X955789Y16726452D01*
X954181Y16727336D01*
X801369Y16827674D01*
X800140Y16828603D01*
X659802Y16949914D01*
X659256Y16950416D01*
X534318Y17073078D01*
X534326Y17073087D01*
X534296Y17073100D01*
X446040Y17160200D01*
X446033Y17160207D01*
X353072Y17236432D01*
X353070Y17236433D01*
X304237Y17253336D01*
X284687Y17247060D01*
X284686Y17247060D01*
X269318Y17229003D01*
X269318Y17229002D01*
X269317Y17229001D01*
X269317Y17229000D01*
X254915Y17180184D01*
X250684Y17112305D01*
X246749Y17104261D01*
X239007Y17101333D01*
X-237546Y17101333D01*
X-245819Y17104760D01*
X-249246Y17113033D01*
X-249223Y17113762D01*
X-242806Y17216487D01*
X-242554Y17218281D01*
X-240187Y17229000D01*
X-222177Y17310561D01*
X-221487Y17312688D01*
X-189461Y17386340D01*
X-188234Y17388497D01*
X-145935Y17447267D01*
X-144388Y17449014D01*
X-92873Y17496602D01*
X-91437Y17497732D01*
X-31834Y17537449D01*
X-30569Y17538181D01*
X108803Y17607393D01*
X108962Y17607469D01*
X165962Y17633886D01*
X328139Y17722762D01*
X461769Y17830410D01*
X571531Y17964054D01*
X579428Y17968270D01*
X587060Y17966362D01*
G37*
%TD.AperFunction*%
%TD*%
%TA.AperFunction,Conductor*%
%TO.N,+3V3*%
G36*
X9679920Y12140680D02*
G01*
X9719217Y12131915D01*
X9877088Y12096702D01*
X9997704Y12069846D01*
X9997710Y12069845D01*
X9997724Y12069842D01*
X10118193Y12054980D01*
X10281909Y12050324D01*
X10290080Y12046664D01*
X10293275Y12038629D01*
X10293275Y11561150D01*
X10289848Y11552877D01*
X10282138Y11549464D01*
X10049562Y11538254D01*
X10049559Y11538254D01*
X9877059Y11503293D01*
X9679935Y11459325D01*
X9671114Y11460868D01*
X9665969Y11468197D01*
X9665931Y11468369D01*
X9599467Y11797687D01*
X9599467Y11802315D01*
X9665920Y12131575D01*
X9670915Y12139003D01*
X9679703Y12140726D01*
X9679920Y12140680D01*
G37*
%TD.AperFunction*%
%TD*%
%TA.AperFunction,Conductor*%
%TO.N,+3V3*%
G36*
X11528885Y12139133D02*
G01*
X11534030Y12131804D01*
X11534080Y12131572D01*
X11600532Y11802315D01*
X11600532Y11797685D01*
X11534080Y11468429D01*
X11529084Y11460998D01*
X11520296Y11459275D01*
X11520064Y11459325D01*
X11322914Y11503298D01*
X11202298Y11530154D01*
X11202285Y11530156D01*
X11202281Y11530157D01*
X11202279Y11530157D01*
X11151560Y11536415D01*
X11081820Y11545019D01*
X11081813Y11545020D01*
X11081809Y11545020D01*
X11038581Y11546250D01*
X10918092Y11549677D01*
X10909920Y11553337D01*
X10906725Y11561372D01*
X10906725Y12038851D01*
X10910152Y12047124D01*
X10917861Y12050537D01*
X11150440Y12061747D01*
X11322909Y12096702D01*
X11520064Y12140676D01*
X11528885Y12139133D01*
G37*
%TD.AperFunction*%
%TD*%
M02*
