0
SECTION
2
HEADER
9
$INSUNITS
70
4
9
$ACADVER
1
AC1014
9
$HANDSEED
5
FFFF
0
ENDSEC
0
SECTION
2
TABLES
0
TABLE
2
VPORT
5
8
100
AcDbSymbolTable
0
ENDTAB
0
TABLE
2
LTYPE
5
5
100
AcDbSymbolTable
0
LTYPE
5
14
100
AcDbSymbolTableRecord
100
AcDbLinetypeTableRecord
2
BYBLOCK
70
0
0
LTYPE
5
15
100
AcDbSymbolTableRecord
100
AcDbLinetypeTableRecord
2
BYLAYER
70
0
0
LTYPE
5
16
100
AcDbSymbolTableRecord
100
AcDbLinetypeTableRecord
2
DASHED
70
0
3
Dashed __ __ __ __ __ __ __ __ __ __ __ __ __ _
72
65
73
2
40
0.75
49
0.5
74
0
49
-0.25
74
0
0
ENDTAB
0
TABLE
2
LAYER
5
2
100
AcDbSymbolTable
70
2
0
LAYER
5
50
100
AcDbSymbolTableRecord
100
AcDbLayerTableRecord
2
0
70
0
62
7
6
CONTINUOUS
0
ENDTAB
0
TABLE
2
STYLE
5
3
100
AcDbSymbolTable
70
1
0
STYLE
5
11
100
AcDbSymbolTableRecord
100
AcDbTextStyleTableRecord
2
STANDARD
70
0
0
ENDTAB
0
TABLE
2
VIEW
5
6
100
AcDbSymbolTable
70
0
0
ENDTAB
0
TABLE
2
UCS
5
7
100
AcDbSymbolTable
70
0
0
ENDTAB
0
TABLE
2
APPID
5
9
100
AcDbSymbolTable
70
2
0
APPID
5
12
100
AcDbSymbolTableRecord
100
AcDbRegAppTableRecord
2
ACAD
70
0
0
ENDTAB
0
TABLE
2
DIMSTYLE
5
A
100
AcDbSymbolTable
70
1
0
ENDTAB
0
TABLE
2
BLOCK_RECORD
5
1
100
AcDbSymbolTable
70
1
0
BLOCK_RECORD
5
1F
100
AcDbSymbolTableRecord
100
AcDbBlockTableRecord
2
*MODEL_SPACE
0
BLOCK_RECORD
5
1B
100
AcDbSymbolTableRecord
100
AcDbBlockTableRecord
2
*PAPER_SPACE
0
ENDTAB
0
ENDSEC
0
SECTION
2
BLOCKS
0
BLOCK
5
20
100
AcDbEntity
100
AcDbBlockBegin
2
*MODEL_SPACE
0
ENDBLK
5
21
100
AcDbEntity
100
AcDbBlockEnd
0
BLOCK
5
1C
100
AcDbEntity
100
AcDbBlockBegin
2
*PAPER_SPACE
0
ENDBLK
5
1D
100
AcDbEntity
100
AcDbBlockEnd
0
ENDSEC
0
SECTION
2
ENTITIES
0
LWPOLYLINE
5
100
100
AcDbEntity
8
0
100
AcDbPolyline
90
16
70
1
43
0.0
10
-29.181764036908842
20
-71.51677285368163
42
0.26794919243111831
10
-29.431764036908838
20
-71.083760151789406
42
-1.3032253728412126
10
-28.748751335016614
20
-70.400747449897196
42
0.26794919243110743
10
-28.315738633124404
20
-70.650747449897196
10
-27.947789440693278
20
-70.650747449897196
42
0.26794919243114523
10
-27.51477673880105
20
-70.40074744989721
42
-1.3032253728412047
10
-26.831764036908844
20
-71.08376015178942
42
0.26794919243113757
10
-27.081764036908844
20
-71.516772853681644
10
-27.081764036908915
20
-80.284722046112776
42
0.26794919243115051
10
-26.831764036908933
20
-80.717734748005014
42
-1.3032253728412371
10
-27.514776738801135
20
-81.40074744989721
42
0.26794919243108617
10
-27.947789440693349
20
-81.15074744989721
10
-28.315738633124475
20
-81.15074744989721
42
0.2679491924311807
10
-28.748751335016706
20
-81.400747449897196
42
-1.3032253728412075
10
-29.431764036908913
20
-80.717734748004972
42
0.26794919243111831
10
-29.181764036908916
20
-80.284722046112762
0
LWPOLYLINE
5
101
100
AcDbEntity
8
0
100
AcDbPolyline
90
16
70
1
43
0.0
10
27.081764036908957
20
-71.516772853681829
42
0.26794919243112214
10
26.83176403690895
20
-71.083760151789619
42
-1.3032253728412075
10
27.514776738801174
20
-70.400747449897409
42
0.26794919243111631
10
27.947789440693391
20
-70.650747449897409
10
28.315738633124514
20
-70.650747449897409
42
0.26794919243111748
10
28.748751335016731
20
-70.400747449897409
42
-1.3032253728412047
10
29.431764036908955
20
-71.083760151789619
42
0.26794919243114784
10
29.181764036908948
20
-71.516772853681829
10
29.181764036908952
20
-80.284722046112975
42
0.2679491924311081
10
29.431764036908955
20
-80.717734748005199
42
-1.3032253728411927
10
28.748751335016735
20
-81.400747449897409
42
0.26794919243111565
10
28.315738633124518
20
-81.150747449897395
10
27.947789440693388
20
-81.150747449897409
42
0.26794919243111326
10
27.514776738801171
20
-81.400747449897409
42
-1.3032253728412106
10
26.831764036908957
20
-80.717734748005199
42
0.26794919243112658
10
27.081764036908957
20
-80.284722046112975
0
CIRCLE
5
102
100
AcDbEntity
8
0
100
AcDbCircle
10
40.000000000000028
20
22.500000000000004
30
0
40
1.5749999999999975
210
0
220
-0
230
1
0
CIRCLE
5
103
100
AcDbEntity
8
0
100
AcDbCircle
10
-40
20
-22.499999999999993
30
0
40
1.575000000000002
210
0
220
-0
230
1
0
CIRCLE
5
104
100
AcDbEntity
8
0
100
AcDbCircle
10
39.999999999999993
20
-22.499999999999993
30
0
40
1.5749999999999975
210
0
220
-0
230
1
0
CIRCLE
5
105
100
AcDbEntity
8
0
100
AcDbCircle
10
-40
20
22.500000000000004
30
0
40
1.575000000000002
210
0
220
-0
230
1
0
CIRCLE
5
106
100
AcDbEntity
8
0
100
AcDbCircle
10
-49.385711241399534
20
-29.586721368175883
30
0
40
1.575000000000002
210
0
220
-0
230
1
0
CIRCLE
5
107
100
AcDbEntity
8
0
100
AcDbCircle
10
-29.58672136817593
20
-49.385711241398944
30
0
40
1.5749999999999975
210
0
220
-0
230
1
0
CIRCLE
5
108
100
AcDbEntity
8
0
100
AcDbCircle
10
-29.586721368175887
20
49.38571124139952
30
0
40
1.575000000000002
210
0
220
-0
230
1
0
CIRCLE
5
109
100
AcDbEntity
8
0
100
AcDbCircle
10
-49.385711241398951
20
29.586721368175922
30
0
40
1.5749999999999975
210
0
220
-0
230
1
0
CIRCLE
5
110
100
AcDbEntity
8
0
100
AcDbCircle
10
49.38571124139952
20
29.586721368175887
30
0
40
1.575000000000002
210
-0
220
0
230
1
0
CIRCLE
5
111
100
AcDbEntity
8
0
100
AcDbCircle
10
29.586721368175922
20
49.385711241398951
30
0
40
1.5749999999999975
210
-0
220
0
230
1
0
CIRCLE
5
112
100
AcDbEntity
8
0
100
AcDbCircle
10
29.586721368175894
20
-49.38571124139952
30
0
40
1.575000000000002
210
0
220
-0
230
1
0
CIRCLE
5
113
100
AcDbEntity
8
0
100
AcDbCircle
10
49.385711241398951
20
-29.586721368175919
30
0
40
1.5749999999999975
210
0
220
-0
230
1
0
CIRCLE
5
114
100
AcDbEntity
8
0
100
AcDbCircle
10
-12.499999999999943
20
-65.416626016250504
30
0
40
1.5749999999999997
210
0
220
-0
230
1
0
CIRCLE
5
115
100
AcDbEntity
8
0
100
AcDbCircle
10
5.773159728050814e-14
20
-65.416626016250504
30
0
40
1.2
210
0
220
-0
230
1
0
CIRCLE
5
116
100
AcDbEntity
8
0
100
AcDbCircle
10
12.500000000000057
20
-40.416626016250504
30
0
40
1.5749999999999997
210
0
220
-0
230
1
0
CIRCLE
5
117
100
AcDbEntity
8
0
100
AcDbCircle
10
12.500000000000057
20
-65.416626016250504
30
0
40
1.5749999999999997
210
0
220
-0
230
1
0
CIRCLE
5
118
100
AcDbEntity
8
0
100
AcDbCircle
10
5.773159728050814e-14
20
-35.416626016250504
30
0
40
1.2
210
0
220
-0
230
1
0
CIRCLE
5
119
100
AcDbEntity
8
0
100
AcDbCircle
10
-12.499999999999943
20
-40.416626016250504
30
0
40
1.5749999999999997
210
0
220
-0
230
1
0
CIRCLE
5
120
100
AcDbEntity
8
0
100
AcDbCircle
10
-10
20
21.875
30
0
40
1.5749999999999986
210
0
220
-0
230
1
0
CIRCLE
5
121
100
AcDbEntity
8
0
100
AcDbCircle
10
-4.0000000000000018
20
-9.9999999999999964
30
0
40
1.5000000000000009
210
0
220
-0
230
1
0
CIRCLE
5
122
100
AcDbEntity
8
0
100
AcDbCircle
10
-3.9999999999999996
20
9.9999999999999982
30
0
40
1.5000000000000004
210
0
220
-0
230
1
0
CIRCLE
5
123
100
AcDbEntity
8
0
100
AcDbCircle
10
-10
20
41.925000000000011
30
0
40
1.5749999999999986
210
0
220
-0
230
1
0
CIRCLE
5
124
100
AcDbEntity
8
0
100
AcDbCircle
10
10
20
21.875
30
0
40
1.5749999999999975
210
0
220
-0
230
1
0
CIRCLE
5
125
100
AcDbEntity
8
0
100
AcDbCircle
10
3.9999999999999973
20
-9.9999999999999964
30
0
40
1.5000000000000009
210
0
220
-0
230
1
0
CIRCLE
5
126
100
AcDbEntity
8
0
100
AcDbCircle
10
4.0000000000000018
20
9.9999999999999982
30
0
40
1.5000000000000009
210
0
220
-0
230
1
0
CIRCLE
5
127
100
AcDbEntity
8
0
100
AcDbCircle
10
10
20
41.925000000000011
30
0
40
1.5749999999999975
210
0
220
-0
230
1
0
CIRCLE
5
128
100
AcDbEntity
8
0
100
AcDbCircle
10
-34.86527878441229
20
75.322057428652414
30
0
40
1.4999999999999991
210
0
220
-0
230
1
0
CIRCLE
5
129
100
AcDbEntity
8
0
100
AcDbCircle
10
-32.931764036908945
20
-76.187262172999439
30
0
40
1.4999999999999991
210
0
220
-0
230
1
0
CIRCLE
5
130
100
AcDbEntity
8
0
100
AcDbCircle
10
75.322057428652954
20
-34.865278784411096
30
0
40
1.5000000000000036
210
0
220
-0
230
1
0
CIRCLE
5
131
100
AcDbEntity
8
0
100
AcDbCircle
10
-75.322057428653423
20
34.865278784410066
30
0
40
1.5000000000000036
210
0
220
-0
230
1
0
CIRCLE
5
132
100
AcDbEntity
8
0
100
AcDbCircle
10
34.865278784412283
20
75.322057428652414
30
0
40
1.4999999999999991
210
0
220
-0
230
1
0
CIRCLE
5
133
100
AcDbEntity
8
0
100
AcDbCircle
10
32.931764036908945
20
-76.187262172999439
30
0
40
1.4999999999999991
210
0
220
-0
230
1
0
CIRCLE
5
134
100
AcDbEntity
8
0
100
AcDbCircle
10
75.322057428653423
20
34.865278784410066
30
0
40
1.5000000000000036
210
0
220
-0
230
1
0
CIRCLE
5
135
100
AcDbEntity
8
0
100
AcDbCircle
10
-75.322057428652954
20
-34.865278784411096
30
0
40
1.5000000000000036
210
0
220
-0
230
1
0
LWPOLYLINE
5
136
100
AcDbEntity
8
0
100
AcDbPolyline
90
40
70
1
43
0.0
10
-28.97674418604646
20
-84.150747449897452
42
0.51503827291833493
10
-24.999999999999957
20
-81.314205401024509
10
-24.999999999999936
20
-73.41662601625049
42
-0.41421356237309503
10
-21.99999999999994
20
-70.416626016250504
10
22.000000000000057
20
-70.416626016250504
42
-0.41421356237309503
10
25.000000000000053
20
-73.416626016250504
10
25.000000000000064
20
-81.314205401024466
42
0.51503827291833248
10
28.976744186046581
20
-84.150747449897409
42
0.038201983391559002
10
41.442162118054178
20
-78.762600255330057
42
0.50540037051928877
10
42.166555648645684
20
-73.986360802040124
10
30.836179050532731
20
-62.655984203927446
42
-0.41421356237309442
10
30.836179050532671
20
-58.413343516808155
10
58.413343516807608
20
-30.836179050532412
42
-0.41421356237309598
10
62.655984203926906
20
-30.836179050532358
10
73.986360802040309
20
-42.166555648645485
42
0.50540037051927933
10
78.762600255330199
20
-41.442162118053922
42
0.2470286109954169
10
78.762600255330497
20
41.442162118053332
42
0.50540037051930387
10
73.986360802040466
20
42.166555648644739
10
62.655984203928753
20
30.83617905053157
42
-0.41421356237312112
10
58.413343516809277
20
30.836179050531484
10
30.836179050534646
20
58.413343516807544
42
-0.4142135623730705
10
30.836179050534582
20
62.65598420392665
10
42.166555648646565
20
73.986360802039897
42
0.50540037051926012
10
41.442162118054966
20
78.762600255329644
42
0.24702861099542212
10
-41.44216211805383
20
78.762600255330227
42
0.50540037051928166
10
-42.166555648645428
20
73.986360802040338
10
-30.836179050534064
20
62.655984203928753
42
-0.41421356237308926
10
-30.836179050534071
20
58.413343516809498
10
-58.413343516809235
20
30.836179050533939
42
-0.41421356237309809
10
-62.655984203928547
20
30.836179050533943
10
-73.986360802040139
20
42.166555648645712
42
0.5054003705192831
10
-78.762600255330028
20
41.442162118054206
42
0.24702861099542164
10
-78.762600255329886
20
-41.442162118054441
42
0.50540037051929332
10
-73.986360802039911
20
-42.166555648645868
10
-62.655984203929542
20
-30.836179050534398
42
-0.41421356237309931
10
-58.413343516810215
20
-30.836179050534231
10
-30.836179050533914
20
-58.413343516808816
42
-0.4142135623730791
10
-30.836179050533673
20
-62.655984203927986
10
-42.166555648644753
20
-73.986360802040934
42
0.50540037051925712
10
-41.44216211805302
20
-78.762600255330682
42
0.038201983391556074
0
ENDSEC
0
SECTION
2
OBJECTS
0
DICTIONARY
5
C
100
AcDbDictionary
3
ACAD_GROUP
350
D
3
ACAD_MLINESTYLE
350
17
0
DICTIONARY
5
D
100
AcDbDictionary
0
DICTIONARY
5
1A
330
C
100
AcDbDictionary
0
DICTIONARY
5
17
100
AcDbDictionary
0
ENDSEC
0
EOF
