%TF.GenerationSoftware,KiCad,Pcbnew,9.0.5*%
%TF.CreationDate,2025-12-02T20:27:51+08:00*%
%TF.ProjectId,solactivation,736f6c61-6374-4697-9661-74696f6e2e6b,1.0*%
%TF.SameCoordinates,Original*%
%TF.FileFunction,Copper,L2,Bot*%
%TF.FilePolarity,Positive*%
%FSLAX46Y46*%
G04 Gerber Fmt 4.6, Leading zero omitted, Abs format (unit mm)*
G04 Created by KiCad (PCBNEW 9.0.5) date 2025-12-02 20:27:51*
%MOMM*%
%LPD*%
G01*
G04 APERTURE LIST*
G04 Aperture macros list*
%AMRoundRect*
0 Rectangle with rounded corners*
0 $1 Rounding radius*
0 $2 $3 $4 $5 $6 $7 $8 $9 X,Y pos of 4 corners*
0 Add a 4 corners polygon primitive as box body*
4,1,4,$2,$3,$4,$5,$6,$7,$8,$9,$2,$3,0*
0 Add four circle primitives for the rounded corners*
1,1,$1+$1,$2,$3*
1,1,$1+$1,$4,$5*
1,1,$1+$1,$6,$7*
1,1,$1+$1,$8,$9*
0 Add four rect primitives between the rounded corners*
20,1,$1+$1,$2,$3,$4,$5,0*
20,1,$1+$1,$4,$5,$6,$7,0*
20,1,$1+$1,$6,$7,$8,$9,0*
20,1,$1+$1,$8,$9,$2,$3,0*%
G04 Aperture macros list end*
%TA.AperFunction,ComponentPad*%
%ADD10C,3.200000*%
%TD*%
%TA.AperFunction,ComponentPad*%
%ADD11RoundRect,0.250000X-1.350000X-1.350000X1.350000X-1.350000X1.350000X1.350000X-1.350000X1.350000X0*%
%TD*%
%TA.AperFunction,ComponentPad*%
%ADD12RoundRect,0.300000X1.200000X1.200000X-1.200000X1.200000X-1.200000X-1.200000X1.200000X-1.200000X0*%
%TD*%
%TA.AperFunction,ComponentPad*%
%ADD13C,3.000000*%
%TD*%
%TA.AperFunction,ComponentPad*%
%ADD14C,1.700000*%
%TD*%
%TA.AperFunction,ComponentPad*%
%ADD15R,1.700000X1.700000*%
%TD*%
%TA.AperFunction,ComponentPad*%
%ADD16R,2.200000X2.200000*%
%TD*%
%TA.AperFunction,ViaPad*%
%ADD17C,0.600000*%
%TD*%
%TA.AperFunction,ViaPad*%
%ADD18C,1.000000*%
%TD*%
%TA.AperFunction,Conductor*%
%ADD19C,0.600000*%
%TD*%
G04 APERTURE END LIST*
D10*
%TO.P,D37,2,A*%
%TO.N,Net-(D37-A)*%
X152370000Y-107280000D03*
D11*
%TO.P,D37,1,K*%
%TO.N,+24V*%
X137130000Y-107280000D03*
%TD*%
D12*
%TO.P,J5,2,Pin_2*%
%TO.N,+24V*%
X142250000Y-113280000D03*
D13*
%TO.P,J5,1,Pin_1*%
%TO.N,Net-(D37-A)*%
X147250000Y-113280000D03*
%TD*%
D14*
%TO.P,J2,8,Pin_8*%
%TO.N,GND*%
X153655000Y-120225000D03*
%TO.P,J2,7,Pin_7*%
X151115000Y-120225000D03*
%TO.P,J2,6,Pin_6*%
X148575000Y-120225000D03*
%TO.P,J2,5,Pin_5*%
%TO.N,unconnected-(J2-Pin_5-Pad5)*%
X146035000Y-120225000D03*
%TO.P,J2,4,Pin_4*%
%TO.N,+24V*%
X143495000Y-120225000D03*
%TO.P,J2,3,Pin_3*%
X140955000Y-120225000D03*
%TO.P,J2,2,Pin_2*%
X138415000Y-120225000D03*
D15*
%TO.P,J2,1,Pin_1*%
X135875000Y-120225000D03*
%TD*%
D14*
%TO.P,J1,8,Pin_8*%
%TO.N,GND*%
X153645000Y-85285000D03*
%TO.P,J1,7,Pin_7*%
X151105000Y-85285000D03*
%TO.P,J1,6,Pin_6*%
X148565000Y-85285000D03*
%TO.P,J1,5,Pin_5*%
%TO.N,/Sol*%
X146025000Y-85285000D03*
%TO.P,J1,4,Pin_4*%
X143485000Y-85285000D03*
%TO.P,J1,3,Pin_3*%
%TO.N,+12V*%
X140945000Y-85285000D03*
%TO.P,J1,2,Pin_2*%
X138405000Y-85285000D03*
D15*
%TO.P,J1,1,Pin_1*%
X135865000Y-85285000D03*
%TD*%
D16*
%TO.P,Q1,3,S*%
%TO.N,Net-(Q1-S)*%
X145490000Y-95950000D03*
%TO.P,Q1,2,D*%
%TO.N,Net-(D37-A)*%
X145490000Y-98490000D03*
%TO.P,Q1,1,G*%
%TO.N,Net-(Q1-G)*%
X145490000Y-101030000D03*
%TD*%
D17*
%TO.N,GND*%
X131740000Y-120280000D03*
D18*
%TO.N,/Sol*%
X150440000Y-92030000D03*
%TD*%
D19*
%TO.N,/Sol*%
X143485000Y-85285000D02*
X146025000Y-85285000D01*
X146740000Y-92030000D02*
X146025000Y-91315000D01*
X146025000Y-91315000D02*
X146025000Y-85285000D01*
X150440000Y-92030000D02*
X146740000Y-92030000D01*
%TD*%
%TA.AperFunction,Conductor*%
%TO.N,GND*%
G36*
X157444041Y-82960764D02*
G01*
X157466989Y-82962268D01*
X157698114Y-82977416D01*
X157714172Y-82979531D01*
X157959888Y-83028407D01*
X157975554Y-83032605D01*
X158126736Y-83083924D01*
X158212788Y-83113135D01*
X158227765Y-83119338D01*
X158445336Y-83226632D01*
X158452460Y-83230145D01*
X158466507Y-83238255D01*
X158507649Y-83265745D01*
X158674812Y-83377440D01*
X158687679Y-83387313D01*
X158876034Y-83552496D01*
X158887503Y-83563965D01*
X159052686Y-83752319D01*
X159062560Y-83765187D01*
X159201746Y-83973494D01*
X159209855Y-83987539D01*
X159320536Y-84211980D01*
X159320657Y-84212224D01*
X159326864Y-84227210D01*
X159407394Y-84464444D01*
X159411592Y-84480110D01*
X159460466Y-84725813D01*
X159462584Y-84741895D01*
X159467923Y-84823349D01*
X159477453Y-84968760D01*
X159479235Y-84995940D01*
X159479500Y-85004050D01*
X159479500Y-120555931D01*
X159479235Y-120564041D01*
X159462583Y-120818103D01*
X159460465Y-120834184D01*
X159411591Y-121079889D01*
X159407393Y-121095556D01*
X159326866Y-121332782D01*
X159320659Y-121347768D01*
X159209851Y-121572463D01*
X159201741Y-121586510D01*
X159062562Y-121794807D01*
X159052688Y-121807675D01*
X158887503Y-121996033D01*
X158876034Y-122007502D01*
X158687679Y-122172685D01*
X158674811Y-122182559D01*
X158466507Y-122321743D01*
X158452460Y-122329853D01*
X158227772Y-122440657D01*
X158212786Y-122446864D01*
X157975554Y-122527393D01*
X157959888Y-122531591D01*
X157714186Y-122580465D01*
X157698104Y-122582583D01*
X157444057Y-122599234D01*
X157435947Y-122599499D01*
X132044068Y-122599499D01*
X132035958Y-122599234D01*
X131781896Y-122582582D01*
X131765815Y-122580464D01*
X131732043Y-122573746D01*
X131520111Y-122531590D01*
X131504445Y-122527392D01*
X131267214Y-122446863D01*
X131252228Y-122440656D01*
X131027540Y-122329852D01*
X131013493Y-122321742D01*
X130846331Y-122210048D01*
X130805187Y-122182557D01*
X130792321Y-122172684D01*
X130603966Y-122007501D01*
X130592497Y-121996032D01*
X130427312Y-121807675D01*
X130417438Y-121794807D01*
X130278255Y-121586504D01*
X130270149Y-121572463D01*
X130159341Y-121347768D01*
X130153134Y-121332782D01*
X130072605Y-121095550D01*
X130068409Y-121079889D01*
X130059737Y-121036290D01*
X130019533Y-120834173D01*
X130017418Y-120818115D01*
X130000764Y-120564023D01*
X130000500Y-120555918D01*
X130000500Y-119327135D01*
X134524500Y-119327135D01*
X134524500Y-121122870D01*
X134524501Y-121122876D01*
X134530908Y-121182483D01*
X134581202Y-121317328D01*
X134581206Y-121317335D01*
X134667452Y-121432544D01*
X134667455Y-121432547D01*
X134782664Y-121518793D01*
X134782671Y-121518797D01*
X134917517Y-121569091D01*
X134917516Y-121569091D01*
X134924444Y-121569835D01*
X134977127Y-121575500D01*
X136772872Y-121575499D01*
X136832483Y-121569091D01*
X136967331Y-121518796D01*
X137082546Y-121432546D01*
X137168796Y-121317331D01*
X137217810Y-121185916D01*
X137259681Y-121129984D01*
X137325145Y-121105566D01*
X137393418Y-121120417D01*
X137421673Y-121141569D01*
X137535213Y-121255109D01*
X137707179Y-121380048D01*
X137707181Y-121380049D01*
X137707184Y-121380051D01*
X137896588Y-121476557D01*
X138098757Y-121542246D01*
X138308713Y-121575500D01*
X138308714Y-121575500D01*
X138521286Y-121575500D01*
X138521287Y-121575500D01*
X138731243Y-121542246D01*
X138933412Y-121476557D01*
X139122816Y-121380051D01*
X139167250Y-121347768D01*
X139294786Y-121255109D01*
X139294788Y-121255106D01*
X139294792Y-121255104D01*
X139445104Y-121104792D01*
X139445106Y-121104788D01*
X139445109Y-121104786D01*
X139570048Y-120932820D01*
X139570047Y-120932820D01*
X139570051Y-120932816D01*
X139574514Y-120924054D01*
X139622488Y-120873259D01*
X139690308Y-120856463D01*
X139756444Y-120878999D01*
X139795486Y-120924056D01*
X139799951Y-120932820D01*
X139924890Y-121104786D01*
X140075213Y-121255109D01*
X140247179Y-121380048D01*
X140247181Y-121380049D01*
X140247184Y-121380051D01*
X140436588Y-121476557D01*
X140638757Y-121542246D01*
X140848713Y-121575500D01*
X140848714Y-121575500D01*
X141061286Y-121575500D01*
X141061287Y-121575500D01*
X141271243Y-121542246D01*
X141473412Y-121476557D01*
X141662816Y-121380051D01*
X141707250Y-121347768D01*
X141834786Y-121255109D01*
X141834788Y-121255106D01*
X141834792Y-121255104D01*
X141985104Y-121104792D01*
X141985106Y-121104788D01*
X141985109Y-121104786D01*
X142110048Y-120932820D01*
X142110047Y-120932820D01*
X142110051Y-120932816D01*
X142114514Y-120924054D01*
X142162488Y-120873259D01*
X142230308Y-120856463D01*
X142296444Y-120878999D01*
X142335486Y-120924056D01*
X142339951Y-120932820D01*
X142464890Y-121104786D01*
X142615213Y-121255109D01*
X142787179Y-121380048D01*
X142787181Y-121380049D01*
X142787184Y-121380051D01*
X142976588Y-121476557D01*
X143178757Y-121542246D01*
X143388713Y-121575500D01*
X143388714Y-121575500D01*
X143601286Y-121575500D01*
X143601287Y-121575500D01*
X143811243Y-121542246D01*
X144013412Y-121476557D01*
X144202816Y-121380051D01*
X144247250Y-121347768D01*
X144374786Y-121255109D01*
X144374788Y-121255106D01*
X144374792Y-121255104D01*
X144525104Y-121104792D01*
X144525106Y-121104788D01*
X144525109Y-121104786D01*
X144650048Y-120932820D01*
X144650047Y-120932820D01*
X144650051Y-120932816D01*
X144654514Y-120924054D01*
X144702488Y-120873259D01*
X144770308Y-120856463D01*
X144836444Y-120878999D01*
X144875486Y-120924056D01*
X144879951Y-120932820D01*
X145004890Y-121104786D01*
X145155213Y-121255109D01*
X145327179Y-121380048D01*
X145327181Y-121380049D01*
X145327184Y-121380051D01*
X145516588Y-121476557D01*
X145718757Y-121542246D01*
X145928713Y-121575500D01*
X145928714Y-121575500D01*
X146141286Y-121575500D01*
X146141287Y-121575500D01*
X146351243Y-121542246D01*
X146553412Y-121476557D01*
X146742816Y-121380051D01*
X146787250Y-121347768D01*
X146914786Y-121255109D01*
X146914788Y-121255106D01*
X146914792Y-121255104D01*
X147065104Y-121104792D01*
X147065106Y-121104788D01*
X147065109Y-121104786D01*
X147190048Y-120932820D01*
X147190047Y-120932820D01*
X147190051Y-120932816D01*
X147286557Y-120743412D01*
X147352246Y-120541243D01*
X147385500Y-120331287D01*
X147385500Y-120118713D01*
X147352246Y-119908757D01*
X147286557Y-119706588D01*
X147190051Y-119517184D01*
X147190049Y-119517181D01*
X147190048Y-119517179D01*
X147065109Y-119345213D01*
X146914786Y-119194890D01*
X146742820Y-119069951D01*
X146553414Y-118973444D01*
X146553413Y-118973443D01*
X146553412Y-118973443D01*
X146351243Y-118907754D01*
X146351241Y-118907753D01*
X146351240Y-118907753D01*
X146189957Y-118882208D01*
X146141287Y-118874500D01*
X145928713Y-118874500D01*
X145880042Y-118882208D01*
X145718760Y-118907753D01*
X145516585Y-118973444D01*
X145327179Y-119069951D01*
X145155213Y-119194890D01*
X145004890Y-119345213D01*
X144879949Y-119517182D01*
X144875484Y-119525946D01*
X144827509Y-119576742D01*
X144759688Y-119593536D01*
X144693553Y-119570998D01*
X144654516Y-119525946D01*
X144650050Y-119517182D01*
X144525109Y-119345213D01*
X144374786Y-119194890D01*
X144202820Y-119069951D01*
X144013414Y-118973444D01*
X144013413Y-118973443D01*
X144013412Y-118973443D01*
X143811243Y-118907754D01*
X143811241Y-118907753D01*
X143811240Y-118907753D01*
X143649957Y-118882208D01*
X143601287Y-118874500D01*
X143388713Y-118874500D01*
X143340042Y-118882208D01*
X143178760Y-118907753D01*
X142976585Y-118973444D01*
X142787179Y-119069951D01*
X142615213Y-119194890D01*
X142464890Y-119345213D01*
X142339949Y-119517182D01*
X142335484Y-119525946D01*
X142287509Y-119576742D01*
X142219688Y-119593536D01*
X142153553Y-119570998D01*
X142114516Y-119525946D01*
X142110050Y-119517182D01*
X141985109Y-119345213D01*
X141834786Y-119194890D01*
X141662820Y-119069951D01*
X141473414Y-118973444D01*
X141473413Y-118973443D01*
X141473412Y-118973443D01*
X141271243Y-118907754D01*
X141271241Y-118907753D01*
X141271240Y-118907753D01*
X141109957Y-118882208D01*
X141061287Y-118874500D01*
X140848713Y-118874500D01*
X140800042Y-118882208D01*
X140638760Y-118907753D01*
X140436585Y-118973444D01*
X140247179Y-119069951D01*
X140075213Y-119194890D01*
X139924890Y-119345213D01*
X139799949Y-119517182D01*
X139795484Y-119525946D01*
X139747509Y-119576742D01*
X139679688Y-119593536D01*
X139613553Y-119570998D01*
X139574516Y-119525946D01*
X139570050Y-119517182D01*
X139445109Y-119345213D01*
X139294786Y-119194890D01*
X139122820Y-119069951D01*
X138933414Y-118973444D01*
X138933413Y-118973443D01*
X138933412Y-118973443D01*
X138731243Y-118907754D01*
X138731241Y-118907753D01*
X138731240Y-118907753D01*
X138569957Y-118882208D01*
X138521287Y-118874500D01*
X138308713Y-118874500D01*
X138260042Y-118882208D01*
X138098760Y-118907753D01*
X137896585Y-118973444D01*
X137707179Y-119069951D01*
X137535215Y-119194889D01*
X137421673Y-119308431D01*
X137360350Y-119341915D01*
X137290658Y-119336931D01*
X137234725Y-119295059D01*
X137217810Y-119264082D01*
X137168797Y-119132671D01*
X137168793Y-119132664D01*
X137082547Y-119017455D01*
X137082544Y-119017452D01*
X136967335Y-118931206D01*
X136967328Y-118931202D01*
X136832482Y-118880908D01*
X136832483Y-118880908D01*
X136772883Y-118874501D01*
X136772881Y-118874500D01*
X136772873Y-118874500D01*
X136772864Y-118874500D01*
X134977129Y-118874500D01*
X134977123Y-118874501D01*
X134917516Y-118880908D01*
X134782671Y-118931202D01*
X134782664Y-118931206D01*
X134667455Y-119017452D01*
X134667452Y-119017455D01*
X134581206Y-119132664D01*
X134581202Y-119132671D01*
X134530908Y-119267517D01*
X134524501Y-119327116D01*
X134524500Y-119327135D01*
X130000500Y-119327135D01*
X130000500Y-112035039D01*
X140249500Y-112035039D01*
X140249500Y-114524960D01*
X140264630Y-114659249D01*
X140264631Y-114659254D01*
X140324211Y-114829523D01*
X140392433Y-114938097D01*
X140420184Y-114982262D01*
X140547738Y-115109816D01*
X140700478Y-115205789D01*
X140870745Y-115265368D01*
X140870750Y-115265369D01*
X140961246Y-115275565D01*
X141005040Y-115280499D01*
X141005043Y-115280500D01*
X141005046Y-115280500D01*
X143494957Y-115280500D01*
X143494958Y-115280499D01*
X143562104Y-115272934D01*
X143629249Y-115265369D01*
X143629252Y-115265368D01*
X143629255Y-115265368D01*
X143799522Y-115205789D01*
X143952262Y-115109816D01*
X144079816Y-114982262D01*
X144086111Y-114972242D01*
X144138442Y-114925953D01*
X144207495Y-114915302D01*
X144271345Y-114943675D01*
X144306288Y-114993431D01*
X144306391Y-114993385D01*
X144306643Y-114993938D01*
X144307266Y-114994824D01*
X144308233Y-114997414D01*
X144341742Y-115058721D01*
X144341748Y-115058731D01*
X144428010Y-115173864D01*
X144428016Y-115173872D01*
X144519586Y-115265368D01*
X144605588Y-115351301D01*
X144645784Y-115387386D01*
X144666391Y-115403985D01*
X144710197Y-115435567D01*
X144710202Y-115435569D01*
X144710203Y-115435570D01*
X144841067Y-115495335D01*
X144841074Y-115495338D01*
X144908113Y-115515023D01*
X144908117Y-115515024D01*
X145050533Y-115535500D01*
X145050536Y-115535500D01*
X154188640Y-115535500D01*
X154198786Y-115534955D01*
X154242678Y-115532603D01*
X154242686Y-115532602D01*
X154242688Y-115532602D01*
X154242689Y-115532602D01*
X154249682Y-115531849D01*
X154269036Y-115529769D01*
X154269046Y-115529767D01*
X154269049Y-115529767D01*
X154278648Y-115528211D01*
X154322448Y-115521114D01*
X154457257Y-115470832D01*
X154518580Y-115437347D01*
X154633761Y-115351123D01*
X154811123Y-115173761D01*
X154847288Y-115133500D01*
X154863922Y-115112858D01*
X154895567Y-115068974D01*
X154955338Y-114938097D01*
X154975023Y-114871058D01*
X154975024Y-114871054D01*
X154995500Y-114728638D01*
X154995500Y-97581362D01*
X154992603Y-97527322D01*
X154989769Y-97500964D01*
X154981114Y-97447552D01*
X154930832Y-97312743D01*
X154897347Y-97251420D01*
X154811123Y-97136239D01*
X154811118Y-97136234D01*
X154811113Y-97136228D01*
X154633776Y-96958892D01*
X154633761Y-96958877D01*
X154633737Y-96958855D01*
X154593519Y-96922728D01*
X154593507Y-96922718D01*
X154572856Y-96906076D01*
X154528974Y-96874433D01*
X154398100Y-96814663D01*
X154331055Y-96794976D01*
X154283582Y-96788150D01*
X154188638Y-96774500D01*
X147214499Y-96774500D01*
X147147460Y-96754815D01*
X147101705Y-96702011D01*
X147090499Y-96650500D01*
X147090499Y-94802129D01*
X147090498Y-94802123D01*
X147090497Y-94802116D01*
X147084091Y-94742517D01*
X147033796Y-94607669D01*
X147033795Y-94607668D01*
X147033793Y-94607664D01*
X146947547Y-94492455D01*
X146947544Y-94492452D01*
X146832335Y-94406206D01*
X146832328Y-94406202D01*
X146697482Y-94355908D01*
X146697483Y-94355908D01*
X146637883Y-94349501D01*
X146637881Y-94349500D01*
X146637873Y-94349500D01*
X146637864Y-94349500D01*
X144342129Y-94349500D01*
X144342123Y-94349501D01*
X144282516Y-94355908D01*
X144147671Y-94406202D01*
X144147664Y-94406206D01*
X144032455Y-94492452D01*
X144032452Y-94492455D01*
X143946206Y-94607664D01*
X143946202Y-94607671D01*
X143895908Y-94742517D01*
X143889501Y-94802116D01*
X143889501Y-94802123D01*
X143889500Y-94802135D01*
X143889500Y-97097870D01*
X143889501Y-97097876D01*
X143895908Y-97157483D01*
X143897768Y-97162468D01*
X143902750Y-97232159D01*
X143875299Y-97286999D01*
X143834437Y-97334157D01*
X143834432Y-97334164D01*
X143774663Y-97465036D01*
X143756374Y-97527322D01*
X143754977Y-97532079D01*
X143754976Y-97532083D01*
X143734500Y-97674499D01*
X143734500Y-99305500D01*
X143734501Y-99305509D01*
X143746052Y-99412950D01*
X143746054Y-99412962D01*
X143757260Y-99464472D01*
X143791383Y-99566997D01*
X143791386Y-99567003D01*
X143869174Y-99688042D01*
X143869179Y-99688048D01*
X143874750Y-99694478D01*
X143903773Y-99758035D01*
X143897653Y-99814955D01*
X143897693Y-99814965D01*
X143897619Y-99815275D01*
X143897219Y-99819002D01*
X143895909Y-99822513D01*
X143895908Y-99822516D01*
X143889501Y-99882116D01*
X143889500Y-99882135D01*
X143889500Y-102177870D01*
X143889501Y-102177876D01*
X143895908Y-102237483D01*
X143946202Y-102372328D01*
X143946206Y-102372335D01*
X144032452Y-102487544D01*
X144032454Y-102487546D01*
X144147669Y-102573796D01*
X144160557Y-102578602D01*
X144216491Y-102620471D01*
X144240910Y-102685935D01*
X144239978Y-102712333D01*
X144233878Y-102754997D01*
X144233878Y-102755000D01*
X144240826Y-111439287D01*
X144221195Y-111506342D01*
X144168428Y-111552139D01*
X144099277Y-111562138D01*
X144035698Y-111533164D01*
X144029145Y-111527067D01*
X143952262Y-111450184D01*
X143799523Y-111354211D01*
X143629254Y-111294631D01*
X143629249Y-111294630D01*
X143494960Y-111279500D01*
X143494954Y-111279500D01*
X141005046Y-111279500D01*
X141005039Y-111279500D01*
X140870750Y-111294630D01*
X140870745Y-111294631D01*
X140700476Y-111354211D01*
X140547737Y-111450184D01*
X140420184Y-111577737D01*
X140324211Y-111730476D01*
X140264631Y-111900745D01*
X140264630Y-111900750D01*
X140249500Y-112035039D01*
X130000500Y-112035039D01*
X130000500Y-105879983D01*
X135029500Y-105879983D01*
X135029500Y-108680001D01*
X135029501Y-108680018D01*
X135040000Y-108782796D01*
X135040001Y-108782799D01*
X135095185Y-108949331D01*
X135095186Y-108949334D01*
X135187288Y-109098656D01*
X135311344Y-109222712D01*
X135460666Y-109314814D01*
X135627203Y-109369999D01*
X135729991Y-109380500D01*
X138530008Y-109380499D01*
X138632797Y-109369999D01*
X138799334Y-109314814D01*
X138948656Y-109222712D01*
X139072712Y-109098656D01*
X139164814Y-108949334D01*
X139219999Y-108782797D01*
X139230500Y-108680009D01*
X139230499Y-105879992D01*
X139219999Y-105777203D01*
X139164814Y-105610666D01*
X139072712Y-105461344D01*
X138948656Y-105337288D01*
X138799334Y-105245186D01*
X138632797Y-105190001D01*
X138632795Y-105190000D01*
X138530010Y-105179500D01*
X135729998Y-105179500D01*
X135729981Y-105179501D01*
X135627203Y-105190000D01*
X135627200Y-105190001D01*
X135460668Y-105245185D01*
X135460663Y-105245187D01*
X135311342Y-105337289D01*
X135187289Y-105461342D01*
X135095187Y-105610663D01*
X135095186Y-105610666D01*
X135040001Y-105777203D01*
X135040001Y-105777204D01*
X135040000Y-105777204D01*
X135029500Y-105879983D01*
X130000500Y-105879983D01*
X130000500Y-85004066D01*
X130000765Y-84995957D01*
X130000974Y-84992759D01*
X130017417Y-84741883D01*
X130019531Y-84725829D01*
X130068409Y-84480105D01*
X130072606Y-84464443D01*
X130092714Y-84405208D01*
X130098849Y-84387135D01*
X134514500Y-84387135D01*
X134514500Y-86182870D01*
X134514501Y-86182876D01*
X134520908Y-86242483D01*
X134571202Y-86377328D01*
X134571206Y-86377335D01*
X134657452Y-86492544D01*
X134657455Y-86492547D01*
X134772664Y-86578793D01*
X134772671Y-86578797D01*
X134907517Y-86629091D01*
X134907516Y-86629091D01*
X134914444Y-86629835D01*
X134967127Y-86635500D01*
X136762872Y-86635499D01*
X136822483Y-86629091D01*
X136957331Y-86578796D01*
X137072546Y-86492546D01*
X137158796Y-86377331D01*
X137207810Y-86245916D01*
X137249681Y-86189984D01*
X137315145Y-86165566D01*
X137383418Y-86180417D01*
X137411673Y-86201569D01*
X137525213Y-86315109D01*
X137697179Y-86440048D01*
X137697181Y-86440049D01*
X137697184Y-86440051D01*
X137886588Y-86536557D01*
X138088757Y-86602246D01*
X138298713Y-86635500D01*
X138298714Y-86635500D01*
X138511286Y-86635500D01*
X138511287Y-86635500D01*
X138721243Y-86602246D01*
X138923412Y-86536557D01*
X139112816Y-86440051D01*
X139199138Y-86377335D01*
X139284786Y-86315109D01*
X139284788Y-86315106D01*
X139284792Y-86315104D01*
X139435104Y-86164792D01*
X139435106Y-86164788D01*
X139435109Y-86164786D01*
X139560048Y-85992820D01*
X139560047Y-85992820D01*
X139560051Y-85992816D01*
X139564514Y-85984054D01*
X139612488Y-85933259D01*
X139680308Y-85916463D01*
X139746444Y-85938999D01*
X139785486Y-85984056D01*
X139789951Y-85992820D01*
X139914890Y-86164786D01*
X140065213Y-86315109D01*
X140237179Y-86440048D01*
X140237181Y-86440049D01*
X140237184Y-86440051D01*
X140426588Y-86536557D01*
X140628757Y-86602246D01*
X140838713Y-86635500D01*
X140838714Y-86635500D01*
X141051286Y-86635500D01*
X141051287Y-86635500D01*
X141261243Y-86602246D01*
X141463412Y-86536557D01*
X141652816Y-86440051D01*
X141739138Y-86377335D01*
X141824786Y-86315109D01*
X141824788Y-86315106D01*
X141824792Y-86315104D01*
X141975104Y-86164792D01*
X141975106Y-86164788D01*
X141975109Y-86164786D01*
X142100048Y-85992820D01*
X142100047Y-85992820D01*
X142100051Y-85992816D01*
X142104514Y-85984054D01*
X142152488Y-85933259D01*
X142220308Y-85916463D01*
X142286444Y-85938999D01*
X142325486Y-85984056D01*
X142329951Y-85992820D01*
X142454890Y-86164786D01*
X142605213Y-86315109D01*
X142777179Y-86440048D01*
X142777181Y-86440049D01*
X142777184Y-86440051D01*
X142966588Y-86536557D01*
X143168757Y-86602246D01*
X143378713Y-86635500D01*
X143378714Y-86635500D01*
X143591286Y-86635500D01*
X143591287Y-86635500D01*
X143801243Y-86602246D01*
X144003412Y-86536557D01*
X144034190Y-86520874D01*
X144049339Y-86514386D01*
X144713869Y-86280738D01*
X144737996Y-86279471D01*
X144761504Y-86273890D01*
X144778864Y-86277324D01*
X144783642Y-86277073D01*
X144796128Y-86280739D01*
X144912496Y-86321654D01*
X144969210Y-86362459D01*
X144988345Y-86397503D01*
X145217480Y-87049199D01*
X145224500Y-87090329D01*
X145224500Y-91393846D01*
X145255261Y-91548489D01*
X145255264Y-91548501D01*
X145315602Y-91694172D01*
X145315609Y-91694185D01*
X145403210Y-91825288D01*
X145403213Y-91825292D01*
X146229707Y-92651786D01*
X146229711Y-92651789D01*
X146360814Y-92739390D01*
X146360818Y-92739392D01*
X146360821Y-92739394D01*
X146506503Y-92799738D01*
X146661153Y-92830499D01*
X146661157Y-92830500D01*
X146661158Y-92830500D01*
X149359789Y-92830500D01*
X149385650Y-92833227D01*
X150225452Y-93012308D01*
X150228216Y-93012889D01*
X150228351Y-93012917D01*
X150228374Y-93012920D01*
X150228377Y-93012921D01*
X150284973Y-93021350D01*
X150284976Y-93021350D01*
X150284982Y-93021351D01*
X150284987Y-93021350D01*
X150289607Y-93021573D01*
X150307836Y-93023811D01*
X150341459Y-93030500D01*
X150538543Y-93030500D01*
X150668582Y-93004632D01*
X150731835Y-92992051D01*
X150913914Y-92916632D01*
X151077782Y-92807139D01*
X151217139Y-92667782D01*
X151326632Y-92503914D01*
X151402051Y-92321835D01*
X151440500Y-92128541D01*
X151440500Y-91931459D01*
X151440500Y-91931456D01*
X151402052Y-91738170D01*
X151402051Y-91738169D01*
X151402051Y-91738165D01*
X151383829Y-91694172D01*
X151326635Y-91556092D01*
X151326628Y-91556079D01*
X151217139Y-91392218D01*
X151217136Y-91392214D01*
X151077785Y-91252863D01*
X151077781Y-91252860D01*
X150913920Y-91143371D01*
X150913907Y-91143364D01*
X150731839Y-91067950D01*
X150731829Y-91067947D01*
X150538543Y-91029500D01*
X150538541Y-91029500D01*
X150341459Y-91029500D01*
X150341454Y-91029500D01*
X150270449Y-91043624D01*
X150254596Y-91045726D01*
X150225457Y-91047689D01*
X150225456Y-91047689D01*
X149385645Y-91226773D01*
X149359784Y-91229500D01*
X147122940Y-91229500D01*
X147093499Y-91220855D01*
X147063513Y-91214332D01*
X147058497Y-91210577D01*
X147055901Y-91209815D01*
X147035259Y-91193181D01*
X146861819Y-91019741D01*
X146828334Y-90958418D01*
X146825500Y-90932060D01*
X146825500Y-87090328D01*
X146832520Y-87049198D01*
X146977975Y-86635499D01*
X147254386Y-85849339D01*
X147260874Y-85834190D01*
X147276557Y-85803412D01*
X147342246Y-85601243D01*
X147350172Y-85551194D01*
X147358069Y-85507584D01*
X147357823Y-85502894D01*
X147375500Y-85391287D01*
X147375500Y-85178713D01*
X147342246Y-84968757D01*
X147276557Y-84766588D01*
X147180051Y-84577184D01*
X147180049Y-84577181D01*
X147180048Y-84577179D01*
X147055109Y-84405213D01*
X146904786Y-84254890D01*
X146732820Y-84129951D01*
X146543414Y-84033444D01*
X146543413Y-84033443D01*
X146543412Y-84033443D01*
X146341243Y-83967754D01*
X146341241Y-83967753D01*
X146341240Y-83967753D01*
X146179957Y-83942208D01*
X146131287Y-83934500D01*
X145918713Y-83934500D01*
X145879202Y-83940757D01*
X145708759Y-83967753D01*
X145506590Y-84033441D01*
X145475818Y-84049120D01*
X145460657Y-84055613D01*
X144796128Y-84289258D01*
X144726354Y-84292924D01*
X144713868Y-84289258D01*
X144049343Y-84055614D01*
X144034179Y-84049119D01*
X144003419Y-84033446D01*
X144003413Y-84033443D01*
X144003412Y-84033443D01*
X143873421Y-83991206D01*
X143801240Y-83967753D01*
X143752556Y-83960041D01*
X143752556Y-83960042D01*
X143751218Y-83959830D01*
X143707584Y-83951930D01*
X143702889Y-83952176D01*
X143691414Y-83950358D01*
X143691412Y-83950357D01*
X143591292Y-83934500D01*
X143591287Y-83934500D01*
X143378713Y-83934500D01*
X143330042Y-83942208D01*
X143168760Y-83967753D01*
X142966585Y-84033444D01*
X142777179Y-84129951D01*
X142605213Y-84254890D01*
X142454890Y-84405213D01*
X142329949Y-84577182D01*
X142325484Y-84585946D01*
X142277509Y-84636742D01*
X142209688Y-84653536D01*
X142143553Y-84630998D01*
X142104516Y-84585946D01*
X142100050Y-84577182D01*
X141975109Y-84405213D01*
X141824786Y-84254890D01*
X141652820Y-84129951D01*
X141463414Y-84033444D01*
X141463413Y-84033443D01*
X141463412Y-84033443D01*
X141261243Y-83967754D01*
X141261241Y-83967753D01*
X141261240Y-83967753D01*
X141099957Y-83942208D01*
X141051287Y-83934500D01*
X140838713Y-83934500D01*
X140790042Y-83942208D01*
X140628760Y-83967753D01*
X140426585Y-84033444D01*
X140237179Y-84129951D01*
X140065213Y-84254890D01*
X139914890Y-84405213D01*
X139789949Y-84577182D01*
X139785484Y-84585946D01*
X139737509Y-84636742D01*
X139669688Y-84653536D01*
X139603553Y-84630998D01*
X139564516Y-84585946D01*
X139560050Y-84577182D01*
X139435109Y-84405213D01*
X139284786Y-84254890D01*
X139112820Y-84129951D01*
X138923414Y-84033444D01*
X138923413Y-84033443D01*
X138923412Y-84033443D01*
X138721243Y-83967754D01*
X138721241Y-83967753D01*
X138721240Y-83967753D01*
X138559957Y-83942208D01*
X138511287Y-83934500D01*
X138298713Y-83934500D01*
X138250042Y-83942208D01*
X138088760Y-83967753D01*
X137886585Y-84033444D01*
X137697179Y-84129951D01*
X137525215Y-84254889D01*
X137411673Y-84368431D01*
X137350350Y-84401915D01*
X137280658Y-84396931D01*
X137224725Y-84355059D01*
X137207810Y-84324082D01*
X137158797Y-84192671D01*
X137158793Y-84192664D01*
X137072547Y-84077455D01*
X137072544Y-84077452D01*
X136957335Y-83991206D01*
X136957328Y-83991202D01*
X136822482Y-83940908D01*
X136822483Y-83940908D01*
X136762883Y-83934501D01*
X136762881Y-83934500D01*
X136762873Y-83934500D01*
X136762864Y-83934500D01*
X134967129Y-83934500D01*
X134967123Y-83934501D01*
X134907516Y-83940908D01*
X134772671Y-83991202D01*
X134772664Y-83991206D01*
X134657455Y-84077452D01*
X134657452Y-84077455D01*
X134571206Y-84192664D01*
X134571202Y-84192671D01*
X134520908Y-84327517D01*
X134514501Y-84387116D01*
X134514500Y-84387135D01*
X130098849Y-84387135D01*
X130153137Y-84227205D01*
X130159336Y-84212239D01*
X130270149Y-83987533D01*
X130278255Y-83973494D01*
X130417448Y-83765176D01*
X130427305Y-83752330D01*
X130592502Y-83563959D01*
X130603960Y-83552501D01*
X130792330Y-83387305D01*
X130805176Y-83377448D01*
X131013498Y-83238252D01*
X131027533Y-83230149D01*
X131252238Y-83119337D01*
X131267209Y-83113136D01*
X131504452Y-83032603D01*
X131520099Y-83028410D01*
X131765828Y-82979532D01*
X131781882Y-82977417D01*
X132035976Y-82960763D01*
X132044080Y-82960499D01*
X132105893Y-82960499D01*
X157374107Y-82960499D01*
X157435932Y-82960499D01*
X157444041Y-82960764D01*
G37*
%TD.AperFunction*%
%TD*%
%TA.AperFunction,Conductor*%
%TO.N,Net-(D37-A)*%
G36*
X154255677Y-97299685D02*
G01*
X154276319Y-97316319D01*
X154453681Y-97493681D01*
X154487166Y-97555004D01*
X154490000Y-97581362D01*
X154490000Y-114728638D01*
X154470315Y-114795677D01*
X154453681Y-114816319D01*
X154276319Y-114993681D01*
X154214996Y-115027166D01*
X154188638Y-115030000D01*
X145050533Y-115030000D01*
X144983494Y-115010315D01*
X144962887Y-114993716D01*
X144785312Y-114816283D01*
X144751802Y-114754974D01*
X144748958Y-114728674D01*
X144739379Y-102754595D01*
X144759010Y-102687543D01*
X144811777Y-102641746D01*
X144863375Y-102630499D01*
X146637872Y-102630499D01*
X146697483Y-102624091D01*
X146832331Y-102573796D01*
X146947546Y-102487546D01*
X147033796Y-102372331D01*
X147084091Y-102237483D01*
X147090500Y-102177873D01*
X147090499Y-99882128D01*
X147084091Y-99822517D01*
X147033796Y-99687669D01*
X147033795Y-99687668D01*
X147033793Y-99687664D01*
X146947547Y-99572455D01*
X146947544Y-99572452D01*
X146832335Y-99486206D01*
X146832328Y-99486202D01*
X146697482Y-99435908D01*
X146697483Y-99435908D01*
X146637883Y-99429501D01*
X146637881Y-99429500D01*
X146637873Y-99429500D01*
X146637865Y-99429500D01*
X144364000Y-99429500D01*
X144296961Y-99409815D01*
X144251206Y-99357011D01*
X144240000Y-99305500D01*
X144240000Y-97674499D01*
X144259685Y-97607460D01*
X144312489Y-97561705D01*
X144363995Y-97550499D01*
X146637872Y-97550499D01*
X146697483Y-97544091D01*
X146832331Y-97493796D01*
X146947546Y-97407546D01*
X147005831Y-97329688D01*
X147061765Y-97287818D01*
X147105097Y-97280000D01*
X154188638Y-97280000D01*
X154255677Y-97299685D01*
G37*
%TD.AperFunction*%
%TD*%
%TA.AperFunction,Conductor*%
%TO.N,/Sol*%
G36*
X145855404Y-84456290D02*
G01*
X145861381Y-84462958D01*
X145861816Y-84464543D01*
X146025540Y-85282704D01*
X146025540Y-85287296D01*
X145861816Y-86105456D01*
X145856832Y-86112896D01*
X145848047Y-86114633D01*
X145846462Y-86114198D01*
X145821598Y-86105456D01*
X144349152Y-85587749D01*
X144342484Y-85581772D01*
X144341333Y-85576711D01*
X144341333Y-84993288D01*
X144344760Y-84985015D01*
X144349148Y-84982251D01*
X145846464Y-84455801D01*
X145855404Y-84456290D01*
G37*
%TD.AperFunction*%
%TD*%
%TA.AperFunction,Conductor*%
%TO.N,/Sol*%
G36*
X143663526Y-84455798D02*
G01*
X145160849Y-84982251D01*
X145167516Y-84988227D01*
X145168667Y-84993288D01*
X145168667Y-85576711D01*
X145165240Y-85584984D01*
X145160848Y-85587749D01*
X143663537Y-86114198D01*
X143654595Y-86113709D01*
X143648618Y-86107041D01*
X143648183Y-86105456D01*
X143484459Y-85287293D01*
X143484459Y-85282704D01*
X143542375Y-84993288D01*
X143648183Y-84464541D01*
X143653167Y-84457103D01*
X143661952Y-84455366D01*
X143663526Y-84455798D01*
G37*
%TD.AperFunction*%
%TD*%
%TA.AperFunction,Conductor*%
%TO.N,/Sol*%
G36*
X146845456Y-85448183D02*
G01*
X146852896Y-85453167D01*
X146854633Y-85461952D01*
X146854198Y-85463537D01*
X146327749Y-86960848D01*
X146321772Y-86967516D01*
X146316711Y-86968667D01*
X145733289Y-86968667D01*
X145725016Y-86965240D01*
X145722251Y-86960848D01*
X145646924Y-86746605D01*
X145195801Y-85463535D01*
X145196290Y-85454595D01*
X145202958Y-85448618D01*
X145204536Y-85448184D01*
X146022706Y-85284459D01*
X146027294Y-85284459D01*
X146845456Y-85448183D01*
G37*
%TD.AperFunction*%
%TD*%
%TA.AperFunction,Conductor*%
%TO.N,/Sol*%
G36*
X150339682Y-91543702D02*
G01*
X150344759Y-91551079D01*
X150344787Y-91551214D01*
X150440536Y-92027695D01*
X150440536Y-92032305D01*
X150344787Y-92508785D01*
X150339797Y-92516221D01*
X150331011Y-92517951D01*
X150330876Y-92517923D01*
X149458867Y-92331974D01*
X149451490Y-92326897D01*
X149449607Y-92320531D01*
X149449607Y-91739468D01*
X149453034Y-91731195D01*
X149458865Y-91728025D01*
X150330876Y-91542076D01*
X150339682Y-91543702D01*
G37*
%TD.AperFunction*%
%TD*%
M02*
