M48
; DRILL file {KiCad 9.0.5} date 2025-12-02T20:27:51+0800
; FORMAT={-:-/ absolute / inch / decimal}
; #@! TF.CreationDate,2025-12-02T20:27:51+08:00
; #@! TF.GenerationSoftware,Kicad,Pcbnew,9.0.5
; #@! TF.FileFunction,Plated,1,2,PTH
FMAT,2
INCH
; #@! TA.AperFunction,Plated,PTH,ViaDrill
T1C0.0118
; #@! TA.AperFunction,Plated,PTH,ViaDrill
T2C0.0197
; #@! TA.AperFunction,Plated,PTH,ComponentDrill
T3C0.0354
; #@! TA.AperFunction,Plated,PTH,ComponentDrill
T4C0.0394
; #@! TA.AperFunction,Plated,PTH,ComponentDrill
T5C0.0630
; #@! TA.AperFunction,Plated,PTH,ComponentDrill
T6C0.0709
%
G90
G05
T1
X5.1866Y-4.7354
T2
X5.9228Y-3.6232
T4
X5.349Y-3.3577
X5.3494Y-4.7333
X5.449Y-3.3577
X5.4494Y-4.7333
X5.549Y-3.3577
X5.5494Y-4.7333
X5.649Y-3.3577
X5.6494Y-4.7333
X5.749Y-3.3577
X5.7494Y-4.7333
X5.849Y-3.3577
X5.8494Y-4.7333
X5.949Y-3.3577
X5.9494Y-4.7333
X6.049Y-3.3577
X6.0494Y-4.7333
T5
X5.3988Y-4.2236
X5.9988Y-4.2236
T6
X5.6004Y-4.4598
X5.7972Y-4.4598
T3
G00X5.728Y-3.7972
M15
G01X5.728Y-3.7579
M16
G05
G00X5.728Y-3.8972
M15
G01X5.728Y-3.8579
M16
G05
G00X5.728Y-3.9972
M15
G01X5.728Y-3.9579
M16
G05
M30
