ISO-10303-21;
HEADER;
FILE_DESCRIPTION(('KiCad electronic assembly'),'2;1');
FILE_NAME('lightgate-led.step','2026-04-10T22:26:17',('Pcbnew'),('Kicad'
    ),'Open CASCADE STEP processor 7.9','KiCad to STEP converter',
  'Unknown');
FILE_SCHEMA(('AUTOMOTIVE_DESIGN { 1 0 10303 214 1 1 1 1 }'));
ENDSEC;
DATA;
#1 = APPLICATION_PROTOCOL_DEFINITION('international standard',
  'automotive_design',2000,#2);
#2 = APPLICATION_CONTEXT(
  'core data for automotive mechanical design processes');
#3 = SHAPE_DEFINITION_REPRESENTATION(#4,#10);
#4 = PRODUCT_DEFINITION_SHAPE('','',#5);
#5 = PRODUCT_DEFINITION('design','',#6,#9);
#6 = PRODUCT_DEFINITION_FORMATION('','',#7);
#7 = PRODUCT('lightgate-led 1','lightgate-led 1','',(#8));
#8 = PRODUCT_CONTEXT('',#2,'mechanical');
#9 = PRODUCT_DEFINITION_CONTEXT('part definition',#2,'design');
#10 = SHAPE_REPRESENTATION('',(#11,#15,#19),#23);
#11 = AXIS2_PLACEMENT_3D('',#12,#13,#14);
#12 = CARTESIAN_POINT('',(0.,0.,0.));
#13 = DIRECTION('',(0.,0.,1.));
#14 = DIRECTION('',(1.,0.,-0.));
#15 = AXIS2_PLACEMENT_3D('',#16,#17,#18);
#16 = CARTESIAN_POINT('',(0.,0.,0.));
#17 = DIRECTION('',(0.,0.,1.));
#18 = DIRECTION('',(1.,0.,-0.));
#19 = AXIS2_PLACEMENT_3D('',#20,#21,#22);
#20 = CARTESIAN_POINT('',(0.,0.,0.));
#21 = DIRECTION('',(0.,0.,1.));
#22 = DIRECTION('',(1.,0.,-0.));
#23 = ( GEOMETRIC_REPRESENTATION_CONTEXT(3) 
GLOBAL_UNCERTAINTY_ASSIGNED_CONTEXT((#27)) GLOBAL_UNIT_ASSIGNED_CONTEXT(
(#24,#25,#26)) REPRESENTATION_CONTEXT('Context #1',
  '3D Context with UNIT and UNCERTAINTY') );
#24 = ( LENGTH_UNIT() NAMED_UNIT(*) SI_UNIT(.MILLI.,.METRE.) );
#25 = ( NAMED_UNIT(*) PLANE_ANGLE_UNIT() SI_UNIT($,.RADIAN.) );
#26 = ( NAMED_UNIT(*) SI_UNIT($,.STERADIAN.) SOLID_ANGLE_UNIT() );
#27 = UNCERTAINTY_MEASURE_WITH_UNIT(LENGTH_MEASURE(1.E-07),#24,
  'distance_accuracy_value','confusion accuracy');
#28 = PRODUCT_RELATED_PRODUCT_CATEGORY('part',$,(#7));
#29 = SHAPE_DEFINITION_REPRESENTATION(#30,#36);
#30 = PRODUCT_DEFINITION_SHAPE('','',#31);
#31 = PRODUCT_DEFINITION('design','',#32,#35);
#32 = PRODUCT_DEFINITION_FORMATION('','',#33);
#33 = PRODUCT('Lightgate(LED)_silkscreen','Lightgate(LED)_silkscreen',''
  ,(#34));
#34 = PRODUCT_CONTEXT('',#2,'mechanical');
#35 = PRODUCT_DEFINITION_CONTEXT('part definition',#2,'design');
#36 = SHAPE_REPRESENTATION('',(#11,#37,#139,#241,#318),#362);
#37 = SHELL_BASED_SURFACE_MODEL('',(#38));
#38 = OPEN_SHELL('',(#39));
#39 = ADVANCED_FACE('',(#40),#134,.T.);
#40 = FACE_BOUND('',#41,.F.);
#41 = EDGE_LOOP('',(#42,#53,#61,#69,#77,#86,#94,#103,#111,#120,#128));
#42 = ORIENTED_EDGE('',*,*,#43,.T.);
#43 = EDGE_CURVE('',#44,#46,#48,.T.);
#44 = VERTEX_POINT('',#45);
#45 = CARTESIAN_POINT('',(103.558025,-67.077038,1.585));
#46 = VERTEX_POINT('',#47);
#47 = CARTESIAN_POINT('',(103.673458,-67.099999,1.585));
#48 = CIRCLE('',#49,6.000007318647E-02);
#49 = AXIS2_PLACEMENT_3D('',#50,#51,#52);
#50 = CARTESIAN_POINT('',(103.61345792681,-67.09999882331,1.585));
#51 = DIRECTION('',(0.,0.,-1.));
#52 = DIRECTION('',(-0.923880986637,0.382679921777,0.));
#53 = ORIENTED_EDGE('',*,*,#54,.T.);
#54 = EDGE_CURVE('',#46,#55,#57,.T.);
#55 = VERTEX_POINT('',#56);
#56 = CARTESIAN_POINT('',(103.673458,-70.639999,1.585));
#57 = LINE('',#58,#59);
#58 = CARTESIAN_POINT('',(103.673458,-67.099999,1.585));
#59 = VECTOR('',#60,1.);
#60 = DIRECTION('',(0.,-1.,0.));
#61 = ORIENTED_EDGE('',*,*,#62,.T.);
#62 = EDGE_CURVE('',#55,#63,#65,.T.);
#63 = VERTEX_POINT('',#64);
#64 = CARTESIAN_POINT('',(106.753458,-70.639999,1.585));
#65 = LINE('',#66,#67);
#66 = CARTESIAN_POINT('',(103.673458,-70.639999,1.585));
#67 = VECTOR('',#68,1.);
#68 = DIRECTION('',(1.,0.,0.));
#69 = ORIENTED_EDGE('',*,*,#70,.T.);
#70 = EDGE_CURVE('',#63,#71,#73,.T.);
#71 = VERTEX_POINT('',#72);
#72 = CARTESIAN_POINT('',(106.753458,-67.099999,1.585));
#73 = LINE('',#74,#75);
#74 = CARTESIAN_POINT('',(106.753458,-70.639999,1.585));
#75 = VECTOR('',#76,1.);
#76 = DIRECTION('',(0.,1.,0.));
#77 = ORIENTED_EDGE('',*,*,#78,.T.);
#78 = EDGE_CURVE('',#71,#79,#81,.T.);
#79 = VERTEX_POINT('',#80);
#80 = CARTESIAN_POINT('',(106.873458,-67.099999,1.585));
#81 = CIRCLE('',#82,6.000000000042E-02);
#82 = AXIS2_PLACEMENT_3D('',#83,#84,#85);
#83 = CARTESIAN_POINT('',(106.813458,-67.09999877441,1.585));
#84 = DIRECTION('',(0.,0.,-1.));
#85 = DIRECTION('',(-0.999999999993,-3.759794016836E-06,-0.));
#86 = ORIENTED_EDGE('',*,*,#87,.T.);
#87 = EDGE_CURVE('',#79,#88,#90,.T.);
#88 = VERTEX_POINT('',#89);
#89 = CARTESIAN_POINT('',(106.873458,-70.699999,1.585));
#90 = LINE('',#91,#92);
#91 = CARTESIAN_POINT('',(106.873458,-67.099999,1.585));
#92 = VECTOR('',#93,1.);
#93 = DIRECTION('',(0.,-1.,0.));
#94 = ORIENTED_EDGE('',*,*,#95,.T.);
#95 = EDGE_CURVE('',#88,#96,#98,.T.);
#96 = VERTEX_POINT('',#97);
#97 = CARTESIAN_POINT('',(106.813458,-70.759999,1.585));
#98 = CIRCLE('',#99,5.999932016258E-02);
#99 = AXIS2_PLACEMENT_3D('',#100,#101,#102);
#100 = CARTESIAN_POINT('',(106.81345867984,-70.69999967984,1.585));
#101 = DIRECTION('',(0.,0.,-1.));
#102 = DIRECTION('',(0.999999999936,1.133081612143E-05,0.));
#103 = ORIENTED_EDGE('',*,*,#104,.T.);
#104 = EDGE_CURVE('',#96,#105,#107,.T.);
#105 = VERTEX_POINT('',#106);
#106 = CARTESIAN_POINT('',(103.613458,-70.759999,1.585));
#107 = LINE('',#108,#109);
#108 = CARTESIAN_POINT('',(106.813458,-70.759999,1.585));
#109 = VECTOR('',#110,1.);
#110 = DIRECTION('',(-1.,0.,0.));
#111 = ORIENTED_EDGE('',*,*,#112,.T.);
#112 = EDGE_CURVE('',#105,#113,#115,.T.);
#113 = VERTEX_POINT('',#114);
#114 = CARTESIAN_POINT('',(103.553458,-70.699999,1.585));
#115 = CIRCLE('',#116,5.999932016258E-02);
#116 = AXIS2_PLACEMENT_3D('',#117,#118,#119);
#117 = CARTESIAN_POINT('',(103.61345732015,-70.69999967984,1.585));
#118 = DIRECTION('',(0.,0.,-1.));
#119 = DIRECTION('',(1.133081612143E-05,-0.999999999936,0.));
#120 = ORIENTED_EDGE('',*,*,#121,.T.);
#121 = EDGE_CURVE('',#113,#122,#124,.T.);
#122 = VERTEX_POINT('',#123);
#123 = CARTESIAN_POINT('',(103.553458,-67.099999,1.585));
#124 = LINE('',#125,#126);
#125 = CARTESIAN_POINT('',(103.553458,-70.699999,1.585));
#126 = VECTOR('',#127,1.);
#127 = DIRECTION('',(0.,1.,0.));
#128 = ORIENTED_EDGE('',*,*,#129,.T.);
#129 = EDGE_CURVE('',#122,#44,#130,.T.);
#130 = LINE('',#131,#132);
#131 = CARTESIAN_POINT('',(103.553458,-67.099999,1.585));
#132 = VECTOR('',#133,1.);
#133 = DIRECTION('',(0.195081000118,0.980787134598,0.));
#134 = PLANE('',#135);
#135 = AXIS2_PLACEMENT_3D('',#136,#137,#138);
#136 = CARTESIAN_POINT('',(0.,0.,1.585));
#137 = DIRECTION('',(0.,0.,1.));
#138 = DIRECTION('',(1.,0.,-0.));
#139 = SHELL_BASED_SURFACE_MODEL('',(#140));
#140 = OPEN_SHELL('',(#141));
#141 = ADVANCED_FACE('',(#142),#236,.T.);
#142 = FACE_BOUND('',#143,.F.);
#143 = EDGE_LOOP('',(#144,#155,#163,#171,#180,#188,#197,#205,#213,#222,
    #230));
#144 = ORIENTED_EDGE('',*,*,#145,.T.);
#145 = EDGE_CURVE('',#146,#148,#150,.T.);
#146 = VERTEX_POINT('',#147);
#147 = CARTESIAN_POINT('',(91.334567,-58.687039,1.585));
#148 = VERTEX_POINT('',#149);
#149 = CARTESIAN_POINT('',(91.45,-58.71,1.585));
#150 = CIRCLE('',#151,6.000007318647E-02);
#151 = AXIS2_PLACEMENT_3D('',#152,#153,#154);
#152 = CARTESIAN_POINT('',(91.389999926814,-58.70999982331,1.585));
#153 = DIRECTION('',(0.,0.,-1.));
#154 = DIRECTION('',(-0.923880986637,0.382679921777,0.));
#155 = ORIENTED_EDGE('',*,*,#156,.T.);
#156 = EDGE_CURVE('',#148,#157,#159,.T.);
#157 = VERTEX_POINT('',#158);
#158 = CARTESIAN_POINT('',(91.45,-59.8,1.585));
#159 = LINE('',#160,#161);
#160 = CARTESIAN_POINT('',(91.45,-58.71,1.585));
#161 = VECTOR('',#162,1.);
#162 = DIRECTION('',(0.,-1.,0.));
#163 = ORIENTED_EDGE('',*,*,#164,.T.);
#164 = EDGE_CURVE('',#157,#165,#167,.T.);
#165 = VERTEX_POINT('',#166);
#166 = CARTESIAN_POINT('',(92.44,-59.8,1.585));
#167 = LINE('',#168,#169);
#168 = CARTESIAN_POINT('',(91.45,-59.8,1.585));
#169 = VECTOR('',#170,1.);
#170 = DIRECTION('',(1.,0.,0.));
#171 = ORIENTED_EDGE('',*,*,#172,.T.);
#172 = EDGE_CURVE('',#165,#173,#175,.T.);
#173 = VERTEX_POINT('',#174);
#174 = CARTESIAN_POINT('',(92.5,-59.86,1.585));
#175 = CIRCLE('',#176,5.999932016259E-02);
#176 = AXIS2_PLACEMENT_3D('',#177,#178,#179);
#177 = CARTESIAN_POINT('',(92.440000679841,-59.85999932015,1.585));
#178 = DIRECTION('',(0.,0.,-1.));
#179 = DIRECTION('',(-1.133081612142E-05,0.999999999936,0.));
#180 = ORIENTED_EDGE('',*,*,#181,.T.);
#181 = EDGE_CURVE('',#173,#182,#184,.T.);
#182 = VERTEX_POINT('',#183);
#183 = CARTESIAN_POINT('',(92.5,-60.85,1.585));
#184 = LINE('',#185,#186);
#185 = CARTESIAN_POINT('',(92.5,-59.86,1.585));
#186 = VECTOR('',#187,1.);
#187 = DIRECTION('',(0.,-1.,0.));
#188 = ORIENTED_EDGE('',*,*,#189,.T.);
#189 = EDGE_CURVE('',#182,#190,#192,.T.);
#190 = VERTEX_POINT('',#191);
#191 = CARTESIAN_POINT('',(92.38,-60.85,1.585));
#192 = CIRCLE('',#193,6.000000000042E-02);
#193 = AXIS2_PLACEMENT_3D('',#194,#195,#196);
#194 = CARTESIAN_POINT('',(92.44,-60.85000022558,1.585));
#195 = DIRECTION('',(0.,0.,-1.));
#196 = DIRECTION('',(0.999999999993,3.759794253684E-06,0.));
#197 = ORIENTED_EDGE('',*,*,#198,.T.);
#198 = EDGE_CURVE('',#190,#199,#201,.T.);
#199 = VERTEX_POINT('',#200);
#200 = CARTESIAN_POINT('',(92.38,-59.92,1.585));
#201 = LINE('',#202,#203);
#202 = CARTESIAN_POINT('',(92.38,-60.85,1.585));
#203 = VECTOR('',#204,1.);
#204 = DIRECTION('',(0.,1.,0.));
#205 = ORIENTED_EDGE('',*,*,#206,.T.);
#206 = EDGE_CURVE('',#199,#207,#209,.T.);
#207 = VERTEX_POINT('',#208);
#208 = CARTESIAN_POINT('',(91.39,-59.92,1.585));
#209 = LINE('',#210,#211);
#210 = CARTESIAN_POINT('',(92.38,-59.92,1.585));
#211 = VECTOR('',#212,1.);
#212 = DIRECTION('',(-1.,0.,0.));
#213 = ORIENTED_EDGE('',*,*,#214,.T.);
#214 = EDGE_CURVE('',#207,#215,#217,.T.);
#215 = VERTEX_POINT('',#216);
#216 = CARTESIAN_POINT('',(91.33,-59.86,1.585));
#217 = CIRCLE('',#218,5.999932016262E-02);
#218 = AXIS2_PLACEMENT_3D('',#219,#220,#221);
#219 = CARTESIAN_POINT('',(91.389999320159,-59.86000067984,1.585));
#220 = DIRECTION('',(0.,0.,-1.));
#221 = DIRECTION('',(1.133081564772E-05,-0.999999999936,0.));
#222 = ORIENTED_EDGE('',*,*,#223,.T.);
#223 = EDGE_CURVE('',#215,#224,#226,.T.);
#224 = VERTEX_POINT('',#225);
#225 = CARTESIAN_POINT('',(91.33,-58.71,1.585));
#226 = LINE('',#227,#228);
#227 = CARTESIAN_POINT('',(91.33,-59.86,1.585));
#228 = VECTOR('',#229,1.);
#229 = DIRECTION('',(0.,1.,0.));
#230 = ORIENTED_EDGE('',*,*,#231,.T.);
#231 = EDGE_CURVE('',#224,#146,#232,.T.);
#232 = LINE('',#233,#234);
#233 = CARTESIAN_POINT('',(91.33,-58.71,1.585));
#234 = VECTOR('',#235,1.);
#235 = DIRECTION('',(0.195081000118,0.980787134598,0.));
#236 = PLANE('',#237);
#237 = AXIS2_PLACEMENT_3D('',#238,#239,#240);
#238 = CARTESIAN_POINT('',(0.,0.,1.585));
#239 = DIRECTION('',(0.,0.,1.));
#240 = DIRECTION('',(1.,0.,-0.));
#241 = SHELL_BASED_SURFACE_MODEL('',(#242));
#242 = OPEN_SHELL('',(#243));
#243 = ADVANCED_FACE('',(#244),#313,.T.);
#244 = FACE_BOUND('',#245,.F.);
#245 = EDGE_LOOP('',(#246,#257,#265,#274,#282,#291,#299,#307));
#246 = ORIENTED_EDGE('',*,*,#247,.T.);
#247 = EDGE_CURVE('',#248,#250,#252,.T.);
#248 = VERTEX_POINT('',#249);
#249 = CARTESIAN_POINT('',(95.554567,-58.687039,1.585));
#250 = VERTEX_POINT('',#251);
#251 = CARTESIAN_POINT('',(95.67,-58.71,1.585));
#252 = CIRCLE('',#253,6.000007318647E-02);
#253 = AXIS2_PLACEMENT_3D('',#254,#255,#256);
#254 = CARTESIAN_POINT('',(95.609999926814,-58.70999982331,1.585));
#255 = DIRECTION('',(0.,0.,-1.));
#256 = DIRECTION('',(-0.923880986637,0.382679921777,0.));
#257 = ORIENTED_EDGE('',*,*,#258,.T.);
#258 = EDGE_CURVE('',#250,#259,#261,.T.);
#259 = VERTEX_POINT('',#260);
#260 = CARTESIAN_POINT('',(95.67,-59.86,1.585));
#261 = LINE('',#262,#263);
#262 = CARTESIAN_POINT('',(95.67,-58.71,1.585));
#263 = VECTOR('',#264,1.);
#264 = DIRECTION('',(0.,-1.,0.));
#265 = ORIENTED_EDGE('',*,*,#266,.T.);
#266 = EDGE_CURVE('',#259,#267,#269,.T.);
#267 = VERTEX_POINT('',#268);
#268 = CARTESIAN_POINT('',(95.61,-59.92,1.585));
#269 = CIRCLE('',#270,5.999932016262E-02);
#270 = AXIS2_PLACEMENT_3D('',#271,#272,#273);
#271 = CARTESIAN_POINT('',(95.610000679841,-59.86000067984,1.585));
#272 = DIRECTION('',(0.,0.,-1.));
#273 = DIRECTION('',(0.999999999936,1.133081564772E-05,0.));
#274 = ORIENTED_EDGE('',*,*,#275,.T.);
#275 = EDGE_CURVE('',#267,#276,#278,.T.);
#276 = VERTEX_POINT('',#277);
#277 = CARTESIAN_POINT('',(94.56,-59.92,1.585));
#278 = LINE('',#279,#280);
#279 = CARTESIAN_POINT('',(95.61,-59.92,1.585));
#280 = VECTOR('',#281,1.);
#281 = DIRECTION('',(-1.,0.,0.));
#282 = ORIENTED_EDGE('',*,*,#283,.T.);
#283 = EDGE_CURVE('',#276,#284,#286,.T.);
#284 = VERTEX_POINT('',#285);
#285 = CARTESIAN_POINT('',(94.56,-59.8,1.585));
#286 = CIRCLE('',#287,6.000000000043E-02);
#287 = AXIS2_PLACEMENT_3D('',#288,#289,#290);
#288 = CARTESIAN_POINT('',(94.559999774412,-59.86,1.585));
#289 = DIRECTION('',(0.,0.,-1.));
#290 = DIRECTION('',(3.759794016836E-06,-0.999999999993,0.));
#291 = ORIENTED_EDGE('',*,*,#292,.T.);
#292 = EDGE_CURVE('',#284,#293,#295,.T.);
#293 = VERTEX_POINT('',#294);
#294 = CARTESIAN_POINT('',(95.55,-59.8,1.585));
#295 = LINE('',#296,#297);
#296 = CARTESIAN_POINT('',(94.56,-59.8,1.585));
#297 = VECTOR('',#298,1.);
#298 = DIRECTION('',(1.,0.,0.));
#299 = ORIENTED_EDGE('',*,*,#300,.T.);
#300 = EDGE_CURVE('',#293,#301,#303,.T.);
#301 = VERTEX_POINT('',#302);
#302 = CARTESIAN_POINT('',(95.55,-58.71,1.585));
#303 = LINE('',#304,#305);
#304 = CARTESIAN_POINT('',(95.55,-59.8,1.585));
#305 = VECTOR('',#306,1.);
#306 = DIRECTION('',(0.,1.,0.));
#307 = ORIENTED_EDGE('',*,*,#308,.T.);
#308 = EDGE_CURVE('',#301,#248,#309,.T.);
#309 = LINE('',#310,#311);
#310 = CARTESIAN_POINT('',(95.55,-58.71,1.585));
#311 = VECTOR('',#312,1.);
#312 = DIRECTION('',(0.195081000118,0.980787134598,0.));
#313 = PLANE('',#314);
#314 = AXIS2_PLACEMENT_3D('',#315,#316,#317);
#315 = CARTESIAN_POINT('',(0.,0.,1.585));
#316 = DIRECTION('',(0.,0.,1.));
#317 = DIRECTION('',(1.,0.,-0.));
#318 = SHELL_BASED_SURFACE_MODEL('',(#319));
#319 = OPEN_SHELL('',(#320));
#320 = ADVANCED_FACE('',(#321),#357,.T.);
#321 = FACE_BOUND('',#322,.F.);
#322 = EDGE_LOOP('',(#323,#334,#342,#351));
#323 = ORIENTED_EDGE('',*,*,#324,.T.);
#324 = EDGE_CURVE('',#325,#327,#329,.T.);
#325 = VERTEX_POINT('',#326);
#326 = CARTESIAN_POINT('',(92.56,-56.8,1.585));
#327 = VERTEX_POINT('',#328);
#328 = CARTESIAN_POINT('',(92.56,-56.68,1.585));
#329 = CIRCLE('',#330,6.000000000043E-02);
#330 = AXIS2_PLACEMENT_3D('',#331,#332,#333);
#331 = CARTESIAN_POINT('',(92.559999774412,-56.74,1.585));
#332 = DIRECTION('',(0.,0.,-1.));
#333 = DIRECTION('',(3.759794016837E-06,-0.999999999993,0.));
#334 = ORIENTED_EDGE('',*,*,#335,.T.);
#335 = EDGE_CURVE('',#327,#336,#338,.T.);
#336 = VERTEX_POINT('',#337);
#337 = CARTESIAN_POINT('',(94.44,-56.68,1.585));
#338 = LINE('',#339,#340);
#339 = CARTESIAN_POINT('',(92.56,-56.68,1.585));
#340 = VECTOR('',#341,1.);
#341 = DIRECTION('',(1.,0.,0.));
#342 = ORIENTED_EDGE('',*,*,#343,.T.);
#343 = EDGE_CURVE('',#336,#344,#346,.T.);
#344 = VERTEX_POINT('',#345);
#345 = CARTESIAN_POINT('',(94.44,-56.8,1.585));
#346 = CIRCLE('',#347,6.000000000042E-02);
#347 = AXIS2_PLACEMENT_3D('',#348,#349,#350);
#348 = CARTESIAN_POINT('',(94.440000225588,-56.74,1.585));
#349 = DIRECTION('',(0.,0.,-1.));
#350 = DIRECTION('',(-3.759794253684E-06,0.999999999993,-0.));
#351 = ORIENTED_EDGE('',*,*,#352,.T.);
#352 = EDGE_CURVE('',#344,#325,#353,.T.);
#353 = LINE('',#354,#355);
#354 = CARTESIAN_POINT('',(94.44,-56.8,1.585));
#355 = VECTOR('',#356,1.);
#356 = DIRECTION('',(-1.,0.,0.));
#357 = PLANE('',#358);
#358 = AXIS2_PLACEMENT_3D('',#359,#360,#361);
#359 = CARTESIAN_POINT('',(0.,0.,1.585));
#360 = DIRECTION('',(0.,0.,1.));
#361 = DIRECTION('',(1.,0.,-0.));
#362 = ( GEOMETRIC_REPRESENTATION_CONTEXT(3) 
GLOBAL_UNCERTAINTY_ASSIGNED_CONTEXT((#366)) GLOBAL_UNIT_ASSIGNED_CONTEXT
((#363,#364,#365)) REPRESENTATION_CONTEXT('Context #1',
  '3D Context with UNIT and UNCERTAINTY') );
#363 = ( LENGTH_UNIT() NAMED_UNIT(*) SI_UNIT(.MILLI.,.METRE.) );
#364 = ( NAMED_UNIT(*) PLANE_ANGLE_UNIT() SI_UNIT($,.RADIAN.) );
#365 = ( NAMED_UNIT(*) SI_UNIT($,.STERADIAN.) SOLID_ANGLE_UNIT() );
#366 = UNCERTAINTY_MEASURE_WITH_UNIT(LENGTH_MEASURE(1.E-07),#363,
  'distance_accuracy_value','confusion accuracy');
#367 = CONTEXT_DEPENDENT_SHAPE_REPRESENTATION(#368,#370);
#368 = ( REPRESENTATION_RELATIONSHIP('','',#36,#10) 
REPRESENTATION_RELATIONSHIP_WITH_TRANSFORMATION(#369) 
SHAPE_REPRESENTATION_RELATIONSHIP() );
#369 = ITEM_DEFINED_TRANSFORMATION('','',#11,#15);
#370 = PRODUCT_DEFINITION_SHAPE('Placement','Placement of an item',#371
  );
#371 = NEXT_ASSEMBLY_USAGE_OCCURRENCE('1','=>[0:1:1:2]','',#5,#31,$);
#372 = PRODUCT_RELATED_PRODUCT_CATEGORY('part',$,(#33));
#373 = SHAPE_DEFINITION_REPRESENTATION(#374,#380);
#374 = PRODUCT_DEFINITION_SHAPE('','',#375);
#375 = PRODUCT_DEFINITION('design','',#376,#379);
#376 = PRODUCT_DEFINITION_FORMATION('','',#377);
#377 = PRODUCT('Lightgate(LED)_PCB','Lightgate(LED)_PCB','',(#378));
#378 = PRODUCT_CONTEXT('',#2,'mechanical');
#379 = PRODUCT_DEFINITION_CONTEXT('part definition',#2,'design');
#380 = ADVANCED_BREP_SHAPE_REPRESENTATION('',(#11,#381),#1351);
#381 = MANIFOLD_SOLID_BREP('',#382);
#382 = CLOSED_SHELL('',(#383,#425,#456,#489,#520,#553,#584,#617,#648,
    #681,#712,#745,#776,#809,#840,#873,#904,#937,#968,#1001,#1032,#1065,
    #1096,#1129,#1160,#1193,#1224,#1257,#1279,#1315));
#383 = ADVANCED_FACE('',(#384),#420,.T.);
#384 = FACE_BOUND('',#385,.T.);
#385 = EDGE_LOOP('',(#386,#396,#405,#413));
#386 = ORIENTED_EDGE('',*,*,#387,.T.);
#387 = EDGE_CURVE('',#388,#390,#392,.T.);
#388 = VERTEX_POINT('',#389);
#389 = CARTESIAN_POINT('',(109.713457,-34.899999,0.));
#390 = VERTEX_POINT('',#391);
#391 = CARTESIAN_POINT('',(109.713457,-34.899999,1.51));
#392 = LINE('',#393,#394);
#393 = CARTESIAN_POINT('',(109.713457,-34.899999,0.));
#394 = VECTOR('',#395,1.);
#395 = DIRECTION('',(0.,0.,1.));
#396 = ORIENTED_EDGE('',*,*,#397,.T.);
#397 = EDGE_CURVE('',#390,#398,#400,.T.);
#398 = VERTEX_POINT('',#399);
#399 = CARTESIAN_POINT('',(110.213458,-35.4,1.51));
#400 = CIRCLE('',#401,0.500001333569);
#401 = AXIS2_PLACEMENT_3D('',#402,#403,#404);
#402 = CARTESIAN_POINT('',(109.71345666643,-35.40000033356,1.51));
#403 = DIRECTION('',(0.,0.,-1.));
#404 = DIRECTION('',(6.671365154843E-07,1.,0.));
#405 = ORIENTED_EDGE('',*,*,#406,.F.);
#406 = EDGE_CURVE('',#407,#398,#409,.T.);
#407 = VERTEX_POINT('',#408);
#408 = CARTESIAN_POINT('',(110.213458,-35.4,0.));
#409 = LINE('',#410,#411);
#410 = CARTESIAN_POINT('',(110.213458,-35.4,0.));
#411 = VECTOR('',#412,1.);
#412 = DIRECTION('',(0.,0.,1.));
#413 = ORIENTED_EDGE('',*,*,#414,.F.);
#414 = EDGE_CURVE('',#388,#407,#415,.T.);
#415 = CIRCLE('',#416,0.500001333569);
#416 = AXIS2_PLACEMENT_3D('',#417,#418,#419);
#417 = CARTESIAN_POINT('',(109.71345666643,-35.40000033356,0.));
#418 = DIRECTION('',(0.,0.,-1.));
#419 = DIRECTION('',(6.671365154843E-07,1.,0.));
#420 = CYLINDRICAL_SURFACE('',#421,0.500001333569);
#421 = AXIS2_PLACEMENT_3D('',#422,#423,#424);
#422 = CARTESIAN_POINT('',(109.71345666643,-35.40000033356,0.));
#423 = DIRECTION('',(0.,0.,-1.));
#424 = DIRECTION('',(6.671365154843E-07,1.,0.));
#425 = ADVANCED_FACE('',(#426),#451,.T.);
#426 = FACE_BOUND('',#427,.T.);
#427 = EDGE_LOOP('',(#428,#429,#437,#445));
#428 = ORIENTED_EDGE('',*,*,#406,.T.);
#429 = ORIENTED_EDGE('',*,*,#430,.T.);
#430 = EDGE_CURVE('',#398,#431,#433,.T.);
#431 = VERTEX_POINT('',#432);
#432 = CARTESIAN_POINT('',(110.213458,-45.999997,1.51));
#433 = LINE('',#434,#435);
#434 = CARTESIAN_POINT('',(110.213458,-35.4,1.51));
#435 = VECTOR('',#436,1.);
#436 = DIRECTION('',(0.,-1.,0.));
#437 = ORIENTED_EDGE('',*,*,#438,.F.);
#438 = EDGE_CURVE('',#439,#431,#441,.T.);
#439 = VERTEX_POINT('',#440);
#440 = CARTESIAN_POINT('',(110.213458,-45.999997,0.));
#441 = LINE('',#442,#443);
#442 = CARTESIAN_POINT('',(110.213458,-45.999997,0.));
#443 = VECTOR('',#444,1.);
#444 = DIRECTION('',(0.,0.,1.));
#445 = ORIENTED_EDGE('',*,*,#446,.F.);
#446 = EDGE_CURVE('',#407,#439,#447,.T.);
#447 = LINE('',#448,#449);
#448 = CARTESIAN_POINT('',(110.213458,-35.4,0.));
#449 = VECTOR('',#450,1.);
#450 = DIRECTION('',(0.,-1.,0.));
#451 = PLANE('',#452);
#452 = AXIS2_PLACEMENT_3D('',#453,#454,#455);
#453 = CARTESIAN_POINT('',(110.213458,-35.4,0.));
#454 = DIRECTION('',(1.,0.,-0.));
#455 = DIRECTION('',(0.,-1.,0.));
#456 = ADVANCED_FACE('',(#457),#484,.F.);
#457 = FACE_BOUND('',#458,.T.);
#458 = EDGE_LOOP('',(#459,#460,#469,#477));
#459 = ORIENTED_EDGE('',*,*,#438,.T.);
#460 = ORIENTED_EDGE('',*,*,#461,.T.);
#461 = EDGE_CURVE('',#431,#462,#464,.T.);
#462 = VERTEX_POINT('',#463);
#463 = CARTESIAN_POINT('',(110.713459,-46.499999,1.51));
#464 = CIRCLE('',#465,0.50000133357);
#465 = AXIS2_PLACEMENT_3D('',#466,#467,#468);
#466 = CARTESIAN_POINT('',(110.71345933356,-45.99999766643,1.51));
#467 = DIRECTION('',(0.,0.,1.));
#468 = DIRECTION('',(-0.999999999999,1.332857079391E-06,0.));
#469 = ORIENTED_EDGE('',*,*,#470,.F.);
#470 = EDGE_CURVE('',#471,#462,#473,.T.);
#471 = VERTEX_POINT('',#472);
#472 = CARTESIAN_POINT('',(110.713459,-46.499999,0.));
#473 = LINE('',#474,#475);
#474 = CARTESIAN_POINT('',(110.713459,-46.499999,0.));
#475 = VECTOR('',#476,1.);
#476 = DIRECTION('',(0.,0.,1.));
#477 = ORIENTED_EDGE('',*,*,#478,.F.);
#478 = EDGE_CURVE('',#439,#471,#479,.T.);
#479 = CIRCLE('',#480,0.50000133357);
#480 = AXIS2_PLACEMENT_3D('',#481,#482,#483);
#481 = CARTESIAN_POINT('',(110.71345933356,-45.99999766643,0.));
#482 = DIRECTION('',(0.,0.,1.));
#483 = DIRECTION('',(-0.999999999999,1.332857079391E-06,0.));
#484 = CYLINDRICAL_SURFACE('',#485,0.50000133357);
#485 = AXIS2_PLACEMENT_3D('',#486,#487,#488);
#486 = CARTESIAN_POINT('',(110.71345933356,-45.99999766643,0.));
#487 = DIRECTION('',(-0.,-0.,-1.));
#488 = DIRECTION('',(-0.999999999999,1.332857079391E-06,0.));
#489 = ADVANCED_FACE('',(#490),#515,.T.);
#490 = FACE_BOUND('',#491,.T.);
#491 = EDGE_LOOP('',(#492,#493,#501,#509));
#492 = ORIENTED_EDGE('',*,*,#470,.T.);
#493 = ORIENTED_EDGE('',*,*,#494,.T.);
#494 = EDGE_CURVE('',#462,#495,#497,.T.);
#495 = VERTEX_POINT('',#496);
#496 = CARTESIAN_POINT('',(111.926915,-46.499999,1.51));
#497 = LINE('',#498,#499);
#498 = CARTESIAN_POINT('',(110.713459,-46.499999,1.51));
#499 = VECTOR('',#500,1.);
#500 = DIRECTION('',(1.,0.,0.));
#501 = ORIENTED_EDGE('',*,*,#502,.F.);
#502 = EDGE_CURVE('',#503,#495,#505,.T.);
#503 = VERTEX_POINT('',#504);
#504 = CARTESIAN_POINT('',(111.926915,-46.499999,0.));
#505 = LINE('',#506,#507);
#506 = CARTESIAN_POINT('',(111.926915,-46.499999,0.));
#507 = VECTOR('',#508,1.);
#508 = DIRECTION('',(0.,0.,1.));
#509 = ORIENTED_EDGE('',*,*,#510,.F.);
#510 = EDGE_CURVE('',#471,#503,#511,.T.);
#511 = LINE('',#512,#513);
#512 = CARTESIAN_POINT('',(110.713459,-46.499999,0.));
#513 = VECTOR('',#514,1.);
#514 = DIRECTION('',(1.,0.,0.));
#515 = PLANE('',#516);
#516 = AXIS2_PLACEMENT_3D('',#517,#518,#519);
#517 = CARTESIAN_POINT('',(110.713459,-46.499999,0.));
#518 = DIRECTION('',(0.,1.,0.));
#519 = DIRECTION('',(1.,0.,0.));
#520 = ADVANCED_FACE('',(#521),#548,.T.);
#521 = FACE_BOUND('',#522,.T.);
#522 = EDGE_LOOP('',(#523,#524,#533,#541));
#523 = ORIENTED_EDGE('',*,*,#502,.T.);
#524 = ORIENTED_EDGE('',*,*,#525,.T.);
#525 = EDGE_CURVE('',#495,#526,#528,.T.);
#526 = VERTEX_POINT('',#527);
#527 = CARTESIAN_POINT('',(112.426916,-47.,1.51));
#528 = CIRCLE('',#529,0.500001333569);
#529 = AXIS2_PLACEMENT_3D('',#530,#531,#532);
#530 = CARTESIAN_POINT('',(111.92691466643,-47.00000033356,1.51));
#531 = DIRECTION('',(0.,0.,-1.));
#532 = DIRECTION('',(6.671364586411E-07,1.,0.));
#533 = ORIENTED_EDGE('',*,*,#534,.F.);
#534 = EDGE_CURVE('',#535,#526,#537,.T.);
#535 = VERTEX_POINT('',#536);
#536 = CARTESIAN_POINT('',(112.426916,-47.,0.));
#537 = LINE('',#538,#539);
#538 = CARTESIAN_POINT('',(112.426916,-47.,0.));
#539 = VECTOR('',#540,1.);
#540 = DIRECTION('',(0.,0.,1.));
#541 = ORIENTED_EDGE('',*,*,#542,.F.);
#542 = EDGE_CURVE('',#503,#535,#543,.T.);
#543 = CIRCLE('',#544,0.500001333569);
#544 = AXIS2_PLACEMENT_3D('',#545,#546,#547);
#545 = CARTESIAN_POINT('',(111.92691466643,-47.00000033356,0.));
#546 = DIRECTION('',(0.,0.,-1.));
#547 = DIRECTION('',(6.671364586411E-07,1.,0.));
#548 = CYLINDRICAL_SURFACE('',#549,0.500001333569);
#549 = AXIS2_PLACEMENT_3D('',#550,#551,#552);
#550 = CARTESIAN_POINT('',(111.92691466643,-47.00000033356,0.));
#551 = DIRECTION('',(0.,0.,-1.));
#552 = DIRECTION('',(6.671364586411E-07,1.,0.));
#553 = ADVANCED_FACE('',(#554),#579,.T.);
#554 = FACE_BOUND('',#555,.T.);
#555 = EDGE_LOOP('',(#556,#557,#565,#573));
#556 = ORIENTED_EDGE('',*,*,#534,.T.);
#557 = ORIENTED_EDGE('',*,*,#558,.T.);
#558 = EDGE_CURVE('',#526,#559,#561,.T.);
#559 = VERTEX_POINT('',#560);
#560 = CARTESIAN_POINT('',(112.426916,-80.499998,1.51));
#561 = LINE('',#562,#563);
#562 = CARTESIAN_POINT('',(112.426916,-47.,1.51));
#563 = VECTOR('',#564,1.);
#564 = DIRECTION('',(0.,-1.,0.));
#565 = ORIENTED_EDGE('',*,*,#566,.F.);
#566 = EDGE_CURVE('',#567,#559,#569,.T.);
#567 = VERTEX_POINT('',#568);
#568 = CARTESIAN_POINT('',(112.426916,-80.499998,0.));
#569 = LINE('',#570,#571);
#570 = CARTESIAN_POINT('',(112.426916,-80.499998,0.));
#571 = VECTOR('',#572,1.);
#572 = DIRECTION('',(0.,0.,1.));
#573 = ORIENTED_EDGE('',*,*,#574,.F.);
#574 = EDGE_CURVE('',#535,#567,#575,.T.);
#575 = LINE('',#576,#577);
#576 = CARTESIAN_POINT('',(112.426916,-47.,0.));
#577 = VECTOR('',#578,1.);
#578 = DIRECTION('',(0.,-1.,0.));
#579 = PLANE('',#580);
#580 = AXIS2_PLACEMENT_3D('',#581,#582,#583);
#581 = CARTESIAN_POINT('',(112.426916,-47.,0.));
#582 = DIRECTION('',(1.,0.,-0.));
#583 = DIRECTION('',(0.,-1.,0.));
#584 = ADVANCED_FACE('',(#585),#612,.T.);
#585 = FACE_BOUND('',#586,.T.);
#586 = EDGE_LOOP('',(#587,#588,#597,#605));
#587 = ORIENTED_EDGE('',*,*,#566,.T.);
#588 = ORIENTED_EDGE('',*,*,#589,.T.);
#589 = EDGE_CURVE('',#559,#590,#592,.T.);
#590 = VERTEX_POINT('',#591);
#591 = CARTESIAN_POINT('',(111.926915,-80.999999,1.51));
#592 = CIRCLE('',#593,0.500001333569);
#593 = AXIS2_PLACEMENT_3D('',#594,#595,#596);
#594 = CARTESIAN_POINT('',(111.92691466643,-80.49999766643,1.51));
#595 = DIRECTION('',(0.,0.,-1.));
#596 = DIRECTION('',(1.,-6.671365439059E-07,0.));
#597 = ORIENTED_EDGE('',*,*,#598,.F.);
#598 = EDGE_CURVE('',#599,#590,#601,.T.);
#599 = VERTEX_POINT('',#600);
#600 = CARTESIAN_POINT('',(111.926915,-80.999999,0.));
#601 = LINE('',#602,#603);
#602 = CARTESIAN_POINT('',(111.926915,-80.999999,0.));
#603 = VECTOR('',#604,1.);
#604 = DIRECTION('',(0.,0.,1.));
#605 = ORIENTED_EDGE('',*,*,#606,.F.);
#606 = EDGE_CURVE('',#567,#599,#607,.T.);
#607 = CIRCLE('',#608,0.500001333569);
#608 = AXIS2_PLACEMENT_3D('',#609,#610,#611);
#609 = CARTESIAN_POINT('',(111.92691466643,-80.49999766643,0.));
#610 = DIRECTION('',(0.,0.,-1.));
#611 = DIRECTION('',(1.,-6.671365439059E-07,0.));
#612 = CYLINDRICAL_SURFACE('',#613,0.500001333569);
#613 = AXIS2_PLACEMENT_3D('',#614,#615,#616);
#614 = CARTESIAN_POINT('',(111.92691466643,-80.49999766643,0.));
#615 = DIRECTION('',(0.,0.,-1.));
#616 = DIRECTION('',(1.,-6.671365439059E-07,0.));
#617 = ADVANCED_FACE('',(#618),#643,.T.);
#618 = FACE_BOUND('',#619,.T.);
#619 = EDGE_LOOP('',(#620,#621,#629,#637));
#620 = ORIENTED_EDGE('',*,*,#598,.T.);
#621 = ORIENTED_EDGE('',*,*,#622,.T.);
#622 = EDGE_CURVE('',#590,#623,#625,.T.);
#623 = VERTEX_POINT('',#624);
#624 = CARTESIAN_POINT('',(110.713459,-80.999999,1.51));
#625 = LINE('',#626,#627);
#626 = CARTESIAN_POINT('',(111.926915,-80.999999,1.51));
#627 = VECTOR('',#628,1.);
#628 = DIRECTION('',(-1.,0.,0.));
#629 = ORIENTED_EDGE('',*,*,#630,.F.);
#630 = EDGE_CURVE('',#631,#623,#633,.T.);
#631 = VERTEX_POINT('',#632);
#632 = CARTESIAN_POINT('',(110.713459,-80.999999,0.));
#633 = LINE('',#634,#635);
#634 = CARTESIAN_POINT('',(110.713459,-80.999999,0.));
#635 = VECTOR('',#636,1.);
#636 = DIRECTION('',(0.,0.,1.));
#637 = ORIENTED_EDGE('',*,*,#638,.F.);
#638 = EDGE_CURVE('',#599,#631,#639,.T.);
#639 = LINE('',#640,#641);
#640 = CARTESIAN_POINT('',(111.926915,-80.999999,0.));
#641 = VECTOR('',#642,1.);
#642 = DIRECTION('',(-1.,0.,0.));
#643 = PLANE('',#644);
#644 = AXIS2_PLACEMENT_3D('',#645,#646,#647);
#645 = CARTESIAN_POINT('',(111.926915,-80.999999,0.));
#646 = DIRECTION('',(0.,-1.,0.));
#647 = DIRECTION('',(-1.,0.,0.));
#648 = ADVANCED_FACE('',(#649),#676,.F.);
#649 = FACE_BOUND('',#650,.T.);
#650 = EDGE_LOOP('',(#651,#652,#661,#669));
#651 = ORIENTED_EDGE('',*,*,#630,.T.);
#652 = ORIENTED_EDGE('',*,*,#653,.T.);
#653 = EDGE_CURVE('',#623,#654,#656,.T.);
#654 = VERTEX_POINT('',#655);
#655 = CARTESIAN_POINT('',(110.213458,-81.5,1.51));
#656 = CIRCLE('',#657,0.500001333569);
#657 = AXIS2_PLACEMENT_3D('',#658,#659,#660);
#658 = CARTESIAN_POINT('',(110.71345933356,-81.50000033356,1.51));
#659 = DIRECTION('',(0.,0.,1.));
#660 = DIRECTION('',(-6.671364302194E-07,1.,0.));
#661 = ORIENTED_EDGE('',*,*,#662,.F.);
#662 = EDGE_CURVE('',#663,#654,#665,.T.);
#663 = VERTEX_POINT('',#664);
#664 = CARTESIAN_POINT('',(110.213458,-81.5,0.));
#665 = LINE('',#666,#667);
#666 = CARTESIAN_POINT('',(110.213458,-81.5,0.));
#667 = VECTOR('',#668,1.);
#668 = DIRECTION('',(0.,0.,1.));
#669 = ORIENTED_EDGE('',*,*,#670,.F.);
#670 = EDGE_CURVE('',#631,#663,#671,.T.);
#671 = CIRCLE('',#672,0.500001333569);
#672 = AXIS2_PLACEMENT_3D('',#673,#674,#675);
#673 = CARTESIAN_POINT('',(110.71345933356,-81.50000033356,0.));
#674 = DIRECTION('',(0.,0.,1.));
#675 = DIRECTION('',(-6.671364302194E-07,1.,0.));
#676 = CYLINDRICAL_SURFACE('',#677,0.500001333569);
#677 = AXIS2_PLACEMENT_3D('',#678,#679,#680);
#678 = CARTESIAN_POINT('',(110.71345933356,-81.50000033356,0.));
#679 = DIRECTION('',(-0.,-0.,-1.));
#680 = DIRECTION('',(-6.671364302194E-07,1.,0.));
#681 = ADVANCED_FACE('',(#682),#707,.T.);
#682 = FACE_BOUND('',#683,.T.);
#683 = EDGE_LOOP('',(#684,#685,#693,#701));
#684 = ORIENTED_EDGE('',*,*,#662,.T.);
#685 = ORIENTED_EDGE('',*,*,#686,.T.);
#686 = EDGE_CURVE('',#654,#687,#689,.T.);
#687 = VERTEX_POINT('',#688);
#688 = CARTESIAN_POINT('',(110.213458,-82.099998,1.51));
#689 = LINE('',#690,#691);
#690 = CARTESIAN_POINT('',(110.213458,-81.5,1.51));
#691 = VECTOR('',#692,1.);
#692 = DIRECTION('',(0.,-1.,0.));
#693 = ORIENTED_EDGE('',*,*,#694,.F.);
#694 = EDGE_CURVE('',#695,#687,#697,.T.);
#695 = VERTEX_POINT('',#696);
#696 = CARTESIAN_POINT('',(110.213458,-82.099998,0.));
#697 = LINE('',#698,#699);
#698 = CARTESIAN_POINT('',(110.213458,-82.099998,0.));
#699 = VECTOR('',#700,1.);
#700 = DIRECTION('',(0.,0.,1.));
#701 = ORIENTED_EDGE('',*,*,#702,.F.);
#702 = EDGE_CURVE('',#663,#695,#703,.T.);
#703 = LINE('',#704,#705);
#704 = CARTESIAN_POINT('',(110.213458,-81.5,0.));
#705 = VECTOR('',#706,1.);
#706 = DIRECTION('',(0.,-1.,0.));
#707 = PLANE('',#708);
#708 = AXIS2_PLACEMENT_3D('',#709,#710,#711);
#709 = CARTESIAN_POINT('',(110.213458,-81.5,0.));
#710 = DIRECTION('',(1.,0.,-0.));
#711 = DIRECTION('',(0.,-1.,0.));
#712 = ADVANCED_FACE('',(#713),#740,.T.);
#713 = FACE_BOUND('',#714,.T.);
#714 = EDGE_LOOP('',(#715,#716,#725,#733));
#715 = ORIENTED_EDGE('',*,*,#694,.T.);
#716 = ORIENTED_EDGE('',*,*,#717,.T.);
#717 = EDGE_CURVE('',#687,#718,#720,.T.);
#718 = VERTEX_POINT('',#719);
#719 = CARTESIAN_POINT('',(109.713457,-82.599999,1.51));
#720 = CIRCLE('',#721,0.500001333569);
#721 = AXIS2_PLACEMENT_3D('',#722,#723,#724);
#722 = CARTESIAN_POINT('',(109.71345666643,-82.09999766643,1.51));
#723 = DIRECTION('',(0.,0.,-1.));
#724 = DIRECTION('',(1.,-6.671364870627E-07,0.));
#725 = ORIENTED_EDGE('',*,*,#726,.F.);
#726 = EDGE_CURVE('',#727,#718,#729,.T.);
#727 = VERTEX_POINT('',#728);
#728 = CARTESIAN_POINT('',(109.713457,-82.599999,0.));
#729 = LINE('',#730,#731);
#730 = CARTESIAN_POINT('',(109.713457,-82.599999,0.));
#731 = VECTOR('',#732,1.);
#732 = DIRECTION('',(0.,0.,1.));
#733 = ORIENTED_EDGE('',*,*,#734,.F.);
#734 = EDGE_CURVE('',#695,#727,#735,.T.);
#735 = CIRCLE('',#736,0.500001333569);
#736 = AXIS2_PLACEMENT_3D('',#737,#738,#739);
#737 = CARTESIAN_POINT('',(109.71345666643,-82.09999766643,0.));
#738 = DIRECTION('',(0.,0.,-1.));
#739 = DIRECTION('',(1.,-6.671364870627E-07,0.));
#740 = CYLINDRICAL_SURFACE('',#741,0.500001333569);
#741 = AXIS2_PLACEMENT_3D('',#742,#743,#744);
#742 = CARTESIAN_POINT('',(109.71345666643,-82.09999766643,0.));
#743 = DIRECTION('',(0.,0.,-1.));
#744 = DIRECTION('',(1.,-6.671364870627E-07,0.));
#745 = ADVANCED_FACE('',(#746),#771,.T.);
#746 = FACE_BOUND('',#747,.T.);
#747 = EDGE_LOOP('',(#748,#749,#757,#765));
#748 = ORIENTED_EDGE('',*,*,#726,.T.);
#749 = ORIENTED_EDGE('',*,*,#750,.T.);
#750 = EDGE_CURVE('',#718,#751,#753,.T.);
#751 = VERTEX_POINT('',#752);
#752 = CARTESIAN_POINT('',(100.713459,-82.599999,1.51));
#753 = LINE('',#754,#755);
#754 = CARTESIAN_POINT('',(109.713457,-82.599999,1.51));
#755 = VECTOR('',#756,1.);
#756 = DIRECTION('',(-1.,0.,0.));
#757 = ORIENTED_EDGE('',*,*,#758,.F.);
#758 = EDGE_CURVE('',#759,#751,#761,.T.);
#759 = VERTEX_POINT('',#760);
#760 = CARTESIAN_POINT('',(100.713459,-82.599999,0.));
#761 = LINE('',#762,#763);
#762 = CARTESIAN_POINT('',(100.713459,-82.599999,0.));
#763 = VECTOR('',#764,1.);
#764 = DIRECTION('',(0.,0.,1.));
#765 = ORIENTED_EDGE('',*,*,#766,.F.);
#766 = EDGE_CURVE('',#727,#759,#767,.T.);
#767 = LINE('',#768,#769);
#768 = CARTESIAN_POINT('',(109.713457,-82.599999,0.));
#769 = VECTOR('',#770,1.);
#770 = DIRECTION('',(-1.,0.,0.));
#771 = PLANE('',#772);
#772 = AXIS2_PLACEMENT_3D('',#773,#774,#775);
#773 = CARTESIAN_POINT('',(109.713457,-82.599999,0.));
#774 = DIRECTION('',(0.,-1.,0.));
#775 = DIRECTION('',(-1.,0.,0.));
#776 = ADVANCED_FACE('',(#777),#804,.T.);
#777 = FACE_BOUND('',#778,.T.);
#778 = EDGE_LOOP('',(#779,#780,#789,#797));
#779 = ORIENTED_EDGE('',*,*,#758,.T.);
#780 = ORIENTED_EDGE('',*,*,#781,.T.);
#781 = EDGE_CURVE('',#751,#782,#784,.T.);
#782 = VERTEX_POINT('',#783);
#783 = CARTESIAN_POINT('',(100.213458,-82.099998,1.51));
#784 = CIRCLE('',#785,0.500001333569);
#785 = AXIS2_PLACEMENT_3D('',#786,#787,#788);
#786 = CARTESIAN_POINT('',(100.71345933356,-82.09999766643,1.51));
#787 = DIRECTION('',(0.,0.,-1.));
#788 = DIRECTION('',(-6.671364302194E-07,-1.,-0.));
#789 = ORIENTED_EDGE('',*,*,#790,.F.);
#790 = EDGE_CURVE('',#791,#782,#793,.T.);
#791 = VERTEX_POINT('',#792);
#792 = CARTESIAN_POINT('',(100.213458,-82.099998,0.));
#793 = LINE('',#794,#795);
#794 = CARTESIAN_POINT('',(100.213458,-82.099998,0.));
#795 = VECTOR('',#796,1.);
#796 = DIRECTION('',(0.,0.,1.));
#797 = ORIENTED_EDGE('',*,*,#798,.F.);
#798 = EDGE_CURVE('',#759,#791,#799,.T.);
#799 = CIRCLE('',#800,0.500001333569);
#800 = AXIS2_PLACEMENT_3D('',#801,#802,#803);
#801 = CARTESIAN_POINT('',(100.71345933356,-82.09999766643,0.));
#802 = DIRECTION('',(0.,0.,-1.));
#803 = DIRECTION('',(-6.671364302194E-07,-1.,-0.));
#804 = CYLINDRICAL_SURFACE('',#805,0.500001333569);
#805 = AXIS2_PLACEMENT_3D('',#806,#807,#808);
#806 = CARTESIAN_POINT('',(100.71345933356,-82.09999766643,0.));
#807 = DIRECTION('',(0.,0.,-1.));
#808 = DIRECTION('',(-6.671364302194E-07,-1.,-0.));
#809 = ADVANCED_FACE('',(#810),#835,.T.);
#810 = FACE_BOUND('',#811,.T.);
#811 = EDGE_LOOP('',(#812,#813,#821,#829));
#812 = ORIENTED_EDGE('',*,*,#790,.T.);
#813 = ORIENTED_EDGE('',*,*,#814,.T.);
#814 = EDGE_CURVE('',#782,#815,#817,.T.);
#815 = VERTEX_POINT('',#816);
#816 = CARTESIAN_POINT('',(100.213458,-81.5,1.51));
#817 = LINE('',#818,#819);
#818 = CARTESIAN_POINT('',(100.213458,-82.099998,1.51));
#819 = VECTOR('',#820,1.);
#820 = DIRECTION('',(0.,1.,0.));
#821 = ORIENTED_EDGE('',*,*,#822,.F.);
#822 = EDGE_CURVE('',#823,#815,#825,.T.);
#823 = VERTEX_POINT('',#824);
#824 = CARTESIAN_POINT('',(100.213458,-81.5,0.));
#825 = LINE('',#826,#827);
#826 = CARTESIAN_POINT('',(100.213458,-81.5,0.));
#827 = VECTOR('',#828,1.);
#828 = DIRECTION('',(0.,0.,1.));
#829 = ORIENTED_EDGE('',*,*,#830,.F.);
#830 = EDGE_CURVE('',#791,#823,#831,.T.);
#831 = LINE('',#832,#833);
#832 = CARTESIAN_POINT('',(100.213458,-82.099998,0.));
#833 = VECTOR('',#834,1.);
#834 = DIRECTION('',(0.,1.,0.));
#835 = PLANE('',#836);
#836 = AXIS2_PLACEMENT_3D('',#837,#838,#839);
#837 = CARTESIAN_POINT('',(100.213458,-82.099998,0.));
#838 = DIRECTION('',(-1.,0.,0.));
#839 = DIRECTION('',(0.,1.,0.));
#840 = ADVANCED_FACE('',(#841),#868,.F.);
#841 = FACE_BOUND('',#842,.T.);
#842 = EDGE_LOOP('',(#843,#844,#853,#861));
#843 = ORIENTED_EDGE('',*,*,#822,.T.);
#844 = ORIENTED_EDGE('',*,*,#845,.T.);
#845 = EDGE_CURVE('',#815,#846,#848,.T.);
#846 = VERTEX_POINT('',#847);
#847 = CARTESIAN_POINT('',(99.713457,-80.999999,1.51));
#848 = CIRCLE('',#849,0.500001333569);
#849 = AXIS2_PLACEMENT_3D('',#850,#851,#852);
#850 = CARTESIAN_POINT('',(99.713456666431,-81.50000033356,1.51));
#851 = DIRECTION('',(0.,0.,1.));
#852 = DIRECTION('',(1.,6.671364870627E-07,-0.));
#853 = ORIENTED_EDGE('',*,*,#854,.F.);
#854 = EDGE_CURVE('',#855,#846,#857,.T.);
#855 = VERTEX_POINT('',#856);
#856 = CARTESIAN_POINT('',(99.713457,-80.999999,0.));
#857 = LINE('',#858,#859);
#858 = CARTESIAN_POINT('',(99.713457,-80.999999,0.));
#859 = VECTOR('',#860,1.);
#860 = DIRECTION('',(0.,0.,1.));
#861 = ORIENTED_EDGE('',*,*,#862,.F.);
#862 = EDGE_CURVE('',#823,#855,#863,.T.);
#863 = CIRCLE('',#864,0.500001333569);
#864 = AXIS2_PLACEMENT_3D('',#865,#866,#867);
#865 = CARTESIAN_POINT('',(99.713456666431,-81.50000033356,0.));
#866 = DIRECTION('',(0.,0.,1.));
#867 = DIRECTION('',(1.,6.671364870627E-07,-0.));
#868 = CYLINDRICAL_SURFACE('',#869,0.500001333569);
#869 = AXIS2_PLACEMENT_3D('',#870,#871,#872);
#870 = CARTESIAN_POINT('',(99.713456666431,-81.50000033356,0.));
#871 = DIRECTION('',(-0.,-0.,-1.));
#872 = DIRECTION('',(1.,6.671364870627E-07,-0.));
#873 = ADVANCED_FACE('',(#874),#899,.T.);
#874 = FACE_BOUND('',#875,.T.);
#875 = EDGE_LOOP('',(#876,#877,#885,#893));
#876 = ORIENTED_EDGE('',*,*,#854,.T.);
#877 = ORIENTED_EDGE('',*,*,#878,.T.);
#878 = EDGE_CURVE('',#846,#879,#881,.T.);
#879 = VERTEX_POINT('',#880);
#880 = CARTESIAN_POINT('',(88.500001,-80.999999,1.51));
#881 = LINE('',#882,#883);
#882 = CARTESIAN_POINT('',(99.713457,-80.999999,1.51));
#883 = VECTOR('',#884,1.);
#884 = DIRECTION('',(-1.,0.,0.));
#885 = ORIENTED_EDGE('',*,*,#886,.F.);
#886 = EDGE_CURVE('',#887,#879,#889,.T.);
#887 = VERTEX_POINT('',#888);
#888 = CARTESIAN_POINT('',(88.500001,-80.999999,0.));
#889 = LINE('',#890,#891);
#890 = CARTESIAN_POINT('',(88.500001,-80.999999,0.));
#891 = VECTOR('',#892,1.);
#892 = DIRECTION('',(0.,0.,1.));
#893 = ORIENTED_EDGE('',*,*,#894,.F.);
#894 = EDGE_CURVE('',#855,#887,#895,.T.);
#895 = LINE('',#896,#897);
#896 = CARTESIAN_POINT('',(99.713457,-80.999999,0.));
#897 = VECTOR('',#898,1.);
#898 = DIRECTION('',(-1.,0.,0.));
#899 = PLANE('',#900);
#900 = AXIS2_PLACEMENT_3D('',#901,#902,#903);
#901 = CARTESIAN_POINT('',(99.713457,-80.999999,0.));
#902 = DIRECTION('',(0.,-1.,0.));
#903 = DIRECTION('',(-1.,0.,0.));
#904 = ADVANCED_FACE('',(#905),#932,.T.);
#905 = FACE_BOUND('',#906,.T.);
#906 = EDGE_LOOP('',(#907,#908,#917,#925));
#907 = ORIENTED_EDGE('',*,*,#886,.T.);
#908 = ORIENTED_EDGE('',*,*,#909,.T.);
#909 = EDGE_CURVE('',#879,#910,#912,.T.);
#910 = VERTEX_POINT('',#911);
#911 = CARTESIAN_POINT('',(88.,-80.499998,1.51));
#912 = CIRCLE('',#913,0.500001333569);
#913 = AXIS2_PLACEMENT_3D('',#914,#915,#916);
#914 = CARTESIAN_POINT('',(88.500001333569,-80.49999766643,1.51));
#915 = DIRECTION('',(0.,0.,-1.));
#916 = DIRECTION('',(-6.671364870627E-07,-1.,-0.));
#917 = ORIENTED_EDGE('',*,*,#918,.F.);
#918 = EDGE_CURVE('',#919,#910,#921,.T.);
#919 = VERTEX_POINT('',#920);
#920 = CARTESIAN_POINT('',(88.,-80.499998,0.));
#921 = LINE('',#922,#923);
#922 = CARTESIAN_POINT('',(88.,-80.499998,0.));
#923 = VECTOR('',#924,1.);
#924 = DIRECTION('',(0.,0.,1.));
#925 = ORIENTED_EDGE('',*,*,#926,.F.);
#926 = EDGE_CURVE('',#887,#919,#927,.T.);
#927 = CIRCLE('',#928,0.500001333569);
#928 = AXIS2_PLACEMENT_3D('',#929,#930,#931);
#929 = CARTESIAN_POINT('',(88.500001333569,-80.49999766643,0.));
#930 = DIRECTION('',(0.,0.,-1.));
#931 = DIRECTION('',(-6.671364870627E-07,-1.,-0.));
#932 = CYLINDRICAL_SURFACE('',#933,0.500001333569);
#933 = AXIS2_PLACEMENT_3D('',#934,#935,#936);
#934 = CARTESIAN_POINT('',(88.500001333569,-80.49999766643,0.));
#935 = DIRECTION('',(0.,0.,-1.));
#936 = DIRECTION('',(-6.671364870627E-07,-1.,-0.));
#937 = ADVANCED_FACE('',(#938),#963,.T.);
#938 = FACE_BOUND('',#939,.T.);
#939 = EDGE_LOOP('',(#940,#941,#949,#957));
#940 = ORIENTED_EDGE('',*,*,#918,.T.);
#941 = ORIENTED_EDGE('',*,*,#942,.T.);
#942 = EDGE_CURVE('',#910,#943,#945,.T.);
#943 = VERTEX_POINT('',#944);
#944 = CARTESIAN_POINT('',(88.,-56.5,1.51));
#945 = LINE('',#946,#947);
#946 = CARTESIAN_POINT('',(88.,-80.499998,1.51));
#947 = VECTOR('',#948,1.);
#948 = DIRECTION('',(0.,1.,0.));
#949 = ORIENTED_EDGE('',*,*,#950,.F.);
#950 = EDGE_CURVE('',#951,#943,#953,.T.);
#951 = VERTEX_POINT('',#952);
#952 = CARTESIAN_POINT('',(88.,-56.5,0.));
#953 = LINE('',#954,#955);
#954 = CARTESIAN_POINT('',(88.,-56.5,0.));
#955 = VECTOR('',#956,1.);
#956 = DIRECTION('',(0.,0.,1.));
#957 = ORIENTED_EDGE('',*,*,#958,.F.);
#958 = EDGE_CURVE('',#919,#951,#959,.T.);
#959 = LINE('',#960,#961);
#960 = CARTESIAN_POINT('',(88.,-80.499998,0.));
#961 = VECTOR('',#962,1.);
#962 = DIRECTION('',(0.,1.,0.));
#963 = PLANE('',#964);
#964 = AXIS2_PLACEMENT_3D('',#965,#966,#967);
#965 = CARTESIAN_POINT('',(88.,-80.499998,0.));
#966 = DIRECTION('',(-1.,0.,0.));
#967 = DIRECTION('',(0.,1.,0.));
#968 = ADVANCED_FACE('',(#969),#996,.T.);
#969 = FACE_BOUND('',#970,.T.);
#970 = EDGE_LOOP('',(#971,#972,#981,#989));
#971 = ORIENTED_EDGE('',*,*,#950,.T.);
#972 = ORIENTED_EDGE('',*,*,#973,.T.);
#973 = EDGE_CURVE('',#943,#974,#976,.T.);
#974 = VERTEX_POINT('',#975);
#975 = CARTESIAN_POINT('',(88.500001,-55.999999,1.51));
#976 = CIRCLE('',#977,0.500001333569);
#977 = AXIS2_PLACEMENT_3D('',#978,#979,#980);
#978 = CARTESIAN_POINT('',(88.500001333569,-56.50000033356,1.51));
#979 = DIRECTION('',(0.,0.,-1.));
#980 = DIRECTION('',(-1.,6.671364302194E-07,0.));
#981 = ORIENTED_EDGE('',*,*,#982,.F.);
#982 = EDGE_CURVE('',#983,#974,#985,.T.);
#983 = VERTEX_POINT('',#984);
#984 = CARTESIAN_POINT('',(88.500001,-55.999999,0.));
#985 = LINE('',#986,#987);
#986 = CARTESIAN_POINT('',(88.500001,-55.999999,0.));
#987 = VECTOR('',#988,1.);
#988 = DIRECTION('',(0.,0.,1.));
#989 = ORIENTED_EDGE('',*,*,#990,.F.);
#990 = EDGE_CURVE('',#951,#983,#991,.T.);
#991 = CIRCLE('',#992,0.500001333569);
#992 = AXIS2_PLACEMENT_3D('',#993,#994,#995);
#993 = CARTESIAN_POINT('',(88.500001333569,-56.50000033356,0.));
#994 = DIRECTION('',(0.,0.,-1.));
#995 = DIRECTION('',(-1.,6.671364302194E-07,0.));
#996 = CYLINDRICAL_SURFACE('',#997,0.500001333569);
#997 = AXIS2_PLACEMENT_3D('',#998,#999,#1000);
#998 = CARTESIAN_POINT('',(88.500001333569,-56.50000033356,0.));
#999 = DIRECTION('',(0.,0.,-1.));
#1000 = DIRECTION('',(-1.,6.671364302194E-07,0.));
#1001 = ADVANCED_FACE('',(#1002),#1027,.T.);
#1002 = FACE_BOUND('',#1003,.T.);
#1003 = EDGE_LOOP('',(#1004,#1005,#1013,#1021));
#1004 = ORIENTED_EDGE('',*,*,#982,.T.);
#1005 = ORIENTED_EDGE('',*,*,#1006,.T.);
#1006 = EDGE_CURVE('',#974,#1007,#1009,.T.);
#1007 = VERTEX_POINT('',#1008);
#1008 = CARTESIAN_POINT('',(97.499999,-55.999999,1.51));
#1009 = LINE('',#1010,#1011);
#1010 = CARTESIAN_POINT('',(88.500001,-55.999999,1.51));
#1011 = VECTOR('',#1012,1.);
#1012 = DIRECTION('',(1.,0.,0.));
#1013 = ORIENTED_EDGE('',*,*,#1014,.F.);
#1014 = EDGE_CURVE('',#1015,#1007,#1017,.T.);
#1015 = VERTEX_POINT('',#1016);
#1016 = CARTESIAN_POINT('',(97.499999,-55.999999,0.));
#1017 = LINE('',#1018,#1019);
#1018 = CARTESIAN_POINT('',(97.499999,-55.999999,0.));
#1019 = VECTOR('',#1020,1.);
#1020 = DIRECTION('',(0.,0.,1.));
#1021 = ORIENTED_EDGE('',*,*,#1022,.F.);
#1022 = EDGE_CURVE('',#983,#1015,#1023,.T.);
#1023 = LINE('',#1024,#1025);
#1024 = CARTESIAN_POINT('',(88.500001,-55.999999,0.));
#1025 = VECTOR('',#1026,1.);
#1026 = DIRECTION('',(1.,0.,0.));
#1027 = PLANE('',#1028);
#1028 = AXIS2_PLACEMENT_3D('',#1029,#1030,#1031);
#1029 = CARTESIAN_POINT('',(88.500001,-55.999999,0.));
#1030 = DIRECTION('',(0.,1.,0.));
#1031 = DIRECTION('',(1.,0.,0.));
#1032 = ADVANCED_FACE('',(#1033),#1060,.F.);
#1033 = FACE_BOUND('',#1034,.T.);
#1034 = EDGE_LOOP('',(#1035,#1036,#1045,#1053));
#1035 = ORIENTED_EDGE('',*,*,#1014,.T.);
#1036 = ORIENTED_EDGE('',*,*,#1037,.T.);
#1037 = EDGE_CURVE('',#1007,#1038,#1040,.T.);
#1038 = VERTEX_POINT('',#1039);
#1039 = CARTESIAN_POINT('',(98.,-55.499998,1.51));
#1040 = CIRCLE('',#1041,0.500001333569);
#1041 = AXIS2_PLACEMENT_3D('',#1042,#1043,#1044);
#1042 = CARTESIAN_POINT('',(97.499998666431,-55.49999766643,1.51));
#1043 = DIRECTION('',(0.,0.,1.));
#1044 = DIRECTION('',(6.671364586411E-07,-1.,0.));
#1045 = ORIENTED_EDGE('',*,*,#1046,.F.);
#1046 = EDGE_CURVE('',#1047,#1038,#1049,.T.);
#1047 = VERTEX_POINT('',#1048);
#1048 = CARTESIAN_POINT('',(98.,-55.499998,0.));
#1049 = LINE('',#1050,#1051);
#1050 = CARTESIAN_POINT('',(98.,-55.499998,0.));
#1051 = VECTOR('',#1052,1.);
#1052 = DIRECTION('',(0.,0.,1.));
#1053 = ORIENTED_EDGE('',*,*,#1054,.F.);
#1054 = EDGE_CURVE('',#1015,#1047,#1055,.T.);
#1055 = CIRCLE('',#1056,0.500001333569);
#1056 = AXIS2_PLACEMENT_3D('',#1057,#1058,#1059);
#1057 = CARTESIAN_POINT('',(97.499998666431,-55.49999766643,0.));
#1058 = DIRECTION('',(0.,0.,1.));
#1059 = DIRECTION('',(6.671364586411E-07,-1.,0.));
#1060 = CYLINDRICAL_SURFACE('',#1061,0.500001333569);
#1061 = AXIS2_PLACEMENT_3D('',#1062,#1063,#1064);
#1062 = CARTESIAN_POINT('',(97.499998666431,-55.49999766643,0.));
#1063 = DIRECTION('',(-0.,-0.,-1.));
#1064 = DIRECTION('',(6.671364586411E-07,-1.,0.));
#1065 = ADVANCED_FACE('',(#1066),#1091,.T.);
#1066 = FACE_BOUND('',#1067,.T.);
#1067 = EDGE_LOOP('',(#1068,#1069,#1077,#1085));
#1068 = ORIENTED_EDGE('',*,*,#1046,.T.);
#1069 = ORIENTED_EDGE('',*,*,#1070,.T.);
#1070 = EDGE_CURVE('',#1038,#1071,#1073,.T.);
#1071 = VERTEX_POINT('',#1072);
#1072 = CARTESIAN_POINT('',(98.,-47.,1.51));
#1073 = LINE('',#1074,#1075);
#1074 = CARTESIAN_POINT('',(98.,-55.499998,1.51));
#1075 = VECTOR('',#1076,1.);
#1076 = DIRECTION('',(0.,1.,0.));
#1077 = ORIENTED_EDGE('',*,*,#1078,.F.);
#1078 = EDGE_CURVE('',#1079,#1071,#1081,.T.);
#1079 = VERTEX_POINT('',#1080);
#1080 = CARTESIAN_POINT('',(98.,-47.,0.));
#1081 = LINE('',#1082,#1083);
#1082 = CARTESIAN_POINT('',(98.,-47.,0.));
#1083 = VECTOR('',#1084,1.);
#1084 = DIRECTION('',(0.,0.,1.));
#1085 = ORIENTED_EDGE('',*,*,#1086,.F.);
#1086 = EDGE_CURVE('',#1047,#1079,#1087,.T.);
#1087 = LINE('',#1088,#1089);
#1088 = CARTESIAN_POINT('',(98.,-55.499998,0.));
#1089 = VECTOR('',#1090,1.);
#1090 = DIRECTION('',(0.,1.,0.));
#1091 = PLANE('',#1092);
#1092 = AXIS2_PLACEMENT_3D('',#1093,#1094,#1095);
#1093 = CARTESIAN_POINT('',(98.,-55.499998,0.));
#1094 = DIRECTION('',(-1.,0.,0.));
#1095 = DIRECTION('',(0.,1.,0.));
#1096 = ADVANCED_FACE('',(#1097),#1124,.T.);
#1097 = FACE_BOUND('',#1098,.T.);
#1098 = EDGE_LOOP('',(#1099,#1100,#1109,#1117));
#1099 = ORIENTED_EDGE('',*,*,#1078,.T.);
#1100 = ORIENTED_EDGE('',*,*,#1101,.T.);
#1101 = EDGE_CURVE('',#1071,#1102,#1104,.T.);
#1102 = VERTEX_POINT('',#1103);
#1103 = CARTESIAN_POINT('',(98.500001,-46.499999,1.51));
#1104 = CIRCLE('',#1105,0.500001333569);
#1105 = AXIS2_PLACEMENT_3D('',#1106,#1107,#1108);
#1106 = CARTESIAN_POINT('',(98.500001333569,-47.00000033356,1.51));
#1107 = DIRECTION('',(0.,0.,-1.));
#1108 = DIRECTION('',(-1.,6.671364302194E-07,0.));
#1109 = ORIENTED_EDGE('',*,*,#1110,.F.);
#1110 = EDGE_CURVE('',#1111,#1102,#1113,.T.);
#1111 = VERTEX_POINT('',#1112);
#1112 = CARTESIAN_POINT('',(98.500001,-46.499999,0.));
#1113 = LINE('',#1114,#1115);
#1114 = CARTESIAN_POINT('',(98.500001,-46.499999,0.));
#1115 = VECTOR('',#1116,1.);
#1116 = DIRECTION('',(0.,0.,1.));
#1117 = ORIENTED_EDGE('',*,*,#1118,.F.);
#1118 = EDGE_CURVE('',#1079,#1111,#1119,.T.);
#1119 = CIRCLE('',#1120,0.500001333569);
#1120 = AXIS2_PLACEMENT_3D('',#1121,#1122,#1123);
#1121 = CARTESIAN_POINT('',(98.500001333569,-47.00000033356,0.));
#1122 = DIRECTION('',(0.,0.,-1.));
#1123 = DIRECTION('',(-1.,6.671364302194E-07,0.));
#1124 = CYLINDRICAL_SURFACE('',#1125,0.500001333569);
#1125 = AXIS2_PLACEMENT_3D('',#1126,#1127,#1128);
#1126 = CARTESIAN_POINT('',(98.500001333569,-47.00000033356,0.));
#1127 = DIRECTION('',(0.,0.,-1.));
#1128 = DIRECTION('',(-1.,6.671364302194E-07,0.));
#1129 = ADVANCED_FACE('',(#1130),#1155,.T.);
#1130 = FACE_BOUND('',#1131,.T.);
#1131 = EDGE_LOOP('',(#1132,#1133,#1141,#1149));
#1132 = ORIENTED_EDGE('',*,*,#1110,.T.);
#1133 = ORIENTED_EDGE('',*,*,#1134,.T.);
#1134 = EDGE_CURVE('',#1102,#1135,#1137,.T.);
#1135 = VERTEX_POINT('',#1136);
#1136 = CARTESIAN_POINT('',(99.713457,-46.499999,1.51));
#1137 = LINE('',#1138,#1139);
#1138 = CARTESIAN_POINT('',(98.500001,-46.499999,1.51));
#1139 = VECTOR('',#1140,1.);
#1140 = DIRECTION('',(1.,0.,0.));
#1141 = ORIENTED_EDGE('',*,*,#1142,.F.);
#1142 = EDGE_CURVE('',#1143,#1135,#1145,.T.);
#1143 = VERTEX_POINT('',#1144);
#1144 = CARTESIAN_POINT('',(99.713457,-46.499999,0.));
#1145 = LINE('',#1146,#1147);
#1146 = CARTESIAN_POINT('',(99.713457,-46.499999,0.));
#1147 = VECTOR('',#1148,1.);
#1148 = DIRECTION('',(0.,0.,1.));
#1149 = ORIENTED_EDGE('',*,*,#1150,.F.);
#1150 = EDGE_CURVE('',#1111,#1143,#1151,.T.);
#1151 = LINE('',#1152,#1153);
#1152 = CARTESIAN_POINT('',(98.500001,-46.499999,0.));
#1153 = VECTOR('',#1154,1.);
#1154 = DIRECTION('',(1.,0.,0.));
#1155 = PLANE('',#1156);
#1156 = AXIS2_PLACEMENT_3D('',#1157,#1158,#1159);
#1157 = CARTESIAN_POINT('',(98.500001,-46.499999,0.));
#1158 = DIRECTION('',(0.,1.,0.));
#1159 = DIRECTION('',(1.,0.,0.));
#1160 = ADVANCED_FACE('',(#1161),#1188,.F.);
#1161 = FACE_BOUND('',#1162,.T.);
#1162 = EDGE_LOOP('',(#1163,#1164,#1173,#1181));
#1163 = ORIENTED_EDGE('',*,*,#1142,.T.);
#1164 = ORIENTED_EDGE('',*,*,#1165,.T.);
#1165 = EDGE_CURVE('',#1135,#1166,#1168,.T.);
#1166 = VERTEX_POINT('',#1167);
#1167 = CARTESIAN_POINT('',(100.213458,-45.999998,1.51));
#1168 = CIRCLE('',#1169,0.500001333569);
#1169 = AXIS2_PLACEMENT_3D('',#1170,#1171,#1172);
#1170 = CARTESIAN_POINT('',(99.713456666431,-45.99999766643,1.51));
#1171 = DIRECTION('',(0.,0.,1.));
#1172 = DIRECTION('',(6.671365154843E-07,-1.,0.));
#1173 = ORIENTED_EDGE('',*,*,#1174,.F.);
#1174 = EDGE_CURVE('',#1175,#1166,#1177,.T.);
#1175 = VERTEX_POINT('',#1176);
#1176 = CARTESIAN_POINT('',(100.213458,-45.999998,0.));
#1177 = LINE('',#1178,#1179);
#1178 = CARTESIAN_POINT('',(100.213458,-45.999998,0.));
#1179 = VECTOR('',#1180,1.);
#1180 = DIRECTION('',(0.,0.,1.));
#1181 = ORIENTED_EDGE('',*,*,#1182,.F.);
#1182 = EDGE_CURVE('',#1143,#1175,#1183,.T.);
#1183 = CIRCLE('',#1184,0.500001333569);
#1184 = AXIS2_PLACEMENT_3D('',#1185,#1186,#1187);
#1185 = CARTESIAN_POINT('',(99.713456666431,-45.99999766643,0.));
#1186 = DIRECTION('',(0.,0.,1.));
#1187 = DIRECTION('',(6.671365154843E-07,-1.,0.));
#1188 = CYLINDRICAL_SURFACE('',#1189,0.500001333569);
#1189 = AXIS2_PLACEMENT_3D('',#1190,#1191,#1192);
#1190 = CARTESIAN_POINT('',(99.713456666431,-45.99999766643,0.));
#1191 = DIRECTION('',(-0.,-0.,-1.));
#1192 = DIRECTION('',(6.671365154843E-07,-1.,0.));
#1193 = ADVANCED_FACE('',(#1194),#1219,.T.);
#1194 = FACE_BOUND('',#1195,.T.);
#1195 = EDGE_LOOP('',(#1196,#1197,#1205,#1213));
#1196 = ORIENTED_EDGE('',*,*,#1174,.T.);
#1197 = ORIENTED_EDGE('',*,*,#1198,.T.);
#1198 = EDGE_CURVE('',#1166,#1199,#1201,.T.);
#1199 = VERTEX_POINT('',#1200);
#1200 = CARTESIAN_POINT('',(100.213458,-35.4,1.51));
#1201 = LINE('',#1202,#1203);
#1202 = CARTESIAN_POINT('',(100.213458,-45.999998,1.51));
#1203 = VECTOR('',#1204,1.);
#1204 = DIRECTION('',(0.,1.,0.));
#1205 = ORIENTED_EDGE('',*,*,#1206,.F.);
#1206 = EDGE_CURVE('',#1207,#1199,#1209,.T.);
#1207 = VERTEX_POINT('',#1208);
#1208 = CARTESIAN_POINT('',(100.213458,-35.4,0.));
#1209 = LINE('',#1210,#1211);
#1210 = CARTESIAN_POINT('',(100.213458,-35.4,0.));
#1211 = VECTOR('',#1212,1.);
#1212 = DIRECTION('',(0.,0.,1.));
#1213 = ORIENTED_EDGE('',*,*,#1214,.F.);
#1214 = EDGE_CURVE('',#1175,#1207,#1215,.T.);
#1215 = LINE('',#1216,#1217);
#1216 = CARTESIAN_POINT('',(100.213458,-45.999998,0.));
#1217 = VECTOR('',#1218,1.);
#1218 = DIRECTION('',(0.,1.,0.));
#1219 = PLANE('',#1220);
#1220 = AXIS2_PLACEMENT_3D('',#1221,#1222,#1223);
#1221 = CARTESIAN_POINT('',(100.213458,-45.999998,0.));
#1222 = DIRECTION('',(-1.,0.,0.));
#1223 = DIRECTION('',(0.,1.,0.));
#1224 = ADVANCED_FACE('',(#1225),#1252,.T.);
#1225 = FACE_BOUND('',#1226,.T.);
#1226 = EDGE_LOOP('',(#1227,#1228,#1237,#1245));
#1227 = ORIENTED_EDGE('',*,*,#1206,.T.);
#1228 = ORIENTED_EDGE('',*,*,#1229,.T.);
#1229 = EDGE_CURVE('',#1199,#1230,#1232,.T.);
#1230 = VERTEX_POINT('',#1231);
#1231 = CARTESIAN_POINT('',(100.713459,-34.899999,1.51));
#1232 = CIRCLE('',#1233,0.500001333569);
#1233 = AXIS2_PLACEMENT_3D('',#1234,#1235,#1236);
#1234 = CARTESIAN_POINT('',(100.71345933356,-35.40000033356,1.51));
#1235 = DIRECTION('',(0.,0.,-1.));
#1236 = DIRECTION('',(-1.,6.671364586411E-07,0.));
#1237 = ORIENTED_EDGE('',*,*,#1238,.F.);
#1238 = EDGE_CURVE('',#1239,#1230,#1241,.T.);
#1239 = VERTEX_POINT('',#1240);
#1240 = CARTESIAN_POINT('',(100.713459,-34.899999,0.));
#1241 = LINE('',#1242,#1243);
#1242 = CARTESIAN_POINT('',(100.713459,-34.899999,0.));
#1243 = VECTOR('',#1244,1.);
#1244 = DIRECTION('',(0.,0.,1.));
#1245 = ORIENTED_EDGE('',*,*,#1246,.F.);
#1246 = EDGE_CURVE('',#1207,#1239,#1247,.T.);
#1247 = CIRCLE('',#1248,0.500001333569);
#1248 = AXIS2_PLACEMENT_3D('',#1249,#1250,#1251);
#1249 = CARTESIAN_POINT('',(100.71345933356,-35.40000033356,0.));
#1250 = DIRECTION('',(0.,0.,-1.));
#1251 = DIRECTION('',(-1.,6.671364586411E-07,0.));
#1252 = CYLINDRICAL_SURFACE('',#1253,0.500001333569);
#1253 = AXIS2_PLACEMENT_3D('',#1254,#1255,#1256);
#1254 = CARTESIAN_POINT('',(100.71345933356,-35.40000033356,0.));
#1255 = DIRECTION('',(0.,0.,-1.));
#1256 = DIRECTION('',(-1.,6.671364586411E-07,0.));
#1257 = ADVANCED_FACE('',(#1258),#1274,.T.);
#1258 = FACE_BOUND('',#1259,.T.);
#1259 = EDGE_LOOP('',(#1260,#1261,#1267,#1268));
#1260 = ORIENTED_EDGE('',*,*,#1238,.T.);
#1261 = ORIENTED_EDGE('',*,*,#1262,.T.);
#1262 = EDGE_CURVE('',#1230,#390,#1263,.T.);
#1263 = LINE('',#1264,#1265);
#1264 = CARTESIAN_POINT('',(100.713459,-34.899999,1.51));
#1265 = VECTOR('',#1266,1.);
#1266 = DIRECTION('',(1.,0.,0.));
#1267 = ORIENTED_EDGE('',*,*,#387,.F.);
#1268 = ORIENTED_EDGE('',*,*,#1269,.F.);
#1269 = EDGE_CURVE('',#1239,#388,#1270,.T.);
#1270 = LINE('',#1271,#1272);
#1271 = CARTESIAN_POINT('',(100.713459,-34.899999,0.));
#1272 = VECTOR('',#1273,1.);
#1273 = DIRECTION('',(1.,0.,0.));
#1274 = PLANE('',#1275);
#1275 = AXIS2_PLACEMENT_3D('',#1276,#1277,#1278);
#1276 = CARTESIAN_POINT('',(100.713459,-34.899999,0.));
#1277 = DIRECTION('',(0.,1.,0.));
#1278 = DIRECTION('',(1.,0.,0.));
#1279 = ADVANCED_FACE('',(#1280),#1310,.F.);
#1280 = FACE_BOUND('',#1281,.T.);
#1281 = EDGE_LOOP('',(#1282,#1283,#1284,#1285,#1286,#1287,#1288,#1289,
    #1290,#1291,#1292,#1293,#1294,#1295,#1296,#1297,#1298,#1299,#1300,
    #1301,#1302,#1303,#1304,#1305,#1306,#1307,#1308,#1309));
#1282 = ORIENTED_EDGE('',*,*,#414,.T.);
#1283 = ORIENTED_EDGE('',*,*,#446,.T.);
#1284 = ORIENTED_EDGE('',*,*,#478,.T.);
#1285 = ORIENTED_EDGE('',*,*,#510,.T.);
#1286 = ORIENTED_EDGE('',*,*,#542,.T.);
#1287 = ORIENTED_EDGE('',*,*,#574,.T.);
#1288 = ORIENTED_EDGE('',*,*,#606,.T.);
#1289 = ORIENTED_EDGE('',*,*,#638,.T.);
#1290 = ORIENTED_EDGE('',*,*,#670,.T.);
#1291 = ORIENTED_EDGE('',*,*,#702,.T.);
#1292 = ORIENTED_EDGE('',*,*,#734,.T.);
#1293 = ORIENTED_EDGE('',*,*,#766,.T.);
#1294 = ORIENTED_EDGE('',*,*,#798,.T.);
#1295 = ORIENTED_EDGE('',*,*,#830,.T.);
#1296 = ORIENTED_EDGE('',*,*,#862,.T.);
#1297 = ORIENTED_EDGE('',*,*,#894,.T.);
#1298 = ORIENTED_EDGE('',*,*,#926,.T.);
#1299 = ORIENTED_EDGE('',*,*,#958,.T.);
#1300 = ORIENTED_EDGE('',*,*,#990,.T.);
#1301 = ORIENTED_EDGE('',*,*,#1022,.T.);
#1302 = ORIENTED_EDGE('',*,*,#1054,.T.);
#1303 = ORIENTED_EDGE('',*,*,#1086,.T.);
#1304 = ORIENTED_EDGE('',*,*,#1118,.T.);
#1305 = ORIENTED_EDGE('',*,*,#1150,.T.);
#1306 = ORIENTED_EDGE('',*,*,#1182,.T.);
#1307 = ORIENTED_EDGE('',*,*,#1214,.T.);
#1308 = ORIENTED_EDGE('',*,*,#1246,.T.);
#1309 = ORIENTED_EDGE('',*,*,#1269,.T.);
#1310 = PLANE('',#1311);
#1311 = AXIS2_PLACEMENT_3D('',#1312,#1313,#1314);
#1312 = CARTESIAN_POINT('',(0.,0.,0.));
#1313 = DIRECTION('',(0.,0.,1.));
#1314 = DIRECTION('',(1.,0.,-0.));
#1315 = ADVANCED_FACE('',(#1316),#1346,.T.);
#1316 = FACE_BOUND('',#1317,.F.);
#1317 = EDGE_LOOP('',(#1318,#1319,#1320,#1321,#1322,#1323,#1324,#1325,
    #1326,#1327,#1328,#1329,#1330,#1331,#1332,#1333,#1334,#1335,#1336,
    #1337,#1338,#1339,#1340,#1341,#1342,#1343,#1344,#1345));
#1318 = ORIENTED_EDGE('',*,*,#397,.T.);
#1319 = ORIENTED_EDGE('',*,*,#430,.T.);
#1320 = ORIENTED_EDGE('',*,*,#461,.T.);
#1321 = ORIENTED_EDGE('',*,*,#494,.T.);
#1322 = ORIENTED_EDGE('',*,*,#525,.T.);
#1323 = ORIENTED_EDGE('',*,*,#558,.T.);
#1324 = ORIENTED_EDGE('',*,*,#589,.T.);
#1325 = ORIENTED_EDGE('',*,*,#622,.T.);
#1326 = ORIENTED_EDGE('',*,*,#653,.T.);
#1327 = ORIENTED_EDGE('',*,*,#686,.T.);
#1328 = ORIENTED_EDGE('',*,*,#717,.T.);
#1329 = ORIENTED_EDGE('',*,*,#750,.T.);
#1330 = ORIENTED_EDGE('',*,*,#781,.T.);
#1331 = ORIENTED_EDGE('',*,*,#814,.T.);
#1332 = ORIENTED_EDGE('',*,*,#845,.T.);
#1333 = ORIENTED_EDGE('',*,*,#878,.T.);
#1334 = ORIENTED_EDGE('',*,*,#909,.T.);
#1335 = ORIENTED_EDGE('',*,*,#942,.T.);
#1336 = ORIENTED_EDGE('',*,*,#973,.T.);
#1337 = ORIENTED_EDGE('',*,*,#1006,.T.);
#1338 = ORIENTED_EDGE('',*,*,#1037,.T.);
#1339 = ORIENTED_EDGE('',*,*,#1070,.T.);
#1340 = ORIENTED_EDGE('',*,*,#1101,.T.);
#1341 = ORIENTED_EDGE('',*,*,#1134,.T.);
#1342 = ORIENTED_EDGE('',*,*,#1165,.T.);
#1343 = ORIENTED_EDGE('',*,*,#1198,.T.);
#1344 = ORIENTED_EDGE('',*,*,#1229,.T.);
#1345 = ORIENTED_EDGE('',*,*,#1262,.T.);
#1346 = PLANE('',#1347);
#1347 = AXIS2_PLACEMENT_3D('',#1348,#1349,#1350);
#1348 = CARTESIAN_POINT('',(0.,0.,1.51));
#1349 = DIRECTION('',(0.,0.,1.));
#1350 = DIRECTION('',(1.,0.,-0.));
#1351 = ( GEOMETRIC_REPRESENTATION_CONTEXT(3) 
GLOBAL_UNCERTAINTY_ASSIGNED_CONTEXT((#1355)) 
GLOBAL_UNIT_ASSIGNED_CONTEXT((#1352,#1353,#1354)) REPRESENTATION_CONTEXT
('Context #1','3D Context with UNIT and UNCERTAINTY') );
#1352 = ( LENGTH_UNIT() NAMED_UNIT(*) SI_UNIT(.MILLI.,.METRE.) );
#1353 = ( NAMED_UNIT(*) PLANE_ANGLE_UNIT() SI_UNIT($,.RADIAN.) );
#1354 = ( NAMED_UNIT(*) SI_UNIT($,.STERADIAN.) SOLID_ANGLE_UNIT() );
#1355 = UNCERTAINTY_MEASURE_WITH_UNIT(LENGTH_MEASURE(1.E-07),#1352,
  'distance_accuracy_value','confusion accuracy');
#1356 = CONTEXT_DEPENDENT_SHAPE_REPRESENTATION(#1357,#1359);
#1357 = ( REPRESENTATION_RELATIONSHIP('','',#380,#10) 
REPRESENTATION_RELATIONSHIP_WITH_TRANSFORMATION(#1358) 
SHAPE_REPRESENTATION_RELATIONSHIP() );
#1358 = ITEM_DEFINED_TRANSFORMATION('','',#11,#19);
#1359 = PRODUCT_DEFINITION_SHAPE('Placement','Placement of an item',
  #1360);
#1360 = NEXT_ASSEMBLY_USAGE_OCCURRENCE('2','=>[0:1:1:3]','',#5,#375,$);
#1361 = PRODUCT_RELATED_PRODUCT_CATEGORY('part',$,(#377));
#1362 = MECHANICAL_DESIGN_GEOMETRIC_PRESENTATION_REPRESENTATION('',(
    #1363),#1351);
#1363 = STYLED_ITEM('color',(#1364),#381);
#1364 = PRESENTATION_STYLE_ASSIGNMENT((#1365));
#1365 = SURFACE_STYLE_USAGE(.BOTH.,#1366);
#1366 = SURFACE_SIDE_STYLE('',(#1367));
#1367 = SURFACE_STYLE_FILL_AREA(#1368);
#1368 = FILL_AREA_STYLE('',(#1369));
#1369 = FILL_AREA_STYLE_COLOUR('',#1370);
#1370 = COLOUR_RGB('',0.313304153717,0.484529207832,0.410020903123);
#1371 = MECHANICAL_DESIGN_GEOMETRIC_PRESENTATION_REPRESENTATION('',(
    #1372,#1382,#1391,#1400),#362);
#1372 = STYLED_ITEM('color',(#1373),#39);
#1373 = PRESENTATION_STYLE_ASSIGNMENT((#1374));
#1374 = SURFACE_STYLE_USAGE(.BOTH.,#1375);
#1375 = SURFACE_SIDE_STYLE('',(#1376,#1380));
#1376 = SURFACE_STYLE_FILL_AREA(#1377);
#1377 = FILL_AREA_STYLE('',(#1378));
#1378 = FILL_AREA_STYLE_COLOUR('',#1379);
#1379 = DRAUGHTING_PRE_DEFINED_COLOUR('white');
#1380 = SURFACE_STYLE_RENDERING_WITH_PROPERTIES(.NORMAL_SHADING.,#1379,(
    #1381));
#1381 = SURFACE_STYLE_TRANSPARENT(0.100000023842);
#1382 = STYLED_ITEM('color',(#1383),#141);
#1383 = PRESENTATION_STYLE_ASSIGNMENT((#1384));
#1384 = SURFACE_STYLE_USAGE(.BOTH.,#1385);
#1385 = SURFACE_SIDE_STYLE('',(#1386,#1389));
#1386 = SURFACE_STYLE_FILL_AREA(#1387);
#1387 = FILL_AREA_STYLE('',(#1388));
#1388 = FILL_AREA_STYLE_COLOUR('',#1379);
#1389 = SURFACE_STYLE_RENDERING_WITH_PROPERTIES(.NORMAL_SHADING.,#1379,(
    #1390));
#1390 = SURFACE_STYLE_TRANSPARENT(0.100000023842);
#1391 = STYLED_ITEM('color',(#1392),#243);
#1392 = PRESENTATION_STYLE_ASSIGNMENT((#1393));
#1393 = SURFACE_STYLE_USAGE(.BOTH.,#1394);
#1394 = SURFACE_SIDE_STYLE('',(#1395,#1398));
#1395 = SURFACE_STYLE_FILL_AREA(#1396);
#1396 = FILL_AREA_STYLE('',(#1397));
#1397 = FILL_AREA_STYLE_COLOUR('',#1379);
#1398 = SURFACE_STYLE_RENDERING_WITH_PROPERTIES(.NORMAL_SHADING.,#1379,(
    #1399));
#1399 = SURFACE_STYLE_TRANSPARENT(0.100000023842);
#1400 = STYLED_ITEM('color',(#1401),#320);
#1401 = PRESENTATION_STYLE_ASSIGNMENT((#1402));
#1402 = SURFACE_STYLE_USAGE(.BOTH.,#1403);
#1403 = SURFACE_SIDE_STYLE('',(#1404,#1407));
#1404 = SURFACE_STYLE_FILL_AREA(#1405);
#1405 = FILL_AREA_STYLE('',(#1406));
#1406 = FILL_AREA_STYLE_COLOUR('',#1379);
#1407 = SURFACE_STYLE_RENDERING_WITH_PROPERTIES(.NORMAL_SHADING.,#1379,(
    #1408));
#1408 = SURFACE_STYLE_TRANSPARENT(0.100000023842);
ENDSEC;
END-ISO-10303-21;
