%TF.GenerationSoftware,KiCad,Pcbnew,9.0.6*%
%TF.CreationDate,2026-01-24T13:05:14+08:00*%
%TF.ProjectId,Lightgate(LDR),4c696768-7467-4617-9465-284c4452292e,rev?*%
%TF.SameCoordinates,Original*%
%TF.FileFunction,Profile,NP*%
%FSLAX46Y46*%
G04 Gerber Fmt 4.6, Leading zero omitted, Abs format (unit mm)*
G04 Created by KiCad (PCBNEW 9.0.6) date 2026-01-24 13:05:14*
%MOMM*%
%LPD*%
G01*
G04 APERTURE LIST*
%TA.AperFunction,Profile*%
%ADD10C,0.050000*%
%TD*%
G04 APERTURE END LIST*
D10*
X166676923Y-93250012D02*
X157676923Y-93250012D01*
X167176916Y-117750000D02*
X167176916Y-93750012D01*
X154963458Y-119350000D02*
X154963458Y-118750000D01*
X157176916Y-92750000D02*
X157176916Y-84250012D01*
X154463423Y-72150012D02*
X145463458Y-72150012D01*
X157676923Y-93250012D02*
G75*
G02*
X157176888Y-92750000I-23J500012D01*
G01*
X166676923Y-93250012D02*
G75*
G02*
X167176888Y-93750012I-23J-499988D01*
G01*
X154963458Y-118750000D02*
G75*
G02*
X155463458Y-118249958I500042J0D01*
G01*
X144963458Y-83250000D02*
G75*
G02*
X144458733Y-83750036I-500058J0D01*
G01*
X155463458Y-118250012D02*
X166676916Y-118250012D01*
X145463423Y-119850012D02*
G75*
G02*
X144963488Y-119350012I-23J499912D01*
G01*
X155463423Y-83750012D02*
G75*
G02*
X154963488Y-83250012I-23J499912D01*
G01*
X142750000Y-84250000D02*
G75*
G02*
X143250000Y-83750000I500000J0D01*
G01*
X144963458Y-72650000D02*
G75*
G02*
X145463458Y-72149958I500042J0D01*
G01*
X143250023Y-118250012D02*
G75*
G02*
X142749988Y-117750000I-23J500012D01*
G01*
X144463323Y-118250012D02*
G75*
G02*
X144963537Y-118757312I77J-500188D01*
G01*
X156676923Y-83750012D02*
X155463423Y-83750012D01*
X154963458Y-119350000D02*
G75*
G02*
X154468113Y-119850036I-500058J0D01*
G01*
X144963458Y-118757311D02*
X144963458Y-119350012D01*
X145463423Y-119850012D02*
X154468113Y-119850012D01*
X154963458Y-83250012D02*
X154963458Y-72642820D01*
X142750011Y-117750000D02*
X142750000Y-117750000D01*
X154463423Y-72150012D02*
G75*
G02*
X154963534Y-72642819I-23J-500188D01*
G01*
X142750000Y-84250000D02*
X142750000Y-117750000D01*
X156676923Y-83750012D02*
G75*
G02*
X157176888Y-84250012I-23J-499988D01*
G01*
X144458733Y-83750012D02*
X143250000Y-83750012D01*
X167176916Y-117750000D02*
G75*
G02*
X166676916Y-118250016I-500016J0D01*
G01*
X143250023Y-118250012D02*
X144463323Y-118250012D01*
X144963458Y-72650000D02*
X144963458Y-83250000D01*
M02*
