0
SECTION
2
HEADER
9
$INSUNITS
70
4
9
$ACADVER
1
AC1014
9
$HANDSEED
5
FFFF
0
ENDSEC
0
SECTION
2
TABLES
0
TABLE
2
VPORT
5
8
100
AcDbSymbolTable
0
ENDTAB
0
TABLE
2
LTYPE
5
5
100
AcDbSymbolTable
0
LTYPE
5
14
100
AcDbSymbolTableRecord
100
AcDbLinetypeTableRecord
2
BYBLOCK
70
0
0
LTYPE
5
15
100
AcDbSymbolTableRecord
100
AcDbLinetypeTableRecord
2
BYLAYER
70
0
0
LTYPE
5
16
100
AcDbSymbolTableRecord
100
AcDbLinetypeTableRecord
2
DASHED
70
0
3
Dashed __ __ __ __ __ __ __ __ __ __ __ __ __ _
72
65
73
2
40
0.75
49
0.5
74
0
49
-0.25
74
0
0
ENDTAB
0
TABLE
2
LAYER
5
2
100
AcDbSymbolTable
70
2
0
LAYER
5
50
100
AcDbSymbolTableRecord
100
AcDbLayerTableRecord
2
0
70
0
62
7
6
CONTINUOUS
0
ENDTAB
0
TABLE
2
STYLE
5
3
100
AcDbSymbolTable
70
1
0
STYLE
5
11
100
AcDbSymbolTableRecord
100
AcDbTextStyleTableRecord
2
STANDARD
70
0
0
ENDTAB
0
TABLE
2
VIEW
5
6
100
AcDbSymbolTable
70
0
0
ENDTAB
0
TABLE
2
UCS
5
7
100
AcDbSymbolTable
70
0
0
ENDTAB
0
TABLE
2
APPID
5
9
100
AcDbSymbolTable
70
2
0
APPID
5
12
100
AcDbSymbolTableRecord
100
AcDbRegAppTableRecord
2
ACAD
70
0
0
ENDTAB
0
TABLE
2
DIMSTYLE
5
A
100
AcDbSymbolTable
70
1
0
ENDTAB
0
TABLE
2
BLOCK_RECORD
5
1
100
AcDbSymbolTable
70
1
0
BLOCK_RECORD
5
1F
100
AcDbSymbolTableRecord
100
AcDbBlockTableRecord
2
*MODEL_SPACE
0
BLOCK_RECORD
5
1B
100
AcDbSymbolTableRecord
100
AcDbBlockTableRecord
2
*PAPER_SPACE
0
ENDTAB
0
ENDSEC
0
SECTION
2
BLOCKS
0
BLOCK
5
20
100
AcDbEntity
100
AcDbBlockBegin
2
*MODEL_SPACE
0
ENDBLK
5
21
100
AcDbEntity
100
AcDbBlockEnd
0
BLOCK
5
1C
100
AcDbEntity
100
AcDbBlockBegin
2
*PAPER_SPACE
0
ENDBLK
5
1D
100
AcDbEntity
100
AcDbBlockEnd
0
ENDSEC
0
SECTION
2
ENTITIES
0
CIRCLE
5
100
100
AcDbEntity
8
0
100
AcDbCircle
10
32.931764036908945
20
-76.187262172999439
30
0
40
1.4999999999999991
210
0
220
-0
230
1
0
CIRCLE
5
101
100
AcDbEntity
8
0
100
AcDbCircle
10
-34.86527878441229
20
75.322057428652414
30
0
40
1.4999999999999991
210
0
220
-0
230
1
0
CIRCLE
5
102
100
AcDbEntity
8
0
100
AcDbCircle
10
75.322057428653423
20
34.865278784410066
30
0
40
1.5000000000000036
210
0
220
-0
230
1
0
CIRCLE
5
103
100
AcDbEntity
8
0
100
AcDbCircle
10
34.865278784412283
20
75.322057428652414
30
0
40
1.4999999999999991
210
0
220
-0
230
1
0
CIRCLE
5
104
100
AcDbEntity
8
0
100
AcDbCircle
10
39.999999999999993
20
-22.499999999999993
30
0
40
1.5749999999999975
210
0
220
-0
230
1
0
CIRCLE
5
105
100
AcDbEntity
8
0
100
AcDbCircle
10
-75.322057428652954
20
-34.865278784411096
30
0
40
1.4999999999999947
210
0
220
-0
230
1
0
CIRCLE
5
106
100
AcDbEntity
8
0
100
AcDbCircle
10
-32.931764036908945
20
-76.187262172999439
30
0
40
1.4999999999999991
210
0
220
-0
230
1
0
CIRCLE
5
107
100
AcDbEntity
8
0
100
AcDbCircle
10
-75.322057428653423
20
34.865278784410066
30
0
40
1.5000000000000036
210
0
220
-0
230
1
0
CIRCLE
5
108
100
AcDbEntity
8
0
100
AcDbCircle
10
75.322057428652954
20
-34.865278784411096
30
0
40
1.4999999999999947
210
0
220
-0
230
1
0
CIRCLE
5
109
100
AcDbEntity
8
0
100
AcDbCircle
10
40.000000000000028
20
22.500000000000004
30
0
40
1.5749999999999975
210
0
220
-0
230
1
0
LWPOLYLINE
5
110
100
AcDbEntity
8
0
100
AcDbPolyline
90
16
70
1
43
0.0
10
28.748751335016735
20
-81.400747449897409
42
1.3032253728411676
10
29.431764036908955
20
-80.717734748005213
42
-0.26794919243110821
10
29.181764036908952
20
-80.284722046112975
10
29.181764036908952
20
-71.516772853681829
42
-0.26794919243114784
10
29.431764036908955
20
-71.083760151789619
42
1.3032253728412126
10
28.748751335016735
20
-70.400747449897409
42
-0.26794919243111748
10
28.315738633124514
20
-70.650747449897409
10
27.947789440693391
20
-70.650747449897409
42
-0.26794919243111631
10
27.514776738801174
20
-70.400747449897409
42
1.3032253728412158
10
26.83176403690895
20
-71.083760151789619
42
-0.26794919243112214
10
27.081764036908957
20
-71.516772853681829
10
27.081764036908975
20
-80.284722046112975
42
-0.26794919243113346
10
26.831764036908954
20
-80.717734748005213
42
1.3032253728411936
10
27.514776738801178
20
-81.400747449897409
42
-0.26794919243111331
10
27.947789440693388
20
-81.150747449897409
10
28.315738633124518
20
-81.150747449897395
42
-0.2679491924311157
0
CIRCLE
5
111
100
AcDbEntity
8
0
100
AcDbCircle
10
-40
20
-22.499999999999993
30
0
40
1.575000000000002
210
0
220
-0
230
1
0
LWPOLYLINE
5
112
100
AcDbEntity
8
0
100
AcDbPolyline
90
16
70
1
43
0.0
10
-27.514776738801135
20
-81.40074744989721
42
1.3032253728412306
10
-26.831764036908929
20
-80.717734748005
42
-0.26794919243114984
10
-27.081764036908918
20
-80.284722046112776
10
-27.081764036908851
20
-71.516772853681644
42
-0.26794919243113763
10
-26.831764036908844
20
-71.08376015178942
42
1.3032253728411962
10
-27.514776738801054
20
-70.40074744989721
42
-0.26794919243114762
10
-27.947789440693281
20
-70.650747449897196
10
-28.315738633124404
20
-70.650747449897182
42
-0.26794919243110737
10
-28.748751335016614
20
-70.400747449897196
42
1.3032253728412209
10
-29.431764036908831
20
-71.083760151789406
42
-0.26794919243111831
10
-29.181764036908838
20
-71.51677285368163
10
-29.181764036908902
20
-80.284722046112762
42
-0.26794919243112525
10
-29.431764036908916
20
-80.717734748005
42
1.3032253728411907
10
-28.748751335016696
20
-81.400747449897196
42
-0.2679491924311807
10
-28.315738633124475
20
-81.15074744989721
10
-27.947789440693349
20
-81.15074744989721
42
-0.26794919243108622
0
CIRCLE
5
113
100
AcDbEntity
8
0
100
AcDbCircle
10
-40
20
22.500000000000004
30
0
40
1.575000000000002
210
0
220
-0
230
1
0
LWPOLYLINE
5
114
100
AcDbEntity
8
0
100
AcDbPolyline
90
40
70
1
43
0.0
10
25.000000000000014
20
-38.41662601625049
10
25.000000000000064
20
-81.314205401024466
42
0.51503827291833248
10
28.976744186046581
20
-84.150747449897409
42
0.038201983391559002
10
41.442162118054178
20
-78.762600255330057
42
0.50540037051928932
10
42.166555648645698
20
-73.98636080204011
10
30.836179050532735
20
-62.655984203927453
42
-0.41421356237309476
10
30.836179050532667
20
-58.413343516808155
10
58.413343516807608
20
-30.836179050532415
42
-0.41421356237309781
10
62.655984203926906
20
-30.836179050532358
10
73.986360802040309
20
-42.166555648645485
42
0.50540037051927933
10
78.762600255330199
20
-41.442162118053922
42
0.24702861099541695
10
78.762600255330483
20
41.442162118053346
42
0.50540037051930264
10
73.986360802040451
20
42.166555648644753
10
62.655984203928753
20
30.836179050531566
42
-0.41421356237311957
10
58.413343516809277
20
30.836179050531484
10
30.83617905053465
20
58.413343516807537
42
-0.41421356237307116
10
30.836179050534582
20
62.65598420392665
10
42.166555648646565
20
73.986360802039883
42
0.5054003705192599
10
41.442162118054959
20
78.762600255329616
42
0.24702861099542212
10
-41.442162118053822
20
78.762600255330227
42
0.5054003705192831
10
-42.166555648645428
20
73.986360802040338
10
-30.836179050534064
20
62.655984203928753
42
-0.41421356237309015
10
-30.836179050534071
20
58.413343516809498
10
-58.413343516809235
20
30.836179050533939
42
-0.41421356237309809
10
-62.655984203928547
20
30.836179050533943
10
-73.986360802040139
20
42.166555648645705
42
0.50540037051928377
10
-78.762600255330028
20
41.442162118054206
42
0.24702861099542164
10
-78.762600255329886
20
-41.442162118054441
42
0.50540037051929332
10
-73.986360802039911
20
-42.166555648645868
10
-62.655984203929535
20
-30.83617905053439
42
-0.4142135623730972
10
-58.413343516810215
20
-30.836179050534231
10
-30.836179050533911
20
-58.413343516808794
42
-0.41421356237307977
10
-30.836179050533673
20
-62.655984203927986
10
-42.16655564864476
20
-73.986360802040934
42
0.5054003705192569
10
-41.442162118053012
20
-78.762600255330668
42
0.038201983391556074
10
-28.976744186046393
20
-84.150747449897509
42
0.51503827291832649
10
-24.999999999999957
20
-81.314205401024509
10
-24.999999999999886
20
-38.416626016250497
42
-0.41421356237309503
10
-21.999999999999886
20
-35.416626016250497
10
22.000000000000011
20
-35.416626016250497
42
-0.41421356237309503
0
ENDSEC
0
SECTION
2
OBJECTS
0
DICTIONARY
5
C
100
AcDbDictionary
3
ACAD_GROUP
350
D
3
ACAD_MLINESTYLE
350
17
0
DICTIONARY
5
D
100
AcDbDictionary
0
DICTIONARY
5
1A
330
C
100
AcDbDictionary
0
DICTIONARY
5
17
100
AcDbDictionary
0
ENDSEC
0
EOF
