M48
; DRILL file {KiCad 9.0.6} date 2026-02-23T20:54:47+0800
; FORMAT={-:-/ absolute / inch / decimal}
; #@! TF.CreationDate,2026-02-23T20:54:47+08:00
; #@! TF.GenerationSoftware,Kicad,Pcbnew,9.0.6
; #@! TF.FileFunction,Plated,1,2,PTH
FMAT,2
INCH
; #@! TA.AperFunction,Plated,PTH,ViaDrill
T1C0.0118
; #@! TA.AperFunction,Plated,PTH,ViaDrill
T2C0.0197
; #@! TA.AperFunction,Plated,PTH,ComponentDrill
T3C0.0197
; #@! TA.AperFunction,Plated,PTH,ComponentDrill
T4C0.0276
; #@! TA.AperFunction,Plated,PTH,ComponentDrill
T5C0.0315
; #@! TA.AperFunction,Plated,PTH,ComponentDrill
T6C0.0354
; #@! TA.AperFunction,Plated,PTH,ComponentDrill
T7C0.0374
; #@! TA.AperFunction,Plated,PTH,ComponentDrill
T8C0.0394
; #@! TA.AperFunction,Plated,PTH,ComponentDrill
T9C0.0402
; #@! TA.AperFunction,Plated,PTH,ComponentDrill
T10C0.0669
; #@! TA.AperFunction,Plated,PTH,ComponentDrill
T11C0.0748
; #@! TA.AperFunction,Plated,PTH,ViaDrill
T12C0.0787
; #@! TA.AperFunction,Plated,PTH,ComponentDrill
T13C0.1260
; #@! TA.AperFunction,Plated,PTH,ComponentDrill
T14C0.1791
%
G90
G05
T1
X-3.4256Y0.4437
X-3.4256Y0.3437
X-3.4256Y0.2437
X-3.4256Y0.1437
X-3.4256Y0.0437
X-3.4256Y-0.0563
X-3.4256Y-0.1563
X-3.4256Y-0.2563
X-3.4256Y-0.3563
X-3.4256Y-0.4563
X-3.3563Y-0.6201
X-3.3256Y-0.7563
X-3.3256Y-0.8563
X-3.2256Y1.1437
X-3.2256Y1.0437
X-3.2256Y0.8437
X-3.2256Y0.7437
X-3.2256Y0.6437
X-3.2256Y0.5437
X-3.2256Y0.4437
X-3.2256Y0.3437
X-3.2256Y0.2437
X-3.2256Y-0.6563
X-3.2256Y-0.8563
X-3.2256Y-0.9563
X-3.2256Y-1.0563
X-3.2256Y-1.1563
X-3.1256Y1.4437
X-3.1256Y1.3437
X-3.1256Y1.2437
X-3.1256Y1.1437
X-3.1256Y0.8437
X-3.1256Y0.7437
X-3.1256Y0.6437
X-3.1256Y0.5437
X-3.1256Y0.4437
X-3.1256Y0.3437
X-3.1256Y0.2437
X-3.1256Y0.1437
X-3.1256Y0.0437
X-3.1256Y-0.0563
X-3.1256Y-0.1563
X-3.1256Y-0.4563
X-3.1256Y-0.5563
X-3.1256Y-0.6563
X-3.1256Y-0.7563
X-3.1256Y-0.9563
X-3.1256Y-1.0563
X-3.1256Y-1.1563
X-3.1256Y-1.2563
X-3.1256Y-1.3563
X-3.1256Y-1.4563
X-3.0256Y1.5437
X-3.0256Y0.7437
X-3.0256Y-0.9563
X-3.0256Y-1.0563
X-3.0256Y-1.1563
X-3.0256Y-1.5563
X-2.9256Y1.5437
X-2.9256Y0.7437
X-2.9256Y-0.9563
X-2.9256Y-1.0563
X-2.9256Y-1.1563
X-2.9256Y-1.5563
X-2.8256Y1.4437
X-2.8256Y1.2437
X-2.8256Y-1.0563
X-2.8256Y-1.1563
X-2.8256Y-1.2563
X-2.8256Y-1.4563
X-2.7256Y1.3437
X-2.7256Y1.2437
X-2.7256Y0.2437
X-2.7256Y0.1437
X-2.7256Y0.0437
X-2.7256Y-0.0563
X-2.7256Y-0.1563
X-2.7256Y-0.2563
X-2.7256Y-0.3563
X-2.7256Y-0.4563
X-2.7256Y-0.5563
X-2.7256Y-0.6563
X-2.7256Y-1.1563
X-2.7256Y-1.2563
X-2.7256Y-1.3563
X-2.6256Y1.2437
X-2.6256Y0.2437
X-2.6256Y0.1437
X-2.6256Y0.0437
X-2.6256Y-0.0563
X-2.6256Y-0.1563
X-2.6256Y-0.2563
X-2.6256Y-0.3563
X-2.6256Y-0.4563
X-2.6256Y-0.5563
X-2.6256Y-0.6563
X-2.6256Y-0.7563
X-2.6256Y-1.1563
X-2.6256Y-1.2563
X-2.5256Y1.0437
X-2.5256Y0.9437
X-2.5256Y-0.7563
X-2.5256Y-1.1563
X-2.4508Y-0.6988
X-2.4256Y1.0437
X-2.0965Y0.564
X-2.0374Y0.499
X-2.0256Y-0.7563
X-1.9256Y-0.4563
X-1.9193Y0.564
X-1.872Y0.6654
X-1.8406Y-0.3189
X-1.8256Y1.4437
X-1.8209Y0.8268
X-1.8209Y0.7972
X-1.8209Y0.7677
X-1.8209Y0.7382
X-1.8209Y0.7087
X-1.8209Y0.6791
X-1.8012Y0.499
X-1.7913Y0.8268
X-1.7913Y0.7972
X-1.7913Y0.7677
X-1.7913Y0.7382
X-1.7913Y0.7087
X-1.7913Y0.6791
X-1.7618Y0.8268
X-1.7618Y0.7972
X-1.7618Y0.7677
X-1.7618Y0.7382
X-1.7618Y0.7087
X-1.7618Y0.6791
X-1.7323Y0.8268
X-1.7323Y0.7972
X-1.7323Y0.7677
X-1.7323Y0.7382
X-1.7323Y0.7087
X-1.7323Y0.6791
X-1.7256Y-0.4563
X-1.7256Y-0.8563
X-1.7256Y-0.9563
X-1.7256Y-1.0563
X-1.7224Y0.3976
X-1.6801Y0.6512
X-1.6256Y3.0437
X-1.6256Y1.6437
X-1.6256Y-0.2563
X-1.6256Y-1.0563
X-1.6256Y-2.9563
X-1.624Y0.6496
X-1.624Y0.6201
X-1.624Y0.5906
X-1.624Y0.561
X-1.624Y0.5315
X-1.624Y0.502
X-1.5945Y0.6496
X-1.5945Y0.6201
X-1.5945Y0.5906
X-1.5945Y0.561
X-1.5945Y0.5315
X-1.5945Y0.502
X-1.565Y0.6496
X-1.565Y0.6201
X-1.565Y0.5906
X-1.565Y0.561
X-1.565Y0.5315
X-1.565Y0.502
X-1.538Y0.6496
X-1.538Y0.6201
X-1.538Y0.5906
X-1.538Y0.561
X-1.538Y0.5315
X-1.538Y0.502
X-1.5256Y3.0437
X-1.5256Y2.9437
X-1.5256Y1.7437
X-1.5256Y-0.4563
X-1.5256Y-0.5563
X-1.5256Y-1.0563
X-1.5256Y-2.8563
X-1.5256Y-2.9563
X-1.5256Y-3.0563
X-1.5085Y0.6496
X-1.5085Y0.6201
X-1.5085Y0.5906
X-1.5085Y0.561
X-1.5085Y0.5315
X-1.5085Y0.502
X-1.4789Y0.6496
X-1.4789Y0.6201
X-1.4789Y0.5906
X-1.4789Y0.561
X-1.4789Y0.5315
X-1.4789Y0.502
X-1.4744Y1.5906
X-1.4256Y3.1437
X-1.4256Y1.9437
X-1.4256Y1.7437
X-1.4256Y0.9437
X-1.4256Y0.8437
X-1.4256Y0.7437
X-1.4256Y-0.1563
X-1.4256Y-0.2563
X-1.4256Y-0.3563
X-1.4256Y-0.4563
X-1.4256Y-0.5563
X-1.4256Y-0.8563
X-1.4256Y-0.9563
X-1.4256Y-1.0563
X-1.4256Y-1.3563
X-1.4256Y-2.7563
X-1.4256Y-2.8563
X-1.3256Y3.1437
X-1.3256Y2.7437
X-1.3256Y2.0437
X-1.3256Y1.9437
X-1.3256Y1.7437
X-1.3256Y1.6437
X-1.3256Y0.8437
X-1.3256Y0.7437
X-1.3256Y0.6437
X-1.3256Y0.0437
X-1.3256Y-0.0563
X-1.3256Y-0.1563
X-1.3256Y-0.2563
X-1.3256Y-0.3563
X-1.3256Y-0.4563
X-1.3256Y-0.7563
X-1.3256Y-0.8563
X-1.3256Y-0.9563
X-1.3256Y-1.0563
X-1.3256Y-1.3563
X-1.3256Y-1.4563
X-1.3256Y-2.0563
X-1.3256Y-2.6563
X-1.3256Y-2.7563
X-1.3256Y-3.1563
X-1.2256Y3.1437
X-1.2256Y3.0437
X-1.2256Y2.9437
X-1.2256Y2.8437
X-1.2256Y2.7437
X-1.2256Y2.6437
X-1.2256Y2.1437
X-1.2256Y2.0437
X-1.2256Y1.9437
X-1.2256Y1.6437
X-1.2256Y1.2437
X-1.2256Y0.7437
X-1.2256Y0.6437
X-1.2256Y0.4437
X-1.2256Y0.3437
X-1.2256Y0.2437
X-1.2256Y0.1437
X-1.2256Y0.0437
X-1.2256Y-0.0563
X-1.2256Y-0.1563
X-1.2256Y-0.2563
X-1.2256Y-0.3563
X-1.2256Y-0.6563
X-1.2256Y-0.7563
X-1.2256Y-0.8563
X-1.2256Y-0.9563
X-1.2256Y-1.0563
X-1.2256Y-1.3563
X-1.2256Y-1.4563
X-1.2256Y-1.6563
X-1.2256Y-2.0563
X-1.2256Y-2.1563
X-1.2256Y-2.5563
X-1.2256Y-2.6563
X-1.2256Y-2.7563
X-1.2256Y-2.8563
X-1.2256Y-3.1563
X-1.1256Y3.2437
X-1.1256Y3.1437
X-1.1256Y3.0437
X-1.1256Y2.9437
X-1.1256Y2.8437
X-1.1256Y2.7437
X-1.1256Y2.6437
X-1.1256Y2.5437
X-1.1256Y1.2437
X-1.1256Y0.6437
X-1.1256Y-0.5563
X-1.1256Y-0.6563
X-1.1256Y-0.7563
X-1.1256Y-0.8563
X-1.1256Y-0.9563
X-1.1256Y-1.0563
X-1.1256Y-1.3563
X-1.1256Y-1.4563
X-1.1256Y-1.6563
X-1.1256Y-2.0563
X-1.1256Y-2.1563
X-1.1256Y-2.2563
X-1.1256Y-2.3563
X-1.1256Y-2.4563
X-1.1256Y-2.5563
X-1.1256Y-2.6563
X-1.063Y3.1634
X-1.0256Y3.2437
X-1.0256Y1.7437
X-1.0256Y1.2437
X-1.0256Y1.0437
X-1.0256Y0.6437
X-1.0256Y0.3437
X-1.0256Y0.2437
X-1.0256Y0.1437
X-1.0256Y0.0437
X-1.0256Y-0.1563
X-1.0256Y-0.2563
X-1.0256Y-0.3563
X-1.0256Y-0.4563
X-1.0256Y-0.5563
X-1.0256Y-0.6563
X-1.0256Y-0.7563
X-1.0256Y-0.8563
X-1.0256Y-0.9563
X-1.0256Y-1.0563
X-1.0256Y-1.3563
X-1.0256Y-1.4563
X-0.9744Y0.502
X-0.9646Y3.124
X-0.9256Y3.2437
X-0.9256Y2.2437
X-0.9256Y2.1437
X-0.9256Y2.0437
X-0.9256Y1.2437
X-0.9256Y1.0437
X-0.9256Y0.9437
X-0.9256Y-0.4563
X-0.9256Y-0.5563
X-0.9256Y-0.6563
X-0.9256Y-0.7563
X-0.9256Y-0.8563
X-0.9256Y-0.9563
X-0.9256Y-1.0563
X-0.9256Y-1.3563
X-0.8858Y1.1575
X-0.8563Y0.5668
X-0.8256Y3.3437
X-0.8256Y2.2437
X-0.8256Y2.1437
X-0.8256Y2.0437
X-0.8256Y1.2437
X-0.8256Y-0.7563
X-0.8256Y-0.8563
X-0.8256Y-0.9563
X-0.8256Y-1.0563
X-0.7972Y0.5018
X-0.7256Y3.3437
X-0.7256Y3.2437
X-0.7256Y2.2437
X-0.7256Y2.1437
X-0.7256Y2.0437
X-0.7256Y1.2437
X-0.7256Y-0.4563
X-0.7256Y-0.8563
X-0.7256Y-0.9563
X-0.7256Y-1.0563
X-0.7185Y3.0512
X-0.6791Y1.0157
X-0.6791Y0.6949
X-0.6791Y0.5668
X-0.6256Y2.5437
X-0.6256Y0.9437
X-0.6256Y-0.8563
X-0.6256Y-0.9563
X-0.6256Y-1.0563
X-0.6004Y-0.3161
X-0.5807Y0.8268
X-0.5807Y0.7972
X-0.5807Y0.7677
X-0.5807Y0.7382
X-0.5807Y0.7087
X-0.5807Y0.6791
X-0.561Y0.5018
X-0.5512Y0.8268
X-0.5512Y0.7972
X-0.5512Y0.7677
X-0.5512Y0.7382
X-0.5512Y0.7087
X-0.5512Y0.6791
X-0.5256Y1.6437
X-0.5256Y1.0437
X-0.5256Y0.9437
X-0.5256Y-0.4563
X-0.5256Y-0.8563
X-0.5256Y-0.9563
X-0.5256Y-1.0563
X-0.5217Y0.8268
X-0.5217Y0.7972
X-0.5217Y0.7677
X-0.5217Y0.7382
X-0.5217Y0.7087
X-0.5217Y0.6791
X-0.4921Y0.8268
X-0.4921Y0.7972
X-0.4921Y0.7677
X-0.4921Y0.7382
X-0.4921Y0.7087
X-0.4921Y0.6791
X-0.4823Y0.4005
X-0.44Y0.654
X-0.4291Y3.1634
X-0.4291Y2.874
X-0.4272Y3.122
X-0.4272Y2.8287
X-0.4267Y2.9724
X-0.4256Y1.2437
X-0.4256Y1.0437
X-0.4256Y0.9437
X-0.4256Y-0.2563
X-0.4256Y-0.8563
X-0.4256Y-1.0563
X-0.3839Y0.6524
X-0.3839Y0.6229
X-0.3839Y0.5934
X-0.3839Y0.5638
X-0.3839Y0.5343
X-0.3839Y0.5048
X-0.3543Y0.6524
X-0.3543Y0.6229
X-0.3543Y0.5934
X-0.3543Y0.5638
X-0.3543Y0.5343
X-0.3543Y0.5048
X-0.3256Y1.2437
X-0.3256Y1.0437
X-0.3256Y0.9437
X-0.3256Y-0.4563
X-0.3256Y-0.5563
X-0.3256Y-0.8563
X-0.3256Y-1.0563
X-0.3248Y0.6524
X-0.3248Y0.6229
X-0.3248Y0.5934
X-0.3248Y0.5638
X-0.3248Y0.5343
X-0.3248Y0.5048
X-0.2978Y0.6524
X-0.2978Y0.6229
X-0.2978Y0.5934
X-0.2978Y0.5638
X-0.2978Y0.5343
X-0.2978Y0.5048
X-0.2683Y0.6524
X-0.2683Y0.6229
X-0.2683Y0.5934
X-0.2683Y0.5638
X-0.2683Y0.5343
X-0.2683Y0.5048
X-0.2388Y0.6524
X-0.2388Y0.6229
X-0.2388Y0.5934
X-0.2388Y0.5638
X-0.2388Y0.5343
X-0.2388Y0.5048
X-0.2362Y0.3051
X-0.2256Y3.4437
X-0.2256Y1.4437
X-0.2256Y1.2437
X-0.2256Y1.0437
X-0.2256Y0.9437
X-0.2256Y-0.1563
X-0.2256Y-0.2563
X-0.2256Y-0.3563
X-0.2256Y-0.4563
X-0.2256Y-0.8563
X-0.2256Y-1.0563
X-0.1256Y3.4437
X-0.1256Y1.5437
X-0.1256Y1.4437
X-0.1256Y1.2437
X-0.1256Y1.0437
X-0.1256Y0.9437
X-0.1256Y0.6437
X-0.1256Y0.0437
X-0.1256Y-0.0563
X-0.1256Y-0.1563
X-0.1256Y-0.2563
X-0.1256Y-0.3563
X-0.1256Y-0.7563
X-0.1256Y-0.8563
X-0.1256Y-1.0563
X-0.0846Y0.5059
X-0.0335Y2.8268
X-0.0335Y2.7717
X-0.0256Y3.4437
X-0.0256Y2.4437
X-0.0256Y2.3437
X-0.0256Y2.2437
X-0.0256Y2.1437
X-0.0256Y2.0437
X-0.0256Y1.9437
X-0.0256Y1.6437
X-0.0256Y1.5437
X-0.0256Y1.4437
X-0.0256Y1.2437
X-0.0256Y1.0437
X-0.0256Y0.9437
X-0.0256Y0.6437
X-0.0256Y0.1437
X-0.0256Y0.0437
X-0.0256Y-0.0563
X-0.0256Y-0.1563
X-0.0256Y-0.2563
X-0.0256Y-0.6563
X-0.0256Y-0.7563
X-0.0256Y-0.8563
X-0.0256Y-1.0563
X0.0Y3.1634
X0.002Y3.122
X0.0039Y3.0768
X0.0039Y2.8268
X0.0744Y3.4437
X0.0744Y3.0437
X0.0744Y2.3437
X0.0744Y2.2437
X0.0744Y2.1437
X0.0744Y2.0437
X0.0744Y1.9437
X0.0744Y1.6437
X0.0744Y1.5437
X0.0744Y1.4437
X0.0744Y1.2437
X0.0744Y1.0437
X0.0744Y0.9437
X0.0744Y0.6437
X0.0744Y-0.5563
X0.0744Y-0.6563
X0.0744Y-0.7563
X0.0744Y-0.8563
X0.0744Y-1.0563
X0.1744Y3.4437
X0.1744Y3.0437
X0.1744Y1.5437
X0.1744Y1.4437
X0.1744Y1.2437
X0.1744Y1.0437
X0.1744Y0.9437
X0.1744Y0.6437
X0.1744Y-0.4563
X0.1744Y-0.5563
X0.1744Y-0.6563
X0.1744Y-0.7563
X0.1744Y-0.8563
X0.1744Y-1.0563
X0.2657Y0.5059
X0.2744Y3.4437
X0.2744Y2.9437
X0.2744Y1.4437
X0.2744Y1.2437
X0.2744Y1.0437
X0.2744Y0.9437
X0.2744Y0.2437
X0.2744Y0.1437
X0.2744Y-0.1563
X0.2744Y-0.2563
X0.2744Y-0.3563
X0.2744Y-0.4563
X0.2744Y-0.5563
X0.2744Y-0.6563
X0.2744Y-0.7563
X0.2744Y-0.8563
X0.2744Y-1.0563
X0.3744Y2.3437
X0.3744Y2.2437
X0.3744Y2.1437
X0.3744Y2.0437
X0.3744Y1.9437
X0.3744Y1.6437
X0.3744Y1.2437
X0.3744Y1.0437
X0.3744Y0.9437
X0.3744Y-0.7563
X0.3744Y-0.8563
X0.3744Y-1.0563
X0.3839Y0.5709
X0.4429Y0.5059
X0.4744Y-0.8563
X0.4744Y-0.9563
X0.4744Y-1.0563
X0.561Y1.0138
X0.561Y0.6791
X0.561Y0.5709
X0.5744Y1.2437
X0.5744Y-0.4563
X0.5744Y-0.5563
X0.5744Y-0.8563
X0.5744Y-0.9563
X0.5744Y-1.0563
X0.6398Y-0.3121
X0.6594Y0.8465
X0.6594Y0.8169
X0.6594Y0.7874
X0.6594Y0.7579
X0.6594Y0.7283
X0.6594Y0.6988
X0.6744Y1.2437
X0.6744Y1.0437
X0.6744Y0.9437
X0.6744Y-0.8563
X0.6744Y-0.9563
X0.6744Y-1.0563
X0.6791Y0.5059
X0.689Y0.8465
X0.689Y0.8169
X0.689Y0.7874
X0.689Y0.7579
X0.689Y0.7283
X0.689Y0.6988
X0.7185Y0.8465
X0.7185Y0.8169
X0.7185Y0.7874
X0.7185Y0.7579
X0.7185Y0.7283
X0.7185Y0.6988
X0.7283Y1.5945
X0.748Y0.8465
X0.748Y0.8169
X0.748Y0.7874
X0.748Y0.7579
X0.748Y0.7283
X0.748Y0.6988
X0.7579Y0.4045
X0.7744Y3.3437
X0.7744Y2.6437
X0.7744Y2.5437
X0.7744Y2.4437
X0.7744Y2.3437
X0.7744Y2.2437
X0.7744Y2.1437
X0.7744Y2.0437
X0.7744Y1.0437
X0.7744Y0.9437
X0.7744Y-0.8563
X0.7744Y-0.9563
X0.7744Y-1.0563
X0.8002Y0.658
X0.8563Y0.6564
X0.8563Y0.6269
X0.8563Y0.5974
X0.8563Y0.5679
X0.8563Y0.5383
X0.8563Y0.5088
X0.8744Y3.3437
X0.8744Y3.2437
X0.8744Y3.1437
X0.8744Y1.0437
X0.8744Y-0.8563
X0.8744Y-0.9563
X0.8744Y-1.0563
X0.8858Y0.6564
X0.8858Y0.6269
X0.8858Y0.5974
X0.8858Y0.5679
X0.8858Y0.5383
X0.8858Y0.5088
X0.9154Y0.6564
X0.9154Y0.6269
X0.9154Y0.5974
X0.9154Y0.5679
X0.9154Y0.5383
X0.9154Y0.5088
X0.9423Y0.6564
X0.9423Y0.6269
X0.9423Y0.5974
X0.9423Y0.5679
X0.9423Y0.5383
X0.9423Y0.5088
X0.9719Y0.6564
X0.9719Y0.6269
X0.9719Y0.5974
X0.9719Y0.5679
X0.9719Y0.5383
X0.9719Y0.5088
X0.9744Y3.2437
X0.9744Y3.1437
X0.9744Y2.0437
X0.9744Y1.9437
X0.9744Y1.6437
X0.9744Y1.5437
X0.9744Y1.4437
X0.9744Y1.3437
X0.9744Y0.4437
X0.9744Y0.2437
X0.9744Y-0.0563
X0.9744Y-0.1563
X0.9744Y-0.2563
X0.9744Y-0.3563
X0.9744Y-0.4563
X0.9744Y-0.5563
X0.9744Y-0.8563
X0.9744Y-0.9563
X0.9744Y-1.0563
X0.9744Y-1.3563
X1.0014Y0.6564
X1.0014Y0.6269
X1.0014Y0.5974
X1.0014Y0.5679
X1.0014Y0.5383
X1.0014Y0.5088
X1.0728Y1.2185
X1.0744Y3.2437
X1.0744Y3.1437
X1.0744Y0.3437
X1.0744Y-0.1563
X1.0744Y-0.2563
X1.0744Y-0.3563
X1.0744Y-0.4563
X1.0744Y-0.8563
X1.0744Y-0.9563
X1.0744Y-1.0563
X1.0744Y-1.3563
X1.0744Y-1.4563
X1.0744Y-1.5563
X1.0744Y-1.6563
X1.0744Y-1.7563
X1.0744Y-1.8563
X1.0744Y-1.9563
X1.0744Y-2.0563
X1.0744Y-2.1563
X1.0744Y-2.2563
X1.0744Y-2.3563
X1.0744Y-2.4563
X1.0744Y-2.5563
X1.0744Y-2.6563
X1.1744Y3.2437
X1.1744Y3.1437
X1.1744Y3.0437
X1.1744Y2.9437
X1.1744Y2.8437
X1.1744Y2.7437
X1.1744Y2.6437
X1.1744Y2.5437
X1.1744Y2.2437
X1.1744Y1.6437
X1.1744Y1.5437
X1.1744Y1.4437
X1.1744Y1.3437
X1.1744Y0.7437
X1.1744Y0.6437
X1.1744Y0.1437
X1.1744Y0.0437
X1.1744Y-0.0563
X1.1744Y-0.1563
X1.1744Y-0.2563
X1.1744Y-0.3563
X1.1744Y-0.7563
X1.1744Y-0.8563
X1.1744Y-0.9563
X1.1744Y-1.0563
X1.1744Y-1.3563
X1.1744Y-1.4563
X1.1744Y-1.5563
X1.1744Y-1.6563
X1.1744Y-1.7563
X1.1744Y-1.8563
X1.1744Y-1.9563
X1.1744Y-2.0563
X1.1744Y-2.1563
X1.1744Y-2.2563
X1.1744Y-2.5563
X1.1744Y-2.6563
X1.2744Y3.1437
X1.2744Y2.7437
X1.2744Y2.6437
X1.2744Y2.1437
X1.2744Y1.6437
X1.2744Y1.5437
X1.2744Y1.4437
X1.2744Y1.3437
X1.2744Y0.6437
X1.2744Y0.4437
X1.2744Y0.3437
X1.2744Y0.2437
X1.2744Y0.1437
X1.2744Y0.0437
X1.2744Y-0.0563
X1.2744Y-0.1563
X1.2744Y-0.2563
X1.2744Y-0.6563
X1.2744Y-0.7563
X1.2744Y-0.8563
X1.2744Y-0.9563
X1.2744Y-1.0563
X1.2744Y-1.3563
X1.2744Y-1.4563
X1.2744Y-1.5563
X1.2744Y-1.6563
X1.2744Y-1.7563
X1.2744Y-1.8563
X1.2744Y-1.9563
X1.2744Y-2.0563
X1.2744Y-2.1563
X1.2744Y-2.6563
X1.2744Y-2.7563
X1.2744Y-3.1563
X1.3744Y3.1437
X1.3744Y2.7437
X1.3744Y2.0437
X1.3744Y1.5437
X1.3744Y1.4437
X1.3744Y1.3437
X1.3744Y0.9437
X1.3744Y-0.5563
X1.3744Y-0.6563
X1.3744Y-0.7563
X1.3744Y-0.8563
X1.3744Y-0.9563
X1.3744Y-1.0563
X1.3744Y-1.3563
X1.3744Y-1.4563
X1.3744Y-1.5563
X1.3744Y-1.6563
X1.3744Y-1.7563
X1.3744Y-1.8563
X1.3744Y-1.9563
X1.3744Y-2.0563
X1.3744Y-2.7563
X1.3744Y-2.8563
X1.3744Y-3.1563
X1.4744Y2.8437
X1.4744Y1.9437
X1.4744Y1.4437
X1.4744Y1.3437
X1.4744Y1.0437
X1.4744Y0.2437
X1.4744Y0.1437
X1.4744Y-0.1563
X1.4744Y-0.2563
X1.4744Y-0.3563
X1.4744Y-0.4563
X1.4744Y-0.5563
X1.4744Y-0.6563
X1.4744Y-0.7563
X1.4744Y-1.0563
X1.4744Y-1.3563
X1.4744Y-1.4563
X1.4744Y-1.5563
X1.4744Y-1.6563
X1.4744Y-1.7563
X1.4744Y-1.8563
X1.4744Y-1.9563
X1.4744Y-2.8563
X1.4744Y-2.9563
X1.4744Y-3.0563
X1.5059Y0.5062
X1.5059Y0.3799
X1.5744Y3.0437
X1.5744Y2.9437
X1.5744Y1.8437
X1.5744Y1.3437
X1.5744Y1.0437
X1.5744Y-0.4563
X1.5744Y-0.5563
X1.5744Y-0.6563
X1.5744Y-1.0563
X1.5744Y-1.3563
X1.5744Y-1.4563
X1.5744Y-1.5563
X1.5744Y-1.6563
X1.5744Y-1.7563
X1.5744Y-1.8563
X1.5744Y-2.9563
X1.5744Y-3.0563
X1.624Y0.5712
X1.6744Y1.7437
X1.6744Y0.7437
X1.6744Y-1.0563
X1.6744Y-1.3563
X1.6744Y-1.4563
X1.6744Y-1.5563
X1.6744Y-1.6563
X1.6744Y-1.7563
X1.6831Y0.5062
X1.7744Y1.6437
X1.7744Y-0.4563
X1.7744Y-0.5563
X1.7744Y-0.8563
X1.7744Y-0.9563
X1.7744Y-1.3563
X1.7744Y-1.4563
X1.7744Y-1.5563
X1.7744Y-1.6563
X1.8012Y0.5709
X1.8031Y0.685
X1.8744Y1.5437
X1.8744Y-0.9563
X1.8744Y-1.3563
X1.8744Y-1.4563
X1.8744Y-1.5563
X1.8799Y-0.3117
X1.8996Y0.8465
X1.8996Y0.8169
X1.8996Y0.7874
X1.8996Y0.7579
X1.8996Y0.7283
X1.8996Y0.6988
X1.9193Y0.5062
X1.9291Y0.8465
X1.9291Y0.8169
X1.9291Y0.7874
X1.9291Y0.7579
X1.9291Y0.7283
X1.9291Y0.6988
X1.9587Y0.8465
X1.9587Y0.8169
X1.9587Y0.7874
X1.9587Y0.7579
X1.9587Y0.7283
X1.9587Y0.6988
X1.9744Y1.4437
X1.9744Y-0.4563
X1.9744Y-0.9563
X1.9744Y-1.3563
X1.9744Y-1.4563
X1.9882Y0.8465
X1.9882Y0.8169
X1.9882Y0.7874
X1.9882Y0.7579
X1.9882Y0.7283
X1.9882Y0.6988
X1.998Y0.4016
X2.0404Y0.6584
X2.0744Y1.3437
X2.0744Y0.9437
X2.0744Y-0.9563
X2.0744Y-1.3563
X2.0965Y0.6568
X2.0965Y0.6273
X2.0965Y0.5978
X2.0965Y0.5682
X2.0965Y0.5387
X2.0965Y0.5092
X2.126Y0.6568
X2.126Y0.6273
X2.126Y0.5978
X2.126Y0.5682
X2.126Y0.5387
X2.126Y0.5092
X2.1555Y0.6568
X2.1555Y0.6273
X2.1555Y0.5978
X2.1555Y0.5682
X2.1555Y0.5387
X2.1555Y0.5092
X2.1744Y1.2437
X2.1744Y0.9437
X2.1744Y-0.4563
X2.1744Y-0.5563
X2.1744Y-1.2563
X2.1825Y0.6568
X2.1825Y0.6273
X2.1825Y0.5978
X2.1825Y0.5682
X2.1825Y0.5387
X2.1825Y0.5092
X2.212Y0.6568
X2.212Y0.6273
X2.212Y0.5978
X2.212Y0.5682
X2.212Y0.5387
X2.212Y0.5092
X2.2415Y0.6568
X2.2415Y0.6273
X2.2415Y0.5978
X2.2415Y0.5682
X2.2415Y0.5387
X2.2415Y0.5092
X2.2744Y0.9437
X2.2744Y0.3437
X2.2744Y-0.1563
X2.2744Y-0.2563
X2.2744Y-0.3563
X2.2744Y-0.4563
X2.2744Y-1.1563
X2.3744Y0.9437
X2.3744Y0.6437
X2.3744Y0.5437
X2.3744Y0.0437
X2.3744Y-0.0563
X2.3744Y-0.1563
X2.3744Y-0.2563
X2.3744Y-0.3563
X2.3744Y-1.0563
X2.4744Y0.9437
X2.4744Y0.6437
X2.4744Y0.5437
X2.4744Y-0.9563
X2.4744Y-1.0563
X2.4744Y-1.1563
X2.5744Y1.2437
X2.5744Y0.9437
X2.5744Y0.6437
X2.5744Y0.5437
X2.5744Y-0.5563
X2.5744Y-0.6563
X2.5744Y-0.9563
X2.5744Y-1.0563
X2.5744Y-1.1563
X2.6744Y1.3437
X2.6744Y1.2437
X2.6744Y0.9437
X2.6744Y0.6437
X2.6744Y0.5437
X2.6744Y0.2437
X2.6744Y-0.1563
X2.6744Y-0.2563
X2.6744Y-0.3563
X2.6744Y-0.4563
X2.6744Y-0.5563
X2.6744Y-0.6563
X2.6744Y-1.0563
X2.6744Y-1.1563
X2.6744Y-1.2563
X2.7744Y1.4437
X2.7744Y1.3437
X2.7744Y1.2437
X2.7744Y0.9437
X2.7744Y-0.1563
X2.7744Y-0.2563
X2.7744Y-0.3563
X2.7744Y-0.4563
X2.7744Y-0.6563
X2.7744Y-1.0563
X2.7744Y-1.1563
X2.7744Y-1.2563
X2.7744Y-1.3563
X2.8744Y1.5437
X2.8744Y1.2437
X2.8744Y-1.1563
X2.9744Y1.6437
X2.9744Y1.5437
X2.9744Y0.9437
X2.9744Y-0.0563
X2.9744Y-0.1563
X2.9744Y-0.2563
X2.9744Y-0.7563
X2.9744Y-0.8563
X2.9744Y-0.9563
X2.9744Y-1.0563
X2.9744Y-1.1563
X2.9744Y-1.5563
X3.0744Y1.5437
X3.0744Y1.2437
X3.0744Y0.7437
X3.0744Y0.6437
X3.0744Y-0.5563
X3.0744Y-0.6563
X3.0744Y-0.7563
X3.0744Y-0.8563
X3.0744Y-1.0563
X3.0744Y-1.1563
X3.0744Y-1.2563
X3.0744Y-1.5563
X3.1744Y1.3437
X3.1744Y1.2437
X3.1744Y0.6437
X3.1744Y0.2437
X3.1744Y0.0437
X3.1744Y-0.0563
X3.1744Y-0.6563
X3.1744Y-0.7563
X3.1744Y-0.8563
X3.1744Y-0.9563
X3.1744Y-1.0563
X3.1744Y-1.1563
X3.1744Y-1.2563
X3.1744Y-1.3563
X3.2744Y-0.4563
X3.2744Y-0.5563
X3.2744Y-0.6563
X3.2744Y-0.7563
X3.2744Y-0.8563
X3.2744Y-0.9563
X3.2744Y-1.0563
X3.3744Y-0.4563
X3.3744Y-0.5563
X3.3744Y-0.6563
T2
X-2.4124Y0.7943
X-2.2264Y0.2224
X-1.6693Y1.5492
T3
X-2.0571Y-0.0335
X-2.0571Y-0.0807
X-2.0571Y-0.128
X-1.9547Y0.2126
X-1.9547Y0.1339
X-1.939Y-0.0335
X-1.939Y-0.0807
X-1.939Y-0.128
X-1.876Y0.2126
X-1.876Y0.1339
X-1.8051Y0.2126
X-1.8051Y0.1339
X-1.7421Y-0.0335
X-1.7421Y-0.0807
X-1.7421Y-0.128
X-1.7264Y0.2126
X-1.7264Y0.1339
X-1.624Y-0.0335
X-1.624Y-0.0807
X-1.624Y-0.128
X-0.8169Y-0.0307
X-0.8169Y-0.0779
X-0.8169Y-0.1251
X-0.7146Y0.2154
X-0.7146Y0.1367
X-0.6988Y-0.0307
X-0.6988Y-0.0779
X-0.6988Y-0.1251
X-0.6358Y0.2154
X-0.6358Y0.1367
X-0.565Y0.2154
X-0.565Y0.1367
X-0.502Y-0.0307
X-0.502Y-0.0779
X-0.502Y-0.1251
X-0.4862Y0.2154
X-0.4862Y0.1367
X-0.3839Y-0.0307
X-0.3839Y-0.0779
X-0.3839Y-0.1251
X0.4232Y-0.0266
X0.4232Y-0.0739
X0.4232Y-0.1211
X0.5256Y0.2194
X0.5256Y0.1407
X0.5413Y-0.0266
X0.5413Y-0.0739
X0.5413Y-0.1211
X0.6043Y0.2194
X0.6043Y0.1407
X0.6752Y0.2194
X0.6752Y0.1407
X0.7382Y-0.0266
X0.7382Y-0.0739
X0.7382Y-0.1211
X0.7539Y0.2194
X0.7539Y0.1407
X0.8563Y-0.0266
X0.8563Y-0.0739
X0.8563Y-0.1211
X1.6634Y-0.0263
X1.6634Y-0.0735
X1.6634Y-0.1207
X1.7657Y0.2198
X1.7657Y0.1411
X1.7815Y-0.0263
X1.7815Y-0.0735
X1.7815Y-0.1207
X1.8445Y0.2198
X1.8445Y0.1411
X1.9154Y0.2198
X1.9154Y0.1411
X1.9783Y-0.0263
X1.9783Y-0.0735
X1.9783Y-0.1207
X1.9941Y0.2198
X1.9941Y0.1411
X2.0965Y-0.0263
X2.0965Y-0.0735
X2.0965Y-0.1207
T4
X-0.6299Y3.3563
X-0.5315Y3.3563
X-0.5315Y2.5098
X-0.4331Y3.3563
X-0.4331Y2.5098
X-0.3346Y3.3563
X-0.3346Y2.5098
X-0.2362Y2.5098
X-0.2264Y3.3563
X-0.1378Y2.5098
X-0.128Y3.3563
X-0.0394Y2.5098
X-0.0295Y3.3563
X0.0689Y3.3563
X0.0689Y2.5098
X0.1673Y3.3563
X0.1673Y2.5098
X0.2657Y3.3563
X0.2657Y2.5098
X0.3642Y3.3563
X0.3642Y2.5098
X0.4626Y3.3563
X0.4626Y2.5098
X0.561Y3.3563
X0.561Y2.5098
X0.6693Y3.3563
X0.6693Y2.5098
T5
X-1.6535Y-0.4686
X-1.6535Y-0.6064
X-0.4134Y-0.4658
X-0.4134Y-0.6036
X0.8268Y-0.4618
X0.8268Y-0.5996
X2.0669Y-0.4614
X2.0669Y-0.5992
X3.2972Y0.4346
X3.2972Y0.3346
X3.2972Y0.1984
X3.2972Y0.0984
X3.2972Y-0.0378
X3.2972Y-0.1378
X3.2972Y-0.274
X3.2972Y-0.374
T6
X1.0728Y3.0807
X1.0728Y2.9823
X1.0728Y2.8839
T7
X-1.3681Y-1.5453
X-1.2697Y-1.5453
X-1.1713Y-1.5453
X-1.063Y1.938
X-1.063Y1.6614
X-0.9646Y1.938
X-0.9646Y1.6614
X-0.8848Y3.0709
X-0.8848Y2.9724
X-0.8848Y2.874
X-0.8848Y2.7756
X-0.8661Y1.938
X-0.8661Y1.6614
X-0.7677Y1.938
X-0.7677Y1.6614
X-0.6693Y1.938
X-0.6693Y1.6614
X0.8858Y3.0413
X0.8858Y2.9429
X0.8858Y2.8445
T8
X-3.2382Y0.1618
X-3.2382Y0.0618
X-3.2382Y-0.0382
X-3.2382Y-0.1382
X-3.2382Y-0.2382
X-3.2382Y-0.3382
X-3.2382Y-0.4382
X-3.2382Y-0.5382
X-2.4114Y0.1618
X-2.4114Y0.0618
X-2.4114Y-0.0382
X-2.4114Y-0.1382
X-2.4114Y-0.2382
X-2.4114Y-0.3382
X-2.4114Y-0.4382
X-2.4114Y-0.5382
X-1.9882Y-0.8356
X-1.8898Y-0.8356
X-1.437Y-0.0214
X-1.0039Y-0.0214
X-0.1969Y-0.0098
X0.2362Y-0.0098
X1.0433Y-0.0098
X1.4764Y-0.0098
X1.8504Y-0.8661
X1.9488Y-0.8661
X2.2835Y-0.0098
X2.7165Y-0.0098
X2.7559Y0.579
X2.7559Y-0.579
X3.189Y0.579
X3.189Y-0.579
T9
X-0.6331Y3.2378
X-0.6331Y2.6378
X-0.5331Y3.2378
X-0.5331Y2.6378
X-0.4331Y3.2378
X-0.4331Y2.6378
X-0.3331Y3.2378
X-0.3331Y2.6378
X-0.2331Y3.2378
X-0.2331Y2.6378
X-0.1331Y3.2378
X-0.1331Y2.6378
X-0.0331Y3.2378
X-0.0331Y2.6378
X0.0669Y3.2378
X0.0669Y2.6378
X0.1669Y3.2378
X0.1669Y2.6378
X0.2669Y3.2378
X0.2669Y2.6378
X0.3669Y3.2378
X0.3669Y2.6378
X0.4669Y3.2378
X0.4669Y2.6378
X0.5669Y3.2378
X0.5669Y2.6378
X0.6669Y3.2378
X0.6669Y3.1378
X0.6669Y3.0378
X0.6669Y2.9378
X0.6669Y2.8378
X0.6669Y2.7378
X0.6669Y2.6378
T10
X-1.3189Y0.3723
X-1.122Y0.3723
X-0.0787Y0.3839
X0.1181Y0.3839
X1.1614Y0.3839
X1.3583Y0.3839
X2.4016Y0.3839
X2.5984Y0.3839
X2.874Y0.9727
X2.874Y-0.9727
X3.0709Y0.9727
X3.0709Y-0.9727
T11
X-2.9134Y0.6004
X-2.7165Y0.6004
X-1.378Y-1.8209
X-1.1811Y-1.8209
X2.8839Y0.2559
X2.8839Y0.0295
X2.8839Y-0.1969
X3.0807Y0.2559
X3.0807Y0.0295
X3.0807Y-0.1969
T12
X0.7559Y1.8091
X1.1949Y1.8091
T13
X-2.9654Y1.3726
X-2.9654Y-1.3726
X-1.5748Y0.8858
X-1.5748Y-0.8858
X-1.3726Y2.9654
X-1.2965Y-2.9995
X1.2965Y-2.9995
X1.3726Y2.9654
X1.5748Y0.8858
X1.5748Y-0.8858
X2.9654Y1.3726
X2.9654Y-1.3726
T14
X-2.9764Y0.9055
X-2.6929Y0.9055
M30
