%TF.GenerationSoftware,KiCad,Pcbnew,9.0.6*%
%TF.CreationDate,2026-02-02T12:20:18+08:00*%
%TF.ProjectId,layer2,6c617965-7232-42e6-9b69-6361645f7063,1*%
%TF.SameCoordinates,Original*%
%TF.FileFunction,Profile,NP*%
%FSLAX46Y46*%
G04 Gerber Fmt 4.6, Leading zero omitted, Abs format (unit mm)*
G04 Created by KiCad (PCBNEW 9.0.6) date 2026-02-02 12:20:18*
%MOMM*%
%LPD*%
G01*
G04 APERTURE LIST*
%TA.AperFunction,Profile*%
%ADD10C,0.200000*%
%TD*%
G04 APERTURE END LIST*
D10*
X29181764Y-80284700D02*
X29181764Y-71516800D01*
X29181764Y-71516800D02*
G75*
G02*
X29431758Y-71083749I500136J-37D01*
G01*
X30836186Y58413337D02*
G75*
G02*
X30836184Y62655987I2121314J2121326D01*
G01*
X-42166555Y73986360D02*
X-30836178Y62655983D01*
X30840049Y-58409474D02*
X58413345Y-30836178D01*
X26831764Y-71083760D02*
G75*
G02*
X27081759Y-71518935I-249764J-432877D01*
G01*
X-73986360Y-42166555D02*
X-62655983Y-30836178D01*
X41442162Y78762600D02*
G75*
G02*
X42166567Y73986344I-1396962J-2654937D01*
G01*
X-29431764Y-71083760D02*
G75*
G02*
X-29181776Y-71516772I-250136J-433077D01*
G01*
X-25000000Y-38416627D02*
G75*
G02*
X-21999998Y-35416637I3000000J-10D01*
G01*
X58413345Y-30836178D02*
G75*
G02*
X62668372Y-30848567I2121355J-2121359D01*
G01*
X42166552Y-73986357D02*
X30836172Y-62655977D01*
X28748751Y-70400747D02*
G75*
G02*
X28315739Y-70650739I-432951J249910D01*
G01*
X-30836177Y58413346D02*
X-58413345Y30836178D01*
X-28748751Y-81400747D02*
G75*
G02*
X-28315736Y-81150745I432951J-249890D01*
G01*
X73986381Y-42166520D02*
X73986353Y-42166548D01*
X-25000000Y-81314206D02*
X-25000000Y-38416627D01*
X62668372Y-30848567D02*
X73986353Y-42166548D01*
X22000000Y-35416626D02*
G75*
G02*
X25000011Y-38416626I0J-3000011D01*
G01*
X30836187Y62655984D02*
X30836183Y62655988D01*
X25000000Y-38416626D02*
X25000000Y-81314200D01*
X28976744Y-84150747D02*
G75*
G02*
X25000030Y-81314200I-976744J2836510D01*
G01*
X-42166555Y73986360D02*
G75*
G02*
X-41442163Y78762602I2121315J2121323D01*
G01*
X-29181764Y-80284723D02*
G75*
G02*
X-29431774Y-80717718I-499936J-14D01*
G01*
X27081764Y-71518935D02*
X27081764Y-80284700D01*
X-41442162Y78762600D02*
G75*
G02*
X41442162Y78762600I41442162J-78762598D01*
G01*
X73986403Y42166598D02*
G75*
G02*
X78762621Y41442173I2121297J-2121335D01*
G01*
X-27514777Y-70400747D02*
G75*
G02*
X-26831795Y-71083706I432977J-249990D01*
G01*
X-29181764Y-71516772D02*
X-29181764Y-80284723D01*
X28315600Y-81150747D02*
G75*
G02*
X28748773Y-81400734I0J-500290D01*
G01*
X-26831764Y-80717735D02*
G75*
G02*
X-27081769Y-80284723I249964J432998D01*
G01*
X27514777Y-81400747D02*
G75*
G02*
X26831781Y-80717765I-432977J250010D01*
G01*
X-28315736Y-81150747D02*
X-27947793Y-81150747D01*
X73986403Y42166598D02*
X62655982Y30836177D01*
X-29431764Y-71083760D02*
G75*
G02*
X-28748782Y-70400765I249964J433023D01*
G01*
X-28976744Y-84150747D02*
G75*
G02*
X-41442162Y-78762600I28976644J84150510D01*
G01*
X27081764Y-80284700D02*
G75*
G02*
X26831793Y-80717785I-500264J63D01*
G01*
X-73822057Y-34865279D02*
G75*
G02*
X-76822057Y-34865279I-1500000J0D01*
G01*
X-76822057Y-34865279D02*
G75*
G02*
X-73822057Y-34865279I1500000J0D01*
G01*
X-27081764Y-71516772D02*
G75*
G02*
X-26831770Y-71083749I499964J35D01*
G01*
X-27947787Y-70650747D02*
X-28315741Y-70650747D01*
X30836172Y-62655977D02*
G75*
G02*
X30840026Y-58409451I2121228J2121340D01*
G01*
X62655982Y30836177D02*
G75*
G02*
X58413380Y30836215I-2121282J2121386D01*
G01*
X-62655983Y-30836178D02*
G75*
G02*
X-58413342Y-30836173I2121323J-2121309D01*
G01*
X-30836178Y62655983D02*
G75*
G02*
X-30836176Y58413345I-2121322J-2121320D01*
G01*
X-26831764Y-80717735D02*
G75*
G02*
X-27514807Y-81400764I-250036J-433002D01*
G01*
X27947800Y-70650747D02*
G75*
G02*
X27514824Y-70400720I0J499910D01*
G01*
X-73986360Y-42166555D02*
G75*
G02*
X-78762598Y-41442161I-2121320J2121318D01*
G01*
X-41442162Y-78762600D02*
G75*
G02*
X-42166560Y-73986355I1396922J2654923D01*
G01*
X78762600Y41442162D02*
G75*
G02*
X78762600Y-41442162I-78762598J-41442162D01*
G01*
X58413344Y30836179D02*
X30836186Y58413337D01*
X-21999998Y-35416626D02*
X22000000Y-35416626D01*
X42166552Y-73986357D02*
G75*
G02*
X41442161Y-78762598I-2121332J-2121320D01*
G01*
X28748751Y-70400747D02*
G75*
G02*
X29431782Y-71083791I433049J-249990D01*
G01*
X-27947793Y-81150747D02*
G75*
G02*
X-27514746Y-81400729I-7J-500090D01*
G01*
X28315739Y-70650747D02*
X27947800Y-70650747D01*
X-58413346Y-30836177D02*
X-30836178Y-58413345D01*
X26831764Y-71083760D02*
G75*
G02*
X27514713Y-70400784I249936J433023D01*
G01*
X29431764Y-80717735D02*
G75*
G02*
X29181758Y-80284700I250136J433098D01*
G01*
X27947700Y-81150747D02*
X28315600Y-81150747D01*
X29431764Y-80717735D02*
G75*
G02*
X28748688Y-81400783I-250064J-433002D01*
G01*
X-30836178Y-62655983D02*
X-42166555Y-73986360D01*
X-78762600Y-41442162D02*
G75*
G02*
X-78762600Y41442162I78762598J41442162D01*
G01*
X-27514777Y-70400747D02*
G75*
G02*
X-27947787Y-70650751I-433023J250010D01*
G01*
X41442162Y-78762600D02*
G75*
G02*
X28976744Y-84150747I-41442362J78763063D01*
G01*
X-27081764Y-80284723D02*
X-27081764Y-71516772D01*
X-62655983Y30836178D02*
X-73986360Y42166555D01*
X-30836178Y-58413345D02*
G75*
G02*
X-30836175Y-62655986I-2121312J-2121322D01*
G01*
X30836183Y62655988D02*
X42166553Y73986358D01*
X-28748751Y-81400747D02*
G75*
G02*
X-29431796Y-80717680I-433049J250010D01*
G01*
X78762600Y-41442162D02*
G75*
G02*
X73986374Y-42166527I-2654900J1396925D01*
G01*
X-25000000Y-81314206D02*
G75*
G02*
X-28976754Y-84150776I-3000000J-31D01*
G01*
X-58413345Y30836178D02*
G75*
G02*
X-62655983Y30836178I-2121319J2121319D01*
G01*
X27514777Y-81400747D02*
G75*
G02*
X27947700Y-81150733I433023J-249990D01*
G01*
X-28315741Y-70650747D02*
G75*
G02*
X-28748770Y-70400758I41J500110D01*
G01*
X-78762600Y41442162D02*
G75*
G02*
X-73986359Y42166556I2654920J-1396929D01*
G01*
M02*
