%TF.GenerationSoftware,KiCad,Pcbnew,9.0.6*%
%TF.CreationDate,2026-02-28T11:54:27+08:00*%
%TF.ProjectId,layer2,6c617965-7232-42e6-9b69-6361645f7063,1*%
%TF.SameCoordinates,Original*%
%TF.FileFunction,Soldermask,Bot*%
%TF.FilePolarity,Negative*%
%FSLAX46Y46*%
G04 Gerber Fmt 4.6, Leading zero omitted, Abs format (unit mm)*
G04 Created by KiCad (PCBNEW 9.0.6) date 2026-02-28 11:54:27*
%MOMM*%
%LPD*%
G01*
G04 APERTURE LIST*
G04 Aperture macros list*
%AMRoundRect*
0 Rectangle with rounded corners*
0 $1 Rounding radius*
0 $2 $3 $4 $5 $6 $7 $8 $9 X,Y pos of 4 corners*
0 Add a 4 corners polygon primitive as box body*
4,1,4,$2,$3,$4,$5,$6,$7,$8,$9,$2,$3,0*
0 Add four circle primitives for the rounded corners*
1,1,$1+$1,$2,$3*
1,1,$1+$1,$4,$5*
1,1,$1+$1,$6,$7*
1,1,$1+$1,$8,$9*
0 Add four rect primitives between the rounded corners*
20,1,$1+$1,$2,$3,$4,$5,0*
20,1,$1+$1,$4,$5,$6,$7,0*
20,1,$1+$1,$6,$7,$8,$9,0*
20,1,$1+$1,$8,$9,$2,$3,0*%
G04 Aperture macros list end*
%ADD10C,1.500000*%
%ADD11C,1.400000*%
%ADD12C,2.754000*%
%ADD13RoundRect,0.102000X1.275000X1.275000X-1.275000X1.275000X-1.275000X-1.275000X1.275000X-1.275000X0*%
%ADD14C,1.712000*%
%ADD15C,5.600000*%
%ADD16C,6.204000*%
%ADD17RoundRect,0.102000X3.000000X3.000000X-3.000000X3.000000X-3.000000X-3.000000X3.000000X-3.000000X0*%
%ADD18RoundRect,0.250000X-0.600000X-0.725000X0.600000X-0.725000X0.600000X0.725000X-0.600000X0.725000X0*%
%ADD19O,1.700000X1.950000*%
%ADD20C,3.054000*%
%ADD21RoundRect,0.102000X-1.425000X-1.425000X1.425000X-1.425000X1.425000X1.425000X-1.425000X1.425000X0*%
%ADD22C,1.734000*%
%ADD23RoundRect,0.102000X1.425000X1.425000X-1.425000X1.425000X-1.425000X-1.425000X1.425000X-1.425000X0*%
%ADD24R,1.700000X1.700000*%
%ADD25C,1.700000*%
%ADD26RoundRect,0.102000X-1.275000X-1.275000X1.275000X-1.275000X1.275000X1.275000X-1.275000X1.275000X0*%
%ADD27RoundRect,0.200000X-0.275000X0.200000X-0.275000X-0.200000X0.275000X-0.200000X0.275000X0.200000X0*%
%ADD28RoundRect,0.102000X-0.332500X0.650000X-0.332500X-0.650000X0.332500X-0.650000X0.332500X0.650000X0*%
%ADD29C,1.000000*%
%ADD30RoundRect,0.102000X-5.150000X2.625000X-5.150000X-2.625000X5.150000X-2.625000X5.150000X2.625000X0*%
%ADD31RoundRect,0.102000X-3.115000X2.625000X-3.115000X-2.625000X3.115000X-2.625000X3.115000X2.625000X0*%
%ADD32RoundRect,0.250000X0.725000X-0.600000X0.725000X0.600000X-0.725000X0.600000X-0.725000X-0.600000X0*%
%ADD33O,1.950000X1.700000*%
%ADD34RoundRect,0.061000X-0.574000X-0.244000X0.574000X-0.244000X0.574000X0.244000X-0.574000X0.244000X0*%
%ADD35RoundRect,0.061000X0.574000X0.244000X-0.574000X0.244000X-0.574000X-0.244000X0.574000X-0.244000X0*%
%ADD36RoundRect,0.187500X1.767500X-1.687500X1.767500X1.687500X-1.767500X1.687500X-1.767500X-1.687500X0*%
%ADD37RoundRect,0.250000X0.550000X-0.550000X0.550000X0.550000X-0.550000X0.550000X-0.550000X-0.550000X0*%
%ADD38C,1.600000*%
%ADD39RoundRect,0.200000X0.200000X0.275000X-0.200000X0.275000X-0.200000X-0.275000X0.200000X-0.275000X0*%
%ADD40RoundRect,0.250000X-0.725000X0.600000X-0.725000X-0.600000X0.725000X-0.600000X0.725000X0.600000X0*%
%ADD41RoundRect,0.250000X0.600000X0.750000X-0.600000X0.750000X-0.600000X-0.750000X0.600000X-0.750000X0*%
%ADD42O,1.700000X2.000000*%
G04 APERTURE END LIST*
D10*
%TO.C,TP9*%
X-1000000Y63750000D03*
%TD*%
D11*
%TO.C,SW1*%
X27250000Y73250000D03*
X27250000Y75750000D03*
X27250000Y78250000D03*
%TD*%
D12*
%TO.C,J9*%
X73000000Y24705750D03*
D13*
X78000000Y24705750D03*
D14*
X70000000Y14705750D03*
X81000000Y14705750D03*
%TD*%
D10*
%TO.C,TP17*%
X-750000Y85250000D03*
%TD*%
%TO.C,TP5*%
X-6000000Y63750000D03*
%TD*%
%TO.C,TP20*%
X6750000Y85250000D03*
%TD*%
D15*
%TO.C,H4*%
X75322057Y34865279D03*
%TD*%
D10*
%TO.C,TP11*%
X14250000Y63750000D03*
%TD*%
D15*
%TO.C,H11*%
X-32931764Y-76187262D03*
%TD*%
%TO.C,H7*%
X-40000000Y-22500000D03*
%TD*%
D10*
%TO.C,TP21*%
X9250000Y85250000D03*
%TD*%
%TO.C,TP16*%
X-3250000Y85250000D03*
%TD*%
D16*
%TO.C,J12*%
X-75600000Y23000000D03*
D17*
X-68400000Y23000000D03*
%TD*%
D10*
%TO.C,TP13*%
X-3500000Y63750000D03*
%TD*%
D18*
%TO.C,J1*%
X-34750000Y-39250000D03*
D19*
X-32250000Y-39250000D03*
X-29750000Y-39250000D03*
%TD*%
D15*
%TO.C,H9*%
X-75322057Y-34865279D03*
%TD*%
D20*
%TO.C,J2*%
X-30000000Y-46250000D03*
D21*
X-35000000Y-46250000D03*
%TD*%
D22*
%TO.C,U1*%
X-13540000Y67000000D03*
X-11000000Y67000000D03*
X-8460000Y67000000D03*
X-5920000Y67000000D03*
X16940000Y72080000D03*
X-11000000Y82240000D03*
X-3380000Y67000000D03*
X-840000Y67000000D03*
X1700000Y67000000D03*
X4240000Y67000000D03*
X6780000Y67000000D03*
X9320000Y67000000D03*
X11860000Y67000000D03*
X14400000Y67000000D03*
X16940000Y67000000D03*
X16940000Y82240000D03*
X14400000Y82240000D03*
X11860000Y82240000D03*
X9320000Y82240000D03*
X6780000Y82240000D03*
X4240000Y82240000D03*
X1700000Y82240000D03*
X-840000Y82240000D03*
X-3380000Y82240000D03*
X-5920000Y82240000D03*
X-8460000Y82240000D03*
X-16080000Y67000000D03*
X16940000Y74620000D03*
X-13540000Y82240000D03*
X16940000Y79700000D03*
X16940000Y77160000D03*
X16940000Y69540000D03*
X-16080000Y82240000D03*
%TD*%
D15*
%TO.C,H12*%
X32931764Y-76187262D03*
%TD*%
D10*
%TO.C,TP30*%
X-16000000Y85250000D03*
%TD*%
D11*
%TO.C,TP28*%
X83750000Y-9500000D03*
X83750000Y-6960000D03*
%TD*%
D15*
%TO.C,H2*%
X34865279Y75322057D03*
%TD*%
D20*
%TO.C,KillSwitch2*%
X-74000000Y15250000D03*
D23*
X-69000000Y15250000D03*
%TD*%
D10*
%TO.C,TP10*%
X6750000Y63750000D03*
%TD*%
%TO.C,TP31*%
X-13500000Y85250000D03*
%TD*%
D18*
%TO.C,J4*%
X-27000000Y42200000D03*
D19*
X-24500000Y42200000D03*
X-22000000Y42200000D03*
X-19500000Y42200000D03*
X-17000000Y42200000D03*
%TD*%
D10*
%TO.C,TP22*%
X11750000Y85250000D03*
%TD*%
D15*
%TO.C,H8*%
X40000000Y-22500000D03*
%TD*%
%TO.C,H3*%
X-75322057Y34865279D03*
%TD*%
D10*
%TO.C,TP4*%
X-13500000Y63750000D03*
%TD*%
%TO.C,TP14*%
X4250000Y63750000D03*
%TD*%
D11*
%TO.C,TP1*%
X83750000Y-3500000D03*
X83750000Y-960000D03*
%TD*%
D18*
%TO.C,J10*%
X-27000000Y49225000D03*
D19*
X-24500000Y49225000D03*
X-22000000Y49225000D03*
X-19500000Y49225000D03*
X-17000000Y49225000D03*
%TD*%
D15*
%TO.C,H5*%
X-40000000Y22500000D03*
%TD*%
D10*
%TO.C,TP27*%
X17000000Y85250000D03*
%TD*%
D24*
%TO.C,U3*%
X-82250000Y-13670000D03*
D25*
X-82250000Y-11130000D03*
X-82250000Y-8590000D03*
X-82250000Y-6050000D03*
X-82250000Y-3510000D03*
X-82250000Y-970000D03*
X-82250000Y1570000D03*
X-82250000Y4110000D03*
D24*
X-61250000Y-13670000D03*
D25*
X-61250000Y-11130000D03*
X-61250000Y-8590000D03*
X-61250000Y-6050000D03*
X-61250000Y-3510000D03*
X-61250000Y-970000D03*
X-61250000Y1570000D03*
X-61250000Y4110000D03*
%TD*%
D10*
%TO.C,TP15*%
X11750000Y63750000D03*
%TD*%
%TO.C,TP6*%
X1750000Y63750000D03*
%TD*%
D11*
%TO.C,TP2*%
X83750000Y2500000D03*
X83750000Y5040000D03*
%TD*%
D10*
%TO.C,TP19*%
X4250000Y85250000D03*
%TD*%
%TO.C,TP26*%
X17000000Y63750000D03*
%TD*%
%TO.C,TP29*%
X-11000000Y85250000D03*
%TD*%
D12*
%TO.C,J8*%
X78000000Y-24705750D03*
D26*
X73000000Y-24705750D03*
D14*
X81000000Y-14705750D03*
X70000000Y-14705750D03*
%TD*%
D10*
%TO.C,TP8*%
X-8500000Y63750000D03*
%TD*%
%TO.C,TP18*%
X1750000Y85250000D03*
%TD*%
%TO.C,TP23*%
X14250000Y85250000D03*
%TD*%
D15*
%TO.C,H10*%
X75322057Y-34865279D03*
%TD*%
D11*
%TO.C,TP3*%
X83750000Y8500000D03*
X83750000Y11040000D03*
%TD*%
D15*
%TO.C,H6*%
X40000000Y22500000D03*
%TD*%
D10*
%TO.C,TP25*%
X-5750000Y85250000D03*
%TD*%
%TO.C,TP12*%
X-11000000Y63750000D03*
%TD*%
%TO.C,TP7*%
X9250000Y63750000D03*
%TD*%
D15*
%TO.C,H1*%
X-34865279Y75322057D03*
%TD*%
D10*
%TO.C,TP24*%
X-8500000Y85250000D03*
%TD*%
D27*
%TO.C,R29*%
X45750001Y14508093D03*
X45750001Y12858093D03*
%TD*%
D28*
%TO.C,U2*%
X-53750000Y10100000D03*
X-52750000Y10100000D03*
X-51750000Y10100000D03*
X-50750000Y10100000D03*
X-49750000Y10100000D03*
X-48750000Y10100000D03*
X-47750000Y10100000D03*
X-46750000Y10100000D03*
X-45750000Y10100000D03*
X-44750000Y10100000D03*
X-43750000Y10100000D03*
X-42750000Y10100000D03*
X-41750000Y10100000D03*
X-40750000Y10100000D03*
X-39750000Y10100000D03*
X-39750000Y-8100000D03*
X-40750000Y-8100000D03*
X-41750000Y-8100000D03*
X-42750000Y-8100000D03*
X-43750000Y-8100000D03*
X-44750000Y-8100000D03*
X-45750000Y-8100000D03*
X-46750000Y-8100000D03*
X-47750000Y-8100000D03*
X-48750000Y-8100000D03*
X-49750000Y-8100000D03*
X-50750000Y-8100000D03*
X-51750000Y-8100000D03*
X-52750000Y-8100000D03*
X-53750000Y-8100000D03*
D29*
X-43850000Y5400000D03*
X-45850000Y5400000D03*
X-47650000Y5400000D03*
X-49650000Y5400000D03*
D30*
X-46750000Y4050000D03*
D29*
X-43850000Y3400000D03*
X-45850000Y3400000D03*
X-47650000Y3400000D03*
X-49650000Y3400000D03*
X-49250000Y-850000D03*
X-52250000Y-850000D03*
X-49250000Y-2050000D03*
D31*
X-50915000Y-2050000D03*
D29*
X-52250000Y-2050000D03*
X-49250000Y-3250000D03*
X-52250000Y-3250000D03*
X-41250000Y-850000D03*
X-44250000Y-850000D03*
X-41250000Y-2050000D03*
D31*
X-42585000Y-2050000D03*
D29*
X-44250000Y-2050000D03*
X-41250000Y-3250000D03*
X-44250000Y-3250000D03*
%TD*%
D27*
%TO.C,R3*%
X-51750000Y14325000D03*
X-51750000Y12675000D03*
%TD*%
D32*
%TO.C,J5*%
X22500000Y72250000D03*
D33*
X22500000Y74750000D03*
X22500000Y77250000D03*
%TD*%
D27*
%TO.C,R16*%
X-18749999Y14396454D03*
X-18749999Y12746454D03*
%TD*%
D34*
%TO.C,Q2*%
X-11175000Y12801453D03*
X-11175000Y14071453D03*
X-11175000Y15341453D03*
X-11175000Y16611453D03*
D35*
X-5835000Y16611453D03*
X-5835000Y15341453D03*
X-5835000Y14071453D03*
X-5835000Y12801453D03*
D36*
X-7900000Y14676453D03*
%TD*%
D20*
%TO.C,J19*%
X78250000Y750000D03*
D21*
X73250000Y750000D03*
%TD*%
D27*
%TO.C,R17*%
X17250000Y14498784D03*
X17250000Y12848784D03*
%TD*%
D34*
%TO.C,Q4*%
X51825000Y12913092D03*
X51825000Y14183092D03*
X51825000Y15453092D03*
X51825000Y16723092D03*
D35*
X57165000Y16723092D03*
X57165000Y15453092D03*
X57165000Y14183092D03*
X57165000Y12913092D03*
D36*
X55100000Y14788092D03*
%TD*%
D37*
%TO.C,C4*%
X52499999Y-15219558D03*
D38*
X52499999Y-11719558D03*
%TD*%
D27*
%TO.C,R5*%
X-48750000Y14325000D03*
X-48750000Y12675000D03*
%TD*%
D12*
%TO.C,J14*%
X3000000Y9750000D03*
D26*
X-2000000Y9750000D03*
D14*
X6000000Y-250000D03*
X-5000000Y-250000D03*
%TD*%
D27*
%TO.C,R14*%
X-23249999Y14396454D03*
X-23249999Y12746454D03*
%TD*%
%TO.C,R10*%
X-24749999Y14396454D03*
X-24749999Y12746454D03*
%TD*%
%TO.C,R1*%
X-45750000Y14325000D03*
X-45750000Y12675000D03*
%TD*%
%TO.C,R24*%
X12750001Y14498784D03*
X12750001Y12848784D03*
%TD*%
%TO.C,R31*%
X47250001Y14508093D03*
X47250001Y12858093D03*
%TD*%
%TO.C,R8*%
X-50250000Y14325000D03*
X-50250000Y12675000D03*
%TD*%
%TO.C,R4*%
X-53250000Y14325000D03*
X-53250000Y12675000D03*
%TD*%
D28*
%TO.C,U8*%
X40750000Y10283093D03*
X41750000Y10283093D03*
X42750000Y10283093D03*
X43750000Y10283093D03*
X44750000Y10283093D03*
X45750000Y10283093D03*
X46750000Y10283093D03*
X47750000Y10283093D03*
X48750000Y10283093D03*
X49750000Y10283093D03*
X50750000Y10283093D03*
X51750000Y10283093D03*
X52750000Y10283093D03*
X53750000Y10283093D03*
X54750000Y10283093D03*
X54750000Y-7916907D03*
X53750000Y-7916907D03*
X52750000Y-7916907D03*
X51750000Y-7916907D03*
X50750000Y-7916907D03*
X49750000Y-7916907D03*
X48750000Y-7916907D03*
X47750000Y-7916907D03*
X46750000Y-7916907D03*
X45750000Y-7916907D03*
X44750000Y-7916907D03*
X43750000Y-7916907D03*
X42750000Y-7916907D03*
X41750000Y-7916907D03*
X40750000Y-7916907D03*
D29*
X50650000Y5583093D03*
X48650000Y5583093D03*
X46850000Y5583093D03*
X44850000Y5583093D03*
D30*
X47750000Y4233093D03*
D29*
X50650000Y3583093D03*
X48650000Y3583093D03*
X46850000Y3583093D03*
X44850000Y3583093D03*
X45250000Y-666907D03*
X42250000Y-666907D03*
X45250000Y-1866907D03*
D31*
X43585000Y-1866907D03*
D29*
X42250000Y-1866907D03*
X45250000Y-3066907D03*
X42250000Y-3066907D03*
X53250000Y-666907D03*
X50250000Y-666907D03*
X53250000Y-1866907D03*
D31*
X51915000Y-1866907D03*
D29*
X50250000Y-1866907D03*
X53250000Y-3066907D03*
X50250000Y-3066907D03*
%TD*%
D27*
%TO.C,R13*%
X-17249999Y14396454D03*
X-17249999Y12746454D03*
%TD*%
%TO.C,R6*%
X-54750000Y14325000D03*
X-54750000Y12675000D03*
%TD*%
D12*
%TO.C,J13*%
X-28500000Y9455750D03*
D26*
X-33500000Y9455750D03*
D14*
X-25500000Y-544250D03*
X-36500000Y-544250D03*
%TD*%
D27*
%TO.C,R28*%
X41250001Y14508093D03*
X41250001Y12858093D03*
%TD*%
%TO.C,R22*%
X8250001Y14498784D03*
X8250001Y12848784D03*
%TD*%
D34*
%TO.C,Q3*%
X20325000Y12903783D03*
X20325000Y14173783D03*
X20325000Y15443783D03*
X20325000Y16713783D03*
D35*
X25665000Y16713783D03*
X25665000Y15443783D03*
X25665000Y14173783D03*
X25665000Y12903783D03*
D36*
X23600000Y14778783D03*
%TD*%
D27*
%TO.C,R9*%
X-14250000Y14396454D03*
X-14250000Y12746454D03*
%TD*%
%TO.C,R27*%
X42750001Y14508093D03*
X42750001Y12858093D03*
%TD*%
D39*
%TO.C,R33*%
X23575000Y68500000D03*
X21925000Y68500000D03*
%TD*%
D20*
%TO.C,J6*%
X78250000Y-5000000D03*
D21*
X73250000Y-5000000D03*
%TD*%
D27*
%TO.C,R21*%
X14250001Y14498784D03*
X14250001Y12848784D03*
%TD*%
D37*
%TO.C,C3*%
X20999999Y-15228867D03*
D38*
X20999999Y-11728867D03*
%TD*%
D27*
%TO.C,R32*%
X44250001Y14508093D03*
X44250001Y12858093D03*
%TD*%
D37*
%TO.C,C1*%
X-42000000Y-15402651D03*
D38*
X-42000000Y-11902651D03*
%TD*%
D20*
%TO.C,J7*%
X78250000Y6500000D03*
D21*
X73250000Y6500000D03*
%TD*%
D27*
%TO.C,R12*%
X-21749999Y14396454D03*
X-21749999Y12746454D03*
%TD*%
%TO.C,R11*%
X-20249999Y14396454D03*
X-20249999Y12746454D03*
%TD*%
D28*
%TO.C,U6*%
X9250000Y10273784D03*
X10250000Y10273784D03*
X11250000Y10273784D03*
X12250000Y10273784D03*
X13250000Y10273784D03*
X14250000Y10273784D03*
X15250000Y10273784D03*
X16250000Y10273784D03*
X17250000Y10273784D03*
X18250000Y10273784D03*
X19250000Y10273784D03*
X20250000Y10273784D03*
X21250000Y10273784D03*
X22250000Y10273784D03*
X23250000Y10273784D03*
X23250000Y-7926216D03*
X22250000Y-7926216D03*
X21250000Y-7926216D03*
X20250000Y-7926216D03*
X19250000Y-7926216D03*
X18250000Y-7926216D03*
X17250000Y-7926216D03*
X16250000Y-7926216D03*
X15250000Y-7926216D03*
X14250000Y-7926216D03*
X13250000Y-7926216D03*
X12250000Y-7926216D03*
X11250000Y-7926216D03*
X10250000Y-7926216D03*
X9250000Y-7926216D03*
D29*
X19150000Y5573784D03*
X17150000Y5573784D03*
X15350000Y5573784D03*
X13350000Y5573784D03*
D30*
X16250000Y4223784D03*
D29*
X19150000Y3573784D03*
X17150000Y3573784D03*
X15350000Y3573784D03*
X13350000Y3573784D03*
X13750000Y-676216D03*
X10750000Y-676216D03*
X13750000Y-1876216D03*
D31*
X12085000Y-1876216D03*
D29*
X10750000Y-1876216D03*
X13750000Y-3076216D03*
X10750000Y-3076216D03*
X21750000Y-676216D03*
X18750000Y-676216D03*
X21750000Y-1876216D03*
D31*
X20415000Y-1876216D03*
D29*
X18750000Y-1876216D03*
X21750000Y-3076216D03*
X18750000Y-3076216D03*
%TD*%
D27*
%TO.C,R30*%
X39750001Y14508093D03*
X39750001Y12858093D03*
%TD*%
D40*
%TO.C,J3*%
X-22475000Y78000000D03*
D33*
X-22475000Y75500000D03*
X-22475000Y73000000D03*
X-22475000Y70500000D03*
%TD*%
D27*
%TO.C,R19*%
X11250001Y14498784D03*
X11250001Y12848784D03*
%TD*%
D34*
%TO.C,Q1*%
X-42675000Y12730000D03*
X-42675000Y14000000D03*
X-42675000Y15270000D03*
X-42675000Y16540000D03*
D35*
X-37335000Y16540000D03*
X-37335000Y15270000D03*
X-37335000Y14000000D03*
X-37335000Y12730000D03*
D36*
X-39400000Y14605000D03*
%TD*%
D12*
%TO.C,J15*%
X34500000Y9750000D03*
D26*
X29500000Y9750000D03*
D14*
X37500000Y-250000D03*
X26500000Y-250000D03*
%TD*%
D27*
%TO.C,R26*%
X38250001Y14508093D03*
X38250001Y12858093D03*
%TD*%
D28*
%TO.C,U4*%
X-22250000Y10171454D03*
X-21250000Y10171454D03*
X-20250000Y10171454D03*
X-19250000Y10171454D03*
X-18250000Y10171454D03*
X-17250000Y10171454D03*
X-16250000Y10171454D03*
X-15250000Y10171454D03*
X-14250000Y10171454D03*
X-13250000Y10171454D03*
X-12250000Y10171454D03*
X-11250000Y10171454D03*
X-10250000Y10171454D03*
X-9250000Y10171454D03*
X-8250000Y10171454D03*
X-8250000Y-8028546D03*
X-9250000Y-8028546D03*
X-10250000Y-8028546D03*
X-11250000Y-8028546D03*
X-12250000Y-8028546D03*
X-13250000Y-8028546D03*
X-14250000Y-8028546D03*
X-15250000Y-8028546D03*
X-16250000Y-8028546D03*
X-17250000Y-8028546D03*
X-18250000Y-8028546D03*
X-19250000Y-8028546D03*
X-20250000Y-8028546D03*
X-21250000Y-8028546D03*
X-22250000Y-8028546D03*
D29*
X-12350000Y5471454D03*
X-14350000Y5471454D03*
X-16150000Y5471454D03*
X-18150000Y5471454D03*
D30*
X-15250000Y4121454D03*
D29*
X-12350000Y3471454D03*
X-14350000Y3471454D03*
X-16150000Y3471454D03*
X-18150000Y3471454D03*
X-17750000Y-778546D03*
X-20750000Y-778546D03*
X-17750000Y-1978546D03*
D31*
X-19415000Y-1978546D03*
D29*
X-20750000Y-1978546D03*
X-17750000Y-3178546D03*
X-20750000Y-3178546D03*
X-9750000Y-778546D03*
X-12750000Y-778546D03*
X-9750000Y-1978546D03*
D31*
X-11085000Y-1978546D03*
D29*
X-12750000Y-1978546D03*
X-9750000Y-3178546D03*
X-12750000Y-3178546D03*
%TD*%
D27*
%TO.C,R20*%
X9750001Y14498784D03*
X9750001Y12848784D03*
%TD*%
D12*
%TO.C,J16*%
X66000000Y9750000D03*
D26*
X61000000Y9750000D03*
D14*
X69000000Y-250000D03*
X58000000Y-250000D03*
%TD*%
D41*
%TO.C,J17*%
X49500000Y-22000000D03*
D42*
X47000000Y-22000000D03*
%TD*%
D41*
%TO.C,J18*%
X-48000000Y-21225000D03*
D42*
X-50500000Y-21225000D03*
%TD*%
D27*
%TO.C,R23*%
X15750001Y14498784D03*
X15750001Y12848784D03*
%TD*%
%TO.C,R18*%
X6750001Y14498784D03*
X6750001Y12848784D03*
%TD*%
%TO.C,R15*%
X-15749999Y14396454D03*
X-15749999Y12746454D03*
%TD*%
%TO.C,R2*%
X-56250000Y14325000D03*
X-56250000Y12675000D03*
%TD*%
%TO.C,R25*%
X48750000Y14508093D03*
X48750000Y12858093D03*
%TD*%
%TO.C,R7*%
X-47250000Y14325000D03*
X-47250000Y12675000D03*
%TD*%
D37*
%TO.C,C2*%
X-10500001Y-15331197D03*
D38*
X-10500001Y-11831197D03*
%TD*%
M02*
