%TF.GenerationSoftware,KiCad,Pcbnew,9.0.6*%
%TF.CreationDate,2026-01-24T16:26:05+08:00*%
%TF.ProjectId,XM125_Breakout,584d3132-355f-4427-9265-616b6f75742e,rev?*%
%TF.SameCoordinates,Original*%
%TF.FileFunction,Copper,L1,Top*%
%TF.FilePolarity,Positive*%
%FSLAX46Y46*%
G04 Gerber Fmt 4.6, Leading zero omitted, Abs format (unit mm)*
G04 Created by KiCad (PCBNEW 9.0.6) date 2026-01-24 16:26:05*
%MOMM*%
%LPD*%
G01*
G04 APERTURE LIST*
G04 Aperture macros list*
%AMRoundRect*
0 Rectangle with rounded corners*
0 $1 Rounding radius*
0 $2 $3 $4 $5 $6 $7 $8 $9 X,Y pos of 4 corners*
0 Add a 4 corners polygon primitive as box body*
4,1,4,$2,$3,$4,$5,$6,$7,$8,$9,$2,$3,0*
0 Add four circle primitives for the rounded corners*
1,1,$1+$1,$2,$3*
1,1,$1+$1,$4,$5*
1,1,$1+$1,$6,$7*
1,1,$1+$1,$8,$9*
0 Add four rect primitives between the rounded corners*
20,1,$1+$1,$2,$3,$4,$5,0*
20,1,$1+$1,$4,$5,$6,$7,0*
20,1,$1+$1,$6,$7,$8,$9,0*
20,1,$1+$1,$8,$9,$2,$3,0*%
G04 Aperture macros list end*
%TA.AperFunction,EtchedComponent*%
%ADD10C,0.000000*%
%TD*%
%TA.AperFunction,SMDPad,CuDef*%
%ADD11RoundRect,0.500000X-0.000010X-0.000010X0.000010X-0.000010X0.000010X0.000010X-0.000010X0.000010X0*%
%TD*%
%TA.AperFunction,SMDPad,CuDef*%
%ADD12RoundRect,0.050800X-1.149200X-0.424200X1.149200X-0.424200X1.149200X0.424200X-1.149200X0.424200X0*%
%TD*%
%TA.AperFunction,SMDPad,CuDef*%
%ADD13RoundRect,0.050800X0.711200X-0.330200X0.711200X0.330200X-0.711200X0.330200X-0.711200X-0.330200X0*%
%TD*%
%TA.AperFunction,SMDPad,CuDef*%
%ADD14RoundRect,0.050800X-0.099200X-0.449200X0.099200X-0.449200X0.099200X0.449200X-0.099200X0.449200X0*%
%TD*%
%TA.AperFunction,SMDPad,CuDef*%
%ADD15RoundRect,0.050800X0.099200X0.449200X-0.099200X0.449200X-0.099200X-0.449200X0.099200X-0.449200X0*%
%TD*%
%TA.AperFunction,SMDPad,CuDef*%
%ADD16RoundRect,0.050800X-0.249200X-0.449200X0.249200X-0.449200X0.249200X0.449200X-0.249200X0.449200X0*%
%TD*%
%TA.AperFunction,SMDPad,CuDef*%
%ADD17RoundRect,0.050800X0.249200X0.449200X-0.249200X0.449200X-0.249200X-0.449200X0.249200X-0.449200X0*%
%TD*%
%TA.AperFunction,ComponentPad*%
%ADD18O,0.600000X1.200000*%
%TD*%
%TA.AperFunction,SMDPad,CuDef*%
%ADD19RoundRect,0.050800X-0.279400X-0.584200X0.279400X-0.584200X0.279400X0.584200X-0.279400X0.584200X0*%
%TD*%
%TA.AperFunction,SMDPad,CuDef*%
%ADD20RoundRect,0.150000X0.350000X-0.350000X0.350000X0.350000X-0.350000X0.350000X-0.350000X-0.350000X0*%
%TD*%
%TA.AperFunction,SMDPad,CuDef*%
%ADD21RoundRect,0.050800X0.624200X-0.249200X0.624200X0.249200X-0.624200X0.249200X-0.624200X-0.249200X0*%
%TD*%
%TA.AperFunction,SMDPad,CuDef*%
%ADD22RoundRect,0.050800X0.949200X-0.549200X0.949200X0.549200X-0.949200X0.549200X-0.949200X-0.549200X0*%
%TD*%
%TA.AperFunction,ComponentPad*%
%ADD23C,1.879600*%
%TD*%
%TA.AperFunction,SMDPad,CuDef*%
%ADD24RoundRect,0.050800X0.584200X-0.279400X0.584200X0.279400X-0.584200X0.279400X-0.584200X-0.279400X0*%
%TD*%
%TA.AperFunction,SMDPad,CuDef*%
%ADD25RoundRect,0.050800X-0.266700X-0.584200X0.266700X-0.584200X0.266700X0.584200X-0.266700X0.584200X0*%
%TD*%
%TA.AperFunction,SMDPad,CuDef*%
%ADD26RoundRect,0.050800X0.499200X0.449200X-0.499200X0.449200X-0.499200X-0.449200X0.499200X-0.449200X0*%
%TD*%
%TA.AperFunction,SMDPad,CuDef*%
%ADD27RoundRect,0.050800X0.279400X0.584200X-0.279400X0.584200X-0.279400X-0.584200X0.279400X-0.584200X0*%
%TD*%
%TA.AperFunction,SMDPad,CuDef*%
%ADD28RoundRect,0.050800X-0.624200X0.249200X-0.624200X-0.249200X0.624200X-0.249200X0.624200X0.249200X0*%
%TD*%
%TA.AperFunction,SMDPad,CuDef*%
%ADD29RoundRect,0.050800X-0.949200X0.549200X-0.949200X-0.549200X0.949200X-0.549200X0.949200X0.549200X0*%
%TD*%
%TA.AperFunction,ViaPad*%
%ADD30C,0.660400*%
%TD*%
%TA.AperFunction,ViaPad*%
%ADD31C,0.736600*%
%TD*%
%TA.AperFunction,ViaPad*%
%ADD32C,0.600000*%
%TD*%
%TA.AperFunction,Conductor*%
%ADD33C,0.508000*%
%TD*%
%TA.AperFunction,Conductor*%
%ADD34C,0.254000*%
%TD*%
%TA.AperFunction,Conductor*%
%ADD35C,0.381000*%
%TD*%
G04 APERTURE END LIST*
D10*
%TA.AperFunction,EtchedComponent*%
%TO.C,J1*%
G36*
X144313815Y-80070766D02*
G01*
X144435622Y-80121220D01*
X144540219Y-80201481D01*
X144620685Y-80306345D01*
X144688100Y-80557942D01*
X144688100Y-81158928D01*
X144670934Y-81289315D01*
X144620480Y-81411122D01*
X144540219Y-81515719D01*
X144435355Y-81596185D01*
X144183433Y-81663687D01*
X144052385Y-81646434D01*
X143930578Y-81595980D01*
X143825981Y-81515719D01*
X143745720Y-81411122D01*
X143695266Y-81289315D01*
X143678100Y-81158928D01*
X143678100Y-80558272D01*
X143695266Y-80427885D01*
X143745720Y-80306078D01*
X143825981Y-80201481D01*
X143930578Y-80121220D01*
X144052385Y-80070766D01*
X144183100Y-80053557D01*
X144313815Y-80070766D01*
G37*
%TD.AperFunction*%
%TA.AperFunction,EtchedComponent*%
G36*
X144313815Y-84000766D02*
G01*
X144435622Y-84051220D01*
X144540219Y-84131481D01*
X144620685Y-84236345D01*
X144688100Y-84487942D01*
X144688100Y-85588928D01*
X144670934Y-85719315D01*
X144620480Y-85841122D01*
X144540219Y-85945719D01*
X144435355Y-86026185D01*
X144183433Y-86093687D01*
X144052385Y-86076434D01*
X143930578Y-86025980D01*
X143825981Y-85945719D01*
X143745720Y-85841122D01*
X143695266Y-85719315D01*
X143678100Y-85588928D01*
X143678100Y-84488272D01*
X143695266Y-84357885D01*
X143745720Y-84236078D01*
X143825981Y-84131481D01*
X143930578Y-84051220D01*
X144052385Y-84000766D01*
X144183100Y-83983557D01*
X144313815Y-84000766D01*
G37*
%TD.AperFunction*%
%TA.AperFunction,EtchedComponent*%
G36*
X152949815Y-80070766D02*
G01*
X153071622Y-80121220D01*
X153176219Y-80201481D01*
X153256685Y-80306345D01*
X153324100Y-80557942D01*
X153324100Y-81158928D01*
X153306934Y-81289315D01*
X153256480Y-81411122D01*
X153176219Y-81515719D01*
X153071355Y-81596185D01*
X152819433Y-81663687D01*
X152688385Y-81646434D01*
X152566578Y-81595980D01*
X152461981Y-81515719D01*
X152381720Y-81411122D01*
X152331266Y-81289315D01*
X152314100Y-81158928D01*
X152314100Y-80558272D01*
X152331266Y-80427885D01*
X152381720Y-80306078D01*
X152461981Y-80201481D01*
X152566578Y-80121220D01*
X152688385Y-80070766D01*
X152819100Y-80053557D01*
X152949815Y-80070766D01*
G37*
%TD.AperFunction*%
%TA.AperFunction,EtchedComponent*%
G36*
X152949815Y-84000766D02*
G01*
X153071622Y-84051220D01*
X153176219Y-84131481D01*
X153256685Y-84236345D01*
X153324100Y-84487942D01*
X153324100Y-85588928D01*
X153306934Y-85719315D01*
X153256480Y-85841122D01*
X153176219Y-85945719D01*
X153071355Y-86026185D01*
X152819433Y-86093687D01*
X152688385Y-86076434D01*
X152566578Y-86025980D01*
X152461981Y-85945719D01*
X152381720Y-85841122D01*
X152331266Y-85719315D01*
X152314100Y-85588928D01*
X152314100Y-84488272D01*
X152331266Y-84357885D01*
X152381720Y-84236078D01*
X152461981Y-84131481D01*
X152566578Y-84051220D01*
X152688385Y-84000766D01*
X152819100Y-83983557D01*
X152949815Y-84000766D01*
G37*
%TD.AperFunction*%
%TA.AperFunction,EtchedComponent*%
%TO.C,SHLD0*%
G36*
X142182850Y-83546950D02*
G01*
X141446250Y-83546950D01*
X141446250Y-83280250D01*
X142182850Y-83280250D01*
X142182850Y-83546950D01*
G37*
%TD.AperFunction*%
%TA.AperFunction,EtchedComponent*%
G36*
X142855950Y-83546950D02*
G01*
X142119350Y-83546950D01*
X142119350Y-83280250D01*
X142855950Y-83280250D01*
X142855950Y-83546950D01*
G37*
%TD.AperFunction*%
%TA.AperFunction,EtchedComponent*%
%TO.C,I2C0*%
G36*
X157143450Y-86721950D02*
G01*
X156876750Y-86721950D01*
X156876750Y-85985350D01*
X157143450Y-85985350D01*
X157143450Y-86721950D01*
G37*
%TD.AperFunction*%
%TA.AperFunction,EtchedComponent*%
G36*
X157143450Y-87763350D02*
G01*
X156876750Y-87763350D01*
X156876750Y-86683850D01*
X157143450Y-86683850D01*
X157143450Y-87763350D01*
G37*
%TD.AperFunction*%
%TA.AperFunction,EtchedComponent*%
G36*
X157143450Y-88461850D02*
G01*
X156876750Y-88461850D01*
X156876750Y-87725250D01*
X157143450Y-87725250D01*
X157143450Y-88461850D01*
G37*
%TD.AperFunction*%
%TA.AperFunction,EtchedComponent*%
%TO.C,WU0*%
G36*
X149802850Y-97516950D02*
G01*
X149066250Y-97516950D01*
X149066250Y-97250250D01*
X149802850Y-97250250D01*
X149802850Y-97516950D01*
G37*
%TD.AperFunction*%
%TA.AperFunction,EtchedComponent*%
G36*
X150475950Y-97516950D02*
G01*
X149739350Y-97516950D01*
X149739350Y-97250250D01*
X150475950Y-97250250D01*
X150475950Y-97516950D01*
G37*
%TD.AperFunction*%
%TD*%
D11*
%TO.P,FD1,1*%
%TO.N,N/C*%
X137071100Y-84683600D03*
%TD*%
D12*
%TO.P,U1,1*%
%TO.N,3.3V*%
X141290700Y-104368600D03*
%TO.P,U1,2*%
%TO.N,GND*%
X141290700Y-105638600D03*
%TO.P,U1,3*%
%TO.N,1.8V*%
X141290700Y-106908600D03*
%TO.P,U1,4*%
%TO.N,GND*%
X141290700Y-108178600D03*
%TO.P,U1,5*%
%TO.N,CH340-RX*%
X141290700Y-109448600D03*
%TO.P,U1,6*%
%TO.N,CH340-TX*%
X141290700Y-110718600D03*
%TO.P,U1,7*%
%TO.N,GND*%
X141290700Y-111988600D03*
%TO.P,U1,8*%
%TO.N,CH340-RTS*%
X141290700Y-113258600D03*
%TO.P,U1,9*%
%TO.N,CH340-CTS*%
X141290700Y-114528600D03*
%TO.P,U1,10*%
%TO.N,GND*%
X141290700Y-115798600D03*
%TO.P,U1,11*%
%TO.N,SWD_IO*%
X141290700Y-117068600D03*
%TO.P,U1,12*%
%TO.N,SWD_CLK*%
X141290700Y-118338600D03*
%TO.P,U1,13*%
%TO.N,GND*%
X141290700Y-119608600D03*
%TO.P,U1,14*%
%TO.N,~{XM125_RESET}*%
X141290700Y-120878600D03*
%TO.P,U1,15*%
%TO.N,WAKE_UP*%
X155711500Y-120878600D03*
%TO.P,U1,16*%
%TO.N,GND*%
X155711500Y-119608600D03*
%TO.P,U1,17*%
%TO.N,SCL*%
X155711500Y-118338600D03*
%TO.P,U1,18*%
%TO.N,SDA*%
X155711500Y-117068600D03*
%TO.P,U1,19*%
%TO.N,GND*%
X155711500Y-115798600D03*
%TO.P,U1,20*%
%TO.N,XM125_I2C_ADDRESS*%
X155711500Y-114528600D03*
%TO.P,U1,21*%
%TO.N,DEBUG_UART-RX*%
X155711500Y-113258600D03*
%TO.P,U1,22*%
%TO.N,GND*%
X155711500Y-111988600D03*
%TO.P,U1,23*%
%TO.N,DEBUG_UART-TX*%
X155711500Y-110718600D03*
%TO.P,U1,24*%
%TO.N,XM125_GPIO0*%
X155711500Y-109448600D03*
%TO.P,U1,25*%
%TO.N,XM125_GPIO1*%
X155711500Y-108178600D03*
%TO.P,U1,26*%
%TO.N,XM125_GPIO2/BOOT0*%
X155711500Y-106908600D03*
%TO.P,U1,27*%
%TO.N,GND*%
X155711500Y-105638600D03*
%TO.P,U1,28*%
%TO.N,~{XM125_INT}*%
X155711500Y-104368600D03*
%TD*%
D13*
%TO.P,S2,1*%
%TO.N,~{XM125_RESET}*%
X141897100Y-125323600D03*
%TO.P,S2,2*%
X147485100Y-125323600D03*
%TO.P,S2,3*%
%TO.N,GND*%
X141897100Y-129133600D03*
%TO.P,S2,4*%
X147485100Y-129133600D03*
%TD*%
D14*
%TO.P,J1,A5*%
%TO.N,N$11*%
X149751100Y-85613600D03*
%TO.P,J1,A6*%
%TO.N,N$1*%
X148751100Y-85613600D03*
D15*
%TO.P,J1,A7*%
%TO.N,N$2*%
X148251100Y-85613600D03*
%TO.P,J1,A8*%
%TO.N,N/C*%
X147251100Y-85613600D03*
%TO.P,J1,B5*%
%TO.N,N$10*%
X146751100Y-85613600D03*
%TO.P,J1,B6*%
%TO.N,N$1*%
X147751100Y-85613600D03*
D14*
%TO.P,J1,B7*%
%TO.N,N$2*%
X149251100Y-85613600D03*
%TO.P,J1,B8*%
%TO.N,N/C*%
X150251100Y-85613600D03*
D16*
%TO.P,J1,GND*%
%TO.N,GND*%
X151726100Y-85613600D03*
D17*
%TO.P,J1,GND2*%
X145276100Y-85613600D03*
D18*
%TO.P,J1,SHLD1*%
%TO.N,N$9*%
X152819100Y-85038600D03*
%TO.P,J1,SHLD2*%
X144183100Y-85038600D03*
%TO.P,J1,SHLD3*%
X152819100Y-80858600D03*
%TO.P,J1,SHLD4*%
X144183100Y-80858600D03*
D16*
%TO.P,J1,VBUS1*%
%TO.N,V_USB*%
X150951100Y-85613600D03*
D17*
%TO.P,J1,VBUS2*%
X146051100Y-85613600D03*
%TD*%
D19*
%TO.P,SHLD0,1*%
%TO.N,GND*%
X141630400Y-83413600D03*
%TO.P,SHLD0,2*%
%TO.N,N$9*%
X142671800Y-83413600D03*
%TD*%
D20*
%TO.P,D1,A*%
%TO.N,N$15*%
X139218100Y-98018600D03*
%TO.P,D1,C*%
%TO.N,GND*%
X137464100Y-98018600D03*
%TD*%
D21*
%TO.P,J3,1*%
%TO.N,GND*%
X156121100Y-93803600D03*
%TO.P,J3,2*%
%TO.N,3.3V*%
X156121100Y-92803600D03*
%TO.P,J3,3*%
%TO.N,SDA*%
X156121100Y-91803600D03*
%TO.P,J3,4*%
%TO.N,SCL*%
X156121100Y-90803600D03*
D22*
%TO.P,J3,NC1*%
%TO.N,N/C*%
X159796100Y-89503600D03*
%TO.P,J3,NC2*%
X159796100Y-95103600D03*
%TD*%
D23*
%TO.P,J14,1*%
%TO.N,~{XM125_RESET}*%
X137071100Y-122783600D03*
%TO.P,J14,2*%
%TO.N,SWD_CLK*%
X137071100Y-120243600D03*
%TO.P,J14,3*%
%TO.N,SWD_IO*%
X137071100Y-117703600D03*
%TO.P,J14,4*%
%TO.N,GND*%
X137071100Y-115163600D03*
%TO.P,J14,5*%
X137071100Y-112623600D03*
%TO.P,J14,6*%
%TO.N,V_USB*%
X137071100Y-110083600D03*
%TO.P,J14,7*%
%TO.N,1.8V*%
X137071100Y-107543600D03*
%TO.P,J14,8*%
%TO.N,3.3V*%
X137071100Y-105003600D03*
%TO.P,J14,9*%
%TO.N,~{XM125_INT}*%
X137071100Y-102463600D03*
%TD*%
D24*
%TO.P,I2C0,1*%
%TO.N,N$17*%
X157010100Y-88265000D03*
%TO.P,I2C0,2*%
%TO.N,3.3V*%
X157010100Y-87223600D03*
%TO.P,I2C0,3*%
%TO.N,N$16*%
X157010100Y-86182200D03*
%TD*%
D25*
%TO.P,ADDR0,1*%
%TO.N,GND*%
X147688300Y-101193600D03*
%TO.P,ADDR0,2*%
%TO.N,XM125_I2C_ADDRESS*%
X148501100Y-101193600D03*
%TO.P,ADDR0,3*%
%TO.N,3.3V*%
X149313900Y-101193600D03*
%TD*%
D23*
%TO.P,J15,1*%
%TO.N,WAKE_UP*%
X159931100Y-122783600D03*
%TO.P,J15,2*%
%TO.N,SCL*%
X159931100Y-120243600D03*
%TO.P,J15,3*%
%TO.N,SDA*%
X159931100Y-117703600D03*
%TO.P,J15,4*%
%TO.N,3.3V*%
X159931100Y-115163600D03*
%TO.P,J15,5*%
%TO.N,GND*%
X159931100Y-112623600D03*
%TO.P,J15,6*%
%TO.N,XM125_I2C_ADDRESS*%
X159931100Y-110083600D03*
%TO.P,J15,7*%
%TO.N,DEBUG_UART-RX*%
X159931100Y-107543600D03*
%TO.P,J15,8*%
%TO.N,DEBUG_UART-TX*%
X159931100Y-105003600D03*
%TO.P,J15,9*%
%TO.N,XM125_GPIO0*%
X159931100Y-102463600D03*
%TO.P,J15,10*%
%TO.N,XM125_GPIO1*%
X159931100Y-99923600D03*
%TO.P,J15,11*%
%TO.N,XM125_GPIO2/BOOT0*%
X159931100Y-97383600D03*
%TD*%
D26*
%TO.P,C1,1*%
%TO.N,GND*%
X143001100Y-123418600D03*
%TO.P,C1,2*%
%TO.N,~{XM125_RESET}*%
X141301100Y-123418600D03*
%TD*%
%TO.P,R9,1*%
%TO.N,N$15*%
X139191100Y-99923600D03*
%TO.P,R9,2*%
%TO.N,N$14*%
X137491100Y-99923600D03*
%TD*%
D27*
%TO.P,WU0,1*%
%TO.N,WAKE_UP*%
X150291800Y-97383600D03*
%TO.P,WU0,2*%
%TO.N,3.3V*%
X149250400Y-97383600D03*
%TD*%
D11*
%TO.P,FD3,1*%
%TO.N,N/C*%
X159931100Y-125323600D03*
%TD*%
D13*
%TO.P,S1,1*%
%TO.N,XM125_GPIO2/BOOT0*%
X149517100Y-125323600D03*
%TO.P,S1,2*%
X155105100Y-125323600D03*
%TO.P,S1,3*%
%TO.N,3.3V*%
X149517100Y-129133600D03*
%TO.P,S1,4*%
X155105100Y-129133600D03*
%TD*%
D28*
%TO.P,J2,1*%
%TO.N,GND*%
X140881100Y-90803600D03*
%TO.P,J2,2*%
%TO.N,3.3V*%
X140881100Y-91803600D03*
%TO.P,J2,3*%
%TO.N,SDA*%
X140881100Y-92803600D03*
%TO.P,J2,4*%
%TO.N,SCL*%
X140881100Y-93803600D03*
D29*
%TO.P,J2,NC1*%
%TO.N,N/C*%
X137206100Y-95103600D03*
%TO.P,J2,NC2*%
X137206100Y-89503600D03*
%TD*%
D30*
%TO.N,1.8V*%
X143268700Y-106908600D03*
%TO.N,3.3V*%
X149263100Y-95224600D03*
X155105100Y-127482600D03*
X138976100Y-95732600D03*
X150787100Y-104241600D03*
X144310100Y-101447600D03*
%TO.N,GND*%
X155613100Y-95478600D03*
X140881100Y-126593600D03*
X137071100Y-125323600D03*
X140881100Y-85953600D03*
X139611100Y-88493600D03*
X153073100Y-100304600D03*
D31*
X149136100Y-107416600D03*
D30*
X156502100Y-84175600D03*
X149390100Y-111861600D03*
X148501100Y-82143600D03*
X139611100Y-84683600D03*
X139357100Y-121513600D03*
X143294100Y-119227600D03*
X153581100Y-121513600D03*
X150406100Y-100431600D03*
X143421100Y-115798600D03*
X150787100Y-93573600D03*
X150787100Y-112369600D03*
X142151100Y-97383600D03*
X158534100Y-121640600D03*
X157391100Y-124053600D03*
X142151100Y-80873600D03*
X147739100Y-127101600D03*
X139484100Y-106019600D03*
X143802100Y-89382600D03*
X153708100Y-116052600D03*
X147231100Y-106400600D03*
X138976100Y-90779600D03*
X145072100Y-110845600D03*
X153962100Y-106019600D03*
X151676100Y-86715600D03*
X139611100Y-124053600D03*
X158407100Y-93827600D03*
X136563100Y-98907600D03*
X145199100Y-122783600D03*
X149771100Y-122783600D03*
X153835100Y-119608600D03*
X153962100Y-88493600D03*
X139611100Y-108813600D03*
X153581100Y-111988600D03*
X154851100Y-80873600D03*
D32*
X142500000Y-92750000D03*
D30*
X155486100Y-98653600D03*
%TO.N,V_USB*%
X145072100Y-102463600D03*
X142913100Y-102463600D03*
X145580100Y-86715600D03*
%TO.N,N$1*%
X147739100Y-88112600D03*
%TO.N,N$2*%
X149644100Y-87223600D03*
%TO.N,CH340-TX*%
X146596100Y-94208600D03*
%TO.N,CH340-RX*%
X147739100Y-94081600D03*
%TO.N,CH340-RTS*%
X154089100Y-100939600D03*
%TO.N,CH340-CTS*%
X154851100Y-101447600D03*
%TO.N,N$10*%
X146850100Y-88239600D03*
%TO.N,N$11*%
X153835100Y-86461600D03*
%TO.N,SCL*%
X157391100Y-90779600D03*
X157518100Y-118338600D03*
%TO.N,SDA*%
X158026100Y-91795600D03*
X157518100Y-117068600D03*
%TO.N,N$14*%
X136563100Y-100939600D03*
%TO.N,SWD_CLK*%
X143802100Y-118338600D03*
%TO.N,SWD_IO*%
X143802100Y-117068600D03*
%TO.N,DEBUG_UART-TX*%
X157645100Y-109829600D03*
%TO.N,N$16*%
X159423100Y-85953600D03*
%TO.N,N$17*%
X155232100Y-88493600D03*
%TO.N,XM125_I2C_ADDRESS*%
X149263100Y-105130600D03*
X153550284Y-108844416D03*
%TO.N,WAKE_UP*%
X152666700Y-109273225D03*
X149263100Y-106146600D03*
%TO.N,~{XM125_RESET}*%
X151041100Y-121513600D03*
%TO.N,~{XM125_INT}*%
X145072100Y-98399600D03*
X141643100Y-100939600D03*
X147842518Y-98650600D03*
X143548100Y-100177600D03*
%TD*%
D33*
%TO.N,1.8V*%
X138595100Y-107543600D02*
X139230100Y-106908600D01*
X141290700Y-106908600D02*
X143268700Y-106908600D01*
X137071100Y-107543600D02*
X138595100Y-107543600D01*
X139230100Y-106908600D02*
X141290700Y-106908600D01*
%TO.N,3.3V*%
X158407100Y-87604600D02*
X158407100Y-88620600D01*
X140246100Y-98145600D02*
X142659100Y-100558600D01*
X159169100Y-92303600D02*
X158669100Y-92803600D01*
X159169100Y-91414600D02*
X159169100Y-92303600D01*
X138595100Y-105003600D02*
X139230100Y-104368600D01*
X149250400Y-95237300D02*
X149263100Y-95224600D01*
X141290700Y-102816000D02*
X142659100Y-101447600D01*
X140246100Y-97002600D02*
X140246100Y-98145600D01*
X158407100Y-88620600D02*
X157391100Y-89636600D01*
X138976100Y-95732600D02*
X140246100Y-97002600D01*
X158026100Y-87223600D02*
X158407100Y-87604600D01*
X142659100Y-100558600D02*
X142659100Y-101447600D01*
X149250400Y-97383600D02*
X149250400Y-95237300D01*
X140881100Y-91803600D02*
X139476100Y-91803600D01*
X139230100Y-104368600D02*
X141290700Y-104368600D01*
X139476100Y-91803600D02*
X138976100Y-92303600D01*
X138976100Y-92303600D02*
X138976100Y-95732600D01*
X137071100Y-105003600D02*
X138595100Y-105003600D01*
X143921100Y-91803600D02*
X145707100Y-90017600D01*
X155105100Y-129133600D02*
X155105100Y-127482600D01*
X154978100Y-89636600D02*
X157391100Y-89636600D01*
X157391100Y-89636600D02*
X159169100Y-91414600D01*
X144310100Y-101447600D02*
X142659100Y-101447600D01*
X149313900Y-101193600D02*
X149313900Y-102768400D01*
X145707100Y-90017600D02*
X154597100Y-90017600D01*
X149517100Y-129133600D02*
X155105100Y-129133600D01*
X149313900Y-102768400D02*
X150787100Y-104241600D01*
X141290700Y-104368600D02*
X141290700Y-102816000D01*
X154597100Y-90017600D02*
X154978100Y-89636600D01*
X140881100Y-91803600D02*
X143921100Y-91803600D01*
X158669100Y-92803600D02*
X156121100Y-92803600D01*
X157010100Y-87223600D02*
X158026100Y-87223600D01*
D34*
%TO.N,GND*%
X145276100Y-85876600D02*
X144691100Y-86461600D01*
X145276100Y-85613600D02*
X145276100Y-85876600D01*
D35*
%TO.N,V_USB*%
X147104100Y-84048600D02*
X149856956Y-84048600D01*
X150951100Y-85232600D02*
X150951100Y-85613600D01*
X146232800Y-84919900D02*
X147104100Y-84048600D01*
D33*
X145754956Y-86545400D02*
X145750300Y-86545400D01*
D35*
X150769400Y-84961044D02*
X150769400Y-85050900D01*
X150951100Y-85232600D02*
X150769400Y-85050900D01*
X149856956Y-84048600D02*
X150769400Y-84961044D01*
D33*
X145750300Y-86545400D02*
X145580100Y-86715600D01*
X142913100Y-102463600D02*
X145072100Y-102463600D01*
D35*
X146232800Y-85431900D02*
X146232800Y-84919900D01*
X146051100Y-85613600D02*
X146232800Y-85431900D01*
X146051100Y-86249257D02*
X146051100Y-85613600D01*
D33*
X145754956Y-86545400D02*
X146051100Y-86249257D01*
D34*
%TO.N,N$1*%
X148628100Y-86461600D02*
X148755100Y-86334600D01*
X147866100Y-86461600D02*
X148628100Y-86461600D01*
X147751100Y-85613600D02*
X147751100Y-86346600D01*
X148755100Y-86334600D02*
X148755100Y-85617600D01*
X148755100Y-85617600D02*
X148751100Y-85613600D01*
X147751100Y-86346600D02*
X147866100Y-86461600D01*
X147739100Y-88112600D02*
X147739100Y-86461600D01*
X147739100Y-86461600D02*
X147866100Y-86461600D01*
%TO.N,N$2*%
X149251100Y-86830600D02*
X149644100Y-87223600D01*
X149251100Y-85613600D02*
X149251100Y-86830600D01*
X149263100Y-85601600D02*
X149251100Y-85613600D01*
X149009100Y-84683600D02*
X149263100Y-84937600D01*
X149263100Y-84937600D02*
X149263100Y-85601600D01*
X148501100Y-84683600D02*
X149009100Y-84683600D01*
X148251100Y-84933600D02*
X148501100Y-84683600D01*
X148251100Y-85613600D02*
X148251100Y-84933600D01*
%TO.N,CH340-TX*%
X146215100Y-95097600D02*
X146215100Y-107797600D01*
X146596100Y-94716600D02*
X146596100Y-94208600D01*
X141290700Y-110718600D02*
X143294100Y-110718600D01*
X146596100Y-94716600D02*
X146215100Y-95097600D01*
X143294100Y-110718600D02*
X146215100Y-107797600D01*
%TO.N,CH340-RX*%
X146215100Y-93573600D02*
X147231100Y-93573600D01*
X147231100Y-93573600D02*
X147739100Y-94081600D01*
X143802100Y-109448600D02*
X141290700Y-109448600D01*
X145770600Y-107480100D02*
X145770600Y-94018100D01*
X145770600Y-107480100D02*
X143802100Y-109448600D01*
X145770600Y-94018100D02*
X146215100Y-93573600D01*
%TO.N,CH340-RTS*%
X141290700Y-113258600D02*
X144310100Y-113258600D01*
X144310100Y-113258600D02*
X152311100Y-105257600D01*
X152311100Y-102717600D02*
X154089100Y-100939600D01*
X152311100Y-105257600D02*
X152311100Y-102717600D01*
%TO.N,CH340-CTS*%
X143929100Y-114528600D02*
X152946100Y-105511600D01*
X152946100Y-105511600D02*
X152946100Y-103352600D01*
X152946100Y-103352600D02*
X154851100Y-101447600D01*
X141290700Y-114528600D02*
X143929100Y-114528600D01*
%TO.N,N$9*%
X142671800Y-84569300D02*
X143141100Y-85038600D01*
X142671800Y-83413600D02*
X142671800Y-84569300D01*
X143141100Y-85038600D02*
X144183100Y-85038600D01*
D33*
X144183100Y-80858600D02*
X144183100Y-85038600D01*
X152819100Y-80858600D02*
X152819100Y-85038600D01*
D34*
%TO.N,N$10*%
X146751100Y-85613600D02*
X146751100Y-88140600D01*
X146751100Y-88140600D02*
X146850100Y-88239600D01*
%TO.N,N$11*%
X153835100Y-86461600D02*
X152819100Y-87477600D01*
X152819100Y-87477600D02*
X150914100Y-87477600D01*
X149751100Y-85613600D02*
X149751100Y-86314600D01*
X149751100Y-86314600D02*
X150914100Y-87477600D01*
%TO.N,SCL*%
X156097100Y-90779600D02*
X146053231Y-90779600D01*
X157367100Y-90803600D02*
X157391100Y-90779600D01*
X156121100Y-90803600D02*
X157367100Y-90803600D01*
X156121100Y-90803600D02*
X156097100Y-90779600D01*
X143029231Y-93803600D02*
X140881100Y-93803600D01*
X157518100Y-118338600D02*
X155711500Y-118338600D01*
X146053231Y-90779600D02*
X143029231Y-93803600D01*
X159931100Y-120243600D02*
X158026100Y-118338600D01*
X158026100Y-118338600D02*
X157518100Y-118338600D01*
%TO.N,SDA*%
X155711500Y-117068600D02*
X157518100Y-117068600D01*
X140246100Y-94843600D02*
X143167100Y-94843600D01*
X139738100Y-93065600D02*
X139738100Y-94335600D01*
X146207100Y-91803600D02*
X156121100Y-91803600D01*
X158018100Y-91803600D02*
X158026100Y-91795600D01*
X139738100Y-94335600D02*
X140246100Y-94843600D01*
X140000100Y-92803600D02*
X139738100Y-93065600D01*
X159931100Y-117703600D02*
X158153100Y-117703600D01*
X156121100Y-91803600D02*
X158018100Y-91803600D01*
X143167100Y-94843600D02*
X146207100Y-91803600D01*
X158153100Y-117703600D02*
X157518100Y-117068600D01*
X140881100Y-92803600D02*
X140000100Y-92803600D01*
%TO.N,N$14*%
X136563100Y-100851600D02*
X136563100Y-100939600D01*
X137491100Y-99923600D02*
X136563100Y-100851600D01*
%TO.N,N$15*%
X139191100Y-98045600D02*
X139218100Y-98018600D01*
X139191100Y-99923600D02*
X139191100Y-98045600D01*
%TO.N,SWD_CLK*%
X137071100Y-120243600D02*
X138976100Y-118338600D01*
X143802100Y-118338600D02*
X141290700Y-118338600D01*
X138976100Y-118338600D02*
X141290700Y-118338600D01*
%TO.N,SWD_IO*%
X137071100Y-117703600D02*
X138849100Y-117703600D01*
X139484100Y-117068600D02*
X141290700Y-117068600D01*
X138849100Y-117703600D02*
X139484100Y-117068600D01*
X143802100Y-117068600D02*
X141290700Y-117068600D01*
%TO.N,XM125_GPIO2/BOOT0*%
X153581100Y-106908600D02*
X151676100Y-108813600D01*
X152311100Y-125323600D02*
X155105100Y-125323600D01*
X152311100Y-120243600D02*
X151676100Y-119608600D01*
X155711500Y-106908600D02*
X157137100Y-106908600D01*
X157137100Y-106908600D02*
X157264100Y-106781600D01*
X159931100Y-97383600D02*
X157264100Y-100050600D01*
X149517100Y-125323600D02*
X152311100Y-125323600D01*
X157264100Y-100050600D02*
X157264100Y-106781600D01*
X155711500Y-106908600D02*
X153581100Y-106908600D01*
X151676100Y-119608600D02*
X151676100Y-108813600D01*
X152311100Y-125323600D02*
X152311100Y-120243600D01*
%TO.N,XM125_GPIO1*%
X155711500Y-108178600D02*
X157137100Y-108178600D01*
X159931100Y-99923600D02*
X157772100Y-102082600D01*
X157772100Y-107543600D02*
X157772100Y-102082600D01*
X157137100Y-108178600D02*
X157772100Y-107543600D01*
%TO.N,XM125_GPIO0*%
X158280100Y-104114600D02*
X158280100Y-108243963D01*
X159931100Y-102463600D02*
X158280100Y-104114600D01*
X157075462Y-109448600D02*
X158280100Y-108243963D01*
X155711500Y-109448600D02*
X157075462Y-109448600D01*
%TO.N,DEBUG_UART-TX*%
X157391100Y-110718600D02*
X155711500Y-110718600D01*
X157645100Y-110464600D02*
X157391100Y-110718600D01*
X157645100Y-109829600D02*
X157645100Y-110464600D01*
%TO.N,DEBUG_UART-RX*%
X159931100Y-107543600D02*
X158407100Y-109067600D01*
X158407100Y-109067600D02*
X158407100Y-110996938D01*
X157518100Y-112877600D02*
X157137100Y-113258600D01*
X155711500Y-113258600D02*
X157137100Y-113258600D01*
X157518100Y-111885938D02*
X157518100Y-112877600D01*
X158407100Y-110996938D02*
X157518100Y-111885938D01*
%TO.N,N$16*%
X158559500Y-86182200D02*
X158788100Y-85953600D01*
X158788100Y-85953600D02*
X159423100Y-85953600D01*
X157010100Y-86182200D02*
X158559500Y-86182200D01*
%TO.N,N$17*%
X155943300Y-88265000D02*
X155714700Y-88493600D01*
X155714700Y-88493600D02*
X155232100Y-88493600D01*
X157010100Y-88265000D02*
X155943300Y-88265000D01*
%TO.N,XM125_I2C_ADDRESS*%
X154089100Y-114528600D02*
X152788284Y-113227785D01*
X152788284Y-110749416D02*
X152788284Y-113227785D01*
X153550284Y-109987416D02*
X152788284Y-110749416D01*
X158051500Y-111963200D02*
X159931100Y-110083600D01*
X155711500Y-114528600D02*
X154089100Y-114528600D01*
X149263100Y-105130600D02*
X148501100Y-104368600D01*
X153550284Y-109987416D02*
X153550284Y-108844416D01*
X158051500Y-113868200D02*
X158051500Y-111963200D01*
X157391100Y-114528600D02*
X158051500Y-113868200D01*
X155711500Y-114528600D02*
X157391100Y-114528600D01*
X148501100Y-104368600D02*
X148501100Y-101193600D01*
%TO.N,WAKE_UP*%
X148755100Y-98399600D02*
X150152100Y-98399600D01*
X149263100Y-106146600D02*
X146710400Y-103593900D01*
X146710400Y-103593900D02*
X146710400Y-98539300D01*
X155711500Y-120878600D02*
X153835100Y-120878600D01*
X152666700Y-109273225D02*
X152184100Y-109755825D01*
X159931100Y-122783600D02*
X158407100Y-122783600D01*
X147358100Y-97891600D02*
X148247100Y-97891600D01*
X153835100Y-120878600D02*
X152184100Y-119227600D01*
X158407100Y-122783600D02*
X156502100Y-120878600D01*
X148247100Y-97891600D02*
X148755100Y-98399600D01*
X156502100Y-120878600D02*
X155711500Y-120878600D01*
X152184100Y-109755825D02*
X152184100Y-119227600D01*
X150152100Y-98399600D02*
X150291800Y-98259900D01*
X150291800Y-97383600D02*
X150291800Y-98259900D01*
X146710400Y-98539300D02*
X147358100Y-97891600D01*
%TO.N,~{XM125_RESET}*%
X143167100Y-120878600D02*
X141290700Y-120878600D01*
X141290700Y-123408200D02*
X141301100Y-123418600D01*
X137071100Y-122783600D02*
X139357100Y-122783600D01*
X144310100Y-123672600D02*
X144310100Y-121513600D01*
X141290700Y-122148600D02*
X141290700Y-123408200D01*
X139357100Y-122783600D02*
X139992100Y-122148600D01*
X143802100Y-121513600D02*
X143167100Y-120878600D01*
X144691100Y-124053600D02*
X144310100Y-123672600D01*
X141290700Y-120878600D02*
X141290700Y-122148600D01*
X139992100Y-122148600D02*
X141290700Y-122148600D01*
X144691100Y-125323600D02*
X147485100Y-125323600D01*
X144310100Y-121513600D02*
X143802100Y-121513600D01*
X151041100Y-121513600D02*
X144310100Y-121513600D01*
X141897100Y-125323600D02*
X144691100Y-125323600D01*
X144691100Y-124053600D02*
X144691100Y-125323600D01*
%TO.N,~{XM125_INT}*%
X137071100Y-102463600D02*
X140119100Y-102463600D01*
X140119100Y-102463600D02*
X141643100Y-100939600D01*
X152163518Y-99669600D02*
X151398518Y-98904600D01*
X155711500Y-102898600D02*
X156146500Y-102463600D01*
X156146500Y-100457000D02*
X155359100Y-99669600D01*
X151398518Y-98904600D02*
X148096518Y-98904600D01*
X145072100Y-99669600D02*
X144564100Y-100177600D01*
X156146500Y-100457000D02*
X156146500Y-102463600D01*
X145072100Y-98399600D02*
X145072100Y-99669600D01*
X155359100Y-99669600D02*
X152163518Y-99669600D01*
X155711500Y-104368600D02*
X155711500Y-102898600D01*
X143548100Y-100177600D02*
X144564100Y-100177600D01*
X148096518Y-98904600D02*
X147842518Y-98650600D01*
%TD*%
%TA.AperFunction,Conductor*%
%TO.N,GND*%
G36*
X152828414Y-120483278D02*
G01*
X153569662Y-121224526D01*
X153668239Y-121281439D01*
X153778187Y-121310900D01*
X153892014Y-121310900D01*
X154159387Y-121310900D01*
X154194601Y-121325486D01*
X154208667Y-121353520D01*
X154216285Y-121405815D01*
X154268480Y-121512582D01*
X154268481Y-121512583D01*
X154352517Y-121596619D01*
X154459287Y-121648815D01*
X154528505Y-121658900D01*
X156650406Y-121658899D01*
X156685620Y-121673485D01*
X158141661Y-123129526D01*
X158240238Y-123186439D01*
X158350187Y-123215900D01*
X158464014Y-123215900D01*
X158726206Y-123215900D01*
X158761420Y-123230486D01*
X158773569Y-123250311D01*
X158777222Y-123261555D01*
X158866194Y-123436174D01*
X158907869Y-123493535D01*
X158981391Y-123594728D01*
X159119972Y-123733309D01*
X159278525Y-123848505D01*
X159278527Y-123848506D01*
X159278528Y-123848507D01*
X159453146Y-123937478D01*
X159453148Y-123937479D01*
X159639538Y-123998041D01*
X159833109Y-124028700D01*
X160029091Y-124028700D01*
X160222662Y-123998041D01*
X160409052Y-123937479D01*
X160583675Y-123848505D01*
X160742228Y-123733309D01*
X160880809Y-123594728D01*
X160983511Y-123453370D01*
X161016010Y-123433456D01*
X161053072Y-123442354D01*
X161072987Y-123474853D01*
X161073600Y-123482643D01*
X161073600Y-130226300D01*
X161059014Y-130261514D01*
X161023800Y-130276100D01*
X135978400Y-130276100D01*
X135943186Y-130261514D01*
X135928600Y-130226300D01*
X135928600Y-127738961D01*
X136439600Y-127738961D01*
X136439600Y-127988238D01*
X136472134Y-128235357D01*
X136472136Y-128235364D01*
X136536646Y-128476121D01*
X136536650Y-128476132D01*
X136629539Y-128700387D01*
X136632037Y-128706416D01*
X136661821Y-128758003D01*
X136756666Y-128922282D01*
X136908402Y-129120028D01*
X136908408Y-129120035D01*
X137084664Y-129296291D01*
X137084671Y-129296297D01*
X137282417Y-129448033D01*
X137364369Y-129495347D01*
X137498284Y-129572663D01*
X137728571Y-129668051D01*
X137728576Y-129668052D01*
X137728578Y-129668053D01*
X137766735Y-129678277D01*
X137969340Y-129732565D01*
X138159645Y-129757619D01*
X138214577Y-129764851D01*
X138216469Y-129765100D01*
X138216473Y-129765100D01*
X138465727Y-129765100D01*
X138465731Y-129765100D01*
X138712860Y-129732565D01*
X138953629Y-129668051D01*
X139183916Y-129572663D01*
X139293844Y-129509196D01*
X140881901Y-129509196D01*
X140884848Y-129534604D01*
X140930755Y-129638576D01*
X141011123Y-129718944D01*
X141115088Y-129764849D01*
X141115094Y-129764850D01*
X141140510Y-129767799D01*
X141770500Y-129767799D01*
X142023700Y-129767799D01*
X142653687Y-129767799D01*
X142653696Y-129767798D01*
X142679104Y-129764851D01*
X142783076Y-129718944D01*
X142863444Y-129638576D01*
X142909349Y-129534611D01*
X142909350Y-129534605D01*
X142912298Y-129509196D01*
X146469901Y-129509196D01*
X146472848Y-129534604D01*
X146518755Y-129638576D01*
X146599123Y-129718944D01*
X146703088Y-129764849D01*
X146703094Y-129764850D01*
X146728510Y-129767799D01*
X147358500Y-129767799D01*
X147358500Y-129260200D01*
X146469901Y-129260200D01*
X146469901Y-129509196D01*
X142912298Y-129509196D01*
X142912299Y-129509190D01*
X142912300Y-129509189D01*
X142912300Y-129260200D01*
X142023700Y-129260200D01*
X142023700Y-129767799D01*
X141770500Y-129767799D01*
X141770500Y-129260200D01*
X140881901Y-129260200D01*
X140881901Y-129509196D01*
X139293844Y-129509196D01*
X139399784Y-129448032D01*
X139597536Y-129296291D01*
X139773791Y-129120036D01*
X139925532Y-128922284D01*
X140020376Y-128758009D01*
X140881900Y-128758009D01*
X140881900Y-129007000D01*
X141770500Y-129007000D01*
X142023700Y-129007000D01*
X142912299Y-129007000D01*
X142912299Y-128758014D01*
X142912299Y-128758009D01*
X146469900Y-128758009D01*
X146469900Y-129007000D01*
X147358500Y-129007000D01*
X147358500Y-128499400D01*
X147611700Y-128499400D01*
X147611700Y-129767799D01*
X148241687Y-129767799D01*
X148241696Y-129767798D01*
X148267104Y-129764851D01*
X148371076Y-129718944D01*
X148431356Y-129658664D01*
X148466570Y-129644078D01*
X148501784Y-129658664D01*
X148511309Y-129672005D01*
X148512081Y-129673583D01*
X148596117Y-129757619D01*
X148702887Y-129809815D01*
X148772105Y-129819900D01*
X150262094Y-129819899D01*
X150331313Y-129809815D01*
X150438083Y-129757619D01*
X150488216Y-129707486D01*
X150523430Y-129692900D01*
X154098770Y-129692900D01*
X154133984Y-129707486D01*
X154184117Y-129757619D01*
X154290887Y-129809815D01*
X154360105Y-129819900D01*
X155850094Y-129819899D01*
X155919313Y-129809815D01*
X156026083Y-129757619D01*
X156110119Y-129673583D01*
X156162315Y-129566813D01*
X156172400Y-129497595D01*
X156172399Y-128769606D01*
X156162315Y-128700387D01*
X156123223Y-128620423D01*
X156110119Y-128593617D01*
X156026082Y-128509580D01*
X155919314Y-128457385D01*
X155850096Y-128447300D01*
X155850095Y-128447300D01*
X155714200Y-128447300D01*
X155678986Y-128432714D01*
X155664400Y-128397500D01*
X155664400Y-127802878D01*
X155668191Y-127783820D01*
X155686772Y-127738961D01*
X156759600Y-127738961D01*
X156759600Y-127988238D01*
X156792134Y-128235357D01*
X156792136Y-128235364D01*
X156856646Y-128476121D01*
X156856650Y-128476132D01*
X156949539Y-128700387D01*
X156952037Y-128706416D01*
X156981821Y-128758003D01*
X157076666Y-128922282D01*
X157228402Y-129120028D01*
X157228408Y-129120035D01*
X157404664Y-129296291D01*
X157404671Y-129296297D01*
X157602417Y-129448033D01*
X157684369Y-129495347D01*
X157818284Y-129572663D01*
X158048571Y-129668051D01*
X158048576Y-129668052D01*
X158048578Y-129668053D01*
X158086735Y-129678277D01*
X158289340Y-129732565D01*
X158479645Y-129757619D01*
X158534577Y-129764851D01*
X158536469Y-129765100D01*
X158536473Y-129765100D01*
X158785727Y-129765100D01*
X158785731Y-129765100D01*
X159032860Y-129732565D01*
X159273629Y-129668051D01*
X159503916Y-129572663D01*
X159719784Y-129448032D01*
X159917536Y-129296291D01*
X160093791Y-129120036D01*
X160245532Y-128922284D01*
X160370163Y-128706416D01*
X160465551Y-128476129D01*
X160530065Y-128235360D01*
X160562600Y-127988231D01*
X160562600Y-127738969D01*
X160530065Y-127491840D01*
X160465551Y-127251071D01*
X160370163Y-127020784D01*
X160245532Y-126804916D01*
X160093797Y-126607171D01*
X160093791Y-126607164D01*
X159917535Y-126430908D01*
X159917528Y-126430902D01*
X159719782Y-126279166D01*
X159503919Y-126154539D01*
X159503916Y-126154537D01*
X159503914Y-126154536D01*
X159503912Y-126154535D01*
X159273632Y-126059150D01*
X159273621Y-126059146D01*
X159032864Y-125994636D01*
X159032857Y-125994634D01*
X158785738Y-125962100D01*
X158785731Y-125962100D01*
X158536469Y-125962100D01*
X158536461Y-125962100D01*
X158289342Y-125994634D01*
X158289335Y-125994636D01*
X158048578Y-126059146D01*
X158048567Y-126059150D01*
X157818287Y-126154535D01*
X157818280Y-126154539D01*
X157602417Y-126279166D01*
X157404671Y-126430902D01*
X157404664Y-126430908D01*
X157228408Y-126607164D01*
X157228402Y-126607171D01*
X157076666Y-126804917D01*
X156952039Y-127020780D01*
X156952035Y-127020787D01*
X156856650Y-127251067D01*
X156856646Y-127251078D01*
X156792136Y-127491835D01*
X156792134Y-127491842D01*
X156759600Y-127738961D01*
X155686772Y-127738961D01*
X155695338Y-127718281D01*
X155716178Y-127667969D01*
X155740600Y-127545191D01*
X155740600Y-127420009D01*
X155716178Y-127297231D01*
X155689788Y-127233520D01*
X155668275Y-127181581D01*
X155668273Y-127181579D01*
X155668273Y-127181578D01*
X155640341Y-127139775D01*
X155598728Y-127077495D01*
X155510204Y-126988971D01*
X155427163Y-126933486D01*
X155406122Y-126919427D01*
X155406120Y-126919426D01*
X155406118Y-126919424D01*
X155314005Y-126881271D01*
X155290469Y-126871522D01*
X155290465Y-126871521D01*
X155290459Y-126871519D01*
X155167693Y-126847100D01*
X155167691Y-126847100D01*
X155042509Y-126847100D01*
X155042506Y-126847100D01*
X154919740Y-126871519D01*
X154919732Y-126871521D01*
X154919731Y-126871522D01*
X154919727Y-126871523D01*
X154919726Y-126871524D01*
X154804081Y-126919424D01*
X154804079Y-126919426D01*
X154699995Y-126988971D01*
X154699993Y-126988974D01*
X154611474Y-127077493D01*
X154611471Y-127077495D01*
X154541926Y-127181579D01*
X154541924Y-127181581D01*
X154494024Y-127297226D01*
X154494019Y-127297240D01*
X154469600Y-127420006D01*
X154469600Y-127545193D01*
X154494019Y-127667959D01*
X154494021Y-127667965D01*
X154494022Y-127667969D01*
X154494024Y-127667973D01*
X154542009Y-127783821D01*
X154545800Y-127802878D01*
X154545800Y-128397500D01*
X154531214Y-128432714D01*
X154496000Y-128447300D01*
X154360105Y-128447300D01*
X154290884Y-128457385D01*
X154184117Y-128509580D01*
X154133984Y-128559714D01*
X154098770Y-128574300D01*
X150523430Y-128574300D01*
X150488216Y-128559714D01*
X150438082Y-128509580D01*
X150331314Y-128457385D01*
X150262096Y-128447300D01*
X148772105Y-128447300D01*
X148702884Y-128457385D01*
X148596117Y-128509580D01*
X148512080Y-128593617D01*
X148511309Y-128595195D01*
X148510347Y-128596044D01*
X148509682Y-128596976D01*
X148509466Y-128596822D01*
X148482738Y-128620423D01*
X148444696Y-128618060D01*
X148431356Y-128608535D01*
X148371076Y-128548255D01*
X148267111Y-128502350D01*
X148267105Y-128502349D01*
X148241690Y-128499400D01*
X147611700Y-128499400D01*
X147358500Y-128499400D01*
X146728513Y-128499400D01*
X146728503Y-128499401D01*
X146703095Y-128502348D01*
X146599123Y-128548255D01*
X146518755Y-128628623D01*
X146472850Y-128732588D01*
X146472849Y-128732594D01*
X146469900Y-128758009D01*
X142912299Y-128758009D01*
X142912298Y-128758003D01*
X142909351Y-128732595D01*
X142863444Y-128628623D01*
X142783076Y-128548255D01*
X142679111Y-128502350D01*
X142679105Y-128502349D01*
X142653690Y-128499400D01*
X142023700Y-128499400D01*
X142023700Y-129007000D01*
X141770500Y-129007000D01*
X141770500Y-128499400D01*
X141140513Y-128499400D01*
X141140503Y-128499401D01*
X141115095Y-128502348D01*
X141011123Y-128548255D01*
X140930755Y-128628623D01*
X140884850Y-128732588D01*
X140884849Y-128732594D01*
X140881900Y-128758009D01*
X140020376Y-128758009D01*
X140050163Y-128706416D01*
X140145551Y-128476129D01*
X140210065Y-128235360D01*
X140242600Y-127988231D01*
X140242600Y-127738969D01*
X140210065Y-127491840D01*
X140145551Y-127251071D01*
X140050163Y-127020784D01*
X139925532Y-126804916D01*
X139773797Y-126607171D01*
X139773791Y-126607164D01*
X139597535Y-126430908D01*
X139597528Y-126430902D01*
X139399782Y-126279166D01*
X139183919Y-126154539D01*
X139183916Y-126154537D01*
X139183914Y-126154536D01*
X139183912Y-126154535D01*
X138953632Y-126059150D01*
X138953621Y-126059146D01*
X138712864Y-125994636D01*
X138712857Y-125994634D01*
X138465738Y-125962100D01*
X138465731Y-125962100D01*
X138216469Y-125962100D01*
X138216461Y-125962100D01*
X137969342Y-125994634D01*
X137969335Y-125994636D01*
X137728578Y-126059146D01*
X137728567Y-126059150D01*
X137498287Y-126154535D01*
X137498280Y-126154539D01*
X137282417Y-126279166D01*
X137084671Y-126430902D01*
X137084664Y-126430908D01*
X136908408Y-126607164D01*
X136908402Y-126607171D01*
X136756666Y-126804917D01*
X136632039Y-127020780D01*
X136632035Y-127020787D01*
X136536650Y-127251067D01*
X136536646Y-127251078D01*
X136472136Y-127491835D01*
X136472134Y-127491842D01*
X136439600Y-127738961D01*
X135928600Y-127738961D01*
X135928600Y-123482643D01*
X135943186Y-123447429D01*
X135978400Y-123432843D01*
X136013614Y-123447429D01*
X136018686Y-123453368D01*
X136121391Y-123594728D01*
X136259972Y-123733309D01*
X136418525Y-123848505D01*
X136418527Y-123848506D01*
X136418528Y-123848507D01*
X136593146Y-123937478D01*
X136593148Y-123937479D01*
X136779538Y-123998041D01*
X136973109Y-124028700D01*
X137169091Y-124028700D01*
X137362662Y-123998041D01*
X137549052Y-123937479D01*
X137723675Y-123848505D01*
X137882228Y-123733309D01*
X138020809Y-123594728D01*
X138136005Y-123436175D01*
X138224979Y-123261552D01*
X138228631Y-123250310D01*
X138253385Y-123221328D01*
X138275994Y-123215900D01*
X139414014Y-123215900D01*
X139523962Y-123186439D01*
X139622539Y-123129526D01*
X140156578Y-122595485D01*
X140191792Y-122580900D01*
X140570533Y-122580900D01*
X140605747Y-122595486D01*
X140620333Y-122630700D01*
X140605747Y-122665914D01*
X140592405Y-122675440D01*
X140592117Y-122675580D01*
X140508080Y-122759617D01*
X140455885Y-122866385D01*
X140445800Y-122935603D01*
X140445800Y-123901594D01*
X140455885Y-123970815D01*
X140508080Y-124077582D01*
X140508081Y-124077583D01*
X140592117Y-124161619D01*
X140698887Y-124213815D01*
X140768105Y-124223900D01*
X141834094Y-124223899D01*
X141903313Y-124213815D01*
X142010083Y-124161619D01*
X142094119Y-124077583D01*
X142135403Y-123993133D01*
X142163972Y-123967903D01*
X142202014Y-123970265D01*
X142225700Y-123994890D01*
X142246755Y-124042576D01*
X142327123Y-124122944D01*
X142431088Y-124168849D01*
X142431094Y-124168850D01*
X142456510Y-124171799D01*
X142874500Y-124171799D01*
X142874500Y-122665400D01*
X142456513Y-122665400D01*
X142456503Y-122665401D01*
X142431095Y-122668348D01*
X142327123Y-122714255D01*
X142246756Y-122794622D01*
X142225700Y-122842310D01*
X142198133Y-122868631D01*
X142160027Y-122867751D01*
X142135403Y-122844066D01*
X142094119Y-122759617D01*
X142010082Y-122675580D01*
X141903314Y-122623385D01*
X141834096Y-122613300D01*
X141834095Y-122613300D01*
X141772800Y-122613300D01*
X141737586Y-122598714D01*
X141723000Y-122563500D01*
X141723000Y-121708699D01*
X141737586Y-121673485D01*
X141772800Y-121658899D01*
X142473695Y-121658899D01*
X142485498Y-121657179D01*
X142542913Y-121648815D01*
X142649683Y-121596619D01*
X142733719Y-121512583D01*
X142785915Y-121405813D01*
X142793534Y-121353519D01*
X142813045Y-121320777D01*
X142842814Y-121310900D01*
X142967407Y-121310900D01*
X143002621Y-121325486D01*
X143456174Y-121779038D01*
X143536662Y-121859526D01*
X143635239Y-121916439D01*
X143745187Y-121945900D01*
X143828000Y-121945900D01*
X143863214Y-121960486D01*
X143877800Y-121995700D01*
X143877800Y-122835655D01*
X143863214Y-122870869D01*
X143828000Y-122885455D01*
X143792786Y-122870869D01*
X143782443Y-122855770D01*
X143755444Y-122794623D01*
X143675076Y-122714255D01*
X143571111Y-122668350D01*
X143571105Y-122668349D01*
X143545690Y-122665400D01*
X143127700Y-122665400D01*
X143127700Y-124171799D01*
X143545687Y-124171799D01*
X143545696Y-124171798D01*
X143571104Y-124168851D01*
X143675076Y-124122944D01*
X143755444Y-124042576D01*
X143801349Y-123938611D01*
X143801350Y-123938605D01*
X143804299Y-123913190D01*
X143804299Y-123833475D01*
X143818885Y-123798261D01*
X143854098Y-123783674D01*
X143889312Y-123798260D01*
X143902202Y-123820583D01*
X143907261Y-123839462D01*
X143934554Y-123886735D01*
X143964173Y-123938038D01*
X144244214Y-124218079D01*
X144258800Y-124253293D01*
X144258800Y-124841500D01*
X144244214Y-124876714D01*
X144209000Y-124891300D01*
X142985849Y-124891300D01*
X142950635Y-124876714D01*
X142941109Y-124863372D01*
X142902119Y-124783617D01*
X142818082Y-124699580D01*
X142711314Y-124647385D01*
X142642096Y-124637300D01*
X141152105Y-124637300D01*
X141082884Y-124647385D01*
X140976117Y-124699580D01*
X140892080Y-124783617D01*
X140839885Y-124890385D01*
X140829800Y-124959603D01*
X140829800Y-125687594D01*
X140839885Y-125756815D01*
X140892080Y-125863582D01*
X140892081Y-125863583D01*
X140976117Y-125947619D01*
X141082887Y-125999815D01*
X141152105Y-126009900D01*
X142642094Y-126009899D01*
X142711313Y-125999815D01*
X142818083Y-125947619D01*
X142902119Y-125863583D01*
X142919088Y-125828871D01*
X142941109Y-125783828D01*
X142969679Y-125758598D01*
X142985849Y-125755900D01*
X144634187Y-125755900D01*
X144748013Y-125755900D01*
X146396351Y-125755900D01*
X146431565Y-125770486D01*
X146441091Y-125783828D01*
X146480080Y-125863582D01*
X146480081Y-125863583D01*
X146564117Y-125947619D01*
X146670887Y-125999815D01*
X146740105Y-126009900D01*
X148230094Y-126009899D01*
X148299313Y-125999815D01*
X148406083Y-125947619D01*
X148465886Y-125887816D01*
X148501100Y-125873230D01*
X148536314Y-125887816D01*
X148596117Y-125947619D01*
X148702887Y-125999815D01*
X148772105Y-126009900D01*
X150262094Y-126009899D01*
X150331313Y-125999815D01*
X150438083Y-125947619D01*
X150522119Y-125863583D01*
X150539088Y-125828871D01*
X150561109Y-125783828D01*
X150589679Y-125758598D01*
X150605849Y-125755900D01*
X152254187Y-125755900D01*
X152368013Y-125755900D01*
X154016351Y-125755900D01*
X154051565Y-125770486D01*
X154061091Y-125783828D01*
X154100080Y-125863582D01*
X154100081Y-125863583D01*
X154184117Y-125947619D01*
X154290887Y-125999815D01*
X154360105Y-126009900D01*
X155850094Y-126009899D01*
X155919313Y-125999815D01*
X156026083Y-125947619D01*
X156110119Y-125863583D01*
X156162315Y-125756813D01*
X156172400Y-125687595D01*
X156172399Y-125278375D01*
X159125800Y-125278375D01*
X159125800Y-125368824D01*
X159141021Y-125503925D01*
X159141023Y-125503934D01*
X159200955Y-125675214D01*
X159200956Y-125675216D01*
X159297505Y-125828871D01*
X159297507Y-125828874D01*
X159425826Y-125957193D01*
X159485413Y-125994634D01*
X159579483Y-126053743D01*
X159579485Y-126053744D01*
X159715040Y-126101175D01*
X159750770Y-126113678D01*
X159885871Y-126128900D01*
X159976328Y-126128899D01*
X160111430Y-126113678D01*
X160197074Y-126083710D01*
X160282714Y-126053744D01*
X160282716Y-126053743D01*
X160282718Y-126053742D01*
X160436374Y-125957193D01*
X160564693Y-125828874D01*
X160661242Y-125675218D01*
X160661243Y-125675216D01*
X160661244Y-125675214D01*
X160691210Y-125589574D01*
X160721178Y-125503930D01*
X160736400Y-125368829D01*
X160736399Y-125278372D01*
X160721178Y-125143270D01*
X160708675Y-125107540D01*
X160661244Y-124971985D01*
X160661243Y-124971983D01*
X160564694Y-124818328D01*
X160564693Y-124818326D01*
X160436374Y-124690007D01*
X160368542Y-124647385D01*
X160282716Y-124593456D01*
X160282714Y-124593455D01*
X160111434Y-124533523D01*
X160111426Y-124533521D01*
X160044727Y-124526006D01*
X159976329Y-124518300D01*
X159976324Y-124518300D01*
X159885875Y-124518300D01*
X159750774Y-124533521D01*
X159750765Y-124533523D01*
X159579485Y-124593455D01*
X159579483Y-124593456D01*
X159425828Y-124690005D01*
X159297505Y-124818328D01*
X159200956Y-124971983D01*
X159200955Y-124971985D01*
X159141023Y-125143265D01*
X159141021Y-125143273D01*
X159125800Y-125278375D01*
X156172399Y-125278375D01*
X156172399Y-124959606D01*
X156162315Y-124890387D01*
X156161442Y-124888602D01*
X156110119Y-124783617D01*
X156026082Y-124699580D01*
X155919314Y-124647385D01*
X155850096Y-124637300D01*
X154360105Y-124637300D01*
X154290884Y-124647385D01*
X154184117Y-124699580D01*
X154100080Y-124783617D01*
X154061091Y-124863372D01*
X154032521Y-124888602D01*
X154016351Y-124891300D01*
X152793200Y-124891300D01*
X152757986Y-124876714D01*
X152743400Y-124841500D01*
X152743400Y-120518492D01*
X152757986Y-120483278D01*
X152793200Y-120468692D01*
X152828414Y-120483278D01*
G37*
%TD.AperFunction*%
%TA.AperFunction,Conductor*%
G36*
X147227714Y-98836878D02*
G01*
X147238509Y-98853035D01*
X147279343Y-98951618D01*
X147279344Y-98951620D01*
X147348889Y-99055704D01*
X147437413Y-99144228D01*
X147499693Y-99185841D01*
X147541496Y-99213773D01*
X147541497Y-99213773D01*
X147541499Y-99213775D01*
X147567528Y-99224556D01*
X147657149Y-99261678D01*
X147657156Y-99261679D01*
X147657158Y-99261680D01*
X147671924Y-99264617D01*
X147779927Y-99286100D01*
X147879352Y-99286100D01*
X147898312Y-99289850D01*
X147901373Y-99291110D01*
X147929656Y-99307439D01*
X147959117Y-99315332D01*
X148039605Y-99336900D01*
X151198825Y-99336900D01*
X151234039Y-99351486D01*
X151898079Y-100015526D01*
X151935995Y-100037416D01*
X151996657Y-100072439D01*
X152106605Y-100101900D01*
X155159407Y-100101900D01*
X155194621Y-100116486D01*
X155699614Y-100621479D01*
X155714200Y-100656693D01*
X155714200Y-102263907D01*
X155699614Y-102299121D01*
X155365573Y-102633161D01*
X155308663Y-102731734D01*
X155308659Y-102731742D01*
X155282372Y-102829849D01*
X155282372Y-102829851D01*
X155279200Y-102841686D01*
X155279200Y-103538500D01*
X155264614Y-103573714D01*
X155229400Y-103588300D01*
X154528505Y-103588300D01*
X154459284Y-103598385D01*
X154352517Y-103650580D01*
X154268480Y-103734617D01*
X154216285Y-103841385D01*
X154206200Y-103910603D01*
X154206200Y-104826594D01*
X154216285Y-104895815D01*
X154268480Y-105002582D01*
X154282532Y-105016634D01*
X154297118Y-105051848D01*
X154292875Y-105071963D01*
X154261250Y-105143588D01*
X154261249Y-105143594D01*
X154258300Y-105169009D01*
X154258300Y-105512000D01*
X155661700Y-105512000D01*
X155696914Y-105526586D01*
X155711500Y-105561800D01*
X155711500Y-105715400D01*
X155696914Y-105750614D01*
X155661700Y-105765200D01*
X154258301Y-105765200D01*
X154258301Y-106108196D01*
X154261248Y-106133604D01*
X154292876Y-106205235D01*
X154293756Y-106243340D01*
X154282534Y-106260563D01*
X154268480Y-106274617D01*
X154216285Y-106381385D01*
X154208666Y-106433680D01*
X154189155Y-106466423D01*
X154159386Y-106476300D01*
X153524185Y-106476300D01*
X153414242Y-106505759D01*
X153414234Y-106505763D01*
X153315661Y-106562673D01*
X151330173Y-108548161D01*
X151273263Y-108646734D01*
X151273259Y-108646742D01*
X151265004Y-108677554D01*
X151265004Y-108677555D01*
X151246869Y-108745235D01*
X151243800Y-108756687D01*
X151243800Y-119551686D01*
X151243800Y-119665514D01*
X151273261Y-119775462D01*
X151330174Y-119874039D01*
X151601744Y-120145609D01*
X151864214Y-120408078D01*
X151878800Y-120443292D01*
X151878800Y-124841500D01*
X151864214Y-124876714D01*
X151829000Y-124891300D01*
X150605849Y-124891300D01*
X150570635Y-124876714D01*
X150561109Y-124863372D01*
X150522119Y-124783617D01*
X150438082Y-124699580D01*
X150331314Y-124647385D01*
X150262096Y-124637300D01*
X148772105Y-124637300D01*
X148702884Y-124647385D01*
X148596117Y-124699580D01*
X148536314Y-124759384D01*
X148501100Y-124773970D01*
X148465886Y-124759384D01*
X148406082Y-124699580D01*
X148299314Y-124647385D01*
X148230096Y-124637300D01*
X146740105Y-124637300D01*
X146670884Y-124647385D01*
X146564117Y-124699580D01*
X146480080Y-124783617D01*
X146441091Y-124863372D01*
X146412521Y-124888602D01*
X146396351Y-124891300D01*
X145173200Y-124891300D01*
X145137986Y-124876714D01*
X145123400Y-124841500D01*
X145123400Y-123996686D01*
X145107535Y-123937478D01*
X145093939Y-123886739D01*
X145066643Y-123839461D01*
X145037026Y-123788161D01*
X144756986Y-123508121D01*
X144742400Y-123472907D01*
X144742400Y-121995700D01*
X144756986Y-121960486D01*
X144792200Y-121945900D01*
X150554039Y-121945900D01*
X150589253Y-121960486D01*
X150635995Y-122007228D01*
X150698275Y-122048841D01*
X150740078Y-122076773D01*
X150740079Y-122076773D01*
X150740081Y-122076775D01*
X150792020Y-122098288D01*
X150855731Y-122124678D01*
X150855738Y-122124679D01*
X150855740Y-122124680D01*
X150897751Y-122133036D01*
X150978509Y-122149100D01*
X150978514Y-122149100D01*
X151103686Y-122149100D01*
X151103691Y-122149100D01*
X151226469Y-122124678D01*
X151323332Y-122084556D01*
X151342118Y-122076775D01*
X151342118Y-122076774D01*
X151342122Y-122076773D01*
X151446208Y-122007225D01*
X151534725Y-121918708D01*
X151604273Y-121814622D01*
X151609223Y-121802673D01*
X151632795Y-121745763D01*
X151652178Y-121698969D01*
X151676600Y-121576191D01*
X151676600Y-121451009D01*
X151653842Y-121336595D01*
X151652180Y-121328240D01*
X151652179Y-121328238D01*
X151652178Y-121328231D01*
X151625788Y-121264520D01*
X151604275Y-121212581D01*
X151604273Y-121212579D01*
X151604273Y-121212578D01*
X151576341Y-121170775D01*
X151534728Y-121108495D01*
X151446204Y-121019971D01*
X151363163Y-120964486D01*
X151342122Y-120950427D01*
X151342120Y-120950426D01*
X151342118Y-120950424D01*
X151250005Y-120912271D01*
X151226469Y-120902522D01*
X151226465Y-120902521D01*
X151226459Y-120902519D01*
X151103693Y-120878100D01*
X151103691Y-120878100D01*
X150978509Y-120878100D01*
X150978506Y-120878100D01*
X150855740Y-120902519D01*
X150855732Y-120902521D01*
X150855731Y-120902522D01*
X150855727Y-120902523D01*
X150855726Y-120902524D01*
X150740081Y-120950424D01*
X150740079Y-120950426D01*
X150635995Y-121019971D01*
X150635993Y-121019974D01*
X150589253Y-121066714D01*
X150554039Y-121081300D01*
X144001792Y-121081300D01*
X143966578Y-121066714D01*
X143432538Y-120532673D01*
X143333965Y-120475763D01*
X143333962Y-120475761D01*
X143333959Y-120475760D01*
X143224014Y-120446300D01*
X143224013Y-120446300D01*
X142842813Y-120446300D01*
X142807599Y-120431714D01*
X142793533Y-120403680D01*
X142792744Y-120398264D01*
X142785915Y-120351387D01*
X142781126Y-120341591D01*
X142733719Y-120244617D01*
X142719666Y-120230564D01*
X142705080Y-120195350D01*
X142709324Y-120175234D01*
X142740948Y-120103614D01*
X142740950Y-120103605D01*
X142743899Y-120078190D01*
X142743900Y-120078189D01*
X142743900Y-119735200D01*
X139837501Y-119735200D01*
X139837501Y-120078196D01*
X139840448Y-120103604D01*
X139872076Y-120175235D01*
X139872956Y-120213340D01*
X139861734Y-120230563D01*
X139847680Y-120244617D01*
X139795485Y-120351385D01*
X139785400Y-120420603D01*
X139785400Y-121336594D01*
X139795485Y-121405815D01*
X139847680Y-121512582D01*
X139931717Y-121596619D01*
X139983144Y-121621760D01*
X140008374Y-121650330D01*
X140006012Y-121688372D01*
X139977442Y-121713602D01*
X139961272Y-121716300D01*
X139935187Y-121716300D01*
X139825241Y-121745760D01*
X139825235Y-121745763D01*
X139726662Y-121802673D01*
X139192621Y-122336714D01*
X139157407Y-122351300D01*
X138275994Y-122351300D01*
X138240780Y-122336714D01*
X138228631Y-122316889D01*
X138224979Y-122305648D01*
X138136005Y-122131025D01*
X138020809Y-121972472D01*
X137882228Y-121833891D01*
X137882224Y-121833888D01*
X137882223Y-121833887D01*
X137723672Y-121718693D01*
X137723671Y-121718692D01*
X137549053Y-121629721D01*
X137486922Y-121609533D01*
X137362662Y-121569159D01*
X137362657Y-121569158D01*
X137362653Y-121569157D01*
X137322432Y-121562787D01*
X137289933Y-121542872D01*
X137281035Y-121505810D01*
X137300950Y-121473311D01*
X137322432Y-121464413D01*
X137331164Y-121463029D01*
X137362662Y-121458041D01*
X137549052Y-121397479D01*
X137723675Y-121308505D01*
X137882228Y-121193309D01*
X138020809Y-121054728D01*
X138136005Y-120896175D01*
X138224979Y-120721552D01*
X138285541Y-120535162D01*
X138316200Y-120341591D01*
X138316200Y-120145609D01*
X138285541Y-119952038D01*
X138224979Y-119765648D01*
X138219612Y-119755116D01*
X138216621Y-119717120D01*
X138228768Y-119697295D01*
X139140579Y-118785486D01*
X139175793Y-118770900D01*
X139738587Y-118770900D01*
X139773801Y-118785486D01*
X139787867Y-118813520D01*
X139795485Y-118865815D01*
X139847680Y-118972582D01*
X139861732Y-118986634D01*
X139876318Y-119021848D01*
X139872075Y-119041963D01*
X139840450Y-119113588D01*
X139840449Y-119113594D01*
X139837500Y-119139009D01*
X139837500Y-119482000D01*
X142743899Y-119482000D01*
X142743899Y-119139013D01*
X142743898Y-119139003D01*
X142740952Y-119113596D01*
X142740951Y-119113594D01*
X142709323Y-119041963D01*
X142708443Y-119003858D01*
X142719664Y-118986637D01*
X142733719Y-118972583D01*
X142785915Y-118865813D01*
X142793534Y-118813519D01*
X142813045Y-118780777D01*
X142842814Y-118770900D01*
X143315039Y-118770900D01*
X143350253Y-118785486D01*
X143396995Y-118832228D01*
X143447263Y-118865815D01*
X143501078Y-118901773D01*
X143501079Y-118901773D01*
X143501081Y-118901775D01*
X143544587Y-118919795D01*
X143616731Y-118949678D01*
X143616738Y-118949679D01*
X143616740Y-118949680D01*
X143658751Y-118958036D01*
X143739509Y-118974100D01*
X143739514Y-118974100D01*
X143864686Y-118974100D01*
X143864691Y-118974100D01*
X143987469Y-118949678D01*
X144089542Y-118907398D01*
X144103118Y-118901775D01*
X144103118Y-118901774D01*
X144103122Y-118901773D01*
X144207208Y-118832225D01*
X144295725Y-118743708D01*
X144365273Y-118639622D01*
X144413178Y-118523969D01*
X144437600Y-118401191D01*
X144437600Y-118276009D01*
X144421536Y-118195251D01*
X144413180Y-118153240D01*
X144413179Y-118153238D01*
X144413178Y-118153231D01*
X144386788Y-118089520D01*
X144365275Y-118037581D01*
X144365273Y-118037579D01*
X144365273Y-118037578D01*
X144337341Y-117995775D01*
X144295728Y-117933495D01*
X144207204Y-117844971D01*
X144124163Y-117789486D01*
X144103122Y-117775427D01*
X144103120Y-117775426D01*
X144103118Y-117775425D01*
X144040792Y-117749609D01*
X144013840Y-117722658D01*
X144013840Y-117684543D01*
X144040790Y-117657591D01*
X144103122Y-117631773D01*
X144207208Y-117562225D01*
X144295725Y-117473708D01*
X144365273Y-117369622D01*
X144413178Y-117253969D01*
X144437600Y-117131191D01*
X144437600Y-117006009D01*
X144413178Y-116883231D01*
X144386788Y-116819520D01*
X144365275Y-116767581D01*
X144365273Y-116767579D01*
X144365273Y-116767578D01*
X144335269Y-116722674D01*
X144295728Y-116663495D01*
X144207204Y-116574971D01*
X144124163Y-116519486D01*
X144103122Y-116505427D01*
X144103120Y-116505426D01*
X144103118Y-116505424D01*
X144000385Y-116462872D01*
X143987469Y-116457522D01*
X143987465Y-116457521D01*
X143987459Y-116457519D01*
X143864693Y-116433100D01*
X143864691Y-116433100D01*
X143739509Y-116433100D01*
X143739506Y-116433100D01*
X143616740Y-116457519D01*
X143616732Y-116457521D01*
X143616731Y-116457522D01*
X143616727Y-116457523D01*
X143616726Y-116457524D01*
X143501081Y-116505424D01*
X143501079Y-116505426D01*
X143396995Y-116574971D01*
X143396993Y-116574974D01*
X143350253Y-116621714D01*
X143315039Y-116636300D01*
X142842813Y-116636300D01*
X142807599Y-116621714D01*
X142793533Y-116593680D01*
X142790808Y-116574974D01*
X142785915Y-116541387D01*
X142775215Y-116519500D01*
X142733719Y-116434617D01*
X142719666Y-116420564D01*
X142705080Y-116385350D01*
X142709324Y-116365234D01*
X142740948Y-116293614D01*
X142740950Y-116293605D01*
X142743899Y-116268190D01*
X142743900Y-116268189D01*
X142743900Y-115925200D01*
X139837501Y-115925200D01*
X139837501Y-116268196D01*
X139840448Y-116293604D01*
X139872076Y-116365235D01*
X139872956Y-116403340D01*
X139861734Y-116420563D01*
X139847680Y-116434617D01*
X139795485Y-116541385D01*
X139787866Y-116593680D01*
X139768355Y-116626423D01*
X139738586Y-116636300D01*
X139427187Y-116636300D01*
X139317241Y-116665760D01*
X139317235Y-116665763D01*
X139218662Y-116722673D01*
X138684621Y-117256714D01*
X138649407Y-117271300D01*
X138275994Y-117271300D01*
X138240780Y-117256714D01*
X138228631Y-117236889D01*
X138224979Y-117225648D01*
X138136005Y-117051025D01*
X138020809Y-116892472D01*
X137882228Y-116753891D01*
X137882224Y-116753888D01*
X137882223Y-116753887D01*
X137723672Y-116638693D01*
X137723671Y-116638692D01*
X137549053Y-116549721D01*
X137486922Y-116529533D01*
X137362662Y-116489159D01*
X137362657Y-116489158D01*
X137362653Y-116489157D01*
X137169091Y-116458500D01*
X136973109Y-116458500D01*
X136779546Y-116489157D01*
X136779540Y-116489158D01*
X136779538Y-116489159D01*
X136717408Y-116509346D01*
X136593146Y-116549721D01*
X136418528Y-116638692D01*
X136418527Y-116638693D01*
X136259976Y-116753887D01*
X136121387Y-116892476D01*
X136018689Y-117033828D01*
X135986190Y-117053743D01*
X135949128Y-117044845D01*
X135929213Y-117012346D01*
X135928600Y-117004556D01*
X135928600Y-115756556D01*
X135943186Y-115721342D01*
X135978400Y-115706756D01*
X136013614Y-115721342D01*
X136022772Y-115733948D01*
X136050752Y-115788864D01*
X136050753Y-115788865D01*
X136161127Y-115940782D01*
X136293917Y-116073572D01*
X136445832Y-116183945D01*
X136613148Y-116269196D01*
X136791740Y-116327223D01*
X136791747Y-116327225D01*
X136944500Y-116351418D01*
X136944500Y-115655598D01*
X137004220Y-115671600D01*
X137137980Y-115671600D01*
X137197700Y-115655598D01*
X137197700Y-116351418D01*
X137350452Y-116327225D01*
X137350459Y-116327223D01*
X137529051Y-116269196D01*
X137696367Y-116183945D01*
X137848282Y-116073572D01*
X137981072Y-115940782D01*
X138091445Y-115788867D01*
X138176696Y-115621551D01*
X138234723Y-115442959D01*
X138234725Y-115442952D01*
X138258919Y-115290200D01*
X137563098Y-115290200D01*
X137579100Y-115230480D01*
X137579100Y-115096720D01*
X137563098Y-115037000D01*
X138258918Y-115037000D01*
X138234725Y-114884247D01*
X138234723Y-114884240D01*
X138176696Y-114705648D01*
X138091445Y-114538332D01*
X137981072Y-114386417D01*
X137848282Y-114253627D01*
X137696367Y-114143254D01*
X137529051Y-114058003D01*
X137350459Y-113999976D01*
X137350454Y-113999974D01*
X137197700Y-113975780D01*
X137197700Y-114671601D01*
X137137980Y-114655600D01*
X137004220Y-114655600D01*
X136944500Y-114671601D01*
X136944500Y-113975780D01*
X136791745Y-113999974D01*
X136791740Y-113999976D01*
X136613148Y-114058003D01*
X136445832Y-114143254D01*
X136293917Y-114253627D01*
X136161127Y-114386417D01*
X136050754Y-114538332D01*
X136022772Y-114593252D01*
X135993789Y-114618006D01*
X135955791Y-114615015D01*
X135931037Y-114586032D01*
X135928600Y-114570643D01*
X135928600Y-113216556D01*
X135943186Y-113181342D01*
X135978400Y-113166756D01*
X136013614Y-113181342D01*
X136022772Y-113193948D01*
X136050752Y-113248864D01*
X136050753Y-113248865D01*
X136161127Y-113400782D01*
X136293917Y-113533572D01*
X136445832Y-113643945D01*
X136613148Y-113729196D01*
X136791740Y-113787223D01*
X136791747Y-113787225D01*
X136944500Y-113811418D01*
X136944500Y-113115598D01*
X137004220Y-113131600D01*
X137137980Y-113131600D01*
X137197700Y-113115598D01*
X137197700Y-113811418D01*
X137350452Y-113787225D01*
X137350459Y-113787223D01*
X137529051Y-113729196D01*
X137696367Y-113643945D01*
X137848282Y-113533572D01*
X137981072Y-113400782D01*
X138091445Y-113248867D01*
X138176696Y-113081551D01*
X138234723Y-112902959D01*
X138234725Y-112902952D01*
X138250936Y-112800603D01*
X139785400Y-112800603D01*
X139785400Y-113716594D01*
X139795485Y-113785815D01*
X139837485Y-113871728D01*
X139839847Y-113909771D01*
X139837485Y-113915472D01*
X139795485Y-114001385D01*
X139785400Y-114070603D01*
X139785400Y-114986594D01*
X139795485Y-115055815D01*
X139847680Y-115162582D01*
X139861732Y-115176634D01*
X139876318Y-115211848D01*
X139872075Y-115231963D01*
X139840450Y-115303588D01*
X139840449Y-115303594D01*
X139837500Y-115329009D01*
X139837500Y-115672000D01*
X142743899Y-115672000D01*
X142743899Y-115329013D01*
X142743898Y-115329003D01*
X142740952Y-115303596D01*
X142740951Y-115303594D01*
X142709323Y-115231963D01*
X142708443Y-115193858D01*
X142719664Y-115176637D01*
X142733719Y-115162583D01*
X142785915Y-115055813D01*
X142793534Y-115003519D01*
X142813045Y-114970777D01*
X142842814Y-114960900D01*
X143986014Y-114960900D01*
X144095962Y-114931439D01*
X144194539Y-114874526D01*
X153292026Y-105777038D01*
X153348939Y-105678461D01*
X153378400Y-105568513D01*
X153378400Y-105454686D01*
X153378400Y-103552293D01*
X153392986Y-103517079D01*
X154812379Y-102097686D01*
X154847593Y-102083100D01*
X154913686Y-102083100D01*
X154913691Y-102083100D01*
X155036469Y-102058678D01*
X155144730Y-102013835D01*
X155152118Y-102010775D01*
X155152118Y-102010774D01*
X155152122Y-102010773D01*
X155256208Y-101941225D01*
X155344725Y-101852708D01*
X155344850Y-101852522D01*
X155358409Y-101832227D01*
X155414273Y-101748622D01*
X155462178Y-101632969D01*
X155486600Y-101510191D01*
X155486600Y-101385009D01*
X155462178Y-101262231D01*
X155435788Y-101198520D01*
X155414275Y-101146581D01*
X155414273Y-101146579D01*
X155414273Y-101146578D01*
X155368102Y-101077478D01*
X155344728Y-101042495D01*
X155256204Y-100953971D01*
X155157918Y-100888300D01*
X155152122Y-100884427D01*
X155152120Y-100884426D01*
X155152118Y-100884424D01*
X155041244Y-100838500D01*
X155036469Y-100836522D01*
X155036465Y-100836521D01*
X155036459Y-100836519D01*
X154913693Y-100812100D01*
X154913691Y-100812100D01*
X154788509Y-100812100D01*
X154788504Y-100812100D01*
X154763454Y-100817083D01*
X154726071Y-100809646D01*
X154704897Y-100777955D01*
X154700180Y-100754240D01*
X154700179Y-100754238D01*
X154700178Y-100754231D01*
X154665797Y-100671228D01*
X154652275Y-100638581D01*
X154652273Y-100638579D01*
X154652273Y-100638578D01*
X154620398Y-100590874D01*
X154582728Y-100534495D01*
X154494204Y-100445971D01*
X154407369Y-100387951D01*
X154390122Y-100376427D01*
X154390120Y-100376426D01*
X154390118Y-100376424D01*
X154297715Y-100338151D01*
X154274469Y-100328522D01*
X154274465Y-100328521D01*
X154274459Y-100328519D01*
X154151693Y-100304100D01*
X154151691Y-100304100D01*
X154026509Y-100304100D01*
X154026506Y-100304100D01*
X153903740Y-100328519D01*
X153903732Y-100328521D01*
X153903731Y-100328522D01*
X153903727Y-100328523D01*
X153903726Y-100328524D01*
X153788081Y-100376424D01*
X153788079Y-100376426D01*
X153683995Y-100445971D01*
X153683993Y-100445974D01*
X153595474Y-100534493D01*
X153595471Y-100534495D01*
X153525926Y-100638579D01*
X153525924Y-100638581D01*
X153478024Y-100754226D01*
X153478019Y-100754240D01*
X153453600Y-100877006D01*
X153453600Y-100943107D01*
X153439014Y-100978321D01*
X151965173Y-102452161D01*
X151908263Y-102550734D01*
X151908259Y-102550742D01*
X151886176Y-102633160D01*
X151886176Y-102633161D01*
X151878800Y-102660686D01*
X151878800Y-105057907D01*
X151864214Y-105093121D01*
X144145621Y-112811714D01*
X144110407Y-112826300D01*
X142842813Y-112826300D01*
X142807599Y-112811714D01*
X142793533Y-112783680D01*
X142785915Y-112731387D01*
X142733719Y-112624617D01*
X142719666Y-112610564D01*
X142705080Y-112575350D01*
X142709324Y-112555234D01*
X142740948Y-112483614D01*
X142740950Y-112483605D01*
X142743899Y-112458190D01*
X142743900Y-112458189D01*
X142743900Y-112115200D01*
X139837501Y-112115200D01*
X139837501Y-112458196D01*
X139840448Y-112483604D01*
X139872076Y-112555235D01*
X139872956Y-112593340D01*
X139861734Y-112610563D01*
X139847680Y-112624617D01*
X139795485Y-112731385D01*
X139785400Y-112800603D01*
X138250936Y-112800603D01*
X138252455Y-112791013D01*
X138258919Y-112750200D01*
X137563098Y-112750200D01*
X137579100Y-112690480D01*
X137579100Y-112556720D01*
X137563098Y-112497000D01*
X138258918Y-112497000D01*
X138234725Y-112344247D01*
X138234723Y-112344240D01*
X138176696Y-112165648D01*
X138091445Y-111998332D01*
X137981072Y-111846417D01*
X137848282Y-111713627D01*
X137696367Y-111603254D01*
X137529051Y-111518003D01*
X137350459Y-111459976D01*
X137350454Y-111459974D01*
X137197700Y-111435780D01*
X137197700Y-112131601D01*
X137137980Y-112115600D01*
X137004220Y-112115600D01*
X136944500Y-112131601D01*
X136944500Y-111435780D01*
X136791745Y-111459974D01*
X136791740Y-111459976D01*
X136613148Y-111518003D01*
X136445832Y-111603254D01*
X136293917Y-111713627D01*
X136161127Y-111846417D01*
X136050754Y-111998332D01*
X136022772Y-112053252D01*
X135993789Y-112078006D01*
X135955791Y-112075015D01*
X135931037Y-112046032D01*
X135928600Y-112030643D01*
X135928600Y-110782643D01*
X135943186Y-110747429D01*
X135978400Y-110732843D01*
X136013614Y-110747429D01*
X136018686Y-110753368D01*
X136121391Y-110894728D01*
X136259972Y-111033309D01*
X136418525Y-111148505D01*
X136418527Y-111148506D01*
X136418528Y-111148507D01*
X136593144Y-111237477D01*
X136593148Y-111237479D01*
X136779538Y-111298041D01*
X136973109Y-111328700D01*
X137169091Y-111328700D01*
X137362662Y-111298041D01*
X137549052Y-111237479D01*
X137723675Y-111148505D01*
X137882228Y-111033309D01*
X138020809Y-110894728D01*
X138136005Y-110736175D01*
X138224979Y-110561552D01*
X138285541Y-110375162D01*
X138316200Y-110181591D01*
X138316200Y-109985609D01*
X138285541Y-109792038D01*
X138224979Y-109605648D01*
X138162800Y-109483613D01*
X138136007Y-109431028D01*
X138136006Y-109431027D01*
X138127827Y-109419770D01*
X138020809Y-109272472D01*
X137882228Y-109133891D01*
X137882224Y-109133888D01*
X137882223Y-109133887D01*
X137723672Y-109018693D01*
X137723671Y-109018692D01*
X137549053Y-108929721D01*
X137479146Y-108907007D01*
X137362662Y-108869159D01*
X137362657Y-108869158D01*
X137362653Y-108869157D01*
X137322432Y-108862787D01*
X137289933Y-108842872D01*
X137281035Y-108805810D01*
X137300950Y-108773311D01*
X137322432Y-108764413D01*
X137331164Y-108763029D01*
X137362662Y-108758041D01*
X137549052Y-108697479D01*
X137723675Y-108608505D01*
X137882228Y-108493309D01*
X138020809Y-108354728D01*
X138136005Y-108196175D01*
X138159056Y-108150935D01*
X138169677Y-108130091D01*
X138198660Y-108105337D01*
X138214049Y-108102900D01*
X138668733Y-108102900D01*
X138810982Y-108064784D01*
X138938518Y-107991151D01*
X139042651Y-107887018D01*
X139447183Y-107482486D01*
X139482397Y-107467900D01*
X139780084Y-107467900D01*
X139785479Y-107470134D01*
X139791239Y-107469165D01*
X139800076Y-107476181D01*
X139815298Y-107482486D01*
X139822291Y-107491269D01*
X139823678Y-107493484D01*
X139847681Y-107542583D01*
X139865725Y-107560627D01*
X139868725Y-107565417D01*
X139871022Y-107579063D01*
X139876318Y-107591848D01*
X139874570Y-107600134D01*
X139875053Y-107603003D01*
X139873506Y-107605175D01*
X139872075Y-107611963D01*
X139840450Y-107683588D01*
X139840449Y-107683594D01*
X139837500Y-107709009D01*
X139837500Y-108052000D01*
X142743899Y-108052000D01*
X142743899Y-107709013D01*
X142743898Y-107709003D01*
X142740952Y-107683596D01*
X142740951Y-107683594D01*
X142709323Y-107611963D01*
X142708443Y-107573858D01*
X142712674Y-107565416D01*
X142715670Y-107560631D01*
X142733719Y-107542583D01*
X142757720Y-107493486D01*
X142759110Y-107491268D01*
X142772667Y-107481617D01*
X142785146Y-107470598D01*
X142789068Y-107469943D01*
X142790162Y-107469165D01*
X142791940Y-107469464D01*
X142801316Y-107467900D01*
X142948422Y-107467900D01*
X142967479Y-107471691D01*
X142993541Y-107482486D01*
X143083331Y-107519678D01*
X143083338Y-107519679D01*
X143083340Y-107519680D01*
X143125351Y-107528036D01*
X143206109Y-107544100D01*
X143206114Y-107544100D01*
X143331286Y-107544100D01*
X143331291Y-107544100D01*
X143454069Y-107519678D01*
X143546185Y-107481522D01*
X143569718Y-107471775D01*
X143569718Y-107471774D01*
X143569722Y-107471773D01*
X143673808Y-107402225D01*
X143762325Y-107313708D01*
X143831873Y-107209622D01*
X143879778Y-107093969D01*
X143904200Y-106971191D01*
X143904200Y-106846009D01*
X143879778Y-106723231D01*
X143845397Y-106640228D01*
X143831875Y-106607581D01*
X143831873Y-106607579D01*
X143831873Y-106607578D01*
X143801869Y-106562674D01*
X143762328Y-106503495D01*
X143673804Y-106414971D01*
X143572173Y-106347065D01*
X143569722Y-106345427D01*
X143569720Y-106345426D01*
X143569718Y-106345424D01*
X143466985Y-106302872D01*
X143454069Y-106297522D01*
X143454065Y-106297521D01*
X143454059Y-106297519D01*
X143331293Y-106273100D01*
X143331291Y-106273100D01*
X143206109Y-106273100D01*
X143206106Y-106273100D01*
X143083340Y-106297519D01*
X143083332Y-106297521D01*
X143083331Y-106297522D01*
X143083327Y-106297523D01*
X143083326Y-106297524D01*
X142967479Y-106345509D01*
X142948422Y-106349300D01*
X142801316Y-106349300D01*
X142795920Y-106347065D01*
X142790161Y-106348035D01*
X142781323Y-106341018D01*
X142766102Y-106334714D01*
X142759109Y-106325932D01*
X142757723Y-106323720D01*
X142733719Y-106274617D01*
X142715670Y-106256568D01*
X142712673Y-106251782D01*
X142710375Y-106238134D01*
X142705080Y-106225350D01*
X142706828Y-106217064D01*
X142706345Y-106214195D01*
X142707891Y-106212021D01*
X142709324Y-106205234D01*
X142740948Y-106133614D01*
X142740950Y-106133605D01*
X142743899Y-106108190D01*
X142743900Y-106108189D01*
X142743900Y-105765200D01*
X139837501Y-105765200D01*
X139837501Y-106108196D01*
X139840448Y-106133604D01*
X139872076Y-106205235D01*
X139872956Y-106243340D01*
X139868726Y-106251781D01*
X139865725Y-106256572D01*
X139847681Y-106274617D01*
X139823678Y-106323715D01*
X139822291Y-106325931D01*
X139808731Y-106335583D01*
X139796254Y-106346602D01*
X139792333Y-106347256D01*
X139791239Y-106348035D01*
X139789460Y-106347735D01*
X139780084Y-106349300D01*
X139156465Y-106349300D01*
X139014223Y-106387413D01*
X139014215Y-106387417D01*
X138886682Y-106461048D01*
X138378017Y-106969714D01*
X138342803Y-106984300D01*
X138214049Y-106984300D01*
X138178835Y-106969714D01*
X138169677Y-106957109D01*
X138137702Y-106894356D01*
X138136005Y-106891025D01*
X138020809Y-106732472D01*
X137882228Y-106593891D01*
X137882224Y-106593888D01*
X137882223Y-106593887D01*
X137723672Y-106478693D01*
X137723671Y-106478692D01*
X137549053Y-106389721D01*
X137486922Y-106369533D01*
X137362662Y-106329159D01*
X137362657Y-106329158D01*
X137362653Y-106329157D01*
X137322432Y-106322787D01*
X137289933Y-106302872D01*
X137281035Y-106265810D01*
X137300950Y-106233311D01*
X137322432Y-106224413D01*
X137331164Y-106223029D01*
X137362662Y-106218041D01*
X137549052Y-106157479D01*
X137723675Y-106068505D01*
X137882228Y-105953309D01*
X138020809Y-105814728D01*
X138136005Y-105656175D01*
X138158438Y-105612146D01*
X138169677Y-105590091D01*
X138198660Y-105565337D01*
X138214049Y-105562900D01*
X138668733Y-105562900D01*
X138810982Y-105524784D01*
X138938518Y-105451151D01*
X139042651Y-105347018D01*
X139447183Y-104942486D01*
X139482397Y-104927900D01*
X139780084Y-104927900D01*
X139785479Y-104930134D01*
X139791239Y-104929165D01*
X139800076Y-104936181D01*
X139815298Y-104942486D01*
X139822291Y-104951269D01*
X139823678Y-104953484D01*
X139847681Y-105002583D01*
X139865725Y-105020627D01*
X139868725Y-105025417D01*
X139871022Y-105039063D01*
X139876318Y-105051848D01*
X139874570Y-105060134D01*
X139875053Y-105063003D01*
X139873506Y-105065175D01*
X139872075Y-105071963D01*
X139840450Y-105143588D01*
X139840449Y-105143594D01*
X139837500Y-105169009D01*
X139837500Y-105512000D01*
X142743899Y-105512000D01*
X142743899Y-105169013D01*
X142743898Y-105169003D01*
X142740952Y-105143596D01*
X142740951Y-105143594D01*
X142709323Y-105071963D01*
X142708443Y-105033858D01*
X142719664Y-105016637D01*
X142733719Y-105002583D01*
X142785915Y-104895813D01*
X142796000Y-104826595D01*
X142795999Y-103910606D01*
X142785915Y-103841387D01*
X142783523Y-103836495D01*
X142733719Y-103734617D01*
X142649682Y-103650580D01*
X142542914Y-103598385D01*
X142473696Y-103588300D01*
X142473695Y-103588300D01*
X141899800Y-103588300D01*
X141864586Y-103573714D01*
X141850000Y-103538500D01*
X141850000Y-103068296D01*
X141864585Y-103033083D01*
X142233703Y-102663964D01*
X142268916Y-102649379D01*
X142304130Y-102663965D01*
X142314925Y-102680121D01*
X142349926Y-102764621D01*
X142419471Y-102868704D01*
X142507995Y-102957228D01*
X142557166Y-102990082D01*
X142612078Y-103026773D01*
X142612079Y-103026773D01*
X142612081Y-103026775D01*
X142646898Y-103041196D01*
X142727731Y-103074678D01*
X142727738Y-103074679D01*
X142727740Y-103074680D01*
X142769751Y-103083036D01*
X142850509Y-103099100D01*
X142850514Y-103099100D01*
X142975686Y-103099100D01*
X142975691Y-103099100D01*
X143098469Y-103074678D01*
X143198891Y-103033082D01*
X143214321Y-103026691D01*
X143233378Y-103022900D01*
X144751822Y-103022900D01*
X144770879Y-103026691D01*
X144786309Y-103033082D01*
X144886731Y-103074678D01*
X144886738Y-103074679D01*
X144886740Y-103074680D01*
X144928751Y-103083036D01*
X145009509Y-103099100D01*
X145009514Y-103099100D01*
X145134686Y-103099100D01*
X145134691Y-103099100D01*
X145257469Y-103074678D01*
X145269443Y-103069717D01*
X145307556Y-103069717D01*
X145334509Y-103096668D01*
X145338300Y-103115727D01*
X145338300Y-107280407D01*
X145323714Y-107315621D01*
X143637621Y-109001714D01*
X143602407Y-109016300D01*
X142842813Y-109016300D01*
X142807599Y-109001714D01*
X142793533Y-108973680D01*
X142787129Y-108929721D01*
X142785915Y-108921387D01*
X142778885Y-108907007D01*
X142733719Y-108814617D01*
X142719666Y-108800564D01*
X142705080Y-108765350D01*
X142709324Y-108745234D01*
X142740948Y-108673614D01*
X142740950Y-108673605D01*
X142743899Y-108648190D01*
X142743900Y-108648189D01*
X142743900Y-108305200D01*
X139837501Y-108305200D01*
X139837501Y-108648196D01*
X139840448Y-108673604D01*
X139872076Y-108745235D01*
X139872956Y-108783340D01*
X139861734Y-108800563D01*
X139847680Y-108814617D01*
X139795485Y-108921385D01*
X139785400Y-108990603D01*
X139785400Y-109906594D01*
X139795485Y-109975815D01*
X139837485Y-110061728D01*
X139839847Y-110099771D01*
X139837485Y-110105472D01*
X139795485Y-110191385D01*
X139785400Y-110260603D01*
X139785400Y-111176594D01*
X139795485Y-111245815D01*
X139847680Y-111352582D01*
X139861732Y-111366634D01*
X139876318Y-111401848D01*
X139872075Y-111421963D01*
X139840450Y-111493588D01*
X139840449Y-111493594D01*
X139837500Y-111519009D01*
X139837500Y-111862000D01*
X142743899Y-111862000D01*
X142743899Y-111519013D01*
X142743898Y-111519003D01*
X142740952Y-111493596D01*
X142740951Y-111493594D01*
X142709323Y-111421963D01*
X142708443Y-111383858D01*
X142719664Y-111366637D01*
X142733719Y-111352583D01*
X142785915Y-111245813D01*
X142793534Y-111193519D01*
X142813045Y-111160777D01*
X142842814Y-111150900D01*
X143351014Y-111150900D01*
X143460962Y-111121439D01*
X143559539Y-111064526D01*
X146561026Y-108063039D01*
X146617939Y-107964462D01*
X146647400Y-107854513D01*
X146647400Y-107740686D01*
X146647400Y-104262493D01*
X146661986Y-104227279D01*
X146697200Y-104212693D01*
X146732414Y-104227279D01*
X148613014Y-106107879D01*
X148627600Y-106143093D01*
X148627600Y-106209193D01*
X148652019Y-106331959D01*
X148652021Y-106331965D01*
X148652022Y-106331969D01*
X148658677Y-106348035D01*
X148699924Y-106447618D01*
X148699926Y-106447620D01*
X148769471Y-106551704D01*
X148857995Y-106640228D01*
X148920275Y-106681841D01*
X148962078Y-106709773D01*
X148962079Y-106709773D01*
X148962081Y-106709775D01*
X148994590Y-106723240D01*
X149077731Y-106757678D01*
X149077738Y-106757679D01*
X149077740Y-106757680D01*
X149119751Y-106766036D01*
X149200509Y-106782100D01*
X149200514Y-106782100D01*
X149325686Y-106782100D01*
X149325691Y-106782100D01*
X149448469Y-106757678D01*
X149540585Y-106719522D01*
X149564118Y-106709775D01*
X149564118Y-106709774D01*
X149564122Y-106709773D01*
X149668208Y-106640225D01*
X149756725Y-106551708D01*
X149826273Y-106447622D01*
X149874178Y-106331969D01*
X149898600Y-106209191D01*
X149898600Y-106084009D01*
X149874178Y-105961231D01*
X149847788Y-105897520D01*
X149826275Y-105845581D01*
X149826273Y-105845579D01*
X149826273Y-105845578D01*
X149780476Y-105777038D01*
X149756728Y-105741495D01*
X149689047Y-105673814D01*
X149674461Y-105638600D01*
X149689047Y-105603386D01*
X149756726Y-105535707D01*
X149756728Y-105535704D01*
X149777989Y-105503884D01*
X149826273Y-105431622D01*
X149874178Y-105315969D01*
X149898600Y-105193191D01*
X149898600Y-105068009D01*
X149874178Y-104945231D01*
X149845957Y-104877099D01*
X149826275Y-104829581D01*
X149826273Y-104829579D01*
X149826273Y-104829578D01*
X149798341Y-104787775D01*
X149756728Y-104725495D01*
X149668204Y-104636971D01*
X149585163Y-104581486D01*
X149564122Y-104567427D01*
X149564120Y-104567426D01*
X149564118Y-104567424D01*
X149463258Y-104525648D01*
X149448469Y-104519522D01*
X149448465Y-104519521D01*
X149448459Y-104519519D01*
X149325693Y-104495100D01*
X149325691Y-104495100D01*
X149259593Y-104495100D01*
X149224379Y-104480514D01*
X148947986Y-104204121D01*
X148933400Y-104168907D01*
X148933400Y-103299097D01*
X148947986Y-103263883D01*
X148983200Y-103249297D01*
X149018414Y-103263883D01*
X150165143Y-104410612D01*
X150175938Y-104426768D01*
X150223926Y-104542621D01*
X150293471Y-104646704D01*
X150381995Y-104735228D01*
X150444275Y-104776841D01*
X150486078Y-104804773D01*
X150486079Y-104804773D01*
X150486081Y-104804775D01*
X150538020Y-104826288D01*
X150601731Y-104852678D01*
X150601738Y-104852679D01*
X150601740Y-104852680D01*
X150643751Y-104861036D01*
X150724509Y-104877100D01*
X150724514Y-104877100D01*
X150849686Y-104877100D01*
X150849691Y-104877100D01*
X150972469Y-104852678D01*
X151064585Y-104814522D01*
X151088118Y-104804775D01*
X151088118Y-104804774D01*
X151088122Y-104804773D01*
X151192208Y-104735225D01*
X151280725Y-104646708D01*
X151287229Y-104636975D01*
X151294409Y-104626227D01*
X151350273Y-104542622D01*
X151359841Y-104519524D01*
X151372150Y-104489806D01*
X151398178Y-104426969D01*
X151422600Y-104304191D01*
X151422600Y-104179009D01*
X151398178Y-104056231D01*
X151371788Y-103992520D01*
X151350275Y-103940581D01*
X151350273Y-103940579D01*
X151350273Y-103940578D01*
X151322341Y-103898775D01*
X151280728Y-103836495D01*
X151192204Y-103747971D01*
X151109163Y-103692486D01*
X151088122Y-103678427D01*
X151088120Y-103678426D01*
X151088121Y-103678426D01*
X150972268Y-103630438D01*
X150956112Y-103619643D01*
X149887786Y-102551316D01*
X149873200Y-102516102D01*
X149873200Y-102001598D01*
X149878260Y-101979726D01*
X149917026Y-101900427D01*
X149926615Y-101880813D01*
X149936700Y-101811595D01*
X149936699Y-100575606D01*
X149926615Y-100506387D01*
X149911668Y-100475813D01*
X149874419Y-100399617D01*
X149790382Y-100315580D01*
X149683614Y-100263385D01*
X149614396Y-100253300D01*
X149013405Y-100253300D01*
X148944185Y-100263385D01*
X148929370Y-100270628D01*
X148891328Y-100272988D01*
X148885629Y-100270627D01*
X148870816Y-100263385D01*
X148801596Y-100253300D01*
X148200605Y-100253300D01*
X148154190Y-100260062D01*
X148131387Y-100263385D01*
X148131385Y-100263385D01*
X148131384Y-100263386D01*
X148131382Y-100263386D01*
X148049911Y-100303214D01*
X148022301Y-100307942D01*
X148000392Y-100305400D01*
X147814900Y-100305400D01*
X147814900Y-102081799D01*
X148000387Y-102081799D01*
X148000393Y-102081798D01*
X148013262Y-102080306D01*
X148049922Y-102090737D01*
X148068468Y-102124036D01*
X148068800Y-102129774D01*
X148068800Y-104220707D01*
X148054214Y-104255921D01*
X148019000Y-104270507D01*
X147983786Y-104255921D01*
X147157286Y-103429421D01*
X147142700Y-103394207D01*
X147142700Y-102049049D01*
X147157286Y-102013835D01*
X147192500Y-101999249D01*
X147227714Y-102013835D01*
X147246823Y-102032944D01*
X147350788Y-102078849D01*
X147350794Y-102078850D01*
X147376210Y-102081799D01*
X147561700Y-102081799D01*
X147561700Y-100305400D01*
X147376213Y-100305400D01*
X147376203Y-100305401D01*
X147350795Y-100308348D01*
X147246823Y-100354255D01*
X147227714Y-100373365D01*
X147192500Y-100387951D01*
X147157286Y-100373365D01*
X147142700Y-100338151D01*
X147142700Y-98872092D01*
X147157286Y-98836878D01*
X147192500Y-98822292D01*
X147227714Y-98836878D01*
G37*
%TD.AperFunction*%
%TA.AperFunction,Conductor*%
G36*
X161053072Y-110742354D02*
G01*
X161072987Y-110774853D01*
X161073600Y-110782643D01*
X161073600Y-112030643D01*
X161059014Y-112065857D01*
X161023800Y-112080443D01*
X160988586Y-112065857D01*
X160979428Y-112053252D01*
X160951445Y-111998332D01*
X160841072Y-111846417D01*
X160708282Y-111713627D01*
X160556367Y-111603254D01*
X160389051Y-111518003D01*
X160210459Y-111459976D01*
X160210454Y-111459974D01*
X160057700Y-111435780D01*
X160057700Y-112131601D01*
X159997980Y-112115600D01*
X159864220Y-112115600D01*
X159804500Y-112131601D01*
X159804500Y-111435780D01*
X159651745Y-111459974D01*
X159651740Y-111459976D01*
X159473148Y-111518003D01*
X159305832Y-111603254D01*
X159153917Y-111713627D01*
X159021127Y-111846417D01*
X158910754Y-111998332D01*
X158825503Y-112165648D01*
X158767476Y-112344240D01*
X158767474Y-112344247D01*
X158743281Y-112497000D01*
X159439102Y-112497000D01*
X159423100Y-112556720D01*
X159423100Y-112690480D01*
X159439102Y-112750200D01*
X158743281Y-112750200D01*
X158767474Y-112902952D01*
X158767476Y-112902959D01*
X158825503Y-113081551D01*
X158910754Y-113248867D01*
X159021127Y-113400782D01*
X159153917Y-113533572D01*
X159305832Y-113643945D01*
X159473148Y-113729196D01*
X159651740Y-113787223D01*
X159651747Y-113787225D01*
X159804500Y-113811418D01*
X159804500Y-113115598D01*
X159864220Y-113131600D01*
X159997980Y-113131600D01*
X160057700Y-113115598D01*
X160057700Y-113811418D01*
X160210452Y-113787225D01*
X160210459Y-113787223D01*
X160389051Y-113729196D01*
X160556367Y-113643945D01*
X160708282Y-113533572D01*
X160841072Y-113400782D01*
X160951446Y-113248865D01*
X160951447Y-113248864D01*
X160979428Y-113193948D01*
X161008410Y-113169194D01*
X161046408Y-113172184D01*
X161071162Y-113201166D01*
X161073600Y-113216556D01*
X161073600Y-114464556D01*
X161059014Y-114499770D01*
X161023800Y-114514356D01*
X160988586Y-114499770D01*
X160983511Y-114493828D01*
X160880812Y-114352476D01*
X160880811Y-114352475D01*
X160880809Y-114352472D01*
X160742228Y-114213891D01*
X160742224Y-114213888D01*
X160742223Y-114213887D01*
X160583672Y-114098693D01*
X160583671Y-114098692D01*
X160409053Y-114009721D01*
X160346922Y-113989533D01*
X160222662Y-113949159D01*
X160222657Y-113949158D01*
X160222653Y-113949157D01*
X160029091Y-113918500D01*
X159833109Y-113918500D01*
X159639546Y-113949157D01*
X159639540Y-113949158D01*
X159639538Y-113949159D01*
X159582700Y-113967627D01*
X159453146Y-114009721D01*
X159278528Y-114098692D01*
X159278527Y-114098693D01*
X159119976Y-114213887D01*
X158981387Y-114352476D01*
X158866193Y-114511027D01*
X158866192Y-114511028D01*
X158777221Y-114685646D01*
X158716659Y-114872039D01*
X158716657Y-114872046D01*
X158686000Y-115065609D01*
X158686000Y-115261590D01*
X158716657Y-115455153D01*
X158716658Y-115455157D01*
X158716659Y-115455162D01*
X158723274Y-115475520D01*
X158777221Y-115641553D01*
X158866192Y-115816171D01*
X158866193Y-115816172D01*
X158956727Y-115940782D01*
X158981391Y-115974728D01*
X159119972Y-116113309D01*
X159278525Y-116228505D01*
X159278527Y-116228506D01*
X159278528Y-116228507D01*
X159453146Y-116317478D01*
X159453148Y-116317479D01*
X159639538Y-116378041D01*
X159639543Y-116378041D01*
X159639544Y-116378042D01*
X159679768Y-116384413D01*
X159712266Y-116404328D01*
X159721164Y-116441391D01*
X159701249Y-116473889D01*
X159679768Y-116482787D01*
X159639544Y-116489157D01*
X159639539Y-116489158D01*
X159639538Y-116489159D01*
X159577408Y-116509346D01*
X159453146Y-116549721D01*
X159278528Y-116638692D01*
X159278527Y-116638693D01*
X159119976Y-116753887D01*
X158981387Y-116892476D01*
X158866194Y-117051025D01*
X158777222Y-117225644D01*
X158773569Y-117236889D01*
X158748815Y-117265872D01*
X158726206Y-117271300D01*
X158352792Y-117271300D01*
X158317578Y-117256714D01*
X158168186Y-117107321D01*
X158153600Y-117072107D01*
X158153600Y-117006013D01*
X158153600Y-117006009D01*
X158129178Y-116883231D01*
X158102788Y-116819520D01*
X158081275Y-116767581D01*
X158081273Y-116767579D01*
X158081273Y-116767578D01*
X158051269Y-116722674D01*
X158011728Y-116663495D01*
X157923204Y-116574971D01*
X157840163Y-116519486D01*
X157819122Y-116505427D01*
X157819120Y-116505426D01*
X157819118Y-116505424D01*
X157716385Y-116462872D01*
X157703469Y-116457522D01*
X157703465Y-116457521D01*
X157703459Y-116457519D01*
X157580693Y-116433100D01*
X157580691Y-116433100D01*
X157455509Y-116433100D01*
X157455506Y-116433100D01*
X157332740Y-116457519D01*
X157332732Y-116457521D01*
X157332731Y-116457522D01*
X157332727Y-116457523D01*
X157332726Y-116457524D01*
X157237081Y-116497140D01*
X157222159Y-116497140D01*
X157207474Y-116499801D01*
X157204079Y-116497140D01*
X157198966Y-116497140D01*
X157176150Y-116478086D01*
X157174567Y-116475627D01*
X157154519Y-116434617D01*
X157136694Y-116416792D01*
X157133806Y-116412305D01*
X157131287Y-116398404D01*
X157125880Y-116385350D01*
X157127516Y-116377594D01*
X157127010Y-116374800D01*
X157128585Y-116372527D01*
X157130124Y-116365234D01*
X157161748Y-116293614D01*
X157161750Y-116293605D01*
X157164699Y-116268190D01*
X157164700Y-116268189D01*
X157164700Y-115925200D01*
X154258301Y-115925200D01*
X154258301Y-116268196D01*
X154261248Y-116293604D01*
X154292876Y-116365235D01*
X154293756Y-116403340D01*
X154282534Y-116420563D01*
X154268480Y-116434617D01*
X154216285Y-116541385D01*
X154206200Y-116610603D01*
X154206200Y-117526594D01*
X154216285Y-117595815D01*
X154258285Y-117681728D01*
X154260647Y-117719771D01*
X154258285Y-117725472D01*
X154216285Y-117811385D01*
X154206200Y-117880603D01*
X154206200Y-118796594D01*
X154216285Y-118865815D01*
X154268480Y-118972582D01*
X154282532Y-118986634D01*
X154297118Y-119021848D01*
X154292875Y-119041963D01*
X154261250Y-119113588D01*
X154261249Y-119113594D01*
X154258300Y-119139009D01*
X154258300Y-119482000D01*
X157164699Y-119482000D01*
X157164699Y-119139013D01*
X157164698Y-119139003D01*
X157161752Y-119113596D01*
X157161751Y-119113594D01*
X157130123Y-119041963D01*
X157129243Y-119003858D01*
X157133806Y-118994893D01*
X157136691Y-118990410D01*
X157154519Y-118972583D01*
X157174568Y-118931569D01*
X157176150Y-118929113D01*
X157189591Y-118919795D01*
X157201853Y-118908967D01*
X157205067Y-118909066D01*
X157207475Y-118907398D01*
X157219080Y-118909501D01*
X157237081Y-118910059D01*
X157260587Y-118919795D01*
X157332731Y-118949678D01*
X157332738Y-118949679D01*
X157332740Y-118949680D01*
X157374751Y-118958036D01*
X157455509Y-118974100D01*
X157455514Y-118974100D01*
X157580686Y-118974100D01*
X157580691Y-118974100D01*
X157703469Y-118949678D01*
X157819122Y-118901773D01*
X157880325Y-118860877D01*
X157917707Y-118853442D01*
X157943206Y-118867071D01*
X158773428Y-119697293D01*
X158788014Y-119732507D01*
X158782587Y-119755113D01*
X158777223Y-119765640D01*
X158716659Y-119952039D01*
X158716657Y-119952046D01*
X158686000Y-120145609D01*
X158686000Y-120341590D01*
X158716657Y-120535153D01*
X158716658Y-120535157D01*
X158716659Y-120535162D01*
X158757033Y-120659422D01*
X158777221Y-120721553D01*
X158866192Y-120896171D01*
X158866193Y-120896172D01*
X158866195Y-120896175D01*
X158870808Y-120902524D01*
X158956140Y-121019974D01*
X158981391Y-121054728D01*
X159119972Y-121193309D01*
X159278525Y-121308505D01*
X159278527Y-121308506D01*
X159278528Y-121308507D01*
X159453146Y-121397478D01*
X159453148Y-121397479D01*
X159639538Y-121458041D01*
X159639543Y-121458041D01*
X159639544Y-121458042D01*
X159679768Y-121464413D01*
X159712266Y-121484328D01*
X159721164Y-121521391D01*
X159701249Y-121553889D01*
X159679768Y-121562787D01*
X159639544Y-121569157D01*
X159639539Y-121569158D01*
X159639538Y-121569159D01*
X159617896Y-121576191D01*
X159453146Y-121629721D01*
X159278528Y-121718692D01*
X159278527Y-121718693D01*
X159119976Y-121833887D01*
X158981387Y-121972476D01*
X158866194Y-122131025D01*
X158777222Y-122305644D01*
X158773569Y-122316889D01*
X158748815Y-122345872D01*
X158726206Y-122351300D01*
X158606793Y-122351300D01*
X158571579Y-122336714D01*
X157231385Y-120996520D01*
X157216799Y-120961306D01*
X157216799Y-120420605D01*
X157213544Y-120398264D01*
X157206715Y-120351387D01*
X157201926Y-120341591D01*
X157154519Y-120244617D01*
X157140466Y-120230564D01*
X157125880Y-120195350D01*
X157130124Y-120175234D01*
X157161748Y-120103614D01*
X157161750Y-120103605D01*
X157164699Y-120078190D01*
X157164700Y-120078189D01*
X157164700Y-119735200D01*
X154258301Y-119735200D01*
X154258301Y-120078196D01*
X154261248Y-120103604D01*
X154292876Y-120175235D01*
X154293756Y-120213340D01*
X154282534Y-120230563D01*
X154268480Y-120244617D01*
X154216285Y-120351385D01*
X154208666Y-120403680D01*
X154189155Y-120436423D01*
X154159386Y-120446300D01*
X154034792Y-120446300D01*
X153999578Y-120431714D01*
X152630986Y-119063121D01*
X152616400Y-119027907D01*
X152616400Y-113787493D01*
X152630986Y-113752279D01*
X152666200Y-113737693D01*
X152701414Y-113752279D01*
X153823662Y-114874527D01*
X153868559Y-114900447D01*
X153913457Y-114926369D01*
X153922239Y-114931439D01*
X154032187Y-114960900D01*
X154159387Y-114960900D01*
X154194601Y-114975486D01*
X154208667Y-115003520D01*
X154216285Y-115055815D01*
X154268480Y-115162582D01*
X154282532Y-115176634D01*
X154297118Y-115211848D01*
X154292875Y-115231963D01*
X154261250Y-115303588D01*
X154261249Y-115303594D01*
X154258300Y-115329009D01*
X154258300Y-115672000D01*
X157164699Y-115672000D01*
X157164699Y-115329013D01*
X157164698Y-115329003D01*
X157161752Y-115303596D01*
X157161751Y-115303594D01*
X157130123Y-115231963D01*
X157129243Y-115193858D01*
X157140464Y-115176637D01*
X157154519Y-115162583D01*
X157206715Y-115055813D01*
X157214334Y-115003519D01*
X157233845Y-114970777D01*
X157263614Y-114960900D01*
X157448014Y-114960900D01*
X157557962Y-114931439D01*
X157656539Y-114874526D01*
X158397426Y-114133638D01*
X158454339Y-114035061D01*
X158483800Y-113925113D01*
X158483800Y-113811286D01*
X158483800Y-112162892D01*
X158498385Y-112127679D01*
X159384794Y-111241269D01*
X159420007Y-111226684D01*
X159442616Y-111232112D01*
X159453148Y-111237479D01*
X159639538Y-111298041D01*
X159833109Y-111328700D01*
X160029091Y-111328700D01*
X160222662Y-111298041D01*
X160409052Y-111237479D01*
X160583675Y-111148505D01*
X160742228Y-111033309D01*
X160880809Y-110894728D01*
X160983511Y-110753370D01*
X161016010Y-110733456D01*
X161053072Y-110742354D01*
G37*
%TD.AperFunction*%
%TA.AperFunction,Conductor*%
G36*
X154179828Y-109126794D02*
G01*
X154204040Y-109156232D01*
X154206200Y-109170739D01*
X154206200Y-109906594D01*
X154216285Y-109975815D01*
X154258285Y-110061728D01*
X154260647Y-110099771D01*
X154258285Y-110105472D01*
X154216285Y-110191385D01*
X154206200Y-110260603D01*
X154206200Y-111176594D01*
X154216285Y-111245815D01*
X154268480Y-111352582D01*
X154282532Y-111366634D01*
X154297118Y-111401848D01*
X154292875Y-111421963D01*
X154261250Y-111493588D01*
X154261249Y-111493594D01*
X154258300Y-111519009D01*
X154258300Y-111862000D01*
X155661700Y-111862000D01*
X155696914Y-111876586D01*
X155711500Y-111911800D01*
X155711500Y-112065400D01*
X155696914Y-112100614D01*
X155661700Y-112115200D01*
X154258301Y-112115200D01*
X154258301Y-112458196D01*
X154261248Y-112483604D01*
X154292876Y-112555235D01*
X154293756Y-112593340D01*
X154282534Y-112610563D01*
X154268480Y-112624617D01*
X154216285Y-112731385D01*
X154206200Y-112800603D01*
X154206200Y-113716594D01*
X154216285Y-113785815D01*
X154258285Y-113871728D01*
X154258487Y-113874984D01*
X154260646Y-113877429D01*
X154259642Y-113893595D01*
X154260647Y-113909771D01*
X154258285Y-113915471D01*
X154232789Y-113967627D01*
X154204220Y-113992857D01*
X154166178Y-113990496D01*
X154152835Y-113980970D01*
X153235170Y-113063305D01*
X153220584Y-113028091D01*
X153220584Y-110949109D01*
X153235170Y-110913895D01*
X153565181Y-110583884D01*
X153896210Y-110252855D01*
X153953123Y-110154277D01*
X153982584Y-110044329D01*
X153982584Y-109930502D01*
X153982584Y-109331477D01*
X153997170Y-109296263D01*
X154043910Y-109249523D01*
X154043912Y-109249520D01*
X154114816Y-109143404D01*
X154116134Y-109144284D01*
X154141893Y-109123099D01*
X154179828Y-109126794D01*
G37*
%TD.AperFunction*%
%TA.AperFunction,Conductor*%
G36*
X161059014Y-90313116D02*
G01*
X161073600Y-90348330D01*
X161073600Y-94258870D01*
X161059014Y-94294084D01*
X161023800Y-94308670D01*
X160988586Y-94294084D01*
X160955082Y-94260580D01*
X160848314Y-94208385D01*
X160779096Y-94198300D01*
X158813105Y-94198300D01*
X158743884Y-94208385D01*
X158637117Y-94260580D01*
X158553080Y-94344617D01*
X158500885Y-94451385D01*
X158490800Y-94520603D01*
X158490800Y-95686594D01*
X158500885Y-95755815D01*
X158553080Y-95862582D01*
X158553081Y-95862583D01*
X158637117Y-95946619D01*
X158743887Y-95998815D01*
X158813105Y-96008900D01*
X160779094Y-96008899D01*
X160848313Y-95998815D01*
X160955083Y-95946619D01*
X160988586Y-95913116D01*
X161023800Y-95898530D01*
X161059014Y-95913116D01*
X161073600Y-95948330D01*
X161073600Y-96684556D01*
X161059014Y-96719770D01*
X161023800Y-96734356D01*
X160988586Y-96719770D01*
X160983511Y-96713828D01*
X160880812Y-96572476D01*
X160880811Y-96572475D01*
X160880809Y-96572472D01*
X160742228Y-96433891D01*
X160742224Y-96433888D01*
X160742223Y-96433887D01*
X160583672Y-96318693D01*
X160583671Y-96318692D01*
X160409053Y-96229721D01*
X160346922Y-96209533D01*
X160222662Y-96169159D01*
X160222657Y-96169158D01*
X160222653Y-96169157D01*
X160029091Y-96138500D01*
X159833109Y-96138500D01*
X159639546Y-96169157D01*
X159639540Y-96169158D01*
X159639538Y-96169159D01*
X159577408Y-96189346D01*
X159453146Y-96229721D01*
X159278528Y-96318692D01*
X159278527Y-96318693D01*
X159119976Y-96433887D01*
X158981387Y-96572476D01*
X158866193Y-96731027D01*
X158866192Y-96731028D01*
X158777221Y-96905646D01*
X158716659Y-97092039D01*
X158716657Y-97092046D01*
X158696996Y-97216184D01*
X158686000Y-97285609D01*
X158686000Y-97481591D01*
X158687136Y-97488761D01*
X158716657Y-97675153D01*
X158716658Y-97675157D01*
X158716659Y-97675162D01*
X158740154Y-97747472D01*
X158777221Y-97861553D01*
X158782587Y-97872084D01*
X158785576Y-97910082D01*
X158773428Y-97929906D01*
X156918173Y-99785161D01*
X156861263Y-99883734D01*
X156861259Y-99883742D01*
X156835330Y-99980513D01*
X156835330Y-99980514D01*
X156831800Y-99993686D01*
X156831800Y-103538500D01*
X156817214Y-103573714D01*
X156782000Y-103588300D01*
X156193600Y-103588300D01*
X156158386Y-103573714D01*
X156143800Y-103538500D01*
X156143800Y-103098293D01*
X156158386Y-103063079D01*
X156324801Y-102896664D01*
X156492426Y-102729039D01*
X156549339Y-102630462D01*
X156578800Y-102520514D01*
X156578800Y-102406686D01*
X156578800Y-100400087D01*
X156572459Y-100376424D01*
X156559623Y-100328519D01*
X156549339Y-100290139D01*
X156520502Y-100240191D01*
X156492426Y-100191561D01*
X155624539Y-99323674D01*
X155624538Y-99323673D01*
X155539117Y-99274356D01*
X155525962Y-99266761D01*
X155525959Y-99266760D01*
X155416014Y-99237300D01*
X155416013Y-99237300D01*
X152363211Y-99237300D01*
X152327997Y-99222714D01*
X151663956Y-98558673D01*
X151565383Y-98501763D01*
X151565380Y-98501761D01*
X151565377Y-98501760D01*
X151455432Y-98472300D01*
X151455431Y-98472300D01*
X150747337Y-98472300D01*
X150712123Y-98457714D01*
X150697537Y-98422500D01*
X150699233Y-98409614D01*
X150724100Y-98316813D01*
X150724100Y-98316801D01*
X150724463Y-98314049D01*
X150743517Y-98281039D01*
X150751967Y-98275804D01*
X150780981Y-98261620D01*
X150780981Y-98261619D01*
X150780983Y-98261619D01*
X150865019Y-98177583D01*
X150917215Y-98070813D01*
X150927300Y-98001595D01*
X150927299Y-96765606D01*
X150917215Y-96696387D01*
X150911431Y-96684556D01*
X150865019Y-96589617D01*
X150780982Y-96505580D01*
X150674214Y-96453385D01*
X150604996Y-96443300D01*
X149978605Y-96443300D01*
X149932190Y-96450062D01*
X149909387Y-96453385D01*
X149909385Y-96453385D01*
X149909384Y-96453386D01*
X149909382Y-96453386D01*
X149881371Y-96467080D01*
X149843329Y-96469441D01*
X149814760Y-96444211D01*
X149809700Y-96422340D01*
X149809700Y-95565531D01*
X149818092Y-95537865D01*
X149826273Y-95525622D01*
X149874178Y-95409969D01*
X149898600Y-95287191D01*
X149898600Y-95162009D01*
X149874178Y-95039231D01*
X149844798Y-94968303D01*
X149826274Y-94923579D01*
X149826273Y-94923578D01*
X149756728Y-94819495D01*
X149668204Y-94730971D01*
X149584485Y-94675033D01*
X149564122Y-94661427D01*
X149564120Y-94661426D01*
X149564118Y-94661424D01*
X149472005Y-94623271D01*
X149448469Y-94613522D01*
X149448465Y-94613521D01*
X149448459Y-94613519D01*
X149325693Y-94589100D01*
X149325691Y-94589100D01*
X149200509Y-94589100D01*
X149200506Y-94589100D01*
X149077740Y-94613519D01*
X149077732Y-94613521D01*
X149077731Y-94613522D01*
X149077727Y-94613523D01*
X149077726Y-94613524D01*
X148962081Y-94661424D01*
X148962079Y-94661426D01*
X148857995Y-94730971D01*
X148857993Y-94730974D01*
X148769474Y-94819493D01*
X148769471Y-94819495D01*
X148699927Y-94923578D01*
X148699926Y-94923579D01*
X148652024Y-95039226D01*
X148652019Y-95039240D01*
X148627600Y-95162006D01*
X148627600Y-95287193D01*
X148652019Y-95409959D01*
X148652022Y-95409969D01*
X148687309Y-95495158D01*
X148691100Y-95514216D01*
X148691100Y-96555070D01*
X148678500Y-96585489D01*
X148679578Y-96586259D01*
X148677181Y-96589615D01*
X148624985Y-96696385D01*
X148614900Y-96765603D01*
X148614900Y-97527807D01*
X148600314Y-97563021D01*
X148565100Y-97577607D01*
X148529886Y-97563021D01*
X148512538Y-97545673D01*
X148413965Y-97488763D01*
X148413962Y-97488761D01*
X148413959Y-97488760D01*
X148304014Y-97459300D01*
X148304013Y-97459300D01*
X147415014Y-97459300D01*
X147301186Y-97459300D01*
X147191240Y-97488760D01*
X147191234Y-97488763D01*
X147092661Y-97545673D01*
X146732414Y-97905921D01*
X146697200Y-97920507D01*
X146661986Y-97905921D01*
X146647400Y-97870707D01*
X146647400Y-95297293D01*
X146661986Y-95262079D01*
X146762059Y-95162006D01*
X146942026Y-94982039D01*
X146975778Y-94923578D01*
X146998939Y-94883461D01*
X147028400Y-94773513D01*
X147028400Y-94695661D01*
X147042986Y-94660447D01*
X147089726Y-94613707D01*
X147089728Y-94613704D01*
X147103446Y-94593172D01*
X147159273Y-94509622D01*
X147162710Y-94501323D01*
X147189657Y-94474372D01*
X147227773Y-94474369D01*
X147243933Y-94485166D01*
X147333995Y-94575228D01*
X147391580Y-94613704D01*
X147438078Y-94644773D01*
X147438079Y-94644773D01*
X147438081Y-94644775D01*
X147475918Y-94660447D01*
X147553731Y-94692678D01*
X147553738Y-94692679D01*
X147553740Y-94692680D01*
X147595751Y-94701036D01*
X147676509Y-94717100D01*
X147676514Y-94717100D01*
X147801686Y-94717100D01*
X147801691Y-94717100D01*
X147924469Y-94692678D01*
X148016585Y-94654522D01*
X148040118Y-94644775D01*
X148040118Y-94644774D01*
X148040122Y-94644773D01*
X148144208Y-94575225D01*
X148232725Y-94486708D01*
X148233756Y-94485166D01*
X148246409Y-94466227D01*
X148302273Y-94382622D01*
X148350178Y-94266969D01*
X148374600Y-94144191D01*
X148374600Y-94098196D01*
X155192901Y-94098196D01*
X155195848Y-94123604D01*
X155241755Y-94227576D01*
X155322123Y-94307944D01*
X155426088Y-94353849D01*
X155426094Y-94353850D01*
X155451510Y-94356799D01*
X155994500Y-94356799D01*
X156247700Y-94356799D01*
X156790687Y-94356799D01*
X156790696Y-94356798D01*
X156816104Y-94353851D01*
X156920076Y-94307944D01*
X157000444Y-94227576D01*
X157046349Y-94123611D01*
X157046350Y-94123605D01*
X157049299Y-94098190D01*
X157049300Y-94098189D01*
X157049300Y-93930200D01*
X156247700Y-93930200D01*
X156247700Y-94356799D01*
X155994500Y-94356799D01*
X155994500Y-93930200D01*
X155192901Y-93930200D01*
X155192901Y-94098196D01*
X148374600Y-94098196D01*
X148374600Y-94019009D01*
X148350178Y-93896231D01*
X148323788Y-93832520D01*
X148302275Y-93780581D01*
X148302273Y-93780579D01*
X148302273Y-93780578D01*
X148274341Y-93738775D01*
X148232728Y-93676495D01*
X148144204Y-93587971D01*
X148061163Y-93532486D01*
X148040122Y-93518427D01*
X148040120Y-93518426D01*
X148040118Y-93518424D01*
X147948005Y-93480271D01*
X147924469Y-93470522D01*
X147924465Y-93470521D01*
X147924459Y-93470519D01*
X147801693Y-93446100D01*
X147801691Y-93446100D01*
X147735593Y-93446100D01*
X147700379Y-93431514D01*
X147496538Y-93227673D01*
X147397965Y-93170763D01*
X147397962Y-93170761D01*
X147397959Y-93170760D01*
X147288014Y-93141300D01*
X147288013Y-93141300D01*
X146272014Y-93141300D01*
X146158186Y-93141300D01*
X146048240Y-93170760D01*
X146048234Y-93170763D01*
X145949661Y-93227673D01*
X145424673Y-93752661D01*
X145367763Y-93851234D01*
X145367759Y-93851242D01*
X145352665Y-93907577D01*
X145352665Y-93907578D01*
X145338300Y-93961186D01*
X145338300Y-97747472D01*
X145323714Y-97782686D01*
X145288500Y-97797272D01*
X145269445Y-97793482D01*
X145257473Y-97788523D01*
X145257459Y-97788519D01*
X145134693Y-97764100D01*
X145134691Y-97764100D01*
X145009509Y-97764100D01*
X145009506Y-97764100D01*
X144886740Y-97788519D01*
X144886732Y-97788521D01*
X144886731Y-97788522D01*
X144886727Y-97788523D01*
X144886726Y-97788524D01*
X144771081Y-97836424D01*
X144771079Y-97836426D01*
X144666995Y-97905971D01*
X144666993Y-97905974D01*
X144578474Y-97994493D01*
X144578471Y-97994495D01*
X144508926Y-98098579D01*
X144508924Y-98098581D01*
X144461024Y-98214226D01*
X144461019Y-98214240D01*
X144436600Y-98337006D01*
X144436600Y-98462193D01*
X144461019Y-98584959D01*
X144461021Y-98584965D01*
X144461022Y-98584969D01*
X144461024Y-98584973D01*
X144508924Y-98700618D01*
X144508926Y-98700620D01*
X144508927Y-98700622D01*
X144522986Y-98721663D01*
X144578471Y-98804704D01*
X144625214Y-98851447D01*
X144639800Y-98886661D01*
X144639800Y-99469907D01*
X144625214Y-99505121D01*
X144399621Y-99730714D01*
X144364407Y-99745300D01*
X144035161Y-99745300D01*
X143999947Y-99730714D01*
X143953204Y-99683971D01*
X143870163Y-99628486D01*
X143849122Y-99614427D01*
X143849120Y-99614426D01*
X143849118Y-99614424D01*
X143757005Y-99576271D01*
X143733469Y-99566522D01*
X143733465Y-99566521D01*
X143733459Y-99566519D01*
X143610693Y-99542100D01*
X143610691Y-99542100D01*
X143485509Y-99542100D01*
X143485506Y-99542100D01*
X143362740Y-99566519D01*
X143362732Y-99566521D01*
X143362731Y-99566522D01*
X143362727Y-99566523D01*
X143362726Y-99566524D01*
X143247081Y-99614424D01*
X143247079Y-99614426D01*
X143142995Y-99683971D01*
X143142993Y-99683974D01*
X143054474Y-99772493D01*
X143054471Y-99772495D01*
X142984926Y-99876578D01*
X142949926Y-99961077D01*
X142922975Y-99988028D01*
X142884859Y-99988028D01*
X142868703Y-99977233D01*
X140819986Y-97928516D01*
X140805400Y-97893302D01*
X140805400Y-96928967D01*
X140805399Y-96928965D01*
X140799151Y-96905648D01*
X140767284Y-96786718D01*
X140730467Y-96722950D01*
X140693651Y-96659181D01*
X139598054Y-95563584D01*
X139587259Y-95547427D01*
X139539191Y-95431379D01*
X139535400Y-95412322D01*
X139535400Y-94864492D01*
X139549986Y-94829278D01*
X139585200Y-94814692D01*
X139620414Y-94829278D01*
X139900174Y-95109038D01*
X139980662Y-95189526D01*
X140079239Y-95246439D01*
X140189187Y-95275900D01*
X143224014Y-95275900D01*
X143333962Y-95246439D01*
X143432539Y-95189526D01*
X146371579Y-92250486D01*
X146406793Y-92235900D01*
X155158950Y-92235900D01*
X155194164Y-92250486D01*
X155197414Y-92254069D01*
X155201124Y-92258581D01*
X155203081Y-92262583D01*
X155210592Y-92270094D01*
X155212134Y-92271969D01*
X155217031Y-92288056D01*
X155223470Y-92303600D01*
X155222486Y-92305973D01*
X155223235Y-92308432D01*
X155215321Y-92323272D01*
X155208884Y-92338814D01*
X155203080Y-92344617D01*
X155150885Y-92451385D01*
X155140800Y-92520603D01*
X155140800Y-93086594D01*
X155150885Y-93155815D01*
X155203080Y-93262582D01*
X155245724Y-93305226D01*
X155260310Y-93340440D01*
X155245729Y-93375649D01*
X155241755Y-93379623D01*
X155195850Y-93483588D01*
X155195849Y-93483594D01*
X155192900Y-93509009D01*
X155192900Y-93677000D01*
X157049299Y-93677000D01*
X157049299Y-93509013D01*
X157049298Y-93509003D01*
X157046351Y-93483595D01*
X157023930Y-93432815D01*
X157023050Y-93394710D01*
X157049372Y-93367143D01*
X157069487Y-93362900D01*
X158742733Y-93362900D01*
X158884982Y-93324784D01*
X159012518Y-93251151D01*
X159116651Y-93147018D01*
X159616651Y-92647018D01*
X159690285Y-92519481D01*
X159728400Y-92377233D01*
X159728400Y-92229967D01*
X159728400Y-91340967D01*
X159712711Y-91282415D01*
X159690285Y-91198719D01*
X159616651Y-91071182D01*
X159039382Y-90493913D01*
X159024796Y-90458699D01*
X159039382Y-90423485D01*
X159074596Y-90408899D01*
X160779095Y-90408899D01*
X160790898Y-90407179D01*
X160848313Y-90398815D01*
X160955083Y-90346619D01*
X160988586Y-90313116D01*
X161023800Y-90298530D01*
X161059014Y-90313116D01*
G37*
%TD.AperFunction*%
%TA.AperFunction,Conductor*%
G36*
X136013614Y-95913116D02*
G01*
X136047117Y-95946619D01*
X136153887Y-95998815D01*
X136223105Y-96008900D01*
X138189094Y-96008899D01*
X138258313Y-95998815D01*
X138327299Y-95965089D01*
X138365339Y-95962728D01*
X138393909Y-95987958D01*
X138395178Y-95990773D01*
X138412924Y-96033618D01*
X138412926Y-96033620D01*
X138482471Y-96137704D01*
X138570995Y-96226228D01*
X138633275Y-96267841D01*
X138675078Y-96295773D01*
X138730412Y-96318693D01*
X138790927Y-96343759D01*
X138807084Y-96354554D01*
X139580816Y-97128286D01*
X139595402Y-97163500D01*
X139580816Y-97198714D01*
X139545602Y-97213300D01*
X138813254Y-97213300D01*
X138789332Y-97215543D01*
X138782496Y-97216184D01*
X138652951Y-97261513D01*
X138542518Y-97343018D01*
X138461013Y-97453451D01*
X138415684Y-97582996D01*
X138415684Y-97582998D01*
X138412800Y-97613754D01*
X138412800Y-98423446D01*
X138415150Y-98448505D01*
X138415684Y-98454203D01*
X138461013Y-98583748D01*
X138461014Y-98583750D01*
X138461015Y-98583751D01*
X138542518Y-98694182D01*
X138652949Y-98775685D01*
X138725448Y-98801052D01*
X138753868Y-98826450D01*
X138758800Y-98848058D01*
X138758800Y-99068500D01*
X138744214Y-99103714D01*
X138709001Y-99118300D01*
X138658105Y-99118300D01*
X138588884Y-99128385D01*
X138482117Y-99180580D01*
X138398080Y-99264617D01*
X138385840Y-99289656D01*
X138357270Y-99314886D01*
X138319228Y-99312524D01*
X138296360Y-99289656D01*
X138284119Y-99264617D01*
X138200082Y-99180580D01*
X138093314Y-99128385D01*
X138024096Y-99118300D01*
X136958105Y-99118300D01*
X136888884Y-99128385D01*
X136782117Y-99180580D01*
X136698080Y-99264617D01*
X136645885Y-99371385D01*
X136635800Y-99440603D01*
X136635800Y-100146906D01*
X136621214Y-100182120D01*
X136509599Y-100293734D01*
X136484101Y-100307363D01*
X136377738Y-100328520D01*
X136377733Y-100328521D01*
X136377731Y-100328522D01*
X136377726Y-100328523D01*
X136377726Y-100328524D01*
X136262081Y-100376424D01*
X136262079Y-100376426D01*
X136157995Y-100445971D01*
X136157993Y-100445974D01*
X136069474Y-100534493D01*
X136069471Y-100534495D01*
X136019807Y-100608825D01*
X135988116Y-100630001D01*
X135950733Y-100622565D01*
X135929557Y-100590874D01*
X135928600Y-100581158D01*
X135928600Y-98400331D01*
X136710901Y-98400331D01*
X136725854Y-98494749D01*
X136783837Y-98608548D01*
X136874151Y-98698862D01*
X136987952Y-98756846D01*
X137082366Y-98771799D01*
X137337500Y-98771799D01*
X137590700Y-98771799D01*
X137845831Y-98771799D01*
X137940249Y-98756845D01*
X138054048Y-98698862D01*
X138144362Y-98608548D01*
X138202346Y-98494747D01*
X138217300Y-98400333D01*
X138217300Y-98145200D01*
X137590700Y-98145200D01*
X137590700Y-98771799D01*
X137337500Y-98771799D01*
X137337500Y-98145200D01*
X136710901Y-98145200D01*
X136710901Y-98400331D01*
X135928600Y-98400331D01*
X135928600Y-97636866D01*
X136710900Y-97636866D01*
X136710900Y-97892000D01*
X137337500Y-97892000D01*
X137590700Y-97892000D01*
X138217299Y-97892000D01*
X138217299Y-97636868D01*
X138202345Y-97542450D01*
X138144362Y-97428651D01*
X138054048Y-97338337D01*
X138054049Y-97338337D01*
X137940247Y-97280353D01*
X137845833Y-97265400D01*
X137590700Y-97265400D01*
X137590700Y-97892000D01*
X137337500Y-97892000D01*
X137337500Y-97265400D01*
X137082368Y-97265400D01*
X136987950Y-97280354D01*
X136874151Y-97338337D01*
X136783837Y-97428651D01*
X136725853Y-97542452D01*
X136710900Y-97636866D01*
X135928600Y-97636866D01*
X135928600Y-95948330D01*
X135943186Y-95913116D01*
X135978400Y-95898530D01*
X136013614Y-95913116D01*
G37*
%TD.AperFunction*%
%TA.AperFunction,Conductor*%
G36*
X143846411Y-79745686D02*
G01*
X143860997Y-79780900D01*
X143846411Y-79816114D01*
X143830255Y-79826909D01*
X143811835Y-79834538D01*
X143811828Y-79834542D01*
X143741683Y-79875039D01*
X143637077Y-79955307D01*
X143579807Y-80012577D01*
X143499539Y-80117183D01*
X143459042Y-80187328D01*
X143459038Y-80187335D01*
X143408587Y-80309135D01*
X143408584Y-80309146D01*
X143387622Y-80387377D01*
X143387620Y-80387384D01*
X143370454Y-80517779D01*
X143367800Y-80558247D01*
X143367800Y-81158952D01*
X143370454Y-81199420D01*
X143387620Y-81329815D01*
X143387622Y-81329822D01*
X143408584Y-81408053D01*
X143408587Y-81408064D01*
X143459038Y-81529864D01*
X143459042Y-81529871D01*
X143499539Y-81600016D01*
X143499541Y-81600018D01*
X143499543Y-81600022D01*
X143579804Y-81704619D01*
X143579807Y-81704622D01*
X143609214Y-81734029D01*
X143623800Y-81769243D01*
X143623800Y-83877957D01*
X143609214Y-83913171D01*
X143579807Y-83942577D01*
X143499539Y-84047183D01*
X143459042Y-84117328D01*
X143459038Y-84117335D01*
X143408587Y-84239135D01*
X143408584Y-84239146D01*
X143387622Y-84317377D01*
X143387620Y-84317384D01*
X143370454Y-84447779D01*
X143367800Y-84488247D01*
X143367800Y-84533707D01*
X143353214Y-84568921D01*
X143318000Y-84583507D01*
X143282786Y-84568921D01*
X143118686Y-84404821D01*
X143104100Y-84369607D01*
X143104100Y-84350514D01*
X143118686Y-84315300D01*
X143132029Y-84305774D01*
X143160981Y-84291620D01*
X143160981Y-84291619D01*
X143160983Y-84291619D01*
X143245019Y-84207583D01*
X143297215Y-84100813D01*
X143307300Y-84031595D01*
X143307299Y-82795606D01*
X143297215Y-82726387D01*
X143245019Y-82619617D01*
X143160983Y-82535581D01*
X143160982Y-82535580D01*
X143054214Y-82483385D01*
X142984996Y-82473300D01*
X142358605Y-82473300D01*
X142289384Y-82483385D01*
X142182615Y-82535581D01*
X142149048Y-82569148D01*
X142113834Y-82583734D01*
X142088852Y-82575998D01*
X142088799Y-82576120D01*
X142087748Y-82575656D01*
X142085691Y-82575019D01*
X142084576Y-82574255D01*
X141980611Y-82528350D01*
X141980605Y-82528349D01*
X141955190Y-82525400D01*
X141757000Y-82525400D01*
X141757000Y-82920150D01*
X141742414Y-82955364D01*
X141707200Y-82969950D01*
X141553600Y-82969950D01*
X141518386Y-82955364D01*
X141503800Y-82920150D01*
X141503800Y-82525400D01*
X141305613Y-82525400D01*
X141305603Y-82525401D01*
X141280195Y-82528348D01*
X141176223Y-82574255D01*
X141095855Y-82654623D01*
X141049950Y-82758588D01*
X141049949Y-82758594D01*
X141047000Y-82784009D01*
X141047000Y-83287000D01*
X141086150Y-83287000D01*
X141121364Y-83301586D01*
X141135950Y-83336800D01*
X141135950Y-83490400D01*
X141121364Y-83525614D01*
X141086150Y-83540200D01*
X141047001Y-83540200D01*
X141047001Y-84043196D01*
X141049948Y-84068604D01*
X141095855Y-84172576D01*
X141176223Y-84252944D01*
X141280188Y-84298849D01*
X141280194Y-84298850D01*
X141305610Y-84301799D01*
X141503800Y-84301799D01*
X141503800Y-83907050D01*
X141518386Y-83871836D01*
X141553600Y-83857250D01*
X141707200Y-83857250D01*
X141742414Y-83871836D01*
X141757000Y-83907050D01*
X141757000Y-84301799D01*
X141955187Y-84301799D01*
X141955196Y-84301798D01*
X141980604Y-84298851D01*
X142084573Y-84252945D01*
X142085685Y-84252184D01*
X142086860Y-84251935D01*
X142088799Y-84251080D01*
X142088979Y-84251488D01*
X142096984Y-84249798D01*
X142106938Y-84243945D01*
X142113810Y-84246247D01*
X142122979Y-84244312D01*
X142143832Y-84253513D01*
X142146599Y-84255601D01*
X142182617Y-84291619D01*
X142215874Y-84307877D01*
X142219697Y-84310762D01*
X142227114Y-84323373D01*
X142236802Y-84334343D01*
X142238083Y-84342024D01*
X142239020Y-84343617D01*
X142238611Y-84345190D01*
X142239500Y-84350514D01*
X142239500Y-84626214D01*
X142268960Y-84736159D01*
X142268963Y-84736165D01*
X142323833Y-84831205D01*
X142325874Y-84834739D01*
X142875661Y-85384526D01*
X142926266Y-85413742D01*
X142974239Y-85441439D01*
X143084187Y-85470900D01*
X143318000Y-85470900D01*
X143353214Y-85485486D01*
X143367800Y-85520700D01*
X143367800Y-85588952D01*
X143370373Y-85628186D01*
X143370455Y-85629431D01*
X143373503Y-85652579D01*
X143387620Y-85759815D01*
X143387621Y-85759818D01*
X143400601Y-85808262D01*
X143408584Y-85838053D01*
X143408587Y-85838064D01*
X143459038Y-85959864D01*
X143459042Y-85959871D01*
X143499539Y-86030016D01*
X143499541Y-86030018D01*
X143499543Y-86030022D01*
X143579804Y-86134619D01*
X143637081Y-86191896D01*
X143741678Y-86272157D01*
X143811832Y-86312660D01*
X143933639Y-86363114D01*
X144011882Y-86384079D01*
X144142930Y-86401332D01*
X144150047Y-86402186D01*
X144150051Y-86402185D01*
X144150054Y-86402186D01*
X144211268Y-86397462D01*
X144263744Y-86393414D01*
X144515666Y-86325912D01*
X144522570Y-86323976D01*
X144624255Y-86272361D01*
X144695626Y-86217595D01*
X144732440Y-86207731D01*
X144765449Y-86226788D01*
X144771498Y-86236993D01*
X144771755Y-86237576D01*
X144852123Y-86317944D01*
X144956088Y-86363849D01*
X144956094Y-86363850D01*
X144968679Y-86365311D01*
X145001978Y-86383858D01*
X145012408Y-86420518D01*
X145008949Y-86433836D01*
X144969024Y-86530226D01*
X144969019Y-86530240D01*
X144944600Y-86653006D01*
X144944600Y-86778193D01*
X144969019Y-86900959D01*
X144969021Y-86900965D01*
X144969022Y-86900969D01*
X144969024Y-86900973D01*
X145016924Y-87016618D01*
X145016926Y-87016620D01*
X145016927Y-87016622D01*
X145022375Y-87024775D01*
X145086471Y-87120704D01*
X145174995Y-87209228D01*
X145237275Y-87250841D01*
X145279078Y-87278773D01*
X145279079Y-87278773D01*
X145279081Y-87278775D01*
X145331020Y-87300288D01*
X145394731Y-87326678D01*
X145394738Y-87326679D01*
X145394740Y-87326680D01*
X145436751Y-87335036D01*
X145517509Y-87351100D01*
X145517514Y-87351100D01*
X145642686Y-87351100D01*
X145642691Y-87351100D01*
X145765469Y-87326678D01*
X145863199Y-87286197D01*
X145881118Y-87278775D01*
X145881118Y-87278774D01*
X145881122Y-87278773D01*
X145985208Y-87209225D01*
X146073725Y-87120708D01*
X146143273Y-87016622D01*
X146151210Y-86997462D01*
X146187968Y-86908719D01*
X146198763Y-86892562D01*
X146233786Y-86857539D01*
X146269000Y-86842953D01*
X146304214Y-86857539D01*
X146318800Y-86892753D01*
X146318800Y-87875769D01*
X146310407Y-87903436D01*
X146286927Y-87938576D01*
X146239024Y-88054226D01*
X146239019Y-88054240D01*
X146214600Y-88177006D01*
X146214600Y-88302193D01*
X146239019Y-88424959D01*
X146239021Y-88424965D01*
X146239022Y-88424969D01*
X146239024Y-88424973D01*
X146286924Y-88540618D01*
X146286926Y-88540620D01*
X146356471Y-88644704D01*
X146444995Y-88733228D01*
X146479222Y-88756097D01*
X146549078Y-88802773D01*
X146549079Y-88802773D01*
X146549081Y-88802775D01*
X146578956Y-88815149D01*
X146664731Y-88850678D01*
X146664738Y-88850679D01*
X146664740Y-88850680D01*
X146706751Y-88859036D01*
X146787509Y-88875100D01*
X146787514Y-88875100D01*
X146912686Y-88875100D01*
X146912691Y-88875100D01*
X147035469Y-88850678D01*
X147127585Y-88812522D01*
X147151118Y-88802775D01*
X147151118Y-88802774D01*
X147151122Y-88802773D01*
X147255208Y-88733225D01*
X147333997Y-88654435D01*
X147369210Y-88639850D01*
X147396874Y-88648241D01*
X147438078Y-88675773D01*
X147553731Y-88723678D01*
X147553738Y-88723679D01*
X147553740Y-88723680D01*
X147595751Y-88732036D01*
X147676509Y-88748100D01*
X147676514Y-88748100D01*
X147801686Y-88748100D01*
X147801691Y-88748100D01*
X147924469Y-88723678D01*
X148032397Y-88678973D01*
X148040118Y-88675775D01*
X148040118Y-88675774D01*
X148040122Y-88675773D01*
X148123727Y-88619909D01*
X148144204Y-88606228D01*
X148144207Y-88606226D01*
X148232726Y-88517707D01*
X148232728Y-88517704D01*
X148246409Y-88497227D01*
X148302273Y-88413622D01*
X148350178Y-88297969D01*
X148374600Y-88175191D01*
X148374600Y-88050009D01*
X148356924Y-87961147D01*
X148350180Y-87927240D01*
X148350179Y-87927238D01*
X148350178Y-87927231D01*
X148317780Y-87849015D01*
X148302275Y-87811581D01*
X148302273Y-87811579D01*
X148302273Y-87811578D01*
X148272752Y-87767396D01*
X148232728Y-87707495D01*
X148185986Y-87660753D01*
X148171400Y-87625539D01*
X148171400Y-86943700D01*
X148185986Y-86908486D01*
X148221200Y-86893900D01*
X148685014Y-86893900D01*
X148763332Y-86872914D01*
X148801119Y-86877889D01*
X148824323Y-86908127D01*
X148848260Y-86997459D01*
X148848263Y-86997465D01*
X148905173Y-87096038D01*
X148994014Y-87184879D01*
X149008600Y-87220093D01*
X149008600Y-87286190D01*
X149033019Y-87408959D01*
X149033021Y-87408965D01*
X149033022Y-87408969D01*
X149033024Y-87408973D01*
X149080924Y-87524618D01*
X149080926Y-87524620D01*
X149150471Y-87628704D01*
X149238995Y-87717228D01*
X149291785Y-87752500D01*
X149343078Y-87786773D01*
X149343079Y-87786773D01*
X149343081Y-87786775D01*
X149389486Y-87805996D01*
X149458731Y-87834678D01*
X149458738Y-87834679D01*
X149458740Y-87834680D01*
X149500751Y-87843036D01*
X149581509Y-87859100D01*
X149581514Y-87859100D01*
X149706686Y-87859100D01*
X149706691Y-87859100D01*
X149829469Y-87834678D01*
X149921585Y-87796522D01*
X149945118Y-87786775D01*
X149945118Y-87786774D01*
X149945122Y-87786773D01*
X150028727Y-87730909D01*
X150049204Y-87717228D01*
X150049207Y-87717226D01*
X150137726Y-87628707D01*
X150137728Y-87628704D01*
X150154876Y-87603039D01*
X150207273Y-87524622D01*
X150220484Y-87492726D01*
X150247433Y-87465776D01*
X150285548Y-87465775D01*
X150301706Y-87476571D01*
X150648661Y-87823526D01*
X150705572Y-87856382D01*
X150705573Y-87856383D01*
X150739151Y-87875769D01*
X150747239Y-87880439D01*
X150857187Y-87909900D01*
X152876014Y-87909900D01*
X152985962Y-87880439D01*
X153084539Y-87823526D01*
X153796379Y-87111686D01*
X153831593Y-87097100D01*
X153897686Y-87097100D01*
X153897691Y-87097100D01*
X154020469Y-87072678D01*
X154121779Y-87030714D01*
X154136118Y-87024775D01*
X154136118Y-87024774D01*
X154136122Y-87024773D01*
X154240208Y-86955225D01*
X154328725Y-86866708D01*
X154398273Y-86762622D01*
X154446178Y-86646969D01*
X154470600Y-86524191D01*
X154470600Y-86399009D01*
X154446178Y-86276231D01*
X154417804Y-86207731D01*
X154398275Y-86160581D01*
X154398273Y-86160579D01*
X154398273Y-86160578D01*
X154352109Y-86091488D01*
X154328728Y-86056495D01*
X154240204Y-85967971D01*
X154157163Y-85912486D01*
X154136122Y-85898427D01*
X154136120Y-85898426D01*
X154136118Y-85898424D01*
X154044005Y-85860271D01*
X154020469Y-85850522D01*
X154020465Y-85850521D01*
X154020459Y-85850519D01*
X153897693Y-85826100D01*
X153897691Y-85826100D01*
X153772509Y-85826100D01*
X153772506Y-85826100D01*
X153665473Y-85847390D01*
X153628090Y-85839954D01*
X153606915Y-85808262D01*
X153607655Y-85785658D01*
X153614579Y-85759818D01*
X153631745Y-85629431D01*
X153633223Y-85606874D01*
X153634399Y-85588952D01*
X153634400Y-85588923D01*
X153634400Y-84487945D01*
X153634399Y-84487934D01*
X153633686Y-84482524D01*
X153623827Y-84407631D01*
X153556412Y-84156034D01*
X153554476Y-84149130D01*
X153538337Y-84117335D01*
X153502863Y-84047448D01*
X153502656Y-84047178D01*
X153422395Y-83942581D01*
X153422390Y-83942576D01*
X153422387Y-83942572D01*
X153392986Y-83913170D01*
X153378400Y-83877957D01*
X153378400Y-82018961D01*
X156759600Y-82018961D01*
X156759600Y-82268238D01*
X156792134Y-82515357D01*
X156792136Y-82515364D01*
X156856646Y-82756121D01*
X156856650Y-82756132D01*
X156952035Y-82986412D01*
X156952039Y-82986419D01*
X157076666Y-83202282D01*
X157228402Y-83400028D01*
X157228408Y-83400035D01*
X157404664Y-83576291D01*
X157404671Y-83576297D01*
X157602417Y-83728033D01*
X157684369Y-83775347D01*
X157818284Y-83852663D01*
X158048571Y-83948051D01*
X158048576Y-83948052D01*
X158048578Y-83948053D01*
X158068750Y-83953458D01*
X158289340Y-84012565D01*
X158494913Y-84039629D01*
X158522006Y-84043196D01*
X158536469Y-84045100D01*
X158536473Y-84045100D01*
X158785727Y-84045100D01*
X158785731Y-84045100D01*
X159032860Y-84012565D01*
X159273629Y-83948051D01*
X159503916Y-83852663D01*
X159719784Y-83728032D01*
X159917536Y-83576291D01*
X160093791Y-83400036D01*
X160245532Y-83202284D01*
X160370163Y-82986416D01*
X160465551Y-82756129D01*
X160530065Y-82515360D01*
X160562600Y-82268231D01*
X160562600Y-82018969D01*
X160530065Y-81771840D01*
X160465551Y-81531071D01*
X160370163Y-81300784D01*
X160245532Y-81084916D01*
X160093797Y-80887171D01*
X160093791Y-80887164D01*
X159917535Y-80710908D01*
X159917528Y-80710902D01*
X159719782Y-80559166D01*
X159503919Y-80434539D01*
X159503916Y-80434537D01*
X159503914Y-80434536D01*
X159503912Y-80434535D01*
X159273632Y-80339150D01*
X159273621Y-80339146D01*
X159032864Y-80274636D01*
X159032857Y-80274634D01*
X158785738Y-80242100D01*
X158785731Y-80242100D01*
X158536469Y-80242100D01*
X158536461Y-80242100D01*
X158289342Y-80274634D01*
X158289335Y-80274636D01*
X158048578Y-80339146D01*
X158048567Y-80339150D01*
X157818287Y-80434535D01*
X157818280Y-80434539D01*
X157602417Y-80559166D01*
X157404671Y-80710902D01*
X157404664Y-80710908D01*
X157228408Y-80887164D01*
X157228402Y-80887171D01*
X157076666Y-81084917D01*
X156952039Y-81300780D01*
X156952035Y-81300787D01*
X156856650Y-81531067D01*
X156856646Y-81531078D01*
X156792136Y-81771835D01*
X156792134Y-81771842D01*
X156759600Y-82018961D01*
X153378400Y-82018961D01*
X153378400Y-81769242D01*
X153392986Y-81734028D01*
X153422396Y-81704619D01*
X153502657Y-81600022D01*
X153543160Y-81529868D01*
X153593614Y-81408061D01*
X153614579Y-81329818D01*
X153631745Y-81199431D01*
X153633223Y-81176874D01*
X153634399Y-81158952D01*
X153634400Y-81158923D01*
X153634400Y-80557945D01*
X153634399Y-80557934D01*
X153633686Y-80552524D01*
X153623827Y-80477631D01*
X153556412Y-80226034D01*
X153554476Y-80219130D01*
X153538337Y-80187335D01*
X153502863Y-80117448D01*
X153502656Y-80117178D01*
X153422395Y-80012581D01*
X153365119Y-79955304D01*
X153260522Y-79875043D01*
X153260518Y-79875041D01*
X153260516Y-79875039D01*
X153190371Y-79834542D01*
X153190368Y-79834540D01*
X153190366Y-79834539D01*
X153190364Y-79834538D01*
X153171945Y-79826909D01*
X153144994Y-79799957D01*
X153144994Y-79761842D01*
X153171946Y-79734891D01*
X153191003Y-79731100D01*
X161023800Y-79731100D01*
X161059014Y-79745686D01*
X161073600Y-79780900D01*
X161073600Y-88658870D01*
X161059014Y-88694084D01*
X161023800Y-88708670D01*
X160988586Y-88694084D01*
X160955082Y-88660580D01*
X160848314Y-88608385D01*
X160779096Y-88598300D01*
X160779095Y-88598300D01*
X159016200Y-88598300D01*
X158980986Y-88583714D01*
X158966400Y-88548500D01*
X158966400Y-87530967D01*
X158966399Y-87530965D01*
X158964699Y-87524622D01*
X158928284Y-87388718D01*
X158869090Y-87286191D01*
X158854651Y-87261181D01*
X158369518Y-86776049D01*
X158369517Y-86776048D01*
X158315838Y-86745057D01*
X158250663Y-86707428D01*
X158227460Y-86677189D01*
X158232435Y-86639400D01*
X158262674Y-86616197D01*
X158275563Y-86614500D01*
X158616414Y-86614500D01*
X158726362Y-86585039D01*
X158824939Y-86528126D01*
X158926702Y-86426363D01*
X158961916Y-86411777D01*
X158997130Y-86426363D01*
X159017995Y-86447228D01*
X159072326Y-86483530D01*
X159122078Y-86516773D01*
X159122079Y-86516773D01*
X159122081Y-86516775D01*
X159154590Y-86530240D01*
X159237731Y-86564678D01*
X159237738Y-86564679D01*
X159237740Y-86564680D01*
X159279751Y-86573036D01*
X159360509Y-86589100D01*
X159360514Y-86589100D01*
X159485686Y-86589100D01*
X159485691Y-86589100D01*
X159608469Y-86564678D01*
X159706209Y-86524193D01*
X159724118Y-86516775D01*
X159724118Y-86516774D01*
X159724122Y-86516773D01*
X159828208Y-86447225D01*
X159916725Y-86358708D01*
X159986273Y-86254622D01*
X160034178Y-86138969D01*
X160058600Y-86016191D01*
X160058600Y-85891009D01*
X160040455Y-85799787D01*
X160034180Y-85768240D01*
X160034179Y-85768238D01*
X160034178Y-85768231D01*
X160003024Y-85693018D01*
X159986275Y-85652581D01*
X159986273Y-85652579D01*
X159986273Y-85652578D01*
X159956269Y-85607674D01*
X159916728Y-85548495D01*
X159828204Y-85459971D01*
X159745163Y-85404486D01*
X159724122Y-85390427D01*
X159724120Y-85390426D01*
X159724118Y-85390424D01*
X159632005Y-85352271D01*
X159608469Y-85342522D01*
X159608465Y-85342521D01*
X159608459Y-85342519D01*
X159485693Y-85318100D01*
X159485691Y-85318100D01*
X159360509Y-85318100D01*
X159360506Y-85318100D01*
X159237740Y-85342519D01*
X159237732Y-85342521D01*
X159237731Y-85342522D01*
X159237727Y-85342523D01*
X159237726Y-85342524D01*
X159122081Y-85390424D01*
X159122079Y-85390426D01*
X159017995Y-85459971D01*
X159017993Y-85459974D01*
X158971253Y-85506714D01*
X158936039Y-85521300D01*
X158731187Y-85521300D01*
X158672487Y-85537029D01*
X158621242Y-85550759D01*
X158621234Y-85550763D01*
X158522661Y-85607673D01*
X158395021Y-85735314D01*
X158359807Y-85749900D01*
X157947014Y-85749900D01*
X157911800Y-85735314D01*
X157902274Y-85721971D01*
X157888120Y-85693018D01*
X157804082Y-85608980D01*
X157697314Y-85556785D01*
X157628096Y-85546700D01*
X156392105Y-85546700D01*
X156322884Y-85556785D01*
X156216117Y-85608980D01*
X156132080Y-85693017D01*
X156079885Y-85799785D01*
X156069800Y-85869003D01*
X156069800Y-86495394D01*
X156079885Y-86564615D01*
X156132080Y-86671383D01*
X156133924Y-86673965D01*
X156142512Y-86711100D01*
X156133924Y-86731835D01*
X156132080Y-86734416D01*
X156079885Y-86841185D01*
X156069800Y-86910403D01*
X156069800Y-87536794D01*
X156079885Y-87606015D01*
X156132080Y-87712783D01*
X156133924Y-87715365D01*
X156135743Y-87723234D01*
X156140921Y-87729433D01*
X156139391Y-87739007D01*
X156142512Y-87752500D01*
X156137513Y-87767396D01*
X156134229Y-87773668D01*
X156132081Y-87775817D01*
X156117618Y-87805400D01*
X156117307Y-87805996D01*
X156103162Y-87817809D01*
X156089357Y-87830002D01*
X156088366Y-87830167D01*
X156088053Y-87830429D01*
X156087236Y-87830355D01*
X156073186Y-87832700D01*
X155886387Y-87832700D01*
X155825500Y-87849015D01*
X155776442Y-87862159D01*
X155776434Y-87862163D01*
X155677859Y-87919074D01*
X155641979Y-87954954D01*
X155606765Y-87969540D01*
X155579099Y-87961147D01*
X155533123Y-87930427D01*
X155437637Y-87890876D01*
X155417469Y-87882522D01*
X155417465Y-87882521D01*
X155417459Y-87882519D01*
X155294693Y-87858100D01*
X155294691Y-87858100D01*
X155169509Y-87858100D01*
X155169506Y-87858100D01*
X155046740Y-87882519D01*
X155046732Y-87882521D01*
X155046731Y-87882522D01*
X155046727Y-87882523D01*
X155046726Y-87882524D01*
X154931081Y-87930424D01*
X154931079Y-87930426D01*
X154826995Y-87999971D01*
X154826993Y-87999974D01*
X154738474Y-88088493D01*
X154738471Y-88088495D01*
X154668926Y-88192579D01*
X154668924Y-88192581D01*
X154621024Y-88308226D01*
X154621019Y-88308240D01*
X154596600Y-88431006D01*
X154596600Y-88556193D01*
X154621019Y-88678959D01*
X154621021Y-88678965D01*
X154621022Y-88678969D01*
X154621024Y-88678973D01*
X154668924Y-88794618D01*
X154668926Y-88794620D01*
X154668927Y-88794622D01*
X154674375Y-88802775D01*
X154738471Y-88898704D01*
X154826995Y-88987228D01*
X154854000Y-89005272D01*
X154875176Y-89036964D01*
X154867740Y-89074346D01*
X154839223Y-89094782D01*
X154762220Y-89115415D01*
X154762214Y-89115418D01*
X154698450Y-89152232D01*
X154634681Y-89189048D01*
X154380017Y-89443714D01*
X154344803Y-89458300D01*
X145633465Y-89458300D01*
X145491222Y-89496414D01*
X145491214Y-89496418D01*
X145427450Y-89533232D01*
X145363681Y-89570048D01*
X143704017Y-91229714D01*
X143668803Y-91244300D01*
X141829488Y-91244300D01*
X141794274Y-91229714D01*
X141779688Y-91194500D01*
X141783931Y-91174385D01*
X141806349Y-91123611D01*
X141806350Y-91123605D01*
X141809299Y-91098190D01*
X141809300Y-91098189D01*
X141809300Y-90930200D01*
X139952901Y-90930200D01*
X139952901Y-91098196D01*
X139955848Y-91123604D01*
X139978270Y-91174385D01*
X139979150Y-91212490D01*
X139952828Y-91240057D01*
X139932713Y-91244300D01*
X139402465Y-91244300D01*
X139260223Y-91282413D01*
X139260215Y-91282417D01*
X139132682Y-91356048D01*
X138528548Y-91960182D01*
X138454918Y-92087714D01*
X138454914Y-92087722D01*
X138416800Y-92229965D01*
X138416800Y-94206085D01*
X138402214Y-94241299D01*
X138367000Y-94255885D01*
X138345128Y-94250825D01*
X138258314Y-94208385D01*
X138189096Y-94198300D01*
X136223105Y-94198300D01*
X136153884Y-94208385D01*
X136047117Y-94260580D01*
X136013614Y-94294084D01*
X135978400Y-94308670D01*
X135943186Y-94294084D01*
X135928600Y-94258870D01*
X135928600Y-90509009D01*
X139952900Y-90509009D01*
X139952900Y-90677000D01*
X140754500Y-90677000D01*
X141007700Y-90677000D01*
X141809299Y-90677000D01*
X141809299Y-90509013D01*
X141809298Y-90509003D01*
X141806351Y-90483595D01*
X141760444Y-90379623D01*
X141680076Y-90299255D01*
X141576111Y-90253350D01*
X141576105Y-90253349D01*
X141550690Y-90250400D01*
X141007700Y-90250400D01*
X141007700Y-90677000D01*
X140754500Y-90677000D01*
X140754500Y-90250400D01*
X140211513Y-90250400D01*
X140211503Y-90250401D01*
X140186095Y-90253348D01*
X140082123Y-90299255D01*
X140001755Y-90379623D01*
X139955850Y-90483588D01*
X139955849Y-90483594D01*
X139952900Y-90509009D01*
X135928600Y-90509009D01*
X135928600Y-90348330D01*
X135943186Y-90313116D01*
X135978400Y-90298530D01*
X136013614Y-90313116D01*
X136047117Y-90346619D01*
X136153887Y-90398815D01*
X136223105Y-90408900D01*
X138189094Y-90408899D01*
X138258313Y-90398815D01*
X138365083Y-90346619D01*
X138449119Y-90262583D01*
X138501315Y-90155813D01*
X138511400Y-90086595D01*
X138511399Y-88920606D01*
X138501315Y-88851387D01*
X138500969Y-88850680D01*
X138449119Y-88744617D01*
X138365082Y-88660580D01*
X138258314Y-88608385D01*
X138189096Y-88598300D01*
X136223105Y-88598300D01*
X136153884Y-88608385D01*
X136047117Y-88660580D01*
X136013614Y-88694084D01*
X135978400Y-88708670D01*
X135943186Y-88694084D01*
X135928600Y-88658870D01*
X135928600Y-84638375D01*
X136265800Y-84638375D01*
X136265800Y-84728824D01*
X136281021Y-84863925D01*
X136281023Y-84863934D01*
X136340955Y-85035214D01*
X136340956Y-85035216D01*
X136437505Y-85188871D01*
X136437507Y-85188874D01*
X136565826Y-85317193D01*
X136606132Y-85342519D01*
X136719483Y-85413743D01*
X136719485Y-85413744D01*
X136851597Y-85459971D01*
X136890770Y-85473678D01*
X137025871Y-85488900D01*
X137116328Y-85488899D01*
X137251430Y-85473678D01*
X137343573Y-85441436D01*
X137422714Y-85413744D01*
X137422716Y-85413743D01*
X137459823Y-85390427D01*
X137576374Y-85317193D01*
X137704693Y-85188874D01*
X137801242Y-85035218D01*
X137801243Y-85035216D01*
X137801244Y-85035214D01*
X137831210Y-84949574D01*
X137861178Y-84863930D01*
X137876400Y-84728829D01*
X137876399Y-84638372D01*
X137861178Y-84503270D01*
X137841761Y-84447779D01*
X137801244Y-84331985D01*
X137801243Y-84331983D01*
X137704694Y-84178328D01*
X137704693Y-84178326D01*
X137576374Y-84050007D01*
X137573314Y-84048084D01*
X137422716Y-83953456D01*
X137422714Y-83953455D01*
X137251434Y-83893523D01*
X137251426Y-83893521D01*
X137184727Y-83886006D01*
X137116329Y-83878300D01*
X137116324Y-83878300D01*
X137025875Y-83878300D01*
X136890774Y-83893521D01*
X136890765Y-83893523D01*
X136719485Y-83953455D01*
X136719483Y-83953456D01*
X136565828Y-84050005D01*
X136437505Y-84178328D01*
X136340956Y-84331983D01*
X136340955Y-84331985D01*
X136281023Y-84503265D01*
X136281021Y-84503273D01*
X136276388Y-84544400D01*
X136266810Y-84629414D01*
X136265800Y-84638375D01*
X135928600Y-84638375D01*
X135928600Y-82018961D01*
X136439600Y-82018961D01*
X136439600Y-82268238D01*
X136472134Y-82515357D01*
X136472136Y-82515364D01*
X136536646Y-82756121D01*
X136536650Y-82756132D01*
X136632035Y-82986412D01*
X136632039Y-82986419D01*
X136756666Y-83202282D01*
X136908402Y-83400028D01*
X136908408Y-83400035D01*
X137084664Y-83576291D01*
X137084671Y-83576297D01*
X137282417Y-83728033D01*
X137364369Y-83775347D01*
X137498284Y-83852663D01*
X137728571Y-83948051D01*
X137728576Y-83948052D01*
X137728578Y-83948053D01*
X137748750Y-83953458D01*
X137969340Y-84012565D01*
X138174913Y-84039629D01*
X138202006Y-84043196D01*
X138216469Y-84045100D01*
X138216473Y-84045100D01*
X138465727Y-84045100D01*
X138465731Y-84045100D01*
X138712860Y-84012565D01*
X138953629Y-83948051D01*
X139183916Y-83852663D01*
X139399784Y-83728032D01*
X139597536Y-83576291D01*
X139773791Y-83400036D01*
X139925532Y-83202284D01*
X140050163Y-82986416D01*
X140145551Y-82756129D01*
X140210065Y-82515360D01*
X140242600Y-82268231D01*
X140242600Y-82018969D01*
X140210065Y-81771840D01*
X140145551Y-81531071D01*
X140050163Y-81300784D01*
X139925532Y-81084916D01*
X139773797Y-80887171D01*
X139773791Y-80887164D01*
X139597535Y-80710908D01*
X139597528Y-80710902D01*
X139399782Y-80559166D01*
X139183919Y-80434539D01*
X139183916Y-80434537D01*
X139183914Y-80434536D01*
X139183912Y-80434535D01*
X138953632Y-80339150D01*
X138953621Y-80339146D01*
X138712864Y-80274636D01*
X138712857Y-80274634D01*
X138465738Y-80242100D01*
X138465731Y-80242100D01*
X138216469Y-80242100D01*
X138216461Y-80242100D01*
X137969342Y-80274634D01*
X137969335Y-80274636D01*
X137728578Y-80339146D01*
X137728567Y-80339150D01*
X137498287Y-80434535D01*
X137498280Y-80434539D01*
X137282417Y-80559166D01*
X137084671Y-80710902D01*
X137084664Y-80710908D01*
X136908408Y-80887164D01*
X136908402Y-80887171D01*
X136756666Y-81084917D01*
X136632039Y-81300780D01*
X136632035Y-81300787D01*
X136536650Y-81531067D01*
X136536646Y-81531078D01*
X136472136Y-81771835D01*
X136472134Y-81771842D01*
X136439600Y-82018961D01*
X135928600Y-82018961D01*
X135928600Y-79780900D01*
X135943186Y-79745686D01*
X135978400Y-79731100D01*
X143811197Y-79731100D01*
X143846411Y-79745686D01*
G37*
%TD.AperFunction*%
%TA.AperFunction,Conductor*%
G36*
X143773552Y-92377486D02*
G01*
X143788138Y-92412700D01*
X143773552Y-92447914D01*
X142864752Y-93356714D01*
X142829538Y-93371300D01*
X141843250Y-93371300D01*
X141808036Y-93356714D01*
X141804786Y-93353131D01*
X141801075Y-93348618D01*
X141799119Y-93344617D01*
X141791607Y-93337105D01*
X141790066Y-93335231D01*
X141785168Y-93319143D01*
X141778730Y-93303600D01*
X141779713Y-93301226D01*
X141778965Y-93298768D01*
X141786878Y-93283927D01*
X141793316Y-93268386D01*
X141799119Y-93262583D01*
X141851315Y-93155813D01*
X141861400Y-93086595D01*
X141861399Y-92520606D01*
X141861234Y-92519476D01*
X141859325Y-92506374D01*
X141851315Y-92451387D01*
X141849617Y-92447914D01*
X141843095Y-92434572D01*
X141840733Y-92396530D01*
X141865963Y-92367960D01*
X141887835Y-92362900D01*
X143738338Y-92362900D01*
X143773552Y-92377486D01*
G37*
%TD.AperFunction*%
%TA.AperFunction,Conductor*%
G36*
X151838114Y-85628186D02*
G01*
X151852700Y-85663400D01*
X151852700Y-86366799D01*
X152020687Y-86366799D01*
X152020696Y-86366798D01*
X152046104Y-86363851D01*
X152150076Y-86317944D01*
X152230444Y-86237576D01*
X152230701Y-86236995D01*
X152231110Y-86236603D01*
X152233051Y-86233771D01*
X152233648Y-86234180D01*
X152258265Y-86210670D01*
X152296370Y-86211548D01*
X152306570Y-86217593D01*
X152377678Y-86272157D01*
X152447832Y-86312660D01*
X152569639Y-86363114D01*
X152647882Y-86384079D01*
X152778930Y-86401332D01*
X152786047Y-86402186D01*
X152786051Y-86402185D01*
X152786054Y-86402186D01*
X152847268Y-86397462D01*
X152899744Y-86393414D01*
X153140304Y-86328956D01*
X153178090Y-86333931D01*
X153201293Y-86364170D01*
X153202953Y-86378975D01*
X153202801Y-86382914D01*
X153199600Y-86399009D01*
X153199600Y-86466062D01*
X153199563Y-86467023D01*
X153191968Y-86483530D01*
X153185014Y-86500321D01*
X152654621Y-87030714D01*
X152619407Y-87045300D01*
X151113793Y-87045300D01*
X151078579Y-87030714D01*
X150531692Y-86483827D01*
X150517106Y-86448613D01*
X150531692Y-86413399D01*
X150566906Y-86398813D01*
X150588777Y-86403872D01*
X150598887Y-86408815D01*
X150668105Y-86418900D01*
X151234094Y-86418899D01*
X151303313Y-86408815D01*
X151384254Y-86369245D01*
X151411862Y-86364519D01*
X151431512Y-86366799D01*
X151599500Y-86366799D01*
X151599500Y-85663400D01*
X151614086Y-85628186D01*
X151649300Y-85613600D01*
X151802900Y-85613600D01*
X151838114Y-85628186D01*
G37*
%TD.AperFunction*%
%TA.AperFunction,Conductor*%
G36*
X152482411Y-79745686D02*
G01*
X152496997Y-79780900D01*
X152482411Y-79816114D01*
X152466255Y-79826909D01*
X152447835Y-79834538D01*
X152447828Y-79834542D01*
X152377683Y-79875039D01*
X152273077Y-79955307D01*
X152215807Y-80012577D01*
X152135539Y-80117183D01*
X152095042Y-80187328D01*
X152095038Y-80187335D01*
X152044587Y-80309135D01*
X152044584Y-80309146D01*
X152023622Y-80387377D01*
X152023620Y-80387384D01*
X152006454Y-80517779D01*
X152003800Y-80558247D01*
X152003800Y-81158952D01*
X152006454Y-81199420D01*
X152023620Y-81329815D01*
X152023622Y-81329822D01*
X152044584Y-81408053D01*
X152044587Y-81408064D01*
X152095038Y-81529864D01*
X152095042Y-81529871D01*
X152135539Y-81600016D01*
X152135541Y-81600018D01*
X152135543Y-81600022D01*
X152215804Y-81704619D01*
X152215807Y-81704622D01*
X152245214Y-81734029D01*
X152259800Y-81769243D01*
X152259800Y-83877957D01*
X152245214Y-83913171D01*
X152215807Y-83942577D01*
X152135539Y-84047183D01*
X152095042Y-84117328D01*
X152095038Y-84117335D01*
X152044587Y-84239135D01*
X152044585Y-84239142D01*
X152027745Y-84301988D01*
X152004541Y-84332226D01*
X151966752Y-84337201D01*
X151936514Y-84313997D01*
X151931542Y-84301995D01*
X151927381Y-84286465D01*
X151851615Y-84155235D01*
X151744465Y-84048085D01*
X151744464Y-84048084D01*
X151613238Y-83972321D01*
X151613235Y-83972319D01*
X151613232Y-83972318D01*
X151613230Y-83972317D01*
X151466867Y-83933100D01*
X151466866Y-83933100D01*
X151315334Y-83933100D01*
X151315332Y-83933100D01*
X151168969Y-83972317D01*
X151168961Y-83972321D01*
X151037735Y-84048084D01*
X150930584Y-84155235D01*
X150865735Y-84267556D01*
X150835496Y-84290759D01*
X150797707Y-84285784D01*
X150787393Y-84277870D01*
X150481844Y-83972321D01*
X150161385Y-83651861D01*
X150161384Y-83651860D01*
X150104856Y-83619224D01*
X150048332Y-83586590D01*
X150048323Y-83586586D01*
X149985278Y-83569694D01*
X149922230Y-83552800D01*
X149922229Y-83552800D01*
X147169374Y-83552800D01*
X147038826Y-83552800D01*
X147038824Y-83552800D01*
X146953807Y-83575581D01*
X146912732Y-83586586D01*
X146912724Y-83586590D01*
X146799672Y-83651860D01*
X146799671Y-83651862D01*
X146199745Y-84251785D01*
X146164531Y-84266371D01*
X146129317Y-84251785D01*
X146121405Y-84241474D01*
X146071615Y-84155235D01*
X145964465Y-84048085D01*
X145964464Y-84048084D01*
X145833238Y-83972321D01*
X145833235Y-83972319D01*
X145833232Y-83972318D01*
X145833230Y-83972317D01*
X145686867Y-83933100D01*
X145686866Y-83933100D01*
X145535334Y-83933100D01*
X145535332Y-83933100D01*
X145388969Y-83972317D01*
X145388961Y-83972321D01*
X145257735Y-84048084D01*
X145150584Y-84155235D01*
X145074821Y-84286461D01*
X145074818Y-84286468D01*
X145063192Y-84329855D01*
X145039988Y-84360094D01*
X145002199Y-84365068D01*
X144971960Y-84341864D01*
X144966988Y-84329859D01*
X144920412Y-84156034D01*
X144918476Y-84149130D01*
X144902337Y-84117335D01*
X144866863Y-84047448D01*
X144866656Y-84047178D01*
X144786395Y-83942581D01*
X144786390Y-83942576D01*
X144786387Y-83942572D01*
X144756986Y-83913170D01*
X144742400Y-83877957D01*
X144742400Y-81769242D01*
X144756986Y-81734028D01*
X144786396Y-81704619D01*
X144866657Y-81600022D01*
X144907160Y-81529868D01*
X144957614Y-81408061D01*
X144978579Y-81329818D01*
X144995745Y-81199431D01*
X144997223Y-81176874D01*
X144998399Y-81158952D01*
X144998400Y-81158923D01*
X144998400Y-80557945D01*
X144998399Y-80557934D01*
X144997686Y-80552524D01*
X144987827Y-80477631D01*
X144920412Y-80226034D01*
X144918476Y-80219130D01*
X144902337Y-80187335D01*
X144866863Y-80117448D01*
X144866656Y-80117178D01*
X144786395Y-80012581D01*
X144729119Y-79955304D01*
X144624522Y-79875043D01*
X144624518Y-79875041D01*
X144624516Y-79875039D01*
X144554371Y-79834542D01*
X144554368Y-79834540D01*
X144554366Y-79834539D01*
X144554364Y-79834538D01*
X144535945Y-79826909D01*
X144508994Y-79799957D01*
X144508994Y-79761842D01*
X144535946Y-79734891D01*
X144555003Y-79731100D01*
X152447197Y-79731100D01*
X152482411Y-79745686D01*
G37*
%TD.AperFunction*%
%TD*%
M02*
