%TF.GenerationSoftware,KiCad,Pcbnew,9.0.6*%
%TF.CreationDate,2026-01-24T16:37:16+08:00*%
%TF.ProjectId,XM125_Breakout,584d3132-355f-4427-9265-616b6f75742e,rev?*%
%TF.SameCoordinates,Original*%
%TF.FileFunction,Copper,L2,Bot*%
%TF.FilePolarity,Positive*%
%FSLAX46Y46*%
G04 Gerber Fmt 4.6, Leading zero omitted, Abs format (unit mm)*
G04 Created by KiCad (PCBNEW 9.0.6) date 2026-01-24 16:37:16*
%MOMM*%
%LPD*%
G01*
G04 APERTURE LIST*
G04 Aperture macros list*
%AMRoundRect*
0 Rectangle with rounded corners*
0 $1 Rounding radius*
0 $2 $3 $4 $5 $6 $7 $8 $9 X,Y pos of 4 corners*
0 Add a 4 corners polygon primitive as box body*
4,1,4,$2,$3,$4,$5,$6,$7,$8,$9,$2,$3,0*
0 Add four circle primitives for the rounded corners*
1,1,$1+$1,$2,$3*
1,1,$1+$1,$4,$5*
1,1,$1+$1,$6,$7*
1,1,$1+$1,$8,$9*
0 Add four rect primitives between the rounded corners*
20,1,$1+$1,$2,$3,$4,$5,0*
20,1,$1+$1,$4,$5,$6,$7,0*
20,1,$1+$1,$6,$7,$8,$9,0*
20,1,$1+$1,$8,$9,$2,$3,0*%
G04 Aperture macros list end*
%TA.AperFunction,EtchedComponent*%
%ADD10C,0.000000*%
%TD*%
%TA.AperFunction,ComponentPad*%
%ADD11O,0.600000X1.200000*%
%TD*%
%TA.AperFunction,ComponentPad*%
%ADD12C,1.879600*%
%TD*%
%TA.AperFunction,SMDPad,CuDef*%
%ADD13RoundRect,0.050800X0.549200X-0.224200X0.549200X0.224200X-0.549200X0.224200X-0.549200X-0.224200X0*%
%TD*%
%TA.AperFunction,SMDPad,CuDef*%
%ADD14RoundRect,0.050800X-0.624200X0.224200X-0.624200X-0.224200X0.624200X-0.224200X0.624200X0.224200X0*%
%TD*%
%TA.AperFunction,SMDPad,CuDef*%
%ADD15RoundRect,0.500000X0.000010X0.000010X-0.000010X0.000010X-0.000010X-0.000010X0.000010X-0.000010X0*%
%TD*%
%TA.AperFunction,SMDPad,CuDef*%
%ADD16RoundRect,0.050800X0.499200X0.449200X-0.499200X0.449200X-0.499200X-0.449200X0.499200X-0.449200X0*%
%TD*%
%TA.AperFunction,SMDPad,CuDef*%
%ADD17RoundRect,0.050800X-0.499200X-0.449200X0.499200X-0.449200X0.499200X0.449200X-0.499200X0.449200X0*%
%TD*%
%TA.AperFunction,SMDPad,CuDef*%
%ADD18RoundRect,0.050800X0.584200X-0.279400X0.584200X0.279400X-0.584200X0.279400X-0.584200X-0.279400X0*%
%TD*%
%TA.AperFunction,SMDPad,CuDef*%
%ADD19RoundRect,0.050800X-0.449200X0.499200X-0.449200X-0.499200X0.449200X-0.499200X0.449200X0.499200X0*%
%TD*%
%TA.AperFunction,SMDPad,CuDef*%
%ADD20RoundRect,0.050800X-0.249200X-0.549200X0.249200X-0.549200X0.249200X0.549200X-0.249200X0.549200X0*%
%TD*%
%TA.AperFunction,SMDPad,CuDef*%
%ADD21RoundRect,0.050800X-0.224200X-0.549200X0.224200X-0.549200X0.224200X0.549200X-0.224200X0.549200X0*%
%TD*%
%TA.AperFunction,SMDPad,CuDef*%
%ADD22RoundRect,0.050800X0.449200X-0.499200X0.449200X0.499200X-0.449200X0.499200X-0.449200X-0.499200X0*%
%TD*%
%TA.AperFunction,SMDPad,CuDef*%
%ADD23RoundRect,0.050800X-0.319200X-1.139200X0.319200X-1.139200X0.319200X1.139200X-0.319200X1.139200X0*%
%TD*%
%TA.AperFunction,ViaPad*%
%ADD24C,0.660400*%
%TD*%
%TA.AperFunction,ViaPad*%
%ADD25C,0.736600*%
%TD*%
%TA.AperFunction,ViaPad*%
%ADD26C,0.600000*%
%TD*%
%TA.AperFunction,Conductor*%
%ADD27C,0.508000*%
%TD*%
%TA.AperFunction,Conductor*%
%ADD28C,0.254000*%
%TD*%
G04 APERTURE END LIST*
D10*
%TA.AperFunction,EtchedComponent*%
%TO.C,J1*%
G36*
X144435355Y-80121015D02*
G01*
X144540219Y-80201481D01*
X144620480Y-80306078D01*
X144670934Y-80427885D01*
X144688100Y-80558272D01*
X144688100Y-81158928D01*
X144670934Y-81289315D01*
X144620480Y-81411122D01*
X144540219Y-81515719D01*
X144435622Y-81595980D01*
X144313815Y-81646434D01*
X144183100Y-81663643D01*
X144052385Y-81646434D01*
X143930578Y-81595980D01*
X143825981Y-81515719D01*
X143745720Y-81411122D01*
X143695266Y-81289315D01*
X143678100Y-81158928D01*
X143678100Y-80558272D01*
X143695266Y-80427885D01*
X143745720Y-80306078D01*
X143825981Y-80201481D01*
X143930578Y-80121220D01*
X144052385Y-80070766D01*
X144183433Y-80053513D01*
X144435355Y-80121015D01*
G37*
%TD.AperFunction*%
%TA.AperFunction,EtchedComponent*%
G36*
X144435355Y-84051015D02*
G01*
X144540219Y-84131481D01*
X144620480Y-84236078D01*
X144670934Y-84357885D01*
X144688100Y-84488272D01*
X144688100Y-85588928D01*
X144670934Y-85719315D01*
X144620480Y-85841122D01*
X144540219Y-85945719D01*
X144435622Y-86025980D01*
X144313815Y-86076434D01*
X144183100Y-86093643D01*
X144052385Y-86076434D01*
X143930578Y-86025980D01*
X143825981Y-85945719D01*
X143745720Y-85841122D01*
X143695266Y-85719315D01*
X143678100Y-85588928D01*
X143678100Y-84488272D01*
X143695266Y-84357885D01*
X143745720Y-84236078D01*
X143825981Y-84131481D01*
X143930578Y-84051220D01*
X144052385Y-84000766D01*
X144183433Y-83983513D01*
X144435355Y-84051015D01*
G37*
%TD.AperFunction*%
%TA.AperFunction,EtchedComponent*%
G36*
X153071355Y-80121015D02*
G01*
X153176219Y-80201481D01*
X153256480Y-80306078D01*
X153306934Y-80427885D01*
X153324100Y-80558272D01*
X153324100Y-81158928D01*
X153306934Y-81289315D01*
X153256480Y-81411122D01*
X153176219Y-81515719D01*
X153071622Y-81595980D01*
X152949815Y-81646434D01*
X152819100Y-81663643D01*
X152688385Y-81646434D01*
X152566578Y-81595980D01*
X152461981Y-81515719D01*
X152381720Y-81411122D01*
X152331266Y-81289315D01*
X152314100Y-81158928D01*
X152314100Y-80558272D01*
X152331266Y-80427885D01*
X152381720Y-80306078D01*
X152461981Y-80201481D01*
X152566578Y-80121220D01*
X152688385Y-80070766D01*
X152819433Y-80053513D01*
X153071355Y-80121015D01*
G37*
%TD.AperFunction*%
%TA.AperFunction,EtchedComponent*%
G36*
X153071355Y-84051015D02*
G01*
X153176219Y-84131481D01*
X153256480Y-84236078D01*
X153306934Y-84357885D01*
X153324100Y-84488272D01*
X153324100Y-85588928D01*
X153306934Y-85719315D01*
X153256480Y-85841122D01*
X153176219Y-85945719D01*
X153071622Y-86025980D01*
X152949815Y-86076434D01*
X152819100Y-86093643D01*
X152688385Y-86076434D01*
X152566578Y-86025980D01*
X152461981Y-85945719D01*
X152381720Y-85841122D01*
X152331266Y-85719315D01*
X152314100Y-85588928D01*
X152314100Y-84488272D01*
X152331266Y-84357885D01*
X152381720Y-84236078D01*
X152461981Y-84131481D01*
X152566578Y-84051220D01*
X152688385Y-84000766D01*
X152819433Y-83983513D01*
X153071355Y-84051015D01*
G37*
%TD.AperFunction*%
%TA.AperFunction,EtchedComponent*%
%TO.C,PWR_LED0*%
G36*
X138474450Y-99955350D02*
G01*
X138207750Y-99955350D01*
X138207750Y-99218750D01*
X138474450Y-99218750D01*
X138474450Y-99955350D01*
G37*
%TD.AperFunction*%
%TA.AperFunction,EtchedComponent*%
G36*
X138474450Y-100628450D02*
G01*
X138207750Y-100628450D01*
X138207750Y-99891850D01*
X138474450Y-99891850D01*
X138474450Y-100628450D01*
G37*
%TD.AperFunction*%
%TD*%
D11*
%TO.P,J1,SHLD1*%
%TO.N,N$9*%
X152819100Y-85038600D03*
%TO.P,J1,SHLD2*%
X144183100Y-85038600D03*
%TO.P,J1,SHLD3*%
X152819100Y-80858600D03*
%TO.P,J1,SHLD4*%
X144183100Y-80858600D03*
%TD*%
D12*
%TO.P,J14,1*%
%TO.N,~{XM125_RESET}*%
X137071100Y-122783600D03*
%TO.P,J14,2*%
%TO.N,SWD_CLK*%
X137071100Y-120243600D03*
%TO.P,J14,3*%
%TO.N,SWD_IO*%
X137071100Y-117703600D03*
%TO.P,J14,4*%
%TO.N,GND*%
X137071100Y-115163600D03*
%TO.P,J14,5*%
X137071100Y-112623600D03*
%TO.P,J14,6*%
%TO.N,V_USB*%
X137071100Y-110083600D03*
%TO.P,J14,7*%
%TO.N,1.8V*%
X137071100Y-107543600D03*
%TO.P,J14,8*%
%TO.N,3.3V*%
X137071100Y-105003600D03*
%TO.P,J14,9*%
%TO.N,~{XM125_INT}*%
X137071100Y-102463600D03*
%TD*%
%TO.P,J15,1*%
%TO.N,WAKE_UP*%
X159931100Y-122783600D03*
%TO.P,J15,2*%
%TO.N,SCL*%
X159931100Y-120243600D03*
%TO.P,J15,3*%
%TO.N,SDA*%
X159931100Y-117703600D03*
%TO.P,J15,4*%
%TO.N,3.3V*%
X159931100Y-115163600D03*
%TO.P,J15,5*%
%TO.N,GND*%
X159931100Y-112623600D03*
%TO.P,J15,6*%
%TO.N,XM125_I2C_ADDRESS*%
X159931100Y-110083600D03*
%TO.P,J15,7*%
%TO.N,DEBUG_UART-RX*%
X159931100Y-107543600D03*
%TO.P,J15,8*%
%TO.N,DEBUG_UART-TX*%
X159931100Y-105003600D03*
%TO.P,J15,9*%
%TO.N,XM125_GPIO0*%
X159931100Y-102463600D03*
%TO.P,J15,10*%
%TO.N,XM125_GPIO1*%
X159931100Y-99923600D03*
%TO.P,J15,11*%
%TO.N,XM125_GPIO2/BOOT0*%
X159931100Y-97383600D03*
%TD*%
D13*
%TO.P,U2,1*%
%TO.N,V_USB*%
X147201000Y-101381600D03*
%TO.P,U2,2*%
%TO.N,GND*%
X147201000Y-100431600D03*
%TO.P,U2,3*%
%TO.N,V_USB*%
X147201000Y-99481600D03*
%TO.P,U2,4*%
%TO.N,N/C*%
X149801200Y-99481600D03*
%TO.P,U2,5*%
%TO.N,3.3V*%
X149801200Y-101381600D03*
%TD*%
D14*
%TO.P,U5,1*%
%TO.N,N/C*%
X152416200Y-88051600D03*
%TO.P,U5,2*%
%TO.N,GND*%
X152416200Y-89001600D03*
%TO.P,U5,3*%
%TO.N,N/C*%
X152416200Y-89951600D03*
%TO.P,U5,4*%
%TO.N,N$1*%
X149666000Y-89951600D03*
%TO.P,U5,5*%
%TO.N,V_USB*%
X149666000Y-89001600D03*
%TO.P,U5,6*%
%TO.N,N$2*%
X149666000Y-88051600D03*
%TD*%
D15*
%TO.P,FD2,1*%
%TO.N,N/C*%
X137071100Y-84683600D03*
%TD*%
D16*
%TO.P,C14,1*%
%TO.N,V_USB*%
X145541100Y-87858600D03*
%TO.P,C14,2*%
%TO.N,GND*%
X143841100Y-87858600D03*
%TD*%
D17*
%TO.P,R11,1*%
%TO.N,SDA*%
X156541100Y-85953600D03*
%TO.P,R11,2*%
%TO.N,N$16*%
X158241100Y-85953600D03*
%TD*%
%TO.P,R8,1*%
%TO.N,GND*%
X145111100Y-89382600D03*
%TO.P,R8,2*%
%TO.N,N$10*%
X146811100Y-89382600D03*
%TD*%
D18*
%TO.P,PWR_LED0,1*%
%TO.N,N$14*%
X138341100Y-100444300D03*
%TO.P,PWR_LED0,2*%
%TO.N,3.3V*%
X138341100Y-99402900D03*
%TD*%
D19*
%TO.P,C17,1*%
%TO.N,3.3V*%
X144691100Y-107963600D03*
%TO.P,C17,2*%
%TO.N,GND*%
X144691100Y-109663600D03*
%TD*%
D16*
%TO.P,R12,1*%
%TO.N,SCL*%
X158241100Y-87858600D03*
%TO.P,R12,2*%
%TO.N,N$17*%
X156541100Y-87858600D03*
%TD*%
D20*
%TO.P,U4,1*%
%TO.N,GND*%
X145326100Y-91408600D03*
%TO.P,U4,2*%
%TO.N,CH340-TX*%
X146596100Y-91408600D03*
%TO.P,U4,3*%
%TO.N,CH340-RX*%
X147866100Y-91408600D03*
%TO.P,U4,4*%
%TO.N,3.3V*%
X149136100Y-91408600D03*
%TO.P,U4,5*%
%TO.N,N$1*%
X150406100Y-91408600D03*
%TO.P,U4,6*%
%TO.N,N$2*%
X151676100Y-91408600D03*
%TO.P,U4,7*%
%TO.N,N/C*%
X152946100Y-91408600D03*
%TO.P,U4,8*%
X154216100Y-91408600D03*
%TO.P,U4,9*%
%TO.N,CH340-CTS*%
X154216100Y-97008600D03*
%TO.P,U4,10*%
%TO.N,N/C*%
X152946100Y-97008600D03*
%TO.P,U4,11*%
X151676100Y-97008600D03*
%TO.P,U4,12*%
X150406100Y-97008600D03*
%TO.P,U4,13*%
X149136100Y-97008600D03*
%TO.P,U4,14*%
%TO.N,CH340-RTS*%
X147866100Y-97008600D03*
%TO.P,U4,15*%
%TO.N,N/C*%
X146596100Y-97008600D03*
%TO.P,U4,16*%
%TO.N,3.3V*%
X145326100Y-97008600D03*
%TD*%
D17*
%TO.P,C3,1*%
%TO.N,1.8V*%
X146254100Y-111861600D03*
%TO.P,C3,2*%
%TO.N,GND*%
X147954100Y-111861600D03*
%TD*%
D15*
%TO.P,FD4,1*%
%TO.N,N/C*%
X159931100Y-125323600D03*
%TD*%
D21*
%TO.P,U3,1*%
%TO.N,3.3V*%
X146281100Y-107513500D03*
%TO.P,U3,2*%
%TO.N,GND*%
X147231100Y-107513500D03*
%TO.P,U3,3*%
%TO.N,3.3V*%
X148181100Y-107513500D03*
%TO.P,U3,4*%
%TO.N,N/C*%
X148181100Y-110113700D03*
%TO.P,U3,5*%
%TO.N,1.8V*%
X146281100Y-110113700D03*
%TD*%
D17*
%TO.P,C16,1*%
%TO.N,V_USB*%
X147651100Y-102971600D03*
%TO.P,C16,2*%
%TO.N,GND*%
X149351100Y-102971600D03*
%TD*%
D19*
%TO.P,R7,1*%
%TO.N,GND*%
X154851100Y-83833600D03*
%TO.P,R7,2*%
%TO.N,N$11*%
X154851100Y-85533600D03*
%TD*%
D22*
%TO.P,C15,1*%
%TO.N,3.3V*%
X143421100Y-95693600D03*
%TO.P,C15,2*%
%TO.N,GND*%
X143421100Y-93993600D03*
%TD*%
D23*
%TO.P,J13,1*%
%TO.N,3.3V*%
X145961100Y-114553600D03*
%TO.P,J13,2*%
%TO.N,SWD_IO*%
X145961100Y-118313600D03*
%TO.P,J13,3*%
%TO.N,GND*%
X147231100Y-114553600D03*
%TO.P,J13,4*%
%TO.N,SWD_CLK*%
X147231100Y-118313600D03*
%TO.P,J13,5*%
%TO.N,GND*%
X148501100Y-114553600D03*
%TO.P,J13,6*%
%TO.N,N/C*%
X148501100Y-118313600D03*
%TO.P,J13,7*%
X149771100Y-114553600D03*
%TO.P,J13,8*%
X149771100Y-118313600D03*
%TO.P,J13,9*%
%TO.N,GND*%
X151041100Y-114553600D03*
%TO.P,J13,10*%
%TO.N,~{XM125_RESET}*%
X151041100Y-118313600D03*
%TD*%
D22*
%TO.P,C8,1*%
%TO.N,3.3V*%
X151676100Y-101281600D03*
%TO.P,C8,2*%
%TO.N,GND*%
X151676100Y-99581600D03*
%TD*%
D24*
%TO.N,1.8V*%
X143268700Y-106908600D03*
%TO.N,3.3V*%
X149263100Y-95224600D03*
X155105100Y-127482600D03*
X138976100Y-95732600D03*
X150787100Y-104241600D03*
X144310100Y-101447600D03*
%TO.N,GND*%
X155613100Y-95478600D03*
X140881100Y-126593600D03*
X137071100Y-125323600D03*
X140881100Y-85953600D03*
X139611100Y-88493600D03*
X153073100Y-100304600D03*
D25*
X149136100Y-107416600D03*
D24*
X156502100Y-84175600D03*
X149390100Y-111861600D03*
X148501100Y-82143600D03*
X139611100Y-84683600D03*
X139357100Y-121513600D03*
X143294100Y-119227600D03*
X153581100Y-121513600D03*
X150406100Y-100431600D03*
X143421100Y-115798600D03*
X150787100Y-93573600D03*
X150787100Y-112369600D03*
X142151100Y-97383600D03*
X158534100Y-121640600D03*
X157391100Y-124053600D03*
X142151100Y-80873600D03*
X147739100Y-127101600D03*
X139484100Y-106019600D03*
X143802100Y-89382600D03*
X153708100Y-116052600D03*
X147231100Y-106400600D03*
X138976100Y-90779600D03*
X145072100Y-110845600D03*
X153962100Y-106019600D03*
X151676100Y-86715600D03*
X139611100Y-124053600D03*
X158407100Y-93827600D03*
X136563100Y-98907600D03*
X145199100Y-122783600D03*
X149771100Y-122783600D03*
X153835100Y-119608600D03*
X153962100Y-88493600D03*
X139611100Y-108813600D03*
X153581100Y-111988600D03*
X154851100Y-80873600D03*
D26*
X142500000Y-92750000D03*
D24*
X155486100Y-98653600D03*
%TO.N,V_USB*%
X145072100Y-102463600D03*
X142913100Y-102463600D03*
X145580100Y-86715600D03*
%TO.N,N$1*%
X147739100Y-88112600D03*
%TO.N,N$2*%
X149644100Y-87223600D03*
%TO.N,CH340-TX*%
X146596100Y-94208600D03*
%TO.N,CH340-RX*%
X147739100Y-94081600D03*
%TO.N,CH340-RTS*%
X154089100Y-100939600D03*
%TO.N,CH340-CTS*%
X154851100Y-101447600D03*
%TO.N,N$10*%
X146850100Y-88239600D03*
%TO.N,N$11*%
X153835100Y-86461600D03*
%TO.N,SCL*%
X157391100Y-90779600D03*
X157518100Y-118338600D03*
%TO.N,SDA*%
X158026100Y-91795600D03*
X157518100Y-117068600D03*
%TO.N,N$14*%
X136563100Y-100939600D03*
%TO.N,SWD_CLK*%
X143802100Y-118338600D03*
%TO.N,SWD_IO*%
X143802100Y-117068600D03*
%TO.N,DEBUG_UART-TX*%
X157645100Y-109829600D03*
%TO.N,N$16*%
X159423100Y-85953600D03*
%TO.N,N$17*%
X155232100Y-88493600D03*
%TO.N,XM125_I2C_ADDRESS*%
X149263100Y-105130600D03*
X153550284Y-108844416D03*
%TO.N,WAKE_UP*%
X152666700Y-109273225D03*
X149263100Y-106146600D03*
%TO.N,~{XM125_RESET}*%
X151041100Y-121513600D03*
%TO.N,~{XM125_INT}*%
X145072100Y-98399600D03*
X141643100Y-100939600D03*
X147842518Y-98650600D03*
X143548100Y-100177600D03*
%TD*%
D27*
%TO.N,1.8V*%
X146254100Y-111861600D02*
X143929100Y-111861600D01*
X146281100Y-111834600D02*
X146254100Y-111861600D01*
X143268700Y-111201200D02*
X143929100Y-111861600D01*
X143268700Y-106908600D02*
X143268700Y-111201200D01*
X146281100Y-111834600D02*
X146281100Y-110113700D01*
%TO.N,3.3V*%
X143421100Y-95693600D02*
X143509100Y-95693600D01*
X158280100Y-118846600D02*
X158280100Y-116814600D01*
X150787100Y-101381600D02*
X151576100Y-101381600D01*
X154470100Y-117830600D02*
X156121100Y-119481600D01*
X150787100Y-101381600D02*
X150787100Y-104241600D01*
X144310100Y-106019600D02*
X144310100Y-106146600D01*
X149263100Y-95224600D02*
X149263100Y-93000000D01*
X144310100Y-96494600D02*
X144310100Y-97008600D01*
X157645100Y-119481600D02*
X156121100Y-119481600D01*
X156121100Y-121386600D02*
X156121100Y-119481600D01*
X144691100Y-107963600D02*
X144691100Y-106527600D01*
X147993100Y-105257600D02*
X147993100Y-104241600D01*
X146281100Y-107513500D02*
X146281100Y-106720600D01*
X143509100Y-95693600D02*
X144310100Y-96494600D01*
X143548100Y-112877600D02*
X142278100Y-111607600D01*
X144310100Y-101447600D02*
X144310100Y-104241600D01*
X146215100Y-95224600D02*
X145326100Y-96113600D01*
X144310100Y-104241600D02*
X144310100Y-106019600D01*
X144310100Y-104241600D02*
X147993100Y-104241600D01*
X145326100Y-97008600D02*
X144310100Y-97008600D01*
X145961100Y-106400600D02*
X144564100Y-106400600D01*
X145072100Y-112877600D02*
X143548100Y-112877600D01*
X148181100Y-107513500D02*
X148181100Y-105445600D01*
X145326100Y-97008600D02*
X145326100Y-96113600D01*
X155105100Y-122402600D02*
X156121100Y-121386600D01*
X158280100Y-118846600D02*
X157645100Y-119481600D01*
X149136100Y-92873000D02*
X149136100Y-91408600D01*
X145961100Y-113766600D02*
X145072100Y-112877600D01*
X154470100Y-107924600D02*
X154470100Y-117830600D01*
X155105100Y-127482600D02*
X155105100Y-122402600D01*
X146281100Y-106720600D02*
X145961100Y-106400600D01*
X142278100Y-111607600D02*
X142278100Y-106654600D01*
X144310100Y-97008600D02*
X144310100Y-101447600D01*
X150787100Y-104241600D02*
X154470100Y-107924600D01*
X144564100Y-106400600D02*
X144691100Y-106527600D01*
X145961100Y-114553600D02*
X145961100Y-113766600D01*
X148181100Y-105445600D02*
X147993100Y-105257600D01*
X149263100Y-95224600D02*
X146215100Y-95224600D01*
X142278100Y-106654600D02*
X142913100Y-106019600D01*
X149263100Y-93000000D02*
X149136100Y-92873000D01*
X149801200Y-101381600D02*
X150787100Y-101381600D01*
X147993100Y-104241600D02*
X150787100Y-104241600D01*
X138976100Y-95732600D02*
X138976100Y-97383600D01*
X151576100Y-101381600D02*
X151676100Y-101281600D01*
X144310100Y-106146600D02*
X144564100Y-106400600D01*
X138976100Y-97383600D02*
X138341100Y-98018600D01*
X158280100Y-116814600D02*
X159931100Y-115163600D01*
X142913100Y-106019600D02*
X144310100Y-106019600D01*
X138341100Y-98018600D02*
X138341100Y-99402900D01*
%TO.N,V_USB*%
X145580100Y-102971600D02*
X146469100Y-102971600D01*
X147866100Y-86715600D02*
X148501100Y-87350600D01*
X145895100Y-99481600D02*
X145072100Y-100304600D01*
X140246100Y-102463600D02*
X142913100Y-102463600D01*
X148755100Y-89001600D02*
X148501100Y-88747600D01*
X138595100Y-104114600D02*
X140246100Y-102463600D01*
X145580100Y-87819600D02*
X145580100Y-86715600D01*
X140246100Y-102463600D02*
X140246100Y-92684600D01*
X145580100Y-86715600D02*
X147866100Y-86715600D01*
X145072100Y-102463600D02*
X145580100Y-102971600D01*
X142151100Y-90779600D02*
X140246100Y-92684600D01*
X147201000Y-101381600D02*
X146469100Y-102113500D01*
X148501100Y-87350600D02*
X148501100Y-88747600D01*
X137071100Y-110083600D02*
X138595100Y-108559600D01*
X142151100Y-87477600D02*
X142151100Y-90779600D01*
X146469100Y-102113500D02*
X146469100Y-102971600D01*
D28*
X145541100Y-87858600D02*
X145580100Y-87819600D01*
D27*
X149666000Y-89001600D02*
X148755100Y-89001600D01*
X146469100Y-102971600D02*
X147651100Y-102971600D01*
X138595100Y-108559600D02*
X138595100Y-104114600D01*
X142913100Y-86715600D02*
X142151100Y-87477600D01*
X145072100Y-100304600D02*
X145072100Y-102463600D01*
X145580100Y-86715600D02*
X142913100Y-86715600D01*
X147201000Y-99481600D02*
X145895100Y-99481600D01*
D28*
%TO.N,N$1*%
X149666000Y-89951600D02*
X149666000Y-90420500D01*
X150406100Y-91160600D02*
X150406100Y-91408600D01*
X149666000Y-89951600D02*
X148689100Y-89951600D01*
X147739100Y-88112600D02*
X147739100Y-89001600D01*
X149666000Y-90420500D02*
X150406100Y-91160600D01*
X148689100Y-89951600D02*
X147739100Y-89001600D01*
%TO.N,N$2*%
X151041100Y-88239600D02*
X151041100Y-90525600D01*
X150853100Y-88051600D02*
X151041100Y-88239600D01*
X151676100Y-91160600D02*
X151676100Y-91408600D01*
X151041100Y-90525600D02*
X151676100Y-91160600D01*
X149666000Y-88051600D02*
X149666000Y-87245500D01*
X149666000Y-88051600D02*
X150853100Y-88051600D01*
X149666000Y-87245500D02*
X149644100Y-87223600D01*
%TO.N,CH340-TX*%
X146596100Y-91408600D02*
X146596100Y-94208600D01*
%TO.N,CH340-RX*%
X147739100Y-91535600D02*
X147739100Y-94081600D01*
X147866100Y-91408600D02*
X147739100Y-91535600D01*
%TO.N,CH340-RTS*%
X153454100Y-98018600D02*
X154089100Y-98653600D01*
X148501100Y-98018600D02*
X153454100Y-98018600D01*
X154089100Y-98653600D02*
X154089100Y-100939600D01*
X147866100Y-97383600D02*
X148501100Y-98018600D01*
X147866100Y-97008600D02*
X147866100Y-97383600D01*
%TO.N,CH340-CTS*%
X154216100Y-97256600D02*
X154851100Y-97891600D01*
X154216100Y-97008600D02*
X154216100Y-97256600D01*
X154851100Y-97891600D02*
X154851100Y-101447600D01*
D27*
%TO.N,N$9*%
X144183100Y-80858600D02*
X152819100Y-80858600D01*
D28*
%TO.N,N$10*%
X146811100Y-88278600D02*
X146811100Y-89382600D01*
X146850100Y-88239600D02*
X146811100Y-88278600D01*
%TO.N,N$11*%
X154851100Y-85533600D02*
X153923100Y-86461600D01*
X153923100Y-86461600D02*
X153835100Y-86461600D01*
%TO.N,SCL*%
X157391100Y-90779600D02*
X156248100Y-91922600D01*
X156248100Y-117068600D02*
X157518100Y-118338600D01*
X158241100Y-89929600D02*
X158241100Y-87858600D01*
X157391100Y-90779600D02*
X158241100Y-89929600D01*
X156248100Y-91922600D02*
X156248100Y-117068600D01*
%TO.N,SDA*%
X156541100Y-85953600D02*
X157430100Y-85064600D01*
X156883100Y-92938600D02*
X156883100Y-116433600D01*
X157518100Y-117068600D02*
X156883100Y-116433600D01*
X157430100Y-85064600D02*
X159550100Y-85064600D01*
X160058100Y-89763600D02*
X158026100Y-91795600D01*
X160058100Y-85572600D02*
X160058100Y-89763600D01*
X156883100Y-92938600D02*
X158026100Y-91795600D01*
X159550100Y-85064600D02*
X160058100Y-85572600D01*
%TO.N,N$14*%
X137566400Y-100444300D02*
X137071100Y-100939600D01*
X137071100Y-100939600D02*
X136563100Y-100939600D01*
X138341100Y-100444300D02*
X137566400Y-100444300D01*
%TO.N,SWD_CLK*%
X147231100Y-119862600D02*
X146850100Y-120243600D01*
X143802100Y-118365494D02*
X143802100Y-118338600D01*
X147231100Y-118313600D02*
X147231100Y-119862600D01*
X146850100Y-120243600D02*
X145680206Y-120243600D01*
X145680206Y-120243600D02*
X143802100Y-118365494D01*
%TO.N,SWD_IO*%
X145961100Y-118313600D02*
X145047100Y-118313600D01*
X145047100Y-118313600D02*
X143802100Y-117068600D01*
%TO.N,DEBUG_UART-TX*%
X159931100Y-105003600D02*
X157645100Y-107289600D01*
X157645100Y-107289600D02*
X157645100Y-109829600D01*
%TO.N,N$16*%
X158241100Y-85953600D02*
X159423100Y-85953600D01*
%TO.N,N$17*%
X155232100Y-88493600D02*
X155906100Y-88493600D01*
X156541100Y-87858600D02*
X155906100Y-88493600D01*
%TO.N,XM125_I2C_ADDRESS*%
X153550284Y-108844416D02*
X149836468Y-105130600D01*
X149836468Y-105130600D02*
X149263100Y-105130600D01*
%TO.N,WAKE_UP*%
X152666700Y-109273225D02*
X152158700Y-108765225D01*
X151881725Y-108765225D02*
X149263100Y-106146600D01*
X152158700Y-108765225D02*
X151881725Y-108765225D01*
%TO.N,~{XM125_RESET}*%
X151041100Y-121513600D02*
X151041100Y-118313600D01*
%TO.N,~{XM125_INT}*%
X147842518Y-98650600D02*
X147591518Y-98399600D01*
X147591518Y-98399600D02*
X145072100Y-98399600D01*
X142405100Y-100177600D02*
X143548100Y-100177600D01*
X141643100Y-100939600D02*
X142405100Y-100177600D01*
%TD*%
%TA.AperFunction,Conductor*%
%TO.N,GND*%
G36*
X143023314Y-87466782D02*
G01*
X143037900Y-87501996D01*
X143037900Y-87732000D01*
X143791300Y-87732000D01*
X143826514Y-87746586D01*
X143841100Y-87781800D01*
X143841100Y-87858600D01*
X143917900Y-87858600D01*
X143953114Y-87873186D01*
X143967700Y-87908400D01*
X143967700Y-88611799D01*
X144383352Y-88611799D01*
X144418566Y-88626385D01*
X144433152Y-88661599D01*
X144418566Y-88696813D01*
X144356755Y-88758623D01*
X144310850Y-88862588D01*
X144310849Y-88862594D01*
X144307900Y-88888009D01*
X144307900Y-89256000D01*
X145061300Y-89256000D01*
X145096514Y-89270586D01*
X145111100Y-89305800D01*
X145111100Y-89382600D01*
X145187900Y-89382600D01*
X145223114Y-89397186D01*
X145237700Y-89432400D01*
X145237700Y-90135799D01*
X145655687Y-90135799D01*
X145655696Y-90135798D01*
X145681104Y-90132851D01*
X145785076Y-90086944D01*
X145865444Y-90006576D01*
X145886499Y-89958891D01*
X145914065Y-89932568D01*
X145952170Y-89933448D01*
X145976796Y-89957133D01*
X146018080Y-90041582D01*
X146018081Y-90041583D01*
X146102117Y-90125619D01*
X146208887Y-90177815D01*
X146278105Y-90187900D01*
X147344094Y-90187899D01*
X147413313Y-90177815D01*
X147520083Y-90125619D01*
X147604119Y-90041583D01*
X147656315Y-89934813D01*
X147666400Y-89865595D01*
X147666399Y-89660491D01*
X147680985Y-89625278D01*
X147716199Y-89610692D01*
X147751413Y-89625278D01*
X148423661Y-90297526D01*
X148522238Y-90354439D01*
X148632186Y-90383900D01*
X148632187Y-90383900D01*
X148725670Y-90383900D01*
X148760884Y-90398486D01*
X148796288Y-90433890D01*
X148810874Y-90469104D01*
X148796288Y-90504318D01*
X148782946Y-90513844D01*
X148677117Y-90565580D01*
X148593080Y-90649617D01*
X148545840Y-90746250D01*
X148517270Y-90771480D01*
X148479228Y-90769118D01*
X148456360Y-90746250D01*
X148409119Y-90649617D01*
X148325082Y-90565580D01*
X148218314Y-90513385D01*
X148149096Y-90503300D01*
X147583105Y-90503300D01*
X147513884Y-90513385D01*
X147407117Y-90565580D01*
X147323080Y-90649617D01*
X147275840Y-90746250D01*
X147247270Y-90771480D01*
X147209228Y-90769118D01*
X147186360Y-90746250D01*
X147139119Y-90649617D01*
X147055082Y-90565580D01*
X146948314Y-90513385D01*
X146879096Y-90503300D01*
X146313105Y-90503300D01*
X146243884Y-90513385D01*
X146137117Y-90565580D01*
X146053080Y-90649617D01*
X146000885Y-90756385D01*
X145990800Y-90825603D01*
X145990800Y-91991594D01*
X146000885Y-92060815D01*
X146053080Y-92167582D01*
X146137119Y-92251621D01*
X146140476Y-92254018D01*
X146139603Y-92255239D01*
X146161099Y-92279571D01*
X146163800Y-92295750D01*
X146163800Y-93721539D01*
X146149214Y-93756753D01*
X146102474Y-93803493D01*
X146102471Y-93803495D01*
X146032926Y-93907579D01*
X146032924Y-93907581D01*
X145985024Y-94023226D01*
X145985019Y-94023240D01*
X145960600Y-94146006D01*
X145960600Y-94271193D01*
X145985019Y-94393959D01*
X145985021Y-94393965D01*
X145985022Y-94393969D01*
X145985024Y-94393973D01*
X146032924Y-94509618D01*
X146032926Y-94509620D01*
X146099023Y-94608544D01*
X146106459Y-94645927D01*
X146085283Y-94677618D01*
X146070506Y-94684314D01*
X145999220Y-94703415D01*
X145999214Y-94703418D01*
X145889261Y-94766900D01*
X145871683Y-94777048D01*
X145871679Y-94777052D01*
X144878548Y-95770182D01*
X144804918Y-95897714D01*
X144804914Y-95897722D01*
X144766800Y-96039965D01*
X144766800Y-96040103D01*
X144766773Y-96040166D01*
X144766374Y-96043203D01*
X144765560Y-96043095D01*
X144752214Y-96075317D01*
X144717000Y-96089903D01*
X144681786Y-96075317D01*
X144240985Y-95634516D01*
X144226399Y-95599302D01*
X144226399Y-95160605D01*
X144220705Y-95121522D01*
X144216315Y-95091387D01*
X144190815Y-95039226D01*
X144164119Y-94984617D01*
X144080082Y-94900580D01*
X143995633Y-94859296D01*
X143970403Y-94830726D01*
X143972765Y-94792684D01*
X143997391Y-94768999D01*
X144045076Y-94747944D01*
X144125444Y-94667576D01*
X144171349Y-94563611D01*
X144171350Y-94563605D01*
X144174299Y-94538190D01*
X144174300Y-94538189D01*
X144174300Y-94120200D01*
X142667901Y-94120200D01*
X142667901Y-94538196D01*
X142670848Y-94563604D01*
X142716755Y-94667576D01*
X142797123Y-94747944D01*
X142844809Y-94768999D01*
X142871131Y-94796566D01*
X142870251Y-94834671D01*
X142846566Y-94859296D01*
X142762117Y-94900580D01*
X142678080Y-94984617D01*
X142625885Y-95091385D01*
X142615800Y-95160603D01*
X142615800Y-96226594D01*
X142625885Y-96295815D01*
X142678080Y-96402582D01*
X142678081Y-96402583D01*
X142762117Y-96486619D01*
X142868887Y-96538815D01*
X142938105Y-96548900D01*
X143552802Y-96548899D01*
X143588016Y-96563485D01*
X143736214Y-96711683D01*
X143750800Y-96746897D01*
X143750800Y-99509287D01*
X143736214Y-99544501D01*
X143701000Y-99559087D01*
X143691285Y-99558130D01*
X143610693Y-99542100D01*
X143610691Y-99542100D01*
X143485509Y-99542100D01*
X143485506Y-99542100D01*
X143362740Y-99566519D01*
X143362732Y-99566521D01*
X143362731Y-99566522D01*
X143362727Y-99566523D01*
X143362726Y-99566524D01*
X143247081Y-99614424D01*
X143247079Y-99614426D01*
X143142995Y-99683971D01*
X143142993Y-99683974D01*
X143096253Y-99730714D01*
X143061039Y-99745300D01*
X142348187Y-99745300D01*
X142238241Y-99774760D01*
X142238234Y-99774763D01*
X142139661Y-99831673D01*
X141681821Y-100289514D01*
X141646607Y-100304100D01*
X141580506Y-100304100D01*
X141457740Y-100328519D01*
X141457732Y-100328521D01*
X141457731Y-100328522D01*
X141457727Y-100328523D01*
X141457726Y-100328524D01*
X141342081Y-100376424D01*
X141342079Y-100376426D01*
X141237995Y-100445971D01*
X141237993Y-100445974D01*
X141149474Y-100534493D01*
X141149471Y-100534495D01*
X141079926Y-100638579D01*
X141079924Y-100638581D01*
X141032024Y-100754226D01*
X141032019Y-100754240D01*
X141007600Y-100877006D01*
X141007600Y-101002193D01*
X141032019Y-101124959D01*
X141032021Y-101124965D01*
X141032022Y-101124969D01*
X141032024Y-101124973D01*
X141079924Y-101240618D01*
X141079926Y-101240620D01*
X141149471Y-101344704D01*
X141237995Y-101433228D01*
X141297026Y-101472670D01*
X141342078Y-101502773D01*
X141342079Y-101502773D01*
X141342081Y-101502775D01*
X141394020Y-101524288D01*
X141457731Y-101550678D01*
X141457738Y-101550679D01*
X141457740Y-101550680D01*
X141499751Y-101559036D01*
X141580509Y-101575100D01*
X141580514Y-101575100D01*
X141705686Y-101575100D01*
X141705691Y-101575100D01*
X141828469Y-101550678D01*
X141926209Y-101510193D01*
X141944118Y-101502775D01*
X141944118Y-101502774D01*
X141944122Y-101502773D01*
X142048208Y-101433225D01*
X142136725Y-101344708D01*
X142206273Y-101240622D01*
X142254178Y-101124969D01*
X142278600Y-101002191D01*
X142278600Y-100936093D01*
X142293186Y-100900879D01*
X142569579Y-100624486D01*
X142604793Y-100609900D01*
X143061039Y-100609900D01*
X143096253Y-100624486D01*
X143142995Y-100671228D01*
X143205275Y-100712841D01*
X143247078Y-100740773D01*
X143247079Y-100740773D01*
X143247081Y-100740775D01*
X143287451Y-100757496D01*
X143362731Y-100788678D01*
X143362738Y-100788679D01*
X143362740Y-100788680D01*
X143404751Y-100797036D01*
X143485509Y-100813100D01*
X143485514Y-100813100D01*
X143610686Y-100813100D01*
X143610691Y-100813100D01*
X143679590Y-100799395D01*
X143691285Y-100797069D01*
X143728668Y-100804505D01*
X143749843Y-100836197D01*
X143750800Y-100845912D01*
X143750800Y-101127322D01*
X143747009Y-101146379D01*
X143699024Y-101262226D01*
X143699019Y-101262240D01*
X143674600Y-101385006D01*
X143674600Y-101510193D01*
X143699019Y-101632959D01*
X143699021Y-101632965D01*
X143699022Y-101632969D01*
X143707102Y-101652476D01*
X143747009Y-101748821D01*
X143750800Y-101767878D01*
X143750800Y-105410500D01*
X143736214Y-105445714D01*
X143701000Y-105460300D01*
X142839465Y-105460300D01*
X142697223Y-105498413D01*
X142697215Y-105498417D01*
X142569682Y-105572048D01*
X141830548Y-106311182D01*
X141756918Y-106438714D01*
X141756914Y-106438722D01*
X141718800Y-106580965D01*
X141718800Y-111681234D01*
X141756914Y-111823477D01*
X141756915Y-111823479D01*
X141756916Y-111823482D01*
X141805847Y-111908233D01*
X141830549Y-111951018D01*
X143204681Y-113325151D01*
X143268450Y-113361967D01*
X143332218Y-113398784D01*
X143474467Y-113436900D01*
X144819803Y-113436900D01*
X144855017Y-113451486D01*
X145271214Y-113867683D01*
X145285800Y-113902897D01*
X145285800Y-115726594D01*
X145295885Y-115795815D01*
X145348080Y-115902582D01*
X145348081Y-115902583D01*
X145432117Y-115986619D01*
X145538887Y-116038815D01*
X145608105Y-116048900D01*
X146314094Y-116048899D01*
X146383313Y-116038815D01*
X146490083Y-115986619D01*
X146574119Y-115902583D01*
X146582113Y-115886229D01*
X146610682Y-115861001D01*
X146648724Y-115863361D01*
X146662067Y-115872888D01*
X146737123Y-115947944D01*
X146841088Y-115993849D01*
X146841094Y-115993850D01*
X146866510Y-115996799D01*
X147104500Y-115996799D01*
X147357700Y-115996799D01*
X147595687Y-115996799D01*
X147595696Y-115996798D01*
X147621104Y-115993851D01*
X147725076Y-115947944D01*
X147805444Y-115867576D01*
X147820543Y-115833381D01*
X147848110Y-115807059D01*
X147886215Y-115807939D01*
X147911657Y-115833381D01*
X147926755Y-115867576D01*
X148007123Y-115947944D01*
X148111088Y-115993849D01*
X148111094Y-115993850D01*
X148136510Y-115996799D01*
X148374500Y-115996799D01*
X148374500Y-114680200D01*
X147357700Y-114680200D01*
X147357700Y-115996799D01*
X147104500Y-115996799D01*
X147104500Y-114427000D01*
X147357700Y-114427000D01*
X148374500Y-114427000D01*
X148374500Y-113110400D01*
X148627700Y-113110400D01*
X148627700Y-115996799D01*
X148865687Y-115996799D01*
X148865696Y-115996798D01*
X148891104Y-115993851D01*
X148995076Y-115947944D01*
X149070132Y-115872888D01*
X149105346Y-115858302D01*
X149140560Y-115872888D01*
X149150086Y-115886230D01*
X149158080Y-115902582D01*
X149158081Y-115902583D01*
X149242117Y-115986619D01*
X149348887Y-116038815D01*
X149418105Y-116048900D01*
X150124094Y-116048899D01*
X150193313Y-116038815D01*
X150300083Y-115986619D01*
X150384119Y-115902583D01*
X150392113Y-115886229D01*
X150420682Y-115861001D01*
X150458724Y-115863361D01*
X150472067Y-115872888D01*
X150547123Y-115947944D01*
X150651088Y-115993849D01*
X150651094Y-115993850D01*
X150676510Y-115996799D01*
X150914500Y-115996799D01*
X151167700Y-115996799D01*
X151405687Y-115996799D01*
X151405696Y-115996798D01*
X151431104Y-115993851D01*
X151535076Y-115947944D01*
X151615444Y-115867576D01*
X151661349Y-115763611D01*
X151661350Y-115763605D01*
X151664299Y-115738190D01*
X151664300Y-115738189D01*
X151664300Y-114680200D01*
X151167700Y-114680200D01*
X151167700Y-115996799D01*
X150914500Y-115996799D01*
X150914500Y-114427000D01*
X151167700Y-114427000D01*
X151664299Y-114427000D01*
X151664299Y-113369013D01*
X151664298Y-113369003D01*
X151661351Y-113343595D01*
X151615444Y-113239623D01*
X151535076Y-113159255D01*
X151431111Y-113113350D01*
X151431105Y-113113349D01*
X151405690Y-113110400D01*
X151167700Y-113110400D01*
X151167700Y-114427000D01*
X150914500Y-114427000D01*
X150914500Y-113110400D01*
X150676513Y-113110400D01*
X150676503Y-113110401D01*
X150651095Y-113113348D01*
X150547123Y-113159255D01*
X150472067Y-113234311D01*
X150436853Y-113248897D01*
X150401639Y-113234311D01*
X150392113Y-113220969D01*
X150384119Y-113204617D01*
X150300082Y-113120580D01*
X150193314Y-113068385D01*
X150124096Y-113058300D01*
X149418105Y-113058300D01*
X149348884Y-113068385D01*
X149242117Y-113120580D01*
X149158079Y-113204618D01*
X149150085Y-113220970D01*
X149121515Y-113246199D01*
X149083473Y-113243836D01*
X149070132Y-113234311D01*
X148995076Y-113159255D01*
X148891111Y-113113350D01*
X148891105Y-113113349D01*
X148865690Y-113110400D01*
X148627700Y-113110400D01*
X148374500Y-113110400D01*
X148136513Y-113110400D01*
X148136503Y-113110401D01*
X148111095Y-113113348D01*
X148007123Y-113159255D01*
X147926755Y-113239624D01*
X147926754Y-113239625D01*
X147911655Y-113273819D01*
X147884088Y-113300141D01*
X147845983Y-113299259D01*
X147820542Y-113273818D01*
X147805444Y-113239623D01*
X147725076Y-113159255D01*
X147621111Y-113113350D01*
X147621105Y-113113349D01*
X147595690Y-113110400D01*
X147357700Y-113110400D01*
X147357700Y-114427000D01*
X147104500Y-114427000D01*
X147104500Y-113110400D01*
X146866513Y-113110400D01*
X146866503Y-113110401D01*
X146841095Y-113113348D01*
X146737123Y-113159255D01*
X146662067Y-113234311D01*
X146626853Y-113248897D01*
X146591639Y-113234311D01*
X146582113Y-113220969D01*
X146574119Y-113204617D01*
X146490082Y-113120580D01*
X146383314Y-113068385D01*
X146314096Y-113058300D01*
X146314095Y-113058300D01*
X146064397Y-113058300D01*
X146029183Y-113043714D01*
X145737382Y-112751913D01*
X145722796Y-112716699D01*
X145737382Y-112681485D01*
X145772593Y-112666899D01*
X146787094Y-112666899D01*
X146787095Y-112666899D01*
X146798898Y-112665179D01*
X146856313Y-112656815D01*
X146963083Y-112604619D01*
X147047119Y-112520583D01*
X147088403Y-112436133D01*
X147116972Y-112410903D01*
X147155014Y-112413265D01*
X147178700Y-112437890D01*
X147199755Y-112485576D01*
X147280123Y-112565944D01*
X147384088Y-112611849D01*
X147384094Y-112611850D01*
X147409510Y-112614799D01*
X147827500Y-112614799D01*
X148080700Y-112614799D01*
X148498687Y-112614799D01*
X148498696Y-112614798D01*
X148524104Y-112611851D01*
X148628076Y-112565944D01*
X148708444Y-112485576D01*
X148754349Y-112381611D01*
X148754350Y-112381605D01*
X148757299Y-112356190D01*
X148757300Y-112356189D01*
X148757300Y-111988200D01*
X148080700Y-111988200D01*
X148080700Y-112614799D01*
X147827500Y-112614799D01*
X147827500Y-111911400D01*
X147842086Y-111876186D01*
X147877300Y-111861600D01*
X147954100Y-111861600D01*
X147954100Y-111784800D01*
X147968686Y-111749586D01*
X148003900Y-111735000D01*
X148757299Y-111735000D01*
X148757299Y-111367013D01*
X148757298Y-111367003D01*
X148754351Y-111341595D01*
X148708444Y-111237623D01*
X148628076Y-111157255D01*
X148524111Y-111111350D01*
X148524106Y-111111349D01*
X148502028Y-111108787D01*
X148468730Y-111090239D01*
X148458301Y-111053578D01*
X148476849Y-111020280D01*
X148500589Y-111010040D01*
X148508313Y-111008915D01*
X148615083Y-110956719D01*
X148699119Y-110872683D01*
X148751315Y-110765913D01*
X148761400Y-110696695D01*
X148761399Y-109530706D01*
X148761089Y-109528581D01*
X148759325Y-109516474D01*
X148751315Y-109461487D01*
X148749354Y-109457476D01*
X148699119Y-109354717D01*
X148615082Y-109270680D01*
X148508314Y-109218485D01*
X148439096Y-109208400D01*
X147923105Y-109208400D01*
X147853884Y-109218485D01*
X147747117Y-109270680D01*
X147663080Y-109354717D01*
X147610885Y-109461485D01*
X147600800Y-109530703D01*
X147600800Y-110696694D01*
X147610885Y-110765915D01*
X147663080Y-110872682D01*
X147663081Y-110872683D01*
X147747117Y-110956719D01*
X147853887Y-111008915D01*
X147856669Y-111009320D01*
X147889414Y-111028828D01*
X147898773Y-111065776D01*
X147879265Y-111098521D01*
X147849493Y-111108400D01*
X147409513Y-111108400D01*
X147409503Y-111108401D01*
X147384095Y-111111348D01*
X147280123Y-111157255D01*
X147199756Y-111237622D01*
X147178700Y-111285310D01*
X147151133Y-111311631D01*
X147113027Y-111310751D01*
X147088403Y-111287066D01*
X147047119Y-111202617D01*
X146963082Y-111118580D01*
X146868328Y-111072258D01*
X146843098Y-111043688D01*
X146840400Y-111027518D01*
X146840400Y-110799760D01*
X146845459Y-110777891D01*
X146851315Y-110765913D01*
X146861400Y-110696695D01*
X146861399Y-109530706D01*
X146861089Y-109528581D01*
X146859325Y-109516474D01*
X146851315Y-109461487D01*
X146849354Y-109457476D01*
X146799119Y-109354717D01*
X146715082Y-109270680D01*
X146608314Y-109218485D01*
X146539096Y-109208400D01*
X146023105Y-109208400D01*
X145953884Y-109218485D01*
X145847117Y-109270680D01*
X145763080Y-109354717D01*
X145710885Y-109461485D01*
X145700800Y-109530703D01*
X145700800Y-110696694D01*
X145710885Y-110765915D01*
X145716739Y-110777888D01*
X145721800Y-110799761D01*
X145721800Y-111013129D01*
X145707214Y-111048343D01*
X145679180Y-111062408D01*
X145673546Y-111063229D01*
X145651884Y-111066385D01*
X145545117Y-111118580D01*
X145461079Y-111202618D01*
X145426003Y-111274371D01*
X145397434Y-111299602D01*
X145381263Y-111302300D01*
X144181397Y-111302300D01*
X144146183Y-111287714D01*
X143842586Y-110984117D01*
X143828000Y-110948903D01*
X143828000Y-110208196D01*
X143937901Y-110208196D01*
X143940848Y-110233604D01*
X143986755Y-110337576D01*
X144067123Y-110417944D01*
X144171088Y-110463849D01*
X144171094Y-110463850D01*
X144196510Y-110466799D01*
X144564500Y-110466799D01*
X144817700Y-110466799D01*
X145185687Y-110466799D01*
X145185696Y-110466798D01*
X145211104Y-110463851D01*
X145315076Y-110417944D01*
X145395444Y-110337576D01*
X145441349Y-110233611D01*
X145441350Y-110233605D01*
X145444299Y-110208190D01*
X145444300Y-110208189D01*
X145444300Y-109790200D01*
X144817700Y-109790200D01*
X144817700Y-110466799D01*
X144564500Y-110466799D01*
X144564500Y-109790200D01*
X143937901Y-109790200D01*
X143937901Y-110208196D01*
X143828000Y-110208196D01*
X143828000Y-108642209D01*
X143842586Y-108606995D01*
X143877800Y-108592409D01*
X143913014Y-108606995D01*
X143922540Y-108620337D01*
X143948080Y-108672582D01*
X143948081Y-108672583D01*
X144032117Y-108756619D01*
X144066261Y-108773311D01*
X144116566Y-108797903D01*
X144141796Y-108826473D01*
X144139434Y-108864515D01*
X144114810Y-108888200D01*
X144067122Y-108909256D01*
X143986755Y-108989623D01*
X143940850Y-109093588D01*
X143940849Y-109093594D01*
X143937900Y-109119009D01*
X143937900Y-109537000D01*
X145444299Y-109537000D01*
X145444299Y-109119013D01*
X145444298Y-109119003D01*
X145441351Y-109093595D01*
X145395444Y-108989623D01*
X145315076Y-108909255D01*
X145267390Y-108888200D01*
X145241068Y-108860633D01*
X145241948Y-108822528D01*
X145265634Y-108797903D01*
X145315939Y-108773311D01*
X145350083Y-108756619D01*
X145434119Y-108672583D01*
X145486315Y-108565813D01*
X145496400Y-108496595D01*
X145496399Y-107430606D01*
X145486315Y-107361387D01*
X145434119Y-107254617D01*
X145350083Y-107170581D01*
X145350082Y-107170580D01*
X145278328Y-107135502D01*
X145272758Y-107129195D01*
X145264986Y-107125976D01*
X145260631Y-107115462D01*
X145253098Y-107106932D01*
X145250400Y-107090762D01*
X145250400Y-107009700D01*
X145264986Y-106974486D01*
X145300200Y-106959900D01*
X145651000Y-106959900D01*
X145686214Y-106974486D01*
X145700800Y-107009700D01*
X145700800Y-108096494D01*
X145710885Y-108165715D01*
X145763080Y-108272482D01*
X145763081Y-108272483D01*
X145847117Y-108356519D01*
X145953887Y-108408715D01*
X146023105Y-108418800D01*
X146539094Y-108418799D01*
X146608313Y-108408715D01*
X146715083Y-108356519D01*
X146757727Y-108313874D01*
X146792939Y-108299289D01*
X146828154Y-108313875D01*
X146832123Y-108317844D01*
X146936088Y-108363749D01*
X146936094Y-108363750D01*
X146961510Y-108366699D01*
X147104500Y-108366699D01*
X147104500Y-106660300D01*
X146961513Y-106660300D01*
X146961503Y-106660301D01*
X146936093Y-106663248D01*
X146907597Y-106675830D01*
X146869492Y-106676710D01*
X146841926Y-106650387D01*
X146839380Y-106643162D01*
X146839299Y-106642861D01*
X146802284Y-106504718D01*
X146764179Y-106438718D01*
X146728651Y-106377181D01*
X146304518Y-105953049D01*
X146304517Y-105953048D01*
X146265841Y-105930719D01*
X146247213Y-105919964D01*
X146176982Y-105879416D01*
X146176979Y-105879415D01*
X146176977Y-105879414D01*
X146034734Y-105841300D01*
X146034733Y-105841300D01*
X144919200Y-105841300D01*
X144883986Y-105826714D01*
X144869400Y-105791500D01*
X144869400Y-104850700D01*
X144883986Y-104815486D01*
X144919200Y-104800900D01*
X147384000Y-104800900D01*
X147419214Y-104815486D01*
X147433800Y-104850700D01*
X147433800Y-105331234D01*
X147471914Y-105473477D01*
X147471915Y-105473479D01*
X147471916Y-105473482D01*
X147489469Y-105503884D01*
X147520198Y-105557108D01*
X147545548Y-105601017D01*
X147607214Y-105662683D01*
X147621800Y-105697897D01*
X147621800Y-106629073D01*
X147607214Y-106664287D01*
X147572000Y-106678873D01*
X147551886Y-106674630D01*
X147526109Y-106663249D01*
X147526105Y-106663248D01*
X147500692Y-106660300D01*
X147357700Y-106660300D01*
X147357700Y-108366699D01*
X147500687Y-108366699D01*
X147500696Y-108366698D01*
X147526104Y-108363751D01*
X147630077Y-108317843D01*
X147634043Y-108313878D01*
X147669256Y-108299289D01*
X147704470Y-108313873D01*
X147704473Y-108313875D01*
X147747117Y-108356519D01*
X147853887Y-108408715D01*
X147923105Y-108418800D01*
X148439094Y-108418799D01*
X148508313Y-108408715D01*
X148615083Y-108356519D01*
X148699119Y-108272483D01*
X148751315Y-108165713D01*
X148761400Y-108096495D01*
X148761399Y-106930506D01*
X148751315Y-106861287D01*
X148745459Y-106849309D01*
X148740400Y-106827438D01*
X148740400Y-106642861D01*
X148754986Y-106607647D01*
X148790200Y-106593061D01*
X148825414Y-106607647D01*
X148857995Y-106640228D01*
X148915833Y-106678873D01*
X148962078Y-106709773D01*
X148962079Y-106709773D01*
X148962081Y-106709775D01*
X148994590Y-106723240D01*
X149077731Y-106757678D01*
X149077738Y-106757679D01*
X149077740Y-106757680D01*
X149119751Y-106766036D01*
X149200509Y-106782100D01*
X149266607Y-106782100D01*
X149301821Y-106796686D01*
X151616286Y-109111151D01*
X151714863Y-109168064D01*
X151824811Y-109197525D01*
X151824812Y-109197525D01*
X151959007Y-109197525D01*
X151985579Y-109208531D01*
X151994220Y-109212110D01*
X152016613Y-109234502D01*
X152031200Y-109269716D01*
X152031200Y-109335818D01*
X152055619Y-109458584D01*
X152055621Y-109458590D01*
X152055622Y-109458594D01*
X152060823Y-109471150D01*
X152103524Y-109574243D01*
X152103526Y-109574245D01*
X152173071Y-109678329D01*
X152261595Y-109766853D01*
X152323875Y-109808466D01*
X152365678Y-109836398D01*
X152365679Y-109836398D01*
X152365681Y-109836400D01*
X152417620Y-109857913D01*
X152481331Y-109884303D01*
X152481338Y-109884304D01*
X152481340Y-109884305D01*
X152520962Y-109892186D01*
X152604109Y-109908725D01*
X152604114Y-109908725D01*
X152729286Y-109908725D01*
X152729291Y-109908725D01*
X152852069Y-109884303D01*
X152944185Y-109846147D01*
X152967718Y-109836400D01*
X152967718Y-109836399D01*
X152967722Y-109836398D01*
X153051327Y-109780534D01*
X153071804Y-109766853D01*
X153071807Y-109766851D01*
X153160326Y-109678332D01*
X153160328Y-109678329D01*
X153183111Y-109644231D01*
X153229873Y-109574247D01*
X153272577Y-109471149D01*
X153299528Y-109444198D01*
X153337641Y-109444197D01*
X153364915Y-109455494D01*
X153364922Y-109455495D01*
X153364924Y-109455496D01*
X153395029Y-109461484D01*
X153487693Y-109479916D01*
X153487698Y-109479916D01*
X153612870Y-109479916D01*
X153612875Y-109479916D01*
X153735653Y-109455494D01*
X153841944Y-109411467D01*
X153880058Y-109411467D01*
X153907009Y-109438418D01*
X153910800Y-109457476D01*
X153910800Y-117904234D01*
X153948914Y-118046477D01*
X153948915Y-118046479D01*
X153948916Y-118046482D01*
X154010548Y-118153231D01*
X154022549Y-118174018D01*
X154022552Y-118174021D01*
X155547214Y-119698683D01*
X155561800Y-119733897D01*
X155561800Y-121134303D01*
X155547214Y-121169517D01*
X154657548Y-122059182D01*
X154583918Y-122186714D01*
X154583914Y-122186722D01*
X154545800Y-122328965D01*
X154545800Y-127162322D01*
X154542009Y-127181379D01*
X154494024Y-127297226D01*
X154494019Y-127297240D01*
X154469600Y-127420006D01*
X154469600Y-127545193D01*
X154494019Y-127667959D01*
X154494021Y-127667965D01*
X154494022Y-127667969D01*
X154494024Y-127667973D01*
X154541924Y-127783618D01*
X154541926Y-127783620D01*
X154611471Y-127887704D01*
X154699995Y-127976228D01*
X154762275Y-128017841D01*
X154804078Y-128045773D01*
X154804079Y-128045773D01*
X154804081Y-128045775D01*
X154856020Y-128067288D01*
X154919731Y-128093678D01*
X154919738Y-128093679D01*
X154919740Y-128093680D01*
X154961751Y-128102036D01*
X155042509Y-128118100D01*
X155042514Y-128118100D01*
X155167686Y-128118100D01*
X155167691Y-128118100D01*
X155290469Y-128093678D01*
X155382585Y-128055522D01*
X155406118Y-128045775D01*
X155406118Y-128045774D01*
X155406122Y-128045773D01*
X155510208Y-127976225D01*
X155598725Y-127887708D01*
X155668273Y-127783622D01*
X155686772Y-127738961D01*
X156759600Y-127738961D01*
X156759600Y-127988238D01*
X156792134Y-128235357D01*
X156792136Y-128235364D01*
X156856646Y-128476121D01*
X156856650Y-128476132D01*
X156952035Y-128706412D01*
X156952039Y-128706419D01*
X157076666Y-128922282D01*
X157228402Y-129120028D01*
X157228408Y-129120035D01*
X157404664Y-129296291D01*
X157404671Y-129296297D01*
X157602417Y-129448033D01*
X157684369Y-129495347D01*
X157818284Y-129572663D01*
X158048571Y-129668051D01*
X158289340Y-129732565D01*
X158536469Y-129765100D01*
X158536473Y-129765100D01*
X158785727Y-129765100D01*
X158785731Y-129765100D01*
X159032860Y-129732565D01*
X159273629Y-129668051D01*
X159503916Y-129572663D01*
X159719784Y-129448032D01*
X159917536Y-129296291D01*
X160093791Y-129120036D01*
X160245532Y-128922284D01*
X160370163Y-128706416D01*
X160465551Y-128476129D01*
X160530065Y-128235360D01*
X160562600Y-127988231D01*
X160562600Y-127738969D01*
X160530065Y-127491840D01*
X160465551Y-127251071D01*
X160370163Y-127020784D01*
X160245532Y-126804916D01*
X160093797Y-126607171D01*
X160093791Y-126607164D01*
X159917535Y-126430908D01*
X159917528Y-126430902D01*
X159719782Y-126279166D01*
X159503919Y-126154539D01*
X159503916Y-126154537D01*
X159503914Y-126154536D01*
X159503912Y-126154535D01*
X159273632Y-126059150D01*
X159273621Y-126059146D01*
X159032864Y-125994636D01*
X159032857Y-125994634D01*
X158785738Y-125962100D01*
X158785731Y-125962100D01*
X158536469Y-125962100D01*
X158536461Y-125962100D01*
X158289342Y-125994634D01*
X158289335Y-125994636D01*
X158048578Y-126059146D01*
X158048567Y-126059150D01*
X157818287Y-126154535D01*
X157818280Y-126154539D01*
X157602417Y-126279166D01*
X157404671Y-126430902D01*
X157404664Y-126430908D01*
X157228408Y-126607164D01*
X157228402Y-126607171D01*
X157076666Y-126804917D01*
X156952039Y-127020780D01*
X156952035Y-127020787D01*
X156856650Y-127251067D01*
X156856646Y-127251078D01*
X156792136Y-127491835D01*
X156792134Y-127491842D01*
X156759600Y-127738961D01*
X155686772Y-127738961D01*
X155716178Y-127667969D01*
X155740600Y-127545191D01*
X155740600Y-127420009D01*
X155716178Y-127297231D01*
X155668273Y-127181578D01*
X155668191Y-127181379D01*
X155664400Y-127162322D01*
X155664400Y-125278375D01*
X159125800Y-125278375D01*
X159125800Y-125368824D01*
X159141021Y-125503925D01*
X159141023Y-125503934D01*
X159200955Y-125675214D01*
X159200956Y-125675216D01*
X159297505Y-125828871D01*
X159297507Y-125828874D01*
X159425826Y-125957193D01*
X159485413Y-125994634D01*
X159579483Y-126053743D01*
X159579485Y-126053744D01*
X159715040Y-126101175D01*
X159750770Y-126113678D01*
X159885871Y-126128900D01*
X159976328Y-126128899D01*
X160111430Y-126113678D01*
X160197074Y-126083710D01*
X160282714Y-126053744D01*
X160282716Y-126053743D01*
X160282718Y-126053742D01*
X160436374Y-125957193D01*
X160564693Y-125828874D01*
X160661242Y-125675218D01*
X160661243Y-125675216D01*
X160661244Y-125675214D01*
X160691210Y-125589574D01*
X160721178Y-125503930D01*
X160736400Y-125368829D01*
X160736399Y-125278372D01*
X160721178Y-125143270D01*
X160708675Y-125107540D01*
X160661244Y-124971985D01*
X160661243Y-124971983D01*
X160564694Y-124818328D01*
X160564693Y-124818326D01*
X160436374Y-124690007D01*
X160436371Y-124690005D01*
X160282716Y-124593456D01*
X160282714Y-124593455D01*
X160111434Y-124533523D01*
X160111426Y-124533521D01*
X160044727Y-124526006D01*
X159976329Y-124518300D01*
X159976324Y-124518300D01*
X159885875Y-124518300D01*
X159750774Y-124533521D01*
X159750765Y-124533523D01*
X159579485Y-124593455D01*
X159579483Y-124593456D01*
X159425828Y-124690005D01*
X159297505Y-124818328D01*
X159200956Y-124971983D01*
X159200955Y-124971985D01*
X159141023Y-125143265D01*
X159141021Y-125143273D01*
X159125800Y-125278375D01*
X155664400Y-125278375D01*
X155664400Y-122654897D01*
X155678986Y-122619683D01*
X156111955Y-122186714D01*
X156568651Y-121730018D01*
X156597263Y-121680461D01*
X156642284Y-121602482D01*
X156680400Y-121460233D01*
X156680400Y-120090700D01*
X156694986Y-120055486D01*
X156730200Y-120040900D01*
X157718733Y-120040900D01*
X157860982Y-120002784D01*
X157988518Y-119929151D01*
X158092651Y-119825018D01*
X158727651Y-119190018D01*
X158801285Y-119062481D01*
X158839400Y-118920233D01*
X158839400Y-118772967D01*
X158839400Y-118472563D01*
X158853986Y-118437349D01*
X158889200Y-118422763D01*
X158924414Y-118437349D01*
X158929487Y-118443289D01*
X158981391Y-118514728D01*
X159119972Y-118653309D01*
X159278525Y-118768505D01*
X159278527Y-118768506D01*
X159278528Y-118768507D01*
X159453146Y-118857478D01*
X159453148Y-118857479D01*
X159639538Y-118918041D01*
X159639543Y-118918041D01*
X159639544Y-118918042D01*
X159679768Y-118924413D01*
X159712266Y-118944328D01*
X159721164Y-118981391D01*
X159701249Y-119013889D01*
X159679768Y-119022787D01*
X159639544Y-119029157D01*
X159639539Y-119029158D01*
X159639538Y-119029159D01*
X159577408Y-119049346D01*
X159453146Y-119089721D01*
X159278528Y-119178692D01*
X159278527Y-119178693D01*
X159119976Y-119293887D01*
X158981387Y-119432476D01*
X158866193Y-119591027D01*
X158866192Y-119591028D01*
X158777221Y-119765646D01*
X158757946Y-119824969D01*
X158724096Y-119929151D01*
X158716659Y-119952039D01*
X158716657Y-119952046D01*
X158686000Y-120145609D01*
X158686000Y-120341590D01*
X158716657Y-120535153D01*
X158716658Y-120535157D01*
X158716659Y-120535162D01*
X158734323Y-120589526D01*
X158777221Y-120721553D01*
X158866192Y-120896171D01*
X158866193Y-120896172D01*
X158975897Y-121047167D01*
X158981391Y-121054728D01*
X159119972Y-121193309D01*
X159278525Y-121308505D01*
X159278527Y-121308506D01*
X159278528Y-121308507D01*
X159317257Y-121328240D01*
X159453148Y-121397479D01*
X159639538Y-121458041D01*
X159639543Y-121458041D01*
X159639544Y-121458042D01*
X159679768Y-121464413D01*
X159712266Y-121484328D01*
X159721164Y-121521391D01*
X159701249Y-121553889D01*
X159679768Y-121562787D01*
X159639544Y-121569157D01*
X159639539Y-121569158D01*
X159639538Y-121569159D01*
X159617896Y-121576191D01*
X159453146Y-121629721D01*
X159278528Y-121718692D01*
X159278527Y-121718693D01*
X159119976Y-121833887D01*
X158981387Y-121972476D01*
X158866193Y-122131027D01*
X158866192Y-122131028D01*
X158777221Y-122305646D01*
X158716659Y-122492039D01*
X158716657Y-122492046D01*
X158686000Y-122685609D01*
X158686000Y-122881590D01*
X158716657Y-123075153D01*
X158716658Y-123075157D01*
X158716659Y-123075162D01*
X158757033Y-123199422D01*
X158777221Y-123261553D01*
X158866192Y-123436171D01*
X158866193Y-123436172D01*
X158866195Y-123436175D01*
X158981391Y-123594728D01*
X159119972Y-123733309D01*
X159278525Y-123848505D01*
X159278527Y-123848506D01*
X159278528Y-123848507D01*
X159453146Y-123937478D01*
X159453148Y-123937479D01*
X159639538Y-123998041D01*
X159833109Y-124028700D01*
X160029091Y-124028700D01*
X160222662Y-123998041D01*
X160409052Y-123937479D01*
X160583675Y-123848505D01*
X160742228Y-123733309D01*
X160880809Y-123594728D01*
X160983511Y-123453370D01*
X161016010Y-123433456D01*
X161053072Y-123442354D01*
X161072987Y-123474853D01*
X161073600Y-123482643D01*
X161073600Y-130226300D01*
X161059014Y-130261514D01*
X161023800Y-130276100D01*
X135978400Y-130276100D01*
X135943186Y-130261514D01*
X135928600Y-130226300D01*
X135928600Y-127738961D01*
X136439600Y-127738961D01*
X136439600Y-127988238D01*
X136472134Y-128235357D01*
X136472136Y-128235364D01*
X136536646Y-128476121D01*
X136536650Y-128476132D01*
X136632035Y-128706412D01*
X136632039Y-128706419D01*
X136756666Y-128922282D01*
X136908402Y-129120028D01*
X136908408Y-129120035D01*
X137084664Y-129296291D01*
X137084671Y-129296297D01*
X137282417Y-129448033D01*
X137364369Y-129495347D01*
X137498284Y-129572663D01*
X137728571Y-129668051D01*
X137969340Y-129732565D01*
X138216469Y-129765100D01*
X138216473Y-129765100D01*
X138465727Y-129765100D01*
X138465731Y-129765100D01*
X138712860Y-129732565D01*
X138953629Y-129668051D01*
X139183916Y-129572663D01*
X139399784Y-129448032D01*
X139597536Y-129296291D01*
X139773791Y-129120036D01*
X139925532Y-128922284D01*
X140050163Y-128706416D01*
X140145551Y-128476129D01*
X140210065Y-128235360D01*
X140242600Y-127988231D01*
X140242600Y-127738969D01*
X140210065Y-127491840D01*
X140145551Y-127251071D01*
X140050163Y-127020784D01*
X139925532Y-126804916D01*
X139773797Y-126607171D01*
X139773791Y-126607164D01*
X139597535Y-126430908D01*
X139597528Y-126430902D01*
X139399782Y-126279166D01*
X139183919Y-126154539D01*
X139183916Y-126154537D01*
X139183914Y-126154536D01*
X139183912Y-126154535D01*
X138953632Y-126059150D01*
X138953621Y-126059146D01*
X138712864Y-125994636D01*
X138712857Y-125994634D01*
X138465738Y-125962100D01*
X138465731Y-125962100D01*
X138216469Y-125962100D01*
X138216461Y-125962100D01*
X137969342Y-125994634D01*
X137969335Y-125994636D01*
X137728578Y-126059146D01*
X137728567Y-126059150D01*
X137498287Y-126154535D01*
X137498280Y-126154539D01*
X137282417Y-126279166D01*
X137084671Y-126430902D01*
X137084664Y-126430908D01*
X136908408Y-126607164D01*
X136908402Y-126607171D01*
X136756666Y-126804917D01*
X136632039Y-127020780D01*
X136632035Y-127020787D01*
X136536650Y-127251067D01*
X136536646Y-127251078D01*
X136472136Y-127491835D01*
X136472134Y-127491842D01*
X136439600Y-127738961D01*
X135928600Y-127738961D01*
X135928600Y-123482643D01*
X135943186Y-123447429D01*
X135978400Y-123432843D01*
X136013614Y-123447429D01*
X136018686Y-123453368D01*
X136121391Y-123594728D01*
X136259972Y-123733309D01*
X136418525Y-123848505D01*
X136418527Y-123848506D01*
X136418528Y-123848507D01*
X136593146Y-123937478D01*
X136593148Y-123937479D01*
X136779538Y-123998041D01*
X136973109Y-124028700D01*
X137169091Y-124028700D01*
X137362662Y-123998041D01*
X137549052Y-123937479D01*
X137723675Y-123848505D01*
X137882228Y-123733309D01*
X138020809Y-123594728D01*
X138136005Y-123436175D01*
X138224979Y-123261552D01*
X138285541Y-123075162D01*
X138316200Y-122881591D01*
X138316200Y-122685609D01*
X138285541Y-122492038D01*
X138224979Y-122305648D01*
X138145214Y-122149099D01*
X138136007Y-122131028D01*
X138136006Y-122131027D01*
X138131393Y-122124678D01*
X138020809Y-121972472D01*
X137882228Y-121833891D01*
X137882224Y-121833888D01*
X137882223Y-121833887D01*
X137723672Y-121718693D01*
X137723671Y-121718692D01*
X137549053Y-121629721D01*
X137486922Y-121609533D01*
X137362662Y-121569159D01*
X137362657Y-121569158D01*
X137362653Y-121569157D01*
X137322432Y-121562787D01*
X137289933Y-121542872D01*
X137281035Y-121505810D01*
X137300950Y-121473311D01*
X137322432Y-121464413D01*
X137331164Y-121463029D01*
X137362662Y-121458041D01*
X137549052Y-121397479D01*
X137723675Y-121308505D01*
X137882228Y-121193309D01*
X138020809Y-121054728D01*
X138136005Y-120896175D01*
X138224979Y-120721552D01*
X138285541Y-120535162D01*
X138316200Y-120341591D01*
X138316200Y-120145609D01*
X138285541Y-119952038D01*
X138224979Y-119765648D01*
X138179208Y-119675816D01*
X138136007Y-119591028D01*
X138136006Y-119591027D01*
X138127827Y-119579770D01*
X138020809Y-119432472D01*
X137882228Y-119293891D01*
X137882224Y-119293888D01*
X137882223Y-119293887D01*
X137723672Y-119178693D01*
X137723671Y-119178692D01*
X137549053Y-119089721D01*
X137465216Y-119062481D01*
X137362662Y-119029159D01*
X137362657Y-119029158D01*
X137362653Y-119029157D01*
X137322432Y-119022787D01*
X137289933Y-119002872D01*
X137281035Y-118965810D01*
X137300950Y-118933311D01*
X137322432Y-118924413D01*
X137335772Y-118922300D01*
X137362662Y-118918041D01*
X137549052Y-118857479D01*
X137723675Y-118768505D01*
X137882228Y-118653309D01*
X138020809Y-118514728D01*
X138136005Y-118356175D01*
X138224979Y-118181552D01*
X138285541Y-117995162D01*
X138316200Y-117801591D01*
X138316200Y-117605609D01*
X138285541Y-117412038D01*
X138224979Y-117225648D01*
X138213600Y-117203315D01*
X138136007Y-117051028D01*
X138136007Y-117051027D01*
X138127828Y-117039770D01*
X138103297Y-117006006D01*
X143166600Y-117006006D01*
X143166600Y-117131193D01*
X143191019Y-117253959D01*
X143191021Y-117253965D01*
X143191022Y-117253969D01*
X143191024Y-117253973D01*
X143238924Y-117369618D01*
X143238926Y-117369620D01*
X143308471Y-117473704D01*
X143396995Y-117562228D01*
X143451925Y-117598930D01*
X143501078Y-117631773D01*
X143563408Y-117657591D01*
X143590359Y-117684542D01*
X143590359Y-117722658D01*
X143563408Y-117749609D01*
X143501078Y-117775426D01*
X143396995Y-117844971D01*
X143396993Y-117844974D01*
X143308474Y-117933493D01*
X143308471Y-117933495D01*
X143238926Y-118037579D01*
X143238924Y-118037581D01*
X143191024Y-118153226D01*
X143191019Y-118153240D01*
X143166600Y-118276006D01*
X143166600Y-118401193D01*
X143191019Y-118523959D01*
X143191021Y-118523965D01*
X143191022Y-118523969D01*
X143191024Y-118523973D01*
X143238924Y-118639618D01*
X143238926Y-118639620D01*
X143308471Y-118743704D01*
X143396995Y-118832228D01*
X143434787Y-118857479D01*
X143501078Y-118901773D01*
X143501079Y-118901773D01*
X143501081Y-118901775D01*
X143545644Y-118920233D01*
X143616731Y-118949678D01*
X143616738Y-118949679D01*
X143616740Y-118949680D01*
X143658751Y-118958036D01*
X143739509Y-118974100D01*
X143778713Y-118974100D01*
X143813927Y-118988686D01*
X145414767Y-120589526D01*
X145513344Y-120646439D01*
X145623292Y-120675900D01*
X146907014Y-120675900D01*
X147016962Y-120646439D01*
X147115539Y-120589526D01*
X147577026Y-120128039D01*
X147609882Y-120071128D01*
X147609883Y-120071127D01*
X147627335Y-120040899D01*
X147633939Y-120029461D01*
X147663400Y-119919513D01*
X147663400Y-119824969D01*
X147677986Y-119789755D01*
X147691325Y-119780231D01*
X147760083Y-119746619D01*
X147830886Y-119675816D01*
X147866100Y-119661230D01*
X147901314Y-119675816D01*
X147972117Y-119746619D01*
X148078887Y-119798815D01*
X148148105Y-119808900D01*
X148854094Y-119808899D01*
X148923313Y-119798815D01*
X149030083Y-119746619D01*
X149100886Y-119675816D01*
X149136100Y-119661230D01*
X149171314Y-119675816D01*
X149242117Y-119746619D01*
X149348887Y-119798815D01*
X149418105Y-119808900D01*
X150124094Y-119808899D01*
X150193313Y-119798815D01*
X150300083Y-119746619D01*
X150370886Y-119675816D01*
X150406100Y-119661230D01*
X150441314Y-119675816D01*
X150512118Y-119746620D01*
X150534684Y-119757651D01*
X150580872Y-119780230D01*
X150606101Y-119808798D01*
X150608800Y-119824969D01*
X150608800Y-121026539D01*
X150594214Y-121061753D01*
X150547474Y-121108493D01*
X150547471Y-121108495D01*
X150477926Y-121212579D01*
X150477924Y-121212581D01*
X150430024Y-121328226D01*
X150430019Y-121328240D01*
X150405600Y-121451006D01*
X150405600Y-121576193D01*
X150430019Y-121698959D01*
X150430021Y-121698965D01*
X150430022Y-121698969D01*
X150430024Y-121698973D01*
X150477924Y-121814618D01*
X150477926Y-121814620D01*
X150547471Y-121918704D01*
X150635995Y-122007228D01*
X150698275Y-122048841D01*
X150740078Y-122076773D01*
X150740079Y-122076773D01*
X150740081Y-122076775D01*
X150792020Y-122098288D01*
X150855731Y-122124678D01*
X150855738Y-122124679D01*
X150855740Y-122124680D01*
X150897751Y-122133036D01*
X150978509Y-122149100D01*
X150978514Y-122149100D01*
X151103686Y-122149100D01*
X151103691Y-122149100D01*
X151226469Y-122124678D01*
X151323332Y-122084556D01*
X151342118Y-122076775D01*
X151342118Y-122076774D01*
X151342122Y-122076773D01*
X151446208Y-122007225D01*
X151534725Y-121918708D01*
X151604273Y-121814622D01*
X151652178Y-121698969D01*
X151676600Y-121576191D01*
X151676600Y-121451009D01*
X151652178Y-121328231D01*
X151625788Y-121264520D01*
X151604275Y-121212581D01*
X151604273Y-121212579D01*
X151604273Y-121212578D01*
X151565755Y-121154931D01*
X151534728Y-121108495D01*
X151487986Y-121061753D01*
X151473400Y-121026539D01*
X151473400Y-119824969D01*
X151487986Y-119789755D01*
X151501325Y-119780231D01*
X151570083Y-119746619D01*
X151654119Y-119662583D01*
X151706315Y-119555813D01*
X151716400Y-119486595D01*
X151716399Y-117140606D01*
X151706315Y-117071387D01*
X151697989Y-117054356D01*
X151654119Y-116964617D01*
X151570082Y-116880580D01*
X151463314Y-116828385D01*
X151394096Y-116818300D01*
X150688105Y-116818300D01*
X150618884Y-116828385D01*
X150512117Y-116880580D01*
X150441314Y-116951384D01*
X150406100Y-116965970D01*
X150370886Y-116951384D01*
X150300082Y-116880580D01*
X150193314Y-116828385D01*
X150124096Y-116818300D01*
X149418105Y-116818300D01*
X149348884Y-116828385D01*
X149242117Y-116880580D01*
X149171314Y-116951384D01*
X149136100Y-116965970D01*
X149100886Y-116951384D01*
X149030082Y-116880580D01*
X148923314Y-116828385D01*
X148854096Y-116818300D01*
X148148105Y-116818300D01*
X148078884Y-116828385D01*
X147972117Y-116880580D01*
X147901314Y-116951384D01*
X147866100Y-116965970D01*
X147830886Y-116951384D01*
X147760082Y-116880580D01*
X147653314Y-116828385D01*
X147584096Y-116818300D01*
X146878105Y-116818300D01*
X146808884Y-116828385D01*
X146702117Y-116880580D01*
X146631314Y-116951384D01*
X146596100Y-116965970D01*
X146560886Y-116951384D01*
X146490082Y-116880580D01*
X146383314Y-116828385D01*
X146314096Y-116818300D01*
X145608105Y-116818300D01*
X145538884Y-116828385D01*
X145432117Y-116880580D01*
X145348080Y-116964617D01*
X145295885Y-117071385D01*
X145285800Y-117140603D01*
X145285800Y-117820707D01*
X145271214Y-117855921D01*
X145236000Y-117870507D01*
X145200786Y-117855921D01*
X144452186Y-117107321D01*
X144437600Y-117072107D01*
X144437600Y-117006013D01*
X144437600Y-117006009D01*
X144413178Y-116883231D01*
X144386283Y-116818300D01*
X144365275Y-116767581D01*
X144365273Y-116767579D01*
X144365273Y-116767578D01*
X144335168Y-116722522D01*
X144295728Y-116663495D01*
X144207204Y-116574971D01*
X144124163Y-116519486D01*
X144103122Y-116505427D01*
X144103120Y-116505426D01*
X144103118Y-116505424D01*
X144000385Y-116462872D01*
X143987469Y-116457522D01*
X143987465Y-116457521D01*
X143987459Y-116457519D01*
X143864693Y-116433100D01*
X143864691Y-116433100D01*
X143739509Y-116433100D01*
X143739506Y-116433100D01*
X143616740Y-116457519D01*
X143616732Y-116457521D01*
X143616731Y-116457522D01*
X143616727Y-116457523D01*
X143616726Y-116457524D01*
X143501081Y-116505424D01*
X143501079Y-116505426D01*
X143396995Y-116574971D01*
X143396993Y-116574974D01*
X143308474Y-116663493D01*
X143308471Y-116663495D01*
X143238926Y-116767579D01*
X143238924Y-116767581D01*
X143191024Y-116883226D01*
X143191019Y-116883240D01*
X143166600Y-117006006D01*
X138103297Y-117006006D01*
X138020809Y-116892472D01*
X137882228Y-116753891D01*
X137882224Y-116753888D01*
X137882223Y-116753887D01*
X137723672Y-116638693D01*
X137723671Y-116638692D01*
X137549053Y-116549721D01*
X137486922Y-116529533D01*
X137362662Y-116489159D01*
X137362657Y-116489158D01*
X137362653Y-116489157D01*
X137169091Y-116458500D01*
X136973109Y-116458500D01*
X136779546Y-116489157D01*
X136779540Y-116489158D01*
X136779538Y-116489159D01*
X136717408Y-116509346D01*
X136593146Y-116549721D01*
X136418528Y-116638692D01*
X136418527Y-116638693D01*
X136259976Y-116753887D01*
X136121387Y-116892476D01*
X136018689Y-117033828D01*
X135986190Y-117053743D01*
X135949128Y-117044845D01*
X135929213Y-117012346D01*
X135928600Y-117004556D01*
X135928600Y-115756556D01*
X135943186Y-115721342D01*
X135978400Y-115706756D01*
X136013614Y-115721342D01*
X136022772Y-115733948D01*
X136050752Y-115788864D01*
X136050753Y-115788865D01*
X136161127Y-115940782D01*
X136293917Y-116073572D01*
X136445832Y-116183945D01*
X136613148Y-116269196D01*
X136791740Y-116327223D01*
X136791747Y-116327225D01*
X136944500Y-116351418D01*
X136944500Y-115655598D01*
X137004220Y-115671600D01*
X137137980Y-115671600D01*
X137197700Y-115655598D01*
X137197700Y-116351418D01*
X137350452Y-116327225D01*
X137350459Y-116327223D01*
X137529051Y-116269196D01*
X137696367Y-116183945D01*
X137848282Y-116073572D01*
X137981072Y-115940782D01*
X138091445Y-115788867D01*
X138176696Y-115621551D01*
X138234723Y-115442959D01*
X138234725Y-115442952D01*
X138258919Y-115290200D01*
X137563098Y-115290200D01*
X137579100Y-115230480D01*
X137579100Y-115096720D01*
X137563098Y-115037000D01*
X138258918Y-115037000D01*
X138234725Y-114884247D01*
X138234723Y-114884240D01*
X138176696Y-114705648D01*
X138091445Y-114538332D01*
X137981072Y-114386417D01*
X137848282Y-114253627D01*
X137696367Y-114143254D01*
X137529051Y-114058003D01*
X137350459Y-113999976D01*
X137350454Y-113999974D01*
X137197700Y-113975780D01*
X137197700Y-114671601D01*
X137137980Y-114655600D01*
X137004220Y-114655600D01*
X136944500Y-114671601D01*
X136944500Y-113975780D01*
X136791745Y-113999974D01*
X136791740Y-113999976D01*
X136613148Y-114058003D01*
X136445832Y-114143254D01*
X136293917Y-114253627D01*
X136161127Y-114386417D01*
X136050754Y-114538332D01*
X136022772Y-114593252D01*
X135993789Y-114618006D01*
X135955791Y-114615015D01*
X135931037Y-114586032D01*
X135928600Y-114570643D01*
X135928600Y-113216556D01*
X135943186Y-113181342D01*
X135978400Y-113166756D01*
X136013614Y-113181342D01*
X136022772Y-113193948D01*
X136050752Y-113248864D01*
X136050753Y-113248865D01*
X136161127Y-113400782D01*
X136293917Y-113533572D01*
X136445832Y-113643945D01*
X136613148Y-113729196D01*
X136791740Y-113787223D01*
X136791747Y-113787225D01*
X136944500Y-113811418D01*
X136944500Y-113115598D01*
X137004220Y-113131600D01*
X137137980Y-113131600D01*
X137197700Y-113115598D01*
X137197700Y-113811418D01*
X137350452Y-113787225D01*
X137350459Y-113787223D01*
X137529051Y-113729196D01*
X137696367Y-113643945D01*
X137848282Y-113533572D01*
X137981072Y-113400782D01*
X138091445Y-113248867D01*
X138176696Y-113081551D01*
X138234723Y-112902959D01*
X138234725Y-112902952D01*
X138258919Y-112750200D01*
X137563098Y-112750200D01*
X137579100Y-112690480D01*
X137579100Y-112556720D01*
X137563098Y-112497000D01*
X138258918Y-112497000D01*
X138234725Y-112344247D01*
X138234723Y-112344240D01*
X138176696Y-112165648D01*
X138091445Y-111998332D01*
X137981072Y-111846417D01*
X137848282Y-111713627D01*
X137696367Y-111603254D01*
X137529051Y-111518003D01*
X137350459Y-111459976D01*
X137350454Y-111459974D01*
X137197700Y-111435780D01*
X137197700Y-112131601D01*
X137137980Y-112115600D01*
X137004220Y-112115600D01*
X136944500Y-112131601D01*
X136944500Y-111435780D01*
X136791745Y-111459974D01*
X136791740Y-111459976D01*
X136613148Y-111518003D01*
X136445832Y-111603254D01*
X136293917Y-111713627D01*
X136161127Y-111846417D01*
X136050754Y-111998332D01*
X136022772Y-112053252D01*
X135993789Y-112078006D01*
X135955791Y-112075015D01*
X135931037Y-112046032D01*
X135928600Y-112030643D01*
X135928600Y-110782643D01*
X135943186Y-110747429D01*
X135978400Y-110732843D01*
X136013614Y-110747429D01*
X136018686Y-110753368D01*
X136052393Y-110799761D01*
X136105373Y-110872682D01*
X136121391Y-110894728D01*
X136259972Y-111033309D01*
X136418525Y-111148505D01*
X136418527Y-111148506D01*
X136418528Y-111148507D01*
X136593146Y-111237478D01*
X136593148Y-111237479D01*
X136779538Y-111298041D01*
X136973109Y-111328700D01*
X137169091Y-111328700D01*
X137362662Y-111298041D01*
X137549052Y-111237479D01*
X137723675Y-111148505D01*
X137882228Y-111033309D01*
X138020809Y-110894728D01*
X138136005Y-110736175D01*
X138224979Y-110561552D01*
X138285541Y-110375162D01*
X138316200Y-110181591D01*
X138316200Y-109985609D01*
X138285541Y-109792038D01*
X138262621Y-109721499D01*
X138265612Y-109683502D01*
X138274767Y-109670900D01*
X139042651Y-108903019D01*
X139079901Y-108838500D01*
X139116284Y-108775482D01*
X139154400Y-108633233D01*
X139154400Y-104366897D01*
X139168986Y-104331683D01*
X140463184Y-103037486D01*
X140498398Y-103022900D01*
X142592822Y-103022900D01*
X142611879Y-103026691D01*
X142637941Y-103037486D01*
X142727731Y-103074678D01*
X142727738Y-103074679D01*
X142727740Y-103074680D01*
X142769751Y-103083036D01*
X142850509Y-103099100D01*
X142850514Y-103099100D01*
X142975686Y-103099100D01*
X142975691Y-103099100D01*
X143098469Y-103074678D01*
X143190585Y-103036522D01*
X143214118Y-103026775D01*
X143214118Y-103026774D01*
X143214122Y-103026773D01*
X143318208Y-102957225D01*
X143406725Y-102868708D01*
X143476273Y-102764622D01*
X143480192Y-102755162D01*
X143486022Y-102741085D01*
X143524178Y-102648969D01*
X143548600Y-102526191D01*
X143548600Y-102401009D01*
X143524178Y-102278231D01*
X143496455Y-102211302D01*
X143476275Y-102162581D01*
X143476273Y-102162579D01*
X143476273Y-102162578D01*
X143423167Y-102083099D01*
X143406728Y-102058495D01*
X143318204Y-101969971D01*
X143219918Y-101904300D01*
X143214122Y-101900427D01*
X143214120Y-101900426D01*
X143214118Y-101900424D01*
X143103244Y-101854500D01*
X143098469Y-101852522D01*
X143098465Y-101852521D01*
X143098459Y-101852519D01*
X142975693Y-101828100D01*
X142975691Y-101828100D01*
X142850509Y-101828100D01*
X142850506Y-101828100D01*
X142727740Y-101852519D01*
X142727732Y-101852521D01*
X142727731Y-101852522D01*
X142727727Y-101852523D01*
X142727726Y-101852524D01*
X142611879Y-101900509D01*
X142592822Y-101904300D01*
X140855200Y-101904300D01*
X140819986Y-101889714D01*
X140805400Y-101854500D01*
X140805400Y-93449009D01*
X142667900Y-93449009D01*
X142667900Y-93867000D01*
X143294500Y-93867000D01*
X143547700Y-93867000D01*
X144174299Y-93867000D01*
X144174299Y-93449013D01*
X144174298Y-93449003D01*
X144171351Y-93423595D01*
X144125444Y-93319623D01*
X144045076Y-93239255D01*
X143941111Y-93193350D01*
X143941105Y-93193349D01*
X143915690Y-93190400D01*
X143547700Y-93190400D01*
X143547700Y-93867000D01*
X143294500Y-93867000D01*
X143294500Y-93190400D01*
X142926513Y-93190400D01*
X142926503Y-93190401D01*
X142901095Y-93193348D01*
X142797123Y-93239255D01*
X142716755Y-93319623D01*
X142670850Y-93423588D01*
X142670849Y-93423594D01*
X142667900Y-93449009D01*
X140805400Y-93449009D01*
X140805400Y-92936897D01*
X140819986Y-92901683D01*
X141718473Y-92003196D01*
X144772901Y-92003196D01*
X144775848Y-92028604D01*
X144821755Y-92132576D01*
X144902123Y-92212944D01*
X145006088Y-92258849D01*
X145006094Y-92258850D01*
X145031510Y-92261799D01*
X145199500Y-92261799D01*
X145452700Y-92261799D01*
X145620687Y-92261799D01*
X145620696Y-92261798D01*
X145646104Y-92258851D01*
X145750076Y-92212944D01*
X145830444Y-92132576D01*
X145876349Y-92028611D01*
X145876350Y-92028605D01*
X145879299Y-92003190D01*
X145879300Y-92003189D01*
X145879300Y-91535200D01*
X145452700Y-91535200D01*
X145452700Y-92261799D01*
X145199500Y-92261799D01*
X145199500Y-91535200D01*
X144772901Y-91535200D01*
X144772901Y-92003196D01*
X141718473Y-92003196D01*
X142242311Y-91479358D01*
X142320871Y-91400798D01*
X142598651Y-91123018D01*
X142623128Y-91080622D01*
X142672284Y-90995482D01*
X142710400Y-90853233D01*
X142710400Y-90814009D01*
X144772900Y-90814009D01*
X144772900Y-91282000D01*
X145199500Y-91282000D01*
X145452700Y-91282000D01*
X145879299Y-91282000D01*
X145879299Y-90814013D01*
X145879298Y-90814003D01*
X145876351Y-90788595D01*
X145830444Y-90684623D01*
X145750076Y-90604255D01*
X145646111Y-90558350D01*
X145646105Y-90558349D01*
X145620690Y-90555400D01*
X145452700Y-90555400D01*
X145452700Y-91282000D01*
X145199500Y-91282000D01*
X145199500Y-90555400D01*
X145031513Y-90555400D01*
X145031503Y-90555401D01*
X145006095Y-90558348D01*
X144902123Y-90604255D01*
X144821755Y-90684623D01*
X144775850Y-90788588D01*
X144775849Y-90788594D01*
X144772900Y-90814009D01*
X142710400Y-90814009D01*
X142710400Y-89877196D01*
X144307901Y-89877196D01*
X144310848Y-89902604D01*
X144356755Y-90006576D01*
X144437123Y-90086944D01*
X144541088Y-90132849D01*
X144541094Y-90132850D01*
X144566510Y-90135799D01*
X144984500Y-90135799D01*
X144984500Y-89509200D01*
X144307901Y-89509200D01*
X144307901Y-89877196D01*
X142710400Y-89877196D01*
X142710400Y-88353196D01*
X143037901Y-88353196D01*
X143040848Y-88378604D01*
X143086755Y-88482576D01*
X143167123Y-88562944D01*
X143271088Y-88608849D01*
X143271094Y-88608850D01*
X143296510Y-88611799D01*
X143714500Y-88611799D01*
X143714500Y-87985200D01*
X143037901Y-87985200D01*
X143037901Y-88353196D01*
X142710400Y-88353196D01*
X142710400Y-87729896D01*
X142724985Y-87694683D01*
X142952887Y-87466781D01*
X142988100Y-87452196D01*
X143023314Y-87466782D01*
G37*
%TD.AperFunction*%
%TA.AperFunction,Conductor*%
G36*
X143846411Y-79745686D02*
G01*
X143860997Y-79780900D01*
X143846411Y-79816114D01*
X143830255Y-79826909D01*
X143811835Y-79834538D01*
X143811828Y-79834542D01*
X143741683Y-79875039D01*
X143637077Y-79955307D01*
X143579807Y-80012577D01*
X143499539Y-80117183D01*
X143459042Y-80187328D01*
X143459038Y-80187335D01*
X143408587Y-80309135D01*
X143408584Y-80309146D01*
X143387622Y-80387377D01*
X143387620Y-80387384D01*
X143370454Y-80517779D01*
X143367800Y-80558247D01*
X143367800Y-81158952D01*
X143370454Y-81199420D01*
X143387620Y-81329815D01*
X143387622Y-81329822D01*
X143408584Y-81408053D01*
X143408587Y-81408064D01*
X143459038Y-81529864D01*
X143459042Y-81529871D01*
X143499539Y-81600016D01*
X143499541Y-81600018D01*
X143499543Y-81600022D01*
X143579804Y-81704619D01*
X143637081Y-81761896D01*
X143741678Y-81842157D01*
X143811832Y-81882660D01*
X143933639Y-81933114D01*
X144011883Y-81954079D01*
X144142598Y-81971288D01*
X144142602Y-81971288D01*
X144223598Y-81971288D01*
X144223602Y-81971288D01*
X144354317Y-81954079D01*
X144432561Y-81933114D01*
X144554368Y-81882660D01*
X144624522Y-81842157D01*
X144729119Y-81761896D01*
X144786396Y-81704619D01*
X144866657Y-81600022D01*
X144907160Y-81529868D01*
X144940805Y-81448641D01*
X144967756Y-81421691D01*
X144986814Y-81417900D01*
X152015386Y-81417900D01*
X152050600Y-81432486D01*
X152061395Y-81448642D01*
X152095038Y-81529864D01*
X152095042Y-81529871D01*
X152135539Y-81600016D01*
X152135541Y-81600018D01*
X152135543Y-81600022D01*
X152215804Y-81704619D01*
X152273081Y-81761896D01*
X152377678Y-81842157D01*
X152447832Y-81882660D01*
X152569639Y-81933114D01*
X152647883Y-81954079D01*
X152778598Y-81971288D01*
X152778602Y-81971288D01*
X152859598Y-81971288D01*
X152859602Y-81971288D01*
X152867243Y-81970281D01*
X152884844Y-81967965D01*
X152903020Y-81965571D01*
X152990317Y-81954079D01*
X153068561Y-81933114D01*
X153190368Y-81882660D01*
X153260522Y-81842157D01*
X153365119Y-81761896D01*
X153422396Y-81704619D01*
X153502657Y-81600022D01*
X153543160Y-81529868D01*
X153593614Y-81408061D01*
X153614579Y-81329818D01*
X153631745Y-81199431D01*
X153633223Y-81176874D01*
X153634399Y-81158952D01*
X153634400Y-81158923D01*
X153634400Y-80558276D01*
X153634399Y-80558247D01*
X153633089Y-80538274D01*
X153631745Y-80517769D01*
X153614579Y-80387382D01*
X153593614Y-80309139D01*
X153543160Y-80187332D01*
X153502657Y-80117178D01*
X153422396Y-80012581D01*
X153365119Y-79955305D01*
X153260255Y-79874839D01*
X153254517Y-79870540D01*
X153161120Y-79825815D01*
X153135660Y-79797452D01*
X153137713Y-79759392D01*
X153166077Y-79733931D01*
X153182629Y-79731100D01*
X161023800Y-79731100D01*
X161059014Y-79745686D01*
X161073600Y-79780900D01*
X161073600Y-96684556D01*
X161059014Y-96719770D01*
X161023800Y-96734356D01*
X160988586Y-96719770D01*
X160983511Y-96713828D01*
X160880812Y-96572476D01*
X160880811Y-96572475D01*
X160880809Y-96572472D01*
X160742228Y-96433891D01*
X160742224Y-96433888D01*
X160742223Y-96433887D01*
X160621601Y-96346250D01*
X160583675Y-96318695D01*
X160583674Y-96318694D01*
X160583672Y-96318693D01*
X160583671Y-96318692D01*
X160409053Y-96229721D01*
X160346922Y-96209533D01*
X160222662Y-96169159D01*
X160222657Y-96169158D01*
X160222653Y-96169157D01*
X160029091Y-96138500D01*
X159833109Y-96138500D01*
X159639546Y-96169157D01*
X159639540Y-96169158D01*
X159639538Y-96169159D01*
X159577408Y-96189346D01*
X159453146Y-96229721D01*
X159278528Y-96318692D01*
X159278527Y-96318693D01*
X159119976Y-96433887D01*
X158981387Y-96572476D01*
X158866193Y-96731027D01*
X158866192Y-96731028D01*
X158777221Y-96905646D01*
X158716659Y-97092039D01*
X158716657Y-97092046D01*
X158686000Y-97285609D01*
X158686000Y-97481590D01*
X158716657Y-97675153D01*
X158716658Y-97675157D01*
X158716659Y-97675162D01*
X158733508Y-97727017D01*
X158777221Y-97861553D01*
X158866192Y-98036171D01*
X158866193Y-98036172D01*
X158866195Y-98036175D01*
X158981391Y-98194728D01*
X159119972Y-98333309D01*
X159278525Y-98448505D01*
X159278527Y-98448506D01*
X159278528Y-98448507D01*
X159311852Y-98465486D01*
X159453148Y-98537479D01*
X159639538Y-98598041D01*
X159639543Y-98598041D01*
X159639544Y-98598042D01*
X159679768Y-98604413D01*
X159712266Y-98624328D01*
X159721164Y-98661391D01*
X159701249Y-98693889D01*
X159679768Y-98702787D01*
X159639544Y-98709157D01*
X159639539Y-98709158D01*
X159639538Y-98709159D01*
X159577408Y-98729346D01*
X159453146Y-98769721D01*
X159278528Y-98858692D01*
X159278527Y-98858693D01*
X159119976Y-98973887D01*
X158981387Y-99112476D01*
X158866193Y-99271027D01*
X158866192Y-99271028D01*
X158777221Y-99445646D01*
X158737946Y-99566524D01*
X158716894Y-99631317D01*
X158716659Y-99632039D01*
X158716657Y-99632046D01*
X158686000Y-99825609D01*
X158686000Y-100021590D01*
X158716657Y-100215153D01*
X158716658Y-100215157D01*
X158716659Y-100215162D01*
X158740818Y-100289514D01*
X158777221Y-100401553D01*
X158866192Y-100576171D01*
X158866193Y-100576172D01*
X158866195Y-100576175D01*
X158878689Y-100593371D01*
X158975493Y-100726611D01*
X158981391Y-100734728D01*
X159119972Y-100873309D01*
X159119975Y-100873311D01*
X159119976Y-100873312D01*
X159147173Y-100893072D01*
X159278525Y-100988505D01*
X159278527Y-100988506D01*
X159278528Y-100988507D01*
X159437908Y-101069714D01*
X159453148Y-101077479D01*
X159639538Y-101138041D01*
X159639543Y-101138041D01*
X159639544Y-101138042D01*
X159679768Y-101144413D01*
X159712266Y-101164328D01*
X159721164Y-101201391D01*
X159701249Y-101233889D01*
X159679768Y-101242787D01*
X159639544Y-101249157D01*
X159639539Y-101249158D01*
X159639538Y-101249159D01*
X159577408Y-101269346D01*
X159453146Y-101309721D01*
X159278528Y-101398692D01*
X159278527Y-101398693D01*
X159119976Y-101513887D01*
X158981387Y-101652476D01*
X158866193Y-101811027D01*
X158866192Y-101811028D01*
X158777221Y-101985646D01*
X158759604Y-102039867D01*
X158718524Y-102166300D01*
X158716659Y-102172039D01*
X158716657Y-102172046D01*
X158686000Y-102365609D01*
X158686000Y-102561590D01*
X158716657Y-102755153D01*
X158716658Y-102755157D01*
X158716659Y-102755162D01*
X158757033Y-102879422D01*
X158777221Y-102941553D01*
X158866192Y-103116171D01*
X158866193Y-103116172D01*
X158866195Y-103116175D01*
X158981391Y-103274728D01*
X159119972Y-103413309D01*
X159278525Y-103528505D01*
X159278527Y-103528506D01*
X159278528Y-103528507D01*
X159439702Y-103610628D01*
X159453148Y-103617479D01*
X159639538Y-103678041D01*
X159639543Y-103678041D01*
X159639544Y-103678042D01*
X159679768Y-103684413D01*
X159712266Y-103704328D01*
X159721164Y-103741391D01*
X159701249Y-103773889D01*
X159679768Y-103782787D01*
X159639544Y-103789157D01*
X159639539Y-103789158D01*
X159639538Y-103789159D01*
X159577408Y-103809346D01*
X159453146Y-103849721D01*
X159278528Y-103938692D01*
X159278527Y-103938693D01*
X159119976Y-104053887D01*
X158981387Y-104192476D01*
X158866193Y-104351027D01*
X158866192Y-104351028D01*
X158777221Y-104525646D01*
X158716659Y-104712039D01*
X158716657Y-104712046D01*
X158686000Y-104905609D01*
X158686000Y-105101590D01*
X158716657Y-105295153D01*
X158716658Y-105295157D01*
X158716659Y-105295162D01*
X158728380Y-105331234D01*
X158777221Y-105481554D01*
X158782587Y-105492085D01*
X158785576Y-105530083D01*
X158773428Y-105549905D01*
X157400414Y-106922920D01*
X157365200Y-106937506D01*
X157329986Y-106922920D01*
X157315400Y-106887706D01*
X157315400Y-93138293D01*
X157329986Y-93103079D01*
X157987379Y-92445686D01*
X158022593Y-92431100D01*
X158088686Y-92431100D01*
X158088691Y-92431100D01*
X158211469Y-92406678D01*
X158303585Y-92368522D01*
X158327118Y-92358775D01*
X158327118Y-92358774D01*
X158327122Y-92358773D01*
X158431208Y-92289225D01*
X158519725Y-92200708D01*
X158589273Y-92096622D01*
X158637178Y-91980969D01*
X158661600Y-91858191D01*
X158661600Y-91792093D01*
X158676186Y-91756879D01*
X159468106Y-90964959D01*
X160404026Y-90029039D01*
X160460939Y-89930462D01*
X160490400Y-89820514D01*
X160490400Y-89706686D01*
X160490400Y-85515687D01*
X160460939Y-85405739D01*
X160404026Y-85307162D01*
X160323538Y-85226674D01*
X159815539Y-84718674D01*
X159815538Y-84718673D01*
X159716965Y-84661763D01*
X159716962Y-84661761D01*
X159716959Y-84661760D01*
X159607014Y-84632300D01*
X159607013Y-84632300D01*
X157487014Y-84632300D01*
X157373186Y-84632300D01*
X157263240Y-84661760D01*
X157263234Y-84661763D01*
X157164661Y-84718673D01*
X156749620Y-85133714D01*
X156714406Y-85148300D01*
X156008105Y-85148300D01*
X155938884Y-85158385D01*
X155832117Y-85210580D01*
X155748080Y-85294617D01*
X155746726Y-85296514D01*
X155745284Y-85297413D01*
X155745163Y-85297535D01*
X155745134Y-85297506D01*
X155714390Y-85316694D01*
X155677257Y-85308099D01*
X155657077Y-85275763D01*
X155656399Y-85267572D01*
X155656399Y-85000605D01*
X155651811Y-84969115D01*
X155646315Y-84931387D01*
X155594119Y-84824617D01*
X155510083Y-84740581D01*
X155510082Y-84740580D01*
X155425633Y-84699296D01*
X155400403Y-84670726D01*
X155402765Y-84632684D01*
X155427391Y-84608999D01*
X155475076Y-84587944D01*
X155555444Y-84507576D01*
X155601349Y-84403611D01*
X155601350Y-84403605D01*
X155604299Y-84378190D01*
X155604300Y-84378189D01*
X155604300Y-83960200D01*
X154097901Y-83960200D01*
X154097901Y-84378196D01*
X154100848Y-84403604D01*
X154146755Y-84507576D01*
X154227123Y-84587944D01*
X154274809Y-84608999D01*
X154301131Y-84636566D01*
X154300251Y-84674671D01*
X154276566Y-84699296D01*
X154192117Y-84740580D01*
X154108080Y-84824617D01*
X154055885Y-84931385D01*
X154045800Y-85000603D01*
X154045800Y-85706906D01*
X154031214Y-85742120D01*
X153957836Y-85815497D01*
X153922622Y-85830083D01*
X153912911Y-85829127D01*
X153897691Y-85826100D01*
X153772509Y-85826100D01*
X153772506Y-85826100D01*
X153665473Y-85847390D01*
X153628090Y-85839954D01*
X153606915Y-85808262D01*
X153607655Y-85785658D01*
X153614579Y-85759818D01*
X153631745Y-85629431D01*
X153633223Y-85606874D01*
X153634399Y-85588952D01*
X153634400Y-85588923D01*
X153634400Y-84488276D01*
X153634399Y-84488247D01*
X153633089Y-84468274D01*
X153631745Y-84447769D01*
X153614579Y-84317382D01*
X153593614Y-84239139D01*
X153543160Y-84117332D01*
X153502657Y-84047178D01*
X153422396Y-83942581D01*
X153365119Y-83885305D01*
X153260255Y-83804839D01*
X153254517Y-83800540D01*
X153151666Y-83751288D01*
X152899744Y-83683786D01*
X152892800Y-83682011D01*
X152778933Y-83675868D01*
X152778931Y-83675868D01*
X152778930Y-83675868D01*
X152759062Y-83678483D01*
X152647884Y-83693120D01*
X152647877Y-83693122D01*
X152569646Y-83714084D01*
X152569635Y-83714087D01*
X152447835Y-83764538D01*
X152447828Y-83764542D01*
X152377683Y-83805039D01*
X152273077Y-83885307D01*
X152215807Y-83942577D01*
X152135539Y-84047183D01*
X152095042Y-84117328D01*
X152095038Y-84117335D01*
X152044587Y-84239135D01*
X152044585Y-84239142D01*
X152027745Y-84301988D01*
X152004541Y-84332226D01*
X151966752Y-84337201D01*
X151936514Y-84313997D01*
X151931542Y-84301995D01*
X151927381Y-84286465D01*
X151851615Y-84155235D01*
X151744465Y-84048085D01*
X151744464Y-84048084D01*
X151613238Y-83972321D01*
X151613235Y-83972319D01*
X151613232Y-83972318D01*
X151613230Y-83972317D01*
X151466867Y-83933100D01*
X151466866Y-83933100D01*
X151315334Y-83933100D01*
X151315332Y-83933100D01*
X151168969Y-83972317D01*
X151168961Y-83972321D01*
X151037735Y-84048084D01*
X150930584Y-84155235D01*
X150854821Y-84286461D01*
X150854817Y-84286469D01*
X150815600Y-84432832D01*
X150815600Y-84584367D01*
X150854817Y-84730730D01*
X150854818Y-84730732D01*
X150854819Y-84730735D01*
X150930585Y-84861965D01*
X151037735Y-84969115D01*
X151168965Y-85044881D01*
X151315334Y-85084100D01*
X151466866Y-85084100D01*
X151613235Y-85044881D01*
X151744465Y-84969115D01*
X151851615Y-84861965D01*
X151910872Y-84759328D01*
X151941111Y-84736126D01*
X151978900Y-84741101D01*
X152002103Y-84771340D01*
X152003800Y-84784229D01*
X152003800Y-85588952D01*
X152006454Y-85629420D01*
X152023620Y-85759815D01*
X152023621Y-85759818D01*
X152036601Y-85808262D01*
X152044584Y-85838053D01*
X152044587Y-85838064D01*
X152095038Y-85959864D01*
X152095042Y-85959871D01*
X152135539Y-86030016D01*
X152135541Y-86030018D01*
X152135543Y-86030022D01*
X152215804Y-86134619D01*
X152273081Y-86191896D01*
X152377678Y-86272157D01*
X152447832Y-86312660D01*
X152569639Y-86363114D01*
X152647883Y-86384079D01*
X152778598Y-86401288D01*
X152778602Y-86401288D01*
X152859598Y-86401288D01*
X152859602Y-86401288D01*
X152990317Y-86384079D01*
X153068561Y-86363114D01*
X153133071Y-86336393D01*
X153171184Y-86336393D01*
X153198136Y-86363344D01*
X153200971Y-86392112D01*
X153199600Y-86399004D01*
X153199600Y-86524193D01*
X153224019Y-86646959D01*
X153224021Y-86646965D01*
X153224022Y-86646969D01*
X153233771Y-86670505D01*
X153271924Y-86762618D01*
X153271926Y-86762620D01*
X153341471Y-86866704D01*
X153429995Y-86955228D01*
X153492275Y-86996841D01*
X153534078Y-87024773D01*
X153534079Y-87024773D01*
X153534081Y-87024775D01*
X153586020Y-87046288D01*
X153649731Y-87072678D01*
X153649738Y-87072679D01*
X153649740Y-87072680D01*
X153691751Y-87081036D01*
X153772509Y-87097100D01*
X153772514Y-87097100D01*
X153897686Y-87097100D01*
X153897691Y-87097100D01*
X154020469Y-87072678D01*
X154123385Y-87030049D01*
X154136118Y-87024775D01*
X154136118Y-87024774D01*
X154136122Y-87024773D01*
X154240208Y-86955225D01*
X154328725Y-86866708D01*
X154398273Y-86762622D01*
X154403993Y-86748814D01*
X154425612Y-86696619D01*
X154446178Y-86646969D01*
X154467336Y-86540595D01*
X154480962Y-86515101D01*
X154592579Y-86403485D01*
X154627793Y-86388899D01*
X155334095Y-86388899D01*
X155345898Y-86387179D01*
X155403313Y-86378815D01*
X155510083Y-86326619D01*
X155594119Y-86242583D01*
X155594121Y-86242577D01*
X155595467Y-86240694D01*
X155596907Y-86239794D01*
X155597037Y-86239665D01*
X155597066Y-86239694D01*
X155627798Y-86220507D01*
X155664933Y-86229094D01*
X155685120Y-86261425D01*
X155685800Y-86269627D01*
X155685800Y-86436594D01*
X155695885Y-86505815D01*
X155748080Y-86612582D01*
X155748081Y-86612583D01*
X155832117Y-86696619D01*
X155938887Y-86748815D01*
X156008105Y-86758900D01*
X157074094Y-86758899D01*
X157143313Y-86748815D01*
X157250083Y-86696619D01*
X157334119Y-86612583D01*
X157345599Y-86589100D01*
X157346360Y-86587544D01*
X157374929Y-86562314D01*
X157412971Y-86564675D01*
X157435840Y-86587544D01*
X157448079Y-86612581D01*
X157448081Y-86612583D01*
X157532117Y-86696619D01*
X157638887Y-86748815D01*
X157708105Y-86758900D01*
X158774094Y-86758899D01*
X158843313Y-86748815D01*
X158950083Y-86696619D01*
X159034119Y-86612583D01*
X159067326Y-86544656D01*
X159095894Y-86519427D01*
X159131121Y-86520518D01*
X159237731Y-86564678D01*
X159237737Y-86564679D01*
X159237740Y-86564680D01*
X159279751Y-86573036D01*
X159360509Y-86589100D01*
X159360514Y-86589100D01*
X159485686Y-86589100D01*
X159485691Y-86589100D01*
X159554590Y-86575395D01*
X159566285Y-86573069D01*
X159603668Y-86580505D01*
X159624843Y-86612197D01*
X159625800Y-86621912D01*
X159625800Y-89563907D01*
X159611214Y-89599121D01*
X158064821Y-91145514D01*
X158029607Y-91160100D01*
X157994336Y-91160100D01*
X157959122Y-91145514D01*
X157944536Y-91110300D01*
X157952929Y-91082632D01*
X157954273Y-91080622D01*
X158002178Y-90964969D01*
X158026600Y-90842191D01*
X158026600Y-90776092D01*
X158041186Y-90740878D01*
X158313378Y-90468686D01*
X158587026Y-90195038D01*
X158643939Y-90096461D01*
X158673400Y-89986513D01*
X158673400Y-89872686D01*
X158673400Y-88713698D01*
X158687986Y-88678485D01*
X158723200Y-88663899D01*
X158774095Y-88663899D01*
X158785898Y-88662179D01*
X158843313Y-88653815D01*
X158950083Y-88601619D01*
X159034119Y-88517583D01*
X159086315Y-88410813D01*
X159096400Y-88341595D01*
X159096399Y-87375606D01*
X159086315Y-87306387D01*
X159080714Y-87294930D01*
X159034119Y-87199617D01*
X158950082Y-87115580D01*
X158843314Y-87063385D01*
X158774096Y-87053300D01*
X157708105Y-87053300D01*
X157638884Y-87063385D01*
X157532117Y-87115580D01*
X157448080Y-87199617D01*
X157435840Y-87224656D01*
X157407270Y-87249886D01*
X157369228Y-87247524D01*
X157346360Y-87224656D01*
X157334119Y-87199617D01*
X157250082Y-87115580D01*
X157143314Y-87063385D01*
X157074096Y-87053300D01*
X156008105Y-87053300D01*
X155938884Y-87063385D01*
X155832117Y-87115580D01*
X155748080Y-87199617D01*
X155695885Y-87306385D01*
X155685800Y-87375603D01*
X155685800Y-87939273D01*
X155671214Y-87974487D01*
X155636000Y-87989073D01*
X155608333Y-87980681D01*
X155582541Y-87963447D01*
X155533122Y-87930427D01*
X155533119Y-87930425D01*
X155533115Y-87930423D01*
X155444960Y-87893909D01*
X155417469Y-87882522D01*
X155417465Y-87882521D01*
X155417459Y-87882519D01*
X155294693Y-87858100D01*
X155294691Y-87858100D01*
X155169509Y-87858100D01*
X155169506Y-87858100D01*
X155046740Y-87882519D01*
X155046732Y-87882521D01*
X155046731Y-87882522D01*
X155046727Y-87882523D01*
X155046726Y-87882524D01*
X154931081Y-87930424D01*
X154931079Y-87930426D01*
X154826995Y-87999971D01*
X154826993Y-87999974D01*
X154738474Y-88088493D01*
X154738471Y-88088495D01*
X154668926Y-88192579D01*
X154668924Y-88192581D01*
X154621024Y-88308226D01*
X154621019Y-88308240D01*
X154596600Y-88431006D01*
X154596600Y-88556193D01*
X154621019Y-88678959D01*
X154621021Y-88678965D01*
X154621022Y-88678969D01*
X154621024Y-88678973D01*
X154668924Y-88794618D01*
X154668926Y-88794620D01*
X154738471Y-88898704D01*
X154826995Y-88987228D01*
X154889275Y-89028841D01*
X154931078Y-89056773D01*
X154931079Y-89056773D01*
X154931081Y-89056775D01*
X154983020Y-89078288D01*
X155046731Y-89104678D01*
X155046738Y-89104679D01*
X155046740Y-89104680D01*
X155088751Y-89113036D01*
X155169509Y-89129100D01*
X155169514Y-89129100D01*
X155294686Y-89129100D01*
X155294691Y-89129100D01*
X155417469Y-89104678D01*
X155509585Y-89066522D01*
X155533118Y-89056775D01*
X155533118Y-89056774D01*
X155533122Y-89056773D01*
X155637208Y-88987225D01*
X155683947Y-88940486D01*
X155719161Y-88925900D01*
X155963014Y-88925900D01*
X156072962Y-88896439D01*
X156171539Y-88839526D01*
X156332579Y-88678484D01*
X156367793Y-88663899D01*
X157074095Y-88663899D01*
X157085898Y-88662179D01*
X157143313Y-88653815D01*
X157250083Y-88601619D01*
X157334119Y-88517583D01*
X157346360Y-88492544D01*
X157374929Y-88467314D01*
X157412971Y-88469675D01*
X157435840Y-88492544D01*
X157448079Y-88517581D01*
X157448081Y-88517583D01*
X157532117Y-88601619D01*
X157638887Y-88653815D01*
X157708105Y-88663900D01*
X157759000Y-88663899D01*
X157794213Y-88678484D01*
X157808800Y-88713698D01*
X157808800Y-89729907D01*
X157794214Y-89765121D01*
X157429821Y-90129514D01*
X157394607Y-90144100D01*
X157328506Y-90144100D01*
X157205740Y-90168519D01*
X157205732Y-90168521D01*
X157205731Y-90168522D01*
X157205727Y-90168523D01*
X157205726Y-90168524D01*
X157090081Y-90216424D01*
X157090079Y-90216426D01*
X156985995Y-90285971D01*
X156985993Y-90285974D01*
X156897474Y-90374493D01*
X156897471Y-90374495D01*
X156827926Y-90478579D01*
X156827924Y-90478581D01*
X156780024Y-90594226D01*
X156780019Y-90594240D01*
X156755600Y-90717006D01*
X156755600Y-90783107D01*
X156741014Y-90818321D01*
X155902173Y-91657161D01*
X155858385Y-91733006D01*
X155845261Y-91755738D01*
X155817809Y-91858191D01*
X155815800Y-91865687D01*
X155815800Y-91865688D01*
X155815800Y-117125514D01*
X155845260Y-117235459D01*
X155845263Y-117235465D01*
X155902173Y-117334038D01*
X156868014Y-118299879D01*
X156882600Y-118335093D01*
X156882600Y-118401193D01*
X156907019Y-118523959D01*
X156907021Y-118523965D01*
X156907022Y-118523969D01*
X156907024Y-118523973D01*
X156954924Y-118639618D01*
X156954926Y-118639620D01*
X157024471Y-118743704D01*
X157112993Y-118832226D01*
X157114884Y-118833778D01*
X157113892Y-118834986D01*
X157132470Y-118862767D01*
X157125047Y-118900152D01*
X157093363Y-118921340D01*
X157083630Y-118922300D01*
X156373398Y-118922300D01*
X156338184Y-118907714D01*
X155043986Y-117613516D01*
X155029400Y-117578302D01*
X155029400Y-107850967D01*
X155029399Y-107850965D01*
X155025164Y-107835160D01*
X155010607Y-107780831D01*
X154991285Y-107708719D01*
X154917652Y-107581182D01*
X151409055Y-104072586D01*
X151398261Y-104056431D01*
X151350191Y-103940380D01*
X151346400Y-103921322D01*
X151346400Y-102186699D01*
X151360986Y-102151485D01*
X151396200Y-102136899D01*
X152159095Y-102136899D01*
X152170898Y-102135179D01*
X152228313Y-102126815D01*
X152335083Y-102074619D01*
X152419119Y-101990583D01*
X152471315Y-101883813D01*
X152481400Y-101814595D01*
X152481399Y-100748606D01*
X152471315Y-100679387D01*
X152467326Y-100671228D01*
X152419119Y-100572617D01*
X152335082Y-100488580D01*
X152250633Y-100447296D01*
X152225403Y-100418726D01*
X152227765Y-100380684D01*
X152252391Y-100356999D01*
X152300076Y-100335944D01*
X152380444Y-100255576D01*
X152426349Y-100151611D01*
X152426350Y-100151605D01*
X152429299Y-100126190D01*
X152429300Y-100126189D01*
X152429300Y-99708200D01*
X150922901Y-99708200D01*
X150922901Y-100126196D01*
X150925848Y-100151604D01*
X150971755Y-100255576D01*
X151052123Y-100335944D01*
X151099809Y-100356999D01*
X151126131Y-100384566D01*
X151125251Y-100422671D01*
X151101566Y-100447296D01*
X151017117Y-100488580D01*
X150933080Y-100572617D01*
X150880885Y-100679385D01*
X150870800Y-100748603D01*
X150870800Y-100772500D01*
X150856214Y-100807714D01*
X150821000Y-100822300D01*
X150487261Y-100822300D01*
X150465390Y-100817240D01*
X150453413Y-100811385D01*
X150384196Y-100801300D01*
X149218205Y-100801300D01*
X149148984Y-100811385D01*
X149042217Y-100863580D01*
X148958180Y-100947617D01*
X148905985Y-101054385D01*
X148895900Y-101123603D01*
X148895900Y-101639594D01*
X148905985Y-101708815D01*
X148958180Y-101815582D01*
X148958181Y-101815583D01*
X149042217Y-101899619D01*
X149148987Y-101951815D01*
X149218205Y-101961900D01*
X150178000Y-101961899D01*
X150213214Y-101976485D01*
X150227800Y-102011699D01*
X150227800Y-102388655D01*
X150213214Y-102423869D01*
X150178000Y-102438455D01*
X150142786Y-102423869D01*
X150132443Y-102408770D01*
X150105444Y-102347623D01*
X150025076Y-102267255D01*
X149921111Y-102221350D01*
X149921105Y-102221349D01*
X149895690Y-102218400D01*
X149477700Y-102218400D01*
X149477700Y-102921800D01*
X149463114Y-102957014D01*
X149427900Y-102971600D01*
X149274300Y-102971600D01*
X149239086Y-102957014D01*
X149224500Y-102921800D01*
X149224500Y-102218400D01*
X148806513Y-102218400D01*
X148806503Y-102218401D01*
X148781095Y-102221348D01*
X148677123Y-102267255D01*
X148596756Y-102347622D01*
X148575700Y-102395310D01*
X148548133Y-102421631D01*
X148510027Y-102420751D01*
X148485403Y-102397066D01*
X148444119Y-102312617D01*
X148360082Y-102228580D01*
X148253314Y-102176385D01*
X148184096Y-102166300D01*
X148184095Y-102166300D01*
X147327496Y-102166300D01*
X147292282Y-102151714D01*
X147277696Y-102116500D01*
X147292282Y-102081286D01*
X147397083Y-101976485D01*
X147432297Y-101961899D01*
X147783995Y-101961899D01*
X147795798Y-101960179D01*
X147853213Y-101951815D01*
X147959983Y-101899619D01*
X148044019Y-101815583D01*
X148096215Y-101708813D01*
X148106300Y-101639595D01*
X148106299Y-101123606D01*
X148096215Y-101054387D01*
X148090401Y-101042495D01*
X148044019Y-100947617D01*
X148001375Y-100904973D01*
X147986789Y-100869759D01*
X148001375Y-100834545D01*
X148001378Y-100834543D01*
X148005343Y-100830577D01*
X148051249Y-100726611D01*
X148051250Y-100726605D01*
X148054199Y-100701190D01*
X148054200Y-100701189D01*
X148054200Y-100558200D01*
X146347801Y-100558200D01*
X146347801Y-100701196D01*
X146350748Y-100726604D01*
X146396655Y-100830576D01*
X146400624Y-100834545D01*
X146415210Y-100869759D01*
X146400624Y-100904973D01*
X146357980Y-100947617D01*
X146305785Y-101054385D01*
X146295700Y-101123603D01*
X146295700Y-101475302D01*
X146281114Y-101510516D01*
X146125682Y-101665949D01*
X146021548Y-101770082D01*
X145947918Y-101897614D01*
X145947914Y-101897622D01*
X145909800Y-102039865D01*
X145909800Y-102362500D01*
X145895214Y-102397714D01*
X145860000Y-102412300D01*
X145832398Y-102412300D01*
X145797184Y-102397714D01*
X145694054Y-102294584D01*
X145683259Y-102278427D01*
X145678631Y-102267255D01*
X145655455Y-102211302D01*
X145635191Y-102162379D01*
X145631400Y-102143322D01*
X145631400Y-100556897D01*
X145645986Y-100521683D01*
X146112183Y-100055486D01*
X146147397Y-100040900D01*
X146316574Y-100040900D01*
X146351788Y-100055486D01*
X146366374Y-100090700D01*
X146362131Y-100110815D01*
X146350748Y-100136593D01*
X146350748Y-100136594D01*
X146347800Y-100162007D01*
X146347800Y-100305000D01*
X148054199Y-100305000D01*
X148054199Y-100162013D01*
X148054198Y-100162003D01*
X148051251Y-100136595D01*
X148005344Y-100032623D01*
X148001375Y-100028654D01*
X147986789Y-99993440D01*
X148001374Y-99958227D01*
X148044019Y-99915583D01*
X148096215Y-99808813D01*
X148106300Y-99739595D01*
X148106299Y-99262472D01*
X148120885Y-99227259D01*
X148125481Y-99223603D01*
X148895900Y-99223603D01*
X148895900Y-99739594D01*
X148905985Y-99808815D01*
X148958180Y-99915582D01*
X148958181Y-99915583D01*
X149042217Y-99999619D01*
X149148987Y-100051815D01*
X149218205Y-100061900D01*
X150384194Y-100061899D01*
X150453413Y-100051815D01*
X150560183Y-99999619D01*
X150644219Y-99915583D01*
X150696415Y-99808813D01*
X150706500Y-99739595D01*
X150706499Y-99223606D01*
X150696415Y-99154387D01*
X150691447Y-99144225D01*
X150649024Y-99057445D01*
X150644219Y-99047617D01*
X150633611Y-99037009D01*
X150922900Y-99037009D01*
X150922900Y-99455000D01*
X151549500Y-99455000D01*
X151802700Y-99455000D01*
X152429299Y-99455000D01*
X152429299Y-99037013D01*
X152429298Y-99037003D01*
X152426351Y-99011595D01*
X152380444Y-98907623D01*
X152300076Y-98827255D01*
X152196111Y-98781350D01*
X152196105Y-98781349D01*
X152170690Y-98778400D01*
X151802700Y-98778400D01*
X151802700Y-99455000D01*
X151549500Y-99455000D01*
X151549500Y-98778400D01*
X151181513Y-98778400D01*
X151181503Y-98778401D01*
X151156095Y-98781348D01*
X151052123Y-98827255D01*
X150971755Y-98907623D01*
X150925850Y-99011588D01*
X150925849Y-99011594D01*
X150922900Y-99037009D01*
X150633611Y-99037009D01*
X150560182Y-98963580D01*
X150453414Y-98911385D01*
X150384196Y-98901300D01*
X149218205Y-98901300D01*
X149148984Y-98911385D01*
X149042217Y-98963580D01*
X148958180Y-99047617D01*
X148905985Y-99154385D01*
X148895900Y-99223603D01*
X148125481Y-99223603D01*
X148129702Y-99220245D01*
X148133212Y-99218050D01*
X148143540Y-99213773D01*
X148214935Y-99166068D01*
X148247622Y-99144228D01*
X148247625Y-99144226D01*
X148336144Y-99055707D01*
X148336146Y-99055704D01*
X148365623Y-99011588D01*
X148405691Y-98951622D01*
X148453596Y-98835969D01*
X148478018Y-98713191D01*
X148478018Y-98588009D01*
X148462584Y-98510415D01*
X148470020Y-98473032D01*
X148501712Y-98451857D01*
X148511427Y-98450900D01*
X148558014Y-98450900D01*
X153254407Y-98450900D01*
X153289621Y-98465486D01*
X153642214Y-98818078D01*
X153656800Y-98853292D01*
X153656800Y-100452539D01*
X153642214Y-100487753D01*
X153595474Y-100534493D01*
X153595471Y-100534495D01*
X153525926Y-100638579D01*
X153525924Y-100638581D01*
X153478024Y-100754226D01*
X153478019Y-100754240D01*
X153453600Y-100877006D01*
X153453600Y-101002193D01*
X153478019Y-101124959D01*
X153478021Y-101124965D01*
X153478022Y-101124969D01*
X153478024Y-101124973D01*
X153525924Y-101240618D01*
X153525926Y-101240620D01*
X153595471Y-101344704D01*
X153683995Y-101433228D01*
X153743026Y-101472670D01*
X153788078Y-101502773D01*
X153788079Y-101502773D01*
X153788081Y-101502775D01*
X153840020Y-101524288D01*
X153903731Y-101550678D01*
X153903738Y-101550679D01*
X153903740Y-101550680D01*
X153945751Y-101559036D01*
X154026509Y-101575100D01*
X154026514Y-101575100D01*
X154151686Y-101575100D01*
X154151691Y-101575100D01*
X154176744Y-101570116D01*
X154214126Y-101577551D01*
X154235302Y-101609243D01*
X154240022Y-101632969D01*
X154240024Y-101632973D01*
X154287924Y-101748618D01*
X154287926Y-101748620D01*
X154357471Y-101852704D01*
X154445995Y-101941228D01*
X154489013Y-101969971D01*
X154550078Y-102010773D01*
X154550079Y-102010773D01*
X154550081Y-102010775D01*
X154602020Y-102032288D01*
X154665731Y-102058678D01*
X154665738Y-102058679D01*
X154665740Y-102058680D01*
X154707751Y-102067036D01*
X154788509Y-102083100D01*
X154788514Y-102083100D01*
X154913686Y-102083100D01*
X154913691Y-102083100D01*
X155036469Y-102058678D01*
X155128585Y-102020522D01*
X155152118Y-102010775D01*
X155152118Y-102010774D01*
X155152122Y-102010773D01*
X155240359Y-101951815D01*
X155256204Y-101941228D01*
X155256207Y-101941226D01*
X155344726Y-101852707D01*
X155344728Y-101852704D01*
X155358409Y-101832227D01*
X155414273Y-101748622D01*
X155462178Y-101632969D01*
X155486600Y-101510191D01*
X155486600Y-101385009D01*
X155469301Y-101298041D01*
X155462180Y-101262240D01*
X155462179Y-101262238D01*
X155462178Y-101262231D01*
X155434001Y-101194206D01*
X155414275Y-101146581D01*
X155414273Y-101146579D01*
X155414273Y-101146578D01*
X155386341Y-101104775D01*
X155344728Y-101042495D01*
X155297986Y-100995753D01*
X155283400Y-100960539D01*
X155283400Y-97834686D01*
X155265419Y-97767582D01*
X155253939Y-97724739D01*
X155197026Y-97626162D01*
X155116538Y-97545674D01*
X154835985Y-97265121D01*
X154821399Y-97229907D01*
X154821399Y-96425605D01*
X154818045Y-96402582D01*
X154811315Y-96356387D01*
X154806359Y-96346250D01*
X154759119Y-96249617D01*
X154675082Y-96165580D01*
X154568314Y-96113385D01*
X154499096Y-96103300D01*
X153933105Y-96103300D01*
X153863884Y-96113385D01*
X153757117Y-96165580D01*
X153673080Y-96249617D01*
X153625840Y-96346250D01*
X153597270Y-96371480D01*
X153559228Y-96369118D01*
X153536360Y-96346250D01*
X153489119Y-96249617D01*
X153405082Y-96165580D01*
X153298314Y-96113385D01*
X153229096Y-96103300D01*
X152663105Y-96103300D01*
X152593884Y-96113385D01*
X152487117Y-96165580D01*
X152403080Y-96249617D01*
X152355840Y-96346250D01*
X152327270Y-96371480D01*
X152289228Y-96369118D01*
X152266360Y-96346250D01*
X152219119Y-96249617D01*
X152135082Y-96165580D01*
X152028314Y-96113385D01*
X151959096Y-96103300D01*
X151393105Y-96103300D01*
X151323884Y-96113385D01*
X151217117Y-96165580D01*
X151133080Y-96249617D01*
X151085840Y-96346250D01*
X151057270Y-96371480D01*
X151019228Y-96369118D01*
X150996360Y-96346250D01*
X150949119Y-96249617D01*
X150865082Y-96165580D01*
X150758314Y-96113385D01*
X150689096Y-96103300D01*
X150123105Y-96103300D01*
X150053884Y-96113385D01*
X149947117Y-96165580D01*
X149863080Y-96249617D01*
X149815840Y-96346250D01*
X149787270Y-96371480D01*
X149749228Y-96369118D01*
X149726360Y-96346250D01*
X149679119Y-96249617D01*
X149595082Y-96165580D01*
X149488314Y-96113385D01*
X149419096Y-96103300D01*
X148853105Y-96103300D01*
X148783884Y-96113385D01*
X148677117Y-96165580D01*
X148593080Y-96249617D01*
X148545840Y-96346250D01*
X148517270Y-96371480D01*
X148479228Y-96369118D01*
X148456360Y-96346250D01*
X148409119Y-96249617D01*
X148325082Y-96165580D01*
X148218314Y-96113385D01*
X148149096Y-96103300D01*
X147583105Y-96103300D01*
X147513884Y-96113385D01*
X147407117Y-96165580D01*
X147323080Y-96249617D01*
X147275840Y-96346250D01*
X147247270Y-96371480D01*
X147209228Y-96369118D01*
X147186360Y-96346250D01*
X147139119Y-96249617D01*
X147055082Y-96165580D01*
X146948314Y-96113385D01*
X146879096Y-96103300D01*
X146313105Y-96103300D01*
X146260918Y-96110903D01*
X146244218Y-96113336D01*
X146207270Y-96103980D01*
X146187759Y-96071237D01*
X146197116Y-96034288D01*
X146201821Y-96028847D01*
X146432183Y-95798486D01*
X146467397Y-95783900D01*
X148942822Y-95783900D01*
X148961879Y-95787691D01*
X148979991Y-95795193D01*
X149077731Y-95835678D01*
X149077738Y-95835679D01*
X149077740Y-95835680D01*
X149119751Y-95844036D01*
X149200509Y-95860100D01*
X149200514Y-95860100D01*
X149325686Y-95860100D01*
X149325691Y-95860100D01*
X149448469Y-95835678D01*
X149546209Y-95795193D01*
X149564118Y-95787775D01*
X149564118Y-95787774D01*
X149564122Y-95787773D01*
X149668208Y-95718225D01*
X149756725Y-95629708D01*
X149763259Y-95619930D01*
X149770409Y-95609227D01*
X149826273Y-95525622D01*
X149874178Y-95409969D01*
X149898600Y-95287191D01*
X149898600Y-95162009D01*
X149874178Y-95039231D01*
X149826273Y-94923578D01*
X149826191Y-94923379D01*
X149822400Y-94904322D01*
X149822400Y-92483967D01*
X149822399Y-92483965D01*
X149818312Y-92468714D01*
X149784284Y-92341718D01*
X149736440Y-92258849D01*
X149733649Y-92254015D01*
X149733646Y-92254010D01*
X149733236Y-92253300D01*
X149710651Y-92214181D01*
X149705937Y-92209467D01*
X149702914Y-92204607D01*
X149700668Y-92191022D01*
X149695400Y-92178302D01*
X149695400Y-92145800D01*
X149700460Y-92123929D01*
X149726359Y-92070950D01*
X149754928Y-92045720D01*
X149792970Y-92048081D01*
X149815839Y-92070949D01*
X149863080Y-92167582D01*
X149863081Y-92167583D01*
X149947117Y-92251619D01*
X150053887Y-92303815D01*
X150123105Y-92313900D01*
X150689094Y-92313899D01*
X150758313Y-92303815D01*
X150865083Y-92251619D01*
X150949119Y-92167583D01*
X150988475Y-92087079D01*
X150996360Y-92070949D01*
X151024930Y-92045719D01*
X151062972Y-92048081D01*
X151085840Y-92070949D01*
X151133080Y-92167582D01*
X151133081Y-92167583D01*
X151217117Y-92251619D01*
X151323887Y-92303815D01*
X151393105Y-92313900D01*
X151959094Y-92313899D01*
X152028313Y-92303815D01*
X152135083Y-92251619D01*
X152219119Y-92167583D01*
X152258475Y-92087079D01*
X152266360Y-92070949D01*
X152294930Y-92045719D01*
X152332972Y-92048081D01*
X152355840Y-92070949D01*
X152403080Y-92167582D01*
X152403081Y-92167583D01*
X152487117Y-92251619D01*
X152593887Y-92303815D01*
X152663105Y-92313900D01*
X153229094Y-92313899D01*
X153298313Y-92303815D01*
X153405083Y-92251619D01*
X153489119Y-92167583D01*
X153528475Y-92087079D01*
X153536360Y-92070949D01*
X153564930Y-92045719D01*
X153602972Y-92048081D01*
X153625840Y-92070949D01*
X153673080Y-92167582D01*
X153673081Y-92167583D01*
X153757117Y-92251619D01*
X153863887Y-92303815D01*
X153933105Y-92313900D01*
X154499094Y-92313899D01*
X154568313Y-92303815D01*
X154675083Y-92251619D01*
X154759119Y-92167583D01*
X154811315Y-92060813D01*
X154821400Y-91991595D01*
X154821399Y-90825606D01*
X154811315Y-90756387D01*
X154806359Y-90746250D01*
X154759119Y-90649617D01*
X154675082Y-90565580D01*
X154568314Y-90513385D01*
X154499096Y-90503300D01*
X153933105Y-90503300D01*
X153863884Y-90513385D01*
X153757117Y-90565580D01*
X153673080Y-90649617D01*
X153625840Y-90746250D01*
X153597270Y-90771480D01*
X153559228Y-90769118D01*
X153536360Y-90746250D01*
X153489119Y-90649617D01*
X153405082Y-90565580D01*
X153299253Y-90513844D01*
X153274023Y-90485274D01*
X153276385Y-90447232D01*
X153285908Y-90433893D01*
X153334219Y-90385583D01*
X153386415Y-90278813D01*
X153396500Y-90209595D01*
X153396499Y-89693606D01*
X153386415Y-89624387D01*
X153374063Y-89599121D01*
X153334219Y-89517617D01*
X153291575Y-89474973D01*
X153276989Y-89439759D01*
X153291575Y-89404545D01*
X153291578Y-89404543D01*
X153295543Y-89400577D01*
X153341449Y-89296611D01*
X153341450Y-89296605D01*
X153344399Y-89271190D01*
X153344400Y-89271189D01*
X153344400Y-89128200D01*
X152466000Y-89128200D01*
X152430786Y-89113614D01*
X152416200Y-89078400D01*
X152416200Y-88924800D01*
X152430786Y-88889586D01*
X152466000Y-88875000D01*
X153344399Y-88875000D01*
X153344399Y-88732013D01*
X153344398Y-88732003D01*
X153341451Y-88706595D01*
X153295544Y-88602623D01*
X153291575Y-88598654D01*
X153276989Y-88563440D01*
X153291574Y-88528227D01*
X153334219Y-88485583D01*
X153386415Y-88378813D01*
X153396500Y-88309595D01*
X153396499Y-87793606D01*
X153386415Y-87724387D01*
X153380819Y-87712941D01*
X153334219Y-87617617D01*
X153250182Y-87533580D01*
X153143414Y-87481385D01*
X153074196Y-87471300D01*
X151758205Y-87471300D01*
X151688984Y-87481385D01*
X151582217Y-87533580D01*
X151498180Y-87617617D01*
X151445985Y-87724385D01*
X151435900Y-87793603D01*
X151435900Y-87902807D01*
X151421314Y-87938021D01*
X151386100Y-87952607D01*
X151350886Y-87938021D01*
X151118538Y-87705673D01*
X151019965Y-87648763D01*
X151019962Y-87648761D01*
X151019959Y-87648760D01*
X150910014Y-87619300D01*
X150910013Y-87619300D01*
X150606330Y-87619300D01*
X150571116Y-87604714D01*
X150499982Y-87533580D01*
X150393214Y-87481385D01*
X150323996Y-87471300D01*
X150323995Y-87471300D01*
X150303418Y-87471300D01*
X150268204Y-87456714D01*
X150253618Y-87421500D01*
X150255106Y-87411449D01*
X150254701Y-87411369D01*
X150270512Y-87331879D01*
X150279600Y-87286191D01*
X150279600Y-87161009D01*
X150262029Y-87072675D01*
X150255180Y-87038240D01*
X150255179Y-87038238D01*
X150255178Y-87038231D01*
X150220797Y-86955228D01*
X150207275Y-86922581D01*
X150207273Y-86922579D01*
X150207273Y-86922578D01*
X150169939Y-86866704D01*
X150137728Y-86818495D01*
X150049204Y-86729971D01*
X149966163Y-86674486D01*
X149945122Y-86660427D01*
X149945120Y-86660426D01*
X149945118Y-86660424D01*
X149852138Y-86621912D01*
X149829469Y-86612522D01*
X149829465Y-86612521D01*
X149829459Y-86612519D01*
X149706693Y-86588100D01*
X149706691Y-86588100D01*
X149581509Y-86588100D01*
X149581506Y-86588100D01*
X149458740Y-86612519D01*
X149458732Y-86612521D01*
X149458731Y-86612522D01*
X149458727Y-86612523D01*
X149458726Y-86612524D01*
X149343081Y-86660424D01*
X149343079Y-86660426D01*
X149238995Y-86729971D01*
X149238993Y-86729974D01*
X149150474Y-86818493D01*
X149150471Y-86818495D01*
X149080926Y-86922578D01*
X149043910Y-87011944D01*
X149016959Y-87038895D01*
X148978843Y-87038895D01*
X148954773Y-87017786D01*
X148948651Y-87007182D01*
X148209518Y-86268049D01*
X148209517Y-86268048D01*
X148186262Y-86254622D01*
X148081982Y-86194416D01*
X148081979Y-86194415D01*
X148081977Y-86194414D01*
X147939734Y-86156300D01*
X147939733Y-86156300D01*
X145900378Y-86156300D01*
X145881321Y-86152509D01*
X145816994Y-86125864D01*
X145765469Y-86104522D01*
X145765465Y-86104521D01*
X145765459Y-86104519D01*
X145642693Y-86080100D01*
X145642691Y-86080100D01*
X145517509Y-86080100D01*
X145517506Y-86080100D01*
X145394740Y-86104519D01*
X145394732Y-86104521D01*
X145394731Y-86104522D01*
X145394727Y-86104523D01*
X145394726Y-86104524D01*
X145278879Y-86152509D01*
X145259822Y-86156300D01*
X144870744Y-86156300D01*
X144835530Y-86141714D01*
X144820944Y-86106500D01*
X144831234Y-86076185D01*
X144866657Y-86030022D01*
X144907160Y-85959868D01*
X144957614Y-85838061D01*
X144978579Y-85759818D01*
X144995745Y-85629431D01*
X144997223Y-85606874D01*
X144998399Y-85588952D01*
X144998400Y-85588923D01*
X144998400Y-84784229D01*
X145012986Y-84749015D01*
X145048200Y-84734429D01*
X145083414Y-84749015D01*
X145091327Y-84759328D01*
X145150585Y-84861965D01*
X145257735Y-84969115D01*
X145388965Y-85044881D01*
X145535334Y-85084100D01*
X145686866Y-85084100D01*
X145833235Y-85044881D01*
X145964465Y-84969115D01*
X146071615Y-84861965D01*
X146147381Y-84730735D01*
X146186600Y-84584366D01*
X146186600Y-84432834D01*
X146147381Y-84286465D01*
X146071615Y-84155235D01*
X145964465Y-84048085D01*
X145964464Y-84048084D01*
X145833238Y-83972321D01*
X145833235Y-83972319D01*
X145833232Y-83972318D01*
X145833230Y-83972317D01*
X145686867Y-83933100D01*
X145686866Y-83933100D01*
X145535334Y-83933100D01*
X145535332Y-83933100D01*
X145388969Y-83972317D01*
X145388961Y-83972321D01*
X145257735Y-84048084D01*
X145150584Y-84155235D01*
X145074821Y-84286461D01*
X145074817Y-84286469D01*
X145070908Y-84301058D01*
X145070661Y-84301985D01*
X145070660Y-84301987D01*
X145047457Y-84332226D01*
X145009668Y-84337201D01*
X144979429Y-84313998D01*
X144974454Y-84301987D01*
X144970294Y-84286461D01*
X144957614Y-84239139D01*
X144907160Y-84117332D01*
X144866657Y-84047178D01*
X144786396Y-83942581D01*
X144729119Y-83885305D01*
X144624255Y-83804839D01*
X144618517Y-83800540D01*
X144515666Y-83751288D01*
X144263744Y-83683786D01*
X144256800Y-83682011D01*
X144142933Y-83675868D01*
X144142931Y-83675868D01*
X144142930Y-83675868D01*
X144123062Y-83678483D01*
X144011884Y-83693120D01*
X144011877Y-83693122D01*
X143933646Y-83714084D01*
X143933635Y-83714087D01*
X143811835Y-83764538D01*
X143811828Y-83764542D01*
X143741683Y-83805039D01*
X143637077Y-83885307D01*
X143579807Y-83942577D01*
X143499539Y-84047183D01*
X143459042Y-84117328D01*
X143459038Y-84117335D01*
X143408587Y-84239135D01*
X143408584Y-84239146D01*
X143387622Y-84317377D01*
X143387620Y-84317384D01*
X143370454Y-84447779D01*
X143367800Y-84488247D01*
X143367800Y-85588952D01*
X143370454Y-85629420D01*
X143387620Y-85759815D01*
X143387621Y-85759818D01*
X143400601Y-85808262D01*
X143408584Y-85838053D01*
X143408587Y-85838064D01*
X143459038Y-85959864D01*
X143459042Y-85959871D01*
X143499539Y-86030016D01*
X143499541Y-86030018D01*
X143499543Y-86030022D01*
X143534965Y-86076185D01*
X143544830Y-86113000D01*
X143525773Y-86146009D01*
X143495456Y-86156300D01*
X142839465Y-86156300D01*
X142697223Y-86194413D01*
X142697215Y-86194417D01*
X142569682Y-86268048D01*
X141703548Y-87134182D01*
X141629918Y-87261714D01*
X141629914Y-87261722D01*
X141591800Y-87403965D01*
X141591800Y-90527303D01*
X141577214Y-90562517D01*
X139798548Y-92341182D01*
X139724918Y-92468714D01*
X139724914Y-92468722D01*
X139686800Y-92610965D01*
X139686800Y-95542435D01*
X139672214Y-95577649D01*
X139637000Y-95592235D01*
X139601786Y-95577649D01*
X139588157Y-95552152D01*
X139587179Y-95547237D01*
X139587178Y-95547231D01*
X139560788Y-95483520D01*
X139539275Y-95431581D01*
X139539273Y-95431579D01*
X139539273Y-95431578D01*
X139511341Y-95389775D01*
X139469728Y-95327495D01*
X139381204Y-95238971D01*
X139298163Y-95183486D01*
X139277122Y-95169427D01*
X139277120Y-95169426D01*
X139277118Y-95169424D01*
X139185005Y-95131271D01*
X139161469Y-95121522D01*
X139161465Y-95121521D01*
X139161459Y-95121519D01*
X139038693Y-95097100D01*
X139038691Y-95097100D01*
X138913509Y-95097100D01*
X138913506Y-95097100D01*
X138790740Y-95121519D01*
X138790732Y-95121521D01*
X138790731Y-95121522D01*
X138790727Y-95121523D01*
X138790726Y-95121524D01*
X138675081Y-95169424D01*
X138675079Y-95169426D01*
X138570995Y-95238971D01*
X138570993Y-95238974D01*
X138482474Y-95327493D01*
X138482471Y-95327495D01*
X138412926Y-95431579D01*
X138412924Y-95431581D01*
X138365024Y-95547226D01*
X138365019Y-95547240D01*
X138340600Y-95670006D01*
X138340600Y-95795193D01*
X138365019Y-95917959D01*
X138365021Y-95917965D01*
X138365022Y-95917969D01*
X138365024Y-95917973D01*
X138413009Y-96033821D01*
X138416800Y-96052878D01*
X138416800Y-97131303D01*
X138402214Y-97166517D01*
X137893548Y-97675182D01*
X137819918Y-97802714D01*
X137819914Y-97802722D01*
X137781800Y-97944965D01*
X137781800Y-98717600D01*
X137767214Y-98752814D01*
X137732005Y-98767400D01*
X137723106Y-98767400D01*
X137653884Y-98777485D01*
X137547117Y-98829680D01*
X137463080Y-98913717D01*
X137410885Y-99020485D01*
X137400800Y-99089703D01*
X137400800Y-99716094D01*
X137410885Y-99785315D01*
X137463080Y-99892083D01*
X137464924Y-99894665D01*
X137473512Y-99931800D01*
X137468788Y-99946163D01*
X137465432Y-99952765D01*
X137463081Y-99955117D01*
X137433867Y-100014874D01*
X137433697Y-100015210D01*
X137419478Y-100027378D01*
X137405471Y-100039749D01*
X137404778Y-100039960D01*
X137404739Y-100039994D01*
X137404682Y-100039989D01*
X137402196Y-100040748D01*
X137401632Y-100040900D01*
X137399537Y-100041461D01*
X137300961Y-100098373D01*
X136988205Y-100411128D01*
X136952991Y-100425714D01*
X136925325Y-100417321D01*
X136864122Y-100376427D01*
X136864120Y-100376426D01*
X136864118Y-100376424D01*
X136766387Y-100335944D01*
X136748469Y-100328522D01*
X136748465Y-100328521D01*
X136748459Y-100328519D01*
X136625693Y-100304100D01*
X136625691Y-100304100D01*
X136500509Y-100304100D01*
X136500506Y-100304100D01*
X136377740Y-100328519D01*
X136377732Y-100328521D01*
X136377731Y-100328522D01*
X136377727Y-100328523D01*
X136377726Y-100328524D01*
X136262081Y-100376424D01*
X136262079Y-100376426D01*
X136157995Y-100445971D01*
X136157993Y-100445974D01*
X136069474Y-100534493D01*
X136069471Y-100534495D01*
X136019807Y-100608825D01*
X135988116Y-100630001D01*
X135950733Y-100622565D01*
X135929557Y-100590874D01*
X135928600Y-100581158D01*
X135928600Y-84638375D01*
X136265800Y-84638375D01*
X136265800Y-84728824D01*
X136281021Y-84863925D01*
X136281023Y-84863934D01*
X136340955Y-85035214D01*
X136340956Y-85035216D01*
X136412013Y-85148301D01*
X136437507Y-85188874D01*
X136565826Y-85317193D01*
X136565828Y-85317194D01*
X136719483Y-85413743D01*
X136719485Y-85413744D01*
X136855040Y-85461175D01*
X136890770Y-85473678D01*
X137025871Y-85488900D01*
X137116328Y-85488899D01*
X137251430Y-85473678D01*
X137337074Y-85443710D01*
X137422714Y-85413744D01*
X137422716Y-85413743D01*
X137435451Y-85405741D01*
X137576374Y-85317193D01*
X137704693Y-85188874D01*
X137801242Y-85035218D01*
X137801243Y-85035216D01*
X137801244Y-85035214D01*
X137837574Y-84931387D01*
X137861178Y-84863930D01*
X137876400Y-84728829D01*
X137876399Y-84638372D01*
X137861178Y-84503270D01*
X137841761Y-84447779D01*
X137801244Y-84331985D01*
X137801243Y-84331983D01*
X137704694Y-84178328D01*
X137704693Y-84178326D01*
X137576374Y-84050007D01*
X137516783Y-84012563D01*
X137422716Y-83953456D01*
X137422714Y-83953455D01*
X137251434Y-83893523D01*
X137251426Y-83893521D01*
X137184727Y-83886006D01*
X137116329Y-83878300D01*
X137116324Y-83878300D01*
X137025875Y-83878300D01*
X136890774Y-83893521D01*
X136890765Y-83893523D01*
X136719485Y-83953455D01*
X136719483Y-83953456D01*
X136565828Y-84050005D01*
X136437505Y-84178328D01*
X136340956Y-84331983D01*
X136340955Y-84331985D01*
X136281023Y-84503265D01*
X136281021Y-84503273D01*
X136271965Y-84583652D01*
X136266004Y-84636566D01*
X136265800Y-84638375D01*
X135928600Y-84638375D01*
X135928600Y-82018961D01*
X136439600Y-82018961D01*
X136439600Y-82268238D01*
X136472134Y-82515357D01*
X136472136Y-82515364D01*
X136536646Y-82756121D01*
X136536650Y-82756132D01*
X136632035Y-82986412D01*
X136632039Y-82986419D01*
X136756666Y-83202282D01*
X136908402Y-83400028D01*
X136908408Y-83400035D01*
X137084664Y-83576291D01*
X137084671Y-83576297D01*
X137282417Y-83728033D01*
X137345646Y-83764538D01*
X137498284Y-83852663D01*
X137728571Y-83948051D01*
X137728576Y-83948052D01*
X137728578Y-83948053D01*
X137748750Y-83953458D01*
X137969340Y-84012565D01*
X138216469Y-84045100D01*
X138216473Y-84045100D01*
X138465727Y-84045100D01*
X138465731Y-84045100D01*
X138712860Y-84012565D01*
X138953629Y-83948051D01*
X139183916Y-83852663D01*
X139399784Y-83728032D01*
X139597536Y-83576291D01*
X139773791Y-83400036D01*
X139800966Y-83364619D01*
X139858985Y-83289009D01*
X154097900Y-83289009D01*
X154097900Y-83707000D01*
X154724500Y-83707000D01*
X154977700Y-83707000D01*
X155604299Y-83707000D01*
X155604299Y-83289013D01*
X155604298Y-83289003D01*
X155601351Y-83263595D01*
X155555444Y-83159623D01*
X155475076Y-83079255D01*
X155371111Y-83033350D01*
X155371105Y-83033349D01*
X155345690Y-83030400D01*
X154977700Y-83030400D01*
X154977700Y-83707000D01*
X154724500Y-83707000D01*
X154724500Y-83030400D01*
X154356513Y-83030400D01*
X154356503Y-83030401D01*
X154331095Y-83033348D01*
X154227123Y-83079255D01*
X154146755Y-83159623D01*
X154100850Y-83263588D01*
X154100849Y-83263594D01*
X154097900Y-83289009D01*
X139858985Y-83289009D01*
X139883350Y-83257257D01*
X139901917Y-83233058D01*
X139925532Y-83202284D01*
X140050163Y-82986416D01*
X140145551Y-82756129D01*
X140210065Y-82515360D01*
X140242600Y-82268231D01*
X140242600Y-82018969D01*
X140242599Y-82018961D01*
X156759600Y-82018961D01*
X156759600Y-82268238D01*
X156792134Y-82515357D01*
X156792136Y-82515364D01*
X156856646Y-82756121D01*
X156856650Y-82756132D01*
X156952035Y-82986412D01*
X156952039Y-82986419D01*
X157076666Y-83202282D01*
X157228402Y-83400028D01*
X157228408Y-83400035D01*
X157404664Y-83576291D01*
X157404671Y-83576297D01*
X157602417Y-83728033D01*
X157665646Y-83764538D01*
X157818284Y-83852663D01*
X158048571Y-83948051D01*
X158048576Y-83948052D01*
X158048578Y-83948053D01*
X158068750Y-83953458D01*
X158289340Y-84012565D01*
X158536469Y-84045100D01*
X158536473Y-84045100D01*
X158785727Y-84045100D01*
X158785731Y-84045100D01*
X159032860Y-84012565D01*
X159273629Y-83948051D01*
X159503916Y-83852663D01*
X159719784Y-83728032D01*
X159917536Y-83576291D01*
X160093791Y-83400036D01*
X160245532Y-83202284D01*
X160370163Y-82986416D01*
X160465551Y-82756129D01*
X160530065Y-82515360D01*
X160562600Y-82268231D01*
X160562600Y-82018969D01*
X160530065Y-81771840D01*
X160465551Y-81531071D01*
X160370163Y-81300784D01*
X160245532Y-81084916D01*
X160093797Y-80887171D01*
X160093791Y-80887164D01*
X159917535Y-80710908D01*
X159917528Y-80710902D01*
X159719782Y-80559166D01*
X159503919Y-80434539D01*
X159503916Y-80434537D01*
X159503914Y-80434536D01*
X159503912Y-80434535D01*
X159273632Y-80339150D01*
X159273621Y-80339146D01*
X159032864Y-80274636D01*
X159032857Y-80274634D01*
X158785738Y-80242100D01*
X158785731Y-80242100D01*
X158536469Y-80242100D01*
X158536461Y-80242100D01*
X158289342Y-80274634D01*
X158289335Y-80274636D01*
X158048578Y-80339146D01*
X158048567Y-80339150D01*
X157818287Y-80434535D01*
X157818280Y-80434539D01*
X157602417Y-80559166D01*
X157404671Y-80710902D01*
X157404664Y-80710908D01*
X157228408Y-80887164D01*
X157228402Y-80887171D01*
X157076666Y-81084917D01*
X156952039Y-81300780D01*
X156952035Y-81300787D01*
X156856650Y-81531067D01*
X156856646Y-81531078D01*
X156792136Y-81771835D01*
X156792134Y-81771842D01*
X156759600Y-82018961D01*
X140242599Y-82018961D01*
X140210065Y-81771840D01*
X140145551Y-81531071D01*
X140050163Y-81300784D01*
X139925532Y-81084916D01*
X139773797Y-80887171D01*
X139773791Y-80887164D01*
X139597535Y-80710908D01*
X139597528Y-80710902D01*
X139399782Y-80559166D01*
X139183919Y-80434539D01*
X139183916Y-80434537D01*
X139183914Y-80434536D01*
X139183912Y-80434535D01*
X138953632Y-80339150D01*
X138953621Y-80339146D01*
X138712864Y-80274636D01*
X138712857Y-80274634D01*
X138465738Y-80242100D01*
X138465731Y-80242100D01*
X138216469Y-80242100D01*
X138216461Y-80242100D01*
X137969342Y-80274634D01*
X137969335Y-80274636D01*
X137728578Y-80339146D01*
X137728567Y-80339150D01*
X137498287Y-80434535D01*
X137498280Y-80434539D01*
X137282417Y-80559166D01*
X137084671Y-80710902D01*
X137084664Y-80710908D01*
X136908408Y-80887164D01*
X136908402Y-80887171D01*
X136756666Y-81084917D01*
X136632039Y-81300780D01*
X136632035Y-81300787D01*
X136536650Y-81531067D01*
X136536646Y-81531078D01*
X136472136Y-81771835D01*
X136472134Y-81771842D01*
X136439600Y-82018961D01*
X135928600Y-82018961D01*
X135928600Y-79780900D01*
X135943186Y-79745686D01*
X135978400Y-79731100D01*
X143811197Y-79731100D01*
X143846411Y-79745686D01*
G37*
%TD.AperFunction*%
%TA.AperFunction,Conductor*%
G36*
X159442616Y-106152112D02*
G01*
X159453148Y-106157479D01*
X159639538Y-106218041D01*
X159639543Y-106218041D01*
X159639544Y-106218042D01*
X159679768Y-106224413D01*
X159712266Y-106244328D01*
X159721164Y-106281391D01*
X159701249Y-106313889D01*
X159679768Y-106322787D01*
X159639544Y-106329157D01*
X159639539Y-106329158D01*
X159639538Y-106329159D01*
X159577408Y-106349346D01*
X159453146Y-106389721D01*
X159278528Y-106478692D01*
X159278527Y-106478693D01*
X159119976Y-106593887D01*
X158981387Y-106732476D01*
X158866193Y-106891027D01*
X158866192Y-106891028D01*
X158777221Y-107065646D01*
X158716659Y-107252039D01*
X158716657Y-107252046D01*
X158686000Y-107445609D01*
X158686000Y-107641590D01*
X158716657Y-107835153D01*
X158716658Y-107835157D01*
X158716659Y-107835162D01*
X158757033Y-107959422D01*
X158777221Y-108021553D01*
X158866192Y-108196171D01*
X158866193Y-108196172D01*
X158977565Y-108349463D01*
X158981391Y-108354728D01*
X159119972Y-108493309D01*
X159278525Y-108608505D01*
X159278527Y-108608506D01*
X159278528Y-108608507D01*
X159344673Y-108642209D01*
X159453148Y-108697479D01*
X159639538Y-108758041D01*
X159639543Y-108758041D01*
X159639544Y-108758042D01*
X159679768Y-108764413D01*
X159712266Y-108784328D01*
X159721164Y-108821391D01*
X159701249Y-108853889D01*
X159679768Y-108862787D01*
X159639544Y-108869157D01*
X159639539Y-108869158D01*
X159639538Y-108869159D01*
X159606395Y-108879928D01*
X159453146Y-108929721D01*
X159278528Y-109018692D01*
X159278527Y-109018693D01*
X159119976Y-109133887D01*
X158981387Y-109272476D01*
X158866193Y-109431027D01*
X158866192Y-109431028D01*
X158777221Y-109605646D01*
X158749008Y-109692477D01*
X158717257Y-109790200D01*
X158716659Y-109792039D01*
X158716657Y-109792046D01*
X158686000Y-109985609D01*
X158686000Y-110181590D01*
X158716657Y-110375153D01*
X158716658Y-110375157D01*
X158716659Y-110375162D01*
X158746434Y-110466799D01*
X158777221Y-110561553D01*
X158866192Y-110736171D01*
X158866193Y-110736172D01*
X158866195Y-110736175D01*
X158894296Y-110774853D01*
X158965373Y-110872682D01*
X158981391Y-110894728D01*
X159119972Y-111033309D01*
X159278525Y-111148505D01*
X159278527Y-111148506D01*
X159278528Y-111148507D01*
X159453146Y-111237478D01*
X159453148Y-111237479D01*
X159639538Y-111298041D01*
X159833109Y-111328700D01*
X160029091Y-111328700D01*
X160222662Y-111298041D01*
X160409052Y-111237479D01*
X160583675Y-111148505D01*
X160742228Y-111033309D01*
X160880809Y-110894728D01*
X160983511Y-110753370D01*
X161016010Y-110733456D01*
X161053072Y-110742354D01*
X161072987Y-110774853D01*
X161073600Y-110782643D01*
X161073600Y-112030643D01*
X161059014Y-112065857D01*
X161023800Y-112080443D01*
X160988586Y-112065857D01*
X160979428Y-112053252D01*
X160951445Y-111998332D01*
X160841072Y-111846417D01*
X160708282Y-111713627D01*
X160556367Y-111603254D01*
X160389051Y-111518003D01*
X160210459Y-111459976D01*
X160210454Y-111459974D01*
X160057700Y-111435780D01*
X160057700Y-112131601D01*
X159997980Y-112115600D01*
X159864220Y-112115600D01*
X159804500Y-112131601D01*
X159804500Y-111435780D01*
X159651745Y-111459974D01*
X159651740Y-111459976D01*
X159473148Y-111518003D01*
X159305832Y-111603254D01*
X159153917Y-111713627D01*
X159021127Y-111846417D01*
X158910754Y-111998332D01*
X158825503Y-112165648D01*
X158767476Y-112344240D01*
X158767474Y-112344247D01*
X158743281Y-112497000D01*
X159439102Y-112497000D01*
X159423100Y-112556720D01*
X159423100Y-112690480D01*
X159439102Y-112750200D01*
X158743281Y-112750200D01*
X158767474Y-112902952D01*
X158767476Y-112902959D01*
X158825503Y-113081551D01*
X158910754Y-113248867D01*
X159021127Y-113400782D01*
X159153917Y-113533572D01*
X159305832Y-113643945D01*
X159473148Y-113729196D01*
X159651740Y-113787223D01*
X159651747Y-113787225D01*
X159804500Y-113811418D01*
X159804500Y-113115598D01*
X159864220Y-113131600D01*
X159997980Y-113131600D01*
X160057700Y-113115598D01*
X160057700Y-113811418D01*
X160210452Y-113787225D01*
X160210459Y-113787223D01*
X160389051Y-113729196D01*
X160556367Y-113643945D01*
X160708282Y-113533572D01*
X160841072Y-113400782D01*
X160951446Y-113248865D01*
X160951447Y-113248864D01*
X160979428Y-113193948D01*
X161008410Y-113169194D01*
X161046408Y-113172184D01*
X161071162Y-113201166D01*
X161073600Y-113216556D01*
X161073600Y-114464556D01*
X161059014Y-114499770D01*
X161023800Y-114514356D01*
X160988586Y-114499770D01*
X160983511Y-114493828D01*
X160880812Y-114352476D01*
X160880811Y-114352475D01*
X160880809Y-114352472D01*
X160742228Y-114213891D01*
X160742224Y-114213888D01*
X160742223Y-114213887D01*
X160583672Y-114098693D01*
X160583671Y-114098692D01*
X160409053Y-114009721D01*
X160346922Y-113989533D01*
X160222662Y-113949159D01*
X160222657Y-113949158D01*
X160222653Y-113949157D01*
X160029091Y-113918500D01*
X159833109Y-113918500D01*
X159639546Y-113949157D01*
X159639540Y-113949158D01*
X159639538Y-113949159D01*
X159577408Y-113969346D01*
X159453146Y-114009721D01*
X159278528Y-114098692D01*
X159278527Y-114098693D01*
X159119976Y-114213887D01*
X158981387Y-114352476D01*
X158866193Y-114511027D01*
X158866192Y-114511028D01*
X158777221Y-114685646D01*
X158716659Y-114872039D01*
X158716657Y-114872046D01*
X158686000Y-115065609D01*
X158686000Y-115261590D01*
X158716657Y-115455153D01*
X158716660Y-115455164D01*
X158739577Y-115525699D01*
X158736586Y-115563696D01*
X158727428Y-115576301D01*
X157936682Y-116367049D01*
X157830241Y-116473490D01*
X157829585Y-116472834D01*
X157799614Y-116490130D01*
X157774067Y-116486764D01*
X157716385Y-116462872D01*
X157703469Y-116457522D01*
X157703465Y-116457521D01*
X157703459Y-116457519D01*
X157580693Y-116433100D01*
X157580691Y-116433100D01*
X157514593Y-116433100D01*
X157479379Y-116418514D01*
X157329986Y-116269121D01*
X157315400Y-116233907D01*
X157315400Y-110455424D01*
X157329986Y-110420210D01*
X157365200Y-110405624D01*
X157384252Y-110409413D01*
X157459731Y-110440678D01*
X157459737Y-110440679D01*
X157459740Y-110440680D01*
X157501751Y-110449036D01*
X157582509Y-110465100D01*
X157582514Y-110465100D01*
X157707686Y-110465100D01*
X157707691Y-110465100D01*
X157830469Y-110440678D01*
X157922585Y-110402522D01*
X157946118Y-110392775D01*
X157946118Y-110392774D01*
X157946122Y-110392773D01*
X158050208Y-110323225D01*
X158138725Y-110234708D01*
X158208273Y-110130622D01*
X158256178Y-110014969D01*
X158280600Y-109892191D01*
X158280600Y-109767009D01*
X158262961Y-109678332D01*
X158256180Y-109644240D01*
X158256179Y-109644238D01*
X158256178Y-109644231D01*
X158211762Y-109537000D01*
X158208275Y-109528581D01*
X158208273Y-109528579D01*
X158208273Y-109528578D01*
X158175758Y-109479916D01*
X158138728Y-109424495D01*
X158091986Y-109377753D01*
X158077400Y-109342539D01*
X158077400Y-107489292D01*
X158091985Y-107454079D01*
X159384794Y-106161269D01*
X159420007Y-106146684D01*
X159442616Y-106152112D01*
G37*
%TD.AperFunction*%
%TD*%
M02*
