%TF.GenerationSoftware,KiCad,Pcbnew,9.0.6*%
%TF.CreationDate,2026-01-24T16:26:05+08:00*%
%TF.ProjectId,XM125_Breakout,584d3132-355f-4427-9265-616b6f75742e,rev?*%
%TF.SameCoordinates,Original*%
%TF.FileFunction,Legend,Top*%
%TF.FilePolarity,Positive*%
%FSLAX46Y46*%
G04 Gerber Fmt 4.6, Leading zero omitted, Abs format (unit mm)*
G04 Created by KiCad (PCBNEW 9.0.6) date 2026-01-24 16:26:05*
%MOMM*%
%LPD*%
G01*
G04 APERTURE LIST*
G04 Aperture macros list*
%AMRoundRect*
0 Rectangle with rounded corners*
0 $1 Rounding radius*
0 $2 $3 $4 $5 $6 $7 $8 $9 X,Y pos of 4 corners*
0 Add a 4 corners polygon primitive as box body*
4,1,4,$2,$3,$4,$5,$6,$7,$8,$9,$2,$3,0*
0 Add four circle primitives for the rounded corners*
1,1,$1+$1,$2,$3*
1,1,$1+$1,$4,$5*
1,1,$1+$1,$6,$7*
1,1,$1+$1,$8,$9*
0 Add four rect primitives between the rounded corners*
20,1,$1+$1,$2,$3,$4,$5,0*
20,1,$1+$1,$4,$5,$6,$7,0*
20,1,$1+$1,$6,$7,$8,$9,0*
20,1,$1+$1,$8,$9,$2,$3,0*%
G04 Aperture macros list end*
%ADD10C,0.200000*%
%ADD11C,0.000000*%
%ADD12C,0.152400*%
%ADD13C,0.203200*%
%ADD14C,3.302000*%
%ADD15RoundRect,0.576200X-0.000010X-0.000010X0.000010X-0.000010X0.000010X0.000010X-0.000010X0.000010X0*%
%ADD16RoundRect,0.058949X-1.217251X-0.492251X1.217251X-0.492251X1.217251X0.492251X-1.217251X0.492251X0*%
%ADD17RoundRect,0.060960X0.777240X-0.396240X0.777240X0.396240X-0.777240X0.396240X-0.777240X-0.396240X0*%
%ADD18C,0.650000*%
%ADD19RoundRect,0.076606X-0.149594X-0.499594X0.149594X-0.499594X0.149594X0.499594X-0.149594X0.499594X0*%
%ADD20RoundRect,0.076606X0.149594X0.499594X-0.149594X0.499594X-0.149594X-0.499594X0.149594X-0.499594X0*%
%ADD21RoundRect,0.063703X-0.312497X-0.512497X0.312497X-0.512497X0.312497X0.512497X-0.312497X0.512497X0*%
%ADD22RoundRect,0.063703X0.312497X0.512497X-0.312497X0.512497X-0.312497X-0.512497X0.312497X-0.512497X0*%
%ADD23RoundRect,0.062523X-0.343877X-0.648677X0.343877X-0.648677X0.343877X0.648677X-0.343877X0.648677X0*%
%ADD24RoundRect,0.172860X0.403340X-0.403340X0.403340X0.403340X-0.403340X0.403340X-0.403340X-0.403340X0*%
%ADD25RoundRect,0.063703X0.687497X-0.312497X0.687497X0.312497X-0.687497X0.312497X-0.687497X-0.312497X0*%
%ADD26RoundRect,0.057252X1.018948X-0.618948X1.018948X0.618948X-1.018948X0.618948X-1.018948X-0.618948X0*%
%ADD27C,2.032000*%
%ADD28RoundRect,0.062523X0.648677X-0.343877X0.648677X0.343877X-0.648677X0.343877X-0.648677X-0.343877X0*%
%ADD29RoundRect,0.062992X-0.330708X-0.648208X0.330708X-0.648208X0.330708X0.648208X-0.330708X0.648208X0*%
%ADD30RoundRect,0.058542X0.567658X0.517658X-0.567658X0.517658X-0.567658X-0.517658X0.567658X-0.517658X0*%
%ADD31RoundRect,0.062523X0.343877X0.648677X-0.343877X0.648677X-0.343877X-0.648677X0.343877X-0.648677X0*%
%ADD32RoundRect,0.063703X-0.687497X0.312497X-0.687497X-0.312497X0.687497X-0.312497X0.687497X0.312497X0*%
%ADD33RoundRect,0.057252X-1.018948X0.618948X-1.018948X-0.618948X1.018948X-0.618948X1.018948X0.618948X0*%
G04 APERTURE END LIST*
D10*
X139263004Y-117795847D02*
X139263004Y-116795847D01*
X139263004Y-117748228D02*
X139167766Y-117795847D01*
X139167766Y-117795847D02*
X138977290Y-117795847D01*
X138977290Y-117795847D02*
X138882052Y-117748228D01*
X138882052Y-117748228D02*
X138834433Y-117700608D01*
X138834433Y-117700608D02*
X138786814Y-117605370D01*
X138786814Y-117605370D02*
X138786814Y-117319656D01*
X138786814Y-117319656D02*
X138834433Y-117224418D01*
X138834433Y-117224418D02*
X138882052Y-117176799D01*
X138882052Y-117176799D02*
X138977290Y-117129180D01*
X138977290Y-117129180D02*
X139167766Y-117129180D01*
X139167766Y-117129180D02*
X139263004Y-117176799D01*
X140120147Y-117748228D02*
X140024909Y-117795847D01*
X140024909Y-117795847D02*
X139834433Y-117795847D01*
X139834433Y-117795847D02*
X139739195Y-117748228D01*
X139739195Y-117748228D02*
X139691576Y-117652989D01*
X139691576Y-117652989D02*
X139691576Y-117272037D01*
X139691576Y-117272037D02*
X139739195Y-117176799D01*
X139739195Y-117176799D02*
X139834433Y-117129180D01*
X139834433Y-117129180D02*
X140024909Y-117129180D01*
X140024909Y-117129180D02*
X140120147Y-117176799D01*
X140120147Y-117176799D02*
X140167766Y-117272037D01*
X140167766Y-117272037D02*
X140167766Y-117367275D01*
X140167766Y-117367275D02*
X139691576Y-117462513D01*
X140548719Y-117748228D02*
X140643957Y-117795847D01*
X140643957Y-117795847D02*
X140834433Y-117795847D01*
X140834433Y-117795847D02*
X140929671Y-117748228D01*
X140929671Y-117748228D02*
X140977290Y-117652989D01*
X140977290Y-117652989D02*
X140977290Y-117605370D01*
X140977290Y-117605370D02*
X140929671Y-117510132D01*
X140929671Y-117510132D02*
X140834433Y-117462513D01*
X140834433Y-117462513D02*
X140691576Y-117462513D01*
X140691576Y-117462513D02*
X140596338Y-117414894D01*
X140596338Y-117414894D02*
X140548719Y-117319656D01*
X140548719Y-117319656D02*
X140548719Y-117272037D01*
X140548719Y-117272037D02*
X140596338Y-117176799D01*
X140596338Y-117176799D02*
X140691576Y-117129180D01*
X140691576Y-117129180D02*
X140834433Y-117129180D01*
X140834433Y-117129180D02*
X140929671Y-117176799D01*
X141405862Y-117795847D02*
X141405862Y-117129180D01*
X141405862Y-116795847D02*
X141358243Y-116843466D01*
X141358243Y-116843466D02*
X141405862Y-116891085D01*
X141405862Y-116891085D02*
X141453481Y-116843466D01*
X141453481Y-116843466D02*
X141405862Y-116795847D01*
X141405862Y-116795847D02*
X141405862Y-116891085D01*
X142310623Y-117129180D02*
X142310623Y-117938704D01*
X142310623Y-117938704D02*
X142263004Y-118033942D01*
X142263004Y-118033942D02*
X142215385Y-118081561D01*
X142215385Y-118081561D02*
X142120147Y-118129180D01*
X142120147Y-118129180D02*
X141977290Y-118129180D01*
X141977290Y-118129180D02*
X141882052Y-118081561D01*
X142310623Y-117748228D02*
X142215385Y-117795847D01*
X142215385Y-117795847D02*
X142024909Y-117795847D01*
X142024909Y-117795847D02*
X141929671Y-117748228D01*
X141929671Y-117748228D02*
X141882052Y-117700608D01*
X141882052Y-117700608D02*
X141834433Y-117605370D01*
X141834433Y-117605370D02*
X141834433Y-117319656D01*
X141834433Y-117319656D02*
X141882052Y-117224418D01*
X141882052Y-117224418D02*
X141929671Y-117176799D01*
X141929671Y-117176799D02*
X142024909Y-117129180D01*
X142024909Y-117129180D02*
X142215385Y-117129180D01*
X142215385Y-117129180D02*
X142310623Y-117176799D01*
X142786814Y-117129180D02*
X142786814Y-117795847D01*
X142786814Y-117224418D02*
X142834433Y-117176799D01*
X142834433Y-117176799D02*
X142929671Y-117129180D01*
X142929671Y-117129180D02*
X143072528Y-117129180D01*
X143072528Y-117129180D02*
X143167766Y-117176799D01*
X143167766Y-117176799D02*
X143215385Y-117272037D01*
X143215385Y-117272037D02*
X143215385Y-117795847D01*
X144596338Y-117795847D02*
X144501100Y-117748228D01*
X144501100Y-117748228D02*
X144453481Y-117700608D01*
X144453481Y-117700608D02*
X144405862Y-117605370D01*
X144405862Y-117605370D02*
X144405862Y-117319656D01*
X144405862Y-117319656D02*
X144453481Y-117224418D01*
X144453481Y-117224418D02*
X144501100Y-117176799D01*
X144501100Y-117176799D02*
X144596338Y-117129180D01*
X144596338Y-117129180D02*
X144739195Y-117129180D01*
X144739195Y-117129180D02*
X144834433Y-117176799D01*
X144834433Y-117176799D02*
X144882052Y-117224418D01*
X144882052Y-117224418D02*
X144929671Y-117319656D01*
X144929671Y-117319656D02*
X144929671Y-117605370D01*
X144929671Y-117605370D02*
X144882052Y-117700608D01*
X144882052Y-117700608D02*
X144834433Y-117748228D01*
X144834433Y-117748228D02*
X144739195Y-117795847D01*
X144739195Y-117795847D02*
X144596338Y-117795847D01*
X145215386Y-117129180D02*
X145596338Y-117129180D01*
X145358243Y-117795847D02*
X145358243Y-116938704D01*
X145358243Y-116938704D02*
X145405862Y-116843466D01*
X145405862Y-116843466D02*
X145501100Y-116795847D01*
X145501100Y-116795847D02*
X145596338Y-116795847D01*
X146643958Y-116891085D02*
X146691577Y-116843466D01*
X146691577Y-116843466D02*
X146786815Y-116795847D01*
X146786815Y-116795847D02*
X147024910Y-116795847D01*
X147024910Y-116795847D02*
X147120148Y-116843466D01*
X147120148Y-116843466D02*
X147167767Y-116891085D01*
X147167767Y-116891085D02*
X147215386Y-116986323D01*
X147215386Y-116986323D02*
X147215386Y-117081561D01*
X147215386Y-117081561D02*
X147167767Y-117224418D01*
X147167767Y-117224418D02*
X146596339Y-117795847D01*
X146596339Y-117795847D02*
X147215386Y-117795847D01*
X147643958Y-117414894D02*
X148405863Y-117414894D01*
X149453481Y-117700608D02*
X149405862Y-117748228D01*
X149405862Y-117748228D02*
X149263005Y-117795847D01*
X149263005Y-117795847D02*
X149167767Y-117795847D01*
X149167767Y-117795847D02*
X149024910Y-117748228D01*
X149024910Y-117748228D02*
X148929672Y-117652989D01*
X148929672Y-117652989D02*
X148882053Y-117557751D01*
X148882053Y-117557751D02*
X148834434Y-117367275D01*
X148834434Y-117367275D02*
X148834434Y-117224418D01*
X148834434Y-117224418D02*
X148882053Y-117033942D01*
X148882053Y-117033942D02*
X148929672Y-116938704D01*
X148929672Y-116938704D02*
X149024910Y-116843466D01*
X149024910Y-116843466D02*
X149167767Y-116795847D01*
X149167767Y-116795847D02*
X149263005Y-116795847D01*
X149263005Y-116795847D02*
X149405862Y-116843466D01*
X149405862Y-116843466D02*
X149453481Y-116891085D01*
X149882053Y-117795847D02*
X149882053Y-116795847D01*
X150310624Y-117795847D02*
X150310624Y-117272037D01*
X150310624Y-117272037D02*
X150263005Y-117176799D01*
X150263005Y-117176799D02*
X150167767Y-117129180D01*
X150167767Y-117129180D02*
X150024910Y-117129180D01*
X150024910Y-117129180D02*
X149929672Y-117176799D01*
X149929672Y-117176799D02*
X149882053Y-117224418D01*
X151215386Y-117795847D02*
X151215386Y-117272037D01*
X151215386Y-117272037D02*
X151167767Y-117176799D01*
X151167767Y-117176799D02*
X151072529Y-117129180D01*
X151072529Y-117129180D02*
X150882053Y-117129180D01*
X150882053Y-117129180D02*
X150786815Y-117176799D01*
X151215386Y-117748228D02*
X151120148Y-117795847D01*
X151120148Y-117795847D02*
X150882053Y-117795847D01*
X150882053Y-117795847D02*
X150786815Y-117748228D01*
X150786815Y-117748228D02*
X150739196Y-117652989D01*
X150739196Y-117652989D02*
X150739196Y-117557751D01*
X150739196Y-117557751D02*
X150786815Y-117462513D01*
X150786815Y-117462513D02*
X150882053Y-117414894D01*
X150882053Y-117414894D02*
X151120148Y-117414894D01*
X151120148Y-117414894D02*
X151215386Y-117367275D01*
X151691577Y-117795847D02*
X151691577Y-117129180D01*
X151691577Y-116795847D02*
X151643958Y-116843466D01*
X151643958Y-116843466D02*
X151691577Y-116891085D01*
X151691577Y-116891085D02*
X151739196Y-116843466D01*
X151739196Y-116843466D02*
X151691577Y-116795847D01*
X151691577Y-116795847D02*
X151691577Y-116891085D01*
X152167767Y-117795847D02*
X152167767Y-117129180D01*
X152167767Y-117319656D02*
X152215386Y-117224418D01*
X152215386Y-117224418D02*
X152263005Y-117176799D01*
X152263005Y-117176799D02*
X152358243Y-117129180D01*
X152358243Y-117129180D02*
X152453481Y-117129180D01*
X152739196Y-117748228D02*
X152834434Y-117795847D01*
X152834434Y-117795847D02*
X153024910Y-117795847D01*
X153024910Y-117795847D02*
X153120148Y-117748228D01*
X153120148Y-117748228D02*
X153167767Y-117652989D01*
X153167767Y-117652989D02*
X153167767Y-117605370D01*
X153167767Y-117605370D02*
X153120148Y-117510132D01*
X153120148Y-117510132D02*
X153024910Y-117462513D01*
X153024910Y-117462513D02*
X152882053Y-117462513D01*
X152882053Y-117462513D02*
X152786815Y-117414894D01*
X152786815Y-117414894D02*
X152739196Y-117319656D01*
X152739196Y-117319656D02*
X152739196Y-117272037D01*
X152739196Y-117272037D02*
X152786815Y-117176799D01*
X152786815Y-117176799D02*
X152882053Y-117129180D01*
X152882053Y-117129180D02*
X153024910Y-117129180D01*
X153024910Y-117129180D02*
X153120148Y-117176799D01*
X153596339Y-117700608D02*
X153643958Y-117748228D01*
X153643958Y-117748228D02*
X153596339Y-117795847D01*
X153596339Y-117795847D02*
X153548720Y-117748228D01*
X153548720Y-117748228D02*
X153596339Y-117700608D01*
X153596339Y-117700608D02*
X153596339Y-117795847D01*
X154786815Y-116891085D02*
X154834434Y-116843466D01*
X154834434Y-116843466D02*
X154929672Y-116795847D01*
X154929672Y-116795847D02*
X155167767Y-116795847D01*
X155167767Y-116795847D02*
X155263005Y-116843466D01*
X155263005Y-116843466D02*
X155310624Y-116891085D01*
X155310624Y-116891085D02*
X155358243Y-116986323D01*
X155358243Y-116986323D02*
X155358243Y-117081561D01*
X155358243Y-117081561D02*
X155310624Y-117224418D01*
X155310624Y-117224418D02*
X154739196Y-117795847D01*
X154739196Y-117795847D02*
X155358243Y-117795847D01*
X155977291Y-116795847D02*
X156072529Y-116795847D01*
X156072529Y-116795847D02*
X156167767Y-116843466D01*
X156167767Y-116843466D02*
X156215386Y-116891085D01*
X156215386Y-116891085D02*
X156263005Y-116986323D01*
X156263005Y-116986323D02*
X156310624Y-117176799D01*
X156310624Y-117176799D02*
X156310624Y-117414894D01*
X156310624Y-117414894D02*
X156263005Y-117605370D01*
X156263005Y-117605370D02*
X156215386Y-117700608D01*
X156215386Y-117700608D02*
X156167767Y-117748228D01*
X156167767Y-117748228D02*
X156072529Y-117795847D01*
X156072529Y-117795847D02*
X155977291Y-117795847D01*
X155977291Y-117795847D02*
X155882053Y-117748228D01*
X155882053Y-117748228D02*
X155834434Y-117700608D01*
X155834434Y-117700608D02*
X155786815Y-117605370D01*
X155786815Y-117605370D02*
X155739196Y-117414894D01*
X155739196Y-117414894D02*
X155739196Y-117176799D01*
X155739196Y-117176799D02*
X155786815Y-116986323D01*
X155786815Y-116986323D02*
X155834434Y-116891085D01*
X155834434Y-116891085D02*
X155882053Y-116843466D01*
X155882053Y-116843466D02*
X155977291Y-116795847D01*
X156691577Y-116891085D02*
X156739196Y-116843466D01*
X156739196Y-116843466D02*
X156834434Y-116795847D01*
X156834434Y-116795847D02*
X157072529Y-116795847D01*
X157072529Y-116795847D02*
X157167767Y-116843466D01*
X157167767Y-116843466D02*
X157215386Y-116891085D01*
X157215386Y-116891085D02*
X157263005Y-116986323D01*
X157263005Y-116986323D02*
X157263005Y-117081561D01*
X157263005Y-117081561D02*
X157215386Y-117224418D01*
X157215386Y-117224418D02*
X156643958Y-117795847D01*
X156643958Y-117795847D02*
X157263005Y-117795847D01*
X158167767Y-116795847D02*
X157691577Y-116795847D01*
X157691577Y-116795847D02*
X157643958Y-117272037D01*
X157643958Y-117272037D02*
X157691577Y-117224418D01*
X157691577Y-117224418D02*
X157786815Y-117176799D01*
X157786815Y-117176799D02*
X158024910Y-117176799D01*
X158024910Y-117176799D02*
X158120148Y-117224418D01*
X158120148Y-117224418D02*
X158167767Y-117272037D01*
X158167767Y-117272037D02*
X158215386Y-117367275D01*
X158215386Y-117367275D02*
X158215386Y-117605370D01*
X158215386Y-117605370D02*
X158167767Y-117700608D01*
X158167767Y-117700608D02*
X158120148Y-117748228D01*
X158120148Y-117748228D02*
X158024910Y-117795847D01*
X158024910Y-117795847D02*
X157786815Y-117795847D01*
X157786815Y-117795847D02*
X157691577Y-117748228D01*
X157691577Y-117748228D02*
X157643958Y-117700608D01*
X138215384Y-118405791D02*
X138215384Y-119120076D01*
X138215384Y-119120076D02*
X138167765Y-119262933D01*
X138167765Y-119262933D02*
X138072527Y-119358172D01*
X138072527Y-119358172D02*
X137929670Y-119405791D01*
X137929670Y-119405791D02*
X137834432Y-119405791D01*
X139167765Y-119405791D02*
X138691575Y-119405791D01*
X138691575Y-119405791D02*
X138691575Y-118405791D01*
X140072527Y-119310552D02*
X140024908Y-119358172D01*
X140024908Y-119358172D02*
X139882051Y-119405791D01*
X139882051Y-119405791D02*
X139786813Y-119405791D01*
X139786813Y-119405791D02*
X139643956Y-119358172D01*
X139643956Y-119358172D02*
X139548718Y-119262933D01*
X139548718Y-119262933D02*
X139501099Y-119167695D01*
X139501099Y-119167695D02*
X139453480Y-118977219D01*
X139453480Y-118977219D02*
X139453480Y-118834362D01*
X139453480Y-118834362D02*
X139501099Y-118643886D01*
X139501099Y-118643886D02*
X139548718Y-118548648D01*
X139548718Y-118548648D02*
X139643956Y-118453410D01*
X139643956Y-118453410D02*
X139786813Y-118405791D01*
X139786813Y-118405791D02*
X139882051Y-118405791D01*
X139882051Y-118405791D02*
X140024908Y-118453410D01*
X140024908Y-118453410D02*
X140072527Y-118501029D01*
X141453480Y-118405791D02*
X141643956Y-118405791D01*
X141643956Y-118405791D02*
X141739194Y-118453410D01*
X141739194Y-118453410D02*
X141834432Y-118548648D01*
X141834432Y-118548648D02*
X141882051Y-118739124D01*
X141882051Y-118739124D02*
X141882051Y-119072457D01*
X141882051Y-119072457D02*
X141834432Y-119262933D01*
X141834432Y-119262933D02*
X141739194Y-119358172D01*
X141739194Y-119358172D02*
X141643956Y-119405791D01*
X141643956Y-119405791D02*
X141453480Y-119405791D01*
X141453480Y-119405791D02*
X141358242Y-119358172D01*
X141358242Y-119358172D02*
X141263004Y-119262933D01*
X141263004Y-119262933D02*
X141215385Y-119072457D01*
X141215385Y-119072457D02*
X141215385Y-118739124D01*
X141215385Y-118739124D02*
X141263004Y-118548648D01*
X141263004Y-118548648D02*
X141358242Y-118453410D01*
X141358242Y-118453410D02*
X141453480Y-118405791D01*
X142310623Y-119405791D02*
X142310623Y-118739124D01*
X142310623Y-118929600D02*
X142358242Y-118834362D01*
X142358242Y-118834362D02*
X142405861Y-118786743D01*
X142405861Y-118786743D02*
X142501099Y-118739124D01*
X142501099Y-118739124D02*
X142596337Y-118739124D01*
X143358242Y-119405791D02*
X143358242Y-118405791D01*
X143358242Y-119358172D02*
X143263004Y-119405791D01*
X143263004Y-119405791D02*
X143072528Y-119405791D01*
X143072528Y-119405791D02*
X142977290Y-119358172D01*
X142977290Y-119358172D02*
X142929671Y-119310552D01*
X142929671Y-119310552D02*
X142882052Y-119215314D01*
X142882052Y-119215314D02*
X142882052Y-118929600D01*
X142882052Y-118929600D02*
X142929671Y-118834362D01*
X142929671Y-118834362D02*
X142977290Y-118786743D01*
X142977290Y-118786743D02*
X143072528Y-118739124D01*
X143072528Y-118739124D02*
X143263004Y-118739124D01*
X143263004Y-118739124D02*
X143358242Y-118786743D01*
X144215385Y-119358172D02*
X144120147Y-119405791D01*
X144120147Y-119405791D02*
X143929671Y-119405791D01*
X143929671Y-119405791D02*
X143834433Y-119358172D01*
X143834433Y-119358172D02*
X143786814Y-119262933D01*
X143786814Y-119262933D02*
X143786814Y-118881981D01*
X143786814Y-118881981D02*
X143834433Y-118786743D01*
X143834433Y-118786743D02*
X143929671Y-118739124D01*
X143929671Y-118739124D02*
X144120147Y-118739124D01*
X144120147Y-118739124D02*
X144215385Y-118786743D01*
X144215385Y-118786743D02*
X144263004Y-118881981D01*
X144263004Y-118881981D02*
X144263004Y-118977219D01*
X144263004Y-118977219D02*
X143786814Y-119072457D01*
X144691576Y-119405791D02*
X144691576Y-118739124D01*
X144691576Y-118929600D02*
X144739195Y-118834362D01*
X144739195Y-118834362D02*
X144786814Y-118786743D01*
X144786814Y-118786743D02*
X144882052Y-118739124D01*
X144882052Y-118739124D02*
X144977290Y-118739124D01*
X146072529Y-119405791D02*
X146072529Y-118405791D01*
X146072529Y-118405791D02*
X146643957Y-119405791D01*
X146643957Y-119405791D02*
X146643957Y-118405791D01*
X147263005Y-119405791D02*
X147167767Y-119358172D01*
X147167767Y-119358172D02*
X147120148Y-119310552D01*
X147120148Y-119310552D02*
X147072529Y-119215314D01*
X147072529Y-119215314D02*
X147072529Y-118929600D01*
X147072529Y-118929600D02*
X147120148Y-118834362D01*
X147120148Y-118834362D02*
X147167767Y-118786743D01*
X147167767Y-118786743D02*
X147263005Y-118739124D01*
X147263005Y-118739124D02*
X147405862Y-118739124D01*
X147405862Y-118739124D02*
X147501100Y-118786743D01*
X147501100Y-118786743D02*
X147548719Y-118834362D01*
X147548719Y-118834362D02*
X147596338Y-118929600D01*
X147596338Y-118929600D02*
X147596338Y-119215314D01*
X147596338Y-119215314D02*
X147548719Y-119310552D01*
X147548719Y-119310552D02*
X147501100Y-119358172D01*
X147501100Y-119358172D02*
X147405862Y-119405791D01*
X147405862Y-119405791D02*
X147263005Y-119405791D01*
X148024910Y-119310552D02*
X148072529Y-119358172D01*
X148072529Y-119358172D02*
X148024910Y-119405791D01*
X148024910Y-119405791D02*
X147977291Y-119358172D01*
X147977291Y-119358172D02*
X148024910Y-119310552D01*
X148024910Y-119310552D02*
X148024910Y-119405791D01*
X149548719Y-118405791D02*
X149548719Y-119120076D01*
X149548719Y-119120076D02*
X149501100Y-119262933D01*
X149501100Y-119262933D02*
X149405862Y-119358172D01*
X149405862Y-119358172D02*
X149263005Y-119405791D01*
X149263005Y-119405791D02*
X149167767Y-119405791D01*
X150501100Y-119405791D02*
X150024910Y-119405791D01*
X150024910Y-119405791D02*
X150024910Y-118405791D01*
X151405862Y-119310552D02*
X151358243Y-119358172D01*
X151358243Y-119358172D02*
X151215386Y-119405791D01*
X151215386Y-119405791D02*
X151120148Y-119405791D01*
X151120148Y-119405791D02*
X150977291Y-119358172D01*
X150977291Y-119358172D02*
X150882053Y-119262933D01*
X150882053Y-119262933D02*
X150834434Y-119167695D01*
X150834434Y-119167695D02*
X150786815Y-118977219D01*
X150786815Y-118977219D02*
X150786815Y-118834362D01*
X150786815Y-118834362D02*
X150834434Y-118643886D01*
X150834434Y-118643886D02*
X150882053Y-118548648D01*
X150882053Y-118548648D02*
X150977291Y-118453410D01*
X150977291Y-118453410D02*
X151120148Y-118405791D01*
X151120148Y-118405791D02*
X151215386Y-118405791D01*
X151215386Y-118405791D02*
X151358243Y-118453410D01*
X151358243Y-118453410D02*
X151405862Y-118501029D01*
X152120148Y-118405791D02*
X152120148Y-119120076D01*
X152120148Y-119120076D02*
X152072529Y-119262933D01*
X152072529Y-119262933D02*
X151977291Y-119358172D01*
X151977291Y-119358172D02*
X151834434Y-119405791D01*
X151834434Y-119405791D02*
X151739196Y-119405791D01*
X153072529Y-119405791D02*
X152596339Y-119405791D01*
X152596339Y-119405791D02*
X152596339Y-118405791D01*
X153977291Y-119310552D02*
X153929672Y-119358172D01*
X153929672Y-119358172D02*
X153786815Y-119405791D01*
X153786815Y-119405791D02*
X153691577Y-119405791D01*
X153691577Y-119405791D02*
X153548720Y-119358172D01*
X153548720Y-119358172D02*
X153453482Y-119262933D01*
X153453482Y-119262933D02*
X153405863Y-119167695D01*
X153405863Y-119167695D02*
X153358244Y-118977219D01*
X153358244Y-118977219D02*
X153358244Y-118834362D01*
X153358244Y-118834362D02*
X153405863Y-118643886D01*
X153405863Y-118643886D02*
X153453482Y-118548648D01*
X153453482Y-118548648D02*
X153548720Y-118453410D01*
X153548720Y-118453410D02*
X153691577Y-118405791D01*
X153691577Y-118405791D02*
X153786815Y-118405791D01*
X153786815Y-118405791D02*
X153929672Y-118453410D01*
X153929672Y-118453410D02*
X153977291Y-118501029D01*
X154691577Y-118405791D02*
X154691577Y-119120076D01*
X154691577Y-119120076D02*
X154643958Y-119262933D01*
X154643958Y-119262933D02*
X154548720Y-119358172D01*
X154548720Y-119358172D02*
X154405863Y-119405791D01*
X154405863Y-119405791D02*
X154310625Y-119405791D01*
X155643958Y-119405791D02*
X155167768Y-119405791D01*
X155167768Y-119405791D02*
X155167768Y-118405791D01*
X156548720Y-119310552D02*
X156501101Y-119358172D01*
X156501101Y-119358172D02*
X156358244Y-119405791D01*
X156358244Y-119405791D02*
X156263006Y-119405791D01*
X156263006Y-119405791D02*
X156120149Y-119358172D01*
X156120149Y-119358172D02*
X156024911Y-119262933D01*
X156024911Y-119262933D02*
X155977292Y-119167695D01*
X155977292Y-119167695D02*
X155929673Y-118977219D01*
X155929673Y-118977219D02*
X155929673Y-118834362D01*
X155929673Y-118834362D02*
X155977292Y-118643886D01*
X155977292Y-118643886D02*
X156024911Y-118548648D01*
X156024911Y-118548648D02*
X156120149Y-118453410D01*
X156120149Y-118453410D02*
X156263006Y-118405791D01*
X156263006Y-118405791D02*
X156358244Y-118405791D01*
X156358244Y-118405791D02*
X156501101Y-118453410D01*
X156501101Y-118453410D02*
X156548720Y-118501029D01*
X157263006Y-118405791D02*
X157263006Y-119120076D01*
X157263006Y-119120076D02*
X157215387Y-119262933D01*
X157215387Y-119262933D02*
X157120149Y-119358172D01*
X157120149Y-119358172D02*
X156977292Y-119405791D01*
X156977292Y-119405791D02*
X156882054Y-119405791D01*
X158215387Y-119405791D02*
X157739197Y-119405791D01*
X157739197Y-119405791D02*
X157739197Y-118405791D01*
X159120149Y-119310552D02*
X159072530Y-119358172D01*
X159072530Y-119358172D02*
X158929673Y-119405791D01*
X158929673Y-119405791D02*
X158834435Y-119405791D01*
X158834435Y-119405791D02*
X158691578Y-119358172D01*
X158691578Y-119358172D02*
X158596340Y-119262933D01*
X158596340Y-119262933D02*
X158548721Y-119167695D01*
X158548721Y-119167695D02*
X158501102Y-118977219D01*
X158501102Y-118977219D02*
X158501102Y-118834362D01*
X158501102Y-118834362D02*
X158548721Y-118643886D01*
X158548721Y-118643886D02*
X158596340Y-118548648D01*
X158596340Y-118548648D02*
X158691578Y-118453410D01*
X158691578Y-118453410D02*
X158834435Y-118405791D01*
X158834435Y-118405791D02*
X158929673Y-118405791D01*
X158929673Y-118405791D02*
X159072530Y-118453410D01*
X159072530Y-118453410D02*
X159120149Y-118501029D01*
D11*
%TO.C,LOGO6*%
G36*
X146855872Y-90139500D02*
G01*
X146915873Y-90139500D01*
X146973002Y-90150926D01*
X147023003Y-90170927D01*
X147073002Y-90180926D01*
X147130929Y-90204097D01*
X147259314Y-90300386D01*
X147294641Y-90347488D01*
X147316886Y-90391979D01*
X147338774Y-90446698D01*
X147350200Y-90503827D01*
X147350200Y-91368605D01*
X147360200Y-91388606D01*
X147360200Y-91478605D01*
X147370200Y-91498606D01*
X147370200Y-91518605D01*
X147380200Y-91538606D01*
X147380200Y-91568605D01*
X147383413Y-91575031D01*
X147400200Y-91591818D01*
X147400200Y-91655700D01*
X146934000Y-91655700D01*
X146934000Y-91623382D01*
X146924000Y-91613382D01*
X146924000Y-91603382D01*
X146914000Y-91593382D01*
X146914000Y-91563382D01*
X146912100Y-91561481D01*
X146896373Y-91577208D01*
X146858989Y-91602131D01*
X146828989Y-91612131D01*
X146798989Y-91632131D01*
X146668283Y-91675700D01*
X146638283Y-91675700D01*
X146608283Y-91685700D01*
X146568283Y-91685700D01*
X146538283Y-91695700D01*
X146418327Y-91695700D01*
X146368328Y-91685700D01*
X146317410Y-91685700D01*
X146270351Y-91673935D01*
X146216479Y-91652386D01*
X146172940Y-91630617D01*
X146142943Y-91610619D01*
X146099531Y-91588913D01*
X146062492Y-91551873D01*
X146040988Y-91519616D01*
X146010985Y-91479614D01*
X145986218Y-91442463D01*
X145975741Y-91390076D01*
X145954000Y-91346594D01*
X145954000Y-91291371D01*
X145943314Y-91237940D01*
X145965099Y-91118120D01*
X145997148Y-91021973D01*
X146042294Y-90942967D01*
X146120054Y-90876316D01*
X146195855Y-90833001D01*
X146280754Y-90801164D01*
X146365346Y-90780016D01*
X146487205Y-90766476D01*
X146591853Y-91041177D01*
X146526719Y-91062888D01*
X146514669Y-91068913D01*
X146504669Y-91078913D01*
X146464669Y-91098913D01*
X146454669Y-91108913D01*
X146440499Y-91115998D01*
X146420200Y-91156595D01*
X146420200Y-91176594D01*
X146410200Y-91196594D01*
X146410200Y-91231417D01*
X146420200Y-91261417D01*
X146420200Y-91278605D01*
X146423413Y-91285031D01*
X146433413Y-91295031D01*
X146440499Y-91309201D01*
X146454669Y-91316287D01*
X146464669Y-91326287D01*
X146491095Y-91339500D01*
X146511094Y-91339500D01*
X146531095Y-91349500D01*
X146551094Y-91349500D01*
X146571095Y-91359500D01*
X146608328Y-91359500D01*
X146658327Y-91349500D01*
X146703105Y-91349500D01*
X146738802Y-91331652D01*
X146776457Y-91322238D01*
X146797825Y-91307993D01*
X146812494Y-91293324D01*
X146832492Y-91263327D01*
X146848800Y-91247018D01*
X146866811Y-91192983D01*
X146876812Y-91172981D01*
X146884000Y-91151417D01*
X146884000Y-90989248D01*
X146851094Y-91005700D01*
X146831095Y-91005700D01*
X146811094Y-91015700D01*
X146732352Y-91015700D01*
X146666200Y-90751090D01*
X146770835Y-90721195D01*
X146826087Y-90702777D01*
X146866098Y-90678771D01*
X146884000Y-90654900D01*
X146884000Y-90566595D01*
X146860787Y-90520169D01*
X146850787Y-90510169D01*
X146843702Y-90495999D01*
X146803105Y-90475700D01*
X146783106Y-90475700D01*
X146763105Y-90465700D01*
X146601095Y-90465700D01*
X146514669Y-90508913D01*
X146483413Y-90540169D01*
X146477389Y-90552219D01*
X146467389Y-90582217D01*
X146460200Y-90596595D01*
X146460200Y-90675700D01*
X145987124Y-90675700D01*
X146015010Y-90508388D01*
X146037910Y-90439686D01*
X146070444Y-90396309D01*
X146100441Y-90346312D01*
X146134886Y-90300386D01*
X146180812Y-90265941D01*
X146285116Y-90203359D01*
X146341198Y-90180926D01*
X146392301Y-90170706D01*
X146452888Y-90150510D01*
X146515248Y-90140117D01*
X146568327Y-90129500D01*
X146805873Y-90129500D01*
X146855872Y-90139500D01*
G37*
G36*
X150494817Y-87361678D02*
G01*
X150577350Y-87392628D01*
X150642212Y-87425059D01*
X150687126Y-87458745D01*
X150764082Y-87535700D01*
X150635917Y-87535700D01*
X150605917Y-87525700D01*
X150586789Y-87525700D01*
X150550461Y-87534782D01*
X150504577Y-87543959D01*
X150472210Y-87560143D01*
X150440180Y-87584165D01*
X150426631Y-87604488D01*
X150417389Y-87632217D01*
X150407388Y-87652219D01*
X150402261Y-87667600D01*
X150408708Y-87686940D01*
X150417461Y-87721957D01*
X150435117Y-87748440D01*
X150453412Y-87785031D01*
X150476374Y-87807993D01*
X150504114Y-87826485D01*
X150544116Y-87856488D01*
X150571257Y-87874581D01*
X150641095Y-87909500D01*
X150695917Y-87909500D01*
X150715212Y-87903069D01*
X150730088Y-87893151D01*
X150744000Y-87851417D01*
X150744000Y-87715953D01*
X150885702Y-87786804D01*
X150973098Y-87885124D01*
X151046791Y-88011456D01*
X151098993Y-88157620D01*
X151130397Y-88325110D01*
X151119913Y-88513827D01*
X151067600Y-88702152D01*
X150963978Y-88888672D01*
X150890718Y-88982863D01*
X150808144Y-89065438D01*
X150724624Y-89138517D01*
X150619084Y-89201841D01*
X150514227Y-89243784D01*
X150400265Y-89274865D01*
X150275253Y-89295700D01*
X150085256Y-89295700D01*
X150035496Y-89303994D01*
X149993903Y-89328950D01*
X149898905Y-89404948D01*
X149850263Y-89463319D01*
X149721267Y-89592315D01*
X149671270Y-89662311D01*
X149610259Y-89723323D01*
X149560263Y-89783319D01*
X149510953Y-89832629D01*
X149480955Y-89872626D01*
X149451707Y-89901875D01*
X149422491Y-89945700D01*
X149354000Y-89945700D01*
X149354000Y-88625490D01*
X149374679Y-88439381D01*
X149396811Y-88372983D01*
X149428677Y-88309252D01*
X149464330Y-88249830D01*
X149520808Y-88215944D01*
X149563271Y-88184097D01*
X149671774Y-88140695D01*
X149738947Y-88129500D01*
X149826790Y-88129500D01*
X149866789Y-88139500D01*
X149891094Y-88139500D01*
X149966419Y-88177162D01*
X149914669Y-88228913D01*
X149866717Y-88252889D01*
X149842681Y-88260901D01*
X149811707Y-88291875D01*
X149796631Y-88314488D01*
X149790200Y-88333783D01*
X149790200Y-88351417D01*
X149797388Y-88372981D01*
X149813413Y-88405031D01*
X149836375Y-88427993D01*
X149859932Y-88443698D01*
X149903003Y-88460927D01*
X149945872Y-88469500D01*
X150017411Y-88469500D01*
X150086456Y-88452239D01*
X150136043Y-88419181D01*
X150168103Y-88379106D01*
X150184000Y-88331417D01*
X150184000Y-88275419D01*
X150159456Y-88218152D01*
X150093504Y-88142778D01*
X150013525Y-88052801D01*
X149940761Y-87969642D01*
X149886108Y-87871266D01*
X149864000Y-87771782D01*
X149864000Y-87681417D01*
X149897767Y-87580117D01*
X149953586Y-87501969D01*
X150050038Y-87416235D01*
X150169245Y-87351213D01*
X150288665Y-87329500D01*
X150398283Y-87329500D01*
X150494817Y-87361678D01*
G37*
G36*
X143851009Y-90150495D02*
G01*
X143955364Y-90181802D01*
X144051512Y-90224534D01*
X144139314Y-90290386D01*
X144204641Y-90377488D01*
X144258740Y-90485685D01*
X144287076Y-90655700D01*
X143840865Y-90655700D01*
X143825427Y-90578503D01*
X143808198Y-90535433D01*
X143794626Y-90515075D01*
X143772943Y-90500619D01*
X143736475Y-90482385D01*
X143694762Y-90465700D01*
X143538283Y-90465700D01*
X143512760Y-90474208D01*
X143472765Y-90484207D01*
X143456550Y-90489612D01*
X143430200Y-90529136D01*
X143430200Y-90552911D01*
X143437196Y-90580895D01*
X143459315Y-90610386D01*
X143492210Y-90635058D01*
X143546719Y-90662312D01*
X143600569Y-90680262D01*
X143679109Y-90690080D01*
X143920833Y-90750511D01*
X144015995Y-90771658D01*
X144163915Y-90856184D01*
X144230736Y-90911868D01*
X144275741Y-90979376D01*
X144309343Y-91057781D01*
X144320524Y-91158407D01*
X144299187Y-91297098D01*
X144255973Y-91415936D01*
X144190189Y-91503649D01*
X144103511Y-91579492D01*
X143995764Y-91633365D01*
X143880265Y-91664865D01*
X143756822Y-91685439D01*
X143632100Y-91695832D01*
X143507378Y-91685439D01*
X143383935Y-91664865D01*
X143268436Y-91633365D01*
X143160689Y-91579492D01*
X143074265Y-91503871D01*
X142998723Y-91406745D01*
X142955106Y-91297702D01*
X142927690Y-91119500D01*
X143380200Y-91119500D01*
X143380200Y-91210262D01*
X143395604Y-91248771D01*
X143419315Y-91280385D01*
X143487527Y-91331545D01*
X143538970Y-91340119D01*
X143588953Y-91350116D01*
X143640549Y-91358715D01*
X143677410Y-91349500D01*
X143717411Y-91349500D01*
X143748799Y-91341653D01*
X143781990Y-91325057D01*
X143817072Y-91298746D01*
X143837698Y-91278120D01*
X143852828Y-91217600D01*
X143846153Y-91190901D01*
X143832044Y-91162683D01*
X143800808Y-91139256D01*
X143756087Y-91112423D01*
X143701435Y-91094206D01*
X143543744Y-91054783D01*
X143444231Y-91034881D01*
X143351225Y-91014213D01*
X143267899Y-90982966D01*
X143195089Y-90951761D01*
X143122058Y-90910029D01*
X143054626Y-90865074D01*
X143008459Y-90795824D01*
X142974857Y-90717419D01*
X142963824Y-90618127D01*
X142974606Y-90488749D01*
X143019142Y-90377408D01*
X143095228Y-90290452D01*
X143170866Y-90225620D01*
X143279625Y-90171241D01*
X143384956Y-90150174D01*
X143498665Y-90129500D01*
X143735535Y-90129500D01*
X143851009Y-90150495D01*
G37*
G36*
X145389923Y-90139937D02*
G01*
X145538945Y-90193159D01*
X145656941Y-90268248D01*
X145752541Y-90374470D01*
X145827003Y-90491482D01*
X145869005Y-90627988D01*
X145899932Y-90772314D01*
X145912895Y-90966759D01*
X145444000Y-90954736D01*
X145444000Y-90829974D01*
X145434851Y-90756776D01*
X145406731Y-90681792D01*
X145379272Y-90617721D01*
X145336369Y-90566236D01*
X145283875Y-90531241D01*
X145222283Y-90504844D01*
X145142364Y-90495964D01*
X145071276Y-90504850D01*
X145001162Y-90531143D01*
X144958905Y-90564948D01*
X144914929Y-90617721D01*
X144887469Y-90681792D01*
X144859350Y-90756776D01*
X144850200Y-90829974D01*
X144850200Y-90992911D01*
X144888322Y-91145399D01*
X144914228Y-91205845D01*
X144957823Y-91249441D01*
X145010307Y-91293177D01*
X145069489Y-91310086D01*
X145151837Y-91319236D01*
X145225096Y-91310078D01*
X145294405Y-91292751D01*
X145344753Y-91250795D01*
X145379120Y-91207836D01*
X145422623Y-91106326D01*
X145834911Y-91300345D01*
X145752920Y-91450661D01*
X145656927Y-91546655D01*
X145539741Y-91631880D01*
X145410719Y-91674888D01*
X145251472Y-91696121D01*
X145060185Y-91664240D01*
X144993752Y-91631023D01*
X144886626Y-91566748D01*
X144860200Y-91533715D01*
X144860200Y-92549582D01*
X144706650Y-92396031D01*
X144556651Y-92276033D01*
X144466650Y-92186031D01*
X144404000Y-92135912D01*
X144404000Y-90237852D01*
X144473739Y-90220418D01*
X144528327Y-90209500D01*
X144577411Y-90209500D01*
X144613739Y-90200418D01*
X144663743Y-90190418D01*
X144703739Y-90180418D01*
X144850200Y-90151125D01*
X144850200Y-90275618D01*
X144866651Y-90259167D01*
X144920300Y-90216248D01*
X145028701Y-90151208D01*
X145158947Y-90129500D01*
X145233369Y-90129500D01*
X145389923Y-90139937D01*
G37*
G36*
X153488531Y-90139862D02*
G01*
X153606573Y-90172056D01*
X153705268Y-90226886D01*
X153782109Y-90303727D01*
X153837122Y-90391748D01*
X153869205Y-90498691D01*
X153889937Y-90612718D01*
X153900200Y-90746137D01*
X153900200Y-91655700D01*
X153434000Y-91655700D01*
X153434000Y-90819974D01*
X153424333Y-90742638D01*
X153414449Y-90673450D01*
X153405706Y-90620997D01*
X153380444Y-90578892D01*
X153356097Y-90546430D01*
X153318158Y-90523666D01*
X153275248Y-90515084D01*
X153221314Y-90506095D01*
X153147602Y-90515309D01*
X153095496Y-90523994D01*
X153057574Y-90546747D01*
X153023449Y-90589403D01*
X152996100Y-90634985D01*
X152969343Y-90697418D01*
X152960200Y-90779710D01*
X152960200Y-91655700D01*
X152494000Y-91655700D01*
X152494000Y-90159500D01*
X152940200Y-90159500D01*
X152940200Y-90295619D01*
X152966651Y-90269167D01*
X153019590Y-90226816D01*
X153085211Y-90183069D01*
X153212888Y-90140510D01*
X153278947Y-90129500D01*
X153343459Y-90129500D01*
X153488531Y-90139862D01*
G37*
G36*
X151420200Y-90995226D02*
G01*
X151439809Y-91152098D01*
X151448154Y-91202173D01*
X151498102Y-91268770D01*
X151536042Y-91291534D01*
X151578952Y-91300116D01*
X151632886Y-91309105D01*
X151706598Y-91299891D01*
X151758703Y-91291206D01*
X151798473Y-91267345D01*
X151830787Y-91235031D01*
X151857528Y-91181549D01*
X151884960Y-91117538D01*
X151894000Y-91045226D01*
X151894000Y-90159500D01*
X152360200Y-90159500D01*
X152360200Y-91655700D01*
X151914000Y-91655700D01*
X151914000Y-91523715D01*
X151889207Y-91554707D01*
X151832749Y-91599873D01*
X151767721Y-91632386D01*
X151715210Y-91653391D01*
X151650889Y-91674831D01*
X151577950Y-91685250D01*
X151513900Y-91695926D01*
X151364079Y-91685224D01*
X151246239Y-91642373D01*
X151150230Y-91589035D01*
X151072115Y-91522079D01*
X151016792Y-91422498D01*
X150984995Y-91316509D01*
X150964000Y-91201035D01*
X150964000Y-90159500D01*
X151420200Y-90159500D01*
X151420200Y-90995226D01*
G37*
G36*
X148447882Y-90139500D02*
G01*
X148480200Y-90139500D01*
X148480200Y-90575700D01*
X148423106Y-90575700D01*
X148403105Y-90565700D01*
X148304001Y-90565700D01*
X148208648Y-90575236D01*
X148136441Y-90593288D01*
X148076970Y-90627271D01*
X148033517Y-90679414D01*
X147997468Y-90742500D01*
X147979048Y-90806970D01*
X147960200Y-90891784D01*
X147960200Y-91655700D01*
X147494000Y-91655700D01*
X147494000Y-90236365D01*
X147573744Y-90220417D01*
X147617410Y-90209500D01*
X147668328Y-90209500D01*
X147713743Y-90200417D01*
X147753739Y-90190418D01*
X147853743Y-90170418D01*
X147940200Y-90148802D01*
X147940200Y-90338986D01*
X147952587Y-90323502D01*
X148005294Y-90260253D01*
X148060618Y-90215994D01*
X148136473Y-90172648D01*
X148200837Y-90151193D01*
X148276764Y-90129500D01*
X148437882Y-90129500D01*
X148447882Y-90139500D01*
G37*
G36*
X150940200Y-89654053D02*
G01*
X150940200Y-89995700D01*
X150736789Y-89995700D01*
X150705401Y-90003547D01*
X150678188Y-90017154D01*
X150665119Y-90036757D01*
X150660200Y-90046595D01*
X150660200Y-90082290D01*
X150650200Y-90122290D01*
X150650200Y-90159500D01*
X150920200Y-90159500D01*
X150920200Y-90495700D01*
X150650200Y-90495700D01*
X150650200Y-91655700D01*
X150194000Y-91655700D01*
X150194000Y-90495700D01*
X149727800Y-90495700D01*
X149857072Y-90398746D01*
X150017074Y-90238745D01*
X150054885Y-90210386D01*
X150093050Y-90159500D01*
X150194000Y-90159500D01*
X150194000Y-89990691D01*
X150226734Y-89903399D01*
X150259271Y-89827481D01*
X150315968Y-89759445D01*
X150392387Y-89704859D01*
X150478002Y-89662052D01*
X150586508Y-89629500D01*
X150891094Y-89629500D01*
X150940200Y-89654053D01*
G37*
G36*
X149020200Y-90612953D02*
G01*
X149455870Y-90159500D01*
X150025335Y-90159500D01*
X149451119Y-90722882D01*
X150062634Y-91655700D01*
X149500876Y-91655700D01*
X149124147Y-91047138D01*
X149020200Y-91144155D01*
X149020200Y-91655700D01*
X148554000Y-91655700D01*
X148554000Y-89854843D01*
X149020200Y-89603812D01*
X149020200Y-90612953D01*
G37*
G36*
X146806475Y-90998010D02*
G01*
X146751094Y-91025700D01*
X146728283Y-91025700D01*
X146698283Y-91035700D01*
X146658283Y-91035700D01*
X146628283Y-91045700D01*
X146591095Y-91045700D01*
X146571094Y-91055700D01*
X146515843Y-91055700D01*
X146408974Y-90775168D01*
X146637304Y-90749799D01*
X146740728Y-90735023D01*
X146806475Y-90998010D01*
G37*
G36*
X145912945Y-90890535D02*
G01*
X145899892Y-91073275D01*
X145868503Y-91209293D01*
X145801940Y-91369044D01*
X145394091Y-91177115D01*
X145434851Y-91068423D01*
X145444000Y-90995226D01*
X145444000Y-90878511D01*
X145912945Y-90890535D01*
G37*
%TO.C,U$54*%
G36*
X152031730Y-92764639D02*
G01*
X152102462Y-92774744D01*
X152173492Y-92805185D01*
X152234477Y-92845842D01*
X152285112Y-92906604D01*
X152325515Y-92967208D01*
X152355974Y-93038279D01*
X152366050Y-93118893D01*
X152376188Y-93189862D01*
X152355931Y-93270894D01*
X152335617Y-93341989D01*
X152284941Y-93402801D01*
X152234529Y-93463295D01*
X152163941Y-93513716D01*
X152103614Y-93553933D01*
X152052280Y-93579600D01*
X152062280Y-93584600D01*
X152281716Y-93584600D01*
X152363656Y-93605085D01*
X152416100Y-93657529D01*
X152416100Y-93729911D01*
X152405809Y-93812236D01*
X152352854Y-93854600D01*
X151740789Y-93854600D01*
X151659079Y-93844386D01*
X151606998Y-93802721D01*
X151575952Y-93730281D01*
X151586285Y-93657948D01*
X151626977Y-93586737D01*
X151677550Y-93526050D01*
X151738226Y-93475486D01*
X151928384Y-93365394D01*
X151997854Y-93315774D01*
X152047273Y-93266355D01*
X152096358Y-93197636D01*
X152105927Y-93140224D01*
X152077089Y-93072936D01*
X152019586Y-93034600D01*
X151942428Y-93034600D01*
X151875238Y-93072994D01*
X151855999Y-93130712D01*
X151845955Y-93211070D01*
X151814588Y-93273803D01*
X151741554Y-93294670D01*
X151639131Y-93284428D01*
X151586430Y-93242267D01*
X151576049Y-93169600D01*
X151586187Y-93098638D01*
X151606382Y-93017855D01*
X151636690Y-92957240D01*
X151677206Y-92886336D01*
X151738104Y-92835588D01*
X151798976Y-92795007D01*
X151869726Y-92774792D01*
X151940673Y-92754522D01*
X152031730Y-92764639D01*
G37*
G36*
X147521720Y-92764639D02*
G01*
X147602421Y-92774726D01*
X147673492Y-92805185D01*
X147734477Y-92845842D01*
X147785112Y-92906604D01*
X147825515Y-92967208D01*
X147855974Y-93038279D01*
X147866100Y-93119289D01*
X147866100Y-93189911D01*
X147855974Y-93270921D01*
X147825515Y-93341992D01*
X147785112Y-93402596D01*
X147734529Y-93463295D01*
X147663941Y-93513716D01*
X147603614Y-93553933D01*
X147549542Y-93580969D01*
X147553172Y-93584600D01*
X147781716Y-93584600D01*
X147863950Y-93605159D01*
X147905857Y-93657542D01*
X147916144Y-93729556D01*
X147905778Y-93812491D01*
X147842614Y-93854600D01*
X147240789Y-93854600D01*
X147159309Y-93844415D01*
X147096797Y-93802741D01*
X147075999Y-93729948D01*
X147086285Y-93657948D01*
X147126977Y-93586737D01*
X147177404Y-93526225D01*
X147228067Y-93475562D01*
X147428270Y-93365450D01*
X147487899Y-93315759D01*
X147547207Y-93266337D01*
X147586315Y-93197896D01*
X147595928Y-93140224D01*
X147567090Y-93072936D01*
X147509586Y-93034600D01*
X147432614Y-93034600D01*
X147374978Y-93073024D01*
X147346100Y-93130780D01*
X147346100Y-93210780D01*
X147314544Y-93273893D01*
X147231441Y-93294669D01*
X147139108Y-93284409D01*
X147086430Y-93242267D01*
X147076100Y-93169955D01*
X147076100Y-93098984D01*
X147096382Y-93017855D01*
X147126803Y-92957013D01*
X147177272Y-92886357D01*
X147227915Y-92835714D01*
X147288976Y-92795007D01*
X147359806Y-92774769D01*
X147440793Y-92754523D01*
X147521720Y-92764639D01*
G37*
G36*
X148784433Y-92765087D02*
G01*
X148816100Y-92828420D01*
X148816100Y-92930411D01*
X148795009Y-92993683D01*
X148721902Y-93014571D01*
X148481819Y-93024575D01*
X148445685Y-93033608D01*
X148436686Y-93114600D01*
X148511800Y-93114600D01*
X148582778Y-93134879D01*
X148653492Y-93165185D01*
X148714285Y-93205714D01*
X148774986Y-93266415D01*
X148815693Y-93327476D01*
X148836014Y-93398597D01*
X148846139Y-93479600D01*
X148836014Y-93560603D01*
X148815741Y-93631555D01*
X148775223Y-93702463D01*
X148724477Y-93763358D01*
X148663730Y-93803856D01*
X148592752Y-93844415D01*
X148521455Y-93854600D01*
X148440789Y-93854600D01*
X148360097Y-93844514D01*
X148289145Y-93824241D01*
X148218237Y-93783723D01*
X148157206Y-93732864D01*
X148115650Y-93660140D01*
X148136730Y-93596899D01*
X148208399Y-93525230D01*
X148271484Y-93504202D01*
X148333614Y-93535267D01*
X148392863Y-93574765D01*
X148480671Y-93584522D01*
X148547440Y-93565445D01*
X148575803Y-93499264D01*
X148556796Y-93432740D01*
X148499586Y-93394600D01*
X148422614Y-93394600D01*
X148362930Y-93434389D01*
X148290419Y-93444748D01*
X148218868Y-93414083D01*
X148146643Y-93372812D01*
X148136032Y-93319757D01*
X148196183Y-92878653D01*
X148206459Y-92837547D01*
X148248012Y-92775218D01*
X148330484Y-92754600D01*
X148721514Y-92754600D01*
X148784433Y-92765087D01*
G37*
G36*
X144633887Y-92765403D02*
G01*
X144705405Y-92826705D01*
X144726617Y-92890339D01*
X144685070Y-92952659D01*
X144377850Y-93299521D01*
X144634687Y-93576114D01*
X144695209Y-93636638D01*
X144726498Y-93699216D01*
X144705470Y-93762301D01*
X144633801Y-93833970D01*
X144570716Y-93854998D01*
X144508032Y-93823656D01*
X144200934Y-93486838D01*
X144154753Y-93533019D01*
X143954906Y-93762844D01*
X143904272Y-93823604D01*
X143841484Y-93854998D01*
X143778590Y-93834034D01*
X143707079Y-93772739D01*
X143675510Y-93709600D01*
X143706803Y-93647013D01*
X143757218Y-93576433D01*
X144014751Y-93299090D01*
X143977162Y-93242707D01*
X143717044Y-92962580D01*
X143675650Y-92890140D01*
X143696730Y-92826899D01*
X143758245Y-92765384D01*
X143830878Y-92734255D01*
X143893801Y-92755230D01*
X143954766Y-92816195D01*
X144201372Y-93102257D01*
X144247448Y-93056181D01*
X144447441Y-92826188D01*
X144508138Y-92765491D01*
X144571100Y-92734010D01*
X144633887Y-92765403D01*
G37*
G36*
X146072712Y-92784736D02*
G01*
X146125713Y-92816537D01*
X146136100Y-92889245D01*
X146136100Y-93740216D01*
X146115448Y-93822822D01*
X146062485Y-93854600D01*
X145980400Y-93854600D01*
X145907612Y-93833803D01*
X145876245Y-93771070D01*
X145866100Y-93689911D01*
X145866100Y-93245607D01*
X145694954Y-93492817D01*
X145654475Y-93533296D01*
X145592634Y-93584831D01*
X145509309Y-93574415D01*
X145447601Y-93533277D01*
X145247305Y-93262877D01*
X145236100Y-93251672D01*
X145236100Y-93780985D01*
X145204372Y-93833865D01*
X145131527Y-93854678D01*
X145039108Y-93844409D01*
X144986391Y-93802236D01*
X144976100Y-93719911D01*
X144976100Y-92878900D01*
X144996897Y-92806112D01*
X145059920Y-92774600D01*
X145152126Y-92774600D01*
X145224436Y-92805590D01*
X145265157Y-92866671D01*
X145542531Y-93223295D01*
X145597773Y-93195674D01*
X145757195Y-92976469D01*
X145907994Y-92805563D01*
X145970158Y-92774481D01*
X146072712Y-92784736D01*
G37*
G36*
X150154392Y-92795656D02*
G01*
X150185387Y-92836982D01*
X150555648Y-93597520D01*
X150585821Y-93667922D01*
X150606543Y-93740450D01*
X150564524Y-93803478D01*
X150482610Y-93844435D01*
X150409332Y-93854903D01*
X150356991Y-93802562D01*
X150286864Y-93662308D01*
X150248667Y-93614563D01*
X150248683Y-93614600D01*
X149864190Y-93614600D01*
X149764978Y-93813024D01*
X149701950Y-93855043D01*
X149629048Y-93834214D01*
X149547064Y-93782974D01*
X149525857Y-93729956D01*
X149546376Y-93647881D01*
X149916616Y-92887388D01*
X149947096Y-92826428D01*
X150009025Y-92774820D01*
X150091982Y-92764451D01*
X150154392Y-92795656D01*
G37*
G36*
X153135734Y-92816680D02*
G01*
X153146100Y-92889245D01*
X153146100Y-93719955D01*
X153135857Y-93791658D01*
X153093711Y-93844341D01*
X153001066Y-93854635D01*
X152918464Y-93844309D01*
X152876100Y-93791354D01*
X152876100Y-93260780D01*
X152858991Y-93226564D01*
X152792428Y-93264600D01*
X152729250Y-93264600D01*
X152657079Y-93202739D01*
X152625901Y-93140382D01*
X152636431Y-93077197D01*
X152697618Y-93016011D01*
X152867820Y-92855821D01*
X152918281Y-92815452D01*
X152989772Y-92774600D01*
X153072614Y-92774600D01*
X153135734Y-92816680D01*
G37*
G36*
X146835704Y-92816472D02*
G01*
X146846100Y-92889245D01*
X146846100Y-93719955D01*
X146835857Y-93791658D01*
X146793711Y-93844341D01*
X146701066Y-93854635D01*
X146618464Y-93844309D01*
X146576100Y-93791354D01*
X146576100Y-93260780D01*
X146558992Y-93226564D01*
X146492428Y-93264600D01*
X146429250Y-93264600D01*
X146357079Y-93202739D01*
X146325901Y-93140382D01*
X146336431Y-93077197D01*
X146397564Y-93016064D01*
X146557915Y-92855714D01*
X146618470Y-92815344D01*
X146689772Y-92774600D01*
X146762428Y-92774600D01*
X146835704Y-92816472D01*
G37*
G36*
X151335734Y-92816680D02*
G01*
X151346100Y-92889245D01*
X151346100Y-93719955D01*
X151335907Y-93791307D01*
X151304096Y-93844325D01*
X151201038Y-93854631D01*
X151118464Y-93844309D01*
X151076100Y-93791354D01*
X151076100Y-93260780D01*
X151058991Y-93226564D01*
X150992428Y-93264600D01*
X150929029Y-93264600D01*
X150867214Y-93202785D01*
X150825843Y-93140728D01*
X150836431Y-93077197D01*
X150897618Y-93016011D01*
X151067978Y-92855672D01*
X151189586Y-92774600D01*
X151272614Y-92774600D01*
X151335734Y-92816680D01*
G37*
%TO.C,U$18*%
G36*
X158730163Y-121869350D02*
G01*
X158761587Y-121911249D01*
X158782498Y-121973984D01*
X158760722Y-122017536D01*
X158708772Y-122038316D01*
X158419763Y-122128009D01*
X158406292Y-122141481D01*
X158688844Y-122238913D01*
X158740722Y-122259664D01*
X158761872Y-122301963D01*
X158772441Y-122354812D01*
X158740259Y-122397722D01*
X158688844Y-122418287D01*
X158404124Y-122516468D01*
X158410634Y-122529489D01*
X158750148Y-122639331D01*
X158782441Y-122682388D01*
X158771872Y-122735237D01*
X158740544Y-122797893D01*
X158697222Y-122808723D01*
X158645759Y-122798431D01*
X158115131Y-122608206D01*
X158073164Y-122587222D01*
X158052100Y-122534563D01*
X158052100Y-122481529D01*
X158094635Y-122438994D01*
X158145789Y-122428764D01*
X158422333Y-122333403D01*
X158275369Y-122278292D01*
X158104713Y-122218060D01*
X158062978Y-122186759D01*
X158041715Y-122133600D01*
X158062978Y-122080441D01*
X158104738Y-122049122D01*
X158635877Y-121868735D01*
X158697503Y-121858464D01*
X158730163Y-121869350D01*
G37*
G36*
X158771706Y-123011135D02*
G01*
X158782100Y-123063105D01*
X158782100Y-123116100D01*
X158739193Y-123148280D01*
X158687595Y-123158600D01*
X158387596Y-123158600D01*
X158338528Y-123168413D01*
X158289572Y-123187996D01*
X158251222Y-123216759D01*
X158232100Y-123264562D01*
X158232100Y-123313104D01*
X158241706Y-123361134D01*
X158270205Y-123389632D01*
X158318928Y-123418866D01*
X158368081Y-123428697D01*
X158417596Y-123438600D01*
X158728280Y-123438600D01*
X158771393Y-123460156D01*
X158782100Y-123502984D01*
X158782100Y-123565267D01*
X158749954Y-123608128D01*
X158697595Y-123618600D01*
X158396686Y-123618600D01*
X158336198Y-123608519D01*
X158286003Y-123598480D01*
X158245166Y-123588270D01*
X158194306Y-123557755D01*
X158153816Y-123527387D01*
X158123313Y-123496884D01*
X158092945Y-123456394D01*
X158062367Y-123405430D01*
X158052197Y-123354581D01*
X158042001Y-123303600D01*
X158052197Y-123252619D01*
X158062287Y-123202169D01*
X158082535Y-123151550D01*
X158102991Y-123110638D01*
X158143816Y-123069813D01*
X158184100Y-123039600D01*
X158225007Y-123008920D01*
X158275672Y-122998786D01*
X158326137Y-122978600D01*
X158739171Y-122978600D01*
X158771706Y-123011135D01*
G37*
%TO.C,LOGO2*%
G36*
X137342517Y-87041453D02*
G01*
X137387036Y-87072782D01*
X137418166Y-87116140D01*
X137436460Y-87165930D01*
X137444584Y-87219246D01*
X137437028Y-87272515D01*
X137419922Y-87322656D01*
X137390001Y-87367023D01*
X137346230Y-87400058D01*
X137292669Y-87411272D01*
X137239480Y-87406394D01*
X137190387Y-87385967D01*
X137150460Y-87350027D01*
X137123907Y-87302464D01*
X137114416Y-87249578D01*
X137113839Y-87196781D01*
X137122055Y-87143386D01*
X137148596Y-87095833D01*
X137187237Y-87058899D01*
X137235639Y-87036930D01*
X137288922Y-87030443D01*
X137342517Y-87041453D01*
G37*
G36*
X139960749Y-86558464D02*
G01*
X140066755Y-86569146D01*
X140169086Y-86599575D01*
X140218406Y-86620082D01*
X140311719Y-86671996D01*
X140394241Y-86740084D01*
X140430077Y-86779679D01*
X140464042Y-86820844D01*
X140494638Y-86864560D01*
X140545204Y-86958725D01*
X140576917Y-87060879D01*
X140586088Y-87113502D01*
X140595083Y-87219776D01*
X140584352Y-87326203D01*
X140571812Y-87378085D01*
X140555998Y-87429033D01*
X140537440Y-87479096D01*
X140486408Y-87573122D01*
X140419144Y-87656097D01*
X140380921Y-87693433D01*
X140297301Y-87759609D01*
X140203203Y-87810684D01*
X140101779Y-87843841D01*
X140049584Y-87855103D01*
X139943507Y-87865800D01*
X137679327Y-87866004D01*
X137678075Y-87840807D01*
X137676090Y-86881674D01*
X137675167Y-86881731D01*
X137675737Y-86850375D01*
X137445891Y-86850375D01*
X137444819Y-86872926D01*
X137444819Y-86946148D01*
X137410168Y-86919879D01*
X137369577Y-86886847D01*
X137323760Y-86863125D01*
X137274271Y-86848273D01*
X137222800Y-86842669D01*
X137170924Y-86845950D01*
X137119750Y-86854821D01*
X137070418Y-86870660D01*
X137025180Y-86895856D01*
X136985172Y-86928601D01*
X136950912Y-86967303D01*
X136922758Y-87010801D01*
X136901160Y-87058053D01*
X136887995Y-87108429D01*
X136879699Y-87159981D01*
X136875696Y-87212066D01*
X136879324Y-87264206D01*
X136886561Y-87315957D01*
X136899036Y-87366542D01*
X136919785Y-87414192D01*
X136946266Y-87458783D01*
X136978746Y-87499103D01*
X137017302Y-87533679D01*
X137062243Y-87559358D01*
X137110600Y-87577875D01*
X137161125Y-87589579D01*
X137212933Y-87594472D01*
X137264625Y-87591030D01*
X137314872Y-87579025D01*
X137361400Y-87556861D01*
X137402520Y-87525309D01*
X137444819Y-87485533D01*
X137444819Y-87818145D01*
X137443432Y-87866009D01*
X137268051Y-87866009D01*
X137214876Y-87863714D01*
X137108665Y-87853009D01*
X137006446Y-87821835D01*
X136957412Y-87800654D01*
X136864534Y-87748165D01*
X136781954Y-87680031D01*
X136712729Y-87598844D01*
X136682685Y-87554666D01*
X136632810Y-87460254D01*
X136601092Y-87358078D01*
X136592664Y-87305358D01*
X136587314Y-87252325D01*
X136584415Y-87198982D01*
X136595140Y-87092605D01*
X136608411Y-87040873D01*
X136624228Y-86989925D01*
X136643456Y-86940146D01*
X136694481Y-86846141D01*
X136762363Y-86763533D01*
X136801027Y-86726760D01*
X136842196Y-86692796D01*
X136885153Y-86661104D01*
X136979179Y-86610068D01*
X137080928Y-86577573D01*
X137133252Y-86567044D01*
X137239299Y-86556522D01*
X139941484Y-86556522D01*
X139960749Y-86558464D01*
G37*
%TO.C,U$19*%
G36*
X139187100Y-124119671D02*
G01*
X139154171Y-124152600D01*
X139099424Y-124152600D01*
X139077100Y-124119114D01*
X139077100Y-121922600D01*
X139187100Y-121922600D01*
X139187100Y-124119671D01*
G37*
G36*
X138976523Y-123344221D02*
G01*
X138987100Y-123397105D01*
X138987100Y-123968780D01*
X138965190Y-124012600D01*
X138901484Y-124012600D01*
X138858656Y-124001893D01*
X138837100Y-123958780D01*
X138837100Y-123798217D01*
X138828195Y-123762600D01*
X138371605Y-123762600D01*
X138320463Y-123752372D01*
X138278373Y-123731327D01*
X138256901Y-123688382D01*
X138267292Y-123626036D01*
X138289010Y-123582600D01*
X138800920Y-123582600D01*
X138837100Y-123564510D01*
X138837100Y-123355529D01*
X138870029Y-123322600D01*
X138933280Y-123322600D01*
X138976523Y-123344221D01*
G37*
G36*
X138976523Y-121984221D02*
G01*
X138987100Y-122037105D01*
X138987100Y-122298095D01*
X138976913Y-122349031D01*
X138956497Y-122400071D01*
X138922778Y-122445030D01*
X138917038Y-122439733D01*
X138885200Y-122471571D01*
X138834508Y-122501986D01*
X138793737Y-122522372D01*
X138742182Y-122532683D01*
X138681198Y-122522519D01*
X138630463Y-122512372D01*
X138589461Y-122491871D01*
X138550434Y-122462600D01*
X138513396Y-122462600D01*
X138424122Y-122512196D01*
X138393386Y-122522442D01*
X138341398Y-122532839D01*
X138298562Y-122511421D01*
X138267367Y-122459430D01*
X138256759Y-122406388D01*
X138288918Y-122363509D01*
X138410016Y-122313053D01*
X138467100Y-122284510D01*
X138467100Y-122179114D01*
X138449424Y-122152600D01*
X138351605Y-122152600D01*
X138299635Y-122142206D01*
X138267100Y-122109671D01*
X138267100Y-122037105D01*
X138277818Y-121983517D01*
X138321003Y-121972720D01*
X138371605Y-121962600D01*
X138933280Y-121962600D01*
X138976523Y-121984221D01*
G37*
G36*
X138464656Y-122673085D02*
G01*
X138506209Y-122714638D01*
X138527690Y-122757600D01*
X138506335Y-122800310D01*
X138466064Y-122850649D01*
X138437100Y-122889267D01*
X138437100Y-122937104D01*
X138446524Y-122984222D01*
X138482802Y-123002361D01*
X138528722Y-122993177D01*
X138547328Y-122955964D01*
X138567287Y-122856169D01*
X138587535Y-122805550D01*
X138607991Y-122764638D01*
X138648816Y-122723813D01*
X138689629Y-122693203D01*
X138741137Y-122672600D01*
X138792595Y-122672600D01*
X138843197Y-122682720D01*
X138884034Y-122692930D01*
X138935512Y-122723816D01*
X138966371Y-122764961D01*
X138986872Y-122805963D01*
X138997003Y-122856619D01*
X139007100Y-122907105D01*
X139007100Y-122968095D01*
X138996913Y-123019031D01*
X138976361Y-123070410D01*
X138945636Y-123101136D01*
X138904171Y-123142600D01*
X138860715Y-123142600D01*
X138808279Y-123111138D01*
X138787100Y-123068780D01*
X138787100Y-123015529D01*
X138827584Y-122975044D01*
X138836996Y-122937396D01*
X138827431Y-122880004D01*
X138800456Y-122853028D01*
X138755736Y-122861972D01*
X138736826Y-122909247D01*
X138706958Y-123008809D01*
X138696872Y-123059237D01*
X138676371Y-123100239D01*
X138645512Y-123141384D01*
X138594034Y-123172270D01*
X138553119Y-123182499D01*
X138492018Y-123192683D01*
X138441003Y-123182480D01*
X138400166Y-123172270D01*
X138348688Y-123141384D01*
X138318100Y-123100600D01*
X138287703Y-123060071D01*
X138267287Y-123009031D01*
X138257100Y-122958095D01*
X138257100Y-122907105D01*
X138267197Y-122856619D01*
X138277420Y-122805507D01*
X138307949Y-122764802D01*
X138338129Y-122714500D01*
X138369290Y-122683339D01*
X138421744Y-122662357D01*
X138464656Y-122673085D01*
G37*
%TO.C,U$39*%
G36*
X158761769Y-101591197D02*
G01*
X158772169Y-101653600D01*
X158761676Y-101716559D01*
X158728614Y-101738600D01*
X158106484Y-101738600D01*
X158062818Y-101727683D01*
X158052100Y-101674095D01*
X158052100Y-101612420D01*
X158073656Y-101569307D01*
X158116484Y-101558600D01*
X158729171Y-101558600D01*
X158761769Y-101591197D01*
G37*
G36*
X158528081Y-102738697D02*
G01*
X158578081Y-102748697D01*
X158629193Y-102758920D01*
X158669739Y-102789329D01*
X158709614Y-102809267D01*
X158741166Y-102830301D01*
X158761664Y-102881548D01*
X158781872Y-102921963D01*
X158792019Y-102972698D01*
X158802183Y-103033682D01*
X158791872Y-103085237D01*
X158771371Y-103126239D01*
X158740887Y-103166884D01*
X158700062Y-103207709D01*
X158659150Y-103228165D01*
X158608957Y-103248242D01*
X158562729Y-103266733D01*
X158562873Y-103267544D01*
X158558531Y-103268412D01*
X158553245Y-103270527D01*
X158553064Y-103269505D01*
X158507595Y-103278600D01*
X158346686Y-103278600D01*
X158286081Y-103268499D01*
X158245558Y-103258368D01*
X158195050Y-103238165D01*
X158154138Y-103217709D01*
X158123564Y-103187136D01*
X158082991Y-103146562D01*
X158062328Y-103105237D01*
X158052181Y-103054502D01*
X158042017Y-102993518D01*
X158052287Y-102942169D01*
X158072535Y-102891550D01*
X158092829Y-102850961D01*
X158123529Y-102810029D01*
X158164629Y-102779203D01*
X158215669Y-102758787D01*
X158316119Y-102738697D01*
X158366605Y-102728600D01*
X158477595Y-102728600D01*
X158528081Y-102738697D01*
G37*
G36*
X158498081Y-101878697D02*
G01*
X158548737Y-101888828D01*
X158589508Y-101909214D01*
X158639894Y-101939445D01*
X158680384Y-101969813D01*
X158711071Y-102000500D01*
X158741486Y-102051192D01*
X158761665Y-102091550D01*
X158782100Y-102142637D01*
X158782100Y-102192790D01*
X158792263Y-102223279D01*
X158782003Y-102274581D01*
X158771913Y-102325031D01*
X158751665Y-102375650D01*
X158731371Y-102416239D01*
X158700887Y-102456884D01*
X158660384Y-102497387D01*
X158619739Y-102527871D01*
X158579150Y-102548165D01*
X158528531Y-102568413D01*
X158478081Y-102578503D01*
X158427100Y-102588699D01*
X158376605Y-102578600D01*
X158326137Y-102578600D01*
X158275050Y-102558165D01*
X158234692Y-102537986D01*
X158184306Y-102507755D01*
X158143529Y-102477171D01*
X158113100Y-102436600D01*
X158082703Y-102396071D01*
X158062287Y-102345031D01*
X158052197Y-102294581D01*
X158042001Y-102243600D01*
X158052100Y-102193104D01*
X158052100Y-102142637D01*
X158072535Y-102091550D01*
X158092829Y-102050961D01*
X158123313Y-102010316D01*
X158163816Y-101969813D01*
X158204100Y-101939600D01*
X158240249Y-101912489D01*
X158239418Y-101911288D01*
X158244628Y-101909205D01*
X158248485Y-101906311D01*
X158249152Y-101907395D01*
X158295558Y-101888832D01*
X158336003Y-101878720D01*
X158386605Y-101868600D01*
X158447595Y-101868600D01*
X158498081Y-101878697D01*
G37*
D12*
%TO.C,U1*%
X140881100Y-103200200D02*
X140881100Y-103606600D01*
X140881100Y-121640600D02*
X140881100Y-122047000D01*
X140881100Y-122047000D02*
X156121100Y-122047000D01*
X156121100Y-103200200D02*
X140881100Y-103200200D01*
X156121100Y-103606600D02*
X156121100Y-103200200D01*
X156121100Y-122047000D02*
X156121100Y-121640600D01*
X140271500Y-103225600D02*
G75*
G02*
X140474700Y-103225600I101600J0D01*
G01*
X140474700Y-103225600D02*
G75*
G02*
X140271500Y-103225600I-101600J0D01*
G01*
D13*
%TO.C,S2*%
X142151100Y-128468600D02*
X142151100Y-125958600D01*
X143151100Y-124688600D02*
X146231100Y-124688600D01*
X146231100Y-129768600D02*
X143151100Y-129768600D01*
X147231100Y-125988600D02*
X147231100Y-128468600D01*
X145961100Y-127228600D02*
G75*
G02*
X143421100Y-127228600I-1270000J0D01*
G01*
X143421100Y-127228600D02*
G75*
G02*
X145961100Y-127228600I1270000J0D01*
G01*
%TO.C,J1*%
X144181100Y-83753600D02*
X144181100Y-81953600D01*
X152821100Y-83753600D02*
X152821100Y-81953600D01*
%TO.C,SHLD0*%
X140931900Y-83972400D02*
X140931900Y-82854800D01*
X141389100Y-82397600D02*
X142913100Y-82397600D01*
X142913100Y-84429600D02*
X141389100Y-84429600D01*
X143370300Y-83972400D02*
X143370300Y-82854800D01*
X140931900Y-82854800D02*
G75*
G02*
X141389100Y-82397600I457201J-1D01*
G01*
X141389100Y-84429600D02*
G75*
G02*
X140931900Y-83972400I1J457201D01*
G01*
X142913100Y-82397600D02*
G75*
G02*
X143370300Y-82854800I0J-457200D01*
G01*
X143370300Y-83972400D02*
G75*
G02*
X142913100Y-84429600I-457200J0D01*
G01*
D11*
%TO.C,U$15*%
G36*
X138757656Y-106539085D02*
G01*
X138798720Y-106580149D01*
X138898710Y-106690139D01*
X138939209Y-106730638D01*
X138960100Y-106772420D01*
X138960100Y-106834780D01*
X138938190Y-106878600D01*
X138273029Y-106878600D01*
X138240431Y-106846003D01*
X138229938Y-106783042D01*
X138250839Y-106730790D01*
X138283029Y-106698600D01*
X138633920Y-106698600D01*
X138648749Y-106691186D01*
X138630100Y-106644563D01*
X138630100Y-106601529D01*
X138671816Y-106559813D01*
X138714004Y-106528172D01*
X138757656Y-106539085D01*
G37*
G36*
X138928884Y-107050188D02*
G01*
X138960100Y-107102215D01*
X138960100Y-107155671D01*
X138928285Y-107187486D01*
X138897529Y-107207990D01*
X138497989Y-107387784D01*
X138493634Y-107392139D01*
X138948805Y-107609830D01*
X138970576Y-107653372D01*
X138949497Y-107706071D01*
X138918392Y-107747544D01*
X138875328Y-107769076D01*
X138823050Y-107748165D01*
X138323049Y-107498165D01*
X138271941Y-107477722D01*
X138240420Y-107435693D01*
X138229861Y-107382898D01*
X138251156Y-107340308D01*
X138292475Y-107309318D01*
X138842864Y-107039128D01*
X138885628Y-107017746D01*
X138928884Y-107050188D01*
G37*
G36*
X138556930Y-107928867D02*
G01*
X138608512Y-107959816D01*
X138635640Y-107995988D01*
X138662290Y-107969339D01*
X138713669Y-107948787D01*
X138765100Y-107938501D01*
X138816081Y-107948697D01*
X138867193Y-107958920D01*
X138908671Y-107990029D01*
X138939100Y-108030600D01*
X138969497Y-108071129D01*
X138990100Y-108122637D01*
X138990100Y-108234780D01*
X138969664Y-108275651D01*
X138949497Y-108326071D01*
X138918671Y-108367171D01*
X138877571Y-108397997D01*
X138826531Y-108418413D01*
X138775100Y-108428699D01*
X138723669Y-108418413D01*
X138672629Y-108397997D01*
X138635569Y-108370201D01*
X138608200Y-108397571D01*
X138557034Y-108428270D01*
X138516490Y-108438406D01*
X138485421Y-108448763D01*
X138434119Y-108438503D01*
X138383007Y-108428280D01*
X138341816Y-108397387D01*
X138301313Y-108356884D01*
X138270829Y-108316239D01*
X138250328Y-108275237D01*
X138240197Y-108224581D01*
X138230017Y-108173682D01*
X138240292Y-108112036D01*
X138260536Y-108071548D01*
X138280703Y-108021129D01*
X138311529Y-107980029D01*
X138352629Y-107949203D01*
X138403669Y-107928787D01*
X138454605Y-107918600D01*
X138505595Y-107918600D01*
X138556930Y-107928867D01*
G37*
%TO.C,U$45*%
G36*
X158189132Y-108676028D02*
G01*
X158699318Y-108926119D01*
X158740392Y-108946656D01*
X158771780Y-108988507D01*
X158782339Y-109041302D01*
X158760978Y-109084024D01*
X158729584Y-109104953D01*
X158168810Y-109375326D01*
X158126518Y-109385899D01*
X158083373Y-109364327D01*
X158052100Y-109301780D01*
X158052100Y-109248529D01*
X158084060Y-109216569D01*
X158174374Y-109166395D01*
X158212100Y-109138099D01*
X158212100Y-108893690D01*
X158073808Y-108824544D01*
X158041414Y-108781352D01*
X158062606Y-108728371D01*
X158093562Y-108676779D01*
X158136872Y-108655124D01*
X158189132Y-108676028D01*
G37*
G36*
X158750544Y-110336307D02*
G01*
X158772100Y-110379420D01*
X158772100Y-110621095D01*
X158762003Y-110671581D01*
X158751872Y-110722237D01*
X158731371Y-110763239D01*
X158701251Y-110803398D01*
X158670884Y-110854012D01*
X158630100Y-110884600D01*
X158589571Y-110914997D01*
X158538531Y-110935413D01*
X158488081Y-110945503D01*
X158437595Y-110955600D01*
X158386605Y-110955600D01*
X158336119Y-110945503D01*
X158285463Y-110935372D01*
X158244692Y-110914986D01*
X158194306Y-110884755D01*
X158153529Y-110854171D01*
X158123100Y-110813600D01*
X158092703Y-110773071D01*
X158070488Y-110717533D01*
X158070489Y-110717532D01*
X158052100Y-110671563D01*
X158052100Y-110620730D01*
X158042079Y-110420311D01*
X158052524Y-110357641D01*
X158085150Y-110335891D01*
X158136605Y-110325600D01*
X158707716Y-110325600D01*
X158750544Y-110336307D01*
G37*
G36*
X158750544Y-109566307D02*
G01*
X158772100Y-109609420D01*
X158772100Y-109851095D01*
X158761980Y-109901697D01*
X158751868Y-109942142D01*
X158731497Y-109993071D01*
X158701100Y-110033600D01*
X158670887Y-110073884D01*
X158630384Y-110114387D01*
X158589571Y-110144997D01*
X158538531Y-110165413D01*
X158488081Y-110175503D01*
X158437595Y-110185600D01*
X158386605Y-110185600D01*
X158336119Y-110175503D01*
X158285463Y-110165372D01*
X158244692Y-110144986D01*
X158194306Y-110114755D01*
X158153529Y-110084171D01*
X158122945Y-110043394D01*
X158092714Y-109993008D01*
X158074686Y-109956951D01*
X158074315Y-109957099D01*
X158072537Y-109952654D01*
X158070198Y-109947976D01*
X158070602Y-109947815D01*
X158052100Y-109901563D01*
X158052100Y-109850730D01*
X158042079Y-109650311D01*
X158052431Y-109588197D01*
X158085029Y-109555600D01*
X158707716Y-109555600D01*
X158750544Y-109566307D01*
G37*
G36*
X158761036Y-111116978D02*
G01*
X158782100Y-111169637D01*
X158782100Y-111381095D01*
X158772003Y-111431581D01*
X158761872Y-111482237D01*
X158741486Y-111523008D01*
X158713480Y-111569684D01*
X158714903Y-111570998D01*
X158710883Y-111574012D01*
X158708225Y-111578443D01*
X158706768Y-111577098D01*
X158670100Y-111604600D01*
X158629571Y-111634997D01*
X158578531Y-111655413D01*
X158527182Y-111665683D01*
X158466081Y-111655499D01*
X158425558Y-111645368D01*
X158374629Y-111624997D01*
X158335434Y-111595600D01*
X158308062Y-111595600D01*
X158209442Y-111635048D01*
X158179050Y-111655309D01*
X158126050Y-111665909D01*
X158093681Y-111644330D01*
X158052436Y-111592774D01*
X158041759Y-111539388D01*
X158073918Y-111496509D01*
X158194728Y-111446172D01*
X158252100Y-111407924D01*
X158252100Y-111311780D01*
X158234010Y-111275600D01*
X158084424Y-111275600D01*
X158062311Y-111242430D01*
X158052029Y-111170459D01*
X158062677Y-111117221D01*
X158105920Y-111095600D01*
X158718280Y-111095600D01*
X158761036Y-111116978D01*
G37*
D13*
%TO.C,D1*%
X136753600Y-98494850D02*
X136753600Y-97542350D01*
D11*
%TO.C,U$50*%
G36*
X146175524Y-100999722D02*
G01*
X146216433Y-101061086D01*
X146246935Y-101122090D01*
X146257151Y-101193600D01*
X146246935Y-101265110D01*
X146216335Y-101326310D01*
X146175657Y-101377157D01*
X146125054Y-101417640D01*
X146093614Y-101438600D01*
X145888001Y-101438600D01*
X145877100Y-101384095D01*
X145877100Y-100971529D01*
X145910029Y-100938600D01*
X146053280Y-100938600D01*
X146175524Y-100999722D01*
G37*
G36*
X146967100Y-100519364D02*
G01*
X146967100Y-101878600D01*
X143501745Y-101878600D01*
X143431335Y-101868542D01*
X143370999Y-101858485D01*
X143300622Y-101838378D01*
X143240182Y-101818231D01*
X143179586Y-101787933D01*
X143119146Y-101747640D01*
X143068760Y-101707331D01*
X143018369Y-101656940D01*
X142978060Y-101606554D01*
X142937767Y-101546114D01*
X142877469Y-101425518D01*
X142857214Y-101364753D01*
X142847150Y-101294307D01*
X142837100Y-101223955D01*
X142837100Y-101163245D01*
X142847150Y-101092893D01*
X142857214Y-101022447D01*
X142877469Y-100961682D01*
X142937767Y-100841086D01*
X142978060Y-100780646D01*
X143018369Y-100730260D01*
X143068760Y-100679869D01*
X143119146Y-100639560D01*
X143179586Y-100599267D01*
X143240182Y-100568969D01*
X143300622Y-100548822D01*
X143370999Y-100528715D01*
X143431335Y-100518658D01*
X143501745Y-100508600D01*
X146902514Y-100508600D01*
X146967100Y-100519364D01*
G37*
D13*
%TO.C,J3*%
X156471100Y-89303600D02*
X158121100Y-89303600D01*
X156471100Y-90053600D02*
X156471100Y-89303600D01*
X156471100Y-95303600D02*
X156471100Y-94553600D01*
X158121100Y-95303600D02*
X156471100Y-95303600D01*
X160721100Y-93803600D02*
X160721100Y-90803600D01*
X155922700Y-94803600D02*
G75*
G02*
X155719500Y-94803600I-101600J0D01*
G01*
X155719500Y-94803600D02*
G75*
G02*
X155922700Y-94803600I101600J0D01*
G01*
D11*
%TO.C,U$29*%
G36*
X142406100Y-87913933D02*
G01*
X142406100Y-88046626D01*
X142375428Y-88118193D01*
X142334657Y-88169157D01*
X142283810Y-88209835D01*
X142222610Y-88240435D01*
X142151100Y-88250651D01*
X142079590Y-88240435D01*
X142018390Y-88209835D01*
X141967543Y-88169157D01*
X141927376Y-88118947D01*
X141906100Y-88097671D01*
X141906100Y-87881501D01*
X141960605Y-87870600D01*
X142373600Y-87870600D01*
X142406100Y-87913933D01*
G37*
G36*
X142836100Y-84535245D02*
G01*
X142836100Y-88665955D01*
X142826001Y-88736645D01*
X142805878Y-88807078D01*
X142785731Y-88867518D01*
X142725433Y-88988114D01*
X142685140Y-89048554D01*
X142644657Y-89099157D01*
X142594282Y-89139456D01*
X142534004Y-89189689D01*
X142483381Y-89220062D01*
X142412878Y-89250278D01*
X142352681Y-89270343D01*
X142292253Y-89290486D01*
X142221455Y-89300600D01*
X142080686Y-89300600D01*
X142019999Y-89290485D01*
X141949622Y-89270378D01*
X141889182Y-89250231D01*
X141768586Y-89189933D01*
X141707681Y-89149330D01*
X141667376Y-89098947D01*
X141617214Y-89048785D01*
X141576874Y-88988275D01*
X141546638Y-88937881D01*
X141516422Y-88867378D01*
X141496322Y-88807078D01*
X141476215Y-88736701D01*
X141466100Y-88676014D01*
X141466100Y-84471264D01*
X141540745Y-84460600D01*
X142825436Y-84460600D01*
X142836100Y-84535245D01*
G37*
%TO.C,U$14*%
G36*
X138928884Y-104600188D02*
G01*
X138960100Y-104652215D01*
X138960100Y-104705671D01*
X138928285Y-104737486D01*
X138897529Y-104757990D01*
X138497989Y-104937784D01*
X138493634Y-104942139D01*
X138948805Y-105159830D01*
X138970576Y-105203372D01*
X138949497Y-105256071D01*
X138918035Y-105298020D01*
X138875222Y-105308723D01*
X138823463Y-105298372D01*
X138323049Y-105048164D01*
X138271941Y-105027722D01*
X138240420Y-104985693D01*
X138229906Y-104933123D01*
X138250978Y-104880441D01*
X138292505Y-104849296D01*
X138842908Y-104589106D01*
X138885628Y-104567746D01*
X138928884Y-104600188D01*
G37*
G36*
X138509597Y-103910589D02*
G01*
X138520100Y-103963105D01*
X138520100Y-104025671D01*
X138487910Y-104057861D01*
X138438947Y-104077447D01*
X138419914Y-104125028D01*
X138410200Y-104173600D01*
X138419629Y-104220747D01*
X138456767Y-104248600D01*
X138502600Y-104248600D01*
X138530100Y-104211933D01*
X138530100Y-104163105D01*
X138540603Y-104110589D01*
X138573270Y-104088811D01*
X138645716Y-104078461D01*
X138699110Y-104099819D01*
X138709967Y-104132391D01*
X138719943Y-104192247D01*
X138738484Y-104238600D01*
X138772600Y-104238600D01*
X138800100Y-104201933D01*
X138800100Y-104144780D01*
X138781155Y-104106892D01*
X138741529Y-104077171D01*
X138710100Y-104035267D01*
X138710100Y-103992215D01*
X138741679Y-103939583D01*
X138794744Y-103918357D01*
X138836845Y-103928882D01*
X138878062Y-103949491D01*
X138918887Y-103990316D01*
X138949497Y-104031129D01*
X138969913Y-104082169D01*
X138980100Y-104133105D01*
X138980100Y-104285671D01*
X138908384Y-104357387D01*
X138867894Y-104387755D01*
X138817034Y-104418270D01*
X138775304Y-104428703D01*
X138713536Y-104418408D01*
X138672138Y-104397709D01*
X138643028Y-104368600D01*
X138617171Y-104368600D01*
X138578062Y-104407709D01*
X138536737Y-104428372D01*
X138485595Y-104438600D01*
X138423920Y-104438600D01*
X138342138Y-104397709D01*
X138301313Y-104356884D01*
X138270829Y-104316239D01*
X138250328Y-104275237D01*
X138240181Y-104224502D01*
X138230017Y-104163518D01*
X138240197Y-104112619D01*
X138250287Y-104062169D01*
X138270535Y-104011550D01*
X138291156Y-103970308D01*
X138332100Y-103939600D01*
X138372629Y-103909203D01*
X138424137Y-103888600D01*
X138476614Y-103888600D01*
X138509597Y-103910589D01*
G37*
G36*
X138509597Y-105490589D02*
G01*
X138520100Y-105543105D01*
X138520100Y-105605671D01*
X138487910Y-105637861D01*
X138438947Y-105657446D01*
X138419914Y-105705028D01*
X138410200Y-105753600D01*
X138419629Y-105800746D01*
X138456767Y-105828600D01*
X138502600Y-105828600D01*
X138530100Y-105791933D01*
X138530100Y-105743105D01*
X138540603Y-105690589D01*
X138573270Y-105668811D01*
X138645716Y-105658461D01*
X138699110Y-105679819D01*
X138709967Y-105712391D01*
X138719943Y-105772246D01*
X138738484Y-105818600D01*
X138772600Y-105818600D01*
X138800100Y-105781933D01*
X138800100Y-105724780D01*
X138781155Y-105686891D01*
X138741529Y-105657171D01*
X138710100Y-105615267D01*
X138710100Y-105572215D01*
X138741679Y-105519583D01*
X138794744Y-105498357D01*
X138836845Y-105508882D01*
X138878062Y-105529491D01*
X138918887Y-105570316D01*
X138949497Y-105611129D01*
X138969913Y-105662169D01*
X138980100Y-105713105D01*
X138980100Y-105865671D01*
X138908384Y-105937387D01*
X138867571Y-105967997D01*
X138816642Y-105988368D01*
X138775716Y-105998600D01*
X138713920Y-105998600D01*
X138672138Y-105977709D01*
X138643028Y-105948600D01*
X138617171Y-105948600D01*
X138578062Y-105987709D01*
X138536737Y-106008372D01*
X138485595Y-106018600D01*
X138423920Y-106018600D01*
X138342138Y-105977709D01*
X138301313Y-105936884D01*
X138270829Y-105896239D01*
X138250328Y-105855237D01*
X138240181Y-105804502D01*
X138230017Y-105743518D01*
X138240197Y-105692619D01*
X138250287Y-105642169D01*
X138270535Y-105591550D01*
X138291156Y-105550308D01*
X138332100Y-105519600D01*
X138372629Y-105489203D01*
X138424137Y-105468600D01*
X138476614Y-105468600D01*
X138509597Y-105490589D01*
G37*
D13*
%TO.C,I2C0*%
X155994100Y-88493600D02*
X155994100Y-85953600D01*
X157568900Y-85496400D02*
X156451300Y-85496400D01*
X157568900Y-88950800D02*
X156451300Y-88950800D01*
X158026100Y-85953600D02*
X158026100Y-88493600D01*
X155994100Y-85953600D02*
G75*
G02*
X156451300Y-85496400I457200J0D01*
G01*
X156451300Y-88950800D02*
G75*
G02*
X155994100Y-88493600I1J457201D01*
G01*
X157568900Y-85496400D02*
G75*
G02*
X158026100Y-85953600I0J-457200D01*
G01*
X158026100Y-88493600D02*
G75*
G02*
X157568900Y-88950800I-457201J1D01*
G01*
D11*
%TO.C,U$12*%
G36*
X137212610Y-96273765D02*
G01*
X137273614Y-96304267D01*
X137334285Y-96344714D01*
X137384831Y-96395260D01*
X137425335Y-96445890D01*
X137466100Y-96527420D01*
X137466100Y-96598955D01*
X137456042Y-96669365D01*
X137445933Y-96730016D01*
X137415428Y-96801193D01*
X137374519Y-96852330D01*
X137257546Y-96930312D01*
X137258150Y-96931520D01*
X137253318Y-96933130D01*
X137249161Y-96935902D01*
X137248568Y-96934714D01*
X137192309Y-96953467D01*
X137131514Y-96963600D01*
X136992280Y-96963600D01*
X136956100Y-96981690D01*
X136956100Y-97119014D01*
X136945769Y-97181003D01*
X136903171Y-97223600D01*
X136810400Y-97223600D01*
X136737612Y-97202803D01*
X136716100Y-97159780D01*
X136716100Y-96337637D01*
X136737319Y-96284590D01*
X136800289Y-96263600D01*
X137141455Y-96263600D01*
X137212610Y-96273765D01*
G37*
G36*
X138803055Y-96273959D02*
G01*
X138874895Y-96315010D01*
X138896442Y-96358104D01*
X138875866Y-96430118D01*
X138625648Y-97140738D01*
X138594556Y-97192559D01*
X138521723Y-97223773D01*
X138458697Y-97213269D01*
X138406730Y-97161301D01*
X138386357Y-97100181D01*
X138260787Y-96723469D01*
X138185800Y-96920309D01*
X138105613Y-97150844D01*
X138064020Y-97213234D01*
X137990639Y-97223717D01*
X137928118Y-97202876D01*
X137886666Y-97151061D01*
X137636220Y-96439795D01*
X137626029Y-96368459D01*
X137636603Y-96315589D01*
X137698976Y-96274007D01*
X137771596Y-96253258D01*
X137834827Y-96284873D01*
X137865757Y-96346734D01*
X137985514Y-96735942D01*
X137998966Y-96749393D01*
X138126430Y-96376803D01*
X138157226Y-96304947D01*
X138219590Y-96273765D01*
X138292534Y-96263344D01*
X138345081Y-96305382D01*
X138375731Y-96366682D01*
X138503284Y-96749343D01*
X138516742Y-96735886D01*
X138666915Y-96295381D01*
X138730250Y-96253157D01*
X138803055Y-96273959D01*
G37*
G36*
X139622516Y-96273767D02*
G01*
X139693693Y-96304272D01*
X139748321Y-96347974D01*
X139700813Y-96401816D01*
X139751100Y-96351529D01*
X139794986Y-96395415D01*
X139835632Y-96456384D01*
X139855986Y-96517447D01*
X139866100Y-96588245D01*
X139866100Y-96659300D01*
X139845780Y-96730420D01*
X139815335Y-96791310D01*
X139776459Y-96839903D01*
X139785919Y-96887201D01*
X139835568Y-97016288D01*
X139855693Y-97046476D01*
X139876504Y-97119312D01*
X139844715Y-97172293D01*
X139772804Y-97213385D01*
X139710106Y-97223835D01*
X139657159Y-97192066D01*
X139586665Y-97030938D01*
X139538329Y-96953600D01*
X139402062Y-96953600D01*
X139356100Y-96971984D01*
X139356100Y-97109014D01*
X139345769Y-97171003D01*
X139303422Y-97213349D01*
X139220708Y-97223688D01*
X139147368Y-97202734D01*
X139126235Y-97149900D01*
X139116100Y-97078955D01*
X139116100Y-96327215D01*
X139147828Y-96274335D01*
X139220400Y-96253600D01*
X139501514Y-96253600D01*
X139622516Y-96273767D01*
G37*
%TO.C,U$47*%
G36*
X158750544Y-120806307D02*
G01*
X158772100Y-120849420D01*
X158772100Y-120921780D01*
X158750479Y-120965023D01*
X158697595Y-120975600D01*
X158202100Y-120975600D01*
X158202100Y-121221014D01*
X158191676Y-121283559D01*
X158158981Y-121305356D01*
X158096318Y-121315799D01*
X158052677Y-121293979D01*
X158042100Y-121241095D01*
X158042100Y-120879789D01*
X158062899Y-120817391D01*
X158095586Y-120795600D01*
X158707716Y-120795600D01*
X158750544Y-120806307D01*
G37*
G36*
X158508197Y-120025720D02*
G01*
X158548642Y-120035832D01*
X158599571Y-120056203D01*
X158640100Y-120086600D01*
X158680671Y-120117029D01*
X158711100Y-120157600D01*
X158741497Y-120198129D01*
X158761742Y-120248743D01*
X158782100Y-120299637D01*
X158782100Y-120350104D01*
X158792223Y-120400722D01*
X158781998Y-120441622D01*
X158771943Y-120501955D01*
X158751497Y-120553071D01*
X158720887Y-120593884D01*
X158689656Y-120625115D01*
X158646303Y-120635953D01*
X158594000Y-120604571D01*
X158552100Y-120562671D01*
X158552100Y-120518933D01*
X158582704Y-120478127D01*
X158602100Y-120429638D01*
X158602100Y-120331562D01*
X158582704Y-120283072D01*
X158553528Y-120244172D01*
X158514628Y-120214996D01*
X158466138Y-120195600D01*
X158417596Y-120195600D01*
X158368081Y-120205503D01*
X158319193Y-120215281D01*
X158280883Y-120244014D01*
X158251489Y-120293002D01*
X158232100Y-120331780D01*
X158232100Y-120429638D01*
X158251594Y-120478372D01*
X158282100Y-120529215D01*
X158282100Y-120562671D01*
X158240200Y-120604571D01*
X158187546Y-120636163D01*
X158133941Y-120614722D01*
X158103017Y-120573489D01*
X158082568Y-120542816D01*
X158062258Y-120481886D01*
X158052197Y-120431581D01*
X158042001Y-120380600D01*
X158052197Y-120329619D01*
X158062328Y-120278963D01*
X158082536Y-120238549D01*
X158102703Y-120188129D01*
X158133100Y-120147600D01*
X158163529Y-120107029D01*
X158204629Y-120076203D01*
X158255049Y-120056036D01*
X158295050Y-120036035D01*
X158346137Y-120015600D01*
X158457595Y-120015600D01*
X158508197Y-120025720D01*
G37*
G36*
X158249656Y-119356085D02*
G01*
X158291209Y-119397638D01*
X158312690Y-119440600D01*
X158291209Y-119483562D01*
X158251068Y-119523705D01*
X158222100Y-119571984D01*
X158222100Y-119619638D01*
X158241166Y-119667301D01*
X158268151Y-119685291D01*
X158313722Y-119676177D01*
X158332328Y-119638964D01*
X158342287Y-119589169D01*
X158362287Y-119539172D01*
X158372367Y-119488770D01*
X158403129Y-119437500D01*
X158433816Y-119406813D01*
X158474629Y-119376203D01*
X158526137Y-119355600D01*
X158628063Y-119355600D01*
X158679571Y-119376203D01*
X158720671Y-119407029D01*
X158751371Y-119447961D01*
X158771665Y-119488550D01*
X158792100Y-119539637D01*
X158792100Y-119651216D01*
X158781904Y-119691999D01*
X158761470Y-119753301D01*
X158730636Y-119784136D01*
X158689171Y-119825600D01*
X158655715Y-119825600D01*
X158603688Y-119794384D01*
X158571759Y-119751812D01*
X158582420Y-119698507D01*
X158612419Y-119658508D01*
X158622000Y-119610600D01*
X158612494Y-119563066D01*
X158585456Y-119536028D01*
X158540736Y-119544972D01*
X158521796Y-119592322D01*
X158491943Y-119681881D01*
X158481913Y-119732031D01*
X158461497Y-119783071D01*
X158430671Y-119824171D01*
X158389193Y-119855280D01*
X158337595Y-119865600D01*
X158225920Y-119865600D01*
X158185049Y-119845165D01*
X158133941Y-119824722D01*
X158103100Y-119783600D01*
X158072420Y-119742693D01*
X158062197Y-119691581D01*
X158052197Y-119641581D01*
X158042001Y-119590600D01*
X158052197Y-119539619D01*
X158062420Y-119488507D01*
X158092949Y-119447802D01*
X158123316Y-119397188D01*
X158164461Y-119366329D01*
X158206518Y-119345301D01*
X158249656Y-119356085D01*
G37*
D12*
%TO.C,ADDR0*%
X146977100Y-101955600D02*
X146977100Y-100431600D01*
X147231100Y-100177600D02*
X149771100Y-100177600D01*
X149771100Y-102209600D02*
X147231100Y-102209600D01*
X150025100Y-101955600D02*
X150025100Y-100431600D01*
X146977100Y-100431600D02*
G75*
G02*
X147231100Y-100177600I254000J0D01*
G01*
X147231100Y-102209600D02*
G75*
G02*
X146977100Y-101955600I0J254000D01*
G01*
X149771100Y-100177600D02*
G75*
G02*
X150025100Y-100431600I0J-254000D01*
G01*
X150025100Y-101955600D02*
G75*
G02*
X149771100Y-102209600I-254000J0D01*
G01*
D11*
%TO.C,U$42*%
G36*
X138938827Y-119999873D02*
G01*
X138960100Y-120042420D01*
X138960100Y-120104780D01*
X138938722Y-120147536D01*
X138886063Y-120168600D01*
X138390100Y-120168600D01*
X138390100Y-120414095D01*
X138379706Y-120466065D01*
X138347171Y-120498600D01*
X138283920Y-120498600D01*
X138240677Y-120476979D01*
X138230100Y-120424095D01*
X138230100Y-120062637D01*
X138251034Y-120010301D01*
X138283150Y-119988891D01*
X138334605Y-119978600D01*
X138896280Y-119978600D01*
X138938827Y-119999873D01*
G37*
G36*
X138959523Y-120660221D02*
G01*
X138970100Y-120713105D01*
X138970100Y-120775267D01*
X138938035Y-120818020D01*
X138895716Y-120828600D01*
X138708469Y-120828600D01*
X138928512Y-121019941D01*
X138969615Y-121061044D01*
X138980399Y-121104182D01*
X138959081Y-121146818D01*
X138907527Y-121188061D01*
X138874499Y-121199071D01*
X138822425Y-121167826D01*
X138791915Y-121147486D01*
X138721564Y-121077136D01*
X138641313Y-120996884D01*
X138614559Y-120961212D01*
X138488532Y-121087239D01*
X138398073Y-121167647D01*
X138346485Y-121198600D01*
X138303029Y-121198600D01*
X138260839Y-121156410D01*
X138240100Y-121104563D01*
X138240100Y-121061529D01*
X138281688Y-121019941D01*
X138501731Y-120828600D01*
X138324484Y-120828600D01*
X138282544Y-120818115D01*
X138250100Y-120785671D01*
X138250100Y-120713105D01*
X138260766Y-120659774D01*
X138293891Y-120648733D01*
X138354686Y-120638600D01*
X138916280Y-120638600D01*
X138959523Y-120660221D01*
G37*
G36*
X138696197Y-119208720D02*
G01*
X138736642Y-119218832D01*
X138787571Y-119239203D01*
X138828100Y-119269600D01*
X138868671Y-119300029D01*
X138899255Y-119340806D01*
X138929486Y-119391192D01*
X138949665Y-119431550D01*
X138970100Y-119482637D01*
X138970100Y-119533104D01*
X138980199Y-119583600D01*
X138970003Y-119634581D01*
X138959913Y-119685031D01*
X138939497Y-119736071D01*
X138909100Y-119776600D01*
X138877600Y-119818600D01*
X138833715Y-119818600D01*
X138782000Y-119787571D01*
X138740100Y-119745671D01*
X138740100Y-119712215D01*
X138770711Y-119661198D01*
X138790100Y-119622420D01*
X138790100Y-119514780D01*
X138770830Y-119476240D01*
X138741528Y-119437172D01*
X138702628Y-119407996D01*
X138653672Y-119388414D01*
X138605100Y-119378700D01*
X138556528Y-119388414D01*
X138507572Y-119407996D01*
X138468672Y-119437172D01*
X138439496Y-119476072D01*
X138420100Y-119524562D01*
X138420100Y-119622420D01*
X138439489Y-119661198D01*
X138470100Y-119712215D01*
X138470100Y-119755671D01*
X138427910Y-119797861D01*
X138375577Y-119818794D01*
X138322246Y-119808128D01*
X138290829Y-119766239D01*
X138270535Y-119725650D01*
X138250287Y-119675031D01*
X138240197Y-119624581D01*
X138230001Y-119573600D01*
X138240197Y-119522619D01*
X138250287Y-119472169D01*
X138270535Y-119421550D01*
X138290714Y-119381192D01*
X138321129Y-119330500D01*
X138351816Y-119299813D01*
X138392306Y-119269445D01*
X138442692Y-119239214D01*
X138483463Y-119218828D01*
X138534119Y-119208697D01*
X138584605Y-119198600D01*
X138645595Y-119198600D01*
X138696197Y-119208720D01*
G37*
%TO.C,U$9*%
G36*
X153403807Y-100518650D02*
G01*
X153474253Y-100528714D01*
X153534681Y-100548857D01*
X153595018Y-100568969D01*
X153655614Y-100599267D01*
X153716054Y-100639560D01*
X153766440Y-100679869D01*
X153816636Y-100730064D01*
X153867209Y-100780638D01*
X153897432Y-100841084D01*
X153937632Y-100901384D01*
X153957843Y-100962019D01*
X153977878Y-101022122D01*
X153998100Y-101092900D01*
X153998100Y-101294300D01*
X153977878Y-101365078D01*
X153957883Y-101425058D01*
X153937632Y-101495939D01*
X153897335Y-101546308D01*
X153867209Y-101606562D01*
X153816636Y-101657136D01*
X153766440Y-101707331D01*
X153716054Y-101747640D01*
X153655614Y-101787933D01*
X153595018Y-101818231D01*
X153534578Y-101838378D01*
X153464201Y-101858485D01*
X153403865Y-101868542D01*
X153333455Y-101878600D01*
X149938100Y-101878600D01*
X149938100Y-100583245D01*
X149948764Y-100508600D01*
X153333455Y-100508600D01*
X153403807Y-100518650D01*
G37*
%TO.C,U$41*%
G36*
X158761523Y-98220221D02*
G01*
X158772100Y-98273105D01*
X158772100Y-98834780D01*
X158750479Y-98878023D01*
X158697100Y-98888699D01*
X158643721Y-98878023D01*
X158622100Y-98834780D01*
X158622100Y-98674096D01*
X158613000Y-98628600D01*
X158105920Y-98628600D01*
X158063164Y-98607222D01*
X158041906Y-98554077D01*
X158052420Y-98501507D01*
X158084165Y-98459180D01*
X158126484Y-98448600D01*
X158596290Y-98448600D01*
X158622100Y-98439997D01*
X158622100Y-98231529D01*
X158655029Y-98198600D01*
X158718280Y-98198600D01*
X158761523Y-98220221D01*
G37*
G36*
X158750544Y-95799307D02*
G01*
X158772100Y-95842420D01*
X158772100Y-96154563D01*
X158751742Y-96205457D01*
X158731222Y-96256759D01*
X158690100Y-96287600D01*
X158649571Y-96317997D01*
X158598063Y-96338600D01*
X158546605Y-96338600D01*
X158496119Y-96328503D01*
X158444635Y-96318206D01*
X158433417Y-96306988D01*
X158432848Y-96306317D01*
X158389336Y-96328072D01*
X158348737Y-96348372D01*
X158297595Y-96358600D01*
X158236137Y-96358600D01*
X158185050Y-96338165D01*
X158144461Y-96317871D01*
X158103316Y-96287012D01*
X158072714Y-96236008D01*
X158052328Y-96195237D01*
X158042100Y-96144095D01*
X158042100Y-95883186D01*
X158052431Y-95821197D01*
X158085029Y-95788600D01*
X158707716Y-95788600D01*
X158750544Y-95799307D01*
G37*
G36*
X158549150Y-97369035D02*
G01*
X158589151Y-97389035D01*
X158639571Y-97409203D01*
X158680671Y-97440029D01*
X158711100Y-97480600D01*
X158741497Y-97521129D01*
X158761664Y-97571548D01*
X158782100Y-97612420D01*
X158782100Y-97662983D01*
X158792223Y-97703478D01*
X158782003Y-97754581D01*
X158771872Y-97805237D01*
X158751664Y-97845651D01*
X158731497Y-97896071D01*
X158700887Y-97936884D01*
X158660384Y-97977387D01*
X158619739Y-98007871D01*
X158579150Y-98028165D01*
X158528531Y-98048413D01*
X158477595Y-98058600D01*
X158376605Y-98058600D01*
X158326119Y-98048503D01*
X158275463Y-98038372D01*
X158234692Y-98017986D01*
X158184000Y-97987571D01*
X158143313Y-97946884D01*
X158113100Y-97906600D01*
X158082829Y-97866239D01*
X158062328Y-97825237D01*
X158052197Y-97774581D01*
X158042001Y-97723600D01*
X158052100Y-97673104D01*
X158052100Y-97622637D01*
X158072458Y-97571743D01*
X158092703Y-97521129D01*
X158123313Y-97480316D01*
X158163816Y-97439813D01*
X158204461Y-97409329D01*
X158239708Y-97391705D01*
X158239418Y-97391288D01*
X158245043Y-97389038D01*
X158248959Y-97387080D01*
X158249153Y-97387394D01*
X158295048Y-97369036D01*
X158335920Y-97348600D01*
X158498063Y-97348600D01*
X158549150Y-97369035D01*
G37*
G36*
X158498081Y-96498697D02*
G01*
X158548737Y-96508828D01*
X158589151Y-96529036D01*
X158639571Y-96549203D01*
X158680671Y-96580029D01*
X158711100Y-96620600D01*
X158741497Y-96661129D01*
X158761742Y-96711743D01*
X158782100Y-96762637D01*
X158782100Y-96812790D01*
X158792263Y-96843279D01*
X158782003Y-96894581D01*
X158771872Y-96945237D01*
X158751664Y-96985652D01*
X158731497Y-97036071D01*
X158700887Y-97076884D01*
X158660384Y-97117387D01*
X158619739Y-97147871D01*
X158579150Y-97168165D01*
X158528531Y-97188413D01*
X158477595Y-97198600D01*
X158376605Y-97198600D01*
X158326119Y-97188503D01*
X158275463Y-97178372D01*
X158234692Y-97157986D01*
X158184000Y-97127571D01*
X158143564Y-97087136D01*
X158113129Y-97056700D01*
X158082714Y-97006008D01*
X158062328Y-96965237D01*
X158052197Y-96914581D01*
X158042001Y-96863600D01*
X158052100Y-96813104D01*
X158052100Y-96762637D01*
X158072535Y-96711550D01*
X158092714Y-96671192D01*
X158123316Y-96620188D01*
X158163813Y-96589816D01*
X158204138Y-96549491D01*
X158239708Y-96531706D01*
X158239418Y-96531288D01*
X158245044Y-96529038D01*
X158248959Y-96527080D01*
X158249153Y-96527395D01*
X158295048Y-96509036D01*
X158335920Y-96488600D01*
X158447595Y-96488600D01*
X158498081Y-96498697D01*
G37*
%TO.C,U$35*%
G36*
X138666081Y-112258697D02*
G01*
X138716531Y-112268787D01*
X138767150Y-112289035D01*
X138807739Y-112309329D01*
X138848384Y-112339813D01*
X138888887Y-112380316D01*
X138919100Y-112420600D01*
X138949780Y-112461507D01*
X138959913Y-112512172D01*
X138980100Y-112562637D01*
X138980100Y-112664095D01*
X138969872Y-112715237D01*
X138949664Y-112755651D01*
X138929594Y-112805829D01*
X138898322Y-112857948D01*
X138854744Y-112868843D01*
X138802290Y-112847861D01*
X138760730Y-112806301D01*
X138749777Y-112773444D01*
X138790286Y-112672171D01*
X138800000Y-112623600D01*
X138790197Y-112574581D01*
X138780419Y-112525693D01*
X138751528Y-112487172D01*
X138712628Y-112457996D01*
X138664138Y-112438600D01*
X138566062Y-112438600D01*
X138517572Y-112457996D01*
X138478388Y-112487384D01*
X138439360Y-112526412D01*
X138420100Y-112574562D01*
X138420100Y-112672420D01*
X138438190Y-112708600D01*
X138530576Y-112708600D01*
X138540302Y-112611327D01*
X138572635Y-112578994D01*
X138625802Y-112568361D01*
X138669036Y-112589978D01*
X138690100Y-112642637D01*
X138690100Y-112794014D01*
X138679769Y-112856003D01*
X138647171Y-112888600D01*
X138384484Y-112888600D01*
X138342908Y-112878206D01*
X138301156Y-112846892D01*
X138260535Y-112765650D01*
X138240100Y-112714563D01*
X138240100Y-112654014D01*
X138230017Y-112593518D01*
X138240220Y-112542503D01*
X138250332Y-112502058D01*
X138270703Y-112451129D01*
X138301313Y-112410316D01*
X138341564Y-112370064D01*
X138381816Y-112329813D01*
X138422461Y-112299329D01*
X138463463Y-112278828D01*
X138514119Y-112268697D01*
X138564119Y-112258697D01*
X138615100Y-112248501D01*
X138666081Y-112258697D01*
G37*
%TO.C,U$34*%
G36*
X158478081Y-112385697D02*
G01*
X158528531Y-112395787D01*
X158579150Y-112416035D01*
X158619739Y-112436329D01*
X158660384Y-112466813D01*
X158700887Y-112507316D01*
X158731100Y-112547600D01*
X158761780Y-112588507D01*
X158771913Y-112639172D01*
X158792100Y-112689637D01*
X158792100Y-112791095D01*
X158781872Y-112842237D01*
X158761664Y-112882651D01*
X158741594Y-112932829D01*
X158710322Y-112984948D01*
X158666744Y-112995843D01*
X158614290Y-112974861D01*
X158572730Y-112933301D01*
X158561777Y-112900444D01*
X158602286Y-112799171D01*
X158612000Y-112750600D01*
X158602197Y-112701581D01*
X158592419Y-112652693D01*
X158563528Y-112614172D01*
X158524628Y-112584996D01*
X158476138Y-112565600D01*
X158378062Y-112565600D01*
X158329572Y-112584996D01*
X158290388Y-112614384D01*
X158251360Y-112653412D01*
X158232100Y-112701562D01*
X158232100Y-112799420D01*
X158250190Y-112835600D01*
X158342576Y-112835600D01*
X158352302Y-112738327D01*
X158384635Y-112705994D01*
X158437802Y-112695361D01*
X158481036Y-112716978D01*
X158502100Y-112769637D01*
X158502100Y-112921014D01*
X158491769Y-112983003D01*
X158459171Y-113015600D01*
X158196484Y-113015600D01*
X158154908Y-113005206D01*
X158113156Y-112973892D01*
X158072535Y-112892650D01*
X158052100Y-112841563D01*
X158052100Y-112781014D01*
X158042017Y-112720518D01*
X158052220Y-112669503D01*
X158062332Y-112629058D01*
X158082703Y-112578129D01*
X158113313Y-112537316D01*
X158153564Y-112497064D01*
X158193816Y-112456813D01*
X158234461Y-112426329D01*
X158275463Y-112405828D01*
X158326119Y-112395697D01*
X158376119Y-112385697D01*
X158427100Y-112375501D01*
X158478081Y-112385697D01*
G37*
%TO.C,U$22*%
G36*
X153885807Y-96708650D02*
G01*
X153955865Y-96718658D01*
X154016516Y-96728767D01*
X154087205Y-96759062D01*
X154147336Y-96789128D01*
X154207810Y-96819365D01*
X154258440Y-96859869D01*
X154308831Y-96910260D01*
X154349004Y-96960477D01*
X154389140Y-97010646D01*
X154429632Y-97071384D01*
X154449774Y-97131813D01*
X154479956Y-97202238D01*
X154490042Y-97272844D01*
X154500100Y-97333186D01*
X154500100Y-97403955D01*
X154490042Y-97474365D01*
X154479985Y-97534701D01*
X154459878Y-97605078D01*
X154439731Y-97665518D01*
X154409433Y-97726114D01*
X154369140Y-97786554D01*
X154328831Y-97836940D01*
X154278440Y-97887331D01*
X154228054Y-97927640D01*
X154167614Y-97967933D01*
X154046920Y-98028280D01*
X153976201Y-98048485D01*
X153915865Y-98058542D01*
X153845455Y-98068600D01*
X151002600Y-98068600D01*
X150970100Y-98025267D01*
X150970100Y-96731100D01*
X151013433Y-96698600D01*
X153815455Y-96698600D01*
X153885807Y-96708650D01*
G37*
D13*
%TO.C,WU0*%
X148551900Y-96824800D02*
X148551900Y-97942400D01*
X149009100Y-96367600D02*
X150533100Y-96367600D01*
X150533100Y-98399600D02*
X149009100Y-98399600D01*
X150990300Y-96824800D02*
X150990300Y-97942400D01*
X148551900Y-96824800D02*
G75*
G02*
X149009100Y-96367600I457200J0D01*
G01*
X149009100Y-98399600D02*
G75*
G02*
X148551900Y-97942400I0J457200D01*
G01*
X150533100Y-96367600D02*
G75*
G02*
X150990300Y-96824800I-1J-457201D01*
G01*
X150990300Y-97942400D02*
G75*
G02*
X150533100Y-98399600I-457201J1D01*
G01*
D11*
%TO.C,U$1*%
G36*
X139187100Y-103438600D02*
G01*
X139077100Y-103438600D01*
X139077100Y-101488600D01*
X139187100Y-101488600D01*
X139187100Y-103438600D01*
G37*
G36*
X138944050Y-101538891D02*
G01*
X138976734Y-101560680D01*
X138987171Y-101633741D01*
X138976523Y-101686979D01*
X138933737Y-101708372D01*
X138882595Y-101718600D01*
X138371605Y-101718600D01*
X138321003Y-101708480D01*
X138278656Y-101697893D01*
X138256929Y-101654439D01*
X138267265Y-101582090D01*
X138288656Y-101539307D01*
X138331484Y-101528600D01*
X138892595Y-101528600D01*
X138944050Y-101538891D01*
G37*
G36*
X138976523Y-102630221D02*
G01*
X138987100Y-102683105D01*
X138987100Y-103254780D01*
X138965190Y-103298600D01*
X138901484Y-103298600D01*
X138858656Y-103287893D01*
X138837100Y-103244780D01*
X138837100Y-103084217D01*
X138828195Y-103048600D01*
X138371605Y-103048600D01*
X138320463Y-103038372D01*
X138278373Y-103017327D01*
X138256901Y-102974382D01*
X138267292Y-102912036D01*
X138289010Y-102868600D01*
X138800920Y-102868600D01*
X138837100Y-102850510D01*
X138837100Y-102641529D01*
X138870029Y-102608600D01*
X138933280Y-102608600D01*
X138976523Y-102630221D01*
G37*
G36*
X138955111Y-101869103D02*
G01*
X138976856Y-101901719D01*
X138987262Y-101964158D01*
X138966361Y-102016410D01*
X138935343Y-102047428D01*
X138725048Y-102197639D01*
X138577100Y-102308600D01*
X138923280Y-102308600D01*
X138965827Y-102329873D01*
X138987100Y-102372420D01*
X138987100Y-102434780D01*
X138965479Y-102478023D01*
X138912595Y-102488600D01*
X138300029Y-102488600D01*
X138267431Y-102456003D01*
X138257017Y-102393518D01*
X138267494Y-102341135D01*
X138308816Y-102299813D01*
X138657100Y-102038600D01*
X138320920Y-102038600D01*
X138278164Y-102017222D01*
X138256938Y-101964158D01*
X138267344Y-101901719D01*
X138289089Y-101869103D01*
X138341605Y-101858600D01*
X138902595Y-101858600D01*
X138955111Y-101869103D01*
G37*
%TO.C,U$11*%
G36*
X154433100Y-123473769D02*
G01*
X154433100Y-123547014D01*
X154422652Y-123609700D01*
X154369485Y-123641600D01*
X154158514Y-123641600D01*
X154103100Y-123650836D01*
X154103100Y-124256955D01*
X154092986Y-124327753D01*
X154071866Y-124391113D01*
X153998455Y-124401600D01*
X153926346Y-124401600D01*
X153873483Y-124359309D01*
X153863100Y-124297014D01*
X153863100Y-123677780D01*
X153845010Y-123641600D01*
X153637745Y-123641600D01*
X153565743Y-123631314D01*
X153523100Y-123588671D01*
X153523100Y-123515420D01*
X153554767Y-123452087D01*
X153617686Y-123441600D01*
X154379485Y-123441600D01*
X154433100Y-123473769D01*
G37*
G36*
X150870018Y-123461969D02*
G01*
X150931062Y-123492491D01*
X150982209Y-123543638D01*
X151043100Y-123665420D01*
X151043100Y-123736955D01*
X151032986Y-123807753D01*
X151012632Y-123868816D01*
X150994289Y-123896332D01*
X151032335Y-123943890D01*
X151062935Y-124005090D01*
X151073151Y-124076600D01*
X151063050Y-124147307D01*
X151052889Y-124218430D01*
X151012140Y-124279554D01*
X150971519Y-124330330D01*
X150910316Y-124371132D01*
X150849253Y-124391486D01*
X150778455Y-124401600D01*
X150437789Y-124401600D01*
X150356162Y-124391397D01*
X150313100Y-124359100D01*
X150313100Y-123536186D01*
X150323548Y-123473500D01*
X150376715Y-123441600D01*
X150808911Y-123441600D01*
X150870018Y-123461969D01*
G37*
G36*
X152999578Y-123441822D02*
G01*
X153060018Y-123461969D01*
X153121062Y-123492491D01*
X153171447Y-123542876D01*
X153221830Y-123583181D01*
X153262433Y-123644086D01*
X153322908Y-123765036D01*
X153333042Y-123825835D01*
X153343151Y-123896600D01*
X153333050Y-123967307D01*
X153322986Y-124037753D01*
X153302731Y-124098518D01*
X153242209Y-124219562D01*
X153191636Y-124270136D01*
X153141062Y-124320709D01*
X153020018Y-124381231D01*
X152958911Y-124401600D01*
X152817745Y-124401600D01*
X152746947Y-124391486D01*
X152686182Y-124371231D01*
X152625390Y-124340835D01*
X152574760Y-124300331D01*
X152524564Y-124250136D01*
X152473991Y-124199562D01*
X152446062Y-124143704D01*
X152446062Y-124143705D01*
X152413469Y-124078518D01*
X152393100Y-124017411D01*
X152393100Y-123876245D01*
X152403158Y-123805835D01*
X152413292Y-123745036D01*
X152473865Y-123623890D01*
X152514369Y-123573260D01*
X152564915Y-123522714D01*
X152625586Y-123482267D01*
X152686182Y-123451969D01*
X152746947Y-123431714D01*
X152817745Y-123421600D01*
X152928800Y-123421600D01*
X152999578Y-123441822D01*
G37*
G36*
X151849681Y-123441857D02*
G01*
X151910018Y-123461969D01*
X151970855Y-123492387D01*
X152031283Y-123542744D01*
X152081830Y-123583181D01*
X152122433Y-123644086D01*
X152152731Y-123704682D01*
X152172843Y-123765019D01*
X152193100Y-123825789D01*
X152193100Y-123966955D01*
X152182986Y-124037753D01*
X152162731Y-124098518D01*
X152132433Y-124159114D01*
X152092140Y-124219554D01*
X152051689Y-124270118D01*
X151991004Y-124320689D01*
X151940508Y-124350986D01*
X151879920Y-124381280D01*
X151808800Y-124401600D01*
X151677745Y-124401600D01*
X151606947Y-124391486D01*
X151546182Y-124371231D01*
X151485586Y-124340933D01*
X151424915Y-124300486D01*
X151374369Y-124249940D01*
X151334060Y-124199554D01*
X151296607Y-124143372D01*
X151295344Y-124144144D01*
X151293568Y-124138815D01*
X151291055Y-124135046D01*
X151292099Y-124134408D01*
X151273357Y-124078181D01*
X151253214Y-124017753D01*
X151243100Y-123946955D01*
X151243100Y-123876245D01*
X151253214Y-123805447D01*
X151273357Y-123745019D01*
X151293568Y-123684384D01*
X151334060Y-123623646D01*
X151374369Y-123573260D01*
X151424915Y-123522714D01*
X151485425Y-123482374D01*
X151536093Y-123451973D01*
X151606999Y-123431715D01*
X151667686Y-123421600D01*
X151788911Y-123421600D01*
X151849681Y-123441857D01*
G37*
%TO.C,U$40*%
G36*
X158729050Y-99382891D02*
G01*
X158761676Y-99404641D01*
X158772169Y-99467600D01*
X158761676Y-99530559D01*
X158728981Y-99552356D01*
X158667514Y-99562600D01*
X158166686Y-99562600D01*
X158106081Y-99552499D01*
X158062818Y-99541683D01*
X158052100Y-99488095D01*
X158052100Y-99426420D01*
X158073656Y-99383307D01*
X158116484Y-99372600D01*
X158677595Y-99372600D01*
X158729050Y-99382891D01*
G37*
G36*
X158569656Y-100543085D02*
G01*
X158610720Y-100584149D01*
X158710710Y-100694138D01*
X158751209Y-100734638D01*
X158772100Y-100776420D01*
X158772100Y-100828563D01*
X158750485Y-100882600D01*
X158085029Y-100882600D01*
X158052431Y-100850003D01*
X158041938Y-100787042D01*
X158062839Y-100734790D01*
X158095029Y-100702600D01*
X158445920Y-100702600D01*
X158460749Y-100695185D01*
X158442100Y-100648563D01*
X158442100Y-100605529D01*
X158483816Y-100563813D01*
X158526004Y-100532172D01*
X158569656Y-100543085D01*
G37*
G36*
X158498081Y-99692697D02*
G01*
X158548737Y-99702828D01*
X158589508Y-99723214D01*
X158639894Y-99753445D01*
X158680671Y-99784029D01*
X158711100Y-99824600D01*
X158741371Y-99864961D01*
X158761665Y-99905550D01*
X158782100Y-99956637D01*
X158782100Y-100006790D01*
X158792263Y-100037279D01*
X158782003Y-100088581D01*
X158771913Y-100139031D01*
X158751665Y-100189650D01*
X158731371Y-100230239D01*
X158700887Y-100270884D01*
X158660384Y-100311387D01*
X158620100Y-100341600D01*
X158579193Y-100372280D01*
X158528081Y-100382503D01*
X158478081Y-100392503D01*
X158427595Y-100402600D01*
X158376605Y-100402600D01*
X158325669Y-100392413D01*
X158275050Y-100372165D01*
X158234692Y-100351986D01*
X158184306Y-100321755D01*
X158143529Y-100291171D01*
X158113100Y-100250600D01*
X158082703Y-100210071D01*
X158062287Y-100159031D01*
X158052197Y-100108581D01*
X158042001Y-100057600D01*
X158052100Y-100007104D01*
X158052100Y-99956637D01*
X158072535Y-99905550D01*
X158092829Y-99864961D01*
X158123313Y-99824316D01*
X158163816Y-99783813D01*
X158204100Y-99753600D01*
X158240379Y-99726392D01*
X158239618Y-99725208D01*
X158244629Y-99723204D01*
X158248631Y-99720202D01*
X158249283Y-99721343D01*
X158295558Y-99702832D01*
X158336003Y-99692720D01*
X158386605Y-99682600D01*
X158447595Y-99682600D01*
X158498081Y-99692697D01*
G37*
%TO.C,U$5*%
G36*
X146494100Y-123473510D02*
G01*
X146494100Y-123547014D01*
X146483652Y-123609700D01*
X146430485Y-123641600D01*
X146219514Y-123641600D01*
X146164100Y-123650836D01*
X146164100Y-124256955D01*
X146153935Y-124328110D01*
X146122433Y-124391113D01*
X146059514Y-124401600D01*
X145987346Y-124401600D01*
X145934483Y-124359309D01*
X145924100Y-124297014D01*
X145924100Y-123677780D01*
X145906010Y-123641600D01*
X145698745Y-123641600D01*
X145626743Y-123631314D01*
X145584100Y-123588671D01*
X145584100Y-123515789D01*
X145605334Y-123452087D01*
X145678745Y-123441600D01*
X146430280Y-123441600D01*
X146494100Y-123473510D01*
G37*
G36*
X144219865Y-123441658D02*
G01*
X144280664Y-123451792D01*
X144341614Y-123482267D01*
X144406637Y-123525615D01*
X144401149Y-123531836D01*
X144453081Y-123573382D01*
X144513935Y-123695090D01*
X144524151Y-123766600D01*
X144514050Y-123837307D01*
X144503935Y-123908110D01*
X144473335Y-123969310D01*
X144434100Y-124018353D01*
X144434100Y-124065501D01*
X144493756Y-124194756D01*
X144503878Y-124225122D01*
X144524377Y-124296870D01*
X144503095Y-124350076D01*
X144430752Y-124391415D01*
X144358050Y-124401801D01*
X144305159Y-124370066D01*
X144234666Y-124208938D01*
X144186329Y-124131600D01*
X144060062Y-124131600D01*
X144014100Y-124149984D01*
X144014100Y-124287014D01*
X144003769Y-124349003D01*
X143961395Y-124391376D01*
X143868673Y-124401678D01*
X143795368Y-124380734D01*
X143774100Y-124327563D01*
X143774100Y-123505637D01*
X143795368Y-123452466D01*
X143868400Y-123431600D01*
X144149455Y-123431600D01*
X144219865Y-123441658D01*
G37*
G36*
X145099807Y-123421650D02*
G01*
X145170145Y-123431699D01*
X145241439Y-123452068D01*
X145292440Y-123492869D01*
X145344528Y-123544957D01*
X145333844Y-123598376D01*
X145292793Y-123670215D01*
X145240485Y-123701600D01*
X145177290Y-123701600D01*
X145116624Y-123651045D01*
X145058641Y-123631717D01*
X144991767Y-123641271D01*
X144954704Y-123687600D01*
X144973377Y-123743619D01*
X145021333Y-123781984D01*
X145150350Y-123811757D01*
X145220920Y-123831920D01*
X145281810Y-123862365D01*
X145332657Y-123903043D01*
X145373561Y-123954173D01*
X145394000Y-124015489D01*
X145404144Y-124096644D01*
X145393986Y-124167753D01*
X145373632Y-124228816D01*
X145332830Y-124290019D01*
X145281810Y-124330835D01*
X145160664Y-124391408D01*
X145099514Y-124401600D01*
X144958400Y-124401600D01*
X144886761Y-124381132D01*
X144836152Y-124340643D01*
X144775915Y-124300486D01*
X144734884Y-124259455D01*
X144703893Y-124187142D01*
X144714446Y-124134374D01*
X144766447Y-124071973D01*
X144829658Y-124061438D01*
X144881692Y-124082252D01*
X144942095Y-124132587D01*
X145000930Y-124171810D01*
X145068419Y-124181451D01*
X145135228Y-124152819D01*
X145153939Y-124106042D01*
X145144587Y-124049933D01*
X145087591Y-124021435D01*
X145017947Y-124011486D01*
X144957322Y-123991278D01*
X144886995Y-123961138D01*
X144826390Y-123930835D01*
X144775275Y-123889943D01*
X144744473Y-123838607D01*
X144724199Y-123767645D01*
X144714041Y-123696541D01*
X144724233Y-123635391D01*
X144744568Y-123574384D01*
X144785370Y-123513181D01*
X144836239Y-123472486D01*
X144887093Y-123441973D01*
X144958055Y-123421699D01*
X145029100Y-123411549D01*
X145099807Y-123421650D01*
G37*
%TO.C,U$25*%
G36*
X147136190Y-99490600D02*
G01*
X146985424Y-99490600D01*
X146962388Y-99456045D01*
X147023593Y-99323434D01*
X147038100Y-99294420D01*
X147136190Y-99490600D01*
G37*
G36*
X150250158Y-99160843D02*
G01*
X150302081Y-99202382D01*
X150333442Y-99265104D01*
X150312552Y-99338219D01*
X150270457Y-99380314D01*
X150198455Y-99390600D01*
X150066029Y-99390600D01*
X150043100Y-99367671D01*
X150043100Y-99161364D01*
X150107686Y-99150600D01*
X150178455Y-99150600D01*
X150250158Y-99160843D01*
G37*
G36*
X148189664Y-99170792D02*
G01*
X148251062Y-99201491D01*
X148301831Y-99252260D01*
X148342857Y-99303542D01*
X148353100Y-99375245D01*
X148353100Y-99446014D01*
X148342856Y-99507481D01*
X148301986Y-99568785D01*
X148251062Y-99619709D01*
X148169280Y-99660600D01*
X148037137Y-99660600D01*
X147983100Y-99638985D01*
X147983100Y-99160600D01*
X148128514Y-99160600D01*
X148189664Y-99170792D01*
G37*
G36*
X149219610Y-99170765D02*
G01*
X149280810Y-99201365D01*
X149332081Y-99242382D01*
X149362731Y-99303682D01*
X149383100Y-99364789D01*
X149383100Y-99435955D01*
X149372889Y-99507430D01*
X149332140Y-99568554D01*
X149291657Y-99619157D01*
X149239854Y-99660600D01*
X149067605Y-99660600D01*
X149013100Y-99649699D01*
X149013100Y-99171364D01*
X149077686Y-99160600D01*
X149148455Y-99160600D01*
X149219610Y-99170765D01*
G37*
G36*
X150808807Y-98740650D02*
G01*
X150879253Y-98750714D01*
X150940018Y-98770969D01*
X151060614Y-98831267D01*
X151121054Y-98871560D01*
X151171440Y-98911869D01*
X151221831Y-98962260D01*
X151262140Y-99012646D01*
X151302433Y-99073086D01*
X151332731Y-99133682D01*
X151352878Y-99194122D01*
X151372985Y-99264499D01*
X151383042Y-99324835D01*
X151393100Y-99395245D01*
X151393100Y-99465955D01*
X151383042Y-99536365D01*
X151372933Y-99597016D01*
X151342774Y-99667387D01*
X151322632Y-99727816D01*
X151282140Y-99788554D01*
X151242004Y-99838723D01*
X151201831Y-99888940D01*
X151151285Y-99939486D01*
X151090775Y-99979826D01*
X151040508Y-100009986D01*
X150980205Y-100040138D01*
X150909516Y-100070433D01*
X150848865Y-100080542D01*
X150778807Y-100090550D01*
X150708455Y-100100600D01*
X146517745Y-100100600D01*
X146447393Y-100090550D01*
X146376947Y-100080486D01*
X146316182Y-100060231D01*
X146195586Y-99999933D01*
X146135146Y-99959640D01*
X146084760Y-99919331D01*
X146034369Y-99868940D01*
X145994060Y-99818554D01*
X145953767Y-99758114D01*
X145923469Y-99697518D01*
X145903322Y-99637078D01*
X145883215Y-99566701D01*
X145873158Y-99506365D01*
X145863100Y-99435955D01*
X145863100Y-99365245D01*
X145873158Y-99294835D01*
X145883267Y-99234184D01*
X145913426Y-99163813D01*
X145933568Y-99103384D01*
X145974060Y-99042646D01*
X146014196Y-98992477D01*
X146054369Y-98942260D01*
X146104915Y-98891714D01*
X146165425Y-98851374D01*
X146215692Y-98821214D01*
X146275995Y-98791062D01*
X146346684Y-98760767D01*
X146407335Y-98750658D01*
X146477393Y-98740650D01*
X146547745Y-98730600D01*
X150738455Y-98730600D01*
X150808807Y-98740650D01*
G37*
D13*
%TO.C,S1*%
X149771100Y-128468600D02*
X149771100Y-125958600D01*
X150771100Y-124688600D02*
X153851100Y-124688600D01*
X153851100Y-129768600D02*
X150771100Y-129768600D01*
X154851100Y-125988600D02*
X154851100Y-128468600D01*
X153581100Y-127228600D02*
G75*
G02*
X151041100Y-127228600I-1270000J0D01*
G01*
X151041100Y-127228600D02*
G75*
G02*
X153581100Y-127228600I1270000J0D01*
G01*
D11*
%TO.C,U$33*%
G36*
X158740884Y-114633188D02*
G01*
X158772100Y-114685215D01*
X158772100Y-114738671D01*
X158740285Y-114770486D01*
X158709529Y-114790990D01*
X158309989Y-114970784D01*
X158305634Y-114975139D01*
X158760805Y-115192830D01*
X158782576Y-115236372D01*
X158761497Y-115289071D01*
X158730035Y-115331020D01*
X158687222Y-115341723D01*
X158635463Y-115331372D01*
X158135049Y-115081164D01*
X158083941Y-115060722D01*
X158052420Y-115018693D01*
X158041906Y-114966123D01*
X158062978Y-114913441D01*
X158104505Y-114882296D01*
X158654908Y-114622106D01*
X158697628Y-114600746D01*
X158740884Y-114633188D01*
G37*
G36*
X158321597Y-113943589D02*
G01*
X158332100Y-113996105D01*
X158332100Y-114058671D01*
X158299910Y-114090861D01*
X158250947Y-114110447D01*
X158231914Y-114158028D01*
X158222200Y-114206600D01*
X158231629Y-114253747D01*
X158268767Y-114281600D01*
X158314600Y-114281600D01*
X158342100Y-114244933D01*
X158342100Y-114196105D01*
X158352603Y-114143589D01*
X158385270Y-114121811D01*
X158457716Y-114111461D01*
X158511110Y-114132819D01*
X158521967Y-114165391D01*
X158531943Y-114225247D01*
X158550484Y-114271600D01*
X158584600Y-114271600D01*
X158612100Y-114234933D01*
X158612100Y-114177780D01*
X158593155Y-114139892D01*
X158553529Y-114110171D01*
X158522100Y-114068267D01*
X158522100Y-114025215D01*
X158553679Y-113972583D01*
X158606744Y-113951357D01*
X158648845Y-113961882D01*
X158690062Y-113982491D01*
X158730887Y-114023316D01*
X158761497Y-114064129D01*
X158781913Y-114115169D01*
X158792100Y-114166105D01*
X158792100Y-114318671D01*
X158720384Y-114390387D01*
X158679894Y-114420755D01*
X158629034Y-114451270D01*
X158587304Y-114461703D01*
X158525536Y-114451408D01*
X158484138Y-114430709D01*
X158455028Y-114401600D01*
X158429171Y-114401600D01*
X158390062Y-114440709D01*
X158348737Y-114461372D01*
X158297595Y-114471600D01*
X158235920Y-114471600D01*
X158154138Y-114430709D01*
X158113313Y-114389884D01*
X158082829Y-114349239D01*
X158062328Y-114308237D01*
X158052181Y-114257502D01*
X158042017Y-114196518D01*
X158052197Y-114145619D01*
X158062287Y-114095169D01*
X158082535Y-114044550D01*
X158103156Y-114003308D01*
X158144100Y-113972600D01*
X158184629Y-113942203D01*
X158236137Y-113921600D01*
X158288614Y-113921600D01*
X158321597Y-113943589D01*
G37*
G36*
X158321597Y-115523589D02*
G01*
X158332100Y-115576105D01*
X158332100Y-115638671D01*
X158299910Y-115670861D01*
X158250947Y-115690446D01*
X158231914Y-115738028D01*
X158222200Y-115786600D01*
X158231629Y-115833746D01*
X158268767Y-115861600D01*
X158314600Y-115861600D01*
X158342100Y-115824933D01*
X158342100Y-115776105D01*
X158352603Y-115723589D01*
X158385270Y-115701811D01*
X158457716Y-115691461D01*
X158511110Y-115712819D01*
X158521967Y-115745391D01*
X158531943Y-115805246D01*
X158550484Y-115851600D01*
X158584600Y-115851600D01*
X158612100Y-115814933D01*
X158612100Y-115757780D01*
X158593155Y-115719891D01*
X158553529Y-115690171D01*
X158522100Y-115648267D01*
X158522100Y-115605215D01*
X158553679Y-115552583D01*
X158606744Y-115531357D01*
X158648845Y-115541882D01*
X158690062Y-115562491D01*
X158730887Y-115603316D01*
X158761497Y-115644129D01*
X158781913Y-115695169D01*
X158792100Y-115746105D01*
X158792100Y-115898671D01*
X158720384Y-115970387D01*
X158679571Y-116000997D01*
X158628642Y-116021368D01*
X158587716Y-116031600D01*
X158525920Y-116031600D01*
X158484138Y-116010709D01*
X158455028Y-115981600D01*
X158429171Y-115981600D01*
X158390062Y-116020709D01*
X158348737Y-116041372D01*
X158297595Y-116051600D01*
X158235920Y-116051600D01*
X158154138Y-116010709D01*
X158113313Y-115969884D01*
X158082829Y-115929239D01*
X158062328Y-115888237D01*
X158052181Y-115837502D01*
X158042017Y-115776518D01*
X158052197Y-115725619D01*
X158062287Y-115675169D01*
X158082535Y-115624550D01*
X158103156Y-115583308D01*
X158144100Y-115552600D01*
X158184629Y-115522203D01*
X158236137Y-115501600D01*
X158288614Y-115501600D01*
X158321597Y-115523589D01*
G37*
%TO.C,U$38*%
G36*
X138928884Y-109290188D02*
G01*
X138960100Y-109342215D01*
X138960100Y-109385267D01*
X138928586Y-109427285D01*
X138897529Y-109447990D01*
X138497989Y-109627784D01*
X138493634Y-109632139D01*
X138948805Y-109849830D01*
X138970576Y-109893372D01*
X138949497Y-109946071D01*
X138918035Y-109988020D01*
X138875222Y-109998723D01*
X138823463Y-109988372D01*
X138323049Y-109738165D01*
X138271941Y-109717722D01*
X138240420Y-109675693D01*
X138229906Y-109623123D01*
X138250978Y-109570441D01*
X138292475Y-109539318D01*
X138843373Y-109268878D01*
X138886196Y-109258172D01*
X138928884Y-109290188D01*
G37*
G36*
X138959706Y-110201135D02*
G01*
X138970100Y-110253105D01*
X138970100Y-110305671D01*
X138927171Y-110348600D01*
X138575596Y-110348600D01*
X138526528Y-110358413D01*
X138477572Y-110377996D01*
X138439222Y-110406759D01*
X138420100Y-110454562D01*
X138420100Y-110503104D01*
X138429781Y-110551507D01*
X138458260Y-110589478D01*
X138506957Y-110608958D01*
X138556062Y-110628600D01*
X138916280Y-110628600D01*
X138959523Y-110650221D01*
X138970100Y-110703105D01*
X138970100Y-110755267D01*
X138937954Y-110798128D01*
X138885595Y-110808600D01*
X138524605Y-110808600D01*
X138473463Y-110798372D01*
X138433049Y-110778164D01*
X138382629Y-110757997D01*
X138341529Y-110727171D01*
X138311100Y-110686600D01*
X138280945Y-110646394D01*
X138250430Y-110595534D01*
X138240201Y-110554619D01*
X138230017Y-110493518D01*
X138240197Y-110442619D01*
X138250328Y-110391963D01*
X138270537Y-110351547D01*
X138290839Y-110300790D01*
X138331816Y-110259813D01*
X138372461Y-110229329D01*
X138413050Y-110209035D01*
X138463669Y-110188787D01*
X138514119Y-110178697D01*
X138564605Y-110168600D01*
X138927171Y-110168600D01*
X138959706Y-110201135D01*
G37*
%TO.C,U$46*%
G36*
X158189095Y-118019013D02*
G01*
X158699691Y-118259293D01*
X158740671Y-118290029D01*
X158771780Y-118331507D01*
X158782339Y-118384302D01*
X158760978Y-118427024D01*
X158729584Y-118447953D01*
X158168810Y-118718326D01*
X158126004Y-118729028D01*
X158083316Y-118697012D01*
X158052100Y-118644985D01*
X158052100Y-118591529D01*
X158084060Y-118559569D01*
X158174374Y-118509394D01*
X158212100Y-118481099D01*
X158212100Y-118236690D01*
X158073808Y-118167544D01*
X158041414Y-118124352D01*
X158062606Y-118071371D01*
X158093562Y-118019779D01*
X158136872Y-117998124D01*
X158189095Y-118019013D01*
G37*
G36*
X158750188Y-117269218D02*
G01*
X158772100Y-117302086D01*
X158772100Y-117554095D01*
X158761980Y-117604697D01*
X158751868Y-117645142D01*
X158731497Y-117696071D01*
X158701100Y-117736600D01*
X158670887Y-117776884D01*
X158630062Y-117817709D01*
X158589150Y-117838165D01*
X158538957Y-117858242D01*
X158488063Y-117878600D01*
X158336137Y-117878600D01*
X158285050Y-117858165D01*
X158245049Y-117838164D01*
X158194290Y-117817861D01*
X158153313Y-117776884D01*
X158123100Y-117736600D01*
X158092829Y-117696239D01*
X158074686Y-117659951D01*
X158074315Y-117660099D01*
X158072537Y-117655655D01*
X158070198Y-117650976D01*
X158070602Y-117650815D01*
X158052100Y-117604563D01*
X158052100Y-117553730D01*
X158042079Y-117353311D01*
X158052431Y-117291197D01*
X158085029Y-117258600D01*
X158707716Y-117258600D01*
X158750188Y-117269218D01*
G37*
G36*
X158249656Y-116579085D02*
G01*
X158291361Y-116620790D01*
X158312719Y-116674185D01*
X158291140Y-116706554D01*
X158251064Y-116756649D01*
X158222100Y-116795267D01*
X158222100Y-116842638D01*
X158241166Y-116890301D01*
X158268151Y-116908291D01*
X158313722Y-116899177D01*
X158332328Y-116861964D01*
X158342287Y-116812169D01*
X158362287Y-116762172D01*
X158372420Y-116711507D01*
X158403100Y-116670600D01*
X158433529Y-116630029D01*
X158474629Y-116599203D01*
X158526137Y-116578600D01*
X158577595Y-116578600D01*
X158628081Y-116588697D01*
X158679193Y-116598920D01*
X158720671Y-116630029D01*
X158751371Y-116670961D01*
X158771665Y-116711550D01*
X158792100Y-116762637D01*
X158792100Y-116874095D01*
X158781913Y-116925031D01*
X158761497Y-116976071D01*
X158730671Y-117017171D01*
X158688767Y-117048600D01*
X158655715Y-117048600D01*
X158603688Y-117017384D01*
X158571672Y-116974696D01*
X158582430Y-116931666D01*
X158612428Y-116881669D01*
X158621996Y-116843396D01*
X158612431Y-116786004D01*
X158585894Y-116759467D01*
X158540722Y-116777536D01*
X158521765Y-116815450D01*
X158491957Y-116914809D01*
X158481872Y-116965237D01*
X158461371Y-117006239D01*
X158430671Y-117047171D01*
X158389193Y-117078280D01*
X158338002Y-117088519D01*
X158277018Y-117098683D01*
X158226003Y-117088480D01*
X158185166Y-117078270D01*
X158133688Y-117047384D01*
X158103100Y-117006600D01*
X158072420Y-116965693D01*
X158062197Y-116914581D01*
X158052197Y-116864581D01*
X158042001Y-116813600D01*
X158052197Y-116762619D01*
X158062420Y-116711507D01*
X158093100Y-116670600D01*
X158123529Y-116630029D01*
X158164100Y-116599600D01*
X158206004Y-116568172D01*
X158249656Y-116579085D01*
G37*
%TO.C,U$36*%
G36*
X138666081Y-114798697D02*
G01*
X138716531Y-114808787D01*
X138767150Y-114829035D01*
X138807739Y-114849329D01*
X138848384Y-114879813D01*
X138888887Y-114920316D01*
X138919100Y-114960600D01*
X138949780Y-115001507D01*
X138959913Y-115052172D01*
X138980100Y-115102637D01*
X138980100Y-115204095D01*
X138969872Y-115255237D01*
X138949664Y-115295651D01*
X138929594Y-115345829D01*
X138898322Y-115397948D01*
X138854744Y-115408843D01*
X138802290Y-115387861D01*
X138760730Y-115346301D01*
X138749777Y-115313444D01*
X138790286Y-115212171D01*
X138800000Y-115163600D01*
X138790197Y-115114581D01*
X138780419Y-115065693D01*
X138751528Y-115027172D01*
X138712628Y-114997996D01*
X138664138Y-114978600D01*
X138566062Y-114978600D01*
X138517572Y-114997996D01*
X138478388Y-115027384D01*
X138439360Y-115066412D01*
X138420100Y-115114562D01*
X138420100Y-115212420D01*
X138438190Y-115248600D01*
X138530576Y-115248600D01*
X138540302Y-115151327D01*
X138572635Y-115118994D01*
X138625802Y-115108361D01*
X138669036Y-115129978D01*
X138690100Y-115182637D01*
X138690100Y-115334014D01*
X138679769Y-115396003D01*
X138647171Y-115428600D01*
X138384484Y-115428600D01*
X138342908Y-115418206D01*
X138301156Y-115386892D01*
X138260535Y-115305650D01*
X138240100Y-115254563D01*
X138240100Y-115194014D01*
X138230017Y-115133518D01*
X138240220Y-115082503D01*
X138250332Y-115042058D01*
X138270703Y-114991129D01*
X138301313Y-114950316D01*
X138341564Y-114910064D01*
X138381816Y-114869813D01*
X138422461Y-114839329D01*
X138463463Y-114818828D01*
X138514119Y-114808697D01*
X138564119Y-114798697D01*
X138615100Y-114788501D01*
X138666081Y-114798697D01*
G37*
%TO.C,U$44*%
G36*
X158761523Y-104200221D02*
G01*
X158772100Y-104253105D01*
X158772100Y-104814780D01*
X158750479Y-104858023D01*
X158697100Y-104868699D01*
X158643721Y-104858023D01*
X158622100Y-104814780D01*
X158622100Y-104654096D01*
X158613000Y-104608600D01*
X158105920Y-104608600D01*
X158063164Y-104587222D01*
X158041906Y-104534077D01*
X158052420Y-104481507D01*
X158084600Y-104438600D01*
X158595586Y-104438600D01*
X158622100Y-104420924D01*
X158622100Y-104211529D01*
X158655029Y-104178600D01*
X158718280Y-104178600D01*
X158761523Y-104200221D01*
G37*
G36*
X158190062Y-105029491D02*
G01*
X158230548Y-105069975D01*
X158417379Y-105237140D01*
X158453928Y-105209728D01*
X158644120Y-105039557D01*
X158696499Y-105008129D01*
X158729801Y-105019230D01*
X158781209Y-105070638D01*
X158802690Y-105113600D01*
X158781209Y-105156562D01*
X158740484Y-105197287D01*
X158553935Y-105354380D01*
X158580729Y-105390106D01*
X158740453Y-105519882D01*
X158781209Y-105560638D01*
X158802690Y-105603600D01*
X158781335Y-105646310D01*
X158739950Y-105698041D01*
X158696744Y-105708843D01*
X158644346Y-105687884D01*
X158427023Y-105480439D01*
X158199800Y-105687905D01*
X158147456Y-105708843D01*
X158104250Y-105698041D01*
X158062865Y-105646310D01*
X158041510Y-105603600D01*
X158063096Y-105560428D01*
X158299693Y-105363264D01*
X158263683Y-105327254D01*
X158113691Y-105197262D01*
X158073313Y-105156884D01*
X158041246Y-105114128D01*
X158062991Y-105070638D01*
X158104138Y-105029491D01*
X158147100Y-105008010D01*
X158190062Y-105029491D01*
G37*
%TO.C,U$26*%
G36*
X153273397Y-86538600D02*
G01*
X155982931Y-86538600D01*
X156015100Y-86592215D01*
X156015100Y-87886985D01*
X155961063Y-87908600D01*
X153249745Y-87908600D01*
X153179393Y-87898550D01*
X153108947Y-87888486D01*
X153048182Y-87868231D01*
X152867138Y-87777709D01*
X152816564Y-87727136D01*
X152766369Y-87676940D01*
X152726196Y-87626723D01*
X152685865Y-87576310D01*
X152655562Y-87515705D01*
X152625422Y-87445378D01*
X152605214Y-87384753D01*
X152595150Y-87314307D01*
X152585041Y-87243541D01*
X152595100Y-87183187D01*
X152595100Y-87112900D01*
X152615322Y-87042122D01*
X152635469Y-86981682D01*
X152695767Y-86861086D01*
X152736060Y-86800646D01*
X152776369Y-86750260D01*
X152826915Y-86699714D01*
X152887425Y-86659374D01*
X152937692Y-86629214D01*
X152997995Y-86599062D01*
X153068684Y-86568767D01*
X153129335Y-86558658D01*
X153199393Y-86548650D01*
X153262934Y-86539573D01*
X153262517Y-86538600D01*
X153269742Y-86538600D01*
X153273186Y-86538108D01*
X153273397Y-86538600D01*
G37*
%TO.C,U$49*%
G36*
X138917050Y-117488891D02*
G01*
X138949734Y-117510680D01*
X138960171Y-117583741D01*
X138949597Y-117636611D01*
X138916981Y-117658356D01*
X138855514Y-117668600D01*
X138293920Y-117668600D01*
X138250807Y-117647044D01*
X138240100Y-117604216D01*
X138240100Y-117532420D01*
X138261656Y-117489307D01*
X138304484Y-117478600D01*
X138865595Y-117478600D01*
X138917050Y-117488891D01*
G37*
G36*
X138635514Y-117798600D02*
G01*
X138685595Y-117798600D01*
X138736737Y-117808828D01*
X138777508Y-117829214D01*
X138827894Y-117859445D01*
X138868671Y-117890029D01*
X138899100Y-117930600D01*
X138929371Y-117970961D01*
X138949665Y-118011550D01*
X138970100Y-118062637D01*
X138970100Y-118112790D01*
X138980236Y-118143197D01*
X138969999Y-118204619D01*
X138959868Y-118245142D01*
X138939665Y-118295650D01*
X138919486Y-118336008D01*
X138888884Y-118387012D01*
X138808100Y-118447600D01*
X138767571Y-118477997D01*
X138716531Y-118498413D01*
X138665595Y-118508600D01*
X138564605Y-118508600D01*
X138513669Y-118498413D01*
X138463050Y-118478165D01*
X138422692Y-118457986D01*
X138372306Y-118427755D01*
X138331529Y-118397171D01*
X138301100Y-118356600D01*
X138270703Y-118316071D01*
X138250332Y-118265142D01*
X138240220Y-118224697D01*
X138230017Y-118173682D01*
X138240100Y-118113186D01*
X138240100Y-118062420D01*
X138260536Y-118021548D01*
X138280703Y-117971129D01*
X138311313Y-117930316D01*
X138351816Y-117889813D01*
X138392100Y-117859600D01*
X138428379Y-117832391D01*
X138427618Y-117831208D01*
X138432629Y-117829203D01*
X138436631Y-117826202D01*
X138437283Y-117827342D01*
X138483558Y-117808832D01*
X138524003Y-117798720D01*
X138575018Y-117788517D01*
X138635514Y-117798600D01*
G37*
G36*
X138437656Y-116809085D02*
G01*
X138479209Y-116850638D01*
X138500690Y-116893600D01*
X138479335Y-116936310D01*
X138439064Y-116986649D01*
X138410100Y-117025267D01*
X138410100Y-117072638D01*
X138429166Y-117120301D01*
X138456151Y-117138291D01*
X138501722Y-117129177D01*
X138520328Y-117091964D01*
X138530287Y-117042169D01*
X138550287Y-116992172D01*
X138560367Y-116941770D01*
X138591129Y-116890500D01*
X138621816Y-116859813D01*
X138662629Y-116829203D01*
X138714137Y-116808600D01*
X138816063Y-116808600D01*
X138867571Y-116829203D01*
X138908671Y-116860029D01*
X138939371Y-116900961D01*
X138959665Y-116941550D01*
X138980100Y-116992637D01*
X138980100Y-117104095D01*
X138969913Y-117155031D01*
X138949361Y-117206410D01*
X138918636Y-117237136D01*
X138877171Y-117278600D01*
X138843715Y-117278600D01*
X138791688Y-117247384D01*
X138759759Y-117204812D01*
X138770420Y-117151507D01*
X138800419Y-117111508D01*
X138810000Y-117063600D01*
X138800494Y-117016066D01*
X138773456Y-116989028D01*
X138728736Y-116997972D01*
X138709826Y-117045247D01*
X138679957Y-117144809D01*
X138669872Y-117195237D01*
X138649371Y-117236239D01*
X138618671Y-117277171D01*
X138577193Y-117308280D01*
X138526002Y-117318519D01*
X138465018Y-117328683D01*
X138413463Y-117318372D01*
X138373049Y-117298165D01*
X138321941Y-117277722D01*
X138291100Y-117236600D01*
X138260420Y-117195693D01*
X138250197Y-117144581D01*
X138240197Y-117094581D01*
X138230001Y-117043600D01*
X138240197Y-116992619D01*
X138250420Y-116941507D01*
X138280949Y-116900802D01*
X138311316Y-116850188D01*
X138352461Y-116819329D01*
X138394518Y-116798301D01*
X138437656Y-116809085D01*
G37*
%TO.C,U$6*%
G36*
X158190062Y-107509491D02*
G01*
X158230548Y-107549975D01*
X158417379Y-107717140D01*
X158453928Y-107689728D01*
X158644120Y-107519557D01*
X158696499Y-107488129D01*
X158729801Y-107499230D01*
X158781209Y-107550638D01*
X158802690Y-107593600D01*
X158781209Y-107636562D01*
X158740484Y-107677287D01*
X158553935Y-107834380D01*
X158580729Y-107870106D01*
X158740453Y-107999882D01*
X158781209Y-108040638D01*
X158802690Y-108083600D01*
X158781335Y-108126310D01*
X158739950Y-108178041D01*
X158696744Y-108188843D01*
X158644346Y-108167884D01*
X158427023Y-107960439D01*
X158199800Y-108167905D01*
X158147456Y-108188843D01*
X158104250Y-108178041D01*
X158062865Y-108126310D01*
X158041510Y-108083600D01*
X158063096Y-108040428D01*
X158299693Y-107843264D01*
X158263683Y-107807254D01*
X158113691Y-107677262D01*
X158073313Y-107636884D01*
X158041246Y-107594128D01*
X158062991Y-107550638D01*
X158104138Y-107509491D01*
X158147100Y-107488010D01*
X158190062Y-107509491D01*
G37*
G36*
X158761036Y-106819978D02*
G01*
X158782100Y-106872637D01*
X158782100Y-107084095D01*
X158772003Y-107134581D01*
X158761913Y-107185031D01*
X158741497Y-107236071D01*
X158713929Y-107272829D01*
X158714478Y-107273293D01*
X158710888Y-107276883D01*
X158707778Y-107281030D01*
X158707238Y-107280533D01*
X158670062Y-107317709D01*
X158629150Y-107338165D01*
X158578531Y-107358413D01*
X158527182Y-107368683D01*
X158466081Y-107358499D01*
X158425558Y-107348368D01*
X158374629Y-107327997D01*
X158335434Y-107298600D01*
X158308280Y-107298600D01*
X158209018Y-107348231D01*
X158178386Y-107358442D01*
X158126050Y-107368909D01*
X158093681Y-107347330D01*
X158052436Y-107295774D01*
X158041759Y-107242388D01*
X158073918Y-107199509D01*
X158195016Y-107149053D01*
X158252100Y-107120510D01*
X158252100Y-107015114D01*
X158234424Y-106988600D01*
X158136605Y-106988600D01*
X158084089Y-106978097D01*
X158062311Y-106945430D01*
X158052029Y-106873459D01*
X158062818Y-106819517D01*
X158106003Y-106808720D01*
X158156605Y-106798600D01*
X158718280Y-106798600D01*
X158761036Y-106819978D01*
G37*
D13*
%TO.C,J2*%
X136281100Y-90803600D02*
X136281100Y-93803600D01*
X138881100Y-89303600D02*
X140531100Y-89303600D01*
X140531100Y-89303600D02*
X140531100Y-90053600D01*
X140531100Y-94553600D02*
X140531100Y-95303600D01*
X140531100Y-95303600D02*
X138881100Y-95303600D01*
X141282700Y-89803600D02*
G75*
G02*
X141079500Y-89803600I-101600J0D01*
G01*
X141079500Y-89803600D02*
G75*
G02*
X141282700Y-89803600I101600J0D01*
G01*
%TD*%
%LPC*%
D11*
%TO.C,J1*%
G36*
X144337115Y-79973435D02*
G01*
X144482688Y-80033022D01*
X144607880Y-80128255D01*
X144704363Y-80252911D01*
X144786100Y-80552931D01*
X144786100Y-81153917D01*
X144766094Y-81310909D01*
X144706008Y-81457688D01*
X144609981Y-81583915D01*
X144484289Y-81681193D01*
X144181434Y-81763691D01*
X144023922Y-81742289D01*
X143877645Y-81680987D01*
X143752219Y-81583915D01*
X143656192Y-81457688D01*
X143596106Y-81310909D01*
X143576100Y-81153917D01*
X143576100Y-80553262D01*
X143597240Y-80397715D01*
X143658043Y-80252645D01*
X143754320Y-80128255D01*
X143879512Y-80033022D01*
X144025085Y-79973435D01*
X144181100Y-79953560D01*
X144337115Y-79973435D01*
G37*
G36*
X144331281Y-83896062D02*
G01*
X144473343Y-83947067D01*
X144597364Y-84033103D01*
X144695109Y-84148562D01*
X144786100Y-84432819D01*
X144786100Y-85634026D01*
X144760416Y-85783795D01*
X144696746Y-85922026D01*
X144599468Y-86039066D01*
X144474939Y-86127137D01*
X144181431Y-86193652D01*
X144029750Y-86179664D01*
X143886986Y-86126942D01*
X143762732Y-86039066D01*
X143665454Y-85922026D01*
X143601784Y-85783795D01*
X143576100Y-85634026D01*
X143576100Y-84433152D01*
X143602922Y-84284826D01*
X143667309Y-84148306D01*
X143764836Y-84033103D01*
X143888857Y-83947067D01*
X144030919Y-83896062D01*
X144181100Y-83883583D01*
X144331281Y-83896062D01*
G37*
G36*
X152977115Y-79973435D02*
G01*
X153122688Y-80033022D01*
X153247880Y-80128255D01*
X153344363Y-80252911D01*
X153426100Y-80552931D01*
X153426100Y-81153917D01*
X153406094Y-81310909D01*
X153346008Y-81457688D01*
X153249981Y-81583915D01*
X153124289Y-81681193D01*
X152821434Y-81763691D01*
X152663922Y-81742289D01*
X152517645Y-81680987D01*
X152392219Y-81583915D01*
X152296192Y-81457688D01*
X152236106Y-81310909D01*
X152216100Y-81153917D01*
X152216100Y-80553262D01*
X152237240Y-80397715D01*
X152298043Y-80252645D01*
X152394320Y-80128255D01*
X152519512Y-80033022D01*
X152665085Y-79973435D01*
X152821100Y-79953560D01*
X152977115Y-79973435D01*
G37*
G36*
X152971281Y-83896062D02*
G01*
X153113343Y-83947067D01*
X153237364Y-84033103D01*
X153335109Y-84148562D01*
X153426100Y-84432819D01*
X153426100Y-85634026D01*
X153400416Y-85783795D01*
X153336746Y-85922026D01*
X153239468Y-86039066D01*
X153114939Y-86127137D01*
X152821431Y-86193652D01*
X152669750Y-86179664D01*
X152526986Y-86126942D01*
X152402732Y-86039066D01*
X152305454Y-85922026D01*
X152241784Y-85783795D01*
X152216100Y-85634026D01*
X152216100Y-84433152D01*
X152242922Y-84284826D01*
X152307309Y-84148306D01*
X152404836Y-84033103D01*
X152528857Y-83947067D01*
X152670919Y-83896062D01*
X152821100Y-83883583D01*
X152971281Y-83896062D01*
G37*
%TO.C,SHLD0*%
G36*
X142405100Y-83604100D02*
G01*
X141897100Y-83604100D01*
X141897100Y-83223100D01*
X142405100Y-83223100D01*
X142405100Y-83604100D01*
G37*
%TO.C,I2C0*%
G36*
X157200600Y-86969600D02*
G01*
X156819600Y-86969600D01*
X156819600Y-86461600D01*
X157200600Y-86461600D01*
X157200600Y-86969600D01*
G37*
G36*
X157200600Y-87985600D02*
G01*
X156819600Y-87985600D01*
X156819600Y-87477600D01*
X157200600Y-87477600D01*
X157200600Y-87985600D01*
G37*
%TO.C,WU0*%
G36*
X150025100Y-97574100D02*
G01*
X149517100Y-97574100D01*
X149517100Y-97193100D01*
X150025100Y-97193100D01*
X150025100Y-97574100D01*
G37*
%TD*%
D14*
%TO.C,H4*%
X158661100Y-127863600D03*
%TD*%
D15*
%TO.C,FD1*%
X137071100Y-84683600D03*
%TD*%
D16*
%TO.C,U1*%
X141290700Y-104368600D03*
X141290700Y-105638600D03*
X141290700Y-106908600D03*
X141290700Y-108178600D03*
X141290700Y-109448600D03*
X141290700Y-110718600D03*
X141290700Y-111988600D03*
X141290700Y-113258600D03*
X141290700Y-114528600D03*
X141290700Y-115798600D03*
X141290700Y-117068600D03*
X141290700Y-118338600D03*
X141290700Y-119608600D03*
X141290700Y-120878600D03*
X155711500Y-120878600D03*
X155711500Y-119608600D03*
X155711500Y-118338600D03*
X155711500Y-117068600D03*
X155711500Y-115798600D03*
X155711500Y-114528600D03*
X155711500Y-113258600D03*
X155711500Y-111988600D03*
X155711500Y-110718600D03*
X155711500Y-109448600D03*
X155711500Y-108178600D03*
X155711500Y-106908600D03*
X155711500Y-105638600D03*
X155711500Y-104368600D03*
%TD*%
D17*
%TO.C,S2*%
X141897100Y-125323600D03*
X147485100Y-125323600D03*
X141897100Y-129133600D03*
X147485100Y-129133600D03*
%TD*%
D18*
%TO.C,J1*%
X151391100Y-84508600D03*
X145611100Y-84508600D03*
D19*
X149751100Y-85613600D03*
X148751100Y-85613600D03*
D20*
X148251100Y-85613600D03*
X147251100Y-85613600D03*
X146751100Y-85613600D03*
X147751100Y-85613600D03*
D19*
X149251100Y-85613600D03*
X150251100Y-85613600D03*
D21*
X151726100Y-85613600D03*
D22*
X145276100Y-85613600D03*
D21*
X150951100Y-85613600D03*
D22*
X146051100Y-85613600D03*
%TD*%
D23*
%TO.C,SHLD0*%
X141630400Y-83413600D03*
X142671800Y-83413600D03*
%TD*%
D24*
%TO.C,D1*%
X139218100Y-98018600D03*
X137464100Y-98018600D03*
%TD*%
D25*
%TO.C,J3*%
X156121100Y-93803600D03*
X156121100Y-92803600D03*
X156121100Y-91803600D03*
X156121100Y-90803600D03*
D26*
X159796100Y-89503600D03*
X159796100Y-95103600D03*
%TD*%
D27*
%TO.C,J14*%
X137071100Y-122783600D03*
X137071100Y-120243600D03*
X137071100Y-117703600D03*
X137071100Y-115163600D03*
X137071100Y-112623600D03*
X137071100Y-110083600D03*
X137071100Y-107543600D03*
X137071100Y-105003600D03*
X137071100Y-102463600D03*
%TD*%
D28*
%TO.C,I2C0*%
X157010100Y-88265000D03*
X157010100Y-87223600D03*
X157010100Y-86182200D03*
%TD*%
D14*
%TO.C,H3*%
X138341100Y-127863600D03*
%TD*%
D29*
%TO.C,ADDR0*%
X147688300Y-101193600D03*
X148501100Y-101193600D03*
X149313900Y-101193600D03*
%TD*%
D27*
%TO.C,J15*%
X159931100Y-122783600D03*
X159931100Y-120243600D03*
X159931100Y-117703600D03*
X159931100Y-115163600D03*
X159931100Y-112623600D03*
X159931100Y-110083600D03*
X159931100Y-107543600D03*
X159931100Y-105003600D03*
X159931100Y-102463600D03*
X159931100Y-99923600D03*
X159931100Y-97383600D03*
%TD*%
D30*
%TO.C,C1*%
X143001100Y-123418600D03*
X141301100Y-123418600D03*
%TD*%
%TO.C,R9*%
X139191100Y-99923600D03*
X137491100Y-99923600D03*
%TD*%
D31*
%TO.C,WU0*%
X150291800Y-97383600D03*
X149250400Y-97383600D03*
%TD*%
D15*
%TO.C,FD3*%
X159931100Y-125323600D03*
%TD*%
D17*
%TO.C,S1*%
X149517100Y-125323600D03*
X155105100Y-125323600D03*
X149517100Y-129133600D03*
X155105100Y-129133600D03*
%TD*%
D14*
%TO.C,H2*%
X158661100Y-82143600D03*
%TD*%
%TO.C,H1*%
X138341100Y-82143600D03*
%TD*%
D32*
%TO.C,J2*%
X140881100Y-90803600D03*
X140881100Y-91803600D03*
X140881100Y-92803600D03*
X140881100Y-93803600D03*
D33*
X137206100Y-95103600D03*
X137206100Y-89503600D03*
%TD*%
%LPD*%
M02*
