%TF.GenerationSoftware,KiCad,Pcbnew,9.0.6*%
%TF.CreationDate,2026-01-24T16:26:05+08:00*%
%TF.ProjectId,XM125_Breakout,584d3132-355f-4427-9265-616b6f75742e,rev?*%
%TF.SameCoordinates,Original*%
%TF.FileFunction,Soldermask,Bot*%
%TF.FilePolarity,Negative*%
%FSLAX46Y46*%
G04 Gerber Fmt 4.6, Leading zero omitted, Abs format (unit mm)*
G04 Created by KiCad (PCBNEW 9.0.6) date 2026-01-24 16:26:05*
%MOMM*%
%LPD*%
G01*
G04 APERTURE LIST*
G04 Aperture macros list*
%AMRoundRect*
0 Rectangle with rounded corners*
0 $1 Rounding radius*
0 $2 $3 $4 $5 $6 $7 $8 $9 X,Y pos of 4 corners*
0 Add a 4 corners polygon primitive as box body*
4,1,4,$2,$3,$4,$5,$6,$7,$8,$9,$2,$3,0*
0 Add four circle primitives for the rounded corners*
1,1,$1+$1,$2,$3*
1,1,$1+$1,$4,$5*
1,1,$1+$1,$6,$7*
1,1,$1+$1,$8,$9*
0 Add four rect primitives between the rounded corners*
20,1,$1+$1,$2,$3,$4,$5,0*
20,1,$1+$1,$4,$5,$6,$7,0*
20,1,$1+$1,$6,$7,$8,$9,0*
20,1,$1+$1,$8,$9,$2,$3,0*%
G04 Aperture macros list end*
%ADD10C,0.000000*%
%ADD11C,3.302000*%
%ADD12C,0.650000*%
%ADD13C,2.032000*%
%ADD14RoundRect,0.064876X0.611324X-0.286324X0.611324X0.286324X-0.611324X0.286324X-0.611324X-0.286324X0*%
%ADD15RoundRect,0.064876X-0.686324X0.286324X-0.686324X-0.286324X0.686324X-0.286324X0.686324X0.286324X0*%
%ADD16RoundRect,0.576200X0.000010X0.000010X-0.000010X0.000010X-0.000010X-0.000010X0.000010X-0.000010X0*%
%ADD17RoundRect,0.058542X0.567658X0.517658X-0.567658X0.517658X-0.567658X-0.517658X0.567658X-0.517658X0*%
%ADD18RoundRect,0.058542X-0.567658X-0.517658X0.567658X-0.517658X0.567658X0.517658X-0.567658X0.517658X0*%
%ADD19RoundRect,0.062523X0.648677X-0.343877X0.648677X0.343877X-0.648677X0.343877X-0.648677X-0.343877X0*%
%ADD20RoundRect,0.058542X-0.517658X0.567658X-0.517658X-0.567658X0.517658X-0.567658X0.517658X0.567658X0*%
%ADD21RoundRect,0.063703X-0.312497X-0.612497X0.312497X-0.612497X0.312497X0.612497X-0.312497X0.612497X0*%
%ADD22RoundRect,0.064876X-0.286324X-0.611324X0.286324X-0.611324X0.286324X0.611324X-0.286324X0.611324X0*%
%ADD23RoundRect,0.058542X0.517658X-0.567658X0.517658X0.567658X-0.517658X0.567658X-0.517658X-0.567658X0*%
%ADD24RoundRect,0.061262X-0.384938X-1.204938X0.384938X-1.204938X0.384938X1.204938X-0.384938X1.204938X0*%
G04 APERTURE END LIST*
D10*
%TO.C,PWR_LED0*%
G36*
X138531600Y-100177600D02*
G01*
X138150600Y-100177600D01*
X138150600Y-99669600D01*
X138531600Y-99669600D01*
X138531600Y-100177600D01*
G37*
%TD*%
D11*
%TO.C,H4*%
X158661100Y-127863600D03*
%TD*%
D12*
%TO.C,J1*%
X151391100Y-84508600D03*
X145611100Y-84508600D03*
%TD*%
D13*
%TO.C,J14*%
X137071100Y-122783600D03*
X137071100Y-120243600D03*
X137071100Y-117703600D03*
X137071100Y-115163600D03*
X137071100Y-112623600D03*
X137071100Y-110083600D03*
X137071100Y-107543600D03*
X137071100Y-105003600D03*
X137071100Y-102463600D03*
%TD*%
D11*
%TO.C,H3*%
X138341100Y-127863600D03*
%TD*%
D13*
%TO.C,J15*%
X159931100Y-122783600D03*
X159931100Y-120243600D03*
X159931100Y-117703600D03*
X159931100Y-115163600D03*
X159931100Y-112623600D03*
X159931100Y-110083600D03*
X159931100Y-107543600D03*
X159931100Y-105003600D03*
X159931100Y-102463600D03*
X159931100Y-99923600D03*
X159931100Y-97383600D03*
%TD*%
D11*
%TO.C,H2*%
X158661100Y-82143600D03*
%TD*%
%TO.C,H1*%
X138341100Y-82143600D03*
%TD*%
D14*
%TO.C,U2*%
X147201000Y-101381600D03*
X147201000Y-100431600D03*
X147201000Y-99481600D03*
X149801200Y-99481600D03*
X149801200Y-101381600D03*
%TD*%
D15*
%TO.C,U5*%
X152416200Y-88051600D03*
X152416200Y-89001600D03*
X152416200Y-89951600D03*
X149666000Y-89951600D03*
X149666000Y-89001600D03*
X149666000Y-88051600D03*
%TD*%
D16*
%TO.C,FD2*%
X137071100Y-84683600D03*
%TD*%
D17*
%TO.C,C14*%
X145541100Y-87858600D03*
X143841100Y-87858600D03*
%TD*%
D18*
%TO.C,R11*%
X156541100Y-85953600D03*
X158241100Y-85953600D03*
%TD*%
%TO.C,R8*%
X145111100Y-89382600D03*
X146811100Y-89382600D03*
%TD*%
D19*
%TO.C,PWR_LED0*%
X138341100Y-100444300D03*
X138341100Y-99402900D03*
%TD*%
D20*
%TO.C,C17*%
X144691100Y-107963600D03*
X144691100Y-109663600D03*
%TD*%
D17*
%TO.C,R12*%
X158241100Y-87858600D03*
X156541100Y-87858600D03*
%TD*%
D21*
%TO.C,U4*%
X145326100Y-91408600D03*
X146596100Y-91408600D03*
X147866100Y-91408600D03*
X149136100Y-91408600D03*
X150406100Y-91408600D03*
X151676100Y-91408600D03*
X152946100Y-91408600D03*
X154216100Y-91408600D03*
X154216100Y-97008600D03*
X152946100Y-97008600D03*
X151676100Y-97008600D03*
X150406100Y-97008600D03*
X149136100Y-97008600D03*
X147866100Y-97008600D03*
X146596100Y-97008600D03*
X145326100Y-97008600D03*
%TD*%
D18*
%TO.C,C3*%
X146254100Y-111861600D03*
X147954100Y-111861600D03*
%TD*%
D16*
%TO.C,FD4*%
X159931100Y-125323600D03*
%TD*%
D22*
%TO.C,U3*%
X146281100Y-107513500D03*
X147231100Y-107513500D03*
X148181100Y-107513500D03*
X148181100Y-110113700D03*
X146281100Y-110113700D03*
%TD*%
D18*
%TO.C,C16*%
X147651100Y-102971600D03*
X149351100Y-102971600D03*
%TD*%
D20*
%TO.C,R7*%
X154851100Y-83833600D03*
X154851100Y-85533600D03*
%TD*%
D23*
%TO.C,C15*%
X143421100Y-95693600D03*
X143421100Y-93993600D03*
%TD*%
D24*
%TO.C,J13*%
X145961100Y-114553600D03*
X145961100Y-118313600D03*
X147231100Y-114553600D03*
X147231100Y-118313600D03*
X148501100Y-114553600D03*
X148501100Y-118313600D03*
X149771100Y-114553600D03*
X149771100Y-118313600D03*
X151041100Y-114553600D03*
X151041100Y-118313600D03*
%TD*%
D23*
%TO.C,C8*%
X151676100Y-101281600D03*
X151676100Y-99581600D03*
%TD*%
M02*
