%TF.GenerationSoftware,KiCad,Pcbnew,9.0.6*%
%TF.CreationDate,2026-01-24T16:26:05+08:00*%
%TF.ProjectId,XM125_Breakout,584d3132-355f-4427-9265-616b6f75742e,rev?*%
%TF.SameCoordinates,Original*%
%TF.FileFunction,Soldermask,Top*%
%TF.FilePolarity,Negative*%
%FSLAX46Y46*%
G04 Gerber Fmt 4.6, Leading zero omitted, Abs format (unit mm)*
G04 Created by KiCad (PCBNEW 9.0.6) date 2026-01-24 16:26:05*
%MOMM*%
%LPD*%
G01*
G04 APERTURE LIST*
G04 Aperture macros list*
%AMRoundRect*
0 Rectangle with rounded corners*
0 $1 Rounding radius*
0 $2 $3 $4 $5 $6 $7 $8 $9 X,Y pos of 4 corners*
0 Add a 4 corners polygon primitive as box body*
4,1,4,$2,$3,$4,$5,$6,$7,$8,$9,$2,$3,0*
0 Add four circle primitives for the rounded corners*
1,1,$1+$1,$2,$3*
1,1,$1+$1,$4,$5*
1,1,$1+$1,$6,$7*
1,1,$1+$1,$8,$9*
0 Add four rect primitives between the rounded corners*
20,1,$1+$1,$2,$3,$4,$5,0*
20,1,$1+$1,$4,$5,$6,$7,0*
20,1,$1+$1,$6,$7,$8,$9,0*
20,1,$1+$1,$8,$9,$2,$3,0*%
G04 Aperture macros list end*
%ADD10C,0.000000*%
%ADD11RoundRect,0.576200X-0.000010X-0.000010X0.000010X-0.000010X0.000010X0.000010X-0.000010X0.000010X0*%
%ADD12RoundRect,0.058949X-1.217251X-0.492251X1.217251X-0.492251X1.217251X0.492251X-1.217251X0.492251X0*%
%ADD13RoundRect,0.060960X0.777240X-0.396240X0.777240X0.396240X-0.777240X0.396240X-0.777240X-0.396240X0*%
%ADD14RoundRect,0.076606X-0.149594X-0.499594X0.149594X-0.499594X0.149594X0.499594X-0.149594X0.499594X0*%
%ADD15RoundRect,0.076606X0.149594X0.499594X-0.149594X0.499594X-0.149594X-0.499594X0.149594X-0.499594X0*%
%ADD16RoundRect,0.063703X-0.312497X-0.512497X0.312497X-0.512497X0.312497X0.512497X-0.312497X0.512497X0*%
%ADD17RoundRect,0.063703X0.312497X0.512497X-0.312497X0.512497X-0.312497X-0.512497X0.312497X-0.512497X0*%
%ADD18RoundRect,0.062523X-0.343877X-0.648677X0.343877X-0.648677X0.343877X0.648677X-0.343877X0.648677X0*%
%ADD19RoundRect,0.172860X0.403340X-0.403340X0.403340X0.403340X-0.403340X0.403340X-0.403340X-0.403340X0*%
%ADD20RoundRect,0.063703X0.687497X-0.312497X0.687497X0.312497X-0.687497X0.312497X-0.687497X-0.312497X0*%
%ADD21RoundRect,0.057252X1.018948X-0.618948X1.018948X0.618948X-1.018948X0.618948X-1.018948X-0.618948X0*%
%ADD22C,2.032000*%
%ADD23RoundRect,0.062523X0.648677X-0.343877X0.648677X0.343877X-0.648677X0.343877X-0.648677X-0.343877X0*%
%ADD24RoundRect,0.062992X-0.330708X-0.648208X0.330708X-0.648208X0.330708X0.648208X-0.330708X0.648208X0*%
%ADD25RoundRect,0.058542X0.567658X0.517658X-0.567658X0.517658X-0.567658X-0.517658X0.567658X-0.517658X0*%
%ADD26RoundRect,0.062523X0.343877X0.648677X-0.343877X0.648677X-0.343877X-0.648677X0.343877X-0.648677X0*%
%ADD27RoundRect,0.063703X-0.687497X0.312497X-0.687497X-0.312497X0.687497X-0.312497X0.687497X0.312497X0*%
%ADD28RoundRect,0.057252X-1.018948X0.618948X-1.018948X-0.618948X1.018948X-0.618948X1.018948X0.618948X0*%
G04 APERTURE END LIST*
D10*
%TO.C,J1*%
G36*
X144337115Y-79973435D02*
G01*
X144482688Y-80033022D01*
X144607880Y-80128255D01*
X144704363Y-80252911D01*
X144786100Y-80552931D01*
X144786100Y-81153917D01*
X144766094Y-81310909D01*
X144706008Y-81457688D01*
X144609981Y-81583915D01*
X144484289Y-81681193D01*
X144181434Y-81763691D01*
X144023922Y-81742289D01*
X143877645Y-81680987D01*
X143752219Y-81583915D01*
X143656192Y-81457688D01*
X143596106Y-81310909D01*
X143576100Y-81153917D01*
X143576100Y-80553262D01*
X143597240Y-80397715D01*
X143658043Y-80252645D01*
X143754320Y-80128255D01*
X143879512Y-80033022D01*
X144025085Y-79973435D01*
X144181100Y-79953560D01*
X144337115Y-79973435D01*
G37*
G36*
X144331281Y-83896062D02*
G01*
X144473343Y-83947067D01*
X144597364Y-84033103D01*
X144695109Y-84148562D01*
X144786100Y-84432819D01*
X144786100Y-85634026D01*
X144760416Y-85783795D01*
X144696746Y-85922026D01*
X144599468Y-86039066D01*
X144474939Y-86127137D01*
X144181431Y-86193652D01*
X144029750Y-86179664D01*
X143886986Y-86126942D01*
X143762732Y-86039066D01*
X143665454Y-85922026D01*
X143601784Y-85783795D01*
X143576100Y-85634026D01*
X143576100Y-84433152D01*
X143602922Y-84284826D01*
X143667309Y-84148306D01*
X143764836Y-84033103D01*
X143888857Y-83947067D01*
X144030919Y-83896062D01*
X144181100Y-83883583D01*
X144331281Y-83896062D01*
G37*
G36*
X152977115Y-79973435D02*
G01*
X153122688Y-80033022D01*
X153247880Y-80128255D01*
X153344363Y-80252911D01*
X153426100Y-80552931D01*
X153426100Y-81153917D01*
X153406094Y-81310909D01*
X153346008Y-81457688D01*
X153249981Y-81583915D01*
X153124289Y-81681193D01*
X152821434Y-81763691D01*
X152663922Y-81742289D01*
X152517645Y-81680987D01*
X152392219Y-81583915D01*
X152296192Y-81457688D01*
X152236106Y-81310909D01*
X152216100Y-81153917D01*
X152216100Y-80553262D01*
X152237240Y-80397715D01*
X152298043Y-80252645D01*
X152394320Y-80128255D01*
X152519512Y-80033022D01*
X152665085Y-79973435D01*
X152821100Y-79953560D01*
X152977115Y-79973435D01*
G37*
G36*
X152971281Y-83896062D02*
G01*
X153113343Y-83947067D01*
X153237364Y-84033103D01*
X153335109Y-84148562D01*
X153426100Y-84432819D01*
X153426100Y-85634026D01*
X153400416Y-85783795D01*
X153336746Y-85922026D01*
X153239468Y-86039066D01*
X153114939Y-86127137D01*
X152821431Y-86193652D01*
X152669750Y-86179664D01*
X152526986Y-86126942D01*
X152402732Y-86039066D01*
X152305454Y-85922026D01*
X152241784Y-85783795D01*
X152216100Y-85634026D01*
X152216100Y-84433152D01*
X152242922Y-84284826D01*
X152307309Y-84148306D01*
X152404836Y-84033103D01*
X152528857Y-83947067D01*
X152670919Y-83896062D01*
X152821100Y-83883583D01*
X152971281Y-83896062D01*
G37*
%TO.C,SHLD0*%
G36*
X142405100Y-83604100D02*
G01*
X141897100Y-83604100D01*
X141897100Y-83223100D01*
X142405100Y-83223100D01*
X142405100Y-83604100D01*
G37*
%TO.C,I2C0*%
G36*
X157200600Y-86969600D02*
G01*
X156819600Y-86969600D01*
X156819600Y-86461600D01*
X157200600Y-86461600D01*
X157200600Y-86969600D01*
G37*
G36*
X157200600Y-87985600D02*
G01*
X156819600Y-87985600D01*
X156819600Y-87477600D01*
X157200600Y-87477600D01*
X157200600Y-87985600D01*
G37*
%TO.C,WU0*%
G36*
X150025100Y-97574100D02*
G01*
X149517100Y-97574100D01*
X149517100Y-97193100D01*
X150025100Y-97193100D01*
X150025100Y-97574100D01*
G37*
%TD*%
D11*
%TO.C,FD1*%
X137071100Y-84683600D03*
%TD*%
D12*
%TO.C,U1*%
X141290700Y-104368600D03*
X141290700Y-105638600D03*
X141290700Y-106908600D03*
X141290700Y-108178600D03*
X141290700Y-109448600D03*
X141290700Y-110718600D03*
X141290700Y-111988600D03*
X141290700Y-113258600D03*
X141290700Y-114528600D03*
X141290700Y-115798600D03*
X141290700Y-117068600D03*
X141290700Y-118338600D03*
X141290700Y-119608600D03*
X141290700Y-120878600D03*
X155711500Y-120878600D03*
X155711500Y-119608600D03*
X155711500Y-118338600D03*
X155711500Y-117068600D03*
X155711500Y-115798600D03*
X155711500Y-114528600D03*
X155711500Y-113258600D03*
X155711500Y-111988600D03*
X155711500Y-110718600D03*
X155711500Y-109448600D03*
X155711500Y-108178600D03*
X155711500Y-106908600D03*
X155711500Y-105638600D03*
X155711500Y-104368600D03*
%TD*%
D13*
%TO.C,S2*%
X141897100Y-125323600D03*
X147485100Y-125323600D03*
X141897100Y-129133600D03*
X147485100Y-129133600D03*
%TD*%
D14*
%TO.C,J1*%
X149751100Y-85613600D03*
X148751100Y-85613600D03*
D15*
X148251100Y-85613600D03*
X147251100Y-85613600D03*
X146751100Y-85613600D03*
X147751100Y-85613600D03*
D14*
X149251100Y-85613600D03*
X150251100Y-85613600D03*
D16*
X151726100Y-85613600D03*
D17*
X145276100Y-85613600D03*
D16*
X150951100Y-85613600D03*
D17*
X146051100Y-85613600D03*
%TD*%
D18*
%TO.C,SHLD0*%
X141630400Y-83413600D03*
X142671800Y-83413600D03*
%TD*%
D19*
%TO.C,D1*%
X139218100Y-98018600D03*
X137464100Y-98018600D03*
%TD*%
D20*
%TO.C,J3*%
X156121100Y-93803600D03*
X156121100Y-92803600D03*
X156121100Y-91803600D03*
X156121100Y-90803600D03*
D21*
X159796100Y-89503600D03*
X159796100Y-95103600D03*
%TD*%
D22*
%TO.C,J14*%
X137071100Y-122783600D03*
X137071100Y-120243600D03*
X137071100Y-117703600D03*
X137071100Y-115163600D03*
X137071100Y-112623600D03*
X137071100Y-110083600D03*
X137071100Y-107543600D03*
X137071100Y-105003600D03*
X137071100Y-102463600D03*
%TD*%
D23*
%TO.C,I2C0*%
X157010100Y-88265000D03*
X157010100Y-87223600D03*
X157010100Y-86182200D03*
%TD*%
D24*
%TO.C,ADDR0*%
X147688300Y-101193600D03*
X148501100Y-101193600D03*
X149313900Y-101193600D03*
%TD*%
D22*
%TO.C,J15*%
X159931100Y-122783600D03*
X159931100Y-120243600D03*
X159931100Y-117703600D03*
X159931100Y-115163600D03*
X159931100Y-112623600D03*
X159931100Y-110083600D03*
X159931100Y-107543600D03*
X159931100Y-105003600D03*
X159931100Y-102463600D03*
X159931100Y-99923600D03*
X159931100Y-97383600D03*
%TD*%
D25*
%TO.C,C1*%
X143001100Y-123418600D03*
X141301100Y-123418600D03*
%TD*%
%TO.C,R9*%
X139191100Y-99923600D03*
X137491100Y-99923600D03*
%TD*%
D26*
%TO.C,WU0*%
X150291800Y-97383600D03*
X149250400Y-97383600D03*
%TD*%
D11*
%TO.C,FD3*%
X159931100Y-125323600D03*
%TD*%
D13*
%TO.C,S1*%
X149517100Y-125323600D03*
X155105100Y-125323600D03*
X149517100Y-129133600D03*
X155105100Y-129133600D03*
%TD*%
D27*
%TO.C,J2*%
X140881100Y-90803600D03*
X140881100Y-91803600D03*
X140881100Y-92803600D03*
X140881100Y-93803600D03*
D28*
X137206100Y-95103600D03*
X137206100Y-89503600D03*
%TD*%
M02*
