M48
; DRILL file {KiCad 9.0.6} date 2026-01-24T16:26:05+0800
; FORMAT={-:-/ absolute / inch / decimal}
; #@! TF.CreationDate,2026-01-24T16:26:05+08:00
; #@! TF.GenerationSoftware,Kicad,Pcbnew,9.0.6
; #@! TF.FileFunction,Plated,1,2,PTH
FMAT,2
INCH
; #@! TA.AperFunction,Plated,PTH,ViaDrill
T1C0.0118
; #@! TA.AperFunction,Plated,PTH,ViaDrill
T2C0.0120
; #@! TA.AperFunction,Plated,PTH,ViaDrill
T3C0.0150
; #@! TA.AperFunction,Plated,PTH,ComponentDrill
T4C0.0157
; #@! TA.AperFunction,Plated,PTH,ComponentDrill
T5C0.0400
%
G90
G05
T1
X5.6102Y-3.6516
T2
X5.3765Y-3.894
X5.3765Y-3.974
X5.3965Y-4.934
X5.4715Y-3.574
X5.4715Y-3.769
X5.4865Y-4.784
X5.4915Y-4.174
X5.4965Y-3.334
X5.4965Y-3.484
X5.4965Y-4.284
X5.4965Y-4.884
X5.5465Y-3.384
X5.5465Y-4.984
X5.5765Y-3.974
X5.5965Y-3.184
X5.5965Y-3.834
X5.6265Y-4.034
X5.6405Y-4.209
X5.6415Y-4.694
X5.6465Y-4.559
X5.6515Y-3.944
X5.6615Y-3.519
X5.6615Y-4.609
X5.6615Y-4.659
X5.6815Y-3.994
X5.7115Y-3.874
X5.7115Y-4.034
X5.7115Y-4.364
X5.7165Y-4.834
X5.7315Y-3.414
X5.7715Y-3.709
X5.7815Y-3.474
X5.7965Y-4.189
X5.8165Y-3.469
X5.8165Y-3.704
X5.8165Y-5.004
X5.8206Y-3.8839
X5.8465Y-3.234
X5.8765Y-3.749
X5.8765Y-4.139
X5.8765Y-4.179
X5.8815Y-4.404
X5.8915Y-3.434
X5.8965Y-4.834
X5.9215Y-3.954
X5.9365Y-3.684
X5.9365Y-4.104
X5.9365Y-4.424
X5.9465Y-4.784
X5.9715Y-3.414
X6.0105Y-4.3021
X6.0265Y-3.949
X6.0453Y-4.2852
X6.0465Y-4.409
X6.0465Y-4.784
X6.0515Y-4.569
X6.0565Y-3.404
X6.0565Y-4.709
X6.0615Y-3.484
X6.0615Y-4.174
X6.0665Y-3.974
X6.0965Y-3.184
X6.0965Y-3.994
X6.1065Y-5.019
X6.1115Y-3.484
X6.1215Y-3.884
X6.1265Y-3.759
X6.1615Y-3.314
X6.1965Y-3.574
X6.1965Y-4.884
X6.2015Y-4.609
X6.2015Y-4.659
X6.2065Y-4.324
X6.2215Y-3.614
X6.2365Y-3.694
X6.2415Y-4.789
X6.2765Y-3.384
T3
X5.8715Y-4.229
T4
X5.6765Y-3.1834
X5.6765Y-3.348
X6.0165Y-3.1834
X6.0165Y-3.348
T5
X5.3965Y-4.034
X5.3965Y-4.134
X5.3965Y-4.234
X5.3965Y-4.334
X5.3965Y-4.434
X5.3965Y-4.534
X5.3965Y-4.634
X5.3965Y-4.734
X5.3965Y-4.834
X6.2965Y-3.834
X6.2965Y-3.934
X6.2965Y-4.034
X6.2965Y-4.134
X6.2965Y-4.234
X6.2965Y-4.334
X6.2965Y-4.434
X6.2965Y-4.534
X6.2965Y-4.634
X6.2965Y-4.734
X6.2965Y-4.834
M30
