0
SECTION
2
HEADER
9
$INSUNITS
70
4
9
$ACADVER
1
AC1014
9
$HANDSEED
5
FFFF
0
ENDSEC
0
SECTION
2
TABLES
0
TABLE
2
VPORT
5
8
100
AcDbSymbolTable
0
ENDTAB
0
TABLE
2
LTYPE
5
5
100
AcDbSymbolTable
0
LTYPE
5
14
100
AcDbSymbolTableRecord
100
AcDbLinetypeTableRecord
2
BYBLOCK
70
0
0
LTYPE
5
15
100
AcDbSymbolTableRecord
100
AcDbLinetypeTableRecord
2
BYLAYER
70
0
0
LTYPE
5
16
100
AcDbSymbolTableRecord
100
AcDbLinetypeTableRecord
2
DASHED
70
0
3
Dashed __ __ __ __ __ __ __ __ __ __ __ __ __ _
72
65
73
2
40
0.75
49
0.5
74
0
49
-0.25
74
0
0
ENDTAB
0
TABLE
2
LAYER
5
2
100
AcDbSymbolTable
70
2
0
LAYER
5
50
100
AcDbSymbolTableRecord
100
AcDbLayerTableRecord
2
0
70
0
62
7
6
CONTINUOUS
0
ENDTAB
0
TABLE
2
STYLE
5
3
100
AcDbSymbolTable
70
1
0
STYLE
5
11
100
AcDbSymbolTableRecord
100
AcDbTextStyleTableRecord
2
STANDARD
70
0
0
ENDTAB
0
TABLE
2
VIEW
5
6
100
AcDbSymbolTable
70
0
0
ENDTAB
0
TABLE
2
UCS
5
7
100
AcDbSymbolTable
70
0
0
ENDTAB
0
TABLE
2
APPID
5
9
100
AcDbSymbolTable
70
2
0
APPID
5
12
100
AcDbSymbolTableRecord
100
AcDbRegAppTableRecord
2
ACAD
70
0
0
ENDTAB
0
TABLE
2
DIMSTYLE
5
A
100
AcDbSymbolTable
70
1
0
ENDTAB
0
TABLE
2
BLOCK_RECORD
5
1
100
AcDbSymbolTable
70
1
0
BLOCK_RECORD
5
1F
100
AcDbSymbolTableRecord
100
AcDbBlockTableRecord
2
*MODEL_SPACE
0
BLOCK_RECORD
5
1B
100
AcDbSymbolTableRecord
100
AcDbBlockTableRecord
2
*PAPER_SPACE
0
ENDTAB
0
ENDSEC
0
SECTION
2
BLOCKS
0
BLOCK
5
20
100
AcDbEntity
100
AcDbBlockBegin
2
*MODEL_SPACE
0
ENDBLK
5
21
100
AcDbEntity
100
AcDbBlockEnd
0
BLOCK
5
1C
100
AcDbEntity
100
AcDbBlockBegin
2
*PAPER_SPACE
0
ENDBLK
5
1D
100
AcDbEntity
100
AcDbBlockEnd
0
ENDSEC
0
SECTION
2
ENTITIES
0
LWPOLYLINE
5
100
100
AcDbEntity
8
0
100
AcDbPolyline
90
28
70
1
43
0.0
10
97.35159302500989
20
28.737387623985335
42
0.41421356237310802
10
96.85159302500989
20
29.237387623985327
10
87.85159302500989
20
29.237387623985324
42
-0.41421356237309503
10
87.35159302500989
20
29.737387623985331
10
87.35159302500989
20
38.237387623985335
42
0.41421356237310802
10
86.85159302500989
20
38.737387623985327
10
85.638135073882836
20
38.737387623985327
42
-0.41421356237309503
10
85.138135073882836
20
39.237387623985335
10
85.138135073882836
20
49.837387623985322
42
0.41421356237307422
10
84.638135073882822
20
50.337387623985336
10
75.638135073882836
20
50.337387623985322
42
0.41421356237310542
10
75.138135073882836
20
49.837387623985322
10
75.138135073882836
20
39.237387623985335
42
-0.41421356237309503
10
74.638135073882836
20
38.737387623985335
10
73.424677122755782
20
38.737387623985335
42
0.41421356237309764
10
72.924677122755796
20
38.237387623985335
10
72.924677122755782
20
4.7373876239853319
42
0.41421356237309276
10
73.424677122755767
20
4.2373876239853372
10
74.638135073882836
20
4.2373876239853328
42
-0.41421356237309503
10
75.138135073882836
20
3.7373876239853345
10
75.138135073882836
20
3.13738762398533
42
0.41421356237309404
10
75.638135073882836
20
2.6373876239853331
10
84.638135073882822
20
2.6373876239853322
42
0.41421356237307422
10
85.138135073882836
20
3.1373876239853322
10
85.138135073882836
20
3.7373876239853345
42
-0.41421356237309503
10
85.638135073882836
20
4.2373876239853345
10
96.85159302500989
20
4.2373876239853336
42
0.41421356237310514
10
97.35159302500989
20
4.7373876239853319
0
ENDSEC
0
SECTION
2
OBJECTS
0
DICTIONARY
5
C
100
AcDbDictionary
3
ACAD_GROUP
350
D
3
ACAD_MLINESTYLE
350
17
0
DICTIONARY
5
D
100
AcDbDictionary
0
DICTIONARY
5
1A
330
C
100
AcDbDictionary
0
DICTIONARY
5
17
100
AcDbDictionary
0
ENDSEC
0
EOF
