%TF.GenerationSoftware,KiCad,Pcbnew,9.0.5*%
%TF.CreationDate,2025-12-04T12:18:22+08:00*%
%TF.ProjectId,buck,6275636b-2e6b-4696-9361-645f70636258,rev?*%
%TF.SameCoordinates,Original*%
%TF.FileFunction,Soldermask,Top*%
%TF.FilePolarity,Negative*%
%FSLAX46Y46*%
G04 Gerber Fmt 4.6, Leading zero omitted, Abs format (unit mm)*
G04 Created by KiCad (PCBNEW 9.0.5) date 2025-12-04 12:18:22*
%MOMM*%
%LPD*%
G01*
G04 APERTURE LIST*
G04 Aperture macros list*
%AMRoundRect*
0 Rectangle with rounded corners*
0 $1 Rounding radius*
0 $2 $3 $4 $5 $6 $7 $8 $9 X,Y pos of 4 corners*
0 Add a 4 corners polygon primitive as box body*
4,1,4,$2,$3,$4,$5,$6,$7,$8,$9,$2,$3,0*
0 Add four circle primitives for the rounded corners*
1,1,$1+$1,$2,$3*
1,1,$1+$1,$4,$5*
1,1,$1+$1,$6,$7*
1,1,$1+$1,$8,$9*
0 Add four rect primitives between the rounded corners*
20,1,$1+$1,$2,$3,$4,$5,0*
20,1,$1+$1,$4,$5,$6,$7,0*
20,1,$1+$1,$6,$7,$8,$9,0*
20,1,$1+$1,$8,$9,$2,$3,0*%
G04 Aperture macros list end*
%ADD10RoundRect,0.200000X-0.275000X0.200000X-0.275000X-0.200000X0.275000X-0.200000X0.275000X0.200000X0*%
%ADD11RoundRect,0.250001X0.872499X1.044999X-0.872499X1.044999X-0.872499X-1.044999X0.872499X-1.044999X0*%
%ADD12RoundRect,0.225000X0.225000X0.250000X-0.225000X0.250000X-0.225000X-0.250000X0.225000X-0.250000X0*%
%ADD13R,1.700000X1.700000*%
%ADD14O,1.700000X1.700000*%
%ADD15C,1.600000*%
G04 APERTURE END LIST*
D10*
%TO.C,R2*%
X139030000Y-97704999D03*
X139030000Y-99354999D03*
%TD*%
D11*
%TO.C,C6*%
X147737500Y-99529999D03*
X141322500Y-99529999D03*
%TD*%
D12*
%TO.C,C1*%
X128280000Y-81529999D03*
X126730000Y-81529999D03*
%TD*%
D11*
%TO.C,C5*%
X132987500Y-99529999D03*
X126572500Y-99529999D03*
%TD*%
D13*
%TO.C,J1*%
X127375000Y-76459999D03*
D14*
X129915000Y-76459999D03*
X132455000Y-76459999D03*
X134995000Y-76459999D03*
X137535000Y-76459999D03*
X140075000Y-76459999D03*
X142615000Y-76459999D03*
X145155000Y-76459999D03*
%TD*%
D13*
%TO.C,J2*%
X127375000Y-107099999D03*
D14*
X129915000Y-107099999D03*
X132455000Y-107099999D03*
X134995000Y-107099999D03*
X137535000Y-107099999D03*
X140075000Y-107099999D03*
X142615000Y-107099999D03*
X145155000Y-107099999D03*
%TD*%
D12*
%TO.C,C3*%
X142555000Y-81779999D03*
X141005000Y-81779999D03*
%TD*%
D10*
%TO.C,R1*%
X124280000Y-97704999D03*
X124280000Y-99354999D03*
%TD*%
D12*
%TO.C,C4*%
X145555000Y-81779999D03*
X144005000Y-81779999D03*
%TD*%
%TO.C,C2*%
X131280000Y-81529999D03*
X129730000Y-81529999D03*
%TD*%
D15*
%TO.C,PS2*%
X143600000Y-83679999D03*
X148180000Y-83679999D03*
X149700000Y-87489999D03*
X149700000Y-89779999D03*
X149700000Y-92069999D03*
X148180000Y-95879999D03*
X143600000Y-95879999D03*
X139020000Y-95879999D03*
X137500000Y-89779999D03*
X137500000Y-87489999D03*
X139020000Y-83679999D03*
X141310000Y-83679999D03*
X141310000Y-95879999D03*
X137500000Y-92069999D03*
%TD*%
%TO.C,PS1*%
X128960000Y-83679999D03*
X133540000Y-83679999D03*
X135060000Y-87489999D03*
X135060000Y-89779999D03*
X135060000Y-92069999D03*
X133540000Y-95879999D03*
X128960000Y-95879999D03*
X124380000Y-95879999D03*
X122860000Y-89779999D03*
X122860000Y-87489999D03*
X124380000Y-83679999D03*
X126670000Y-83679999D03*
X126670000Y-95879999D03*
X122860000Y-92069999D03*
%TD*%
M02*
