%TF.GenerationSoftware,KiCad,Pcbnew,9.0.5*%
%TF.CreationDate,2025-12-04T12:18:22+08:00*%
%TF.ProjectId,buck,6275636b-2e6b-4696-9361-645f70636258,rev?*%
%TF.SameCoordinates,Original*%
%TF.FileFunction,Legend,Bot*%
%TF.FilePolarity,Positive*%
%FSLAX46Y46*%
G04 Gerber Fmt 4.6, Leading zero omitted, Abs format (unit mm)*
G04 Created by KiCad (PCBNEW 9.0.5) date 2025-12-04 12:18:22*
%MOMM*%
%LPD*%
G01*
G04 APERTURE LIST*
%ADD10C,0.200000*%
%ADD11C,0.100000*%
%ADD12R,1.700000X1.700000*%
%ADD13O,1.700000X1.700000*%
%ADD14C,1.600000*%
G04 APERTURE END LIST*
D10*
X145518095Y-99872274D02*
X145518095Y-98872274D01*
X145518095Y-99824655D02*
X145613333Y-99872274D01*
X145613333Y-99872274D02*
X145803809Y-99872274D01*
X145803809Y-99872274D02*
X145899047Y-99824655D01*
X145899047Y-99824655D02*
X145946666Y-99777035D01*
X145946666Y-99777035D02*
X145994285Y-99681797D01*
X145994285Y-99681797D02*
X145994285Y-99396083D01*
X145994285Y-99396083D02*
X145946666Y-99300845D01*
X145946666Y-99300845D02*
X145899047Y-99253226D01*
X145899047Y-99253226D02*
X145803809Y-99205607D01*
X145803809Y-99205607D02*
X145613333Y-99205607D01*
X145613333Y-99205607D02*
X145518095Y-99253226D01*
X144660952Y-99824655D02*
X144756190Y-99872274D01*
X144756190Y-99872274D02*
X144946666Y-99872274D01*
X144946666Y-99872274D02*
X145041904Y-99824655D01*
X145041904Y-99824655D02*
X145089523Y-99729416D01*
X145089523Y-99729416D02*
X145089523Y-99348464D01*
X145089523Y-99348464D02*
X145041904Y-99253226D01*
X145041904Y-99253226D02*
X144946666Y-99205607D01*
X144946666Y-99205607D02*
X144756190Y-99205607D01*
X144756190Y-99205607D02*
X144660952Y-99253226D01*
X144660952Y-99253226D02*
X144613333Y-99348464D01*
X144613333Y-99348464D02*
X144613333Y-99443702D01*
X144613333Y-99443702D02*
X145089523Y-99538940D01*
X144232380Y-99824655D02*
X144137142Y-99872274D01*
X144137142Y-99872274D02*
X143946666Y-99872274D01*
X143946666Y-99872274D02*
X143851428Y-99824655D01*
X143851428Y-99824655D02*
X143803809Y-99729416D01*
X143803809Y-99729416D02*
X143803809Y-99681797D01*
X143803809Y-99681797D02*
X143851428Y-99586559D01*
X143851428Y-99586559D02*
X143946666Y-99538940D01*
X143946666Y-99538940D02*
X144089523Y-99538940D01*
X144089523Y-99538940D02*
X144184761Y-99491321D01*
X144184761Y-99491321D02*
X144232380Y-99396083D01*
X144232380Y-99396083D02*
X144232380Y-99348464D01*
X144232380Y-99348464D02*
X144184761Y-99253226D01*
X144184761Y-99253226D02*
X144089523Y-99205607D01*
X144089523Y-99205607D02*
X143946666Y-99205607D01*
X143946666Y-99205607D02*
X143851428Y-99253226D01*
X143375237Y-99872274D02*
X143375237Y-99205607D01*
X143375237Y-98872274D02*
X143422856Y-98919893D01*
X143422856Y-98919893D02*
X143375237Y-98967512D01*
X143375237Y-98967512D02*
X143327618Y-98919893D01*
X143327618Y-98919893D02*
X143375237Y-98872274D01*
X143375237Y-98872274D02*
X143375237Y-98967512D01*
X142470476Y-99205607D02*
X142470476Y-100015131D01*
X142470476Y-100015131D02*
X142518095Y-100110369D01*
X142518095Y-100110369D02*
X142565714Y-100157988D01*
X142565714Y-100157988D02*
X142660952Y-100205607D01*
X142660952Y-100205607D02*
X142803809Y-100205607D01*
X142803809Y-100205607D02*
X142899047Y-100157988D01*
X142470476Y-99824655D02*
X142565714Y-99872274D01*
X142565714Y-99872274D02*
X142756190Y-99872274D01*
X142756190Y-99872274D02*
X142851428Y-99824655D01*
X142851428Y-99824655D02*
X142899047Y-99777035D01*
X142899047Y-99777035D02*
X142946666Y-99681797D01*
X142946666Y-99681797D02*
X142946666Y-99396083D01*
X142946666Y-99396083D02*
X142899047Y-99300845D01*
X142899047Y-99300845D02*
X142851428Y-99253226D01*
X142851428Y-99253226D02*
X142756190Y-99205607D01*
X142756190Y-99205607D02*
X142565714Y-99205607D01*
X142565714Y-99205607D02*
X142470476Y-99253226D01*
X141994285Y-99205607D02*
X141994285Y-99872274D01*
X141994285Y-99300845D02*
X141946666Y-99253226D01*
X141946666Y-99253226D02*
X141851428Y-99205607D01*
X141851428Y-99205607D02*
X141708571Y-99205607D01*
X141708571Y-99205607D02*
X141613333Y-99253226D01*
X141613333Y-99253226D02*
X141565714Y-99348464D01*
X141565714Y-99348464D02*
X141565714Y-99872274D01*
X140184761Y-99872274D02*
X140279999Y-99824655D01*
X140279999Y-99824655D02*
X140327618Y-99777035D01*
X140327618Y-99777035D02*
X140375237Y-99681797D01*
X140375237Y-99681797D02*
X140375237Y-99396083D01*
X140375237Y-99396083D02*
X140327618Y-99300845D01*
X140327618Y-99300845D02*
X140279999Y-99253226D01*
X140279999Y-99253226D02*
X140184761Y-99205607D01*
X140184761Y-99205607D02*
X140041904Y-99205607D01*
X140041904Y-99205607D02*
X139946666Y-99253226D01*
X139946666Y-99253226D02*
X139899047Y-99300845D01*
X139899047Y-99300845D02*
X139851428Y-99396083D01*
X139851428Y-99396083D02*
X139851428Y-99681797D01*
X139851428Y-99681797D02*
X139899047Y-99777035D01*
X139899047Y-99777035D02*
X139946666Y-99824655D01*
X139946666Y-99824655D02*
X140041904Y-99872274D01*
X140041904Y-99872274D02*
X140184761Y-99872274D01*
X139565713Y-99205607D02*
X139184761Y-99205607D01*
X139422856Y-99872274D02*
X139422856Y-99015131D01*
X139422856Y-99015131D02*
X139375237Y-98919893D01*
X139375237Y-98919893D02*
X139279999Y-98872274D01*
X139279999Y-98872274D02*
X139184761Y-98872274D01*
X138137141Y-98967512D02*
X138089522Y-98919893D01*
X138089522Y-98919893D02*
X137994284Y-98872274D01*
X137994284Y-98872274D02*
X137756189Y-98872274D01*
X137756189Y-98872274D02*
X137660951Y-98919893D01*
X137660951Y-98919893D02*
X137613332Y-98967512D01*
X137613332Y-98967512D02*
X137565713Y-99062750D01*
X137565713Y-99062750D02*
X137565713Y-99157988D01*
X137565713Y-99157988D02*
X137613332Y-99300845D01*
X137613332Y-99300845D02*
X138184760Y-99872274D01*
X138184760Y-99872274D02*
X137565713Y-99872274D01*
X137137141Y-99491321D02*
X136375237Y-99491321D01*
X135327618Y-99777035D02*
X135375237Y-99824655D01*
X135375237Y-99824655D02*
X135518094Y-99872274D01*
X135518094Y-99872274D02*
X135613332Y-99872274D01*
X135613332Y-99872274D02*
X135756189Y-99824655D01*
X135756189Y-99824655D02*
X135851427Y-99729416D01*
X135851427Y-99729416D02*
X135899046Y-99634178D01*
X135899046Y-99634178D02*
X135946665Y-99443702D01*
X135946665Y-99443702D02*
X135946665Y-99300845D01*
X135946665Y-99300845D02*
X135899046Y-99110369D01*
X135899046Y-99110369D02*
X135851427Y-99015131D01*
X135851427Y-99015131D02*
X135756189Y-98919893D01*
X135756189Y-98919893D02*
X135613332Y-98872274D01*
X135613332Y-98872274D02*
X135518094Y-98872274D01*
X135518094Y-98872274D02*
X135375237Y-98919893D01*
X135375237Y-98919893D02*
X135327618Y-98967512D01*
X134899046Y-99872274D02*
X134899046Y-98872274D01*
X134470475Y-99872274D02*
X134470475Y-99348464D01*
X134470475Y-99348464D02*
X134518094Y-99253226D01*
X134518094Y-99253226D02*
X134613332Y-99205607D01*
X134613332Y-99205607D02*
X134756189Y-99205607D01*
X134756189Y-99205607D02*
X134851427Y-99253226D01*
X134851427Y-99253226D02*
X134899046Y-99300845D01*
X133565713Y-99872274D02*
X133565713Y-99348464D01*
X133565713Y-99348464D02*
X133613332Y-99253226D01*
X133613332Y-99253226D02*
X133708570Y-99205607D01*
X133708570Y-99205607D02*
X133899046Y-99205607D01*
X133899046Y-99205607D02*
X133994284Y-99253226D01*
X133565713Y-99824655D02*
X133660951Y-99872274D01*
X133660951Y-99872274D02*
X133899046Y-99872274D01*
X133899046Y-99872274D02*
X133994284Y-99824655D01*
X133994284Y-99824655D02*
X134041903Y-99729416D01*
X134041903Y-99729416D02*
X134041903Y-99634178D01*
X134041903Y-99634178D02*
X133994284Y-99538940D01*
X133994284Y-99538940D02*
X133899046Y-99491321D01*
X133899046Y-99491321D02*
X133660951Y-99491321D01*
X133660951Y-99491321D02*
X133565713Y-99443702D01*
X133089522Y-99872274D02*
X133089522Y-99205607D01*
X133089522Y-98872274D02*
X133137141Y-98919893D01*
X133137141Y-98919893D02*
X133089522Y-98967512D01*
X133089522Y-98967512D02*
X133041903Y-98919893D01*
X133041903Y-98919893D02*
X133089522Y-98872274D01*
X133089522Y-98872274D02*
X133089522Y-98967512D01*
X132613332Y-99872274D02*
X132613332Y-99205607D01*
X132613332Y-99396083D02*
X132565713Y-99300845D01*
X132565713Y-99300845D02*
X132518094Y-99253226D01*
X132518094Y-99253226D02*
X132422856Y-99205607D01*
X132422856Y-99205607D02*
X132327618Y-99205607D01*
X132041903Y-99824655D02*
X131946665Y-99872274D01*
X131946665Y-99872274D02*
X131756189Y-99872274D01*
X131756189Y-99872274D02*
X131660951Y-99824655D01*
X131660951Y-99824655D02*
X131613332Y-99729416D01*
X131613332Y-99729416D02*
X131613332Y-99681797D01*
X131613332Y-99681797D02*
X131660951Y-99586559D01*
X131660951Y-99586559D02*
X131756189Y-99538940D01*
X131756189Y-99538940D02*
X131899046Y-99538940D01*
X131899046Y-99538940D02*
X131994284Y-99491321D01*
X131994284Y-99491321D02*
X132041903Y-99396083D01*
X132041903Y-99396083D02*
X132041903Y-99348464D01*
X132041903Y-99348464D02*
X131994284Y-99253226D01*
X131994284Y-99253226D02*
X131899046Y-99205607D01*
X131899046Y-99205607D02*
X131756189Y-99205607D01*
X131756189Y-99205607D02*
X131660951Y-99253226D01*
X131184760Y-99777035D02*
X131137141Y-99824655D01*
X131137141Y-99824655D02*
X131184760Y-99872274D01*
X131184760Y-99872274D02*
X131232379Y-99824655D01*
X131232379Y-99824655D02*
X131184760Y-99777035D01*
X131184760Y-99777035D02*
X131184760Y-99872274D01*
X129994284Y-98967512D02*
X129946665Y-98919893D01*
X129946665Y-98919893D02*
X129851427Y-98872274D01*
X129851427Y-98872274D02*
X129613332Y-98872274D01*
X129613332Y-98872274D02*
X129518094Y-98919893D01*
X129518094Y-98919893D02*
X129470475Y-98967512D01*
X129470475Y-98967512D02*
X129422856Y-99062750D01*
X129422856Y-99062750D02*
X129422856Y-99157988D01*
X129422856Y-99157988D02*
X129470475Y-99300845D01*
X129470475Y-99300845D02*
X130041903Y-99872274D01*
X130041903Y-99872274D02*
X129422856Y-99872274D01*
X128803808Y-98872274D02*
X128708570Y-98872274D01*
X128708570Y-98872274D02*
X128613332Y-98919893D01*
X128613332Y-98919893D02*
X128565713Y-98967512D01*
X128565713Y-98967512D02*
X128518094Y-99062750D01*
X128518094Y-99062750D02*
X128470475Y-99253226D01*
X128470475Y-99253226D02*
X128470475Y-99491321D01*
X128470475Y-99491321D02*
X128518094Y-99681797D01*
X128518094Y-99681797D02*
X128565713Y-99777035D01*
X128565713Y-99777035D02*
X128613332Y-99824655D01*
X128613332Y-99824655D02*
X128708570Y-99872274D01*
X128708570Y-99872274D02*
X128803808Y-99872274D01*
X128803808Y-99872274D02*
X128899046Y-99824655D01*
X128899046Y-99824655D02*
X128946665Y-99777035D01*
X128946665Y-99777035D02*
X128994284Y-99681797D01*
X128994284Y-99681797D02*
X129041903Y-99491321D01*
X129041903Y-99491321D02*
X129041903Y-99253226D01*
X129041903Y-99253226D02*
X128994284Y-99062750D01*
X128994284Y-99062750D02*
X128946665Y-98967512D01*
X128946665Y-98967512D02*
X128899046Y-98919893D01*
X128899046Y-98919893D02*
X128803808Y-98872274D01*
X128089522Y-98967512D02*
X128041903Y-98919893D01*
X128041903Y-98919893D02*
X127946665Y-98872274D01*
X127946665Y-98872274D02*
X127708570Y-98872274D01*
X127708570Y-98872274D02*
X127613332Y-98919893D01*
X127613332Y-98919893D02*
X127565713Y-98967512D01*
X127565713Y-98967512D02*
X127518094Y-99062750D01*
X127518094Y-99062750D02*
X127518094Y-99157988D01*
X127518094Y-99157988D02*
X127565713Y-99300845D01*
X127565713Y-99300845D02*
X128137141Y-99872274D01*
X128137141Y-99872274D02*
X127518094Y-99872274D01*
X126613332Y-98872274D02*
X127089522Y-98872274D01*
X127089522Y-98872274D02*
X127137141Y-99348464D01*
X127137141Y-99348464D02*
X127089522Y-99300845D01*
X127089522Y-99300845D02*
X126994284Y-99253226D01*
X126994284Y-99253226D02*
X126756189Y-99253226D01*
X126756189Y-99253226D02*
X126660951Y-99300845D01*
X126660951Y-99300845D02*
X126613332Y-99348464D01*
X126613332Y-99348464D02*
X126565713Y-99443702D01*
X126565713Y-99443702D02*
X126565713Y-99681797D01*
X126565713Y-99681797D02*
X126613332Y-99777035D01*
X126613332Y-99777035D02*
X126660951Y-99824655D01*
X126660951Y-99824655D02*
X126756189Y-99872274D01*
X126756189Y-99872274D02*
X126994284Y-99872274D01*
X126994284Y-99872274D02*
X127089522Y-99824655D01*
X127089522Y-99824655D02*
X127137141Y-99777035D01*
X146565715Y-100482218D02*
X146565715Y-101196503D01*
X146565715Y-101196503D02*
X146613334Y-101339360D01*
X146613334Y-101339360D02*
X146708572Y-101434599D01*
X146708572Y-101434599D02*
X146851429Y-101482218D01*
X146851429Y-101482218D02*
X146946667Y-101482218D01*
X145613334Y-101482218D02*
X146089524Y-101482218D01*
X146089524Y-101482218D02*
X146089524Y-100482218D01*
X144708572Y-101386979D02*
X144756191Y-101434599D01*
X144756191Y-101434599D02*
X144899048Y-101482218D01*
X144899048Y-101482218D02*
X144994286Y-101482218D01*
X144994286Y-101482218D02*
X145137143Y-101434599D01*
X145137143Y-101434599D02*
X145232381Y-101339360D01*
X145232381Y-101339360D02*
X145280000Y-101244122D01*
X145280000Y-101244122D02*
X145327619Y-101053646D01*
X145327619Y-101053646D02*
X145327619Y-100910789D01*
X145327619Y-100910789D02*
X145280000Y-100720313D01*
X145280000Y-100720313D02*
X145232381Y-100625075D01*
X145232381Y-100625075D02*
X145137143Y-100529837D01*
X145137143Y-100529837D02*
X144994286Y-100482218D01*
X144994286Y-100482218D02*
X144899048Y-100482218D01*
X144899048Y-100482218D02*
X144756191Y-100529837D01*
X144756191Y-100529837D02*
X144708572Y-100577456D01*
X143327619Y-100482218D02*
X143137143Y-100482218D01*
X143137143Y-100482218D02*
X143041905Y-100529837D01*
X143041905Y-100529837D02*
X142946667Y-100625075D01*
X142946667Y-100625075D02*
X142899048Y-100815551D01*
X142899048Y-100815551D02*
X142899048Y-101148884D01*
X142899048Y-101148884D02*
X142946667Y-101339360D01*
X142946667Y-101339360D02*
X143041905Y-101434599D01*
X143041905Y-101434599D02*
X143137143Y-101482218D01*
X143137143Y-101482218D02*
X143327619Y-101482218D01*
X143327619Y-101482218D02*
X143422857Y-101434599D01*
X143422857Y-101434599D02*
X143518095Y-101339360D01*
X143518095Y-101339360D02*
X143565714Y-101148884D01*
X143565714Y-101148884D02*
X143565714Y-100815551D01*
X143565714Y-100815551D02*
X143518095Y-100625075D01*
X143518095Y-100625075D02*
X143422857Y-100529837D01*
X143422857Y-100529837D02*
X143327619Y-100482218D01*
X142470476Y-101482218D02*
X142470476Y-100815551D01*
X142470476Y-101006027D02*
X142422857Y-100910789D01*
X142422857Y-100910789D02*
X142375238Y-100863170D01*
X142375238Y-100863170D02*
X142280000Y-100815551D01*
X142280000Y-100815551D02*
X142184762Y-100815551D01*
X141422857Y-101482218D02*
X141422857Y-100482218D01*
X141422857Y-101434599D02*
X141518095Y-101482218D01*
X141518095Y-101482218D02*
X141708571Y-101482218D01*
X141708571Y-101482218D02*
X141803809Y-101434599D01*
X141803809Y-101434599D02*
X141851428Y-101386979D01*
X141851428Y-101386979D02*
X141899047Y-101291741D01*
X141899047Y-101291741D02*
X141899047Y-101006027D01*
X141899047Y-101006027D02*
X141851428Y-100910789D01*
X141851428Y-100910789D02*
X141803809Y-100863170D01*
X141803809Y-100863170D02*
X141708571Y-100815551D01*
X141708571Y-100815551D02*
X141518095Y-100815551D01*
X141518095Y-100815551D02*
X141422857Y-100863170D01*
X140565714Y-101434599D02*
X140660952Y-101482218D01*
X140660952Y-101482218D02*
X140851428Y-101482218D01*
X140851428Y-101482218D02*
X140946666Y-101434599D01*
X140946666Y-101434599D02*
X140994285Y-101339360D01*
X140994285Y-101339360D02*
X140994285Y-100958408D01*
X140994285Y-100958408D02*
X140946666Y-100863170D01*
X140946666Y-100863170D02*
X140851428Y-100815551D01*
X140851428Y-100815551D02*
X140660952Y-100815551D01*
X140660952Y-100815551D02*
X140565714Y-100863170D01*
X140565714Y-100863170D02*
X140518095Y-100958408D01*
X140518095Y-100958408D02*
X140518095Y-101053646D01*
X140518095Y-101053646D02*
X140994285Y-101148884D01*
X140089523Y-101482218D02*
X140089523Y-100815551D01*
X140089523Y-101006027D02*
X140041904Y-100910789D01*
X140041904Y-100910789D02*
X139994285Y-100863170D01*
X139994285Y-100863170D02*
X139899047Y-100815551D01*
X139899047Y-100815551D02*
X139803809Y-100815551D01*
X138708570Y-101482218D02*
X138708570Y-100482218D01*
X138708570Y-100482218D02*
X138137142Y-101482218D01*
X138137142Y-101482218D02*
X138137142Y-100482218D01*
X137518094Y-101482218D02*
X137613332Y-101434599D01*
X137613332Y-101434599D02*
X137660951Y-101386979D01*
X137660951Y-101386979D02*
X137708570Y-101291741D01*
X137708570Y-101291741D02*
X137708570Y-101006027D01*
X137708570Y-101006027D02*
X137660951Y-100910789D01*
X137660951Y-100910789D02*
X137613332Y-100863170D01*
X137613332Y-100863170D02*
X137518094Y-100815551D01*
X137518094Y-100815551D02*
X137375237Y-100815551D01*
X137375237Y-100815551D02*
X137279999Y-100863170D01*
X137279999Y-100863170D02*
X137232380Y-100910789D01*
X137232380Y-100910789D02*
X137184761Y-101006027D01*
X137184761Y-101006027D02*
X137184761Y-101291741D01*
X137184761Y-101291741D02*
X137232380Y-101386979D01*
X137232380Y-101386979D02*
X137279999Y-101434599D01*
X137279999Y-101434599D02*
X137375237Y-101482218D01*
X137375237Y-101482218D02*
X137518094Y-101482218D01*
X136756189Y-101386979D02*
X136708570Y-101434599D01*
X136708570Y-101434599D02*
X136756189Y-101482218D01*
X136756189Y-101482218D02*
X136803808Y-101434599D01*
X136803808Y-101434599D02*
X136756189Y-101386979D01*
X136756189Y-101386979D02*
X136756189Y-101482218D01*
X135232380Y-100482218D02*
X135232380Y-101196503D01*
X135232380Y-101196503D02*
X135279999Y-101339360D01*
X135279999Y-101339360D02*
X135375237Y-101434599D01*
X135375237Y-101434599D02*
X135518094Y-101482218D01*
X135518094Y-101482218D02*
X135613332Y-101482218D01*
X134279999Y-101482218D02*
X134756189Y-101482218D01*
X134756189Y-101482218D02*
X134756189Y-100482218D01*
X133375237Y-101386979D02*
X133422856Y-101434599D01*
X133422856Y-101434599D02*
X133565713Y-101482218D01*
X133565713Y-101482218D02*
X133660951Y-101482218D01*
X133660951Y-101482218D02*
X133803808Y-101434599D01*
X133803808Y-101434599D02*
X133899046Y-101339360D01*
X133899046Y-101339360D02*
X133946665Y-101244122D01*
X133946665Y-101244122D02*
X133994284Y-101053646D01*
X133994284Y-101053646D02*
X133994284Y-100910789D01*
X133994284Y-100910789D02*
X133946665Y-100720313D01*
X133946665Y-100720313D02*
X133899046Y-100625075D01*
X133899046Y-100625075D02*
X133803808Y-100529837D01*
X133803808Y-100529837D02*
X133660951Y-100482218D01*
X133660951Y-100482218D02*
X133565713Y-100482218D01*
X133565713Y-100482218D02*
X133422856Y-100529837D01*
X133422856Y-100529837D02*
X133375237Y-100577456D01*
X132660951Y-100482218D02*
X132660951Y-101196503D01*
X132660951Y-101196503D02*
X132708570Y-101339360D01*
X132708570Y-101339360D02*
X132803808Y-101434599D01*
X132803808Y-101434599D02*
X132946665Y-101482218D01*
X132946665Y-101482218D02*
X133041903Y-101482218D01*
X131708570Y-101482218D02*
X132184760Y-101482218D01*
X132184760Y-101482218D02*
X132184760Y-100482218D01*
X130803808Y-101386979D02*
X130851427Y-101434599D01*
X130851427Y-101434599D02*
X130994284Y-101482218D01*
X130994284Y-101482218D02*
X131089522Y-101482218D01*
X131089522Y-101482218D02*
X131232379Y-101434599D01*
X131232379Y-101434599D02*
X131327617Y-101339360D01*
X131327617Y-101339360D02*
X131375236Y-101244122D01*
X131375236Y-101244122D02*
X131422855Y-101053646D01*
X131422855Y-101053646D02*
X131422855Y-100910789D01*
X131422855Y-100910789D02*
X131375236Y-100720313D01*
X131375236Y-100720313D02*
X131327617Y-100625075D01*
X131327617Y-100625075D02*
X131232379Y-100529837D01*
X131232379Y-100529837D02*
X131089522Y-100482218D01*
X131089522Y-100482218D02*
X130994284Y-100482218D01*
X130994284Y-100482218D02*
X130851427Y-100529837D01*
X130851427Y-100529837D02*
X130803808Y-100577456D01*
X130089522Y-100482218D02*
X130089522Y-101196503D01*
X130089522Y-101196503D02*
X130137141Y-101339360D01*
X130137141Y-101339360D02*
X130232379Y-101434599D01*
X130232379Y-101434599D02*
X130375236Y-101482218D01*
X130375236Y-101482218D02*
X130470474Y-101482218D01*
X129137141Y-101482218D02*
X129613331Y-101482218D01*
X129613331Y-101482218D02*
X129613331Y-100482218D01*
X128232379Y-101386979D02*
X128279998Y-101434599D01*
X128279998Y-101434599D02*
X128422855Y-101482218D01*
X128422855Y-101482218D02*
X128518093Y-101482218D01*
X128518093Y-101482218D02*
X128660950Y-101434599D01*
X128660950Y-101434599D02*
X128756188Y-101339360D01*
X128756188Y-101339360D02*
X128803807Y-101244122D01*
X128803807Y-101244122D02*
X128851426Y-101053646D01*
X128851426Y-101053646D02*
X128851426Y-100910789D01*
X128851426Y-100910789D02*
X128803807Y-100720313D01*
X128803807Y-100720313D02*
X128756188Y-100625075D01*
X128756188Y-100625075D02*
X128660950Y-100529837D01*
X128660950Y-100529837D02*
X128518093Y-100482218D01*
X128518093Y-100482218D02*
X128422855Y-100482218D01*
X128422855Y-100482218D02*
X128279998Y-100529837D01*
X128279998Y-100529837D02*
X128232379Y-100577456D01*
X127518093Y-100482218D02*
X127518093Y-101196503D01*
X127518093Y-101196503D02*
X127565712Y-101339360D01*
X127565712Y-101339360D02*
X127660950Y-101434599D01*
X127660950Y-101434599D02*
X127803807Y-101482218D01*
X127803807Y-101482218D02*
X127899045Y-101482218D01*
X126565712Y-101482218D02*
X127041902Y-101482218D01*
X127041902Y-101482218D02*
X127041902Y-100482218D01*
X125660950Y-101386979D02*
X125708569Y-101434599D01*
X125708569Y-101434599D02*
X125851426Y-101482218D01*
X125851426Y-101482218D02*
X125946664Y-101482218D01*
X125946664Y-101482218D02*
X126089521Y-101434599D01*
X126089521Y-101434599D02*
X126184759Y-101339360D01*
X126184759Y-101339360D02*
X126232378Y-101244122D01*
X126232378Y-101244122D02*
X126279997Y-101053646D01*
X126279997Y-101053646D02*
X126279997Y-100910789D01*
X126279997Y-100910789D02*
X126232378Y-100720313D01*
X126232378Y-100720313D02*
X126184759Y-100625075D01*
X126184759Y-100625075D02*
X126089521Y-100529837D01*
X126089521Y-100529837D02*
X125946664Y-100482218D01*
X125946664Y-100482218D02*
X125851426Y-100482218D01*
X125851426Y-100482218D02*
X125708569Y-100529837D01*
X125708569Y-100529837D02*
X125660950Y-100577456D01*
X138970475Y-103092162D02*
X138970475Y-102425495D01*
X138970475Y-102615971D02*
X138922856Y-102520733D01*
X138922856Y-102520733D02*
X138875237Y-102473114D01*
X138875237Y-102473114D02*
X138779999Y-102425495D01*
X138779999Y-102425495D02*
X138684761Y-102425495D01*
X137970475Y-103044543D02*
X138065713Y-103092162D01*
X138065713Y-103092162D02*
X138256189Y-103092162D01*
X138256189Y-103092162D02*
X138351427Y-103044543D01*
X138351427Y-103044543D02*
X138399046Y-102949304D01*
X138399046Y-102949304D02*
X138399046Y-102568352D01*
X138399046Y-102568352D02*
X138351427Y-102473114D01*
X138351427Y-102473114D02*
X138256189Y-102425495D01*
X138256189Y-102425495D02*
X138065713Y-102425495D01*
X138065713Y-102425495D02*
X137970475Y-102473114D01*
X137970475Y-102473114D02*
X137922856Y-102568352D01*
X137922856Y-102568352D02*
X137922856Y-102663590D01*
X137922856Y-102663590D02*
X138399046Y-102758828D01*
X137589522Y-102425495D02*
X137351427Y-103092162D01*
X137351427Y-103092162D02*
X137113332Y-102425495D01*
X136732379Y-102996923D02*
X136684760Y-103044543D01*
X136684760Y-103044543D02*
X136732379Y-103092162D01*
X136732379Y-103092162D02*
X136779998Y-103044543D01*
X136779998Y-103044543D02*
X136732379Y-102996923D01*
X136732379Y-102996923D02*
X136732379Y-103092162D01*
X134970475Y-103092162D02*
X135541903Y-103092162D01*
X135256189Y-103092162D02*
X135256189Y-102092162D01*
X135256189Y-102092162D02*
X135351427Y-102235019D01*
X135351427Y-102235019D02*
X135446665Y-102330257D01*
X135446665Y-102330257D02*
X135541903Y-102377876D01*
X134541903Y-102996923D02*
X134494284Y-103044543D01*
X134494284Y-103044543D02*
X134541903Y-103092162D01*
X134541903Y-103092162D02*
X134589522Y-103044543D01*
X134589522Y-103044543D02*
X134541903Y-102996923D01*
X134541903Y-102996923D02*
X134541903Y-103092162D01*
X133875237Y-102092162D02*
X133779999Y-102092162D01*
X133779999Y-102092162D02*
X133684761Y-102139781D01*
X133684761Y-102139781D02*
X133637142Y-102187400D01*
X133637142Y-102187400D02*
X133589523Y-102282638D01*
X133589523Y-102282638D02*
X133541904Y-102473114D01*
X133541904Y-102473114D02*
X133541904Y-102711209D01*
X133541904Y-102711209D02*
X133589523Y-102901685D01*
X133589523Y-102901685D02*
X133637142Y-102996923D01*
X133637142Y-102996923D02*
X133684761Y-103044543D01*
X133684761Y-103044543D02*
X133779999Y-103092162D01*
X133779999Y-103092162D02*
X133875237Y-103092162D01*
X133875237Y-103092162D02*
X133970475Y-103044543D01*
X133970475Y-103044543D02*
X134018094Y-102996923D01*
X134018094Y-102996923D02*
X134065713Y-102901685D01*
X134065713Y-102901685D02*
X134113332Y-102711209D01*
X134113332Y-102711209D02*
X134113332Y-102473114D01*
X134113332Y-102473114D02*
X134065713Y-102282638D01*
X134065713Y-102282638D02*
X134018094Y-102187400D01*
X134018094Y-102187400D02*
X133970475Y-102139781D01*
X133970475Y-102139781D02*
X133875237Y-102092162D01*
X144708572Y-110432218D02*
X144708572Y-109432218D01*
X144708572Y-109432218D02*
X144470477Y-109432218D01*
X144470477Y-109432218D02*
X144327620Y-109479837D01*
X144327620Y-109479837D02*
X144232382Y-109575075D01*
X144232382Y-109575075D02*
X144184763Y-109670313D01*
X144184763Y-109670313D02*
X144137144Y-109860789D01*
X144137144Y-109860789D02*
X144137144Y-110003646D01*
X144137144Y-110003646D02*
X144184763Y-110194122D01*
X144184763Y-110194122D02*
X144232382Y-110289360D01*
X144232382Y-110289360D02*
X144327620Y-110384599D01*
X144327620Y-110384599D02*
X144470477Y-110432218D01*
X144470477Y-110432218D02*
X144708572Y-110432218D01*
X143327620Y-110384599D02*
X143422858Y-110432218D01*
X143422858Y-110432218D02*
X143613334Y-110432218D01*
X143613334Y-110432218D02*
X143708572Y-110384599D01*
X143708572Y-110384599D02*
X143756191Y-110289360D01*
X143756191Y-110289360D02*
X143756191Y-109908408D01*
X143756191Y-109908408D02*
X143708572Y-109813170D01*
X143708572Y-109813170D02*
X143613334Y-109765551D01*
X143613334Y-109765551D02*
X143422858Y-109765551D01*
X143422858Y-109765551D02*
X143327620Y-109813170D01*
X143327620Y-109813170D02*
X143280001Y-109908408D01*
X143280001Y-109908408D02*
X143280001Y-110003646D01*
X143280001Y-110003646D02*
X143756191Y-110098884D01*
X142899048Y-110384599D02*
X142803810Y-110432218D01*
X142803810Y-110432218D02*
X142613334Y-110432218D01*
X142613334Y-110432218D02*
X142518096Y-110384599D01*
X142518096Y-110384599D02*
X142470477Y-110289360D01*
X142470477Y-110289360D02*
X142470477Y-110241741D01*
X142470477Y-110241741D02*
X142518096Y-110146503D01*
X142518096Y-110146503D02*
X142613334Y-110098884D01*
X142613334Y-110098884D02*
X142756191Y-110098884D01*
X142756191Y-110098884D02*
X142851429Y-110051265D01*
X142851429Y-110051265D02*
X142899048Y-109956027D01*
X142899048Y-109956027D02*
X142899048Y-109908408D01*
X142899048Y-109908408D02*
X142851429Y-109813170D01*
X142851429Y-109813170D02*
X142756191Y-109765551D01*
X142756191Y-109765551D02*
X142613334Y-109765551D01*
X142613334Y-109765551D02*
X142518096Y-109813170D01*
X142041905Y-110432218D02*
X142041905Y-109765551D01*
X142041905Y-109432218D02*
X142089524Y-109479837D01*
X142089524Y-109479837D02*
X142041905Y-109527456D01*
X142041905Y-109527456D02*
X141994286Y-109479837D01*
X141994286Y-109479837D02*
X142041905Y-109432218D01*
X142041905Y-109432218D02*
X142041905Y-109527456D01*
X141137144Y-109765551D02*
X141137144Y-110575075D01*
X141137144Y-110575075D02*
X141184763Y-110670313D01*
X141184763Y-110670313D02*
X141232382Y-110717932D01*
X141232382Y-110717932D02*
X141327620Y-110765551D01*
X141327620Y-110765551D02*
X141470477Y-110765551D01*
X141470477Y-110765551D02*
X141565715Y-110717932D01*
X141137144Y-110384599D02*
X141232382Y-110432218D01*
X141232382Y-110432218D02*
X141422858Y-110432218D01*
X141422858Y-110432218D02*
X141518096Y-110384599D01*
X141518096Y-110384599D02*
X141565715Y-110336979D01*
X141565715Y-110336979D02*
X141613334Y-110241741D01*
X141613334Y-110241741D02*
X141613334Y-109956027D01*
X141613334Y-109956027D02*
X141565715Y-109860789D01*
X141565715Y-109860789D02*
X141518096Y-109813170D01*
X141518096Y-109813170D02*
X141422858Y-109765551D01*
X141422858Y-109765551D02*
X141232382Y-109765551D01*
X141232382Y-109765551D02*
X141137144Y-109813170D01*
X140660953Y-109765551D02*
X140660953Y-110432218D01*
X140660953Y-109860789D02*
X140613334Y-109813170D01*
X140613334Y-109813170D02*
X140518096Y-109765551D01*
X140518096Y-109765551D02*
X140375239Y-109765551D01*
X140375239Y-109765551D02*
X140280001Y-109813170D01*
X140280001Y-109813170D02*
X140232382Y-109908408D01*
X140232382Y-109908408D02*
X140232382Y-110432218D01*
X138660953Y-109908408D02*
X138518096Y-109956027D01*
X138518096Y-109956027D02*
X138470477Y-110003646D01*
X138470477Y-110003646D02*
X138422858Y-110098884D01*
X138422858Y-110098884D02*
X138422858Y-110241741D01*
X138422858Y-110241741D02*
X138470477Y-110336979D01*
X138470477Y-110336979D02*
X138518096Y-110384599D01*
X138518096Y-110384599D02*
X138613334Y-110432218D01*
X138613334Y-110432218D02*
X138994286Y-110432218D01*
X138994286Y-110432218D02*
X138994286Y-109432218D01*
X138994286Y-109432218D02*
X138660953Y-109432218D01*
X138660953Y-109432218D02*
X138565715Y-109479837D01*
X138565715Y-109479837D02*
X138518096Y-109527456D01*
X138518096Y-109527456D02*
X138470477Y-109622694D01*
X138470477Y-109622694D02*
X138470477Y-109717932D01*
X138470477Y-109717932D02*
X138518096Y-109813170D01*
X138518096Y-109813170D02*
X138565715Y-109860789D01*
X138565715Y-109860789D02*
X138660953Y-109908408D01*
X138660953Y-109908408D02*
X138994286Y-109908408D01*
X138089524Y-109765551D02*
X137851429Y-110432218D01*
X137613334Y-109765551D02*
X137851429Y-110432218D01*
X137851429Y-110432218D02*
X137946667Y-110670313D01*
X137946667Y-110670313D02*
X137994286Y-110717932D01*
X137994286Y-110717932D02*
X138089524Y-110765551D01*
X136470476Y-109908408D02*
X136137143Y-109908408D01*
X135994286Y-110432218D02*
X136470476Y-110432218D01*
X136470476Y-110432218D02*
X136470476Y-109432218D01*
X136470476Y-109432218D02*
X135994286Y-109432218D01*
X135137143Y-109765551D02*
X135137143Y-110432218D01*
X135565714Y-109765551D02*
X135565714Y-110289360D01*
X135565714Y-110289360D02*
X135518095Y-110384599D01*
X135518095Y-110384599D02*
X135422857Y-110432218D01*
X135422857Y-110432218D02*
X135280000Y-110432218D01*
X135280000Y-110432218D02*
X135184762Y-110384599D01*
X135184762Y-110384599D02*
X135137143Y-110336979D01*
X134708571Y-110384599D02*
X134613333Y-110432218D01*
X134613333Y-110432218D02*
X134422857Y-110432218D01*
X134422857Y-110432218D02*
X134327619Y-110384599D01*
X134327619Y-110384599D02*
X134280000Y-110289360D01*
X134280000Y-110289360D02*
X134280000Y-110241741D01*
X134280000Y-110241741D02*
X134327619Y-110146503D01*
X134327619Y-110146503D02*
X134422857Y-110098884D01*
X134422857Y-110098884D02*
X134565714Y-110098884D01*
X134565714Y-110098884D02*
X134660952Y-110051265D01*
X134660952Y-110051265D02*
X134708571Y-109956027D01*
X134708571Y-109956027D02*
X134708571Y-109908408D01*
X134708571Y-109908408D02*
X134660952Y-109813170D01*
X134660952Y-109813170D02*
X134565714Y-109765551D01*
X134565714Y-109765551D02*
X134422857Y-109765551D01*
X134422857Y-109765551D02*
X134327619Y-109813170D01*
X133994285Y-109765551D02*
X133613333Y-109765551D01*
X133851428Y-109432218D02*
X133851428Y-110289360D01*
X133851428Y-110289360D02*
X133803809Y-110384599D01*
X133803809Y-110384599D02*
X133708571Y-110432218D01*
X133708571Y-110432218D02*
X133613333Y-110432218D01*
X133137142Y-110432218D02*
X133232380Y-110384599D01*
X133232380Y-110384599D02*
X133279999Y-110336979D01*
X133279999Y-110336979D02*
X133327618Y-110241741D01*
X133327618Y-110241741D02*
X133327618Y-109956027D01*
X133327618Y-109956027D02*
X133279999Y-109860789D01*
X133279999Y-109860789D02*
X133232380Y-109813170D01*
X133232380Y-109813170D02*
X133137142Y-109765551D01*
X133137142Y-109765551D02*
X132994285Y-109765551D01*
X132994285Y-109765551D02*
X132899047Y-109813170D01*
X132899047Y-109813170D02*
X132851428Y-109860789D01*
X132851428Y-109860789D02*
X132803809Y-109956027D01*
X132803809Y-109956027D02*
X132803809Y-110241741D01*
X132803809Y-110241741D02*
X132851428Y-110336979D01*
X132851428Y-110336979D02*
X132899047Y-110384599D01*
X132899047Y-110384599D02*
X132994285Y-110432218D01*
X132994285Y-110432218D02*
X133137142Y-110432218D01*
X132375237Y-109765551D02*
X132375237Y-110432218D01*
X132375237Y-109860789D02*
X132327618Y-109813170D01*
X132327618Y-109813170D02*
X132232380Y-109765551D01*
X132232380Y-109765551D02*
X132089523Y-109765551D01*
X132089523Y-109765551D02*
X131994285Y-109813170D01*
X131994285Y-109813170D02*
X131946666Y-109908408D01*
X131946666Y-109908408D02*
X131946666Y-110432218D01*
X130851427Y-109432218D02*
X130279999Y-109432218D01*
X130565713Y-110432218D02*
X130565713Y-109432218D01*
X129518094Y-110432218D02*
X129518094Y-109908408D01*
X129518094Y-109908408D02*
X129565713Y-109813170D01*
X129565713Y-109813170D02*
X129660951Y-109765551D01*
X129660951Y-109765551D02*
X129851427Y-109765551D01*
X129851427Y-109765551D02*
X129946665Y-109813170D01*
X129518094Y-110384599D02*
X129613332Y-110432218D01*
X129613332Y-110432218D02*
X129851427Y-110432218D01*
X129851427Y-110432218D02*
X129946665Y-110384599D01*
X129946665Y-110384599D02*
X129994284Y-110289360D01*
X129994284Y-110289360D02*
X129994284Y-110194122D01*
X129994284Y-110194122D02*
X129946665Y-110098884D01*
X129946665Y-110098884D02*
X129851427Y-110051265D01*
X129851427Y-110051265D02*
X129613332Y-110051265D01*
X129613332Y-110051265D02*
X129518094Y-110003646D01*
X129041903Y-109765551D02*
X129041903Y-110432218D01*
X129041903Y-109860789D02*
X128994284Y-109813170D01*
X128994284Y-109813170D02*
X128899046Y-109765551D01*
X128899046Y-109765551D02*
X128756189Y-109765551D01*
X128756189Y-109765551D02*
X128660951Y-109813170D01*
X128660951Y-109813170D02*
X128613332Y-109908408D01*
X128613332Y-109908408D02*
X128613332Y-110432218D01*
D11*
%TO.C,PS2*%
X137202400Y-83382399D02*
X137202400Y-86514203D01*
X137202400Y-88473795D02*
X137202400Y-88800203D01*
X137202400Y-90759795D02*
X137202400Y-91086203D01*
X137202400Y-93045795D02*
X137202400Y-96177599D01*
X137202400Y-96177599D02*
X138048204Y-96177599D01*
X138048204Y-83382399D02*
X137202400Y-83382399D01*
X140007796Y-83382399D02*
X140334204Y-83382399D01*
X140007796Y-96177599D02*
X140334204Y-96177599D01*
X142293796Y-83382399D02*
X142620204Y-83382399D01*
X142620204Y-96177599D02*
X142293796Y-96177599D01*
X144579796Y-96177599D02*
X147191202Y-96177599D01*
X147192204Y-83382399D02*
X144579796Y-83382399D01*
X149152798Y-96177599D02*
X149997600Y-96177599D01*
X149997600Y-83382399D02*
X149151796Y-83382399D01*
X149997600Y-86514203D02*
X149997600Y-83382399D01*
X149997600Y-88808292D02*
X149997600Y-88473795D01*
X149997600Y-91081465D02*
X149997600Y-90751706D01*
X149997600Y-96177599D02*
X149997600Y-93050533D01*
%TO.C,PS1*%
X122562400Y-83382399D02*
X122562400Y-86514203D01*
X122562400Y-88473795D02*
X122562400Y-88800203D01*
X122562400Y-90759795D02*
X122562400Y-91086203D01*
X122562400Y-93045795D02*
X122562400Y-96177599D01*
X122562400Y-96177599D02*
X123408204Y-96177599D01*
X123408204Y-83382399D02*
X122562400Y-83382399D01*
X125367796Y-83382399D02*
X125694204Y-83382399D01*
X125367796Y-96177599D02*
X125694204Y-96177599D01*
X127653796Y-83382399D02*
X127980204Y-83382399D01*
X127980204Y-96177599D02*
X127653796Y-96177599D01*
X129939796Y-96177599D02*
X132551202Y-96177599D01*
X132552204Y-83382399D02*
X129939796Y-83382399D01*
X134512798Y-96177599D02*
X135357600Y-96177599D01*
X135357600Y-83382399D02*
X134511796Y-83382399D01*
X135357600Y-86514203D02*
X135357600Y-83382399D01*
X135357600Y-88808292D02*
X135357600Y-88473795D01*
X135357600Y-91081465D02*
X135357600Y-90751706D01*
X135357600Y-96177599D02*
X135357600Y-93050533D01*
%TD*%
%LPC*%
D12*
%TO.C,J1*%
X127375000Y-76459999D03*
D13*
X129915000Y-76459999D03*
X132455000Y-76459999D03*
X134995000Y-76459999D03*
X137535000Y-76459999D03*
X140075000Y-76459999D03*
X142615000Y-76459999D03*
X145155000Y-76459999D03*
%TD*%
D12*
%TO.C,J2*%
X127375000Y-107099999D03*
D13*
X129915000Y-107099999D03*
X132455000Y-107099999D03*
X134995000Y-107099999D03*
X137535000Y-107099999D03*
X140075000Y-107099999D03*
X142615000Y-107099999D03*
X145155000Y-107099999D03*
%TD*%
D14*
%TO.C,PS2*%
X143600000Y-83679999D03*
X148180000Y-83679999D03*
X149700000Y-87489999D03*
X149700000Y-89779999D03*
X149700000Y-92069999D03*
X148180000Y-95879999D03*
X143600000Y-95879999D03*
X139020000Y-95879999D03*
X137500000Y-89779999D03*
X137500000Y-87489999D03*
X139020000Y-83679999D03*
X141310000Y-83679999D03*
X141310000Y-95879999D03*
X137500000Y-92069999D03*
%TD*%
%TO.C,PS1*%
X128960000Y-83679999D03*
X133540000Y-83679999D03*
X135060000Y-87489999D03*
X135060000Y-89779999D03*
X135060000Y-92069999D03*
X133540000Y-95879999D03*
X128960000Y-95879999D03*
X124380000Y-95879999D03*
X122860000Y-89779999D03*
X122860000Y-87489999D03*
X124380000Y-83679999D03*
X126670000Y-83679999D03*
X126670000Y-95879999D03*
X122860000Y-92069999D03*
%TD*%
%LPD*%
M02*
