%TF.GenerationSoftware,KiCad,Pcbnew,9.0.6*%
%TF.CreationDate,2026-01-24T13:04:40+08:00*%
%TF.ProjectId,buck,6275636b-2e6b-4696-9361-645f70636258,rev?*%
%TF.SameCoordinates,Original*%
%TF.FileFunction,Soldermask,Bot*%
%TF.FilePolarity,Negative*%
%FSLAX46Y46*%
G04 Gerber Fmt 4.6, Leading zero omitted, Abs format (unit mm)*
G04 Created by KiCad (PCBNEW 9.0.6) date 2026-01-24 13:04:40*
%MOMM*%
%LPD*%
G01*
G04 APERTURE LIST*
%ADD10R,1.700000X1.700000*%
%ADD11O,1.700000X1.700000*%
%ADD12C,1.600000*%
G04 APERTURE END LIST*
D10*
%TO.C,J1*%
X127375000Y-76459999D03*
D11*
X129915000Y-76459999D03*
X132455000Y-76459999D03*
X134995000Y-76459999D03*
X137535000Y-76459999D03*
X140075000Y-76459999D03*
X142615000Y-76459999D03*
X145155000Y-76459999D03*
%TD*%
D10*
%TO.C,J2*%
X127375000Y-107099999D03*
D11*
X129915000Y-107099999D03*
X132455000Y-107099999D03*
X134995000Y-107099999D03*
X137535000Y-107099999D03*
X140075000Y-107099999D03*
X142615000Y-107099999D03*
X145155000Y-107099999D03*
%TD*%
D12*
%TO.C,PS2*%
X143600000Y-83679999D03*
X148180000Y-83679999D03*
X149700000Y-87489999D03*
X149700000Y-89779999D03*
X149700000Y-92069999D03*
X148180000Y-95879999D03*
X143600000Y-95879999D03*
X139020000Y-95879999D03*
X137500000Y-89779999D03*
X137500000Y-87489999D03*
X139020000Y-83679999D03*
X141310000Y-83679999D03*
X141310000Y-95879999D03*
X137500000Y-92069999D03*
%TD*%
%TO.C,PS1*%
X128960000Y-83679999D03*
X133540000Y-83679999D03*
X135060000Y-87489999D03*
X135060000Y-89779999D03*
X135060000Y-92069999D03*
X133540000Y-95879999D03*
X128960000Y-95879999D03*
X124380000Y-95879999D03*
X122860000Y-89779999D03*
X122860000Y-87489999D03*
X124380000Y-83679999D03*
X126670000Y-83679999D03*
X126670000Y-95879999D03*
X122860000Y-92069999D03*
%TD*%
M02*
