M48
; DRILL file {KiCad 9.0.5} date 2025-12-04T12:18:22+0800
; FORMAT={-:-/ absolute / inch / decimal}
; #@! TF.CreationDate,2025-12-04T12:18:22+08:00
; #@! TF.GenerationSoftware,Kicad,Pcbnew,9.0.5
; #@! TF.FileFunction,Plated,1,2,PTH
FMAT,2
INCH
; #@! TA.AperFunction,Plated,PTH,ViaDrill
T1C0.0118
; #@! TA.AperFunction,Plated,PTH,ComponentDrill
T2C0.0394
%
G90
G05
T1
X4.9894Y-3.2098
X5.1075Y-3.2098
X5.5514Y-3.2197
X5.6695Y-3.2197
T2
X4.837Y-3.4445
X4.837Y-3.5346
X4.837Y-3.6248
X4.8969Y-3.2945
X4.8969Y-3.7748
X4.987Y-3.2945
X4.987Y-3.7748
X5.0148Y-3.0102
X5.0148Y-4.2165
X5.0772Y-3.2945
X5.0772Y-3.7748
X5.1148Y-3.0102
X5.1148Y-4.2165
X5.2148Y-3.0102
X5.2148Y-4.2165
X5.2575Y-3.2945
X5.2575Y-3.7748
X5.3148Y-3.0102
X5.3148Y-4.2165
X5.3173Y-3.4445
X5.3173Y-3.5346
X5.3173Y-3.6248
X5.4134Y-3.4445
X5.4134Y-3.5346
X5.4134Y-3.6248
X5.4148Y-3.0102
X5.4148Y-4.2165
X5.4732Y-3.2945
X5.4732Y-3.7748
X5.5148Y-3.0102
X5.5148Y-4.2165
X5.5634Y-3.2945
X5.5634Y-3.7748
X5.6148Y-3.0102
X5.6148Y-4.2165
X5.6535Y-3.2945
X5.6535Y-3.7748
X5.7148Y-3.0102
X5.7148Y-4.2165
X5.8339Y-3.2945
X5.8339Y-3.7748
X5.8937Y-3.4445
X5.8937Y-3.5346
X5.8937Y-3.6248
M30
