%TF.GenerationSoftware,KiCad,Pcbnew,9.0.5*%
%TF.CreationDate,2025-12-02T21:07:59+08:00*%
%TF.ProjectId,buck,6275636b-2e6b-4696-9361-645f70636258,rev?*%
%TF.SameCoordinates,Original*%
%TF.FileFunction,Legend,Bot*%
%TF.FilePolarity,Positive*%
%FSLAX46Y46*%
G04 Gerber Fmt 4.6, Leading zero omitted, Abs format (unit mm)*
G04 Created by KiCad (PCBNEW 9.0.5) date 2025-12-02 21:07:59*
%MOMM*%
%LPD*%
G01*
G04 APERTURE LIST*
%ADD10C,0.200000*%
%ADD11R,1.700000X1.700000*%
%ADD12O,1.700000X1.700000*%
G04 APERTURE END LIST*
D10*
X145518095Y-90622274D02*
X145518095Y-89622274D01*
X145518095Y-90574655D02*
X145613333Y-90622274D01*
X145613333Y-90622274D02*
X145803809Y-90622274D01*
X145803809Y-90622274D02*
X145899047Y-90574655D01*
X145899047Y-90574655D02*
X145946666Y-90527035D01*
X145946666Y-90527035D02*
X145994285Y-90431797D01*
X145994285Y-90431797D02*
X145994285Y-90146083D01*
X145994285Y-90146083D02*
X145946666Y-90050845D01*
X145946666Y-90050845D02*
X145899047Y-90003226D01*
X145899047Y-90003226D02*
X145803809Y-89955607D01*
X145803809Y-89955607D02*
X145613333Y-89955607D01*
X145613333Y-89955607D02*
X145518095Y-90003226D01*
X144660952Y-90574655D02*
X144756190Y-90622274D01*
X144756190Y-90622274D02*
X144946666Y-90622274D01*
X144946666Y-90622274D02*
X145041904Y-90574655D01*
X145041904Y-90574655D02*
X145089523Y-90479416D01*
X145089523Y-90479416D02*
X145089523Y-90098464D01*
X145089523Y-90098464D02*
X145041904Y-90003226D01*
X145041904Y-90003226D02*
X144946666Y-89955607D01*
X144946666Y-89955607D02*
X144756190Y-89955607D01*
X144756190Y-89955607D02*
X144660952Y-90003226D01*
X144660952Y-90003226D02*
X144613333Y-90098464D01*
X144613333Y-90098464D02*
X144613333Y-90193702D01*
X144613333Y-90193702D02*
X145089523Y-90288940D01*
X144232380Y-90574655D02*
X144137142Y-90622274D01*
X144137142Y-90622274D02*
X143946666Y-90622274D01*
X143946666Y-90622274D02*
X143851428Y-90574655D01*
X143851428Y-90574655D02*
X143803809Y-90479416D01*
X143803809Y-90479416D02*
X143803809Y-90431797D01*
X143803809Y-90431797D02*
X143851428Y-90336559D01*
X143851428Y-90336559D02*
X143946666Y-90288940D01*
X143946666Y-90288940D02*
X144089523Y-90288940D01*
X144089523Y-90288940D02*
X144184761Y-90241321D01*
X144184761Y-90241321D02*
X144232380Y-90146083D01*
X144232380Y-90146083D02*
X144232380Y-90098464D01*
X144232380Y-90098464D02*
X144184761Y-90003226D01*
X144184761Y-90003226D02*
X144089523Y-89955607D01*
X144089523Y-89955607D02*
X143946666Y-89955607D01*
X143946666Y-89955607D02*
X143851428Y-90003226D01*
X143375237Y-90622274D02*
X143375237Y-89955607D01*
X143375237Y-89622274D02*
X143422856Y-89669893D01*
X143422856Y-89669893D02*
X143375237Y-89717512D01*
X143375237Y-89717512D02*
X143327618Y-89669893D01*
X143327618Y-89669893D02*
X143375237Y-89622274D01*
X143375237Y-89622274D02*
X143375237Y-89717512D01*
X142470476Y-89955607D02*
X142470476Y-90765131D01*
X142470476Y-90765131D02*
X142518095Y-90860369D01*
X142518095Y-90860369D02*
X142565714Y-90907988D01*
X142565714Y-90907988D02*
X142660952Y-90955607D01*
X142660952Y-90955607D02*
X142803809Y-90955607D01*
X142803809Y-90955607D02*
X142899047Y-90907988D01*
X142470476Y-90574655D02*
X142565714Y-90622274D01*
X142565714Y-90622274D02*
X142756190Y-90622274D01*
X142756190Y-90622274D02*
X142851428Y-90574655D01*
X142851428Y-90574655D02*
X142899047Y-90527035D01*
X142899047Y-90527035D02*
X142946666Y-90431797D01*
X142946666Y-90431797D02*
X142946666Y-90146083D01*
X142946666Y-90146083D02*
X142899047Y-90050845D01*
X142899047Y-90050845D02*
X142851428Y-90003226D01*
X142851428Y-90003226D02*
X142756190Y-89955607D01*
X142756190Y-89955607D02*
X142565714Y-89955607D01*
X142565714Y-89955607D02*
X142470476Y-90003226D01*
X141994285Y-89955607D02*
X141994285Y-90622274D01*
X141994285Y-90050845D02*
X141946666Y-90003226D01*
X141946666Y-90003226D02*
X141851428Y-89955607D01*
X141851428Y-89955607D02*
X141708571Y-89955607D01*
X141708571Y-89955607D02*
X141613333Y-90003226D01*
X141613333Y-90003226D02*
X141565714Y-90098464D01*
X141565714Y-90098464D02*
X141565714Y-90622274D01*
X140184761Y-90622274D02*
X140279999Y-90574655D01*
X140279999Y-90574655D02*
X140327618Y-90527035D01*
X140327618Y-90527035D02*
X140375237Y-90431797D01*
X140375237Y-90431797D02*
X140375237Y-90146083D01*
X140375237Y-90146083D02*
X140327618Y-90050845D01*
X140327618Y-90050845D02*
X140279999Y-90003226D01*
X140279999Y-90003226D02*
X140184761Y-89955607D01*
X140184761Y-89955607D02*
X140041904Y-89955607D01*
X140041904Y-89955607D02*
X139946666Y-90003226D01*
X139946666Y-90003226D02*
X139899047Y-90050845D01*
X139899047Y-90050845D02*
X139851428Y-90146083D01*
X139851428Y-90146083D02*
X139851428Y-90431797D01*
X139851428Y-90431797D02*
X139899047Y-90527035D01*
X139899047Y-90527035D02*
X139946666Y-90574655D01*
X139946666Y-90574655D02*
X140041904Y-90622274D01*
X140041904Y-90622274D02*
X140184761Y-90622274D01*
X139565713Y-89955607D02*
X139184761Y-89955607D01*
X139422856Y-90622274D02*
X139422856Y-89765131D01*
X139422856Y-89765131D02*
X139375237Y-89669893D01*
X139375237Y-89669893D02*
X139279999Y-89622274D01*
X139279999Y-89622274D02*
X139184761Y-89622274D01*
X138137141Y-89717512D02*
X138089522Y-89669893D01*
X138089522Y-89669893D02*
X137994284Y-89622274D01*
X137994284Y-89622274D02*
X137756189Y-89622274D01*
X137756189Y-89622274D02*
X137660951Y-89669893D01*
X137660951Y-89669893D02*
X137613332Y-89717512D01*
X137613332Y-89717512D02*
X137565713Y-89812750D01*
X137565713Y-89812750D02*
X137565713Y-89907988D01*
X137565713Y-89907988D02*
X137613332Y-90050845D01*
X137613332Y-90050845D02*
X138184760Y-90622274D01*
X138184760Y-90622274D02*
X137565713Y-90622274D01*
X137137141Y-90241321D02*
X136375237Y-90241321D01*
X135327618Y-90527035D02*
X135375237Y-90574655D01*
X135375237Y-90574655D02*
X135518094Y-90622274D01*
X135518094Y-90622274D02*
X135613332Y-90622274D01*
X135613332Y-90622274D02*
X135756189Y-90574655D01*
X135756189Y-90574655D02*
X135851427Y-90479416D01*
X135851427Y-90479416D02*
X135899046Y-90384178D01*
X135899046Y-90384178D02*
X135946665Y-90193702D01*
X135946665Y-90193702D02*
X135946665Y-90050845D01*
X135946665Y-90050845D02*
X135899046Y-89860369D01*
X135899046Y-89860369D02*
X135851427Y-89765131D01*
X135851427Y-89765131D02*
X135756189Y-89669893D01*
X135756189Y-89669893D02*
X135613332Y-89622274D01*
X135613332Y-89622274D02*
X135518094Y-89622274D01*
X135518094Y-89622274D02*
X135375237Y-89669893D01*
X135375237Y-89669893D02*
X135327618Y-89717512D01*
X134899046Y-90622274D02*
X134899046Y-89622274D01*
X134470475Y-90622274D02*
X134470475Y-90098464D01*
X134470475Y-90098464D02*
X134518094Y-90003226D01*
X134518094Y-90003226D02*
X134613332Y-89955607D01*
X134613332Y-89955607D02*
X134756189Y-89955607D01*
X134756189Y-89955607D02*
X134851427Y-90003226D01*
X134851427Y-90003226D02*
X134899046Y-90050845D01*
X133565713Y-90622274D02*
X133565713Y-90098464D01*
X133565713Y-90098464D02*
X133613332Y-90003226D01*
X133613332Y-90003226D02*
X133708570Y-89955607D01*
X133708570Y-89955607D02*
X133899046Y-89955607D01*
X133899046Y-89955607D02*
X133994284Y-90003226D01*
X133565713Y-90574655D02*
X133660951Y-90622274D01*
X133660951Y-90622274D02*
X133899046Y-90622274D01*
X133899046Y-90622274D02*
X133994284Y-90574655D01*
X133994284Y-90574655D02*
X134041903Y-90479416D01*
X134041903Y-90479416D02*
X134041903Y-90384178D01*
X134041903Y-90384178D02*
X133994284Y-90288940D01*
X133994284Y-90288940D02*
X133899046Y-90241321D01*
X133899046Y-90241321D02*
X133660951Y-90241321D01*
X133660951Y-90241321D02*
X133565713Y-90193702D01*
X133089522Y-90622274D02*
X133089522Y-89955607D01*
X133089522Y-89622274D02*
X133137141Y-89669893D01*
X133137141Y-89669893D02*
X133089522Y-89717512D01*
X133089522Y-89717512D02*
X133041903Y-89669893D01*
X133041903Y-89669893D02*
X133089522Y-89622274D01*
X133089522Y-89622274D02*
X133089522Y-89717512D01*
X132613332Y-90622274D02*
X132613332Y-89955607D01*
X132613332Y-90146083D02*
X132565713Y-90050845D01*
X132565713Y-90050845D02*
X132518094Y-90003226D01*
X132518094Y-90003226D02*
X132422856Y-89955607D01*
X132422856Y-89955607D02*
X132327618Y-89955607D01*
X132041903Y-90574655D02*
X131946665Y-90622274D01*
X131946665Y-90622274D02*
X131756189Y-90622274D01*
X131756189Y-90622274D02*
X131660951Y-90574655D01*
X131660951Y-90574655D02*
X131613332Y-90479416D01*
X131613332Y-90479416D02*
X131613332Y-90431797D01*
X131613332Y-90431797D02*
X131660951Y-90336559D01*
X131660951Y-90336559D02*
X131756189Y-90288940D01*
X131756189Y-90288940D02*
X131899046Y-90288940D01*
X131899046Y-90288940D02*
X131994284Y-90241321D01*
X131994284Y-90241321D02*
X132041903Y-90146083D01*
X132041903Y-90146083D02*
X132041903Y-90098464D01*
X132041903Y-90098464D02*
X131994284Y-90003226D01*
X131994284Y-90003226D02*
X131899046Y-89955607D01*
X131899046Y-89955607D02*
X131756189Y-89955607D01*
X131756189Y-89955607D02*
X131660951Y-90003226D01*
X131184760Y-90527035D02*
X131137141Y-90574655D01*
X131137141Y-90574655D02*
X131184760Y-90622274D01*
X131184760Y-90622274D02*
X131232379Y-90574655D01*
X131232379Y-90574655D02*
X131184760Y-90527035D01*
X131184760Y-90527035D02*
X131184760Y-90622274D01*
X129994284Y-89717512D02*
X129946665Y-89669893D01*
X129946665Y-89669893D02*
X129851427Y-89622274D01*
X129851427Y-89622274D02*
X129613332Y-89622274D01*
X129613332Y-89622274D02*
X129518094Y-89669893D01*
X129518094Y-89669893D02*
X129470475Y-89717512D01*
X129470475Y-89717512D02*
X129422856Y-89812750D01*
X129422856Y-89812750D02*
X129422856Y-89907988D01*
X129422856Y-89907988D02*
X129470475Y-90050845D01*
X129470475Y-90050845D02*
X130041903Y-90622274D01*
X130041903Y-90622274D02*
X129422856Y-90622274D01*
X128803808Y-89622274D02*
X128708570Y-89622274D01*
X128708570Y-89622274D02*
X128613332Y-89669893D01*
X128613332Y-89669893D02*
X128565713Y-89717512D01*
X128565713Y-89717512D02*
X128518094Y-89812750D01*
X128518094Y-89812750D02*
X128470475Y-90003226D01*
X128470475Y-90003226D02*
X128470475Y-90241321D01*
X128470475Y-90241321D02*
X128518094Y-90431797D01*
X128518094Y-90431797D02*
X128565713Y-90527035D01*
X128565713Y-90527035D02*
X128613332Y-90574655D01*
X128613332Y-90574655D02*
X128708570Y-90622274D01*
X128708570Y-90622274D02*
X128803808Y-90622274D01*
X128803808Y-90622274D02*
X128899046Y-90574655D01*
X128899046Y-90574655D02*
X128946665Y-90527035D01*
X128946665Y-90527035D02*
X128994284Y-90431797D01*
X128994284Y-90431797D02*
X129041903Y-90241321D01*
X129041903Y-90241321D02*
X129041903Y-90003226D01*
X129041903Y-90003226D02*
X128994284Y-89812750D01*
X128994284Y-89812750D02*
X128946665Y-89717512D01*
X128946665Y-89717512D02*
X128899046Y-89669893D01*
X128899046Y-89669893D02*
X128803808Y-89622274D01*
X128089522Y-89717512D02*
X128041903Y-89669893D01*
X128041903Y-89669893D02*
X127946665Y-89622274D01*
X127946665Y-89622274D02*
X127708570Y-89622274D01*
X127708570Y-89622274D02*
X127613332Y-89669893D01*
X127613332Y-89669893D02*
X127565713Y-89717512D01*
X127565713Y-89717512D02*
X127518094Y-89812750D01*
X127518094Y-89812750D02*
X127518094Y-89907988D01*
X127518094Y-89907988D02*
X127565713Y-90050845D01*
X127565713Y-90050845D02*
X128137141Y-90622274D01*
X128137141Y-90622274D02*
X127518094Y-90622274D01*
X126613332Y-89622274D02*
X127089522Y-89622274D01*
X127089522Y-89622274D02*
X127137141Y-90098464D01*
X127137141Y-90098464D02*
X127089522Y-90050845D01*
X127089522Y-90050845D02*
X126994284Y-90003226D01*
X126994284Y-90003226D02*
X126756189Y-90003226D01*
X126756189Y-90003226D02*
X126660951Y-90050845D01*
X126660951Y-90050845D02*
X126613332Y-90098464D01*
X126613332Y-90098464D02*
X126565713Y-90193702D01*
X126565713Y-90193702D02*
X126565713Y-90431797D01*
X126565713Y-90431797D02*
X126613332Y-90527035D01*
X126613332Y-90527035D02*
X126660951Y-90574655D01*
X126660951Y-90574655D02*
X126756189Y-90622274D01*
X126756189Y-90622274D02*
X126994284Y-90622274D01*
X126994284Y-90622274D02*
X127089522Y-90574655D01*
X127089522Y-90574655D02*
X127137141Y-90527035D01*
X146565715Y-91232218D02*
X146565715Y-91946503D01*
X146565715Y-91946503D02*
X146613334Y-92089360D01*
X146613334Y-92089360D02*
X146708572Y-92184599D01*
X146708572Y-92184599D02*
X146851429Y-92232218D01*
X146851429Y-92232218D02*
X146946667Y-92232218D01*
X145613334Y-92232218D02*
X146089524Y-92232218D01*
X146089524Y-92232218D02*
X146089524Y-91232218D01*
X144708572Y-92136979D02*
X144756191Y-92184599D01*
X144756191Y-92184599D02*
X144899048Y-92232218D01*
X144899048Y-92232218D02*
X144994286Y-92232218D01*
X144994286Y-92232218D02*
X145137143Y-92184599D01*
X145137143Y-92184599D02*
X145232381Y-92089360D01*
X145232381Y-92089360D02*
X145280000Y-91994122D01*
X145280000Y-91994122D02*
X145327619Y-91803646D01*
X145327619Y-91803646D02*
X145327619Y-91660789D01*
X145327619Y-91660789D02*
X145280000Y-91470313D01*
X145280000Y-91470313D02*
X145232381Y-91375075D01*
X145232381Y-91375075D02*
X145137143Y-91279837D01*
X145137143Y-91279837D02*
X144994286Y-91232218D01*
X144994286Y-91232218D02*
X144899048Y-91232218D01*
X144899048Y-91232218D02*
X144756191Y-91279837D01*
X144756191Y-91279837D02*
X144708572Y-91327456D01*
X143327619Y-91232218D02*
X143137143Y-91232218D01*
X143137143Y-91232218D02*
X143041905Y-91279837D01*
X143041905Y-91279837D02*
X142946667Y-91375075D01*
X142946667Y-91375075D02*
X142899048Y-91565551D01*
X142899048Y-91565551D02*
X142899048Y-91898884D01*
X142899048Y-91898884D02*
X142946667Y-92089360D01*
X142946667Y-92089360D02*
X143041905Y-92184599D01*
X143041905Y-92184599D02*
X143137143Y-92232218D01*
X143137143Y-92232218D02*
X143327619Y-92232218D01*
X143327619Y-92232218D02*
X143422857Y-92184599D01*
X143422857Y-92184599D02*
X143518095Y-92089360D01*
X143518095Y-92089360D02*
X143565714Y-91898884D01*
X143565714Y-91898884D02*
X143565714Y-91565551D01*
X143565714Y-91565551D02*
X143518095Y-91375075D01*
X143518095Y-91375075D02*
X143422857Y-91279837D01*
X143422857Y-91279837D02*
X143327619Y-91232218D01*
X142470476Y-92232218D02*
X142470476Y-91565551D01*
X142470476Y-91756027D02*
X142422857Y-91660789D01*
X142422857Y-91660789D02*
X142375238Y-91613170D01*
X142375238Y-91613170D02*
X142280000Y-91565551D01*
X142280000Y-91565551D02*
X142184762Y-91565551D01*
X141422857Y-92232218D02*
X141422857Y-91232218D01*
X141422857Y-92184599D02*
X141518095Y-92232218D01*
X141518095Y-92232218D02*
X141708571Y-92232218D01*
X141708571Y-92232218D02*
X141803809Y-92184599D01*
X141803809Y-92184599D02*
X141851428Y-92136979D01*
X141851428Y-92136979D02*
X141899047Y-92041741D01*
X141899047Y-92041741D02*
X141899047Y-91756027D01*
X141899047Y-91756027D02*
X141851428Y-91660789D01*
X141851428Y-91660789D02*
X141803809Y-91613170D01*
X141803809Y-91613170D02*
X141708571Y-91565551D01*
X141708571Y-91565551D02*
X141518095Y-91565551D01*
X141518095Y-91565551D02*
X141422857Y-91613170D01*
X140565714Y-92184599D02*
X140660952Y-92232218D01*
X140660952Y-92232218D02*
X140851428Y-92232218D01*
X140851428Y-92232218D02*
X140946666Y-92184599D01*
X140946666Y-92184599D02*
X140994285Y-92089360D01*
X140994285Y-92089360D02*
X140994285Y-91708408D01*
X140994285Y-91708408D02*
X140946666Y-91613170D01*
X140946666Y-91613170D02*
X140851428Y-91565551D01*
X140851428Y-91565551D02*
X140660952Y-91565551D01*
X140660952Y-91565551D02*
X140565714Y-91613170D01*
X140565714Y-91613170D02*
X140518095Y-91708408D01*
X140518095Y-91708408D02*
X140518095Y-91803646D01*
X140518095Y-91803646D02*
X140994285Y-91898884D01*
X140089523Y-92232218D02*
X140089523Y-91565551D01*
X140089523Y-91756027D02*
X140041904Y-91660789D01*
X140041904Y-91660789D02*
X139994285Y-91613170D01*
X139994285Y-91613170D02*
X139899047Y-91565551D01*
X139899047Y-91565551D02*
X139803809Y-91565551D01*
X138708570Y-92232218D02*
X138708570Y-91232218D01*
X138708570Y-91232218D02*
X138137142Y-92232218D01*
X138137142Y-92232218D02*
X138137142Y-91232218D01*
X137518094Y-92232218D02*
X137613332Y-92184599D01*
X137613332Y-92184599D02*
X137660951Y-92136979D01*
X137660951Y-92136979D02*
X137708570Y-92041741D01*
X137708570Y-92041741D02*
X137708570Y-91756027D01*
X137708570Y-91756027D02*
X137660951Y-91660789D01*
X137660951Y-91660789D02*
X137613332Y-91613170D01*
X137613332Y-91613170D02*
X137518094Y-91565551D01*
X137518094Y-91565551D02*
X137375237Y-91565551D01*
X137375237Y-91565551D02*
X137279999Y-91613170D01*
X137279999Y-91613170D02*
X137232380Y-91660789D01*
X137232380Y-91660789D02*
X137184761Y-91756027D01*
X137184761Y-91756027D02*
X137184761Y-92041741D01*
X137184761Y-92041741D02*
X137232380Y-92136979D01*
X137232380Y-92136979D02*
X137279999Y-92184599D01*
X137279999Y-92184599D02*
X137375237Y-92232218D01*
X137375237Y-92232218D02*
X137518094Y-92232218D01*
X136756189Y-92136979D02*
X136708570Y-92184599D01*
X136708570Y-92184599D02*
X136756189Y-92232218D01*
X136756189Y-92232218D02*
X136803808Y-92184599D01*
X136803808Y-92184599D02*
X136756189Y-92136979D01*
X136756189Y-92136979D02*
X136756189Y-92232218D01*
X135232380Y-91232218D02*
X135232380Y-91946503D01*
X135232380Y-91946503D02*
X135279999Y-92089360D01*
X135279999Y-92089360D02*
X135375237Y-92184599D01*
X135375237Y-92184599D02*
X135518094Y-92232218D01*
X135518094Y-92232218D02*
X135613332Y-92232218D01*
X134279999Y-92232218D02*
X134756189Y-92232218D01*
X134756189Y-92232218D02*
X134756189Y-91232218D01*
X133375237Y-92136979D02*
X133422856Y-92184599D01*
X133422856Y-92184599D02*
X133565713Y-92232218D01*
X133565713Y-92232218D02*
X133660951Y-92232218D01*
X133660951Y-92232218D02*
X133803808Y-92184599D01*
X133803808Y-92184599D02*
X133899046Y-92089360D01*
X133899046Y-92089360D02*
X133946665Y-91994122D01*
X133946665Y-91994122D02*
X133994284Y-91803646D01*
X133994284Y-91803646D02*
X133994284Y-91660789D01*
X133994284Y-91660789D02*
X133946665Y-91470313D01*
X133946665Y-91470313D02*
X133899046Y-91375075D01*
X133899046Y-91375075D02*
X133803808Y-91279837D01*
X133803808Y-91279837D02*
X133660951Y-91232218D01*
X133660951Y-91232218D02*
X133565713Y-91232218D01*
X133565713Y-91232218D02*
X133422856Y-91279837D01*
X133422856Y-91279837D02*
X133375237Y-91327456D01*
X132660951Y-91232218D02*
X132660951Y-91946503D01*
X132660951Y-91946503D02*
X132708570Y-92089360D01*
X132708570Y-92089360D02*
X132803808Y-92184599D01*
X132803808Y-92184599D02*
X132946665Y-92232218D01*
X132946665Y-92232218D02*
X133041903Y-92232218D01*
X131708570Y-92232218D02*
X132184760Y-92232218D01*
X132184760Y-92232218D02*
X132184760Y-91232218D01*
X130803808Y-92136979D02*
X130851427Y-92184599D01*
X130851427Y-92184599D02*
X130994284Y-92232218D01*
X130994284Y-92232218D02*
X131089522Y-92232218D01*
X131089522Y-92232218D02*
X131232379Y-92184599D01*
X131232379Y-92184599D02*
X131327617Y-92089360D01*
X131327617Y-92089360D02*
X131375236Y-91994122D01*
X131375236Y-91994122D02*
X131422855Y-91803646D01*
X131422855Y-91803646D02*
X131422855Y-91660789D01*
X131422855Y-91660789D02*
X131375236Y-91470313D01*
X131375236Y-91470313D02*
X131327617Y-91375075D01*
X131327617Y-91375075D02*
X131232379Y-91279837D01*
X131232379Y-91279837D02*
X131089522Y-91232218D01*
X131089522Y-91232218D02*
X130994284Y-91232218D01*
X130994284Y-91232218D02*
X130851427Y-91279837D01*
X130851427Y-91279837D02*
X130803808Y-91327456D01*
X130089522Y-91232218D02*
X130089522Y-91946503D01*
X130089522Y-91946503D02*
X130137141Y-92089360D01*
X130137141Y-92089360D02*
X130232379Y-92184599D01*
X130232379Y-92184599D02*
X130375236Y-92232218D01*
X130375236Y-92232218D02*
X130470474Y-92232218D01*
X129137141Y-92232218D02*
X129613331Y-92232218D01*
X129613331Y-92232218D02*
X129613331Y-91232218D01*
X128232379Y-92136979D02*
X128279998Y-92184599D01*
X128279998Y-92184599D02*
X128422855Y-92232218D01*
X128422855Y-92232218D02*
X128518093Y-92232218D01*
X128518093Y-92232218D02*
X128660950Y-92184599D01*
X128660950Y-92184599D02*
X128756188Y-92089360D01*
X128756188Y-92089360D02*
X128803807Y-91994122D01*
X128803807Y-91994122D02*
X128851426Y-91803646D01*
X128851426Y-91803646D02*
X128851426Y-91660789D01*
X128851426Y-91660789D02*
X128803807Y-91470313D01*
X128803807Y-91470313D02*
X128756188Y-91375075D01*
X128756188Y-91375075D02*
X128660950Y-91279837D01*
X128660950Y-91279837D02*
X128518093Y-91232218D01*
X128518093Y-91232218D02*
X128422855Y-91232218D01*
X128422855Y-91232218D02*
X128279998Y-91279837D01*
X128279998Y-91279837D02*
X128232379Y-91327456D01*
X127518093Y-91232218D02*
X127518093Y-91946503D01*
X127518093Y-91946503D02*
X127565712Y-92089360D01*
X127565712Y-92089360D02*
X127660950Y-92184599D01*
X127660950Y-92184599D02*
X127803807Y-92232218D01*
X127803807Y-92232218D02*
X127899045Y-92232218D01*
X126565712Y-92232218D02*
X127041902Y-92232218D01*
X127041902Y-92232218D02*
X127041902Y-91232218D01*
X125660950Y-92136979D02*
X125708569Y-92184599D01*
X125708569Y-92184599D02*
X125851426Y-92232218D01*
X125851426Y-92232218D02*
X125946664Y-92232218D01*
X125946664Y-92232218D02*
X126089521Y-92184599D01*
X126089521Y-92184599D02*
X126184759Y-92089360D01*
X126184759Y-92089360D02*
X126232378Y-91994122D01*
X126232378Y-91994122D02*
X126279997Y-91803646D01*
X126279997Y-91803646D02*
X126279997Y-91660789D01*
X126279997Y-91660789D02*
X126232378Y-91470313D01*
X126232378Y-91470313D02*
X126184759Y-91375075D01*
X126184759Y-91375075D02*
X126089521Y-91279837D01*
X126089521Y-91279837D02*
X125946664Y-91232218D01*
X125946664Y-91232218D02*
X125851426Y-91232218D01*
X125851426Y-91232218D02*
X125708569Y-91279837D01*
X125708569Y-91279837D02*
X125660950Y-91327456D01*
X138970475Y-93842162D02*
X138970475Y-93175495D01*
X138970475Y-93365971D02*
X138922856Y-93270733D01*
X138922856Y-93270733D02*
X138875237Y-93223114D01*
X138875237Y-93223114D02*
X138779999Y-93175495D01*
X138779999Y-93175495D02*
X138684761Y-93175495D01*
X137970475Y-93794543D02*
X138065713Y-93842162D01*
X138065713Y-93842162D02*
X138256189Y-93842162D01*
X138256189Y-93842162D02*
X138351427Y-93794543D01*
X138351427Y-93794543D02*
X138399046Y-93699304D01*
X138399046Y-93699304D02*
X138399046Y-93318352D01*
X138399046Y-93318352D02*
X138351427Y-93223114D01*
X138351427Y-93223114D02*
X138256189Y-93175495D01*
X138256189Y-93175495D02*
X138065713Y-93175495D01*
X138065713Y-93175495D02*
X137970475Y-93223114D01*
X137970475Y-93223114D02*
X137922856Y-93318352D01*
X137922856Y-93318352D02*
X137922856Y-93413590D01*
X137922856Y-93413590D02*
X138399046Y-93508828D01*
X137589522Y-93175495D02*
X137351427Y-93842162D01*
X137351427Y-93842162D02*
X137113332Y-93175495D01*
X136732379Y-93746923D02*
X136684760Y-93794543D01*
X136684760Y-93794543D02*
X136732379Y-93842162D01*
X136732379Y-93842162D02*
X136779998Y-93794543D01*
X136779998Y-93794543D02*
X136732379Y-93746923D01*
X136732379Y-93746923D02*
X136732379Y-93842162D01*
X134970475Y-93842162D02*
X135541903Y-93842162D01*
X135256189Y-93842162D02*
X135256189Y-92842162D01*
X135256189Y-92842162D02*
X135351427Y-92985019D01*
X135351427Y-92985019D02*
X135446665Y-93080257D01*
X135446665Y-93080257D02*
X135541903Y-93127876D01*
X134541903Y-93746923D02*
X134494284Y-93794543D01*
X134494284Y-93794543D02*
X134541903Y-93842162D01*
X134541903Y-93842162D02*
X134589522Y-93794543D01*
X134589522Y-93794543D02*
X134541903Y-93746923D01*
X134541903Y-93746923D02*
X134541903Y-93842162D01*
X133875237Y-92842162D02*
X133779999Y-92842162D01*
X133779999Y-92842162D02*
X133684761Y-92889781D01*
X133684761Y-92889781D02*
X133637142Y-92937400D01*
X133637142Y-92937400D02*
X133589523Y-93032638D01*
X133589523Y-93032638D02*
X133541904Y-93223114D01*
X133541904Y-93223114D02*
X133541904Y-93461209D01*
X133541904Y-93461209D02*
X133589523Y-93651685D01*
X133589523Y-93651685D02*
X133637142Y-93746923D01*
X133637142Y-93746923D02*
X133684761Y-93794543D01*
X133684761Y-93794543D02*
X133779999Y-93842162D01*
X133779999Y-93842162D02*
X133875237Y-93842162D01*
X133875237Y-93842162D02*
X133970475Y-93794543D01*
X133970475Y-93794543D02*
X134018094Y-93746923D01*
X134018094Y-93746923D02*
X134065713Y-93651685D01*
X134065713Y-93651685D02*
X134113332Y-93461209D01*
X134113332Y-93461209D02*
X134113332Y-93223114D01*
X134113332Y-93223114D02*
X134065713Y-93032638D01*
X134065713Y-93032638D02*
X134018094Y-92937400D01*
X134018094Y-92937400D02*
X133970475Y-92889781D01*
X133970475Y-92889781D02*
X133875237Y-92842162D01*
X144708572Y-110432218D02*
X144708572Y-109432218D01*
X144708572Y-109432218D02*
X144470477Y-109432218D01*
X144470477Y-109432218D02*
X144327620Y-109479837D01*
X144327620Y-109479837D02*
X144232382Y-109575075D01*
X144232382Y-109575075D02*
X144184763Y-109670313D01*
X144184763Y-109670313D02*
X144137144Y-109860789D01*
X144137144Y-109860789D02*
X144137144Y-110003646D01*
X144137144Y-110003646D02*
X144184763Y-110194122D01*
X144184763Y-110194122D02*
X144232382Y-110289360D01*
X144232382Y-110289360D02*
X144327620Y-110384599D01*
X144327620Y-110384599D02*
X144470477Y-110432218D01*
X144470477Y-110432218D02*
X144708572Y-110432218D01*
X143327620Y-110384599D02*
X143422858Y-110432218D01*
X143422858Y-110432218D02*
X143613334Y-110432218D01*
X143613334Y-110432218D02*
X143708572Y-110384599D01*
X143708572Y-110384599D02*
X143756191Y-110289360D01*
X143756191Y-110289360D02*
X143756191Y-109908408D01*
X143756191Y-109908408D02*
X143708572Y-109813170D01*
X143708572Y-109813170D02*
X143613334Y-109765551D01*
X143613334Y-109765551D02*
X143422858Y-109765551D01*
X143422858Y-109765551D02*
X143327620Y-109813170D01*
X143327620Y-109813170D02*
X143280001Y-109908408D01*
X143280001Y-109908408D02*
X143280001Y-110003646D01*
X143280001Y-110003646D02*
X143756191Y-110098884D01*
X142899048Y-110384599D02*
X142803810Y-110432218D01*
X142803810Y-110432218D02*
X142613334Y-110432218D01*
X142613334Y-110432218D02*
X142518096Y-110384599D01*
X142518096Y-110384599D02*
X142470477Y-110289360D01*
X142470477Y-110289360D02*
X142470477Y-110241741D01*
X142470477Y-110241741D02*
X142518096Y-110146503D01*
X142518096Y-110146503D02*
X142613334Y-110098884D01*
X142613334Y-110098884D02*
X142756191Y-110098884D01*
X142756191Y-110098884D02*
X142851429Y-110051265D01*
X142851429Y-110051265D02*
X142899048Y-109956027D01*
X142899048Y-109956027D02*
X142899048Y-109908408D01*
X142899048Y-109908408D02*
X142851429Y-109813170D01*
X142851429Y-109813170D02*
X142756191Y-109765551D01*
X142756191Y-109765551D02*
X142613334Y-109765551D01*
X142613334Y-109765551D02*
X142518096Y-109813170D01*
X142041905Y-110432218D02*
X142041905Y-109765551D01*
X142041905Y-109432218D02*
X142089524Y-109479837D01*
X142089524Y-109479837D02*
X142041905Y-109527456D01*
X142041905Y-109527456D02*
X141994286Y-109479837D01*
X141994286Y-109479837D02*
X142041905Y-109432218D01*
X142041905Y-109432218D02*
X142041905Y-109527456D01*
X141137144Y-109765551D02*
X141137144Y-110575075D01*
X141137144Y-110575075D02*
X141184763Y-110670313D01*
X141184763Y-110670313D02*
X141232382Y-110717932D01*
X141232382Y-110717932D02*
X141327620Y-110765551D01*
X141327620Y-110765551D02*
X141470477Y-110765551D01*
X141470477Y-110765551D02*
X141565715Y-110717932D01*
X141137144Y-110384599D02*
X141232382Y-110432218D01*
X141232382Y-110432218D02*
X141422858Y-110432218D01*
X141422858Y-110432218D02*
X141518096Y-110384599D01*
X141518096Y-110384599D02*
X141565715Y-110336979D01*
X141565715Y-110336979D02*
X141613334Y-110241741D01*
X141613334Y-110241741D02*
X141613334Y-109956027D01*
X141613334Y-109956027D02*
X141565715Y-109860789D01*
X141565715Y-109860789D02*
X141518096Y-109813170D01*
X141518096Y-109813170D02*
X141422858Y-109765551D01*
X141422858Y-109765551D02*
X141232382Y-109765551D01*
X141232382Y-109765551D02*
X141137144Y-109813170D01*
X140660953Y-109765551D02*
X140660953Y-110432218D01*
X140660953Y-109860789D02*
X140613334Y-109813170D01*
X140613334Y-109813170D02*
X140518096Y-109765551D01*
X140518096Y-109765551D02*
X140375239Y-109765551D01*
X140375239Y-109765551D02*
X140280001Y-109813170D01*
X140280001Y-109813170D02*
X140232382Y-109908408D01*
X140232382Y-109908408D02*
X140232382Y-110432218D01*
X138660953Y-109908408D02*
X138518096Y-109956027D01*
X138518096Y-109956027D02*
X138470477Y-110003646D01*
X138470477Y-110003646D02*
X138422858Y-110098884D01*
X138422858Y-110098884D02*
X138422858Y-110241741D01*
X138422858Y-110241741D02*
X138470477Y-110336979D01*
X138470477Y-110336979D02*
X138518096Y-110384599D01*
X138518096Y-110384599D02*
X138613334Y-110432218D01*
X138613334Y-110432218D02*
X138994286Y-110432218D01*
X138994286Y-110432218D02*
X138994286Y-109432218D01*
X138994286Y-109432218D02*
X138660953Y-109432218D01*
X138660953Y-109432218D02*
X138565715Y-109479837D01*
X138565715Y-109479837D02*
X138518096Y-109527456D01*
X138518096Y-109527456D02*
X138470477Y-109622694D01*
X138470477Y-109622694D02*
X138470477Y-109717932D01*
X138470477Y-109717932D02*
X138518096Y-109813170D01*
X138518096Y-109813170D02*
X138565715Y-109860789D01*
X138565715Y-109860789D02*
X138660953Y-109908408D01*
X138660953Y-109908408D02*
X138994286Y-109908408D01*
X138089524Y-109765551D02*
X137851429Y-110432218D01*
X137613334Y-109765551D02*
X137851429Y-110432218D01*
X137851429Y-110432218D02*
X137946667Y-110670313D01*
X137946667Y-110670313D02*
X137994286Y-110717932D01*
X137994286Y-110717932D02*
X138089524Y-110765551D01*
X136470476Y-109908408D02*
X136137143Y-109908408D01*
X135994286Y-110432218D02*
X136470476Y-110432218D01*
X136470476Y-110432218D02*
X136470476Y-109432218D01*
X136470476Y-109432218D02*
X135994286Y-109432218D01*
X135137143Y-109765551D02*
X135137143Y-110432218D01*
X135565714Y-109765551D02*
X135565714Y-110289360D01*
X135565714Y-110289360D02*
X135518095Y-110384599D01*
X135518095Y-110384599D02*
X135422857Y-110432218D01*
X135422857Y-110432218D02*
X135280000Y-110432218D01*
X135280000Y-110432218D02*
X135184762Y-110384599D01*
X135184762Y-110384599D02*
X135137143Y-110336979D01*
X134708571Y-110384599D02*
X134613333Y-110432218D01*
X134613333Y-110432218D02*
X134422857Y-110432218D01*
X134422857Y-110432218D02*
X134327619Y-110384599D01*
X134327619Y-110384599D02*
X134280000Y-110289360D01*
X134280000Y-110289360D02*
X134280000Y-110241741D01*
X134280000Y-110241741D02*
X134327619Y-110146503D01*
X134327619Y-110146503D02*
X134422857Y-110098884D01*
X134422857Y-110098884D02*
X134565714Y-110098884D01*
X134565714Y-110098884D02*
X134660952Y-110051265D01*
X134660952Y-110051265D02*
X134708571Y-109956027D01*
X134708571Y-109956027D02*
X134708571Y-109908408D01*
X134708571Y-109908408D02*
X134660952Y-109813170D01*
X134660952Y-109813170D02*
X134565714Y-109765551D01*
X134565714Y-109765551D02*
X134422857Y-109765551D01*
X134422857Y-109765551D02*
X134327619Y-109813170D01*
X133994285Y-109765551D02*
X133613333Y-109765551D01*
X133851428Y-109432218D02*
X133851428Y-110289360D01*
X133851428Y-110289360D02*
X133803809Y-110384599D01*
X133803809Y-110384599D02*
X133708571Y-110432218D01*
X133708571Y-110432218D02*
X133613333Y-110432218D01*
X133137142Y-110432218D02*
X133232380Y-110384599D01*
X133232380Y-110384599D02*
X133279999Y-110336979D01*
X133279999Y-110336979D02*
X133327618Y-110241741D01*
X133327618Y-110241741D02*
X133327618Y-109956027D01*
X133327618Y-109956027D02*
X133279999Y-109860789D01*
X133279999Y-109860789D02*
X133232380Y-109813170D01*
X133232380Y-109813170D02*
X133137142Y-109765551D01*
X133137142Y-109765551D02*
X132994285Y-109765551D01*
X132994285Y-109765551D02*
X132899047Y-109813170D01*
X132899047Y-109813170D02*
X132851428Y-109860789D01*
X132851428Y-109860789D02*
X132803809Y-109956027D01*
X132803809Y-109956027D02*
X132803809Y-110241741D01*
X132803809Y-110241741D02*
X132851428Y-110336979D01*
X132851428Y-110336979D02*
X132899047Y-110384599D01*
X132899047Y-110384599D02*
X132994285Y-110432218D01*
X132994285Y-110432218D02*
X133137142Y-110432218D01*
X132375237Y-109765551D02*
X132375237Y-110432218D01*
X132375237Y-109860789D02*
X132327618Y-109813170D01*
X132327618Y-109813170D02*
X132232380Y-109765551D01*
X132232380Y-109765551D02*
X132089523Y-109765551D01*
X132089523Y-109765551D02*
X131994285Y-109813170D01*
X131994285Y-109813170D02*
X131946666Y-109908408D01*
X131946666Y-109908408D02*
X131946666Y-110432218D01*
X130851427Y-109432218D02*
X130279999Y-109432218D01*
X130565713Y-110432218D02*
X130565713Y-109432218D01*
X129518094Y-110432218D02*
X129518094Y-109908408D01*
X129518094Y-109908408D02*
X129565713Y-109813170D01*
X129565713Y-109813170D02*
X129660951Y-109765551D01*
X129660951Y-109765551D02*
X129851427Y-109765551D01*
X129851427Y-109765551D02*
X129946665Y-109813170D01*
X129518094Y-110384599D02*
X129613332Y-110432218D01*
X129613332Y-110432218D02*
X129851427Y-110432218D01*
X129851427Y-110432218D02*
X129946665Y-110384599D01*
X129946665Y-110384599D02*
X129994284Y-110289360D01*
X129994284Y-110289360D02*
X129994284Y-110194122D01*
X129994284Y-110194122D02*
X129946665Y-110098884D01*
X129946665Y-110098884D02*
X129851427Y-110051265D01*
X129851427Y-110051265D02*
X129613332Y-110051265D01*
X129613332Y-110051265D02*
X129518094Y-110003646D01*
X129041903Y-109765551D02*
X129041903Y-110432218D01*
X129041903Y-109860789D02*
X128994284Y-109813170D01*
X128994284Y-109813170D02*
X128899046Y-109765551D01*
X128899046Y-109765551D02*
X128756189Y-109765551D01*
X128756189Y-109765551D02*
X128660951Y-109813170D01*
X128660951Y-109813170D02*
X128613332Y-109908408D01*
X128613332Y-109908408D02*
X128613332Y-110432218D01*
%LPC*%
D11*
%TO.C,J1*%
X127375000Y-76459999D03*
D12*
X129915000Y-76459999D03*
X132455000Y-76459999D03*
X134995000Y-76459999D03*
X137535000Y-76459999D03*
X140075000Y-76459999D03*
X142615000Y-76459999D03*
X145155000Y-76459999D03*
%TD*%
D11*
%TO.C,J2*%
X127375000Y-107099999D03*
D12*
X129915000Y-107099999D03*
X132455000Y-107099999D03*
X134995000Y-107099999D03*
X137535000Y-107099999D03*
X140075000Y-107099999D03*
X142615000Y-107099999D03*
X145155000Y-107099999D03*
%TD*%
%LPD*%
M02*
