%TF.GenerationSoftware,KiCad,Pcbnew,9.0.6*%
%TF.CreationDate,2026-01-24T13:04:40+08:00*%
%TF.ProjectId,buck,6275636b-2e6b-4696-9361-645f70636258,rev?*%
%TF.SameCoordinates,Original*%
%TF.FileFunction,Legend,Top*%
%TF.FilePolarity,Positive*%
%FSLAX46Y46*%
G04 Gerber Fmt 4.6, Leading zero omitted, Abs format (unit mm)*
G04 Created by KiCad (PCBNEW 9.0.6) date 2026-01-24 13:04:40*
%MOMM*%
%LPD*%
G01*
G04 APERTURE LIST*
G04 Aperture macros list*
%AMRoundRect*
0 Rectangle with rounded corners*
0 $1 Rounding radius*
0 $2 $3 $4 $5 $6 $7 $8 $9 X,Y pos of 4 corners*
0 Add a 4 corners polygon primitive as box body*
4,1,4,$2,$3,$4,$5,$6,$7,$8,$9,$2,$3,0*
0 Add four circle primitives for the rounded corners*
1,1,$1+$1,$2,$3*
1,1,$1+$1,$4,$5*
1,1,$1+$1,$6,$7*
1,1,$1+$1,$8,$9*
0 Add four rect primitives between the rounded corners*
20,1,$1+$1,$2,$3,$4,$5,0*
20,1,$1+$1,$4,$5,$6,$7,0*
20,1,$1+$1,$6,$7,$8,$9,0*
20,1,$1+$1,$8,$9,$2,$3,0*%
G04 Aperture macros list end*
%ADD10C,0.120000*%
%ADD11C,0.100000*%
%ADD12RoundRect,0.200000X-0.275000X0.200000X-0.275000X-0.200000X0.275000X-0.200000X0.275000X0.200000X0*%
%ADD13RoundRect,0.250001X-0.872499X-1.044999X0.872499X-1.044999X0.872499X1.044999X-0.872499X1.044999X0*%
%ADD14RoundRect,0.225000X0.225000X0.250000X-0.225000X0.250000X-0.225000X-0.250000X0.225000X-0.250000X0*%
%ADD15RoundRect,0.150000X0.850000X-0.600000X0.850000X0.600000X-0.850000X0.600000X-0.850000X-0.600000X0*%
%ADD16R,1.700000X1.700000*%
%ADD17O,1.700000X1.700000*%
%ADD18C,1.600000*%
G04 APERTURE END LIST*
D10*
%TO.C,R2*%
X138507500Y-98292741D02*
X138507500Y-98767257D01*
X139552500Y-98292741D02*
X139552500Y-98767257D01*
%TO.C,C6*%
X141682500Y-100419999D02*
X141682500Y-104939999D01*
X141682500Y-104939999D02*
X149922500Y-104939999D01*
X149922500Y-100419999D02*
X141682500Y-100419999D01*
%TO.C,C1*%
X127645580Y-81019999D02*
X127364420Y-81019999D01*
X127645580Y-82039999D02*
X127364420Y-82039999D01*
D11*
%TO.C,D1*%
X129780000Y-99879999D02*
X129780000Y-97079999D01*
X129780000Y-99879999D02*
X136180000Y-99879999D01*
X136180000Y-97079999D02*
X129780000Y-97079999D01*
X136180000Y-97079999D02*
X136180000Y-99879999D01*
D10*
%TO.C,C5*%
X127090000Y-100219999D02*
X127090000Y-104739999D01*
X127090000Y-104739999D02*
X135330000Y-104739999D01*
X135330000Y-100219999D02*
X127090000Y-100219999D01*
%TO.C,J1*%
X126045000Y-77789999D02*
X126045000Y-76459999D01*
X127375000Y-77789999D02*
X126045000Y-77789999D01*
X128645000Y-75129999D02*
X146485000Y-75129999D01*
X128645000Y-77789999D02*
X128645000Y-75129999D01*
X128645000Y-77789999D02*
X146485000Y-77789999D01*
X146485000Y-77789999D02*
X146485000Y-75129999D01*
%TO.C,J2*%
X126045000Y-108429999D02*
X126045000Y-107099999D01*
X127375000Y-108429999D02*
X126045000Y-108429999D01*
X128645000Y-105769999D02*
X146485000Y-105769999D01*
X128645000Y-108429999D02*
X128645000Y-105769999D01*
X128645000Y-108429999D02*
X146485000Y-108429999D01*
X146485000Y-108429999D02*
X146485000Y-105769999D01*
%TO.C,C3*%
X141920580Y-81269999D02*
X141639420Y-81269999D01*
X141920580Y-82289999D02*
X141639420Y-82289999D01*
%TO.C,R1*%
X123757500Y-98292741D02*
X123757500Y-98767257D01*
X124802500Y-98292741D02*
X124802500Y-98767257D01*
%TO.C,C4*%
X144920580Y-81269999D02*
X144639420Y-81269999D01*
X144920580Y-82289999D02*
X144639420Y-82289999D01*
%TO.C,C2*%
X130645580Y-81019999D02*
X130364420Y-81019999D01*
X130645580Y-82039999D02*
X130364420Y-82039999D01*
D11*
%TO.C,PS2*%
X137202400Y-83382399D02*
X137202400Y-86514203D01*
X137202400Y-88473795D02*
X137202400Y-88800203D01*
X137202400Y-90759795D02*
X137202400Y-91086203D01*
X137202400Y-93045795D02*
X137202400Y-96177599D01*
X137202400Y-96177599D02*
X138048204Y-96177599D01*
X138048204Y-83382399D02*
X137202400Y-83382399D01*
X140007796Y-83382399D02*
X140334204Y-83382399D01*
X140007796Y-96177599D02*
X140334204Y-96177599D01*
X142293796Y-83382399D02*
X142620204Y-83382399D01*
X142620204Y-96177599D02*
X142293796Y-96177599D01*
X144579796Y-96177599D02*
X147191202Y-96177599D01*
X147192204Y-83382399D02*
X144579796Y-83382399D01*
X149152798Y-96177599D02*
X149997600Y-96177599D01*
X149997600Y-83382399D02*
X149151796Y-83382399D01*
X149997600Y-86514203D02*
X149997600Y-83382399D01*
X149997600Y-88808292D02*
X149997600Y-88473795D01*
X149997600Y-91081465D02*
X149997600Y-90751706D01*
X149997600Y-96177599D02*
X149997600Y-93050533D01*
X149997600Y-83382399D02*
X150000000Y-83729999D01*
X149650000Y-83379999D01*
X149997600Y-83382399D01*
G36*
X149997600Y-83382399D02*
G01*
X150000000Y-83729999D01*
X149650000Y-83379999D01*
X149997600Y-83382399D01*
G37*
%TO.C,D2*%
X144380000Y-100079999D02*
X144380000Y-97279999D01*
X144380000Y-100079999D02*
X150780000Y-100079999D01*
X150780000Y-97279999D02*
X144380000Y-97279999D01*
X150780000Y-97279999D02*
X150780000Y-100079999D01*
%TO.C,PS1*%
X122562400Y-83382399D02*
X122562400Y-86514203D01*
X122562400Y-88473795D02*
X122562400Y-88800203D01*
X122562400Y-90759795D02*
X122562400Y-91086203D01*
X122562400Y-93045795D02*
X122562400Y-96177599D01*
X122562400Y-96177599D02*
X123408204Y-96177599D01*
X123408204Y-83382399D02*
X122562400Y-83382399D01*
X125367796Y-83382399D02*
X125694204Y-83382399D01*
X125367796Y-96177599D02*
X125694204Y-96177599D01*
X127653796Y-83382399D02*
X127980204Y-83382399D01*
X127980204Y-96177599D02*
X127653796Y-96177599D01*
X129939796Y-96177599D02*
X132551202Y-96177599D01*
X132552204Y-83382399D02*
X129939796Y-83382399D01*
X134512798Y-96177599D02*
X135357600Y-96177599D01*
X135357600Y-83382399D02*
X134511796Y-83382399D01*
X135357600Y-86514203D02*
X135357600Y-83382399D01*
X135357600Y-88808292D02*
X135357600Y-88473795D01*
X135357600Y-91081465D02*
X135357600Y-90751706D01*
X135357600Y-96177599D02*
X135357600Y-93050533D01*
X135357600Y-83382399D02*
X135360000Y-83729999D01*
X135010000Y-83379999D01*
X135357600Y-83382399D01*
G36*
X135357600Y-83382399D02*
G01*
X135360000Y-83729999D01*
X135010000Y-83379999D01*
X135357600Y-83382399D01*
G37*
%TD*%
%LPC*%
D12*
%TO.C,R2*%
X139030000Y-97704999D03*
X139030000Y-99354999D03*
%TD*%
D13*
%TO.C,C6*%
X143065000Y-102679999D03*
X149480000Y-102679999D03*
%TD*%
D14*
%TO.C,C1*%
X128280000Y-81529999D03*
X126730000Y-81529999D03*
%TD*%
D15*
%TO.C,D1*%
X130980000Y-98479999D03*
X134980000Y-98479999D03*
%TD*%
D13*
%TO.C,C5*%
X128472500Y-102479999D03*
X134887500Y-102479999D03*
%TD*%
D16*
%TO.C,J1*%
X127375000Y-76459999D03*
D17*
X129915000Y-76459999D03*
X132455000Y-76459999D03*
X134995000Y-76459999D03*
X137535000Y-76459999D03*
X140075000Y-76459999D03*
X142615000Y-76459999D03*
X145155000Y-76459999D03*
%TD*%
D16*
%TO.C,J2*%
X127375000Y-107099999D03*
D17*
X129915000Y-107099999D03*
X132455000Y-107099999D03*
X134995000Y-107099999D03*
X137535000Y-107099999D03*
X140075000Y-107099999D03*
X142615000Y-107099999D03*
X145155000Y-107099999D03*
%TD*%
D14*
%TO.C,C3*%
X142555000Y-81779999D03*
X141005000Y-81779999D03*
%TD*%
D12*
%TO.C,R1*%
X124280000Y-97704999D03*
X124280000Y-99354999D03*
%TD*%
D14*
%TO.C,C4*%
X145555000Y-81779999D03*
X144005000Y-81779999D03*
%TD*%
%TO.C,C2*%
X131280000Y-81529999D03*
X129730000Y-81529999D03*
%TD*%
D18*
%TO.C,PS2*%
X143600000Y-83679999D03*
X148180000Y-83679999D03*
X149700000Y-87489999D03*
X149700000Y-89779999D03*
X149700000Y-92069999D03*
X148180000Y-95879999D03*
X143600000Y-95879999D03*
X139020000Y-95879999D03*
X137500000Y-89779999D03*
X137500000Y-87489999D03*
X139020000Y-83679999D03*
X141310000Y-83679999D03*
X141310000Y-95879999D03*
X137500000Y-92069999D03*
%TD*%
D15*
%TO.C,D2*%
X145580000Y-98679999D03*
X149580000Y-98679999D03*
%TD*%
D18*
%TO.C,PS1*%
X128960000Y-83679999D03*
X133540000Y-83679999D03*
X135060000Y-87489999D03*
X135060000Y-89779999D03*
X135060000Y-92069999D03*
X133540000Y-95879999D03*
X128960000Y-95879999D03*
X124380000Y-95879999D03*
X122860000Y-89779999D03*
X122860000Y-87489999D03*
X124380000Y-83679999D03*
X126670000Y-83679999D03*
X126670000Y-95879999D03*
X122860000Y-92069999D03*
%TD*%
%LPD*%
M02*
