%TF.GenerationSoftware,KiCad,Pcbnew,9.0.6*%
%TF.CreationDate,2025-11-30T16:23:51+08:00*%
%TF.ProjectId,buck,6275636b-2e6b-4696-9361-645f70636258,rev?*%
%TF.SameCoordinates,Original*%
%TF.FileFunction,Legend,Bot*%
%TF.FilePolarity,Positive*%
%FSLAX46Y46*%
G04 Gerber Fmt 4.6, Leading zero omitted, Abs format (unit mm)*
G04 Created by KiCad (PCBNEW 9.0.6) date 2025-11-30 16:23:51*
%MOMM*%
%LPD*%
G01*
G04 APERTURE LIST*
%ADD10C,0.200000*%
%ADD11R,1.700000X1.700000*%
%ADD12O,1.700000X1.700000*%
G04 APERTURE END LIST*
D10*
X145518095Y-91427246D02*
X145518095Y-90427246D01*
X145518095Y-91379627D02*
X145613333Y-91427246D01*
X145613333Y-91427246D02*
X145803809Y-91427246D01*
X145803809Y-91427246D02*
X145899047Y-91379627D01*
X145899047Y-91379627D02*
X145946666Y-91332007D01*
X145946666Y-91332007D02*
X145994285Y-91236769D01*
X145994285Y-91236769D02*
X145994285Y-90951055D01*
X145994285Y-90951055D02*
X145946666Y-90855817D01*
X145946666Y-90855817D02*
X145899047Y-90808198D01*
X145899047Y-90808198D02*
X145803809Y-90760579D01*
X145803809Y-90760579D02*
X145613333Y-90760579D01*
X145613333Y-90760579D02*
X145518095Y-90808198D01*
X144660952Y-91379627D02*
X144756190Y-91427246D01*
X144756190Y-91427246D02*
X144946666Y-91427246D01*
X144946666Y-91427246D02*
X145041904Y-91379627D01*
X145041904Y-91379627D02*
X145089523Y-91284388D01*
X145089523Y-91284388D02*
X145089523Y-90903436D01*
X145089523Y-90903436D02*
X145041904Y-90808198D01*
X145041904Y-90808198D02*
X144946666Y-90760579D01*
X144946666Y-90760579D02*
X144756190Y-90760579D01*
X144756190Y-90760579D02*
X144660952Y-90808198D01*
X144660952Y-90808198D02*
X144613333Y-90903436D01*
X144613333Y-90903436D02*
X144613333Y-90998674D01*
X144613333Y-90998674D02*
X145089523Y-91093912D01*
X144232380Y-91379627D02*
X144137142Y-91427246D01*
X144137142Y-91427246D02*
X143946666Y-91427246D01*
X143946666Y-91427246D02*
X143851428Y-91379627D01*
X143851428Y-91379627D02*
X143803809Y-91284388D01*
X143803809Y-91284388D02*
X143803809Y-91236769D01*
X143803809Y-91236769D02*
X143851428Y-91141531D01*
X143851428Y-91141531D02*
X143946666Y-91093912D01*
X143946666Y-91093912D02*
X144089523Y-91093912D01*
X144089523Y-91093912D02*
X144184761Y-91046293D01*
X144184761Y-91046293D02*
X144232380Y-90951055D01*
X144232380Y-90951055D02*
X144232380Y-90903436D01*
X144232380Y-90903436D02*
X144184761Y-90808198D01*
X144184761Y-90808198D02*
X144089523Y-90760579D01*
X144089523Y-90760579D02*
X143946666Y-90760579D01*
X143946666Y-90760579D02*
X143851428Y-90808198D01*
X143375237Y-91427246D02*
X143375237Y-90760579D01*
X143375237Y-90427246D02*
X143422856Y-90474865D01*
X143422856Y-90474865D02*
X143375237Y-90522484D01*
X143375237Y-90522484D02*
X143327618Y-90474865D01*
X143327618Y-90474865D02*
X143375237Y-90427246D01*
X143375237Y-90427246D02*
X143375237Y-90522484D01*
X142470476Y-90760579D02*
X142470476Y-91570103D01*
X142470476Y-91570103D02*
X142518095Y-91665341D01*
X142518095Y-91665341D02*
X142565714Y-91712960D01*
X142565714Y-91712960D02*
X142660952Y-91760579D01*
X142660952Y-91760579D02*
X142803809Y-91760579D01*
X142803809Y-91760579D02*
X142899047Y-91712960D01*
X142470476Y-91379627D02*
X142565714Y-91427246D01*
X142565714Y-91427246D02*
X142756190Y-91427246D01*
X142756190Y-91427246D02*
X142851428Y-91379627D01*
X142851428Y-91379627D02*
X142899047Y-91332007D01*
X142899047Y-91332007D02*
X142946666Y-91236769D01*
X142946666Y-91236769D02*
X142946666Y-90951055D01*
X142946666Y-90951055D02*
X142899047Y-90855817D01*
X142899047Y-90855817D02*
X142851428Y-90808198D01*
X142851428Y-90808198D02*
X142756190Y-90760579D01*
X142756190Y-90760579D02*
X142565714Y-90760579D01*
X142565714Y-90760579D02*
X142470476Y-90808198D01*
X141994285Y-90760579D02*
X141994285Y-91427246D01*
X141994285Y-90855817D02*
X141946666Y-90808198D01*
X141946666Y-90808198D02*
X141851428Y-90760579D01*
X141851428Y-90760579D02*
X141708571Y-90760579D01*
X141708571Y-90760579D02*
X141613333Y-90808198D01*
X141613333Y-90808198D02*
X141565714Y-90903436D01*
X141565714Y-90903436D02*
X141565714Y-91427246D01*
X140184761Y-91427246D02*
X140279999Y-91379627D01*
X140279999Y-91379627D02*
X140327618Y-91332007D01*
X140327618Y-91332007D02*
X140375237Y-91236769D01*
X140375237Y-91236769D02*
X140375237Y-90951055D01*
X140375237Y-90951055D02*
X140327618Y-90855817D01*
X140327618Y-90855817D02*
X140279999Y-90808198D01*
X140279999Y-90808198D02*
X140184761Y-90760579D01*
X140184761Y-90760579D02*
X140041904Y-90760579D01*
X140041904Y-90760579D02*
X139946666Y-90808198D01*
X139946666Y-90808198D02*
X139899047Y-90855817D01*
X139899047Y-90855817D02*
X139851428Y-90951055D01*
X139851428Y-90951055D02*
X139851428Y-91236769D01*
X139851428Y-91236769D02*
X139899047Y-91332007D01*
X139899047Y-91332007D02*
X139946666Y-91379627D01*
X139946666Y-91379627D02*
X140041904Y-91427246D01*
X140041904Y-91427246D02*
X140184761Y-91427246D01*
X139565713Y-90760579D02*
X139184761Y-90760579D01*
X139422856Y-91427246D02*
X139422856Y-90570103D01*
X139422856Y-90570103D02*
X139375237Y-90474865D01*
X139375237Y-90474865D02*
X139279999Y-90427246D01*
X139279999Y-90427246D02*
X139184761Y-90427246D01*
X138137141Y-90522484D02*
X138089522Y-90474865D01*
X138089522Y-90474865D02*
X137994284Y-90427246D01*
X137994284Y-90427246D02*
X137756189Y-90427246D01*
X137756189Y-90427246D02*
X137660951Y-90474865D01*
X137660951Y-90474865D02*
X137613332Y-90522484D01*
X137613332Y-90522484D02*
X137565713Y-90617722D01*
X137565713Y-90617722D02*
X137565713Y-90712960D01*
X137565713Y-90712960D02*
X137613332Y-90855817D01*
X137613332Y-90855817D02*
X138184760Y-91427246D01*
X138184760Y-91427246D02*
X137565713Y-91427246D01*
X137137141Y-91046293D02*
X136375237Y-91046293D01*
X135327618Y-91332007D02*
X135375237Y-91379627D01*
X135375237Y-91379627D02*
X135518094Y-91427246D01*
X135518094Y-91427246D02*
X135613332Y-91427246D01*
X135613332Y-91427246D02*
X135756189Y-91379627D01*
X135756189Y-91379627D02*
X135851427Y-91284388D01*
X135851427Y-91284388D02*
X135899046Y-91189150D01*
X135899046Y-91189150D02*
X135946665Y-90998674D01*
X135946665Y-90998674D02*
X135946665Y-90855817D01*
X135946665Y-90855817D02*
X135899046Y-90665341D01*
X135899046Y-90665341D02*
X135851427Y-90570103D01*
X135851427Y-90570103D02*
X135756189Y-90474865D01*
X135756189Y-90474865D02*
X135613332Y-90427246D01*
X135613332Y-90427246D02*
X135518094Y-90427246D01*
X135518094Y-90427246D02*
X135375237Y-90474865D01*
X135375237Y-90474865D02*
X135327618Y-90522484D01*
X134899046Y-91427246D02*
X134899046Y-90427246D01*
X134470475Y-91427246D02*
X134470475Y-90903436D01*
X134470475Y-90903436D02*
X134518094Y-90808198D01*
X134518094Y-90808198D02*
X134613332Y-90760579D01*
X134613332Y-90760579D02*
X134756189Y-90760579D01*
X134756189Y-90760579D02*
X134851427Y-90808198D01*
X134851427Y-90808198D02*
X134899046Y-90855817D01*
X133565713Y-91427246D02*
X133565713Y-90903436D01*
X133565713Y-90903436D02*
X133613332Y-90808198D01*
X133613332Y-90808198D02*
X133708570Y-90760579D01*
X133708570Y-90760579D02*
X133899046Y-90760579D01*
X133899046Y-90760579D02*
X133994284Y-90808198D01*
X133565713Y-91379627D02*
X133660951Y-91427246D01*
X133660951Y-91427246D02*
X133899046Y-91427246D01*
X133899046Y-91427246D02*
X133994284Y-91379627D01*
X133994284Y-91379627D02*
X134041903Y-91284388D01*
X134041903Y-91284388D02*
X134041903Y-91189150D01*
X134041903Y-91189150D02*
X133994284Y-91093912D01*
X133994284Y-91093912D02*
X133899046Y-91046293D01*
X133899046Y-91046293D02*
X133660951Y-91046293D01*
X133660951Y-91046293D02*
X133565713Y-90998674D01*
X133089522Y-91427246D02*
X133089522Y-90760579D01*
X133089522Y-90427246D02*
X133137141Y-90474865D01*
X133137141Y-90474865D02*
X133089522Y-90522484D01*
X133089522Y-90522484D02*
X133041903Y-90474865D01*
X133041903Y-90474865D02*
X133089522Y-90427246D01*
X133089522Y-90427246D02*
X133089522Y-90522484D01*
X132613332Y-91427246D02*
X132613332Y-90760579D01*
X132613332Y-90951055D02*
X132565713Y-90855817D01*
X132565713Y-90855817D02*
X132518094Y-90808198D01*
X132518094Y-90808198D02*
X132422856Y-90760579D01*
X132422856Y-90760579D02*
X132327618Y-90760579D01*
X132041903Y-91379627D02*
X131946665Y-91427246D01*
X131946665Y-91427246D02*
X131756189Y-91427246D01*
X131756189Y-91427246D02*
X131660951Y-91379627D01*
X131660951Y-91379627D02*
X131613332Y-91284388D01*
X131613332Y-91284388D02*
X131613332Y-91236769D01*
X131613332Y-91236769D02*
X131660951Y-91141531D01*
X131660951Y-91141531D02*
X131756189Y-91093912D01*
X131756189Y-91093912D02*
X131899046Y-91093912D01*
X131899046Y-91093912D02*
X131994284Y-91046293D01*
X131994284Y-91046293D02*
X132041903Y-90951055D01*
X132041903Y-90951055D02*
X132041903Y-90903436D01*
X132041903Y-90903436D02*
X131994284Y-90808198D01*
X131994284Y-90808198D02*
X131899046Y-90760579D01*
X131899046Y-90760579D02*
X131756189Y-90760579D01*
X131756189Y-90760579D02*
X131660951Y-90808198D01*
X131184760Y-91332007D02*
X131137141Y-91379627D01*
X131137141Y-91379627D02*
X131184760Y-91427246D01*
X131184760Y-91427246D02*
X131232379Y-91379627D01*
X131232379Y-91379627D02*
X131184760Y-91332007D01*
X131184760Y-91332007D02*
X131184760Y-91427246D01*
X129994284Y-90522484D02*
X129946665Y-90474865D01*
X129946665Y-90474865D02*
X129851427Y-90427246D01*
X129851427Y-90427246D02*
X129613332Y-90427246D01*
X129613332Y-90427246D02*
X129518094Y-90474865D01*
X129518094Y-90474865D02*
X129470475Y-90522484D01*
X129470475Y-90522484D02*
X129422856Y-90617722D01*
X129422856Y-90617722D02*
X129422856Y-90712960D01*
X129422856Y-90712960D02*
X129470475Y-90855817D01*
X129470475Y-90855817D02*
X130041903Y-91427246D01*
X130041903Y-91427246D02*
X129422856Y-91427246D01*
X128803808Y-90427246D02*
X128708570Y-90427246D01*
X128708570Y-90427246D02*
X128613332Y-90474865D01*
X128613332Y-90474865D02*
X128565713Y-90522484D01*
X128565713Y-90522484D02*
X128518094Y-90617722D01*
X128518094Y-90617722D02*
X128470475Y-90808198D01*
X128470475Y-90808198D02*
X128470475Y-91046293D01*
X128470475Y-91046293D02*
X128518094Y-91236769D01*
X128518094Y-91236769D02*
X128565713Y-91332007D01*
X128565713Y-91332007D02*
X128613332Y-91379627D01*
X128613332Y-91379627D02*
X128708570Y-91427246D01*
X128708570Y-91427246D02*
X128803808Y-91427246D01*
X128803808Y-91427246D02*
X128899046Y-91379627D01*
X128899046Y-91379627D02*
X128946665Y-91332007D01*
X128946665Y-91332007D02*
X128994284Y-91236769D01*
X128994284Y-91236769D02*
X129041903Y-91046293D01*
X129041903Y-91046293D02*
X129041903Y-90808198D01*
X129041903Y-90808198D02*
X128994284Y-90617722D01*
X128994284Y-90617722D02*
X128946665Y-90522484D01*
X128946665Y-90522484D02*
X128899046Y-90474865D01*
X128899046Y-90474865D02*
X128803808Y-90427246D01*
X128089522Y-90522484D02*
X128041903Y-90474865D01*
X128041903Y-90474865D02*
X127946665Y-90427246D01*
X127946665Y-90427246D02*
X127708570Y-90427246D01*
X127708570Y-90427246D02*
X127613332Y-90474865D01*
X127613332Y-90474865D02*
X127565713Y-90522484D01*
X127565713Y-90522484D02*
X127518094Y-90617722D01*
X127518094Y-90617722D02*
X127518094Y-90712960D01*
X127518094Y-90712960D02*
X127565713Y-90855817D01*
X127565713Y-90855817D02*
X128137141Y-91427246D01*
X128137141Y-91427246D02*
X127518094Y-91427246D01*
X126613332Y-90427246D02*
X127089522Y-90427246D01*
X127089522Y-90427246D02*
X127137141Y-90903436D01*
X127137141Y-90903436D02*
X127089522Y-90855817D01*
X127089522Y-90855817D02*
X126994284Y-90808198D01*
X126994284Y-90808198D02*
X126756189Y-90808198D01*
X126756189Y-90808198D02*
X126660951Y-90855817D01*
X126660951Y-90855817D02*
X126613332Y-90903436D01*
X126613332Y-90903436D02*
X126565713Y-90998674D01*
X126565713Y-90998674D02*
X126565713Y-91236769D01*
X126565713Y-91236769D02*
X126613332Y-91332007D01*
X126613332Y-91332007D02*
X126660951Y-91379627D01*
X126660951Y-91379627D02*
X126756189Y-91427246D01*
X126756189Y-91427246D02*
X126994284Y-91427246D01*
X126994284Y-91427246D02*
X127089522Y-91379627D01*
X127089522Y-91379627D02*
X127137141Y-91332007D01*
X146565715Y-92037190D02*
X146565715Y-92751475D01*
X146565715Y-92751475D02*
X146613334Y-92894332D01*
X146613334Y-92894332D02*
X146708572Y-92989571D01*
X146708572Y-92989571D02*
X146851429Y-93037190D01*
X146851429Y-93037190D02*
X146946667Y-93037190D01*
X145613334Y-93037190D02*
X146089524Y-93037190D01*
X146089524Y-93037190D02*
X146089524Y-92037190D01*
X144708572Y-92941951D02*
X144756191Y-92989571D01*
X144756191Y-92989571D02*
X144899048Y-93037190D01*
X144899048Y-93037190D02*
X144994286Y-93037190D01*
X144994286Y-93037190D02*
X145137143Y-92989571D01*
X145137143Y-92989571D02*
X145232381Y-92894332D01*
X145232381Y-92894332D02*
X145280000Y-92799094D01*
X145280000Y-92799094D02*
X145327619Y-92608618D01*
X145327619Y-92608618D02*
X145327619Y-92465761D01*
X145327619Y-92465761D02*
X145280000Y-92275285D01*
X145280000Y-92275285D02*
X145232381Y-92180047D01*
X145232381Y-92180047D02*
X145137143Y-92084809D01*
X145137143Y-92084809D02*
X144994286Y-92037190D01*
X144994286Y-92037190D02*
X144899048Y-92037190D01*
X144899048Y-92037190D02*
X144756191Y-92084809D01*
X144756191Y-92084809D02*
X144708572Y-92132428D01*
X143327619Y-92037190D02*
X143137143Y-92037190D01*
X143137143Y-92037190D02*
X143041905Y-92084809D01*
X143041905Y-92084809D02*
X142946667Y-92180047D01*
X142946667Y-92180047D02*
X142899048Y-92370523D01*
X142899048Y-92370523D02*
X142899048Y-92703856D01*
X142899048Y-92703856D02*
X142946667Y-92894332D01*
X142946667Y-92894332D02*
X143041905Y-92989571D01*
X143041905Y-92989571D02*
X143137143Y-93037190D01*
X143137143Y-93037190D02*
X143327619Y-93037190D01*
X143327619Y-93037190D02*
X143422857Y-92989571D01*
X143422857Y-92989571D02*
X143518095Y-92894332D01*
X143518095Y-92894332D02*
X143565714Y-92703856D01*
X143565714Y-92703856D02*
X143565714Y-92370523D01*
X143565714Y-92370523D02*
X143518095Y-92180047D01*
X143518095Y-92180047D02*
X143422857Y-92084809D01*
X143422857Y-92084809D02*
X143327619Y-92037190D01*
X142470476Y-93037190D02*
X142470476Y-92370523D01*
X142470476Y-92560999D02*
X142422857Y-92465761D01*
X142422857Y-92465761D02*
X142375238Y-92418142D01*
X142375238Y-92418142D02*
X142280000Y-92370523D01*
X142280000Y-92370523D02*
X142184762Y-92370523D01*
X141422857Y-93037190D02*
X141422857Y-92037190D01*
X141422857Y-92989571D02*
X141518095Y-93037190D01*
X141518095Y-93037190D02*
X141708571Y-93037190D01*
X141708571Y-93037190D02*
X141803809Y-92989571D01*
X141803809Y-92989571D02*
X141851428Y-92941951D01*
X141851428Y-92941951D02*
X141899047Y-92846713D01*
X141899047Y-92846713D02*
X141899047Y-92560999D01*
X141899047Y-92560999D02*
X141851428Y-92465761D01*
X141851428Y-92465761D02*
X141803809Y-92418142D01*
X141803809Y-92418142D02*
X141708571Y-92370523D01*
X141708571Y-92370523D02*
X141518095Y-92370523D01*
X141518095Y-92370523D02*
X141422857Y-92418142D01*
X140565714Y-92989571D02*
X140660952Y-93037190D01*
X140660952Y-93037190D02*
X140851428Y-93037190D01*
X140851428Y-93037190D02*
X140946666Y-92989571D01*
X140946666Y-92989571D02*
X140994285Y-92894332D01*
X140994285Y-92894332D02*
X140994285Y-92513380D01*
X140994285Y-92513380D02*
X140946666Y-92418142D01*
X140946666Y-92418142D02*
X140851428Y-92370523D01*
X140851428Y-92370523D02*
X140660952Y-92370523D01*
X140660952Y-92370523D02*
X140565714Y-92418142D01*
X140565714Y-92418142D02*
X140518095Y-92513380D01*
X140518095Y-92513380D02*
X140518095Y-92608618D01*
X140518095Y-92608618D02*
X140994285Y-92703856D01*
X140089523Y-93037190D02*
X140089523Y-92370523D01*
X140089523Y-92560999D02*
X140041904Y-92465761D01*
X140041904Y-92465761D02*
X139994285Y-92418142D01*
X139994285Y-92418142D02*
X139899047Y-92370523D01*
X139899047Y-92370523D02*
X139803809Y-92370523D01*
X138708570Y-93037190D02*
X138708570Y-92037190D01*
X138708570Y-92037190D02*
X138137142Y-93037190D01*
X138137142Y-93037190D02*
X138137142Y-92037190D01*
X137518094Y-93037190D02*
X137613332Y-92989571D01*
X137613332Y-92989571D02*
X137660951Y-92941951D01*
X137660951Y-92941951D02*
X137708570Y-92846713D01*
X137708570Y-92846713D02*
X137708570Y-92560999D01*
X137708570Y-92560999D02*
X137660951Y-92465761D01*
X137660951Y-92465761D02*
X137613332Y-92418142D01*
X137613332Y-92418142D02*
X137518094Y-92370523D01*
X137518094Y-92370523D02*
X137375237Y-92370523D01*
X137375237Y-92370523D02*
X137279999Y-92418142D01*
X137279999Y-92418142D02*
X137232380Y-92465761D01*
X137232380Y-92465761D02*
X137184761Y-92560999D01*
X137184761Y-92560999D02*
X137184761Y-92846713D01*
X137184761Y-92846713D02*
X137232380Y-92941951D01*
X137232380Y-92941951D02*
X137279999Y-92989571D01*
X137279999Y-92989571D02*
X137375237Y-93037190D01*
X137375237Y-93037190D02*
X137518094Y-93037190D01*
X136756189Y-92941951D02*
X136708570Y-92989571D01*
X136708570Y-92989571D02*
X136756189Y-93037190D01*
X136756189Y-93037190D02*
X136803808Y-92989571D01*
X136803808Y-92989571D02*
X136756189Y-92941951D01*
X136756189Y-92941951D02*
X136756189Y-93037190D01*
X135232380Y-92037190D02*
X135232380Y-92751475D01*
X135232380Y-92751475D02*
X135279999Y-92894332D01*
X135279999Y-92894332D02*
X135375237Y-92989571D01*
X135375237Y-92989571D02*
X135518094Y-93037190D01*
X135518094Y-93037190D02*
X135613332Y-93037190D01*
X134279999Y-93037190D02*
X134756189Y-93037190D01*
X134756189Y-93037190D02*
X134756189Y-92037190D01*
X133375237Y-92941951D02*
X133422856Y-92989571D01*
X133422856Y-92989571D02*
X133565713Y-93037190D01*
X133565713Y-93037190D02*
X133660951Y-93037190D01*
X133660951Y-93037190D02*
X133803808Y-92989571D01*
X133803808Y-92989571D02*
X133899046Y-92894332D01*
X133899046Y-92894332D02*
X133946665Y-92799094D01*
X133946665Y-92799094D02*
X133994284Y-92608618D01*
X133994284Y-92608618D02*
X133994284Y-92465761D01*
X133994284Y-92465761D02*
X133946665Y-92275285D01*
X133946665Y-92275285D02*
X133899046Y-92180047D01*
X133899046Y-92180047D02*
X133803808Y-92084809D01*
X133803808Y-92084809D02*
X133660951Y-92037190D01*
X133660951Y-92037190D02*
X133565713Y-92037190D01*
X133565713Y-92037190D02*
X133422856Y-92084809D01*
X133422856Y-92084809D02*
X133375237Y-92132428D01*
X132660951Y-92037190D02*
X132660951Y-92751475D01*
X132660951Y-92751475D02*
X132708570Y-92894332D01*
X132708570Y-92894332D02*
X132803808Y-92989571D01*
X132803808Y-92989571D02*
X132946665Y-93037190D01*
X132946665Y-93037190D02*
X133041903Y-93037190D01*
X131708570Y-93037190D02*
X132184760Y-93037190D01*
X132184760Y-93037190D02*
X132184760Y-92037190D01*
X130803808Y-92941951D02*
X130851427Y-92989571D01*
X130851427Y-92989571D02*
X130994284Y-93037190D01*
X130994284Y-93037190D02*
X131089522Y-93037190D01*
X131089522Y-93037190D02*
X131232379Y-92989571D01*
X131232379Y-92989571D02*
X131327617Y-92894332D01*
X131327617Y-92894332D02*
X131375236Y-92799094D01*
X131375236Y-92799094D02*
X131422855Y-92608618D01*
X131422855Y-92608618D02*
X131422855Y-92465761D01*
X131422855Y-92465761D02*
X131375236Y-92275285D01*
X131375236Y-92275285D02*
X131327617Y-92180047D01*
X131327617Y-92180047D02*
X131232379Y-92084809D01*
X131232379Y-92084809D02*
X131089522Y-92037190D01*
X131089522Y-92037190D02*
X130994284Y-92037190D01*
X130994284Y-92037190D02*
X130851427Y-92084809D01*
X130851427Y-92084809D02*
X130803808Y-92132428D01*
X130089522Y-92037190D02*
X130089522Y-92751475D01*
X130089522Y-92751475D02*
X130137141Y-92894332D01*
X130137141Y-92894332D02*
X130232379Y-92989571D01*
X130232379Y-92989571D02*
X130375236Y-93037190D01*
X130375236Y-93037190D02*
X130470474Y-93037190D01*
X129137141Y-93037190D02*
X129613331Y-93037190D01*
X129613331Y-93037190D02*
X129613331Y-92037190D01*
X128232379Y-92941951D02*
X128279998Y-92989571D01*
X128279998Y-92989571D02*
X128422855Y-93037190D01*
X128422855Y-93037190D02*
X128518093Y-93037190D01*
X128518093Y-93037190D02*
X128660950Y-92989571D01*
X128660950Y-92989571D02*
X128756188Y-92894332D01*
X128756188Y-92894332D02*
X128803807Y-92799094D01*
X128803807Y-92799094D02*
X128851426Y-92608618D01*
X128851426Y-92608618D02*
X128851426Y-92465761D01*
X128851426Y-92465761D02*
X128803807Y-92275285D01*
X128803807Y-92275285D02*
X128756188Y-92180047D01*
X128756188Y-92180047D02*
X128660950Y-92084809D01*
X128660950Y-92084809D02*
X128518093Y-92037190D01*
X128518093Y-92037190D02*
X128422855Y-92037190D01*
X128422855Y-92037190D02*
X128279998Y-92084809D01*
X128279998Y-92084809D02*
X128232379Y-92132428D01*
X127518093Y-92037190D02*
X127518093Y-92751475D01*
X127518093Y-92751475D02*
X127565712Y-92894332D01*
X127565712Y-92894332D02*
X127660950Y-92989571D01*
X127660950Y-92989571D02*
X127803807Y-93037190D01*
X127803807Y-93037190D02*
X127899045Y-93037190D01*
X126565712Y-93037190D02*
X127041902Y-93037190D01*
X127041902Y-93037190D02*
X127041902Y-92037190D01*
X125660950Y-92941951D02*
X125708569Y-92989571D01*
X125708569Y-92989571D02*
X125851426Y-93037190D01*
X125851426Y-93037190D02*
X125946664Y-93037190D01*
X125946664Y-93037190D02*
X126089521Y-92989571D01*
X126089521Y-92989571D02*
X126184759Y-92894332D01*
X126184759Y-92894332D02*
X126232378Y-92799094D01*
X126232378Y-92799094D02*
X126279997Y-92608618D01*
X126279997Y-92608618D02*
X126279997Y-92465761D01*
X126279997Y-92465761D02*
X126232378Y-92275285D01*
X126232378Y-92275285D02*
X126184759Y-92180047D01*
X126184759Y-92180047D02*
X126089521Y-92084809D01*
X126089521Y-92084809D02*
X125946664Y-92037190D01*
X125946664Y-92037190D02*
X125851426Y-92037190D01*
X125851426Y-92037190D02*
X125708569Y-92084809D01*
X125708569Y-92084809D02*
X125660950Y-92132428D01*
%LPC*%
D11*
%TO.C,J1*%
X127375000Y-76459999D03*
D12*
X129915000Y-76459999D03*
X132455000Y-76459999D03*
X134995000Y-76459999D03*
X137535000Y-76459999D03*
X140075000Y-76459999D03*
X142615000Y-76459999D03*
X145155000Y-76459999D03*
%TD*%
D11*
%TO.C,J2*%
X127375000Y-107099999D03*
D12*
X129915000Y-107099999D03*
X132455000Y-107099999D03*
X134995000Y-107099999D03*
X137535000Y-107099999D03*
X140075000Y-107099999D03*
X142615000Y-107099999D03*
X145155000Y-107099999D03*
%TD*%
%LPD*%
M02*
