M48
; DRILL file {KiCad 9.0.6} date 2025-11-30T16:23:51+0800
; FORMAT={-:-/ absolute / inch / decimal}
; #@! TF.CreationDate,2025-11-30T16:23:51+08:00
; #@! TF.GenerationSoftware,Kicad,Pcbnew,9.0.6
; #@! TF.FileFunction,Plated,1,2,PTH
FMAT,2
INCH
; #@! TA.AperFunction,Plated,PTH,ViaDrill
T1C0.0118
; #@! TA.AperFunction,Plated,PTH,ComponentDrill
T2C0.0394
%
G90
G05
T1
X4.9894Y-3.2098
X5.1075Y-3.2098
X5.5514Y-3.2197
X5.6695Y-3.2197
T2
X5.0148Y-3.0102
X5.0148Y-4.2165
X5.1148Y-3.0102
X5.1148Y-4.2165
X5.2148Y-3.0102
X5.2148Y-4.2165
X5.3148Y-3.0102
X5.3148Y-4.2165
X5.4148Y-3.0102
X5.4148Y-4.2165
X5.5148Y-3.0102
X5.5148Y-4.2165
X5.6148Y-3.0102
X5.6148Y-4.2165
X5.7148Y-3.0102
X5.7148Y-4.2165
M30
