%TF.GenerationSoftware,KiCad,Pcbnew,9.0.6*%
%TF.CreationDate,2026-02-23T20:55:51+08:00*%
%TF.ProjectId,layer3,6c617965-7233-42e6-9b69-6361645f7063,rev?*%
%TF.SameCoordinates,Original*%
%TF.FileFunction,Legend,Bot*%
%TF.FilePolarity,Positive*%
%FSLAX46Y46*%
G04 Gerber Fmt 4.6, Leading zero omitted, Abs format (unit mm)*
G04 Created by KiCad (PCBNEW 9.0.6) date 2026-02-23 20:55:51*
%MOMM*%
%LPD*%
G01*
G04 APERTURE LIST*
G04 Aperture macros list*
%AMRoundRect*
0 Rectangle with rounded corners*
0 $1 Rounding radius*
0 $2 $3 $4 $5 $6 $7 $8 $9 X,Y pos of 4 corners*
0 Add a 4 corners polygon primitive as box body*
4,1,4,$2,$3,$4,$5,$6,$7,$8,$9,$2,$3,0*
0 Add four circle primitives for the rounded corners*
1,1,$1+$1,$2,$3*
1,1,$1+$1,$4,$5*
1,1,$1+$1,$6,$7*
1,1,$1+$1,$8,$9*
0 Add four rect primitives between the rounded corners*
20,1,$1+$1,$2,$3,$4,$5,0*
20,1,$1+$1,$4,$5,$6,$7,0*
20,1,$1+$1,$6,$7,$8,$9,0*
20,1,$1+$1,$8,$9,$2,$3,0*%
G04 Aperture macros list end*
%ADD10C,0.300000*%
%ADD11C,0.120000*%
%ADD12C,0.127000*%
%ADD13C,0.200000*%
%ADD14RoundRect,0.250200X0.649800X0.649800X-0.649800X0.649800X-0.649800X-0.649800X0.649800X-0.649800X0*%
%ADD15C,1.800000*%
%ADD16RoundRect,0.250200X-0.913177X0.102897X-0.102897X-0.913177X0.913177X-0.102897X0.102897X0.913177X0*%
%ADD17RoundRect,0.250200X0.778094X-0.488927X0.488927X0.778094X-0.778094X0.488927X-0.488927X-0.778094X0*%
%ADD18C,1.400000*%
%ADD19RoundRect,0.250200X0.778112X0.488898X-0.488898X0.778112X-0.778112X-0.488898X0.488898X-0.778112X0*%
%ADD20RoundRect,0.250200X-0.649797X0.649803X-0.649803X-0.649797X0.649797X-0.649803X0.649803X0.649797X0*%
%ADD21RoundRect,0.102000X-0.679000X-0.679000X0.679000X-0.679000X0.679000X0.679000X-0.679000X0.679000X0*%
%ADD22C,1.562000*%
%ADD23RoundRect,0.250200X0.102878X-0.913179X0.913179X0.102878X-0.102878X0.913179X-0.913179X-0.102878X0*%
%ADD24RoundRect,0.250200X0.867382X-0.303527X0.303527X0.867382X-0.867382X0.303527X-0.303527X-0.867382X0*%
%ADD25RoundRect,0.250200X0.303513X0.867387X-0.867387X0.303513X-0.303513X-0.867387X0.867387X-0.303513X0*%
%ADD26RoundRect,0.250200X-0.649807X-0.649793X0.649793X-0.649807X0.649807X0.649793X-0.649793X0.649807X0*%
%ADD27C,5.600000*%
%ADD28C,6.000000*%
%ADD29R,1.700000X1.700000*%
%ADD30O,1.700000X1.700000*%
%ADD31RoundRect,0.250200X-0.488923X-0.778097X0.778097X-0.488923X0.488923X0.778097X-0.778097X0.488923X0*%
%ADD32RoundRect,0.250200X-0.778107X-0.488906X0.488906X-0.778107X0.778107X0.488906X-0.488906X0.778107X0*%
%ADD33RoundRect,0.250200X-0.778099X0.488919X-0.488919X-0.778099X0.778099X-0.488919X0.488919X0.778099X0*%
%ADD34RoundRect,0.250200X-0.102888X0.913178X-0.913178X-0.102888X0.102888X-0.913178X0.913178X0.102888X0*%
%ADD35RoundRect,0.250200X0.867393X0.303495X-0.303495X0.867393X-0.867393X-0.303495X0.303495X-0.867393X0*%
%ADD36RoundRect,0.250200X0.913176X-0.102907X0.102907X0.913176X-0.913176X0.102907X-0.102907X-0.913176X0*%
%ADD37RoundRect,0.250200X-0.867385X0.303518X-0.303518X-0.867385X0.867385X-0.303518X0.303518X0.867385X0*%
%ADD38RoundRect,0.250200X-0.913179X-0.102883X0.102883X-0.913179X0.913179X0.102883X-0.102883X0.913179X0*%
%ADD39RoundRect,0.250200X-0.303522X-0.867384X0.867384X-0.303522X0.303522X0.867384X-0.867384X0.303522X0*%
%ADD40RoundRect,0.250200X0.649790X-0.649810X0.649810X0.649790X-0.649790X0.649810X-0.649810X-0.649790X0*%
%ADD41RoundRect,0.250200X0.303500X-0.867392X0.867392X0.303500X-0.303500X0.867392X-0.867392X-0.303500X0*%
%ADD42C,1.982000*%
%ADD43C,3.404000*%
%ADD44RoundRect,0.250200X0.102892X0.913178X-0.913178X0.102892X-0.102892X-0.913178X0.913178X-0.102892X0*%
%ADD45RoundRect,0.250200X-0.488911X0.778104X-0.778104X-0.488911X0.488911X-0.778104X0.778104X0.488911X0*%
%ADD46RoundRect,0.250200X0.488915X0.778102X-0.778102X0.488915X-0.488915X-0.778102X0.778102X-0.488915X0*%
%ADD47RoundRect,0.250200X-0.102902X-0.913176X0.913176X-0.102902X0.102902X0.913176X-0.913176X0.102902X0*%
%ADD48RoundRect,0.250200X-0.303509X0.867388X-0.867388X-0.303509X0.303509X-0.867388X0.867388X0.303509X0*%
%ADD49RoundRect,0.250200X0.913180X0.102873X-0.102873X0.913180X-0.913180X-0.102873X0.102873X-0.913180X0*%
%ADD50RoundRect,0.250200X-0.867390X-0.303504X0.303504X-0.867390X0.867390X0.303504X-0.303504X0.867390X0*%
%ADD51RoundRect,0.250200X0.488902X-0.778110X0.778110X0.488902X-0.488902X0.778110X-0.778110X-0.488902X0*%
%ADD52RoundRect,0.200000X0.275000X-0.200000X0.275000X0.200000X-0.275000X0.200000X-0.275000X-0.200000X0*%
%ADD53RoundRect,0.200000X-0.275000X0.200000X-0.275000X-0.200000X0.275000X-0.200000X0.275000X0.200000X0*%
%ADD54RoundRect,0.200000X-0.200000X-0.275000X0.200000X-0.275000X0.200000X0.275000X-0.200000X0.275000X0*%
%ADD55RoundRect,0.085500X-0.256500X0.966500X-0.256500X-0.966500X0.256500X-0.966500X0.256500X0.966500X0*%
%ADD56RoundRect,0.250000X-0.600000X-0.725000X0.600000X-0.725000X0.600000X0.725000X-0.600000X0.725000X0*%
%ADD57O,1.700000X1.950000*%
%ADD58C,2.754000*%
%ADD59RoundRect,0.102000X-1.275000X1.275000X-1.275000X-1.275000X1.275000X-1.275000X1.275000X1.275000X0*%
%ADD60C,1.712000*%
%ADD61RoundRect,0.200000X0.200000X0.275000X-0.200000X0.275000X-0.200000X-0.275000X0.200000X-0.275000X0*%
%ADD62RoundRect,0.225000X0.250000X-0.225000X0.250000X0.225000X-0.250000X0.225000X-0.250000X-0.225000X0*%
%ADD63RoundRect,0.225000X-0.250000X0.225000X-0.250000X-0.225000X0.250000X-0.225000X0.250000X0.225000X0*%
%ADD64RoundRect,0.085500X0.256500X-0.966500X0.256500X0.966500X-0.256500X0.966500X-0.256500X-0.966500X0*%
G04 APERTURE END LIST*
D10*
G36*
X12310327Y272799D02*
G01*
X11673342Y272799D01*
X11270341Y-2765826D01*
X11272783Y-2765826D01*
X10870027Y272799D01*
X10288973Y272799D01*
X10884193Y-3660000D01*
X11714863Y-3660000D01*
X12310327Y272799D01*
G37*
G36*
X10009315Y272799D02*
G01*
X8314758Y272799D01*
X8314758Y-302393D01*
X9377947Y-302393D01*
X9377947Y-1322107D01*
X8533111Y-1322107D01*
X8533111Y-1897299D01*
X9377947Y-1897299D01*
X9377947Y-3084808D01*
X8314758Y-3084808D01*
X8314758Y-3660000D01*
X10009315Y-3660000D01*
X10009315Y272799D01*
G37*
G36*
X7977215Y272799D02*
G01*
X7190997Y272799D01*
X6592113Y-2071933D01*
X6594800Y-2071933D01*
X6594800Y272799D01*
X6030843Y272799D01*
X6030843Y-3660000D01*
X6677110Y-3660000D01*
X7415700Y-800404D01*
X7413014Y-800404D01*
X7413014Y-3660000D01*
X7977215Y-3660000D01*
X7977215Y272799D01*
G37*
G36*
X5108094Y-302393D02*
G01*
X5751674Y-302393D01*
X5751674Y272799D01*
X3833390Y272799D01*
X3833390Y-302393D01*
X4476970Y-302393D01*
X4476970Y-3660000D01*
X5108094Y-3660000D01*
X5108094Y-302393D01*
G37*
G36*
X2658582Y272799D02*
G01*
X964025Y272799D01*
X964025Y-302393D01*
X2027215Y-302393D01*
X2027215Y-1322107D01*
X1182379Y-1322107D01*
X1182379Y-1897299D01*
X2027215Y-1897299D01*
X2027215Y-3084808D01*
X964025Y-3084808D01*
X964025Y-3660000D01*
X2658582Y-3660000D01*
X2658582Y272799D01*
G37*
G36*
X72295Y-1648904D02*
G01*
X752023Y272799D01*
X86461Y272799D01*
X-327775Y-991891D01*
X-753002Y272799D01*
X-1351641Y272799D01*
X-671669Y-1648904D01*
X-1385102Y-3660000D01*
X-719296Y-3660000D01*
X-271599Y-2294438D01*
X-271843Y-2294438D01*
X187089Y-3660000D01*
X785728Y-3660000D01*
X72295Y-1648904D01*
G37*
G36*
X-1655723Y272799D02*
G01*
X-2287091Y272799D01*
X-2287091Y-1322107D01*
X-2931648Y-1322107D01*
X-2931648Y272799D01*
X-3563016Y272799D01*
X-3563016Y-3660000D01*
X-2931648Y-3660000D01*
X-2931648Y-1897299D01*
X-2287091Y-1897299D01*
X-2287091Y-3660000D01*
X-1655723Y-3660000D01*
X-1655723Y272799D01*
G37*
G36*
X-3840720Y-3660000D02*
G01*
X-4427635Y-3660000D01*
X-4539499Y-2893321D01*
X-5234717Y-2893321D01*
X-5337196Y-3660000D01*
X-5969052Y-3660000D01*
X-5754998Y-2345973D01*
X-5150350Y-2345973D01*
X-4614481Y-2345973D01*
X-4879742Y-434203D01*
X-5150350Y-2345973D01*
X-5754998Y-2345973D01*
X-5328403Y272799D01*
X-4481369Y272799D01*
X-3840720Y-3660000D01*
G37*
G36*
X-7138975Y-3715931D02*
G01*
X-6914705Y-3697852D01*
X-6729838Y-3647303D01*
X-6576998Y-3567614D01*
X-6450699Y-3458988D01*
X-6351642Y-3324801D01*
X-6277819Y-3161672D01*
X-6230524Y-2963672D01*
X-6213539Y-2723328D01*
X-6213539Y272799D01*
X-6844663Y272799D01*
X-6844663Y-2768025D01*
X-6867256Y-2948659D01*
X-6923553Y-3053789D01*
X-7016410Y-3117682D01*
X-7150210Y-3140739D01*
X-7284180Y-3117663D01*
X-7376868Y-3053789D01*
X-7433165Y-2948659D01*
X-7455758Y-2768025D01*
X-7455758Y272799D01*
X-8064656Y272799D01*
X-8064656Y-2723328D01*
X-8047655Y-2963655D01*
X-8000318Y-3161649D01*
X-7926420Y-3324785D01*
X-7827252Y-3458988D01*
X-7700952Y-3567614D01*
X-7548113Y-3647303D01*
X-7363245Y-3697852D01*
X-7138975Y-3715931D01*
G37*
G36*
X-9294907Y-3715931D02*
G01*
X-9070519Y-3697766D01*
X-8886705Y-3647106D01*
X-8735767Y-3567433D01*
X-8612004Y-3458988D01*
X-8515488Y-3325053D01*
X-8443373Y-3162015D01*
X-8397096Y-2963921D01*
X-8380462Y-2723328D01*
X-8380462Y-2491542D01*
X-8978124Y-2491542D01*
X-8978124Y-2768025D01*
X-9001176Y-2943305D01*
X-9060590Y-3052996D01*
X-9152826Y-3117313D01*
X-9289289Y-3140739D01*
X-9427648Y-3116772D01*
X-9521320Y-3050858D01*
X-9577737Y-2942780D01*
X-9600455Y-2756789D01*
X-9571840Y-2524133D01*
X-9489324Y-2326922D01*
X-9346879Y-2139577D01*
X-9077042Y-1878492D01*
X-8830626Y-1642721D01*
X-8657623Y-1441207D01*
X-8543616Y-1268862D01*
X-8460118Y-1081767D01*
X-8409190Y-877570D01*
X-8391697Y-652637D01*
X-8408532Y-418366D01*
X-8455587Y-223891D01*
X-8529378Y-62255D01*
X-8628857Y72031D01*
X-8755156Y180658D01*
X-8907996Y260347D01*
X-9092863Y310896D01*
X-9317133Y328975D01*
X-9538619Y310828D01*
X-9720089Y260193D01*
X-9869174Y180474D01*
X-9991487Y71787D01*
X-10086765Y-61850D01*
X-10158063Y-224763D01*
X-10203868Y-422949D01*
X-10220343Y-663872D01*
X-10220343Y-833866D01*
X-9622925Y-833866D01*
X-9622925Y-624794D01*
X-9601057Y-443480D01*
X-9546477Y-336343D01*
X-9455762Y-270292D01*
X-9322751Y-246461D01*
X-9191795Y-269297D01*
X-9102855Y-332253D01*
X-9045248Y-440240D01*
X-9022820Y-613558D01*
X-9051091Y-816497D01*
X-9136637Y-1007278D01*
X-9281121Y-1192453D01*
X-9551850Y-1452533D01*
X-9801225Y-1689069D01*
X-9973857Y-1891510D01*
X-10085277Y-2065094D01*
X-10164807Y-2254070D01*
X-10214293Y-2468163D01*
X-10231578Y-2712093D01*
X-10214383Y-2955249D01*
X-10166506Y-3155553D01*
X-10091771Y-3320570D01*
X-9991487Y-3456301D01*
X-9863775Y-3566032D01*
X-9709140Y-3646557D01*
X-9522012Y-3697653D01*
X-9294907Y-3715931D01*
G37*
G36*
X-11051013Y-302393D02*
G01*
X-10407433Y-302393D01*
X-10407433Y272799D01*
X-12325716Y272799D01*
X-12325716Y-302393D01*
X-11682136Y-302393D01*
X-11682136Y-3660000D01*
X-11051013Y-3660000D01*
X-11051013Y-302393D01*
G37*
G36*
X-47891379Y-12710305D02*
G01*
X-50330188Y-12710305D01*
X-50330188Y-12025121D01*
X-50107966Y-12025121D01*
X-50098927Y-12137256D01*
X-50073652Y-12229689D01*
X-50033808Y-12306109D01*
X-49979495Y-12369259D01*
X-49912401Y-12418787D01*
X-49830837Y-12455699D01*
X-49731837Y-12479346D01*
X-49611665Y-12487839D01*
X-49453762Y-12487839D01*
X-49453762Y-12189008D01*
X-49634013Y-12189008D01*
X-49721666Y-12177487D01*
X-49776510Y-12147797D01*
X-49808662Y-12101714D01*
X-49820370Y-12033547D01*
X-49808657Y-11965315D01*
X-49776499Y-11919197D01*
X-49721653Y-11889490D01*
X-49634013Y-11877964D01*
X-49194742Y-11877964D01*
X-49105538Y-11889565D01*
X-49049884Y-11919394D01*
X-49017381Y-11965524D01*
X-49005576Y-12033547D01*
X-49017377Y-12101506D01*
X-49049873Y-12147600D01*
X-49105526Y-12177412D01*
X-49194742Y-12189008D01*
X-49215381Y-12189008D01*
X-49215381Y-12488083D01*
X-48113601Y-12431663D01*
X-48113601Y-11612717D01*
X-48401197Y-11612717D01*
X-48401197Y-12150173D01*
X-48859624Y-12174788D01*
X-48798196Y-12126287D01*
X-48754453Y-12066724D01*
X-48727511Y-11994947D01*
X-48717980Y-11907518D01*
X-48731806Y-11800100D01*
X-48770541Y-11716184D01*
X-48833996Y-11650086D01*
X-48915998Y-11604014D01*
X-49025275Y-11573588D01*
X-49169585Y-11562280D01*
X-49611665Y-11562280D01*
X-49731828Y-11570781D01*
X-49830825Y-11594449D01*
X-49912393Y-11631398D01*
X-49979495Y-11680982D01*
X-50033808Y-11744132D01*
X-50073652Y-11820552D01*
X-50098927Y-11912986D01*
X-50107966Y-12025121D01*
X-50330188Y-12025121D01*
X-50330188Y-10728558D01*
X-50080000Y-10728558D01*
X-50080000Y-11143892D01*
X-48113601Y-11441625D01*
X-48113601Y-11123132D01*
X-49628306Y-10922242D01*
X-48113601Y-10721474D01*
X-48113601Y-10430948D01*
X-50080000Y-10728558D01*
X-50330188Y-10728558D01*
X-50330188Y-10208726D01*
X-47891379Y-10208726D01*
X-47891379Y-12710305D01*
G37*
G36*
X-47863291Y2216090D02*
G01*
X-50330188Y2216090D01*
X-50330188Y2901152D01*
X-50107966Y2901152D01*
X-50098948Y2787338D01*
X-50073831Y2694238D01*
X-50034424Y2617950D01*
X-49980960Y2555549D01*
X-49914573Y2506578D01*
X-49833889Y2470085D01*
X-49735981Y2446707D01*
X-49617160Y2438312D01*
X-49453762Y2438312D01*
X-49453762Y2737143D01*
X-49631204Y2737143D01*
X-49720408Y2748744D01*
X-49776062Y2778573D01*
X-49808566Y2824703D01*
X-49820370Y2892726D01*
X-49807760Y2961559D01*
X-49772621Y3008741D01*
X-49713941Y3036538D01*
X-49603238Y3048309D01*
X-49443748Y3048309D01*
X-49355785Y3041913D01*
X-49295230Y3025452D01*
X-49254826Y3001781D01*
X-49225055Y2966788D01*
X-49205821Y2918008D01*
X-49198650Y2850716D01*
X-49198650Y2743372D01*
X-48911054Y2743372D01*
X-48911054Y2859143D01*
X-48898393Y2941378D01*
X-48864648Y2994820D01*
X-48830599Y3018015D01*
X-48780291Y3033807D01*
X-48707844Y3039882D01*
X-48565206Y3039882D01*
X-48474615Y3028318D01*
X-48419638Y2998972D01*
X-48385139Y2952026D01*
X-48373231Y2889917D01*
X-48384262Y2826984D01*
X-48414715Y2784175D01*
X-48467047Y2756397D01*
X-48551162Y2745570D01*
X-48683786Y2745570D01*
X-48683786Y2446739D01*
X-48576319Y2446739D01*
X-48457566Y2455132D01*
X-48359697Y2478507D01*
X-48279030Y2515000D01*
X-48212642Y2563975D01*
X-48158758Y2626436D01*
X-48119342Y2701571D01*
X-48094410Y2791975D01*
X-48085513Y2901152D01*
X-48094398Y3011998D01*
X-48119198Y3103044D01*
X-48158214Y3178011D01*
X-48211298Y3239673D01*
X-48276948Y3287937D01*
X-48357079Y3323983D01*
X-48454680Y3347121D01*
X-48573511Y3355444D01*
X-48643486Y3355444D01*
X-48749587Y3348661D01*
X-48834327Y3330089D01*
X-48901651Y3301711D01*
X-48960182Y3259820D01*
X-49006243Y3205623D01*
X-49040747Y3137213D01*
X-49040869Y3137213D01*
X-49077752Y3210885D01*
X-49126212Y3267707D01*
X-49187049Y3310137D01*
X-49257004Y3338735D01*
X-49342434Y3357206D01*
X-49446557Y3363871D01*
X-49619969Y3363871D01*
X-49738836Y3355453D01*
X-49836458Y3332044D01*
X-49916617Y3295553D01*
X-49982303Y3246634D01*
X-50035138Y3184380D01*
X-50074140Y3108173D01*
X-50099025Y3015067D01*
X-50107966Y2901152D01*
X-50330188Y2901152D01*
X-50330188Y4211637D01*
X-50080000Y4211637D01*
X-50080000Y3796303D01*
X-48113601Y3498570D01*
X-48113601Y3817063D01*
X-49628306Y4017953D01*
X-48113601Y4218721D01*
X-48113601Y4509247D01*
X-50080000Y4211637D01*
X-50330188Y4211637D01*
X-50330188Y5089568D01*
X-50107966Y5089568D01*
X-50098948Y4975754D01*
X-50073831Y4882654D01*
X-50034424Y4806366D01*
X-49980960Y4743965D01*
X-49914573Y4694994D01*
X-49833889Y4658501D01*
X-49735981Y4635123D01*
X-49617160Y4626728D01*
X-49453762Y4626728D01*
X-49453762Y4925559D01*
X-49631204Y4925559D01*
X-49720408Y4937160D01*
X-49776062Y4966989D01*
X-49808566Y5013119D01*
X-49820370Y5081142D01*
X-49807760Y5149975D01*
X-49772621Y5197157D01*
X-49713941Y5224954D01*
X-49603238Y5236725D01*
X-49443748Y5236725D01*
X-49355785Y5230329D01*
X-49295230Y5213867D01*
X-49254826Y5190196D01*
X-49225055Y5155204D01*
X-49205821Y5106424D01*
X-49198650Y5039132D01*
X-49198650Y4931788D01*
X-48911054Y4931788D01*
X-48911054Y5047559D01*
X-48898393Y5129794D01*
X-48864648Y5183236D01*
X-48830599Y5206431D01*
X-48780291Y5222222D01*
X-48707844Y5228298D01*
X-48565206Y5228298D01*
X-48474615Y5216734D01*
X-48419638Y5187388D01*
X-48385139Y5140442D01*
X-48373231Y5078333D01*
X-48384262Y5015400D01*
X-48414715Y4972591D01*
X-48467047Y4944813D01*
X-48551162Y4933986D01*
X-48683786Y4933986D01*
X-48683786Y4635155D01*
X-48576319Y4635155D01*
X-48457566Y4643548D01*
X-48359697Y4666923D01*
X-48279030Y4703416D01*
X-48212642Y4752391D01*
X-48158758Y4814851D01*
X-48119342Y4889986D01*
X-48094410Y4980391D01*
X-48085513Y5089568D01*
X-48094398Y5200414D01*
X-48119198Y5291460D01*
X-48158214Y5366427D01*
X-48211298Y5428089D01*
X-48276948Y5476353D01*
X-48357079Y5512399D01*
X-48454680Y5535537D01*
X-48573511Y5543860D01*
X-48643486Y5543860D01*
X-48749587Y5537077D01*
X-48834327Y5518504D01*
X-48901651Y5490127D01*
X-48960182Y5448235D01*
X-49006243Y5394039D01*
X-49040747Y5325629D01*
X-49040869Y5325629D01*
X-49077752Y5399301D01*
X-49126212Y5456123D01*
X-49187049Y5498553D01*
X-49257004Y5527151D01*
X-49342434Y5545622D01*
X-49446557Y5552286D01*
X-49619969Y5552286D01*
X-49738836Y5543869D01*
X-49836458Y5520460D01*
X-49916617Y5483969D01*
X-49982303Y5435050D01*
X-50035138Y5372796D01*
X-50074140Y5296589D01*
X-50099025Y5203483D01*
X-50107966Y5089568D01*
X-50330188Y5089568D01*
X-50330188Y5774508D01*
X-47863291Y5774508D01*
X-47863291Y2216090D01*
G37*
G36*
X-42613291Y21601977D02*
G01*
X-45052222Y21601977D01*
X-45052222Y21824199D01*
X-44830000Y21824199D01*
X-42863601Y21824199D01*
X-42863601Y22139882D01*
X-44542405Y22139882D01*
X-44542405Y22646320D01*
X-44830000Y22646320D01*
X-44830000Y21824199D01*
X-45052222Y21824199D01*
X-45052222Y23677635D01*
X-44830000Y23677635D01*
X-44830000Y22780043D01*
X-44613479Y22780043D01*
X-44474137Y22788202D01*
X-44354747Y22811220D01*
X-44252366Y22847454D01*
X-44156503Y22899226D01*
X-44046375Y22977735D01*
X-43919585Y23088888D01*
X-43740422Y23241334D01*
X-43610130Y23324582D01*
X-43522855Y23361103D01*
X-43434211Y23382712D01*
X-43343172Y23389917D01*
X-43229985Y23378080D01*
X-43170981Y23350350D01*
X-43135851Y23303251D01*
X-43123231Y23234335D01*
X-43135036Y23166312D01*
X-43167540Y23120181D01*
X-43223194Y23090353D01*
X-43312398Y23078752D01*
X-43526110Y23078752D01*
X-43526110Y22780043D01*
X-43331937Y22780043D01*
X-43211698Y22788537D01*
X-43112659Y22812187D01*
X-43031077Y22849099D01*
X-42963985Y22898623D01*
X-42909672Y22961772D01*
X-42869827Y23038192D01*
X-42844553Y23130626D01*
X-42835513Y23242761D01*
X-42844553Y23354896D01*
X-42869827Y23447330D01*
X-42909672Y23523750D01*
X-42963985Y23586899D01*
X-43031085Y23636479D01*
X-43112670Y23673428D01*
X-43211706Y23697099D01*
X-43331937Y23705601D01*
X-43450008Y23696234D01*
X-43566728Y23667963D01*
X-43683402Y23619872D01*
X-43793040Y23555693D01*
X-43922814Y23459498D01*
X-44076145Y23323972D01*
X-44217578Y23201793D01*
X-44311473Y23139935D01*
X-44404716Y23104602D01*
X-44504303Y23092796D01*
X-44542405Y23092796D01*
X-44542405Y23677635D01*
X-44830000Y23677635D01*
X-45052222Y23677635D01*
X-45052222Y23927823D01*
X-42613291Y23927823D01*
X-42613291Y21601977D01*
G37*
D11*
%TO.C,R43*%
X-25472500Y-3337258D02*
X-25472500Y-2862742D01*
X-24427500Y-3337258D02*
X-24427500Y-2862742D01*
%TO.C,R2*%
X24577500Y24387258D02*
X24577500Y23912742D01*
X25622500Y24387258D02*
X25622500Y23912742D01*
%TO.C,R7*%
X36412742Y15557500D02*
X36887258Y15557500D01*
X36412742Y14512500D02*
X36887258Y14512500D01*
D12*
%TO.C,U2*%
X-31735000Y5812500D02*
X-31735000Y512500D01*
X-23465000Y5812500D02*
X-23465000Y512500D01*
D13*
X-31555000Y8567500D02*
G75*
G02*
X-31755000Y8567500I-100000J0D01*
G01*
X-31755000Y8567500D02*
G75*
G02*
X-31555000Y8567500I100000J0D01*
G01*
D11*
%TO.C,J10*%
X-42150000Y23850000D02*
X-42150000Y25100000D01*
X-41860000Y30110000D02*
X-26740000Y30110000D01*
X-41860000Y24140000D02*
X-41860000Y30110000D01*
X-41850000Y26400000D02*
X-41100000Y26400000D01*
X-41850000Y24900000D02*
X-40050000Y24900000D01*
X-41850000Y24150000D02*
X-41850000Y24900000D01*
X-41100000Y29350000D02*
X-34300000Y29350000D01*
X-41100000Y26400000D02*
X-41100000Y29350000D01*
X-40900000Y23850000D02*
X-42150000Y23850000D01*
X-40050000Y24900000D02*
X-40050000Y24150000D01*
X-40050000Y24150000D02*
X-41850000Y24150000D01*
X-38550000Y24900000D02*
X-30050000Y24900000D01*
X-38550000Y24150000D02*
X-38550000Y24900000D01*
X-30050000Y24900000D02*
X-30050000Y24150000D01*
X-30050000Y24150000D02*
X-38550000Y24150000D01*
X-28550000Y24900000D02*
X-26750000Y24900000D01*
X-28550000Y24150000D02*
X-28550000Y24900000D01*
X-27500000Y29350000D02*
X-34300000Y29350000D01*
X-27500000Y26400000D02*
X-27500000Y29350000D01*
X-26750000Y26400000D02*
X-27500000Y26400000D01*
X-26750000Y24900000D02*
X-26750000Y24150000D01*
X-26750000Y24150000D02*
X-28550000Y24150000D01*
X-26740000Y30110000D02*
X-26740000Y24140000D01*
X-26740000Y24140000D02*
X-41860000Y24140000D01*
D12*
%TO.C,J8*%
X-47244250Y-6550000D02*
X-47244250Y-16450000D01*
X-47244250Y-16450000D02*
X-45544250Y-16450000D01*
X-45544250Y-4850000D02*
X-45544250Y-6550000D01*
X-45544250Y-6550000D02*
X-47244250Y-6550000D01*
X-45544250Y-16450000D02*
X-45544250Y-18150000D01*
X-45544250Y-18150000D02*
X-43044250Y-18150000D01*
X-43044250Y-4850000D02*
X-45544250Y-4850000D01*
X-43044250Y-6550000D02*
X-43044250Y-4850000D01*
X-43044250Y-16450000D02*
X-38244250Y-16450000D01*
X-43044250Y-18150000D02*
X-43044250Y-16450000D01*
X-38244250Y-6550000D02*
X-43044250Y-6550000D01*
X-38244250Y-16450000D02*
X-38244250Y-6550000D01*
X-32044250Y-8500000D02*
X-32044250Y-9500000D01*
X-32044250Y-13500000D02*
X-32044250Y-14500000D01*
X-31544250Y-9000000D02*
X-32544250Y-9000000D01*
D11*
%TO.C,R6*%
X36087258Y7222500D02*
X35612742Y7222500D01*
X36087258Y6177500D02*
X35612742Y6177500D01*
%TO.C,R5*%
X35612742Y5622500D02*
X36087258Y5622500D01*
X35612742Y4577500D02*
X36087258Y4577500D01*
%TO.C,C1*%
X-32010000Y-3265580D02*
X-32010000Y-2984420D01*
X-30990000Y-3265580D02*
X-30990000Y-2984420D01*
%TO.C,C34*%
X30890000Y9940580D02*
X30890000Y9659420D01*
X31910000Y9940580D02*
X31910000Y9659420D01*
D12*
%TO.C,J9*%
X-47200000Y8950000D02*
X-47200000Y-950000D01*
X-47200000Y-950000D02*
X-45500000Y-950000D01*
X-45500000Y10650000D02*
X-45500000Y8950000D01*
X-45500000Y8950000D02*
X-47200000Y8950000D01*
X-45500000Y-950000D02*
X-45500000Y-2650000D01*
X-45500000Y-2650000D02*
X-43000000Y-2650000D01*
X-43000000Y10650000D02*
X-45500000Y10650000D01*
X-43000000Y8950000D02*
X-43000000Y10650000D01*
X-43000000Y-950000D02*
X-38200000Y-950000D01*
X-43000000Y-2650000D02*
X-43000000Y-950000D01*
X-38200000Y8950000D02*
X-43000000Y8950000D01*
X-38200000Y-950000D02*
X-38200000Y8950000D01*
X-32000000Y7000000D02*
X-32000000Y6000000D01*
X-32000000Y2000000D02*
X-32000000Y1000000D01*
X-31500000Y6500000D02*
X-32500000Y6500000D01*
D11*
%TO.C,R8*%
X36887258Y17272500D02*
X36412742Y17272500D01*
X36887258Y16227500D02*
X36412742Y16227500D01*
%TO.C,R33*%
X-32177500Y9887258D02*
X-32177500Y9412742D01*
X-31132500Y9887258D02*
X-31132500Y9412742D01*
%TO.C,R1*%
X30977500Y-2987258D02*
X30977500Y-2512742D01*
X32022500Y-2987258D02*
X32022500Y-2512742D01*
%TO.C,J4*%
X-42150000Y16050000D02*
X-42150000Y17300000D01*
X-41860000Y22310000D02*
X-26740000Y22310000D01*
X-41860000Y16340000D02*
X-41860000Y22310000D01*
X-41850000Y18600000D02*
X-41100000Y18600000D01*
X-41850000Y17100000D02*
X-40050000Y17100000D01*
X-41850000Y16350000D02*
X-41850000Y17100000D01*
X-41100000Y21550000D02*
X-34300000Y21550000D01*
X-41100000Y18600000D02*
X-41100000Y21550000D01*
X-40900000Y16050000D02*
X-42150000Y16050000D01*
X-40050000Y17100000D02*
X-40050000Y16350000D01*
X-40050000Y16350000D02*
X-41850000Y16350000D01*
X-38550000Y17100000D02*
X-30050000Y17100000D01*
X-38550000Y16350000D02*
X-38550000Y17100000D01*
X-30050000Y17100000D02*
X-30050000Y16350000D01*
X-30050000Y16350000D02*
X-38550000Y16350000D01*
X-28550000Y17100000D02*
X-26750000Y17100000D01*
X-28550000Y16350000D02*
X-28550000Y17100000D01*
X-27500000Y21550000D02*
X-34300000Y21550000D01*
X-27500000Y18600000D02*
X-27500000Y21550000D01*
X-26750000Y18600000D02*
X-27500000Y18600000D01*
X-26750000Y17100000D02*
X-26750000Y16350000D01*
X-26750000Y16350000D02*
X-28550000Y16350000D01*
X-26740000Y22310000D02*
X-26740000Y16340000D01*
X-26740000Y16340000D02*
X-41860000Y16340000D01*
D12*
%TO.C,U1*%
X23465000Y950000D02*
X23465000Y6250000D01*
X31735000Y950000D02*
X31735000Y6250000D01*
D13*
X31755000Y-1805000D02*
G75*
G02*
X31555000Y-1805000I-100000J0D01*
G01*
X31555000Y-1805000D02*
G75*
G02*
X31755000Y-1805000I100000J0D01*
G01*
%TD*%
%LPC*%
D14*
%TO.C,IR1*%
X2190000Y53025000D03*
D15*
X-350000Y53025000D03*
X-2890000Y53025000D03*
%TD*%
D16*
%TO.C,IR11*%
X-42781704Y-31367561D03*
D15*
X-41198055Y-33353425D03*
X-39614406Y-35339289D03*
%TD*%
D17*
%TO.C,IR23*%
X52202470Y9687595D03*
D15*
X51637308Y12163921D03*
X51072145Y14640247D03*
%TD*%
D18*
%TO.C,SW2*%
X5550000Y37475000D03*
X5550000Y39975000D03*
X5550000Y42475000D03*
%TD*%
D19*
%TO.C,IR28*%
X13935926Y51213514D03*
D15*
X11459621Y51778767D03*
X8983315Y52344020D03*
%TD*%
D20*
%TO.C,IR8*%
X-52999989Y2165278D03*
D15*
X-53000002Y-374722D03*
X-53000016Y-2914722D03*
%TD*%
D21*
%TO.C,U5*%
X16900000Y29500000D03*
D22*
X16900000Y26960000D03*
X16900000Y24420000D03*
X16900000Y21880000D03*
X16900000Y19340000D03*
X16900000Y16800000D03*
X16900000Y14260000D03*
X32140000Y14260000D03*
X32140000Y16800000D03*
X32140000Y19340000D03*
X32140000Y21880000D03*
X32140000Y24420000D03*
X32140000Y26960000D03*
X32140000Y29500000D03*
%TD*%
D18*
%TO.C,SW4*%
X13125000Y37475000D03*
X13125000Y39975000D03*
X13125000Y42475000D03*
%TD*%
D23*
%TO.C,IR19*%
X40131291Y-34753752D03*
D15*
X41714982Y-32767921D03*
X43298673Y-30782091D03*
%TD*%
D24*
%TO.C,IR24*%
X48738595Y21055250D03*
D15*
X47636570Y23343730D03*
X46534544Y25632210D03*
%TD*%
D25*
%TO.C,IR3*%
X-21031015Y48713264D03*
D15*
X-23319478Y47611203D03*
X-25607940Y46509141D03*
%TD*%
D26*
%TO.C,IR15*%
X-2140555Y-53024977D03*
D15*
X399445Y-53025004D03*
X2939445Y-53025030D03*
%TD*%
D27*
%TO.C,H4*%
X-22500000Y-40000000D03*
%TD*%
D28*
%TO.C,U6*%
X-14732000Y4556000D03*
X14224000Y4556000D03*
D29*
X-16234000Y-17042000D03*
D30*
X-16234000Y-19582000D03*
X-16234000Y-22122000D03*
X-16234000Y-24662000D03*
X-16234000Y-27202000D03*
X-16234000Y-29742000D03*
X-16234000Y-32282000D03*
X-16234000Y-34822000D03*
D29*
X15726000Y-17042000D03*
D30*
X15726000Y-19582000D03*
X15726000Y-22122000D03*
X15726000Y-24662000D03*
X15726000Y-27202000D03*
X15726000Y-29742000D03*
X15726000Y-32282000D03*
X15726000Y-34822000D03*
%TD*%
D31*
%TO.C,IR16*%
X9712868Y-52177419D03*
D15*
X12189191Y-51612244D03*
X14665514Y-51047068D03*
%TD*%
D32*
%TO.C,IR14*%
X-13885389Y-51213659D03*
D15*
X-11409078Y-51778886D03*
X-8932766Y-52344114D03*
%TD*%
D33*
%TO.C,IR9*%
X-52152368Y-9688141D03*
D15*
X-51587180Y-12164461D03*
X-51021991Y-14640782D03*
%TD*%
D34*
%TO.C,IR5*%
X-40081655Y34753332D03*
D15*
X-41665325Y32767485D03*
X-43248995Y30781638D03*
%TD*%
D35*
%TO.C,IR27*%
X24983194Y46834031D03*
D15*
X22694755Y47936140D03*
X20406315Y49038249D03*
%TD*%
D36*
%TO.C,IR25*%
X42832033Y31367113D03*
D15*
X41248405Y33352993D03*
X39664776Y35338874D03*
%TD*%
D37*
%TO.C,IR10*%
X-48688374Y-21055760D03*
D15*
X-47586325Y-23344228D03*
X-46484275Y-25632697D03*
%TD*%
D38*
%TO.C,IR12*%
X-34728542Y-40106473D03*
D15*
X-32742703Y-41690153D03*
X-30756864Y-43273834D03*
%TD*%
D39*
%TO.C,IR17*%
X21080505Y-48713485D03*
D15*
X23368979Y-47611448D03*
X25657453Y-46509410D03*
%TD*%
D40*
%TO.C,IR22*%
X53049966Y-2165833D03*
D15*
X53050006Y374167D03*
X53050046Y2914167D03*
%TD*%
D41*
%TO.C,IR20*%
X46859161Y-24957948D03*
D15*
X47961258Y-22669503D03*
X49063355Y-20381057D03*
%TD*%
D18*
%TO.C,SW1*%
X1725000Y37475000D03*
X1725000Y39975000D03*
X1725000Y42475000D03*
%TD*%
D27*
%TO.C,H2*%
X-22500000Y40000000D03*
%TD*%
D42*
%TO.C,U4*%
X-6337500Y14460000D03*
X-3797500Y14460000D03*
X-1257500Y14460000D03*
X1282500Y14460000D03*
X3822500Y14460000D03*
X6362500Y14460000D03*
X-6337500Y32240000D03*
X-3797500Y32240000D03*
X-1257500Y32240000D03*
X1282500Y32240000D03*
X3822500Y32240000D03*
X6362500Y32240000D03*
D43*
X-10147500Y32240000D03*
X10172500Y32240000D03*
X-10147500Y14460000D03*
X10172500Y14460000D03*
%TD*%
D44*
%TO.C,IR4*%
X-31342786Y42806540D03*
D15*
X-33328642Y41222880D03*
X-35314497Y39639221D03*
%TD*%
D27*
%TO.C,H1*%
X22500000Y40000000D03*
%TD*%
D45*
%TO.C,IR7*%
X-51188732Y13910121D03*
D15*
X-51753946Y11433807D03*
X-52319161Y8957492D03*
%TD*%
D18*
%TO.C,SW3*%
X9350000Y37450000D03*
X9350000Y39950000D03*
X9350000Y42450000D03*
%TD*%
D46*
%TO.C,IR2*%
X-9663415Y52177318D03*
D15*
X-12139732Y51612117D03*
X-14616050Y51046915D03*
%TD*%
D47*
%TO.C,IR18*%
X31392337Y-42806869D03*
D15*
X33378209Y-41223230D03*
X35364081Y-39639591D03*
%TD*%
D48*
%TO.C,IR6*%
X-46809423Y24957458D03*
D15*
X-47911496Y22669001D03*
X-49013570Y20380543D03*
%TD*%
D49*
%TO.C,IR26*%
X34778962Y40106109D03*
D15*
X32793140Y41689810D03*
X30807317Y43273511D03*
%TD*%
D27*
%TO.C,H3*%
X22500000Y-40000000D03*
%TD*%
D50*
%TO.C,IR13*%
X-24932703Y-46834292D03*
D15*
X-22644252Y-47936377D03*
X-20355801Y-49038462D03*
%TD*%
D51*
%TO.C,IR21*%
X51238587Y-13910658D03*
D15*
X51803827Y-11434350D03*
X52369067Y-8958041D03*
%TD*%
D52*
%TO.C,R43*%
X-24950000Y-3925000D03*
X-24950000Y-2275000D03*
%TD*%
D53*
%TO.C,R2*%
X25100000Y24975000D03*
X25100000Y23325000D03*
%TD*%
D54*
%TO.C,R7*%
X35825000Y15035000D03*
X37475000Y15035000D03*
%TD*%
D55*
%TO.C,U2*%
X-31175000Y6667500D03*
X-30525000Y6667500D03*
X-29875000Y6667500D03*
X-29225000Y6667500D03*
X-28575000Y6667500D03*
X-27925000Y6667500D03*
X-27275000Y6667500D03*
X-26625000Y6667500D03*
X-25975000Y6667500D03*
X-25325000Y6667500D03*
X-24675000Y6667500D03*
X-24025000Y6667500D03*
X-24025000Y-342500D03*
X-24675000Y-342500D03*
X-25325000Y-342500D03*
X-25975000Y-342500D03*
X-26625000Y-342500D03*
X-27275000Y-342500D03*
X-27925000Y-342500D03*
X-28575000Y-342500D03*
X-29225000Y-342500D03*
X-29875000Y-342500D03*
X-30525000Y-342500D03*
X-31175000Y-342500D03*
%TD*%
D56*
%TO.C,J10*%
X-39300000Y26600000D03*
D57*
X-36800000Y26600000D03*
X-34300000Y26600000D03*
X-31800000Y26600000D03*
X-29300000Y26600000D03*
%TD*%
D58*
%TO.C,J8*%
X-34294250Y-14000000D03*
D59*
X-34294250Y-9000000D03*
D60*
X-44294250Y-17000000D03*
X-44294250Y-6000000D03*
%TD*%
D61*
%TO.C,R6*%
X36675000Y6700000D03*
X35025000Y6700000D03*
%TD*%
D54*
%TO.C,R5*%
X35025000Y5100000D03*
X36675000Y5100000D03*
%TD*%
D62*
%TO.C,C1*%
X-31500000Y-3900000D03*
X-31500000Y-2350000D03*
%TD*%
D63*
%TO.C,C34*%
X31400000Y10575000D03*
X31400000Y9025000D03*
%TD*%
D58*
%TO.C,J9*%
X-34250000Y1500000D03*
D59*
X-34250000Y6500000D03*
D60*
X-44250000Y-1500000D03*
X-44250000Y9500000D03*
%TD*%
D61*
%TO.C,R8*%
X37475000Y16750000D03*
X35825000Y16750000D03*
%TD*%
D53*
%TO.C,R33*%
X-31655000Y10475000D03*
X-31655000Y8825000D03*
%TD*%
D52*
%TO.C,R1*%
X31500000Y-3575000D03*
X31500000Y-1925000D03*
%TD*%
D56*
%TO.C,J4*%
X-39300000Y18800000D03*
D57*
X-36800000Y18800000D03*
X-34300000Y18800000D03*
X-31800000Y18800000D03*
X-29300000Y18800000D03*
%TD*%
D64*
%TO.C,U1*%
X31175000Y95000D03*
X30525000Y95000D03*
X29875000Y95000D03*
X29225000Y95000D03*
X28575000Y95000D03*
X27925000Y95000D03*
X27275000Y95000D03*
X26625000Y95000D03*
X25975000Y95000D03*
X25325000Y95000D03*
X24675000Y95000D03*
X24025000Y95000D03*
X24025000Y7105000D03*
X24675000Y7105000D03*
X25325000Y7105000D03*
X25975000Y7105000D03*
X26625000Y7105000D03*
X27275000Y7105000D03*
X27925000Y7105000D03*
X28575000Y7105000D03*
X29225000Y7105000D03*
X29875000Y7105000D03*
X30525000Y7105000D03*
X31175000Y7105000D03*
%TD*%
%LPD*%
M02*
