M48
; DRILL file {KiCad 9.0.6} date 2026-02-06T14:10:30+0800
; FORMAT={-:-/ absolute / inch / decimal}
; #@! TF.CreationDate,2026-02-06T14:10:30+08:00
; #@! TF.GenerationSoftware,Kicad,Pcbnew,9.0.6
; #@! TF.FileFunction,Plated,1,2,PTH
FMAT,2
INCH
; #@! TA.AperFunction,Plated,PTH,ViaDrill
T1C0.0118
; #@! TA.AperFunction,Plated,PTH,ViaDrill
T2C0.0197
; #@! TA.AperFunction,Plated,PTH,ComponentDrill
T3C0.0335
; #@! TA.AperFunction,Plated,PTH,ComponentDrill
T4C0.0354
; #@! TA.AperFunction,Plated,PTH,ComponentDrill
T5C0.0374
; #@! TA.AperFunction,Plated,PTH,ComponentDrill
T6C0.0394
; #@! TA.AperFunction,Plated,PTH,ComponentDrill
T7C0.0669
; #@! TA.AperFunction,Plated,PTH,ComponentDrill
T8C0.0984
; #@! TA.AperFunction,Plated,PTH,ComponentDrill
T9C0.1181
; #@! TA.AperFunction,Plated,PTH,ComponentDrill
T10C0.1260
%
G90
G05
T1
X-1.0226Y0.0581
X-0.998Y0.1988
X-0.9961Y0.1299
X-0.8799Y0.3976
X-0.4016Y-0.002
X-0.4016Y-0.0374
X-0.4016Y-0.0709
X-0.4016Y-0.1122
X-0.3996Y0.0335
X0.7264Y-0.1122
X0.8031Y-0.0709
X0.8366Y0.0354
X0.8661Y-0.0374
X0.9114Y-0.002
X0.9715Y0.1299
X0.997Y0.1061
X1.2274Y0.0768
T2
X-0.7159Y-0.2461
X-0.1339Y0.8307
X-0.1319Y0.878
X0.561Y0.8819
T3
X0.6654Y1.1614
X0.6654Y1.0614
X0.6654Y0.9614
X0.6654Y0.8614
X0.6654Y0.7614
X0.6654Y0.6614
X0.6654Y0.5614
X1.2654Y1.1614
X1.2654Y1.0614
X1.2654Y0.9614
X1.2654Y0.8614
X1.2654Y0.7614
X1.2654Y0.6614
X1.2654Y0.5614
T4
X-2.0828Y0.0992
X-2.0787Y-0.1383
X-2.0723Y0.1986
X-2.0682Y-0.2378
X-2.0619Y0.2981
X-2.0577Y-0.3372
X-2.0165Y0.5313
X-2.0043Y-0.5687
X-1.9856Y0.6264
X-1.9734Y-0.6638
X-1.9547Y0.7215
X-1.9425Y-0.7589
X-1.8619Y0.9401
X-1.8422Y-0.9742
X-1.8119Y1.0268
X-1.7922Y-1.0608
X-1.7619Y1.1134
X-1.7422Y-1.1474
X-1.6256Y1.3079
X-1.5992Y-1.3372
X-1.5587Y1.3822
X-1.5323Y-1.4115
X-1.4917Y1.4566
X-1.4654Y-1.4858
X-1.318Y1.6186
X-1.2861Y-1.6417
X-1.2371Y1.6773
X-1.2052Y-1.7005
X-1.1562Y1.7361
X-1.1243Y-1.7593
X-0.9525Y1.8584
X-0.9166Y-1.8744
X-0.8612Y1.8991
X-0.8252Y-1.9151
X-0.7698Y1.9398
X-0.7339Y-1.9558
X-0.5452Y2.0171
X-0.5067Y-2.0253
X-0.4474Y2.0379
X-0.4089Y-2.0461
X-0.3496Y2.0587
X-0.3111Y-2.0669
X-0.1138Y2.0876
X-0.0744Y-2.0876
X-0.0138Y2.0876
X0.0256Y-2.0876
X0.0679Y1.6722
X0.0679Y1.5738
X0.0679Y1.4754
X0.0862Y2.0876
X0.1256Y-2.0876
X0.2185Y1.6722
X0.2185Y1.5738
X0.2185Y1.4754
X0.3229Y2.0669
X0.3614Y-2.0587
X0.3681Y1.6713
X0.3681Y1.5728
X0.3681Y1.4744
X0.4207Y2.0461
X0.4592Y-2.0379
X0.5167Y1.6722
X0.5167Y1.5738
X0.5167Y1.4754
X0.5185Y2.0253
X0.557Y-2.0171
X0.7457Y1.9558
X0.7816Y-1.9398
X0.837Y1.9151
X0.873Y-1.8991
X0.9284Y1.8744
X0.9643Y-1.8584
X1.1361Y1.7593
X1.168Y-1.7361
X1.217Y1.7005
X1.2489Y-1.6773
X1.2979Y1.6417
X1.3298Y-1.6186
X1.4772Y1.4858
X1.5036Y-1.4566
X1.5441Y1.4115
X1.5705Y-1.3822
X1.611Y1.3372
X1.6374Y-1.3079
X1.754Y1.1474
X1.7737Y-1.1134
X1.804Y1.0608
X1.8237Y-1.0268
X1.854Y0.9742
X1.8737Y-0.9401
X1.9543Y0.7589
X1.9665Y-0.7215
X1.9852Y0.6638
X1.9974Y-0.6264
X2.0161Y0.5687
X2.0283Y-0.5313
X2.0696Y0.3372
X2.0737Y-0.2981
X2.08Y0.2378
X2.0841Y-0.1986
X2.0905Y0.1383
X2.0946Y-0.0992
T5
X-1.5472Y1.0472
X-1.5472Y0.7402
X-1.4488Y1.0472
X-1.4488Y0.7402
X-1.3504Y1.0472
X-1.3504Y0.7402
X-1.252Y1.0472
X-1.252Y0.7402
X-1.1535Y1.0472
X-1.1535Y0.7402
T6
X-1.7439Y-0.2362
X-1.7439Y-0.6693
X-1.7421Y0.374
X-1.7421Y-0.0591
X-0.6283Y-0.6731
X-0.6283Y-0.7731
X-0.6283Y-0.8731
X-0.6283Y-0.9731
X-0.6283Y-1.0731
X-0.6283Y-1.1731
X-0.6283Y-1.2731
X-0.6283Y-1.3731
X-0.2495Y1.2693
X-0.2495Y0.5693
X-0.1495Y1.2693
X-0.1495Y0.5693
X-0.0495Y1.2693
X-0.0495Y0.5693
X0.0505Y1.2693
X0.0505Y0.5693
X0.1505Y1.2693
X0.1505Y0.5693
X0.2505Y1.2693
X0.2505Y0.5693
X0.63Y-0.6731
X0.63Y-0.7731
X0.63Y-0.8731
X0.63Y-0.9731
X0.63Y-1.0731
X0.63Y-1.1731
X0.63Y-1.2731
X0.63Y-1.3731
T7
X-1.3502Y-0.3543
X-1.3502Y-0.5512
X-1.3484Y0.2559
X-1.3484Y0.0591
T8
X-0.3995Y1.2693
X-0.3995Y0.5693
X0.4005Y1.2693
X0.4005Y0.5693
T9
X-0.5691Y0.1772
X0.5709Y0.1772
T10
X-0.8858Y1.5748
X-0.8858Y-1.5748
X0.8858Y1.5748
X0.8858Y-1.5748
M30
