%TF.GenerationSoftware,KiCad,Pcbnew,9.0.6*%
%TF.CreationDate,2026-03-02T11:12:37+08:00*%
%TF.ProjectId,layer3,6c617965-7233-42e6-9b69-6361645f7063,rev?*%
%TF.SameCoordinates,Original*%
%TF.FileFunction,Legend,Top*%
%TF.FilePolarity,Positive*%
%FSLAX46Y46*%
G04 Gerber Fmt 4.6, Leading zero omitted, Abs format (unit mm)*
G04 Created by KiCad (PCBNEW 9.0.6) date 2026-03-02 11:12:37*
%MOMM*%
%LPD*%
G01*
G04 APERTURE LIST*
G04 Aperture macros list*
%AMRoundRect*
0 Rectangle with rounded corners*
0 $1 Rounding radius*
0 $2 $3 $4 $5 $6 $7 $8 $9 X,Y pos of 4 corners*
0 Add a 4 corners polygon primitive as box body*
4,1,4,$2,$3,$4,$5,$6,$7,$8,$9,$2,$3,0*
0 Add four circle primitives for the rounded corners*
1,1,$1+$1,$2,$3*
1,1,$1+$1,$4,$5*
1,1,$1+$1,$6,$7*
1,1,$1+$1,$8,$9*
0 Add four rect primitives between the rounded corners*
20,1,$1+$1,$2,$3,$4,$5,0*
20,1,$1+$1,$4,$5,$6,$7,0*
20,1,$1+$1,$6,$7,$8,$9,0*
20,1,$1+$1,$8,$9,$2,$3,0*%
G04 Aperture macros list end*
%ADD10C,0.300000*%
%ADD11C,0.120000*%
%ADD12C,0.100000*%
%ADD13C,0.127000*%
%ADD14C,0.200000*%
%ADD15RoundRect,0.750000X0.750000X-0.750000X0.750000X0.750000X-0.750000X0.750000X-0.750000X-0.750000X0*%
%ADD16C,3.000000*%
%ADD17RoundRect,0.250200X0.649800X0.649800X-0.649800X0.649800X-0.649800X-0.649800X0.649800X-0.649800X0*%
%ADD18C,1.800000*%
%ADD19RoundRect,0.250200X-0.913177X0.102897X-0.102897X-0.913177X0.913177X-0.102897X0.102897X0.913177X0*%
%ADD20RoundRect,0.250200X0.778094X-0.488927X0.488927X0.778094X-0.778094X0.488927X-0.488927X-0.778094X0*%
%ADD21C,1.400000*%
%ADD22RoundRect,0.250200X0.778112X0.488898X-0.488898X0.778112X-0.778112X-0.488898X0.488898X-0.778112X0*%
%ADD23RoundRect,0.250200X-0.649797X0.649803X-0.649803X-0.649797X0.649797X-0.649803X0.649803X0.649797X0*%
%ADD24RoundRect,0.102000X-0.679000X-0.679000X0.679000X-0.679000X0.679000X0.679000X-0.679000X0.679000X0*%
%ADD25C,1.562000*%
%ADD26RoundRect,0.250200X0.102878X-0.913179X0.913179X0.102878X-0.102878X0.913179X-0.913179X-0.102878X0*%
%ADD27RoundRect,0.250200X0.867382X-0.303527X0.303527X0.867382X-0.867382X0.303527X-0.303527X-0.867382X0*%
%ADD28RoundRect,0.250200X0.303513X0.867387X-0.867387X0.303513X-0.303513X-0.867387X0.867387X-0.303513X0*%
%ADD29RoundRect,0.250200X-0.649807X-0.649793X0.649793X-0.649807X0.649807X0.649793X-0.649793X0.649807X0*%
%ADD30C,5.600000*%
%ADD31RoundRect,0.237500X-0.237500X0.250000X-0.237500X-0.250000X0.237500X-0.250000X0.237500X0.250000X0*%
%ADD32C,6.000000*%
%ADD33R,1.700000X1.700000*%
%ADD34O,1.700000X1.700000*%
%ADD35RoundRect,0.250200X-0.488923X-0.778097X0.778097X-0.488923X0.488923X0.778097X-0.778097X0.488923X0*%
%ADD36RoundRect,0.250200X-0.778107X-0.488906X0.488906X-0.778107X0.778107X0.488906X-0.488906X0.778107X0*%
%ADD37RoundRect,0.250200X-0.778099X0.488919X-0.488919X-0.778099X0.778099X-0.488919X0.488919X0.778099X0*%
%ADD38RoundRect,0.250200X-0.102888X0.913178X-0.913178X-0.102888X0.102888X-0.913178X0.913178X0.102888X0*%
%ADD39RoundRect,0.250200X0.867393X0.303495X-0.303495X0.867393X-0.867393X-0.303495X0.303495X-0.867393X0*%
%ADD40RoundRect,0.250200X0.913176X-0.102907X0.102907X0.913176X-0.913176X0.102907X-0.102907X-0.913176X0*%
%ADD41RoundRect,0.250200X-0.867385X0.303518X-0.303518X-0.867385X0.867385X-0.303518X0.303518X0.867385X0*%
%ADD42RoundRect,0.250200X-0.913179X-0.102883X0.102883X-0.913179X0.913179X0.102883X-0.102883X0.913179X0*%
%ADD43RoundRect,0.250200X-0.303522X-0.867384X0.867384X-0.303522X0.303522X0.867384X-0.867384X0.303522X0*%
%ADD44RoundRect,0.250200X0.649790X-0.649810X0.649810X0.649790X-0.649790X0.649810X-0.649810X-0.649790X0*%
%ADD45RoundRect,0.250200X0.303500X-0.867392X0.867392X0.303500X-0.303500X0.867392X-0.867392X-0.303500X0*%
%ADD46C,1.982000*%
%ADD47C,3.404000*%
%ADD48RoundRect,0.250200X0.102892X0.913178X-0.913178X0.102892X-0.102892X-0.913178X0.913178X-0.102892X0*%
%ADD49RoundRect,0.250200X-0.488911X0.778104X-0.778104X-0.488911X0.488911X-0.778104X0.778104X0.488911X0*%
%ADD50RoundRect,0.250200X0.488915X0.778102X-0.778102X0.488915X-0.488915X-0.778102X0.778102X-0.488915X0*%
%ADD51RoundRect,0.250200X-0.102902X-0.913176X0.913176X-0.102902X0.102902X0.913176X-0.913176X0.102902X0*%
%ADD52RoundRect,0.237500X0.237500X-0.250000X0.237500X0.250000X-0.237500X0.250000X-0.237500X-0.250000X0*%
%ADD53RoundRect,0.250200X-0.303509X0.867388X-0.867388X-0.303509X0.303509X-0.867388X0.867388X0.303509X0*%
%ADD54RoundRect,0.250200X0.913180X0.102873X-0.102873X0.913180X-0.913180X-0.102873X0.102873X-0.913180X0*%
%ADD55RoundRect,0.250200X-0.867390X-0.303504X0.303504X-0.867390X0.867390X0.303504X-0.303504X0.867390X0*%
%ADD56RoundRect,0.250200X0.488902X-0.778110X0.778110X0.488902X-0.488902X0.778110X-0.778110X-0.488902X0*%
%ADD57RoundRect,0.250000X-0.600000X-0.725000X0.600000X-0.725000X0.600000X0.725000X-0.600000X0.725000X0*%
%ADD58O,1.700000X1.950000*%
G04 APERTURE END LIST*
D10*
G36*
X-12310328Y272799D02*
G01*
X-11673343Y272799D01*
X-11270342Y-2765826D01*
X-11272784Y-2765826D01*
X-10870028Y272799D01*
X-10288974Y272799D01*
X-10884194Y-3660000D01*
X-11714864Y-3660000D01*
X-12310328Y272799D01*
G37*
G36*
X-10009316Y272799D02*
G01*
X-8314759Y272799D01*
X-8314759Y-302393D01*
X-9377948Y-302393D01*
X-9377948Y-1322107D01*
X-8533112Y-1322107D01*
X-8533112Y-1897299D01*
X-9377948Y-1897299D01*
X-9377948Y-3084808D01*
X-8314759Y-3084808D01*
X-8314759Y-3660000D01*
X-10009316Y-3660000D01*
X-10009316Y272799D01*
G37*
G36*
X-7977216Y272799D02*
G01*
X-7190998Y272799D01*
X-6592114Y-2071933D01*
X-6594801Y-2071933D01*
X-6594801Y272799D01*
X-6030844Y272799D01*
X-6030844Y-3660000D01*
X-6677111Y-3660000D01*
X-7415701Y-800404D01*
X-7413015Y-800404D01*
X-7413015Y-3660000D01*
X-7977216Y-3660000D01*
X-7977216Y272799D01*
G37*
G36*
X-5108095Y-302393D02*
G01*
X-5751675Y-302393D01*
X-5751675Y272799D01*
X-3833391Y272799D01*
X-3833391Y-302393D01*
X-4476971Y-302393D01*
X-4476971Y-3660000D01*
X-5108095Y-3660000D01*
X-5108095Y-302393D01*
G37*
G36*
X-2658583Y272799D02*
G01*
X-964026Y272799D01*
X-964026Y-302393D01*
X-2027216Y-302393D01*
X-2027216Y-1322107D01*
X-1182380Y-1322107D01*
X-1182380Y-1897299D01*
X-2027216Y-1897299D01*
X-2027216Y-3084808D01*
X-964026Y-3084808D01*
X-964026Y-3660000D01*
X-2658583Y-3660000D01*
X-2658583Y272799D01*
G37*
G36*
X-72296Y-1648904D02*
G01*
X-752024Y272799D01*
X-86462Y272799D01*
X327774Y-991891D01*
X753001Y272799D01*
X1351640Y272799D01*
X671668Y-1648904D01*
X1385101Y-3660000D01*
X719295Y-3660000D01*
X271598Y-2294438D01*
X271842Y-2294438D01*
X-187090Y-3660000D01*
X-785729Y-3660000D01*
X-72296Y-1648904D01*
G37*
G36*
X1655722Y272799D02*
G01*
X2287090Y272799D01*
X2287090Y-1322107D01*
X2931647Y-1322107D01*
X2931647Y272799D01*
X3563015Y272799D01*
X3563015Y-3660000D01*
X2931647Y-3660000D01*
X2931647Y-1897299D01*
X2287090Y-1897299D01*
X2287090Y-3660000D01*
X1655722Y-3660000D01*
X1655722Y272799D01*
G37*
G36*
X5969051Y-3660000D02*
G01*
X5337195Y-3660000D01*
X5234716Y-2893321D01*
X4539498Y-2893321D01*
X4427634Y-3660000D01*
X3840719Y-3660000D01*
X4054773Y-2345973D01*
X4614480Y-2345973D01*
X5150349Y-2345973D01*
X4879740Y-434203D01*
X4614480Y-2345973D01*
X4054773Y-2345973D01*
X4481368Y272799D01*
X5328402Y272799D01*
X5969051Y-3660000D01*
G37*
G36*
X7138974Y-3715931D02*
G01*
X6914704Y-3697852D01*
X6729837Y-3647303D01*
X6576997Y-3567614D01*
X6450698Y-3458988D01*
X6351641Y-3324801D01*
X6277818Y-3161672D01*
X6230523Y-2963672D01*
X6213538Y-2723328D01*
X6213538Y272799D01*
X6844662Y272799D01*
X6844662Y-2768025D01*
X6867255Y-2948659D01*
X6923552Y-3053789D01*
X7016409Y-3117682D01*
X7150209Y-3140739D01*
X7284179Y-3117663D01*
X7376867Y-3053789D01*
X7433164Y-2948659D01*
X7455757Y-2768025D01*
X7455757Y272799D01*
X8064655Y272799D01*
X8064655Y-2723328D01*
X8047654Y-2963655D01*
X8000317Y-3161649D01*
X7926419Y-3324785D01*
X7827251Y-3458988D01*
X7700951Y-3567614D01*
X7548112Y-3647303D01*
X7363244Y-3697852D01*
X7138974Y-3715931D01*
G37*
G36*
X9294906Y-3715931D02*
G01*
X9070518Y-3697766D01*
X8886704Y-3647106D01*
X8735766Y-3567433D01*
X8612003Y-3458988D01*
X8515487Y-3325053D01*
X8443372Y-3162015D01*
X8397095Y-2963921D01*
X8380461Y-2723328D01*
X8380461Y-2491542D01*
X8978123Y-2491542D01*
X8978123Y-2768025D01*
X9001175Y-2943305D01*
X9060589Y-3052996D01*
X9152825Y-3117313D01*
X9289288Y-3140739D01*
X9427647Y-3116772D01*
X9521319Y-3050858D01*
X9577736Y-2942780D01*
X9600454Y-2756789D01*
X9571839Y-2524133D01*
X9489323Y-2326922D01*
X9346878Y-2139577D01*
X9077041Y-1878492D01*
X8830625Y-1642721D01*
X8657622Y-1441207D01*
X8543615Y-1268862D01*
X8460117Y-1081767D01*
X8409189Y-877570D01*
X8391696Y-652637D01*
X8408531Y-418366D01*
X8455586Y-223891D01*
X8529377Y-62255D01*
X8628856Y72031D01*
X8755155Y180658D01*
X8907995Y260347D01*
X9092862Y310896D01*
X9317132Y328975D01*
X9538618Y310828D01*
X9720088Y260193D01*
X9869173Y180474D01*
X9991486Y71787D01*
X10086764Y-61850D01*
X10158062Y-224763D01*
X10203867Y-422949D01*
X10220342Y-663872D01*
X10220342Y-833866D01*
X9622924Y-833866D01*
X9622924Y-624794D01*
X9601056Y-443480D01*
X9546476Y-336343D01*
X9455761Y-270292D01*
X9322750Y-246461D01*
X9191794Y-269297D01*
X9102854Y-332253D01*
X9045247Y-440240D01*
X9022819Y-613558D01*
X9051090Y-816497D01*
X9136636Y-1007278D01*
X9281120Y-1192453D01*
X9551849Y-1452533D01*
X9801224Y-1689069D01*
X9973856Y-1891510D01*
X10085276Y-2065094D01*
X10164806Y-2254070D01*
X10214292Y-2468163D01*
X10231577Y-2712093D01*
X10214382Y-2955249D01*
X10166505Y-3155553D01*
X10091770Y-3320570D01*
X9991486Y-3456301D01*
X9863774Y-3566032D01*
X9709139Y-3646557D01*
X9522011Y-3697653D01*
X9294906Y-3715931D01*
G37*
G36*
X11051012Y-302393D02*
G01*
X10407432Y-302393D01*
X10407432Y272799D01*
X12325715Y272799D01*
X12325715Y-302393D01*
X11682135Y-302393D01*
X11682135Y-3660000D01*
X11051012Y-3660000D01*
X11051012Y-302393D01*
G37*
G36*
X13048268Y45918924D02*
G01*
X13082866Y45894547D01*
X13105238Y45852806D01*
X13113938Y45785903D01*
X13113938Y44984298D01*
X13105238Y44917395D01*
X13082866Y44875655D01*
X13048268Y44851277D01*
X12997251Y44842424D01*
X12946234Y44851277D01*
X12911636Y44875655D01*
X12889265Y44917395D01*
X12880564Y44984298D01*
X12880564Y45785903D01*
X12889265Y45852806D01*
X12911636Y45894547D01*
X12946234Y45918924D01*
X12997251Y45927778D01*
X13048268Y45918924D01*
G37*
G36*
X13517277Y44459968D02*
G01*
X12477134Y44459968D01*
X12477134Y45771249D01*
X12643801Y45771249D01*
X12643801Y44998953D01*
X12650261Y44910119D01*
X12668322Y44836369D01*
X12696669Y44775052D01*
X12734934Y44724088D01*
X12783353Y44682859D01*
X12841732Y44652631D01*
X12912118Y44633477D01*
X12997251Y44626635D01*
X13082333Y44633475D01*
X13152707Y44652624D01*
X13211106Y44682852D01*
X13259568Y44724088D01*
X13297791Y44775046D01*
X13326111Y44836360D01*
X13344156Y44910112D01*
X13350610Y44998953D01*
X13350610Y45771249D01*
X13344158Y45860036D01*
X13326117Y45933776D01*
X13297798Y45995111D01*
X13259568Y46046114D01*
X13211112Y46087307D01*
X13152715Y46117507D01*
X13082339Y46136641D01*
X12997251Y46143475D01*
X12912111Y46136638D01*
X12841723Y46117500D01*
X12783347Y46087300D01*
X12734934Y46046114D01*
X12696662Y45995105D01*
X12668316Y45933768D01*
X12650258Y45860030D01*
X12644867Y45785903D01*
X12643801Y45771249D01*
X12477134Y45771249D01*
X12477134Y46310142D01*
X13517277Y46310142D01*
X13517277Y44459968D01*
G37*
G36*
X5391921Y44863398D02*
G01*
X5277341Y44863398D01*
X5227190Y44872069D01*
X5192436Y44896096D01*
X5171260Y44935452D01*
X5162760Y45003166D01*
X5162760Y45767036D01*
X5171256Y45834764D01*
X5192436Y45874197D01*
X5227182Y45898154D01*
X5277341Y45906804D01*
X5391921Y45906804D01*
X5391921Y44863398D01*
G37*
G36*
X7019283Y44459968D02*
G01*
X3975128Y44459968D01*
X3975128Y45906804D01*
X4141795Y45906804D01*
X4540491Y45906804D01*
X4540491Y45461488D01*
X4223677Y45461488D01*
X4223677Y45245791D01*
X4540491Y45245791D01*
X4540491Y44863398D01*
X4141795Y44863398D01*
X4141795Y44647701D01*
X4777254Y44647701D01*
X4777254Y45756503D01*
X4926089Y45756503D01*
X4926089Y45013607D01*
X4932385Y44923232D01*
X4949828Y44849564D01*
X4976894Y44789597D01*
X5013009Y44740941D01*
X5059145Y44701901D01*
X5116185Y44672951D01*
X5186480Y44654394D01*
X5273128Y44647701D01*
X5628684Y44647701D01*
X5794922Y44647701D01*
X6031685Y44647701D01*
X6031685Y45767036D01*
X6158447Y45767036D01*
X6164929Y45675562D01*
X6183486Y45595277D01*
X6213310Y45524411D01*
X6255092Y45459317D01*
X6319829Y45383402D01*
X6413345Y45294700D01*
X6514869Y45197171D01*
X6569050Y45127730D01*
X6601130Y45056187D01*
X6611731Y44980085D01*
X6603321Y44915091D01*
X6581718Y44874596D01*
X6548365Y44850987D01*
X6499257Y44842424D01*
X6449378Y44851360D01*
X6415360Y44876129D01*
X6394892Y44916306D01*
X6386692Y44984298D01*
X6386692Y45062700D01*
X6162660Y45062700D01*
X6162660Y44998953D01*
X6168838Y44908607D01*
X6186015Y44834287D01*
X6212752Y44773194D01*
X6248481Y44723081D01*
X6294348Y44682323D01*
X6350255Y44652428D01*
X6418307Y44633440D01*
X6501364Y44626635D01*
X6585465Y44633415D01*
X6654790Y44652371D01*
X6712105Y44682254D01*
X6759467Y44722989D01*
X6796772Y44773346D01*
X6824444Y44833960D01*
X6842089Y44906888D01*
X6848402Y44994740D01*
X6841842Y45079089D01*
X6822745Y45155663D01*
X6791433Y45225824D01*
X6748680Y45290453D01*
X6683804Y45366021D01*
X6591398Y45454435D01*
X6490209Y45552342D01*
X6436792Y45622596D01*
X6405849Y45696550D01*
X6395118Y45783797D01*
X6403637Y45853543D01*
X6424794Y45894072D01*
X6459921Y45918790D01*
X6511805Y45927778D01*
X6562979Y45918993D01*
X6597568Y45894874D01*
X6619848Y45853740D01*
X6628492Y45788010D01*
X6628492Y45684329D01*
X6852616Y45684329D01*
X6852616Y45771249D01*
X6846378Y45861471D01*
X6829024Y45935756D01*
X6801981Y45996896D01*
X6765787Y46047121D01*
X6719376Y46087788D01*
X6662775Y46117666D01*
X6593844Y46136663D01*
X6509699Y46143475D01*
X6424534Y46136620D01*
X6354361Y46117460D01*
X6296373Y46087263D01*
X6248481Y46046114D01*
X6210874Y45995214D01*
X6182849Y45933333D01*
X6164895Y45858219D01*
X6158447Y45767036D01*
X6031685Y45767036D01*
X6031685Y46122500D01*
X5794922Y46122500D01*
X5794922Y44647701D01*
X5628684Y44647701D01*
X5628684Y46122500D01*
X5273128Y46122500D01*
X5186474Y46115813D01*
X5116176Y46097272D01*
X5059138Y46068349D01*
X5013009Y46029352D01*
X4976894Y45980653D01*
X4949828Y45920641D01*
X4932385Y45846926D01*
X4926822Y45767036D01*
X4926089Y45756503D01*
X4777254Y45756503D01*
X4777254Y46122500D01*
X4141795Y46122500D01*
X4141795Y45906804D01*
X3975128Y45906804D01*
X3975128Y46310142D01*
X7019283Y46310142D01*
X7019283Y44459968D01*
G37*
G36*
X2166831Y45918924D02*
G01*
X2201428Y45894547D01*
X2223800Y45852806D01*
X2232500Y45785903D01*
X2232500Y44984298D01*
X2223800Y44917395D01*
X2201428Y44875655D01*
X2166831Y44851277D01*
X2115813Y44842424D01*
X2064796Y44851277D01*
X2030198Y44875655D01*
X2007827Y44917395D01*
X1999126Y44984298D01*
X1999126Y45785903D01*
X2007827Y45852806D01*
X2030198Y45894547D01*
X2064796Y45918924D01*
X2115813Y45927778D01*
X2166831Y45918924D01*
G37*
G36*
X1288833Y44912828D02*
G01*
X1187355Y45629741D01*
X1388305Y45629741D01*
X1288833Y44912828D01*
G37*
G36*
X3456495Y44459968D02*
G01*
X-7330Y44459968D01*
X-7330Y45906804D01*
X159337Y45906804D01*
X539165Y45906804D01*
X539165Y44647701D01*
X775928Y44647701D01*
X775928Y46122500D01*
X880341Y46122500D01*
X960611Y45629741D01*
X1120585Y44647701D01*
X1438223Y44647701D01*
X1621248Y45771249D01*
X1762363Y45771249D01*
X1762363Y44998953D01*
X1768823Y44910119D01*
X1786884Y44836369D01*
X1815231Y44775052D01*
X1853497Y44724088D01*
X1901915Y44682859D01*
X1960294Y44652631D01*
X2030680Y44633477D01*
X2115813Y44626635D01*
X2200895Y44633475D01*
X2271269Y44652624D01*
X2329668Y44682852D01*
X2378130Y44724088D01*
X2416353Y44775046D01*
X2444673Y44836360D01*
X2462718Y44910112D01*
X2469172Y44998953D01*
X2469172Y45771249D01*
X2595659Y45771249D01*
X2595659Y45287740D01*
X2935187Y45287740D01*
X2935187Y45503436D01*
X2819782Y45503436D01*
X2819782Y45788010D01*
X2828427Y45853740D01*
X2850707Y45894874D01*
X2885296Y45918993D01*
X2936469Y45927778D01*
X2987643Y45918993D01*
X3022232Y45894874D01*
X3044512Y45853740D01*
X3053156Y45788010D01*
X3053156Y44984298D01*
X3044456Y44917395D01*
X3022084Y44875655D01*
X2987486Y44851277D01*
X2936469Y44842424D01*
X2885452Y44851277D01*
X2850854Y44875655D01*
X2828483Y44917395D01*
X2819782Y44984298D01*
X2819782Y45127822D01*
X2595659Y45127822D01*
X2595659Y44998953D01*
X2602030Y44908773D01*
X2619767Y44834494D01*
X2647451Y44773308D01*
X2684594Y44722989D01*
X2731956Y44682254D01*
X2789271Y44652371D01*
X2858596Y44633415D01*
X2942698Y44626635D01*
X3026797Y44633413D01*
X3096140Y44652367D01*
X3153487Y44682251D01*
X3200893Y44722989D01*
X3238036Y44773308D01*
X3265720Y44834494D01*
X3283457Y44908773D01*
X3289828Y44998953D01*
X3289828Y45771249D01*
X3283458Y45861378D01*
X3265723Y45935628D01*
X3238039Y45996801D01*
X3200893Y46047121D01*
X3153487Y46087859D01*
X3096140Y46117743D01*
X3026797Y46136697D01*
X2942698Y46143475D01*
X2858596Y46136695D01*
X2789271Y46117739D01*
X2731956Y46087856D01*
X2684594Y46047121D01*
X2647448Y45996801D01*
X2619764Y45935628D01*
X2602028Y45861378D01*
X2595659Y45771249D01*
X2469172Y45771249D01*
X2462720Y45860036D01*
X2444679Y45933776D01*
X2416360Y45995111D01*
X2378130Y46046114D01*
X2329674Y46087307D01*
X2271277Y46117507D01*
X2200901Y46136641D01*
X2115813Y46143475D01*
X2030673Y46136638D01*
X1960285Y46117500D01*
X1901909Y46087300D01*
X1853497Y46046114D01*
X1815224Y45995105D01*
X1786878Y45933768D01*
X1768820Y45860030D01*
X1763429Y45785903D01*
X1762363Y45771249D01*
X1621248Y45771249D01*
X1678466Y46122500D01*
X1458373Y46122500D01*
X1416424Y45834996D01*
X1155717Y45834996D01*
X1117288Y46122500D01*
X880341Y46122500D01*
X775928Y46122500D01*
X159337Y46122500D01*
X159337Y45906804D01*
X-7330Y45906804D01*
X-7330Y46310142D01*
X3456495Y46310142D01*
X3456495Y44459968D01*
G37*
G36*
X9668633Y44481034D02*
G01*
X8857285Y44481034D01*
X8857285Y44647701D01*
X9023952Y44647701D01*
X9184145Y44647701D01*
X9215618Y44716581D01*
X9247160Y44760816D01*
X9287352Y44793111D01*
X9341590Y44815771D01*
X9406052Y44827642D01*
X9501966Y44832349D01*
X9501966Y45001884D01*
X9260624Y45001884D01*
X9260624Y46122500D01*
X9023952Y46122500D01*
X9023952Y44647701D01*
X8857285Y44647701D01*
X8857285Y46289167D01*
X9668633Y46289167D01*
X9668633Y44481034D01*
G37*
D11*
%TO.C,IR1*%
X-2950000Y54525000D02*
X2140000Y54525000D01*
X-2950000Y54185000D02*
X-2950000Y54525000D01*
X-2950000Y51865000D02*
X-2950000Y51515000D01*
X-2950000Y51515000D02*
X-350000Y51515000D01*
X-2450000Y54525000D02*
G75*
G02*
X1749917Y54526736I2100000J-100000D01*
G01*
%TO.C,IR11*%
X-40749751Y-36321425D02*
X-43923284Y-32341879D01*
X-40483926Y-36109440D02*
X-40749751Y-36321425D01*
X-38670067Y-34662957D02*
X-38396424Y-34444738D01*
X-38396424Y-34444738D02*
X-40017482Y-32411964D01*
X-41061493Y-35930507D02*
G75*
G02*
X-43681431Y-32647942I-1231131J1704206D01*
G01*
%TO.C,IR23*%
X49586648Y14362761D02*
X50165161Y11827939D01*
X49927874Y14440638D02*
X49586648Y14362761D01*
X52189715Y14956849D02*
X52521192Y15032501D01*
X52521192Y15032501D02*
X53653742Y10070099D01*
X52632445Y14545035D02*
G75*
G02*
X53568639Y10450789I369767J-2069607D01*
G01*
D12*
%TO.C,SW2*%
X3800000Y44225000D02*
X7300000Y44225000D01*
X3800000Y35725000D02*
X3800000Y44225000D01*
X7300000Y44225000D02*
X7300000Y35725000D01*
X7300000Y35725000D02*
X3800000Y35725000D01*
D11*
%TO.C,IR28*%
X8588783Y50885238D02*
X11123584Y50306633D01*
X8666673Y51226462D02*
X8588783Y50885238D01*
X9182967Y53488284D02*
X9258631Y53819758D01*
X9258631Y53819758D02*
X14220991Y52687026D01*
X9746092Y53708488D02*
G75*
G02*
X13841075Y52775528I2025085J-564828D01*
G01*
%TO.C,IR8*%
X-54500016Y-2974714D02*
X-54499989Y2115286D01*
X-54160016Y-2974716D02*
X-54500016Y-2974714D01*
X-51840016Y-2974728D02*
X-51490016Y-2974730D01*
X-51490016Y-2974730D02*
X-51490002Y-374730D01*
X-54500013Y-2474714D02*
G75*
G02*
X-54501727Y1725202I100011J2099999D01*
G01*
D13*
%TO.C,U5*%
X15630707Y31161000D02*
X33410707Y31161000D01*
X15630707Y10206000D02*
X15630707Y31161000D01*
X33410707Y31161000D02*
X33410707Y10206000D01*
X33410707Y10206000D02*
X15630707Y10206000D01*
D14*
X15120707Y28367000D02*
G75*
G02*
X14920707Y28367000I-100000J0D01*
G01*
X14920707Y28367000D02*
G75*
G02*
X15120707Y28367000I100000J0D01*
G01*
D12*
%TO.C,SW4*%
X11375000Y44225000D02*
X14875000Y44225000D01*
X11375000Y35725000D02*
X11375000Y44225000D01*
X14875000Y44225000D02*
X14875000Y35725000D01*
X14875000Y35725000D02*
X11375000Y35725000D01*
D11*
%TO.C,IR19*%
X42155530Y-29793696D02*
X40534429Y-31826436D01*
X42429168Y-30011921D02*
X42155530Y-29793696D01*
X44242997Y-31458442D02*
X44508817Y-31670432D01*
X44508817Y-31670432D02*
X41335201Y-35649911D01*
X44197067Y-32061343D02*
G75*
G02*
X41579775Y-35346018I-1387534J-1579478D01*
G01*
%TO.C,IR24*%
X45148038Y25031127D02*
X46276095Y22688589D01*
X45463380Y25182981D02*
X45148038Y25031127D01*
X47553645Y26189556D02*
X47859977Y26337071D01*
X47859977Y26337071D02*
X50068366Y21751101D01*
X48076911Y25886583D02*
G75*
G02*
X49900686Y22103309I821026J-1935438D01*
G01*
%TO.C,IR3*%
X-26312822Y47834563D02*
X-21726887Y50043024D01*
X-26165302Y47528233D02*
X-26312822Y47834563D01*
X-25158695Y45437984D02*
X-25006836Y45122645D01*
X-25006836Y45122645D02*
X-22664315Y46250739D01*
X-25862337Y48051504D02*
G75*
G02*
X-22079094Y49875338I1935424J821056D01*
G01*
%TO.C,IR15*%
X2999429Y-54525031D02*
X-2090571Y-54524978D01*
X2999433Y-54185031D02*
X2999429Y-54525031D01*
X2999457Y-51865031D02*
X2999461Y-51515031D01*
X2999461Y-51515031D02*
X399461Y-51515004D01*
X2499429Y-54525026D02*
G75*
G02*
X-1700488Y-54526718I-2099999J100022D01*
G01*
%TO.C,R4*%
X-1722500Y37054724D02*
X-1722500Y36545276D01*
X-677500Y37054724D02*
X-677500Y36545276D01*
%TO.C,U6*%
X-17564000Y-15712000D02*
X-16234000Y-15712000D01*
X-17564000Y-17042000D02*
X-17564000Y-15712000D01*
X-17564000Y-18312000D02*
X-17564000Y-36152000D01*
X-17564000Y-18312000D02*
X-14904000Y-18312000D01*
X-17564000Y-36152000D02*
X-14904000Y-36152000D01*
X-14904000Y-18312000D02*
X-14904000Y-36152000D01*
X14396000Y-15712000D02*
X15726000Y-15712000D01*
X14396000Y-17042000D02*
X14396000Y-15712000D01*
X14396000Y-18312000D02*
X14396000Y-36152000D01*
X14396000Y-18312000D02*
X17056000Y-18312000D01*
X14396000Y-36152000D02*
X17056000Y-36152000D01*
X17056000Y-18312000D02*
X17056000Y-36152000D01*
D12*
X-18034000Y7858000D02*
X17526000Y7858000D01*
X17526000Y-36592000D01*
X-18034000Y-36592000D01*
X-18034000Y7858000D01*
D11*
%TO.C,IR16*%
X14388020Y-49561573D02*
X11853201Y-50140099D01*
X14465899Y-49902798D02*
X14388020Y-49561573D01*
X14982122Y-52164637D02*
X15057775Y-52496113D01*
X15057775Y-52496113D02*
X10095380Y-53628689D01*
X14570310Y-52607368D02*
G75*
G02*
X10476070Y-53543584I-2069605J-369778D01*
G01*
%TO.C,IR14*%
X-9208066Y-53819854D02*
X-14170438Y-52687174D01*
X-9132406Y-53488379D02*
X-9208066Y-53819854D01*
X-8616135Y-51226550D02*
X-8538250Y-50885327D01*
X-8538250Y-50885327D02*
X-11073057Y-50306748D01*
X-9695529Y-53708589D02*
G75*
G02*
X-13790522Y-52775672I-2025091J564807D01*
G01*
%TO.C,IR9*%
X-52471034Y-15033050D02*
X-53603636Y-10070660D01*
X-52139558Y-14957395D02*
X-52471034Y-15033050D01*
X-49877722Y-14441160D02*
X-49536497Y-14363280D01*
X-49536497Y-14363280D02*
X-50115036Y-11828463D01*
X-52582292Y-14545585D02*
G75*
G02*
X-53518529Y-10451349I-369789J2069603D01*
G01*
%TO.C,IR5*%
X-44459149Y31669966D02*
X-41285574Y35649479D01*
X-44193327Y31457979D02*
X-44459149Y31669966D01*
X-42379482Y30011477D02*
X-42105842Y29793255D01*
X-42105842Y29793255D02*
X-40484762Y31826012D01*
X-44147403Y32060881D02*
G75*
G02*
X-41530146Y35345582I1387516J1579493D01*
G01*
%TO.C,IR27*%
X19697066Y47703833D02*
X22039564Y46575690D01*
X19848932Y48019169D02*
X19697066Y47703833D01*
X20855583Y50109398D02*
X21003109Y50415724D01*
X21003109Y50415724D02*
X25588998Y48207167D01*
X21453589Y50198773D02*
G75*
G02*
X25238301Y48377988I1848627J-1001288D01*
G01*
%TO.C,IR25*%
X38446785Y34444336D02*
X40067822Y32411545D01*
X38720430Y34662552D02*
X38446785Y34444336D01*
X40534305Y36109016D02*
X40800132Y36320998D01*
X40800132Y36320998D02*
X43973623Y32341419D01*
X41111869Y35930077D02*
G75*
G02*
X43731774Y32647484I1231115J-1704218D01*
G01*
%TO.C,IR10*%
X-47809700Y-26337572D02*
X-50018138Y-21751625D01*
X-47503370Y-26190053D02*
X-47809700Y-26337572D01*
X-45413115Y-25183457D02*
X-45097775Y-25031600D01*
X-45097775Y-25031600D02*
X-46225857Y-22689073D01*
X-48026639Y-25887086D02*
G75*
G02*
X-49850454Y-22103832I-821046J1935429D01*
G01*
%TO.C,IR12*%
X-31645199Y-44483983D02*
X-35624695Y-41310387D01*
X-31433210Y-44218162D02*
X-31645199Y-44483983D01*
X-29986699Y-42404325D02*
X-29768475Y-42130686D01*
X-29768475Y-42130686D02*
X-31801224Y-40509596D01*
X-32036112Y-44172235D02*
G75*
G02*
X-35320801Y-41554960I-1579486J1387525D01*
G01*
%TO.C,IR17*%
X25056364Y-45122907D02*
X22713831Y-46250977D01*
X25208219Y-45438248D02*
X25056364Y-45122907D01*
X26214804Y-47528508D02*
X26362321Y-47834839D01*
X26362321Y-47834839D02*
X21776363Y-50043252D01*
X25911834Y-48051776D02*
G75*
G02*
X22128571Y-49875570I-1935433J-821035D01*
G01*
%TO.C,IR22*%
X51540047Y2974191D02*
X51540006Y374191D01*
X51890047Y2974185D02*
X51540047Y2974191D01*
X54210047Y2974149D02*
X54550047Y2974143D01*
X54550047Y2974143D02*
X54549967Y-2115857D01*
X54550039Y2474143D02*
G75*
G02*
X54551709Y-1725773I-100033J-2099998D01*
G01*
%TO.C,IR20*%
X47728936Y-19671816D02*
X46600805Y-22014319D01*
X48044273Y-19823680D02*
X47728936Y-19671816D01*
X50134506Y-20830320D02*
X50440833Y-20977845D01*
X50440833Y-20977845D02*
X48232300Y-25563745D01*
X50223885Y-21428326D02*
G75*
G02*
X48403120Y-25213048I-1001279J-1848632D01*
G01*
D12*
%TO.C,SW1*%
X-25000Y44225000D02*
X3475000Y44225000D01*
X-25000Y35725000D02*
X-25000Y44225000D01*
X3475000Y44225000D02*
X3475000Y35725000D01*
X3475000Y35725000D02*
X-25000Y35725000D01*
D13*
%TO.C,U4*%
X-12687500Y32240000D02*
X-12687500Y14460000D01*
X-10147500Y11920000D02*
X10172500Y11920000D01*
X10172500Y34780000D02*
X-10147500Y34780000D01*
X12712500Y14460000D02*
X12712500Y32240000D01*
X-12687500Y32240000D02*
G75*
G02*
X-10147500Y34780000I2540001J-1D01*
G01*
X-10147500Y11920000D02*
G75*
G02*
X-12687500Y14460000I1J2540001D01*
G01*
X10172500Y34780000D02*
G75*
G02*
X12712500Y32240000I0J-2540000D01*
G01*
X12712500Y14460000D02*
G75*
G02*
X10172500Y11920000I-2540000J0D01*
G01*
D14*
X-6237500Y11170000D02*
G75*
G02*
X-6437500Y11170000I-100000J0D01*
G01*
X-6437500Y11170000D02*
G75*
G02*
X-6237500Y11170000I100000J0D01*
G01*
D11*
%TO.C,IR4*%
X-36296639Y40774561D02*
X-32317110Y43948115D01*
X-36084653Y40508738D02*
X-36296639Y40774561D01*
X-34638161Y38694885D02*
X-34419940Y38421244D01*
X-34419940Y38421244D02*
X-32387175Y40042313D01*
X-35905723Y41086305D02*
G75*
G02*
X-32623173Y43706259I1704198J1231141D01*
G01*
%TO.C,IR7*%
X-53794902Y9232785D02*
X-52662249Y14195163D01*
X-53463427Y9157126D02*
X-53794902Y9232785D01*
X-51201597Y8640867D02*
X-50860371Y8562983D01*
X-50860371Y8562983D02*
X-50281807Y11097793D01*
X-53683640Y9720248D02*
G75*
G02*
X-52750744Y13815246I564796J2025094D01*
G01*
D12*
%TO.C,SW3*%
X7600000Y44200000D02*
X11100000Y44200000D01*
X7600000Y35700000D02*
X7600000Y44200000D01*
X11100000Y44200000D02*
X11100000Y35700000D01*
X11100000Y35700000D02*
X7600000Y35700000D01*
D11*
%TO.C,IR2*%
X-15008326Y52495956D02*
X-10045942Y53628584D01*
X-14932669Y52164481D02*
X-15008326Y52495956D01*
X-14416422Y49902648D02*
X-14338540Y49561423D01*
X-14338540Y49561423D02*
X-11803727Y50139975D01*
X-14520862Y52607216D02*
G75*
G02*
X-10426631Y53543475I2069601J369800D01*
G01*
%TO.C,IR18*%
X34469537Y-38421605D02*
X32436755Y-40042653D01*
X34687755Y-38695249D02*
X34469537Y-38421605D01*
X36134228Y-40509116D02*
X36346211Y-40774942D01*
X36346211Y-40774942D02*
X32366649Y-43948454D01*
X35955292Y-41086682D02*
G75*
G02*
X32672713Y-43706603I-1704212J-1231123D01*
G01*
%TO.C,R3*%
X-4322500Y36545276D02*
X-4322500Y37054724D01*
X-3277500Y36545276D02*
X-3277500Y37054724D01*
%TO.C,IR6*%
X-50391054Y20977317D02*
X-48182568Y25563240D01*
X-50084725Y20829795D02*
X-50391054Y20977317D01*
X-47994481Y19823177D02*
X-47679142Y19671317D01*
X-47679142Y19671317D02*
X-46551036Y22013832D01*
X-50174110Y21427801D02*
G75*
G02*
X-48353384Y25212541I1001260J1848642D01*
G01*
%TO.C,IR26*%
X29818916Y42130374D02*
X31851648Y40509262D01*
X30037143Y42404011D02*
X29818916Y42130374D01*
X31483673Y44217833D02*
X31695665Y44483651D01*
X31695665Y44483651D02*
X35675128Y41310014D01*
X32086575Y44171899D02*
G75*
G02*
X35371235Y41554590I1579471J-1387541D01*
G01*
%TO.C,IR13*%
X-20952581Y-50415943D02*
X-25538492Y-48207434D01*
X-20805058Y-50109615D02*
X-20952581Y-50415943D01*
X-19798429Y-48019378D02*
X-19646566Y-47704039D01*
X-19646566Y-47704039D02*
X-21989075Y-46575920D01*
X-21403063Y-50198998D02*
G75*
G02*
X-25187796Y-48378252I-1848638J1001270D01*
G01*
%TO.C,IR21*%
X50910283Y-8563517D02*
X50331691Y-11098321D01*
X51251507Y-8641404D02*
X50910283Y-8563517D01*
X53513332Y-9157687D02*
X53844806Y-9233349D01*
X53844806Y-9233349D02*
X52712101Y-14195715D01*
X53733539Y-9720811D02*
G75*
G02*
X52800600Y-13815799I-564817J-2025088D01*
G01*
%TD*%
%LPC*%
D15*
%TO.C,J8*%
X-36750000Y-16725000D03*
D16*
X-36750000Y-11725000D03*
%TD*%
D15*
%TO.C,J9*%
X-36750000Y-775000D03*
D16*
X-36750000Y4225000D03*
%TD*%
D17*
%TO.C,IR1*%
X2190000Y53025000D03*
D18*
X-350000Y53025000D03*
X-2890000Y53025000D03*
%TD*%
D19*
%TO.C,IR11*%
X-42781704Y-31367561D03*
D18*
X-41198055Y-33353425D03*
X-39614406Y-35339289D03*
%TD*%
D20*
%TO.C,IR23*%
X52202470Y9687595D03*
D18*
X51637308Y12163921D03*
X51072145Y14640247D03*
%TD*%
D21*
%TO.C,SW2*%
X5550000Y37475000D03*
X5550000Y39975000D03*
X5550000Y42475000D03*
%TD*%
D22*
%TO.C,IR28*%
X13935926Y51213514D03*
D18*
X11459621Y51778767D03*
X8983315Y52344020D03*
%TD*%
D23*
%TO.C,IR8*%
X-52999989Y2165278D03*
D18*
X-53000002Y-374722D03*
X-53000016Y-2914722D03*
%TD*%
D24*
%TO.C,U5*%
X16900707Y28240000D03*
D25*
X16900707Y25700000D03*
X16900707Y23160000D03*
X16900707Y20620000D03*
X16900707Y18080000D03*
X16900707Y15540000D03*
X16900707Y13000000D03*
X32140707Y13000000D03*
X32140707Y15540000D03*
X32140707Y18080000D03*
X32140707Y20620000D03*
X32140707Y23160000D03*
X32140707Y25700000D03*
X32140707Y28240000D03*
%TD*%
D21*
%TO.C,SW4*%
X13125000Y37475000D03*
X13125000Y39975000D03*
X13125000Y42475000D03*
%TD*%
D26*
%TO.C,IR19*%
X40131291Y-34753752D03*
D18*
X41714982Y-32767921D03*
X43298673Y-30782091D03*
%TD*%
D27*
%TO.C,IR24*%
X48738595Y21055250D03*
D18*
X47636570Y23343730D03*
X46534544Y25632210D03*
%TD*%
D28*
%TO.C,IR3*%
X-21031015Y48713264D03*
D18*
X-23319478Y47611203D03*
X-25607940Y46509141D03*
%TD*%
D29*
%TO.C,IR15*%
X-2140555Y-53024977D03*
D18*
X399445Y-53025004D03*
X2939445Y-53025030D03*
%TD*%
D30*
%TO.C,H4*%
X-22500000Y-40000000D03*
%TD*%
D31*
%TO.C,R4*%
X-1200000Y37712500D03*
X-1200000Y35887500D03*
%TD*%
D32*
%TO.C,U6*%
X-14732000Y4556000D03*
X14224000Y4556000D03*
D33*
X-16234000Y-17042000D03*
D34*
X-16234000Y-19582000D03*
X-16234000Y-22122000D03*
X-16234000Y-24662000D03*
X-16234000Y-27202000D03*
X-16234000Y-29742000D03*
X-16234000Y-32282000D03*
X-16234000Y-34822000D03*
D33*
X15726000Y-17042000D03*
D34*
X15726000Y-19582000D03*
X15726000Y-22122000D03*
X15726000Y-24662000D03*
X15726000Y-27202000D03*
X15726000Y-29742000D03*
X15726000Y-32282000D03*
X15726000Y-34822000D03*
%TD*%
D35*
%TO.C,IR16*%
X9712868Y-52177419D03*
D18*
X12189191Y-51612244D03*
X14665514Y-51047068D03*
%TD*%
D36*
%TO.C,IR14*%
X-13885389Y-51213659D03*
D18*
X-11409078Y-51778886D03*
X-8932766Y-52344114D03*
%TD*%
D37*
%TO.C,IR9*%
X-52152368Y-9688141D03*
D18*
X-51587180Y-12164461D03*
X-51021991Y-14640782D03*
%TD*%
D38*
%TO.C,IR5*%
X-40081655Y34753332D03*
D18*
X-41665325Y32767485D03*
X-43248995Y30781638D03*
%TD*%
D39*
%TO.C,IR27*%
X24983194Y46834031D03*
D18*
X22694755Y47936140D03*
X20406315Y49038249D03*
%TD*%
D40*
%TO.C,IR25*%
X42832033Y31367113D03*
D18*
X41248405Y33352993D03*
X39664776Y35338874D03*
%TD*%
D41*
%TO.C,IR10*%
X-48688374Y-21055760D03*
D18*
X-47586325Y-23344228D03*
X-46484275Y-25632697D03*
%TD*%
D42*
%TO.C,IR12*%
X-34728542Y-40106473D03*
D18*
X-32742703Y-41690153D03*
X-30756864Y-43273834D03*
%TD*%
D43*
%TO.C,IR17*%
X21080505Y-48713485D03*
D18*
X23368979Y-47611448D03*
X25657453Y-46509410D03*
%TD*%
D44*
%TO.C,IR22*%
X53049966Y-2165833D03*
D18*
X53050006Y374167D03*
X53050046Y2914167D03*
%TD*%
D45*
%TO.C,IR20*%
X46859161Y-24957948D03*
D18*
X47961258Y-22669503D03*
X49063355Y-20381057D03*
%TD*%
D21*
%TO.C,SW1*%
X1725000Y37475000D03*
X1725000Y39975000D03*
X1725000Y42475000D03*
%TD*%
D30*
%TO.C,H2*%
X-22500000Y40000000D03*
%TD*%
D46*
%TO.C,U4*%
X-6337500Y14460000D03*
X-3797500Y14460000D03*
X-1257500Y14460000D03*
X1282500Y14460000D03*
X3822500Y14460000D03*
X6362500Y14460000D03*
X-6337500Y32240000D03*
X-3797500Y32240000D03*
X-1257500Y32240000D03*
X1282500Y32240000D03*
X3822500Y32240000D03*
X6362500Y32240000D03*
D47*
X-10147500Y32240000D03*
X10172500Y32240000D03*
X-10147500Y14460000D03*
X10172500Y14460000D03*
%TD*%
D48*
%TO.C,IR4*%
X-31342786Y42806540D03*
D18*
X-33328642Y41222880D03*
X-35314497Y39639221D03*
%TD*%
D30*
%TO.C,H1*%
X22500000Y40000000D03*
%TD*%
D49*
%TO.C,IR7*%
X-51188732Y13910121D03*
D18*
X-51753946Y11433807D03*
X-52319161Y8957492D03*
%TD*%
D21*
%TO.C,SW3*%
X9350000Y37450000D03*
X9350000Y39950000D03*
X9350000Y42450000D03*
%TD*%
D50*
%TO.C,IR2*%
X-9663415Y52177318D03*
D18*
X-12139732Y51612117D03*
X-14616050Y51046915D03*
%TD*%
D51*
%TO.C,IR18*%
X31392337Y-42806869D03*
D18*
X33378209Y-41223230D03*
X35364081Y-39639591D03*
%TD*%
D52*
%TO.C,R3*%
X-3800000Y35887500D03*
X-3800000Y37712500D03*
%TD*%
D53*
%TO.C,IR6*%
X-46809423Y24957458D03*
D18*
X-47911496Y22669001D03*
X-49013570Y20380543D03*
%TD*%
D54*
%TO.C,IR26*%
X34778962Y40106109D03*
D18*
X32793140Y41689810D03*
X30807317Y43273511D03*
%TD*%
D30*
%TO.C,H3*%
X22500000Y-40000000D03*
%TD*%
D55*
%TO.C,IR13*%
X-24932703Y-46834292D03*
D18*
X-22644252Y-47936377D03*
X-20355801Y-49038462D03*
%TD*%
D56*
%TO.C,IR21*%
X51238587Y-13910658D03*
D18*
X51803827Y-11434350D03*
X52369067Y-8958041D03*
%TD*%
D57*
%TO.C,J10*%
X-39300000Y26600000D03*
D58*
X-36800000Y26600000D03*
X-34300000Y26600000D03*
X-31800000Y26600000D03*
X-29300000Y26600000D03*
%TD*%
D57*
%TO.C,J4*%
X-39300000Y18800000D03*
D58*
X-36800000Y18800000D03*
X-34300000Y18800000D03*
X-31800000Y18800000D03*
X-29300000Y18800000D03*
%TD*%
%LPD*%
M02*
