M48
; DRILL file {KiCad 9.0.6} date 2026-02-03T22:24:42+0800
; FORMAT={-:-/ absolute / inch / decimal}
; #@! TF.CreationDate,2026-02-03T22:24:42+08:00
; #@! TF.GenerationSoftware,Kicad,Pcbnew,9.0.6
; #@! TF.FileFunction,Plated,1,2,PTH
FMAT,2
INCH
; #@! TA.AperFunction,Plated,PTH,ViaDrill
T1C0.0118
; #@! TA.AperFunction,Plated,PTH,ViaDrill
T2C0.0197
; #@! TA.AperFunction,Plated,PTH,ComponentDrill
T3C0.0335
; #@! TA.AperFunction,Plated,PTH,ComponentDrill
T4C0.0354
; #@! TA.AperFunction,Plated,PTH,ComponentDrill
T5C0.0374
; #@! TA.AperFunction,Plated,PTH,ViaDrill
T6C0.0394
; #@! TA.AperFunction,Plated,PTH,ComponentDrill
T7C0.0394
; #@! TA.AperFunction,Plated,PTH,ComponentDrill
T8C0.0669
; #@! TA.AperFunction,Plated,PTH,ComponentDrill
T9C0.0984
; #@! TA.AperFunction,Plated,PTH,ComponentDrill
T10C0.1260
; #@! TA.AperFunction,Plated,PTH,ComponentDrill
T11C0.1457
%
G90
G05
T1
X-1.2421Y-0.0925
X-0.998Y0.1988
X-0.9961Y0.1299
X-0.6772Y-0.5709
X-0.6043Y-0.5709
X-0.4016Y-0.002
X-0.4016Y-0.0374
X-0.4016Y-0.0709
X-0.4016Y-0.1122
X-0.3996Y0.0335
X0.7264Y-0.1122
X0.8031Y-0.0709
X0.8366Y0.0354
X0.8661Y-0.0374
X0.9114Y-0.002
X0.9715Y0.1299
X0.997Y0.1061
X1.2274Y0.0768
X1.2362Y0.3553
T2
X-0.8858Y-0.0138
X0.561Y0.8819
T3
X0.6654Y1.1614
X0.6654Y1.0614
X0.6654Y0.9614
X0.6654Y0.8614
X0.6654Y0.7614
X0.6654Y0.6614
X0.6654Y0.5614
X1.2654Y1.1614
X1.2654Y1.0614
X1.2654Y0.9614
X1.2654Y0.8614
X1.2654Y0.7614
X1.2654Y0.6614
X1.2654Y0.5614
T4
X-2.0876Y0.0862
X-2.0876Y-0.0138
X-2.0876Y-0.1138
X-2.0697Y0.2957
X-2.0643Y-0.3227
X-2.0502Y0.3938
X-2.0448Y-0.4208
X-2.0307Y0.4918
X-2.0253Y-0.5189
X-1.9722Y0.6938
X-1.9617Y-0.7192
X-1.934Y0.7862
X-1.9234Y-0.8116
X-1.8957Y0.8785
X-1.8851Y-0.904
X-1.799Y1.0652
X-1.7837Y-1.0881
X-1.7434Y1.1484
X-1.7281Y-1.1713
X-1.6879Y1.2315
X-1.6726Y-1.2544
X-1.5566Y1.3957
X-1.5371Y-1.4152
X-1.4859Y1.4664
X-1.4664Y-1.4859
X-1.4152Y1.5371
X-1.3957Y-1.5566
X-1.2544Y1.6726
X-1.2315Y-1.6879
X-1.1713Y1.7281
X-1.1484Y-1.7434
X-1.0881Y1.7837
X-1.0652Y-1.799
X-0.904Y1.8851
X-0.8785Y-1.8957
X-0.8116Y1.9234
X-0.7862Y-1.934
X-0.7192Y1.9617
X-0.6938Y-1.9722
X-0.5189Y2.0253
X-0.4918Y-2.0307
X-0.4208Y2.0448
X-0.3938Y-2.0502
X-0.3227Y2.0643
X-0.2957Y-2.0697
X-0.1138Y2.0876
X-0.0862Y-2.0876
X-0.0138Y2.0876
X0.0138Y-2.0876
X0.0862Y2.0876
X0.1138Y-2.0876
X0.2957Y2.0697
X0.3227Y-2.0643
X0.3938Y2.0502
X0.4208Y-2.0448
X0.4918Y2.0307
X0.5189Y-2.0253
X0.6938Y1.9722
X0.7192Y-1.9617
X0.7862Y1.934
X0.8116Y-1.9234
X0.8785Y1.8957
X0.904Y-1.8851
X1.0652Y1.799
X1.0881Y-1.7837
X1.1484Y1.7434
X1.1713Y-1.7281
X1.2315Y1.6879
X1.2544Y-1.6726
X1.3957Y1.5566
X1.4152Y-1.5371
X1.4664Y1.4859
X1.4859Y-1.4664
X1.5371Y1.4152
X1.5566Y-1.3957
X1.6726Y1.2544
X1.6879Y-1.2315
X1.7281Y1.1713
X1.7434Y-1.1484
X1.7837Y1.0881
X1.799Y-1.0652
X1.8851Y0.904
X1.8957Y-0.8785
X1.9234Y0.8116
X1.934Y-0.7862
X1.9617Y0.7192
X1.9722Y-0.6938
X2.0253Y0.5189
X2.0307Y-0.4918
X2.0448Y0.4208
X2.0502Y-0.3938
X2.0643Y0.3227
X2.0697Y-0.2957
X2.0876Y0.1138
X2.0876Y0.0138
X2.0876Y-0.0862
T5
X-0.9646Y1.0472
X-0.9646Y0.7402
X-0.8661Y1.0472
X-0.8661Y0.7402
X-0.7677Y1.0472
X-0.7677Y0.7402
X-0.6693Y1.0472
X-0.6693Y0.7402
X-0.5709Y1.0472
X-0.5709Y0.7402
T6
X0.9094Y-0.3878
T7
X-1.8169Y-0.0118
X-1.3839Y-0.0118
X-0.6391Y-0.6709
X-0.6391Y-0.7709
X-0.6391Y-0.8709
X-0.6391Y-0.9709
X-0.6391Y-1.0709
X-0.6391Y-1.1709
X-0.6391Y-1.2709
X-0.6391Y-1.3709
X-0.2495Y1.2693
X-0.2495Y0.5693
X-0.1495Y1.2693
X-0.1495Y0.5693
X-0.0495Y1.2693
X-0.0495Y0.5693
X0.0505Y1.2693
X0.0505Y0.5693
X0.1505Y1.2693
X0.1505Y0.5693
X0.2505Y1.2693
X0.2505Y0.5693
X0.6191Y-0.6709
X0.6191Y-0.7709
X0.6191Y-0.8709
X0.6191Y-0.9709
X0.6191Y-1.0709
X0.6191Y-1.1709
X0.6191Y-1.2709
X0.6191Y-1.3709
X1.3858Y0.0059
X1.8189Y0.0059
T8
X-1.6988Y-0.4055
X-1.502Y-0.4055
X1.5039Y-0.3878
X1.7008Y-0.3878
T9
X-0.3995Y1.2693
X-0.3995Y0.5693
X0.4005Y1.2693
X0.4005Y0.5693
T10
X-0.8858Y1.5748
X-0.8858Y-1.5748
X0.8858Y1.5748
X0.8858Y-1.5748
T11
X-0.58Y0.1794
X0.56Y0.1794
M30
