%TF.GenerationSoftware,KiCad,Pcbnew,9.0.6*%
%TF.CreationDate,2026-02-03T22:24:42+08:00*%
%TF.ProjectId,layer3,6c617965-7233-42e6-9b69-6361645f7063,rev?*%
%TF.SameCoordinates,Original*%
%TF.FileFunction,Legend,Top*%
%TF.FilePolarity,Positive*%
%FSLAX46Y46*%
G04 Gerber Fmt 4.6, Leading zero omitted, Abs format (unit mm)*
G04 Created by KiCad (PCBNEW 9.0.6) date 2026-02-03 22:24:42*
%MOMM*%
%LPD*%
G01*
G04 APERTURE LIST*
G04 Aperture macros list*
%AMRoundRect*
0 Rectangle with rounded corners*
0 $1 Rounding radius*
0 $2 $3 $4 $5 $6 $7 $8 $9 X,Y pos of 4 corners*
0 Add a 4 corners polygon primitive as box body*
4,1,4,$2,$3,$4,$5,$6,$7,$8,$9,$2,$3,0*
0 Add four circle primitives for the rounded corners*
1,1,$1+$1,$2,$3*
1,1,$1+$1,$4,$5*
1,1,$1+$1,$6,$7*
1,1,$1+$1,$8,$9*
0 Add four rect primitives between the rounded corners*
20,1,$1+$1,$2,$3,$4,$5,0*
20,1,$1+$1,$4,$5,$6,$7,0*
20,1,$1+$1,$6,$7,$8,$9,0*
20,1,$1+$1,$8,$9,$2,$3,0*%
G04 Aperture macros list end*
%ADD10C,0.120000*%
%ADD11C,0.127000*%
%ADD12C,0.200000*%
%ADD13C,0.100000*%
%ADD14RoundRect,0.250200X0.764084X-0.510545X0.510545X0.764084X-0.764084X0.510545X-0.510545X-0.764084X0*%
%ADD15C,1.800000*%
%ADD16RoundRect,0.250200X-0.849005X-0.351669X0.351669X-0.849005X0.849005X0.351669X-0.351669X0.849005X0*%
%ADD17RoundRect,0.250200X0.179279X0.901298X-0.901298X0.179279X-0.179279X-0.901298X0.901298X-0.179279X0*%
%ADD18RoundRect,0.250200X0.000000X0.918956X-0.918956X0.000000X0.000000X-0.918956X0.918956X0.000000X0*%
%ADD19C,5.600000*%
%ADD20RoundRect,0.250200X0.179279X-0.901298X0.901298X0.179279X-0.179279X0.901298X-0.901298X-0.179279X0*%
%ADD21RoundRect,0.250200X-0.901298X0.179279X-0.179279X-0.901298X0.901298X-0.179279X0.179279X0.901298X0*%
%ADD22RoundRect,0.102000X-0.679000X-0.679000X0.679000X-0.679000X0.679000X0.679000X-0.679000X0.679000X0*%
%ADD23C,1.562000*%
%ADD24RoundRect,0.250200X0.510545X0.764084X-0.764084X0.510545X-0.510545X-0.764084X0.764084X-0.510545X0*%
%ADD25RoundRect,0.250200X-0.849005X0.351669X-0.351669X-0.849005X0.849005X-0.351669X0.351669X0.849005X0*%
%ADD26RoundRect,0.237500X-0.237500X0.250000X-0.237500X-0.250000X0.237500X-0.250000X0.237500X0.250000X0*%
%ADD27C,6.000000*%
%ADD28R,1.700000X1.700000*%
%ADD29O,1.700000X1.700000*%
%ADD30RoundRect,0.250200X-0.510545X0.764084X-0.764084X-0.510545X0.510545X-0.764084X0.764084X0.510545X0*%
%ADD31RoundRect,0.250200X0.849005X-0.351669X0.351669X0.849005X-0.849005X0.351669X-0.351669X-0.849005X0*%
%ADD32C,2.754000*%
%ADD33RoundRect,0.102000X-1.275000X-1.275000X1.275000X-1.275000X1.275000X1.275000X-1.275000X1.275000X0*%
%ADD34C,1.712000*%
%ADD35RoundRect,0.250200X0.351669X0.849005X-0.849005X0.351669X-0.351669X-0.849005X0.849005X-0.351669X0*%
%ADD36RoundRect,0.250200X-0.764084X-0.510545X0.510545X-0.764084X0.764084X0.510545X-0.510545X0.764084X0*%
%ADD37RoundRect,0.250200X-0.179279X0.901298X-0.901298X-0.179279X0.179279X-0.901298X0.901298X0.179279X0*%
%ADD38RoundRect,0.250200X0.510545X-0.764084X0.764084X0.510545X-0.510545X0.764084X-0.764084X-0.510545X0*%
%ADD39RoundRect,0.250200X0.764084X0.510545X-0.510545X0.764084X-0.764084X-0.510545X0.510545X-0.764084X0*%
%ADD40RoundRect,0.250200X0.849005X0.351669X-0.351669X0.849005X-0.849005X-0.351669X0.351669X-0.849005X0*%
%ADD41RoundRect,0.250200X-0.351669X0.849005X-0.849005X-0.351669X0.351669X-0.849005X0.849005X0.351669X0*%
%ADD42RoundRect,0.250200X-0.179279X-0.901298X0.901298X-0.179279X0.179279X0.901298X-0.901298X0.179279X0*%
%ADD43C,1.982000*%
%ADD44C,3.404000*%
%ADD45RoundRect,0.250200X0.649800X-0.649800X0.649800X0.649800X-0.649800X0.649800X-0.649800X-0.649800X0*%
%ADD46RoundRect,0.250200X0.918956X0.000000X0.000000X0.918956X-0.918956X0.000000X0.000000X-0.918956X0*%
%ADD47RoundRect,0.250200X0.901298X-0.179279X0.179279X0.901298X-0.901298X0.179279X-0.179279X-0.901298X0*%
%ADD48RoundRect,0.250200X0.000000X-0.918956X0.918956X0.000000X0.000000X0.918956X-0.918956X0.000000X0*%
%ADD49RoundRect,0.250200X0.351669X-0.849005X0.849005X0.351669X-0.351669X0.849005X-0.849005X-0.351669X0*%
%ADD50RoundRect,0.250200X-0.351669X-0.849005X0.849005X-0.351669X0.351669X0.849005X-0.849005X0.351669X0*%
%ADD51RoundRect,0.250200X0.901298X0.179279X-0.179279X0.901298X-0.901298X-0.179279X0.179279X-0.901298X0*%
%ADD52RoundRect,0.237500X0.237500X-0.250000X0.237500X0.250000X-0.237500X0.250000X-0.237500X-0.250000X0*%
%ADD53RoundRect,0.250200X-0.649800X-0.649800X0.649800X-0.649800X0.649800X0.649800X-0.649800X0.649800X0*%
%ADD54RoundRect,0.250200X-0.918956X0.000000X0.000000X-0.918956X0.918956X0.000000X0.000000X0.918956X0*%
%ADD55RoundRect,0.250200X-0.764084X0.510545X-0.510545X-0.764084X0.764084X-0.510545X0.510545X0.764084X0*%
%ADD56RoundRect,0.250200X-0.649800X0.649800X-0.649800X-0.649800X0.649800X-0.649800X0.649800X0.649800X0*%
%ADD57RoundRect,0.250200X-0.901298X-0.179279X0.179279X-0.901298X0.901298X0.179279X-0.179279X0.901298X0*%
%ADD58RoundRect,0.250200X-0.510545X-0.764084X0.764084X-0.510545X0.510545X0.764084X-0.764084X0.510545X0*%
%ADD59RoundRect,0.250200X0.649800X0.649800X-0.649800X0.649800X-0.649800X-0.649800X0.649800X-0.649800X0*%
%ADD60RoundRect,0.250000X-0.600000X-0.725000X0.600000X-0.725000X0.600000X0.725000X-0.600000X0.725000X0*%
%ADD61O,1.700000X1.950000*%
G04 APERTURE END LIST*
D10*
%TO.C,IR26*%
X49949637Y12943395D02*
X50456872Y10393353D01*
X50292912Y13011677D02*
X49949637Y12943395D01*
X52568334Y13464286D02*
X52901801Y13530617D01*
X52901801Y13530617D02*
X53894810Y8538420D01*
X52999346Y13040224D02*
G75*
G02*
X53820412Y8921347I311611J-2079158D01*
G01*
%TO.C,IR15*%
X-18140369Y-51503447D02*
X-22842916Y-49555588D01*
X-18010257Y-51189328D02*
X-18140369Y-51503447D01*
X-17122430Y-49045928D02*
X-16988492Y-48722570D01*
X-16988492Y-48722570D02*
X-19390579Y-47727593D01*
X-18602309Y-51312105D02*
G75*
G02*
X-22483191Y-49706471I-1901879J896023D01*
G01*
%TO.C,IR4*%
X-32745302Y43696948D02*
X-28513122Y46524801D01*
X-32556408Y43414249D02*
X-32745302Y43696948D01*
X-31267485Y41485239D02*
X-31073036Y41194225D01*
X-31073036Y41194225D02*
X-28911215Y42638707D01*
X-32329567Y43974734D02*
G75*
G02*
X-28838429Y46309525I1801643J1083550D01*
G01*
%TO.C,IR5*%
X-40640962Y36469032D02*
X-37041789Y40068206D01*
X-40400546Y36228616D02*
X-40640962Y36469032D01*
X-38760058Y34588128D02*
X-38512571Y34340641D01*
X-38512571Y34340641D02*
X-36674093Y36179119D01*
X-40287409Y36822586D02*
G75*
G02*
X-37318847Y39793602I1555635J1414213D01*
G01*
%TO.C,IR22*%
X44472089Y-26167365D02*
X43027606Y-28329186D01*
X44763103Y-26361815D02*
X44472089Y-26167365D01*
X46692113Y-27650738D02*
X46974812Y-27839632D01*
X46974812Y-27839632D02*
X44146960Y-32071812D01*
X46697027Y-28255366D02*
G75*
G02*
X44365122Y-31748435I-1249844J-1690530D01*
G01*
%TO.C,IR12*%
X-43696948Y-32745302D02*
X-46524801Y-28513122D01*
X-43414249Y-32556408D02*
X-43696948Y-32745302D01*
X-41485239Y-31267485D02*
X-41194225Y-31073036D01*
X-41194225Y-31073036D02*
X-42638707Y-28911215D01*
X-43974734Y-32329567D02*
G75*
G02*
X-46309525Y-28838429I-1083550J1801643D01*
G01*
D11*
%TO.C,U5*%
X15630000Y32421000D02*
X33410000Y32421000D01*
X15630000Y11466000D02*
X15630000Y32421000D01*
X33410000Y32421000D02*
X33410000Y11466000D01*
X33410000Y11466000D02*
X15630000Y11466000D01*
D12*
X15120000Y29627000D02*
G75*
G02*
X14920000Y29627000I-100000J0D01*
G01*
X14920000Y29627000D02*
G75*
G02*
X15120000Y29627000I100000J0D01*
G01*
D10*
%TO.C,IR2*%
X-13530617Y52901801D02*
X-8538420Y53894810D01*
X-13464286Y52568334D02*
X-13530617Y52901801D01*
X-13011677Y50292912D02*
X-12943395Y49949637D01*
X-12943395Y49949637D02*
X-10393353Y50456872D01*
X-13040224Y52999346D02*
G75*
G02*
X-8921347Y53820412I2079158J311611D01*
G01*
%TO.C,IR11*%
X-49245615Y-23591259D02*
X-51193474Y-18888712D01*
X-48931496Y-23461148D02*
X-49245615Y-23591259D01*
X-46788096Y-22573321D02*
X-46464738Y-22439382D01*
X-46464738Y-22439382D02*
X-47459715Y-20037295D01*
X-49436957Y-23129319D02*
G75*
G02*
X-51045799Y-19249767I-711247J1978415D01*
G01*
%TO.C,R4*%
X-1722500Y37054724D02*
X-1722500Y36545276D01*
X-677500Y37054724D02*
X-677500Y36545276D01*
%TO.C,U6*%
X-17564000Y-15712000D02*
X-16234000Y-15712000D01*
X-17564000Y-17042000D02*
X-17564000Y-15712000D01*
X-17564000Y-18312000D02*
X-17564000Y-36152000D01*
X-17564000Y-18312000D02*
X-14904000Y-18312000D01*
X-17564000Y-36152000D02*
X-14904000Y-36152000D01*
X-14904000Y-18312000D02*
X-14904000Y-36152000D01*
X14396000Y-15712000D02*
X15726000Y-15712000D01*
X14396000Y-17042000D02*
X14396000Y-15712000D01*
X14396000Y-18312000D02*
X14396000Y-36152000D01*
X14396000Y-18312000D02*
X17056000Y-18312000D01*
X14396000Y-36152000D02*
X17056000Y-36152000D01*
X17056000Y-18312000D02*
X17056000Y-36152000D01*
D13*
X-18034000Y7858000D02*
X17526000Y7858000D01*
X17526000Y-36592000D01*
X-18034000Y-36592000D01*
X-18034000Y7858000D01*
D10*
%TO.C,IR8*%
X-54052834Y7743983D02*
X-53059824Y12736180D01*
X-53719367Y7677652D02*
X-54052834Y7743983D01*
X-51443945Y7225043D02*
X-51100670Y7156761D01*
X-51100670Y7156761D02*
X-50593436Y9706803D01*
X-53955289Y8234376D02*
G75*
G02*
X-53137628Y12353931I507768J2040140D01*
G01*
%TO.C,IR27*%
X46464738Y22439382D02*
X47459715Y20037295D01*
X46788096Y22573321D02*
X46464738Y22439382D01*
X48931496Y23461148D02*
X49245615Y23591259D01*
X49245615Y23591259D02*
X51193474Y18888712D01*
X49436957Y23129319D02*
G75*
G02*
X51045799Y19249767I711247J-1978415D01*
G01*
D11*
%TO.C,J8*%
X34050000Y1400000D02*
X35750000Y1400000D01*
X34050000Y-1100000D02*
X34050000Y1400000D01*
X35750000Y3100000D02*
X45650000Y3100000D01*
X35750000Y1400000D02*
X35750000Y3100000D01*
X35750000Y-1100000D02*
X34050000Y-1100000D01*
X35750000Y-5900000D02*
X35750000Y-1100000D01*
X37700000Y-12100000D02*
X38700000Y-12100000D01*
X38200000Y-12600000D02*
X38200000Y-11600000D01*
X42700000Y-12100000D02*
X43700000Y-12100000D01*
X45650000Y3100000D02*
X45650000Y1400000D01*
X45650000Y1400000D02*
X47350000Y1400000D01*
X45650000Y-1100000D02*
X45650000Y-5900000D01*
X45650000Y-5900000D02*
X35750000Y-5900000D01*
X47350000Y1400000D02*
X47350000Y-1100000D01*
X47350000Y-1100000D02*
X45650000Y-1100000D01*
D10*
%TO.C,IR3*%
X-23591259Y49245615D02*
X-18888712Y51193474D01*
X-23461148Y48931496D02*
X-23591259Y49245615D01*
X-22573321Y46788096D02*
X-22439382Y46464738D01*
X-22439382Y46464738D02*
X-20037295Y47459715D01*
X-23129319Y49436957D02*
G75*
G02*
X-19249767Y51045799I1978415J711247D01*
G01*
%TO.C,IR16*%
X-7743983Y-54052834D02*
X-12736180Y-53059824D01*
X-7677652Y-53719367D02*
X-7743983Y-54052834D01*
X-7225043Y-51443945D02*
X-7156761Y-51100670D01*
X-7156761Y-51100670D02*
X-9706803Y-50593436D01*
X-8234376Y-53955289D02*
G75*
G02*
X-12353931Y-53137628I-2040140J507768D01*
G01*
%TO.C,IR6*%
X-46974812Y27839632D02*
X-44146960Y32071812D01*
X-46692113Y27650738D02*
X-46974812Y27839632D01*
X-44763103Y26361815D02*
X-44472089Y26167365D01*
X-44472089Y26167365D02*
X-43027606Y28329186D01*
X-46697027Y28255366D02*
G75*
G02*
X-44365122Y31748435I1249844J1690530D01*
G01*
%TO.C,IR24*%
X51100670Y-7156761D02*
X50593436Y-9706803D01*
X51443945Y-7225043D02*
X51100670Y-7156761D01*
X53719367Y-7677652D02*
X54052834Y-7743983D01*
X54052834Y-7743983D02*
X53059824Y-12736180D01*
X53955289Y-8234376D02*
G75*
G02*
X53137628Y-12353931I-507768J-2040140D01*
G01*
%TO.C,IR32*%
X7156761Y51100670D02*
X9706803Y50593436D01*
X7225043Y51443945D02*
X7156761Y51100670D01*
X7677652Y53719367D02*
X7743983Y54052834D01*
X7743983Y54052834D02*
X12736180Y53059824D01*
X8234376Y53955289D02*
G75*
G02*
X12353931Y53137628I2040140J-507768D01*
G01*
%TO.C,IR31*%
X16988492Y48722570D02*
X19390579Y47727593D01*
X17122430Y49045928D02*
X16988492Y48722570D01*
X18010257Y51189328D02*
X18140369Y51503447D01*
X18140369Y51503447D02*
X22842916Y49555588D01*
X18602309Y51312105D02*
G75*
G02*
X22483191Y49706471I1901879J-896023D01*
G01*
%TO.C,IR7*%
X-51503447Y18140369D02*
X-49555588Y22842916D01*
X-51189328Y18010257D02*
X-51503447Y18140369D01*
X-49045928Y17122430D02*
X-48722570Y16988492D01*
X-48722570Y16988492D02*
X-47727593Y19390579D01*
X-51312105Y18602309D02*
G75*
G02*
X-49706471Y22483191I896023J1901879D01*
G01*
%TO.C,IR20*%
X31073036Y-41194225D02*
X28911215Y-42638707D01*
X31267485Y-41485239D02*
X31073036Y-41194225D01*
X32556408Y-43414249D02*
X32745302Y-43696948D01*
X32745302Y-43696948D02*
X28513122Y-46524801D01*
X32329567Y-43974734D02*
G75*
G02*
X28838429Y-46309525I-1801643J-1083550D01*
G01*
D11*
%TO.C,U4*%
X-12687500Y32240000D02*
X-12687500Y14460000D01*
X-10147500Y11920000D02*
X10172500Y11920000D01*
X10172500Y34780000D02*
X-10147500Y34780000D01*
X12712500Y14460000D02*
X12712500Y32240000D01*
X-12687500Y32240000D02*
G75*
G02*
X-10147500Y34780000I2540001J-1D01*
G01*
X-10147500Y11920000D02*
G75*
G02*
X-12687500Y14460000I1J2540001D01*
G01*
X10172500Y34780000D02*
G75*
G02*
X12712500Y32240000I0J-2540000D01*
G01*
X12712500Y14460000D02*
G75*
G02*
X10172500Y11920000I-2540000J0D01*
G01*
D12*
X-6237500Y11170000D02*
G75*
G02*
X-6437500Y11170000I-100000J0D01*
G01*
X-6437500Y11170000D02*
G75*
G02*
X-6237500Y11170000I100000J0D01*
G01*
D10*
%TO.C,IR25*%
X51515000Y2950000D02*
X51515000Y350000D01*
X51865000Y2950000D02*
X51515000Y2950000D01*
X54185000Y2950000D02*
X54525000Y2950000D01*
X54525000Y2950000D02*
X54525000Y-2140000D01*
X54525000Y2450000D02*
G75*
G02*
X54526736Y-1749917I-100000J-2100000D01*
G01*
%TO.C,IR29*%
X34340641Y38512571D02*
X36179119Y36674093D01*
X34588128Y38760058D02*
X34340641Y38512571D01*
X36228616Y40400546D02*
X36469032Y40640962D01*
X36469032Y40640962D02*
X40068206Y37041789D01*
X36822586Y40287409D02*
G75*
G02*
X39793602Y37318847I1414213J-1555635D01*
G01*
D11*
%TO.C,J9*%
X-47300000Y950000D02*
X-45600000Y950000D01*
X-47300000Y-1550000D02*
X-47300000Y950000D01*
X-45600000Y2650000D02*
X-35700000Y2650000D01*
X-45600000Y950000D02*
X-45600000Y2650000D01*
X-45600000Y-1550000D02*
X-47300000Y-1550000D01*
X-45600000Y-6350000D02*
X-45600000Y-1550000D01*
X-43650000Y-12550000D02*
X-42650000Y-12550000D01*
X-43150000Y-13050000D02*
X-43150000Y-12050000D01*
X-38650000Y-12550000D02*
X-37650000Y-12550000D01*
X-35700000Y2650000D02*
X-35700000Y950000D01*
X-35700000Y950000D02*
X-34000000Y950000D01*
X-35700000Y-1550000D02*
X-35700000Y-6350000D01*
X-35700000Y-6350000D02*
X-45600000Y-6350000D01*
X-34000000Y950000D02*
X-34000000Y-1550000D01*
X-34000000Y-1550000D02*
X-35700000Y-1550000D01*
D10*
%TO.C,IR28*%
X41194225Y31073036D02*
X42638707Y28911215D01*
X41485239Y31267485D02*
X41194225Y31073036D01*
X43414249Y32556408D02*
X43696948Y32745302D01*
X43696948Y32745302D02*
X46524801Y28513122D01*
X43974734Y32329567D02*
G75*
G02*
X46309525Y28838429I1083550J-1801643D01*
G01*
%TO.C,IR21*%
X38512571Y-34340641D02*
X36674093Y-36179119D01*
X38760058Y-34588128D02*
X38512571Y-34340641D01*
X40400546Y-36228616D02*
X40640962Y-36469032D01*
X40640962Y-36469032D02*
X37041789Y-40068206D01*
X40287409Y-36822586D02*
G75*
G02*
X37318847Y-39793602I-1555635J-1414213D01*
G01*
%TO.C,IR23*%
X48722570Y-16988492D02*
X47727593Y-19390579D01*
X49045928Y-17122430D02*
X48722570Y-16988492D01*
X51189328Y-18010257D02*
X51503447Y-18140369D01*
X51503447Y-18140369D02*
X49555588Y-22842916D01*
X51312105Y-18602309D02*
G75*
G02*
X49706471Y-22483191I-896023J-1901879D01*
G01*
%TO.C,IR19*%
X22439382Y-46464738D02*
X20037295Y-47459715D01*
X22573321Y-46788096D02*
X22439382Y-46464738D01*
X23461148Y-48931496D02*
X23591259Y-49245615D01*
X23591259Y-49245615D02*
X18888712Y-51193474D01*
X23129319Y-49436957D02*
G75*
G02*
X19249767Y-51045799I-1978415J-711247D01*
G01*
%TO.C,IR30*%
X26167365Y44472089D02*
X28329186Y43027606D01*
X26361815Y44763103D02*
X26167365Y44472089D01*
X27650738Y46692113D02*
X27839632Y46974812D01*
X27839632Y46974812D02*
X32071812Y44146960D01*
X28255366Y46697027D02*
G75*
G02*
X31748435Y44365122I1690530J-1249844D01*
G01*
%TO.C,R3*%
X-4322500Y36545276D02*
X-4322500Y37054724D01*
X-3277500Y36545276D02*
X-3277500Y37054724D01*
%TO.C,IR17*%
X2950000Y-51515000D02*
X350000Y-51515000D01*
X2950000Y-51865000D02*
X2950000Y-51515000D01*
X2950000Y-54185000D02*
X2950000Y-54525000D01*
X2950000Y-54525000D02*
X-2140000Y-54525000D01*
X2450000Y-54525000D02*
G75*
G02*
X-1749917Y-54526736I-2100000J100000D01*
G01*
%TO.C,IR13*%
X-36469032Y-40640962D02*
X-40068206Y-37041789D01*
X-36228616Y-40400546D02*
X-36469032Y-40640962D01*
X-34588128Y-38760058D02*
X-34340641Y-38512571D01*
X-34340641Y-38512571D02*
X-36179119Y-36674093D01*
X-36822586Y-40287409D02*
G75*
G02*
X-39793602Y-37318847I-1414213J1555635D01*
G01*
%TO.C,IR10*%
X-52901801Y-13530617D02*
X-53894810Y-8538420D01*
X-52568334Y-13464286D02*
X-52901801Y-13530617D01*
X-50292912Y-13011677D02*
X-49949637Y-12943395D01*
X-49949637Y-12943395D02*
X-50456872Y-10393353D01*
X-52999346Y-13040224D02*
G75*
G02*
X-53820412Y-8921347I-311611J2079158D01*
G01*
%TO.C,IR9*%
X-54525000Y-2950000D02*
X-54525000Y2140000D01*
X-54185000Y-2950000D02*
X-54525000Y-2950000D01*
X-51865000Y-2950000D02*
X-51515000Y-2950000D01*
X-51515000Y-2950000D02*
X-51515000Y-350000D01*
X-54525000Y-2450000D02*
G75*
G02*
X-54526736Y1749917I100000J2100000D01*
G01*
%TO.C,IR14*%
X-27839632Y-46974812D02*
X-32071812Y-44146960D01*
X-27650738Y-46692113D02*
X-27839632Y-46974812D01*
X-26361815Y-44763103D02*
X-26167365Y-44472089D01*
X-26167365Y-44472089D02*
X-28329186Y-43027606D01*
X-28255366Y-46697027D02*
G75*
G02*
X-31748435Y-44365122I-1690530J1249844D01*
G01*
%TO.C,IR18*%
X12943395Y-49949637D02*
X10393353Y-50456872D01*
X13011677Y-50292912D02*
X12943395Y-49949637D01*
X13464286Y-52568334D02*
X13530617Y-52901801D01*
X13530617Y-52901801D02*
X8538420Y-53894810D01*
X13040224Y-52999346D02*
G75*
G02*
X8921347Y-53820412I-2079158J-311611D01*
G01*
%TO.C,IR1*%
X-2950000Y54525000D02*
X2140000Y54525000D01*
X-2950000Y54185000D02*
X-2950000Y54525000D01*
X-2950000Y51865000D02*
X-2950000Y51515000D01*
X-2950000Y51515000D02*
X-350000Y51515000D01*
X-2450000Y54525000D02*
G75*
G02*
X1749917Y54526736I2100000J-100000D01*
G01*
%TD*%
%LPC*%
D14*
%TO.C,IR26*%
X52433387Y8196745D03*
D15*
X51937858Y10687940D03*
X51442328Y13179134D03*
%TD*%
D16*
%TO.C,IR15*%
X-22315085Y-48150635D03*
D15*
X-19968431Y-49122651D03*
X-17621777Y-50094667D03*
%TD*%
D17*
%TO.C,IR4*%
X-27638193Y45305375D03*
D15*
X-29750126Y43894227D03*
X-31862059Y42483078D03*
%TD*%
D18*
%TO.C,IR5*%
X-35945773Y39042901D03*
D15*
X-37741824Y37246850D03*
X-39537875Y35450799D03*
%TD*%
D19*
%TO.C,H4*%
X22500000Y-40000000D03*
%TD*%
D20*
%TO.C,IR22*%
X42871977Y-31280030D03*
D15*
X44283125Y-29168097D03*
X45694274Y-27056164D03*
%TD*%
D21*
%TO.C,IR12*%
X-45305375Y-27638193D03*
D15*
X-43894227Y-29750126D03*
X-42483078Y-31862059D03*
%TD*%
D22*
%TO.C,U5*%
X16900000Y29500000D03*
D23*
X16900000Y26960000D03*
X16900000Y24420000D03*
X16900000Y21880000D03*
X16900000Y19340000D03*
X16900000Y16800000D03*
X16900000Y14260000D03*
X32140000Y14260000D03*
X32140000Y16800000D03*
X32140000Y19340000D03*
X32140000Y21880000D03*
X32140000Y24420000D03*
X32140000Y26960000D03*
X32140000Y29500000D03*
%TD*%
D24*
%TO.C,IR2*%
X-8196745Y52433387D03*
D15*
X-10687940Y51937858D03*
X-13179134Y51442328D03*
%TD*%
D25*
%TO.C,IR11*%
X-49826789Y-18268493D03*
D15*
X-48854773Y-20615147D03*
X-47882757Y-22961801D03*
%TD*%
D26*
%TO.C,R4*%
X-1200000Y37712500D03*
X-1200000Y35887500D03*
%TD*%
D27*
%TO.C,U6*%
X-14732000Y4556000D03*
X14224000Y4556000D03*
D28*
X-16234000Y-17042000D03*
D29*
X-16234000Y-19582000D03*
X-16234000Y-22122000D03*
X-16234000Y-24662000D03*
X-16234000Y-27202000D03*
X-16234000Y-29742000D03*
X-16234000Y-32282000D03*
X-16234000Y-34822000D03*
D28*
X15726000Y-17042000D03*
D29*
X15726000Y-19582000D03*
X15726000Y-22122000D03*
X15726000Y-24662000D03*
X15726000Y-27202000D03*
X15726000Y-29742000D03*
X15726000Y-32282000D03*
X15726000Y-34822000D03*
%TD*%
D30*
%TO.C,IR8*%
X-51578892Y12492584D03*
D15*
X-52074421Y10001389D03*
X-52569951Y7510195D03*
%TD*%
D31*
%TO.C,IR27*%
X49826789Y18268493D03*
D15*
X48854773Y20615147D03*
X47882757Y22961801D03*
%TD*%
D19*
%TO.C,H2*%
X22500000Y40000000D03*
%TD*%
D32*
%TO.C,J8*%
X43200000Y-9850000D03*
D33*
X38200000Y-9850000D03*
D34*
X46200000Y150000D03*
X35200000Y150000D03*
%TD*%
D35*
%TO.C,IR3*%
X-18268493Y49826789D03*
D15*
X-20615147Y48854773D03*
X-22961801Y47882757D03*
%TD*%
D36*
%TO.C,IR16*%
X-12492584Y-51578892D03*
D15*
X-10001389Y-52074421D03*
X-7510195Y-52569951D03*
%TD*%
D37*
%TO.C,IR6*%
X-42871977Y31280030D03*
D15*
X-44283125Y29168097D03*
X-45694274Y27056164D03*
%TD*%
D38*
%TO.C,IR24*%
X51578892Y-12492584D03*
D15*
X52074421Y-10001389D03*
X52569951Y-7510195D03*
%TD*%
D39*
%TO.C,IR32*%
X12492584Y51578892D03*
D15*
X10001389Y52074421D03*
X7510195Y52569951D03*
%TD*%
D40*
%TO.C,IR31*%
X22315085Y48150635D03*
D15*
X19968431Y49122651D03*
X17621777Y50094667D03*
%TD*%
D41*
%TO.C,IR7*%
X-48150635Y22315085D03*
D15*
X-49122651Y19968431D03*
X-50094667Y17621777D03*
%TD*%
D19*
%TO.C,H1*%
X-22500000Y40000000D03*
%TD*%
D42*
%TO.C,IR20*%
X27638193Y-45305375D03*
D15*
X29750126Y-43894227D03*
X31862059Y-42483078D03*
%TD*%
D43*
%TO.C,U4*%
X-6337500Y14460000D03*
X-3797500Y14460000D03*
X-1257500Y14460000D03*
X1282500Y14460000D03*
X3822500Y14460000D03*
X6362500Y14460000D03*
X-6337500Y32240000D03*
X-3797500Y32240000D03*
X-1257500Y32240000D03*
X1282500Y32240000D03*
X3822500Y32240000D03*
X6362500Y32240000D03*
D44*
X-10147500Y32240000D03*
X10172500Y32240000D03*
X-10147500Y14460000D03*
X10172500Y14460000D03*
%TD*%
D45*
%TO.C,IR25*%
X53025000Y-2190000D03*
D15*
X53025000Y350000D03*
X53025000Y2890000D03*
%TD*%
D46*
%TO.C,IR29*%
X39042901Y35945773D03*
D15*
X37246850Y37741824D03*
X35450799Y39537875D03*
%TD*%
D32*
%TO.C,J9*%
X-38150000Y-10300000D03*
D33*
X-43150000Y-10300000D03*
D34*
X-35150000Y-300000D03*
X-46150000Y-300000D03*
%TD*%
D47*
%TO.C,IR28*%
X45305375Y27638193D03*
D15*
X43894227Y29750126D03*
X42483078Y31862059D03*
%TD*%
D19*
%TO.C,H3*%
X-22500000Y-40000000D03*
%TD*%
D48*
%TO.C,IR21*%
X35945773Y-39042901D03*
D15*
X37741824Y-37246850D03*
X39537875Y-35450799D03*
%TD*%
D49*
%TO.C,IR23*%
X48150635Y-22315085D03*
D15*
X49122651Y-19968431D03*
X50094667Y-17621777D03*
%TD*%
D50*
%TO.C,IR19*%
X18268493Y-49826789D03*
D15*
X20615147Y-48854773D03*
X22961801Y-47882757D03*
%TD*%
D51*
%TO.C,IR30*%
X31280030Y42871977D03*
D15*
X29168097Y44283125D03*
X27056164Y45694274D03*
%TD*%
D52*
%TO.C,R3*%
X-3800000Y35887500D03*
X-3800000Y37712500D03*
%TD*%
D53*
%TO.C,IR17*%
X-2190000Y-53025000D03*
D15*
X350000Y-53025000D03*
X2890000Y-53025000D03*
%TD*%
D54*
%TO.C,IR13*%
X-39042901Y-35945773D03*
D15*
X-37246850Y-37741824D03*
X-35450799Y-39537875D03*
%TD*%
D55*
%TO.C,IR10*%
X-52433387Y-8196745D03*
D15*
X-51937858Y-10687940D03*
X-51442328Y-13179134D03*
%TD*%
D56*
%TO.C,IR9*%
X-53025000Y2190000D03*
D15*
X-53025000Y-350000D03*
X-53025000Y-2890000D03*
%TD*%
D57*
%TO.C,IR14*%
X-31280030Y-42871977D03*
D15*
X-29168097Y-44283125D03*
X-27056164Y-45694274D03*
%TD*%
D58*
%TO.C,IR18*%
X8196745Y-52433387D03*
D15*
X10687940Y-51937858D03*
X13179134Y-51442328D03*
%TD*%
D59*
%TO.C,IR1*%
X2190000Y53025000D03*
D15*
X-350000Y53025000D03*
X-2890000Y53025000D03*
%TD*%
D60*
%TO.C,J10*%
X-24500000Y26600000D03*
D61*
X-22000000Y26600000D03*
X-19500000Y26600000D03*
X-17000000Y26600000D03*
X-14500000Y26600000D03*
%TD*%
D60*
%TO.C,J4*%
X-24500000Y18800000D03*
D61*
X-22000000Y18800000D03*
X-19500000Y18800000D03*
X-17000000Y18800000D03*
X-14500000Y18800000D03*
%TD*%
%LPD*%
M02*
