%TF.GenerationSoftware,KiCad,Pcbnew,9.0.6*%
%TF.CreationDate,2026-03-02T11:12:37+08:00*%
%TF.ProjectId,layer3,6c617965-7233-42e6-9b69-6361645f7063,rev?*%
%TF.SameCoordinates,Original*%
%TF.FileFunction,Soldermask,Top*%
%TF.FilePolarity,Negative*%
%FSLAX46Y46*%
G04 Gerber Fmt 4.6, Leading zero omitted, Abs format (unit mm)*
G04 Created by KiCad (PCBNEW 9.0.6) date 2026-03-02 11:12:37*
%MOMM*%
%LPD*%
G01*
G04 APERTURE LIST*
G04 Aperture macros list*
%AMRoundRect*
0 Rectangle with rounded corners*
0 $1 Rounding radius*
0 $2 $3 $4 $5 $6 $7 $8 $9 X,Y pos of 4 corners*
0 Add a 4 corners polygon primitive as box body*
4,1,4,$2,$3,$4,$5,$6,$7,$8,$9,$2,$3,0*
0 Add four circle primitives for the rounded corners*
1,1,$1+$1,$2,$3*
1,1,$1+$1,$4,$5*
1,1,$1+$1,$6,$7*
1,1,$1+$1,$8,$9*
0 Add four rect primitives between the rounded corners*
20,1,$1+$1,$2,$3,$4,$5,0*
20,1,$1+$1,$4,$5,$6,$7,0*
20,1,$1+$1,$6,$7,$8,$9,0*
20,1,$1+$1,$8,$9,$2,$3,0*%
G04 Aperture macros list end*
%ADD10RoundRect,0.750000X0.750000X-0.750000X0.750000X0.750000X-0.750000X0.750000X-0.750000X-0.750000X0*%
%ADD11C,3.000000*%
%ADD12RoundRect,0.250200X0.649800X0.649800X-0.649800X0.649800X-0.649800X-0.649800X0.649800X-0.649800X0*%
%ADD13C,1.800000*%
%ADD14RoundRect,0.250200X-0.913177X0.102897X-0.102897X-0.913177X0.913177X-0.102897X0.102897X0.913177X0*%
%ADD15RoundRect,0.250200X0.778094X-0.488927X0.488927X0.778094X-0.778094X0.488927X-0.488927X-0.778094X0*%
%ADD16C,1.400000*%
%ADD17RoundRect,0.250200X0.778112X0.488898X-0.488898X0.778112X-0.778112X-0.488898X0.488898X-0.778112X0*%
%ADD18RoundRect,0.250200X-0.649797X0.649803X-0.649803X-0.649797X0.649797X-0.649803X0.649803X0.649797X0*%
%ADD19RoundRect,0.102000X-0.679000X-0.679000X0.679000X-0.679000X0.679000X0.679000X-0.679000X0.679000X0*%
%ADD20C,1.562000*%
%ADD21RoundRect,0.250200X0.102878X-0.913179X0.913179X0.102878X-0.102878X0.913179X-0.913179X-0.102878X0*%
%ADD22RoundRect,0.250200X0.867382X-0.303527X0.303527X0.867382X-0.867382X0.303527X-0.303527X-0.867382X0*%
%ADD23RoundRect,0.250200X0.303513X0.867387X-0.867387X0.303513X-0.303513X-0.867387X0.867387X-0.303513X0*%
%ADD24RoundRect,0.250200X-0.649807X-0.649793X0.649793X-0.649807X0.649807X0.649793X-0.649793X0.649807X0*%
%ADD25C,5.600000*%
%ADD26RoundRect,0.237500X-0.237500X0.250000X-0.237500X-0.250000X0.237500X-0.250000X0.237500X0.250000X0*%
%ADD27C,6.000000*%
%ADD28R,1.700000X1.700000*%
%ADD29O,1.700000X1.700000*%
%ADD30RoundRect,0.250200X-0.488923X-0.778097X0.778097X-0.488923X0.488923X0.778097X-0.778097X0.488923X0*%
%ADD31RoundRect,0.250200X-0.778107X-0.488906X0.488906X-0.778107X0.778107X0.488906X-0.488906X0.778107X0*%
%ADD32RoundRect,0.250200X-0.778099X0.488919X-0.488919X-0.778099X0.778099X-0.488919X0.488919X0.778099X0*%
%ADD33RoundRect,0.250200X-0.102888X0.913178X-0.913178X-0.102888X0.102888X-0.913178X0.913178X0.102888X0*%
%ADD34RoundRect,0.250200X0.867393X0.303495X-0.303495X0.867393X-0.867393X-0.303495X0.303495X-0.867393X0*%
%ADD35RoundRect,0.250200X0.913176X-0.102907X0.102907X0.913176X-0.913176X0.102907X-0.102907X-0.913176X0*%
%ADD36RoundRect,0.250200X-0.867385X0.303518X-0.303518X-0.867385X0.867385X-0.303518X0.303518X0.867385X0*%
%ADD37RoundRect,0.250200X-0.913179X-0.102883X0.102883X-0.913179X0.913179X0.102883X-0.102883X0.913179X0*%
%ADD38RoundRect,0.250200X-0.303522X-0.867384X0.867384X-0.303522X0.303522X0.867384X-0.867384X0.303522X0*%
%ADD39RoundRect,0.250200X0.649790X-0.649810X0.649810X0.649790X-0.649790X0.649810X-0.649810X-0.649790X0*%
%ADD40RoundRect,0.250200X0.303500X-0.867392X0.867392X0.303500X-0.303500X0.867392X-0.867392X-0.303500X0*%
%ADD41C,1.982000*%
%ADD42C,3.404000*%
%ADD43RoundRect,0.250200X0.102892X0.913178X-0.913178X0.102892X-0.102892X-0.913178X0.913178X-0.102892X0*%
%ADD44RoundRect,0.250200X-0.488911X0.778104X-0.778104X-0.488911X0.488911X-0.778104X0.778104X0.488911X0*%
%ADD45RoundRect,0.250200X0.488915X0.778102X-0.778102X0.488915X-0.488915X-0.778102X0.778102X-0.488915X0*%
%ADD46RoundRect,0.250200X-0.102902X-0.913176X0.913176X-0.102902X0.102902X0.913176X-0.913176X0.102902X0*%
%ADD47RoundRect,0.237500X0.237500X-0.250000X0.237500X0.250000X-0.237500X0.250000X-0.237500X-0.250000X0*%
%ADD48RoundRect,0.250200X-0.303509X0.867388X-0.867388X-0.303509X0.303509X-0.867388X0.867388X0.303509X0*%
%ADD49RoundRect,0.250200X0.913180X0.102873X-0.102873X0.913180X-0.913180X-0.102873X0.102873X-0.913180X0*%
%ADD50RoundRect,0.250200X-0.867390X-0.303504X0.303504X-0.867390X0.867390X0.303504X-0.303504X0.867390X0*%
%ADD51RoundRect,0.250200X0.488902X-0.778110X0.778110X0.488902X-0.488902X0.778110X-0.778110X-0.488902X0*%
%ADD52RoundRect,0.250000X-0.600000X-0.725000X0.600000X-0.725000X0.600000X0.725000X-0.600000X0.725000X0*%
%ADD53O,1.700000X1.950000*%
G04 APERTURE END LIST*
D10*
%TO.C,J8*%
X-36750000Y-16725000D03*
D11*
X-36750000Y-11725000D03*
%TD*%
D10*
%TO.C,J9*%
X-36750000Y-775000D03*
D11*
X-36750000Y4225000D03*
%TD*%
D12*
%TO.C,IR1*%
X2190000Y53025000D03*
D13*
X-350000Y53025000D03*
X-2890000Y53025000D03*
%TD*%
D14*
%TO.C,IR11*%
X-42781704Y-31367561D03*
D13*
X-41198055Y-33353425D03*
X-39614406Y-35339289D03*
%TD*%
D15*
%TO.C,IR23*%
X52202470Y9687595D03*
D13*
X51637308Y12163921D03*
X51072145Y14640247D03*
%TD*%
D16*
%TO.C,SW2*%
X5550000Y37475000D03*
X5550000Y39975000D03*
X5550000Y42475000D03*
%TD*%
D17*
%TO.C,IR28*%
X13935926Y51213514D03*
D13*
X11459621Y51778767D03*
X8983315Y52344020D03*
%TD*%
D18*
%TO.C,IR8*%
X-52999989Y2165278D03*
D13*
X-53000002Y-374722D03*
X-53000016Y-2914722D03*
%TD*%
D19*
%TO.C,U5*%
X16900707Y28240000D03*
D20*
X16900707Y25700000D03*
X16900707Y23160000D03*
X16900707Y20620000D03*
X16900707Y18080000D03*
X16900707Y15540000D03*
X16900707Y13000000D03*
X32140707Y13000000D03*
X32140707Y15540000D03*
X32140707Y18080000D03*
X32140707Y20620000D03*
X32140707Y23160000D03*
X32140707Y25700000D03*
X32140707Y28240000D03*
%TD*%
D16*
%TO.C,SW4*%
X13125000Y37475000D03*
X13125000Y39975000D03*
X13125000Y42475000D03*
%TD*%
D21*
%TO.C,IR19*%
X40131291Y-34753752D03*
D13*
X41714982Y-32767921D03*
X43298673Y-30782091D03*
%TD*%
D22*
%TO.C,IR24*%
X48738595Y21055250D03*
D13*
X47636570Y23343730D03*
X46534544Y25632210D03*
%TD*%
D23*
%TO.C,IR3*%
X-21031015Y48713264D03*
D13*
X-23319478Y47611203D03*
X-25607940Y46509141D03*
%TD*%
D24*
%TO.C,IR15*%
X-2140555Y-53024977D03*
D13*
X399445Y-53025004D03*
X2939445Y-53025030D03*
%TD*%
D25*
%TO.C,H4*%
X-22500000Y-40000000D03*
%TD*%
D26*
%TO.C,R4*%
X-1200000Y37712500D03*
X-1200000Y35887500D03*
%TD*%
D27*
%TO.C,U6*%
X-14732000Y4556000D03*
X14224000Y4556000D03*
D28*
X-16234000Y-17042000D03*
D29*
X-16234000Y-19582000D03*
X-16234000Y-22122000D03*
X-16234000Y-24662000D03*
X-16234000Y-27202000D03*
X-16234000Y-29742000D03*
X-16234000Y-32282000D03*
X-16234000Y-34822000D03*
D28*
X15726000Y-17042000D03*
D29*
X15726000Y-19582000D03*
X15726000Y-22122000D03*
X15726000Y-24662000D03*
X15726000Y-27202000D03*
X15726000Y-29742000D03*
X15726000Y-32282000D03*
X15726000Y-34822000D03*
%TD*%
D30*
%TO.C,IR16*%
X9712868Y-52177419D03*
D13*
X12189191Y-51612244D03*
X14665514Y-51047068D03*
%TD*%
D31*
%TO.C,IR14*%
X-13885389Y-51213659D03*
D13*
X-11409078Y-51778886D03*
X-8932766Y-52344114D03*
%TD*%
D32*
%TO.C,IR9*%
X-52152368Y-9688141D03*
D13*
X-51587180Y-12164461D03*
X-51021991Y-14640782D03*
%TD*%
D33*
%TO.C,IR5*%
X-40081655Y34753332D03*
D13*
X-41665325Y32767485D03*
X-43248995Y30781638D03*
%TD*%
D34*
%TO.C,IR27*%
X24983194Y46834031D03*
D13*
X22694755Y47936140D03*
X20406315Y49038249D03*
%TD*%
D35*
%TO.C,IR25*%
X42832033Y31367113D03*
D13*
X41248405Y33352993D03*
X39664776Y35338874D03*
%TD*%
D36*
%TO.C,IR10*%
X-48688374Y-21055760D03*
D13*
X-47586325Y-23344228D03*
X-46484275Y-25632697D03*
%TD*%
D37*
%TO.C,IR12*%
X-34728542Y-40106473D03*
D13*
X-32742703Y-41690153D03*
X-30756864Y-43273834D03*
%TD*%
D38*
%TO.C,IR17*%
X21080505Y-48713485D03*
D13*
X23368979Y-47611448D03*
X25657453Y-46509410D03*
%TD*%
D39*
%TO.C,IR22*%
X53049966Y-2165833D03*
D13*
X53050006Y374167D03*
X53050046Y2914167D03*
%TD*%
D40*
%TO.C,IR20*%
X46859161Y-24957948D03*
D13*
X47961258Y-22669503D03*
X49063355Y-20381057D03*
%TD*%
D16*
%TO.C,SW1*%
X1725000Y37475000D03*
X1725000Y39975000D03*
X1725000Y42475000D03*
%TD*%
D25*
%TO.C,H2*%
X-22500000Y40000000D03*
%TD*%
D41*
%TO.C,U4*%
X-6337500Y14460000D03*
X-3797500Y14460000D03*
X-1257500Y14460000D03*
X1282500Y14460000D03*
X3822500Y14460000D03*
X6362500Y14460000D03*
X-6337500Y32240000D03*
X-3797500Y32240000D03*
X-1257500Y32240000D03*
X1282500Y32240000D03*
X3822500Y32240000D03*
X6362500Y32240000D03*
D42*
X-10147500Y32240000D03*
X10172500Y32240000D03*
X-10147500Y14460000D03*
X10172500Y14460000D03*
%TD*%
D43*
%TO.C,IR4*%
X-31342786Y42806540D03*
D13*
X-33328642Y41222880D03*
X-35314497Y39639221D03*
%TD*%
D25*
%TO.C,H1*%
X22500000Y40000000D03*
%TD*%
D44*
%TO.C,IR7*%
X-51188732Y13910121D03*
D13*
X-51753946Y11433807D03*
X-52319161Y8957492D03*
%TD*%
D16*
%TO.C,SW3*%
X9350000Y37450000D03*
X9350000Y39950000D03*
X9350000Y42450000D03*
%TD*%
D45*
%TO.C,IR2*%
X-9663415Y52177318D03*
D13*
X-12139732Y51612117D03*
X-14616050Y51046915D03*
%TD*%
D46*
%TO.C,IR18*%
X31392337Y-42806869D03*
D13*
X33378209Y-41223230D03*
X35364081Y-39639591D03*
%TD*%
D47*
%TO.C,R3*%
X-3800000Y35887500D03*
X-3800000Y37712500D03*
%TD*%
D48*
%TO.C,IR6*%
X-46809423Y24957458D03*
D13*
X-47911496Y22669001D03*
X-49013570Y20380543D03*
%TD*%
D49*
%TO.C,IR26*%
X34778962Y40106109D03*
D13*
X32793140Y41689810D03*
X30807317Y43273511D03*
%TD*%
D25*
%TO.C,H3*%
X22500000Y-40000000D03*
%TD*%
D50*
%TO.C,IR13*%
X-24932703Y-46834292D03*
D13*
X-22644252Y-47936377D03*
X-20355801Y-49038462D03*
%TD*%
D51*
%TO.C,IR21*%
X51238587Y-13910658D03*
D13*
X51803827Y-11434350D03*
X52369067Y-8958041D03*
%TD*%
D52*
%TO.C,J10*%
X-39300000Y26600000D03*
D53*
X-36800000Y26600000D03*
X-34300000Y26600000D03*
X-31800000Y26600000D03*
X-29300000Y26600000D03*
%TD*%
D52*
%TO.C,J4*%
X-39300000Y18800000D03*
D53*
X-36800000Y18800000D03*
X-34300000Y18800000D03*
X-31800000Y18800000D03*
X-29300000Y18800000D03*
%TD*%
M02*
