%TF.GenerationSoftware,KiCad,Pcbnew,9.0.6*%
%TF.CreationDate,2026-02-03T22:24:42+08:00*%
%TF.ProjectId,layer3,6c617965-7233-42e6-9b69-6361645f7063,rev?*%
%TF.SameCoordinates,Original*%
%TF.FileFunction,Legend,Bot*%
%TF.FilePolarity,Positive*%
%FSLAX46Y46*%
G04 Gerber Fmt 4.6, Leading zero omitted, Abs format (unit mm)*
G04 Created by KiCad (PCBNEW 9.0.6) date 2026-02-03 22:24:42*
%MOMM*%
%LPD*%
G01*
G04 APERTURE LIST*
G04 Aperture macros list*
%AMRoundRect*
0 Rectangle with rounded corners*
0 $1 Rounding radius*
0 $2 $3 $4 $5 $6 $7 $8 $9 X,Y pos of 4 corners*
0 Add a 4 corners polygon primitive as box body*
4,1,4,$2,$3,$4,$5,$6,$7,$8,$9,$2,$3,0*
0 Add four circle primitives for the rounded corners*
1,1,$1+$1,$2,$3*
1,1,$1+$1,$4,$5*
1,1,$1+$1,$6,$7*
1,1,$1+$1,$8,$9*
0 Add four rect primitives between the rounded corners*
20,1,$1+$1,$2,$3,$4,$5,0*
20,1,$1+$1,$4,$5,$6,$7,0*
20,1,$1+$1,$6,$7,$8,$9,0*
20,1,$1+$1,$8,$9,$2,$3,0*%
G04 Aperture macros list end*
%ADD10C,0.120000*%
%ADD11C,0.127000*%
%ADD12C,0.200000*%
%ADD13RoundRect,0.250200X0.764084X-0.510545X0.510545X0.764084X-0.764084X0.510545X-0.510545X-0.764084X0*%
%ADD14C,1.800000*%
%ADD15RoundRect,0.250200X-0.849005X-0.351669X0.351669X-0.849005X0.849005X0.351669X-0.351669X0.849005X0*%
%ADD16RoundRect,0.250200X0.179279X0.901298X-0.901298X0.179279X-0.179279X-0.901298X0.901298X-0.179279X0*%
%ADD17RoundRect,0.250200X0.000000X0.918956X-0.918956X0.000000X0.000000X-0.918956X0.918956X0.000000X0*%
%ADD18C,5.600000*%
%ADD19RoundRect,0.250200X0.179279X-0.901298X0.901298X0.179279X-0.179279X0.901298X-0.901298X-0.179279X0*%
%ADD20RoundRect,0.250200X-0.901298X0.179279X-0.179279X-0.901298X0.901298X-0.179279X0.179279X0.901298X0*%
%ADD21RoundRect,0.102000X-0.679000X-0.679000X0.679000X-0.679000X0.679000X0.679000X-0.679000X0.679000X0*%
%ADD22C,1.562000*%
%ADD23RoundRect,0.250200X0.510545X0.764084X-0.764084X0.510545X-0.510545X-0.764084X0.764084X-0.510545X0*%
%ADD24RoundRect,0.250200X-0.849005X0.351669X-0.351669X-0.849005X0.849005X-0.351669X0.351669X0.849005X0*%
%ADD25C,6.000000*%
%ADD26R,1.700000X1.700000*%
%ADD27O,1.700000X1.700000*%
%ADD28RoundRect,0.250200X-0.510545X0.764084X-0.764084X-0.510545X0.510545X-0.764084X0.764084X0.510545X0*%
%ADD29RoundRect,0.250200X0.849005X-0.351669X0.351669X0.849005X-0.849005X0.351669X-0.351669X-0.849005X0*%
%ADD30C,2.754000*%
%ADD31RoundRect,0.102000X-1.275000X-1.275000X1.275000X-1.275000X1.275000X1.275000X-1.275000X1.275000X0*%
%ADD32C,1.712000*%
%ADD33RoundRect,0.250200X0.351669X0.849005X-0.849005X0.351669X-0.351669X-0.849005X0.849005X-0.351669X0*%
%ADD34RoundRect,0.250200X-0.764084X-0.510545X0.510545X-0.764084X0.764084X0.510545X-0.510545X0.764084X0*%
%ADD35RoundRect,0.250200X-0.179279X0.901298X-0.901298X-0.179279X0.179279X-0.901298X0.901298X0.179279X0*%
%ADD36RoundRect,0.250200X0.510545X-0.764084X0.764084X0.510545X-0.510545X0.764084X-0.764084X-0.510545X0*%
%ADD37RoundRect,0.250200X0.764084X0.510545X-0.510545X0.764084X-0.764084X-0.510545X0.510545X-0.764084X0*%
%ADD38RoundRect,0.250200X0.849005X0.351669X-0.351669X0.849005X-0.849005X-0.351669X0.351669X-0.849005X0*%
%ADD39RoundRect,0.250200X-0.351669X0.849005X-0.849005X-0.351669X0.351669X-0.849005X0.849005X0.351669X0*%
%ADD40RoundRect,0.250200X-0.179279X-0.901298X0.901298X-0.179279X0.179279X0.901298X-0.901298X0.179279X0*%
%ADD41C,1.982000*%
%ADD42C,3.404000*%
%ADD43RoundRect,0.250200X0.649800X-0.649800X0.649800X0.649800X-0.649800X0.649800X-0.649800X-0.649800X0*%
%ADD44RoundRect,0.250200X0.918956X0.000000X0.000000X0.918956X-0.918956X0.000000X0.000000X-0.918956X0*%
%ADD45RoundRect,0.250200X0.901298X-0.179279X0.179279X0.901298X-0.901298X0.179279X-0.179279X-0.901298X0*%
%ADD46RoundRect,0.250200X0.000000X-0.918956X0.918956X0.000000X0.000000X0.918956X-0.918956X0.000000X0*%
%ADD47RoundRect,0.250200X0.351669X-0.849005X0.849005X0.351669X-0.351669X0.849005X-0.849005X-0.351669X0*%
%ADD48RoundRect,0.250200X-0.351669X-0.849005X0.849005X-0.351669X0.351669X0.849005X-0.849005X0.351669X0*%
%ADD49RoundRect,0.250200X0.901298X0.179279X-0.179279X0.901298X-0.901298X-0.179279X0.179279X-0.901298X0*%
%ADD50RoundRect,0.250200X-0.649800X-0.649800X0.649800X-0.649800X0.649800X0.649800X-0.649800X0.649800X0*%
%ADD51RoundRect,0.250200X-0.918956X0.000000X0.000000X-0.918956X0.918956X0.000000X0.000000X0.918956X0*%
%ADD52RoundRect,0.250200X-0.764084X0.510545X-0.510545X-0.764084X0.764084X-0.510545X0.510545X0.764084X0*%
%ADD53RoundRect,0.250200X-0.649800X0.649800X-0.649800X-0.649800X0.649800X-0.649800X0.649800X0.649800X0*%
%ADD54RoundRect,0.250200X-0.901298X-0.179279X0.179279X-0.901298X0.901298X0.179279X-0.179279X0.901298X0*%
%ADD55RoundRect,0.250200X-0.510545X-0.764084X0.764084X-0.510545X0.510545X0.764084X-0.764084X0.510545X0*%
%ADD56RoundRect,0.250200X0.649800X0.649800X-0.649800X0.649800X-0.649800X-0.649800X0.649800X-0.649800X0*%
%ADD57RoundRect,0.200000X0.275000X-0.200000X0.275000X0.200000X-0.275000X0.200000X-0.275000X-0.200000X0*%
%ADD58RoundRect,0.200000X-0.275000X0.200000X-0.275000X-0.200000X0.275000X-0.200000X0.275000X0.200000X0*%
%ADD59RoundRect,0.085500X-0.256500X0.966500X-0.256500X-0.966500X0.256500X-0.966500X0.256500X0.966500X0*%
%ADD60RoundRect,0.250000X-0.600000X-0.725000X0.600000X-0.725000X0.600000X0.725000X-0.600000X0.725000X0*%
%ADD61O,1.700000X1.950000*%
%ADD62RoundRect,0.225000X0.250000X-0.225000X0.250000X0.225000X-0.250000X0.225000X-0.250000X-0.225000X0*%
%ADD63RoundRect,0.225000X-0.250000X0.225000X-0.250000X-0.225000X0.250000X-0.225000X0.250000X0.225000X0*%
%ADD64RoundRect,0.085500X0.256500X-0.966500X0.256500X0.966500X-0.256500X0.966500X-0.256500X-0.966500X0*%
G04 APERTURE END LIST*
D10*
%TO.C,R43*%
X-25472500Y-3337258D02*
X-25472500Y-2862742D01*
X-24427500Y-3337258D02*
X-24427500Y-2862742D01*
%TO.C,R2*%
X24577500Y24387258D02*
X24577500Y23912742D01*
X25622500Y24387258D02*
X25622500Y23912742D01*
D11*
%TO.C,U2*%
X-31735000Y5812500D02*
X-31735000Y512500D01*
X-23465000Y5812500D02*
X-23465000Y512500D01*
D12*
X-31555000Y8567500D02*
G75*
G02*
X-31755000Y8567500I-100000J0D01*
G01*
X-31755000Y8567500D02*
G75*
G02*
X-31555000Y8567500I100000J0D01*
G01*
D10*
%TO.C,J10*%
X-27350000Y23850000D02*
X-27350000Y25100000D01*
X-27060000Y30110000D02*
X-11940000Y30110000D01*
X-27060000Y24140000D02*
X-27060000Y30110000D01*
X-27050000Y26400000D02*
X-26300000Y26400000D01*
X-27050000Y24900000D02*
X-25250000Y24900000D01*
X-27050000Y24150000D02*
X-27050000Y24900000D01*
X-26300000Y29350000D02*
X-19500000Y29350000D01*
X-26300000Y26400000D02*
X-26300000Y29350000D01*
X-26100000Y23850000D02*
X-27350000Y23850000D01*
X-25250000Y24900000D02*
X-25250000Y24150000D01*
X-25250000Y24150000D02*
X-27050000Y24150000D01*
X-23750000Y24900000D02*
X-15250000Y24900000D01*
X-23750000Y24150000D02*
X-23750000Y24900000D01*
X-15250000Y24900000D02*
X-15250000Y24150000D01*
X-15250000Y24150000D02*
X-23750000Y24150000D01*
X-13750000Y24900000D02*
X-11950000Y24900000D01*
X-13750000Y24150000D02*
X-13750000Y24900000D01*
X-12700000Y29350000D02*
X-19500000Y29350000D01*
X-12700000Y26400000D02*
X-12700000Y29350000D01*
X-11950000Y26400000D02*
X-12700000Y26400000D01*
X-11950000Y24900000D02*
X-11950000Y24150000D01*
X-11950000Y24150000D02*
X-13750000Y24150000D01*
X-11940000Y30110000D02*
X-11940000Y24140000D01*
X-11940000Y24140000D02*
X-27060000Y24140000D01*
%TO.C,C1*%
X-32010000Y-3265580D02*
X-32010000Y-2984420D01*
X-30990000Y-3265580D02*
X-30990000Y-2984420D01*
%TO.C,C34*%
X30890000Y9940580D02*
X30890000Y9659420D01*
X31910000Y9940580D02*
X31910000Y9659420D01*
%TO.C,R33*%
X-32177500Y9887258D02*
X-32177500Y9412742D01*
X-31132500Y9887258D02*
X-31132500Y9412742D01*
%TO.C,R1*%
X30977500Y-2987258D02*
X30977500Y-2512742D01*
X32022500Y-2987258D02*
X32022500Y-2512742D01*
%TO.C,J4*%
X-27350000Y16050000D02*
X-27350000Y17300000D01*
X-27060000Y22310000D02*
X-11940000Y22310000D01*
X-27060000Y16340000D02*
X-27060000Y22310000D01*
X-27050000Y18600000D02*
X-26300000Y18600000D01*
X-27050000Y17100000D02*
X-25250000Y17100000D01*
X-27050000Y16350000D02*
X-27050000Y17100000D01*
X-26300000Y21550000D02*
X-19500000Y21550000D01*
X-26300000Y18600000D02*
X-26300000Y21550000D01*
X-26100000Y16050000D02*
X-27350000Y16050000D01*
X-25250000Y17100000D02*
X-25250000Y16350000D01*
X-25250000Y16350000D02*
X-27050000Y16350000D01*
X-23750000Y17100000D02*
X-15250000Y17100000D01*
X-23750000Y16350000D02*
X-23750000Y17100000D01*
X-15250000Y17100000D02*
X-15250000Y16350000D01*
X-15250000Y16350000D02*
X-23750000Y16350000D01*
X-13750000Y17100000D02*
X-11950000Y17100000D01*
X-13750000Y16350000D02*
X-13750000Y17100000D01*
X-12700000Y21550000D02*
X-19500000Y21550000D01*
X-12700000Y18600000D02*
X-12700000Y21550000D01*
X-11950000Y18600000D02*
X-12700000Y18600000D01*
X-11950000Y17100000D02*
X-11950000Y16350000D01*
X-11950000Y16350000D02*
X-13750000Y16350000D01*
X-11940000Y22310000D02*
X-11940000Y16340000D01*
X-11940000Y16340000D02*
X-27060000Y16340000D01*
D11*
%TO.C,U1*%
X23465000Y950000D02*
X23465000Y6250000D01*
X31735000Y950000D02*
X31735000Y6250000D01*
D12*
X31755000Y-1805000D02*
G75*
G02*
X31555000Y-1805000I-100000J0D01*
G01*
X31555000Y-1805000D02*
G75*
G02*
X31755000Y-1805000I100000J0D01*
G01*
%TD*%
%LPC*%
D13*
%TO.C,IR26*%
X52433387Y8196745D03*
D14*
X51937858Y10687940D03*
X51442328Y13179134D03*
%TD*%
D15*
%TO.C,IR15*%
X-22315085Y-48150635D03*
D14*
X-19968431Y-49122651D03*
X-17621777Y-50094667D03*
%TD*%
D16*
%TO.C,IR4*%
X-27638193Y45305375D03*
D14*
X-29750126Y43894227D03*
X-31862059Y42483078D03*
%TD*%
D17*
%TO.C,IR5*%
X-35945773Y39042901D03*
D14*
X-37741824Y37246850D03*
X-39537875Y35450799D03*
%TD*%
D18*
%TO.C,H4*%
X22500000Y-40000000D03*
%TD*%
D19*
%TO.C,IR22*%
X42871977Y-31280030D03*
D14*
X44283125Y-29168097D03*
X45694274Y-27056164D03*
%TD*%
D20*
%TO.C,IR12*%
X-45305375Y-27638193D03*
D14*
X-43894227Y-29750126D03*
X-42483078Y-31862059D03*
%TD*%
D21*
%TO.C,U5*%
X16900000Y29500000D03*
D22*
X16900000Y26960000D03*
X16900000Y24420000D03*
X16900000Y21880000D03*
X16900000Y19340000D03*
X16900000Y16800000D03*
X16900000Y14260000D03*
X32140000Y14260000D03*
X32140000Y16800000D03*
X32140000Y19340000D03*
X32140000Y21880000D03*
X32140000Y24420000D03*
X32140000Y26960000D03*
X32140000Y29500000D03*
%TD*%
D23*
%TO.C,IR2*%
X-8196745Y52433387D03*
D14*
X-10687940Y51937858D03*
X-13179134Y51442328D03*
%TD*%
D24*
%TO.C,IR11*%
X-49826789Y-18268493D03*
D14*
X-48854773Y-20615147D03*
X-47882757Y-22961801D03*
%TD*%
D25*
%TO.C,U6*%
X-14732000Y4556000D03*
X14224000Y4556000D03*
D26*
X-16234000Y-17042000D03*
D27*
X-16234000Y-19582000D03*
X-16234000Y-22122000D03*
X-16234000Y-24662000D03*
X-16234000Y-27202000D03*
X-16234000Y-29742000D03*
X-16234000Y-32282000D03*
X-16234000Y-34822000D03*
D26*
X15726000Y-17042000D03*
D27*
X15726000Y-19582000D03*
X15726000Y-22122000D03*
X15726000Y-24662000D03*
X15726000Y-27202000D03*
X15726000Y-29742000D03*
X15726000Y-32282000D03*
X15726000Y-34822000D03*
%TD*%
D28*
%TO.C,IR8*%
X-51578892Y12492584D03*
D14*
X-52074421Y10001389D03*
X-52569951Y7510195D03*
%TD*%
D29*
%TO.C,IR27*%
X49826789Y18268493D03*
D14*
X48854773Y20615147D03*
X47882757Y22961801D03*
%TD*%
D18*
%TO.C,H2*%
X22500000Y40000000D03*
%TD*%
D30*
%TO.C,J8*%
X43200000Y-9850000D03*
D31*
X38200000Y-9850000D03*
D32*
X46200000Y150000D03*
X35200000Y150000D03*
%TD*%
D33*
%TO.C,IR3*%
X-18268493Y49826789D03*
D14*
X-20615147Y48854773D03*
X-22961801Y47882757D03*
%TD*%
D34*
%TO.C,IR16*%
X-12492584Y-51578892D03*
D14*
X-10001389Y-52074421D03*
X-7510195Y-52569951D03*
%TD*%
D35*
%TO.C,IR6*%
X-42871977Y31280030D03*
D14*
X-44283125Y29168097D03*
X-45694274Y27056164D03*
%TD*%
D36*
%TO.C,IR24*%
X51578892Y-12492584D03*
D14*
X52074421Y-10001389D03*
X52569951Y-7510195D03*
%TD*%
D37*
%TO.C,IR32*%
X12492584Y51578892D03*
D14*
X10001389Y52074421D03*
X7510195Y52569951D03*
%TD*%
D38*
%TO.C,IR31*%
X22315085Y48150635D03*
D14*
X19968431Y49122651D03*
X17621777Y50094667D03*
%TD*%
D39*
%TO.C,IR7*%
X-48150635Y22315085D03*
D14*
X-49122651Y19968431D03*
X-50094667Y17621777D03*
%TD*%
D18*
%TO.C,H1*%
X-22500000Y40000000D03*
%TD*%
D40*
%TO.C,IR20*%
X27638193Y-45305375D03*
D14*
X29750126Y-43894227D03*
X31862059Y-42483078D03*
%TD*%
D41*
%TO.C,U4*%
X-6337500Y14460000D03*
X-3797500Y14460000D03*
X-1257500Y14460000D03*
X1282500Y14460000D03*
X3822500Y14460000D03*
X6362500Y14460000D03*
X-6337500Y32240000D03*
X-3797500Y32240000D03*
X-1257500Y32240000D03*
X1282500Y32240000D03*
X3822500Y32240000D03*
X6362500Y32240000D03*
D42*
X-10147500Y32240000D03*
X10172500Y32240000D03*
X-10147500Y14460000D03*
X10172500Y14460000D03*
%TD*%
D43*
%TO.C,IR25*%
X53025000Y-2190000D03*
D14*
X53025000Y350000D03*
X53025000Y2890000D03*
%TD*%
D44*
%TO.C,IR29*%
X39042901Y35945773D03*
D14*
X37246850Y37741824D03*
X35450799Y39537875D03*
%TD*%
D30*
%TO.C,J9*%
X-38150000Y-10300000D03*
D31*
X-43150000Y-10300000D03*
D32*
X-35150000Y-300000D03*
X-46150000Y-300000D03*
%TD*%
D45*
%TO.C,IR28*%
X45305375Y27638193D03*
D14*
X43894227Y29750126D03*
X42483078Y31862059D03*
%TD*%
D18*
%TO.C,H3*%
X-22500000Y-40000000D03*
%TD*%
D46*
%TO.C,IR21*%
X35945773Y-39042901D03*
D14*
X37741824Y-37246850D03*
X39537875Y-35450799D03*
%TD*%
D47*
%TO.C,IR23*%
X48150635Y-22315085D03*
D14*
X49122651Y-19968431D03*
X50094667Y-17621777D03*
%TD*%
D48*
%TO.C,IR19*%
X18268493Y-49826789D03*
D14*
X20615147Y-48854773D03*
X22961801Y-47882757D03*
%TD*%
D49*
%TO.C,IR30*%
X31280030Y42871977D03*
D14*
X29168097Y44283125D03*
X27056164Y45694274D03*
%TD*%
D50*
%TO.C,IR17*%
X-2190000Y-53025000D03*
D14*
X350000Y-53025000D03*
X2890000Y-53025000D03*
%TD*%
D51*
%TO.C,IR13*%
X-39042901Y-35945773D03*
D14*
X-37246850Y-37741824D03*
X-35450799Y-39537875D03*
%TD*%
D52*
%TO.C,IR10*%
X-52433387Y-8196745D03*
D14*
X-51937858Y-10687940D03*
X-51442328Y-13179134D03*
%TD*%
D53*
%TO.C,IR9*%
X-53025000Y2190000D03*
D14*
X-53025000Y-350000D03*
X-53025000Y-2890000D03*
%TD*%
D54*
%TO.C,IR14*%
X-31280030Y-42871977D03*
D14*
X-29168097Y-44283125D03*
X-27056164Y-45694274D03*
%TD*%
D55*
%TO.C,IR18*%
X8196745Y-52433387D03*
D14*
X10687940Y-51937858D03*
X13179134Y-51442328D03*
%TD*%
D56*
%TO.C,IR1*%
X2190000Y53025000D03*
D14*
X-350000Y53025000D03*
X-2890000Y53025000D03*
%TD*%
D57*
%TO.C,R43*%
X-24950000Y-3925000D03*
X-24950000Y-2275000D03*
%TD*%
D58*
%TO.C,R2*%
X25100000Y24975000D03*
X25100000Y23325000D03*
%TD*%
D59*
%TO.C,U2*%
X-31175000Y6667500D03*
X-30525000Y6667500D03*
X-29875000Y6667500D03*
X-29225000Y6667500D03*
X-28575000Y6667500D03*
X-27925000Y6667500D03*
X-27275000Y6667500D03*
X-26625000Y6667500D03*
X-25975000Y6667500D03*
X-25325000Y6667500D03*
X-24675000Y6667500D03*
X-24025000Y6667500D03*
X-24025000Y-342500D03*
X-24675000Y-342500D03*
X-25325000Y-342500D03*
X-25975000Y-342500D03*
X-26625000Y-342500D03*
X-27275000Y-342500D03*
X-27925000Y-342500D03*
X-28575000Y-342500D03*
X-29225000Y-342500D03*
X-29875000Y-342500D03*
X-30525000Y-342500D03*
X-31175000Y-342500D03*
%TD*%
D60*
%TO.C,J10*%
X-24500000Y26600000D03*
D61*
X-22000000Y26600000D03*
X-19500000Y26600000D03*
X-17000000Y26600000D03*
X-14500000Y26600000D03*
%TD*%
D62*
%TO.C,C1*%
X-31500000Y-3900000D03*
X-31500000Y-2350000D03*
%TD*%
D63*
%TO.C,C34*%
X31400000Y10575000D03*
X31400000Y9025000D03*
%TD*%
D58*
%TO.C,R33*%
X-31655000Y10475000D03*
X-31655000Y8825000D03*
%TD*%
D57*
%TO.C,R1*%
X31500000Y-3575000D03*
X31500000Y-1925000D03*
%TD*%
D60*
%TO.C,J4*%
X-24500000Y18800000D03*
D61*
X-22000000Y18800000D03*
X-19500000Y18800000D03*
X-17000000Y18800000D03*
X-14500000Y18800000D03*
%TD*%
D64*
%TO.C,U1*%
X31175000Y95000D03*
X30525000Y95000D03*
X29875000Y95000D03*
X29225000Y95000D03*
X28575000Y95000D03*
X27925000Y95000D03*
X27275000Y95000D03*
X26625000Y95000D03*
X25975000Y95000D03*
X25325000Y95000D03*
X24675000Y95000D03*
X24025000Y95000D03*
X24025000Y7105000D03*
X24675000Y7105000D03*
X25325000Y7105000D03*
X25975000Y7105000D03*
X26625000Y7105000D03*
X27275000Y7105000D03*
X27925000Y7105000D03*
X28575000Y7105000D03*
X29225000Y7105000D03*
X29875000Y7105000D03*
X30525000Y7105000D03*
X31175000Y7105000D03*
%TD*%
%LPD*%
M02*
