M48
; DRILL file {KiCad 9.0.6} date 2026-02-23T20:55:51+0800
; FORMAT={-:-/ absolute / inch / decimal}
; #@! TF.CreationDate,2026-02-23T20:55:51+08:00
; #@! TF.GenerationSoftware,Kicad,Pcbnew,9.0.6
; #@! TF.FileFunction,Plated,1,2,PTH
FMAT,2
INCH
; #@! TA.AperFunction,Plated,PTH,ViaDrill
T1C0.0118
; #@! TA.AperFunction,Plated,PTH,ViaDrill
T2C0.0197
; #@! TA.AperFunction,Plated,PTH,ComponentDrill
T3C0.0335
; #@! TA.AperFunction,Plated,PTH,ComponentDrill
T4C0.0354
; #@! TA.AperFunction,Plated,PTH,ComponentDrill
T5C0.0374
; #@! TA.AperFunction,Plated,PTH,ComponentDrill
T6C0.0394
; #@! TA.AperFunction,Plated,PTH,ComponentDrill
T7C0.0669
; #@! TA.AperFunction,Plated,PTH,ComponentDrill
T8C0.0984
; #@! TA.AperFunction,Plated,PTH,ComponentDrill
T9C0.1260
; #@! TA.AperFunction,Plated,PTH,ComponentDrill
T10C0.1457
%
G90
G05
T1
X-1.0325Y0.0817
X-1.0069Y0.0512
X-0.998Y0.1988
X-0.9961Y0.1299
X-0.8799Y0.3976
X-0.8258Y0.3976
X-0.4016Y-0.002
X-0.4016Y-0.0374
X-0.4016Y-0.0709
X-0.4016Y-0.1122
X-0.3996Y0.0335
X0.7264Y-0.1122
X0.8031Y-0.0709
X0.8366Y0.0354
X0.8661Y-0.0374
X0.9114Y0.0581
X0.9715Y0.1299
X0.997Y0.1061
X1.2274Y0.0768
X1.3789Y0.2638
X1.3789Y0.2008
X1.4104Y0.5919
T2
X-0.7159Y-0.2579
X-0.1339Y0.8307
X-0.1319Y0.878
X0.561Y0.8819
T3
X0.6654Y1.1614
X0.6654Y1.0614
X0.6654Y0.9614
X0.6654Y0.8614
X0.6654Y0.7614
X0.6654Y0.6614
X0.6654Y0.5614
X1.2654Y1.1614
X1.2654Y1.0614
X1.2654Y0.9614
X1.2654Y0.8614
X1.2654Y0.7614
X1.2654Y0.6614
X1.2654Y0.5614
T4
X-2.0866Y-0.1148
X-2.0866Y-0.0148
X-2.0866Y0.0852
X-2.0598Y0.3527
X-2.0532Y-0.3814
X-2.0376Y0.4501
X-2.031Y-0.4789
X-2.0153Y0.5476
X-2.0087Y-0.5764
X-1.9297Y0.8024
X-1.9169Y-0.829
X-1.8863Y0.8925
X-1.8735Y-0.9191
X-1.8429Y0.9826
X-1.8301Y-1.0092
X-1.7027Y1.2119
X-1.6843Y-1.2349
X-1.6404Y1.2901
X-1.622Y-1.3131
X-1.578Y1.3682
X-1.5596Y-1.3913
X-1.3903Y1.5606
X-1.3673Y-1.579
X-1.3122Y1.6229
X-1.2891Y-1.6413
X-1.234Y1.6853
X-1.2109Y-1.7037
X-1.0082Y1.8311
X-0.9816Y-1.8439
X-0.9181Y1.8745
X-0.8915Y-1.8873
X-0.828Y1.9178
X-0.8014Y-1.9306
X-0.5754Y2.0097
X-0.5467Y-2.0163
X-0.4779Y2.032
X-0.4492Y-2.0385
X-0.3804Y2.0542
X-0.3517Y-2.0608
X-0.1138Y2.0876
X-0.0843Y-2.0876
X-0.0138Y2.0876
X0.0157Y-2.0876
X0.0679Y1.6722
X0.0679Y1.5738
X0.0679Y1.4754
X0.0862Y2.0876
X0.1157Y-2.0876
X0.2185Y1.6722
X0.2185Y1.5738
X0.2185Y1.4754
X0.3537Y2.0608
X0.3681Y1.6713
X0.3681Y1.5728
X0.3681Y1.4744
X0.3824Y-2.0542
X0.4512Y2.0385
X0.4799Y-2.032
X0.5167Y1.6722
X0.5167Y1.5738
X0.5167Y1.4754
X0.5487Y2.0163
X0.5774Y-2.0097
X0.8034Y1.9306
X0.8299Y-1.9179
X0.8935Y1.8872
X0.92Y-1.8745
X0.9836Y1.8439
X1.0101Y-1.8311
X1.2129Y1.7037
X1.2359Y-1.6853
X1.2911Y1.6413
X1.3141Y-1.623
X1.3693Y1.579
X1.3923Y-1.5606
X1.5616Y1.3913
X1.58Y-1.3683
X1.624Y1.3131
X1.6423Y-1.2901
X1.6863Y1.2349
X1.7047Y-1.2119
X1.8321Y1.0091
X1.8448Y-0.9826
X1.8755Y0.919
X1.8882Y-0.8925
X1.9188Y0.8289
X1.9316Y-0.8024
X2.0107Y0.5764
X2.0173Y-0.5477
X2.033Y0.4789
X2.0395Y-0.4502
X2.0552Y0.3814
X2.0618Y-0.3527
X2.0886Y-0.0853
X2.0886Y0.0147
X2.0886Y0.1147
T5
X-1.5472Y1.0472
X-1.5472Y0.7402
X-1.4488Y1.0472
X-1.4488Y0.7402
X-1.3504Y1.0472
X-1.3504Y0.7402
X-1.252Y1.0472
X-1.252Y0.7402
X-1.1535Y1.0472
X-1.1535Y0.7402
T6
X-1.7439Y-0.2362
X-1.7439Y-0.6693
X-1.7421Y0.374
X-1.7421Y-0.0591
X-0.6391Y-0.6709
X-0.6391Y-0.7709
X-0.6391Y-0.8709
X-0.6391Y-0.9709
X-0.6391Y-1.0709
X-0.6391Y-1.1709
X-0.6391Y-1.2709
X-0.6391Y-1.3709
X-0.2495Y1.2693
X-0.2495Y0.5693
X-0.1495Y1.2693
X-0.1495Y0.5693
X-0.0495Y1.2693
X-0.0495Y0.5693
X0.0505Y1.2693
X0.0505Y0.5693
X0.1505Y1.2693
X0.1505Y0.5693
X0.2505Y1.2693
X0.2505Y0.5693
X0.6191Y-0.6709
X0.6191Y-0.7709
X0.6191Y-0.8709
X0.6191Y-0.9709
X0.6191Y-1.0709
X0.6191Y-1.1709
X0.6191Y-1.2709
X0.6191Y-1.3709
T7
X-1.3502Y-0.3543
X-1.3502Y-0.5512
X-1.3484Y0.2559
X-1.3484Y0.0591
T8
X-0.3995Y1.2693
X-0.3995Y0.5693
X0.4005Y1.2693
X0.4005Y0.5693
T9
X-0.8858Y1.5748
X-0.8858Y-1.5748
X0.8858Y1.5748
X0.8858Y-1.5748
T10
X-0.58Y0.1794
X0.56Y0.1794
M30
