999
"DXF R12 Output" (www.mydxf.blogspot.com)
 0 
SECTION
 2 
HEADER
 9 
$ACADVER
 1 
AC1009
 9 
$EXTMIN
 10 
 0 
 20 
 0 
 9 
$EXTMAX
 10 
 8.5 
 20 
 11 
 0 
ENDSEC
 0 
SECTION
 2 
ENTITIES
0
POLYLINE
8
0
62
7
70
0
10
0.000000
20
0.000000
66
1
0
VERTEX
8
0
10
72.280022
20
252.598306
70
0
0
VERTEX
8
0
10
72.045567
20
253.473305
70
0
0
VERTEX
8
0
10
71.405023
20
254.113848
70
0
0
VERTEX
8
0
10
70.530024
20
254.348304
70
0
0
VERTEX
8
0
10
69.655026
20
254.113848
70
0
0
VERTEX
8
0
10
69.014482
20
253.473305
70
0
0
VERTEX
8
0
10
68.780027
20
252.598306
70
0
0
VERTEX
8
0
10
69.014482
20
251.723307
70
0
0
VERTEX
8
0
10
69.655026
20
251.082763
70
0
0
VERTEX
8
0
10
70.530024
20
250.848308
70
0
0
VERTEX
8
0
10
71.405023
20
251.082763
70
0
0
VERTEX
8
0
10
72.045567
20
251.723307
70
0
0
VERTEX
8
0
10
72.280022
20
252.598306
70
0
0
VERTEX
8
0
10
72.280022
20
252.598306
70
0
0
SEQEND
8
0
0
POLYLINE
8
0
62
7
70
0
10
0.000000
20
0.000000
66
1
0
VERTEX
8
0
10
43.130060
20
262.598300
70
0
0
VERTEX
8
0
10
42.895604
20
263.473299
70
0
0
VERTEX
8
0
10
42.255061
20
264.113843
70
0
0
VERTEX
8
0
10
41.380062
20
264.348298
70
0
0
VERTEX
8
0
10
40.505062
20
264.113843
70
0
0
VERTEX
8
0
10
39.864519
20
263.473299
70
0
0
VERTEX
8
0
10
39.630063
20
262.598300
70
0
0
VERTEX
8
0
10
39.864519
20
261.723301
70
0
0
VERTEX
8
0
10
40.505062
20
261.082757
70
0
0
VERTEX
8
0
10
41.380062
20
260.848301
70
0
0
VERTEX
8
0
10
42.255061
20
261.082757
70
0
0
VERTEX
8
0
10
42.895604
20
261.723301
70
0
0
VERTEX
8
0
10
43.130060
20
262.598300
70
0
0
VERTEX
8
0
10
43.130060
20
262.598300
70
0
0
SEQEND
8
0
0
POLYLINE
8
0
62
7
70
0
10
0.000000
20
0.000000
66
1
0
VERTEX
8
0
10
48.880052
20
264.598283
70
0
0
VERTEX
8
0
10
48.651692
20
265.746333
70
0
0
VERTEX
8
0
10
48.001375
20
266.719603
70
0
0
VERTEX
8
0
10
47.028106
20
267.369922
70
0
0
VERTEX
8
0
10
45.880056
20
267.598283
70
0
0
VERTEX
8
0
10
36.880067
20
267.598283
70
0
0
VERTEX
8
0
10
35.732017
20
267.369922
70
0
0
VERTEX
8
0
10
34.758748
20
266.719603
70
0
0
VERTEX
8
0
10
34.108431
20
265.746333
70
0
0
VERTEX
8
0
10
33.880071
20
264.598283
70
0
0
VERTEX
8
0
10
33.880071
20
234.883230
70
0
0
VERTEX
8
0
10
33.969530
20
234.155891
70
0
0
VERTEX
8
0
10
34.227832
20
233.481216
70
0
0
VERTEX
8
0
10
34.639860
20
232.887801
70
0
0
VERTEX
8
0
10
35.190495
20
232.404246
70
0
0
VERTEX
8
0
10
63.698002
20
212.974673
70
0
0
VERTEX
8
0
10
65.249874
20
212.233380
70
0
0
VERTEX
8
0
10
66.915687
20
211.993531
70
0
0
VERTEX
8
0
10
68.578340
20
212.254387
70
0
0
VERTEX
8
0
10
70.120732
20
213.015207
70
0
0
VERTEX
8
0
10
74.250749
20
215.907073
70
0
0
VERTEX
8
0
10
74.788885
20
216.390252
70
0
0
VERTEX
8
0
10
75.191050
20
216.979279
70
0
0
VERTEX
8
0
10
75.442882
20
217.646565
70
0
0
VERTEX
8
0
10
75.530018
20
218.364520
70
0
0
VERTEX
8
0
10
75.530018
20
254.598315
70
0
0
VERTEX
8
0
10
75.294257
20
255.766042
70
0
0
VERTEX
8
0
10
74.651332
20
256.719619
70
0
0
VERTEX
8
0
10
73.697751
20
257.362537
70
0
0
VERTEX
8
0
10
72.530022
20
257.598290
70
0
0
VERTEX
8
0
10
51.880047
20
257.598290
70
0
0
VERTEX
8
0
10
50.731997
20
257.826651
70
0
0
VERTEX
8
0
10
49.758728
20
258.476970
70
0
0
VERTEX
8
0
10
49.108411
20
259.450240
70
0
0
VERTEX
8
0
10
48.880052
20
260.598290
70
0
0
VERTEX
8
0
10
48.880052
20
264.598283
70
0
0
SEQEND
8
0
0
POLYLINE
8
0
62
7
70
0
10
0.000000
20
0.000000
66
1
0
VERTEX
8
0
10
55.449333
20
231.481672
70
0
0
VERTEX
8
0
10
55.234974
20
232.281671
70
0
0
VERTEX
8
0
10
54.649334
20
232.867311
70
0
0
VERTEX
8
0
10
53.849334
20
233.081670
70
0
0
VERTEX
8
0
10
53.049335
20
232.867311
70
0
0
VERTEX
8
0
10
52.463695
20
232.281671
70
0
0
VERTEX
8
0
10
52.249336
20
231.481672
70
0
0
VERTEX
8
0
10
52.463695
20
230.681673
70
0
0
VERTEX
8
0
10
53.049335
20
230.096033
70
0
0
VERTEX
8
0
10
53.849334
20
229.881674
70
0
0
VERTEX
8
0
10
54.649334
20
230.096033
70
0
0
VERTEX
8
0
10
55.234974
20
230.681673
70
0
0
VERTEX
8
0
10
55.449333
20
231.481672
70
0
0
VERTEX
8
0
10
55.449333
20
231.481672
70
0
0
SEQEND
8
0
0
POLYLINE
8
0
62
7
70
0
10
0.000000
20
0.000000
66
1
0
VERTEX
8
0
10
55.449333
20
243.901410
70
0
0
VERTEX
8
0
10
55.234974
20
244.701409
70
0
0
VERTEX
8
0
10
54.649334
20
245.287049
70
0
0
VERTEX
8
0
10
53.849334
20
245.501408
70
0
0
VERTEX
8
0
10
53.049335
20
245.287049
70
0
0
VERTEX
8
0
10
52.463695
20
244.701409
70
0
0
VERTEX
8
0
10
52.249336
20
243.901410
70
0
0
VERTEX
8
0
10
52.463695
20
243.101411
70
0
0
VERTEX
8
0
10
53.049335
20
242.515771
70
0
0
VERTEX
8
0
10
53.849334
20
242.301411
70
0
0
VERTEX
8
0
10
54.649334
20
242.515771
70
0
0
VERTEX
8
0
10
55.234974
20
243.101411
70
0
0
VERTEX
8
0
10
55.449333
20
243.901410
70
0
0
VERTEX
8
0
10
55.449333
20
243.901410
70
0
0
SEQEND
8
0
0
POLYLINE
8
0
62
7
70
0
10
0.000000
20
0.000000
66
1
0
VERTEX
8
0
10
50.980050
20
238.748312
70
0
0
VERTEX
8
0
10
50.867549
20
239.596293
70
0
0
VERTEX
8
0
10
50.544633
20
240.373310
70
0
0
VERTEX
8
0
10
50.033175
20
241.041472
70
0
0
VERTEX
8
0
10
49.355052
20
241.562891
70
0
0
VERTEX
8
0
10
48.564428
20
241.889454
70
0
0
VERTEX
8
0
10
47.730054
20
241.998308
70
0
0
VERTEX
8
0
10
46.895679
20
241.889454
70
0
0
VERTEX
8
0
10
46.105056
20
241.562891
70
0
0
VERTEX
8
0
10
45.426932
20
241.041472
70
0
0
VERTEX
8
0
10
44.915474
20
240.373310
70
0
0
VERTEX
8
0
10
44.592558
20
239.596293
70
0
0
VERTEX
8
0
10
44.480058
20
238.748312
70
0
0
VERTEX
8
0
10
44.592558
20
237.900330
70
0
0
VERTEX
8
0
10
44.915474
20
237.123314
70
0
0
VERTEX
8
0
10
45.426932
20
236.455151
70
0
0
VERTEX
8
0
10
46.105056
20
235.933733
70
0
0
VERTEX
8
0
10
46.895679
20
235.607170
70
0
0
VERTEX
8
0
10
47.730054
20
235.498316
70
0
0
VERTEX
8
0
10
48.564428
20
235.607170
70
0
0
VERTEX
8
0
10
49.355052
20
235.933733
70
0
0
VERTEX
8
0
10
50.033175
20
236.455151
70
0
0
VERTEX
8
0
10
50.544633
20
237.123314
70
0
0
VERTEX
8
0
10
50.867549
20
237.900330
70
0
0
VERTEX
8
0
10
50.980050
20
238.748312
70
0
0
VERTEX
8
0
10
50.980050
20
238.748312
70
0
0
SEQEND
8
0
0
POLYLINE
8
0
62
7
70
0
10
0.000000
20
0.000000
66
1
0
VERTEX
8
0
10
69.530026
20
217.643399
70
0
0
VERTEX
8
0
10
69.321776
20
218.674897
70
0
0
VERTEX
8
0
10
68.753859
20
219.517230
70
0
0
VERTEX
8
0
10
67.911527
20
220.085146
70
0
0
VERTEX
8
0
10
66.880029
20
220.293396
70
0
0
VERTEX
8
0
10
65.848531
20
220.085146
70
0
0
VERTEX
8
0
10
65.006198
20
219.517230
70
0
0
VERTEX
8
0
10
64.438282
20
218.674897
70
0
0
VERTEX
8
0
10
64.230032
20
217.643399
70
0
0
VERTEX
8
0
10
64.438282
20
216.611901
70
0
0
VERTEX
8
0
10
65.006198
20
215.769569
70
0
0
VERTEX
8
0
10
65.848531
20
215.201652
70
0
0
VERTEX
8
0
10
66.880029
20
214.993403
70
0
0
VERTEX
8
0
10
67.911527
20
215.201652
70
0
0
VERTEX
8
0
10
68.753859
20
215.769569
70
0
0
VERTEX
8
0
10
69.321776
20
216.611901
70
0
0
VERTEX
8
0
10
69.530026
20
217.643399
70
0
0
VERTEX
8
0
10
69.530026
20
217.643399
70
0
0
SEQEND
8
0
0
POLYLINE
8
0
62
7
70
0
10
0.000000
20
0.000000
66
1
0
VERTEX
8
0
10
43.210768
20
233.595240
70
0
0
VERTEX
8
0
10
43.084503
20
234.217441
70
0
0
VERTEX
8
0
10
42.741490
20
234.725420
70
0
0
VERTEX
8
0
10
42.233117
20
235.067849
70
0
0
VERTEX
8
0
10
41.610771
20
235.193398
70
0
0
VERTEX
8
0
10
40.988426
20
235.067849
70
0
0
VERTEX
8
0
10
40.480053
20
234.725420
70
0
0
VERTEX
8
0
10
40.137039
20
234.217441
70
0
0
VERTEX
8
0
10
40.010774
20
233.595240
70
0
0
VERTEX
8
0
10
40.137039
20
232.973040
70
0
0
VERTEX
8
0
10
40.480053
20
232.465061
70
0
0
VERTEX
8
0
10
40.988426
20
232.122632
70
0
0
VERTEX
8
0
10
41.610771
20
231.997083
70
0
0
VERTEX
8
0
10
42.233117
20
232.122632
70
0
0
VERTEX
8
0
10
42.741490
20
232.465061
70
0
0
VERTEX
8
0
10
43.084503
20
232.973040
70
0
0
VERTEX
8
0
10
43.210768
20
233.595240
70
0
0
VERTEX
8
0
10
43.210768
20
233.595240
70
0
0
SEQEND
8
0
0
POLYLINE
8
0
62
7
70
0
10
0.000000
20
0.000000
66
1
0
VERTEX
8
0
10
43.210768
20
246.014978
70
0
0
VERTEX
8
0
10
43.084503
20
246.637179
70
0
0
VERTEX
8
0
10
42.741490
20
247.145158
70
0
0
VERTEX
8
0
10
42.233117
20
247.487586
70
0
0
VERTEX
8
0
10
41.610771
20
247.613136
70
0
0
VERTEX
8
0
10
40.988426
20
247.487586
70
0
0
VERTEX
8
0
10
40.480053
20
247.145158
70
0
0
VERTEX
8
0
10
40.137039
20
246.637179
70
0
0
VERTEX
8
0
10
40.010774
20
246.014978
70
0
0
VERTEX
8
0
10
40.137039
20
245.392778
70
0
0
VERTEX
8
0
10
40.480053
20
244.884799
70
0
0
VERTEX
8
0
10
40.988426
20
244.542370
70
0
0
VERTEX
8
0
10
41.610771
20
244.416820
70
0
0
VERTEX
8
0
10
42.233117
20
244.542370
70
0
0
VERTEX
8
0
10
42.741490
20
244.884799
70
0
0
VERTEX
8
0
10
43.084503
20
245.392778
70
0
0
VERTEX
8
0
10
43.210768
20
246.014978
70
0
0
VERTEX
8
0
10
43.210768
20
246.014978
70
0
0
SEQEND
8
0
 0 
ENDSEC
 0 
EOF