%TF.GenerationSoftware,KiCad,Pcbnew,9.0.6*%
%TF.CreationDate,2026-01-30T15:57:20+08:00*%
%TF.ProjectId,buck,6275636b-2e6b-4696-9361-645f70636258,rev?*%
%TF.SameCoordinates,Original*%
%TF.FileFunction,Legend,Top*%
%TF.FilePolarity,Positive*%
%FSLAX46Y46*%
G04 Gerber Fmt 4.6, Leading zero omitted, Abs format (unit mm)*
G04 Created by KiCad (PCBNEW 9.0.6) date 2026-01-30 15:57:20*
%MOMM*%
%LPD*%
G01*
G04 APERTURE LIST*
%ADD10C,0.300000*%
%ADD11C,0.100000*%
%ADD12C,0.120000*%
%ADD13C,1.600000*%
%ADD14R,1.700000X1.700000*%
%ADD15C,1.700000*%
G04 APERTURE END LIST*
D10*
X-6428572Y9021672D02*
X-6428572Y7950243D01*
X-6428572Y7950243D02*
X-6500001Y7735958D01*
X-6500001Y7735958D02*
X-6642858Y7593100D01*
X-6642858Y7593100D02*
X-6857144Y7521672D01*
X-6857144Y7521672D02*
X-7000001Y7521672D01*
X-5000001Y7521672D02*
X-5714287Y7521672D01*
X-5714287Y7521672D02*
X-5714287Y9021672D01*
X-3642858Y7664529D02*
X-3714286Y7593100D01*
X-3714286Y7593100D02*
X-3928572Y7521672D01*
X-3928572Y7521672D02*
X-4071429Y7521672D01*
X-4071429Y7521672D02*
X-4285715Y7593100D01*
X-4285715Y7593100D02*
X-4428572Y7735958D01*
X-4428572Y7735958D02*
X-4500001Y7878815D01*
X-4500001Y7878815D02*
X-4571429Y8164529D01*
X-4571429Y8164529D02*
X-4571429Y8378815D01*
X-4571429Y8378815D02*
X-4500001Y8664529D01*
X-4500001Y8664529D02*
X-4428572Y8807386D01*
X-4428572Y8807386D02*
X-4285715Y8950243D01*
X-4285715Y8950243D02*
X-4071429Y9021672D01*
X-4071429Y9021672D02*
X-3928572Y9021672D01*
X-3928572Y9021672D02*
X-3714286Y8950243D01*
X-3714286Y8950243D02*
X-3642858Y8878815D01*
X-2571429Y9021672D02*
X-2571429Y7950243D01*
X-2571429Y7950243D02*
X-2642858Y7735958D01*
X-2642858Y7735958D02*
X-2785715Y7593100D01*
X-2785715Y7593100D02*
X-3000001Y7521672D01*
X-3000001Y7521672D02*
X-3142858Y7521672D01*
X-1142858Y7521672D02*
X-1857144Y7521672D01*
X-1857144Y7521672D02*
X-1857144Y9021672D01*
X214285Y7664529D02*
X142857Y7593100D01*
X142857Y7593100D02*
X-71429Y7521672D01*
X-71429Y7521672D02*
X-214286Y7521672D01*
X-214286Y7521672D02*
X-428572Y7593100D01*
X-428572Y7593100D02*
X-571429Y7735958D01*
X-571429Y7735958D02*
X-642858Y7878815D01*
X-642858Y7878815D02*
X-714286Y8164529D01*
X-714286Y8164529D02*
X-714286Y8378815D01*
X-714286Y8378815D02*
X-642858Y8664529D01*
X-642858Y8664529D02*
X-571429Y8807386D01*
X-571429Y8807386D02*
X-428572Y8950243D01*
X-428572Y8950243D02*
X-214286Y9021672D01*
X-214286Y9021672D02*
X-71429Y9021672D01*
X-71429Y9021672D02*
X142857Y8950243D01*
X142857Y8950243D02*
X214285Y8878815D01*
X1285714Y9021672D02*
X1285714Y7950243D01*
X1285714Y7950243D02*
X1214285Y7735958D01*
X1214285Y7735958D02*
X1071428Y7593100D01*
X1071428Y7593100D02*
X857142Y7521672D01*
X857142Y7521672D02*
X714285Y7521672D01*
X2714285Y7521672D02*
X1999999Y7521672D01*
X1999999Y7521672D02*
X1999999Y9021672D01*
X4071428Y7664529D02*
X4000000Y7593100D01*
X4000000Y7593100D02*
X3785714Y7521672D01*
X3785714Y7521672D02*
X3642857Y7521672D01*
X3642857Y7521672D02*
X3428571Y7593100D01*
X3428571Y7593100D02*
X3285714Y7735958D01*
X3285714Y7735958D02*
X3214285Y7878815D01*
X3214285Y7878815D02*
X3142857Y8164529D01*
X3142857Y8164529D02*
X3142857Y8378815D01*
X3142857Y8378815D02*
X3214285Y8664529D01*
X3214285Y8664529D02*
X3285714Y8807386D01*
X3285714Y8807386D02*
X3428571Y8950243D01*
X3428571Y8950243D02*
X3642857Y9021672D01*
X3642857Y9021672D02*
X3785714Y9021672D01*
X3785714Y9021672D02*
X4000000Y8950243D01*
X4000000Y8950243D02*
X4071428Y8878815D01*
X5142857Y9021672D02*
X5142857Y7950243D01*
X5142857Y7950243D02*
X5071428Y7735958D01*
X5071428Y7735958D02*
X4928571Y7593100D01*
X4928571Y7593100D02*
X4714285Y7521672D01*
X4714285Y7521672D02*
X4571428Y7521672D01*
X6571428Y7521672D02*
X5857142Y7521672D01*
X5857142Y7521672D02*
X5857142Y9021672D01*
X7928571Y7664529D02*
X7857143Y7593100D01*
X7857143Y7593100D02*
X7642857Y7521672D01*
X7642857Y7521672D02*
X7500000Y7521672D01*
X7500000Y7521672D02*
X7285714Y7593100D01*
X7285714Y7593100D02*
X7142857Y7735958D01*
X7142857Y7735958D02*
X7071428Y7878815D01*
X7071428Y7878815D02*
X7000000Y8164529D01*
X7000000Y8164529D02*
X7000000Y8378815D01*
X7000000Y8378815D02*
X7071428Y8664529D01*
X7071428Y8664529D02*
X7142857Y8807386D01*
X7142857Y8807386D02*
X7285714Y8950243D01*
X7285714Y8950243D02*
X7500000Y9021672D01*
X7500000Y9021672D02*
X7642857Y9021672D01*
X7642857Y9021672D02*
X7857143Y8950243D01*
X7857143Y8950243D02*
X7928571Y8878815D01*
G36*
X11528662Y9863398D02*
G01*
X11414082Y9863398D01*
X11363931Y9872069D01*
X11329177Y9896096D01*
X11308001Y9935452D01*
X11299501Y10003166D01*
X11299501Y10767036D01*
X11307997Y10834764D01*
X11329177Y10874197D01*
X11363923Y10898154D01*
X11414082Y10906804D01*
X11528662Y10906804D01*
X11528662Y9863398D01*
G37*
G36*
X13664904Y9459968D02*
G01*
X10896163Y9459968D01*
X10896163Y10756503D01*
X11062830Y10756503D01*
X11062830Y10013607D01*
X11069126Y9923232D01*
X11086569Y9849564D01*
X11113635Y9789597D01*
X11149750Y9740941D01*
X11195886Y9701901D01*
X11252926Y9672951D01*
X11323222Y9654394D01*
X11409869Y9647701D01*
X11765425Y9647701D01*
X11930930Y9647701D01*
X12142414Y9647701D01*
X12142414Y10523033D01*
X12365988Y9647701D01*
X12660820Y9647701D01*
X12660820Y10771249D01*
X12804068Y10771249D01*
X12804068Y10287740D01*
X13143596Y10287740D01*
X13143596Y10503436D01*
X13028191Y10503436D01*
X13028191Y10788010D01*
X13036836Y10853740D01*
X13059116Y10894874D01*
X13093705Y10918993D01*
X13144878Y10927778D01*
X13196052Y10918993D01*
X13230641Y10894874D01*
X13252921Y10853740D01*
X13261565Y10788010D01*
X13261565Y9984298D01*
X13252865Y9917395D01*
X13230493Y9875655D01*
X13195895Y9851277D01*
X13144878Y9842424D01*
X13093861Y9851277D01*
X13059263Y9875655D01*
X13036892Y9917395D01*
X13028191Y9984298D01*
X13028191Y10127822D01*
X12804068Y10127822D01*
X12804068Y9998953D01*
X12810439Y9908773D01*
X12828176Y9834494D01*
X12855860Y9773308D01*
X12893003Y9722989D01*
X12940365Y9682254D01*
X12997680Y9652371D01*
X13067005Y9633415D01*
X13151107Y9626635D01*
X13235206Y9633413D01*
X13304549Y9652367D01*
X13361896Y9682251D01*
X13409302Y9722989D01*
X13446445Y9773308D01*
X13474129Y9834494D01*
X13491866Y9908773D01*
X13498237Y9998953D01*
X13498237Y10771249D01*
X13491867Y10861378D01*
X13474132Y10935628D01*
X13446448Y10996801D01*
X13409302Y11047121D01*
X13361896Y11087859D01*
X13304549Y11117743D01*
X13235206Y11136697D01*
X13151107Y11143475D01*
X13067005Y11136695D01*
X12997680Y11117739D01*
X12940365Y11087856D01*
X12893003Y11047121D01*
X12855857Y10996801D01*
X12828173Y10935628D01*
X12810437Y10861378D01*
X12804068Y10771249D01*
X12660820Y10771249D01*
X12660820Y11122500D01*
X12449244Y11122500D01*
X12449244Y10054055D01*
X12173280Y11122500D01*
X11930930Y11122500D01*
X11930930Y9647701D01*
X11765425Y9647701D01*
X11765425Y11122500D01*
X11409869Y11122500D01*
X11323215Y11115813D01*
X11252917Y11097272D01*
X11195879Y11068349D01*
X11149750Y11029352D01*
X11113636Y10980653D01*
X11086569Y10920641D01*
X11069126Y10846926D01*
X11063563Y10767036D01*
X11062830Y10756503D01*
X10896163Y10756503D01*
X10896163Y11310142D01*
X13664904Y11310142D01*
X13664904Y9459968D01*
G37*
G36*
X-11001220Y9459968D02*
G01*
X-13628819Y9459968D01*
X-13628819Y9647701D01*
X-13462152Y9647701D01*
X-13244256Y9647701D01*
X-13093681Y10783732D01*
X-12943013Y9647701D01*
X-12704144Y9647701D01*
X-12757327Y9998953D01*
X-12615759Y9998953D01*
X-12609382Y9908780D01*
X-12591629Y9834503D01*
X-12563917Y9773314D01*
X-12526732Y9722989D01*
X-12479370Y9682254D01*
X-12422055Y9652371D01*
X-12352730Y9633415D01*
X-12268628Y9626635D01*
X-12184527Y9633415D01*
X-12132281Y9647701D01*
X-11645901Y9647701D01*
X-11485708Y9647701D01*
X-11454235Y9716581D01*
X-11422693Y9760816D01*
X-11382501Y9793111D01*
X-11328263Y9815771D01*
X-11263801Y9827642D01*
X-11167887Y9832349D01*
X-11167887Y10001884D01*
X-11409229Y10001884D01*
X-11409229Y11122500D01*
X-11645901Y11122500D01*
X-11645901Y9647701D01*
X-12132281Y9647701D01*
X-12115202Y9652371D01*
X-12057887Y9682254D01*
X-12010525Y9722989D01*
X-11973382Y9773308D01*
X-11945698Y9834494D01*
X-11927961Y9908773D01*
X-11921590Y9998953D01*
X-11921590Y10144583D01*
X-12145622Y10144583D01*
X-12145622Y9984298D01*
X-12154322Y9917395D01*
X-12176694Y9875655D01*
X-12211291Y9851277D01*
X-12262309Y9842424D01*
X-12313996Y9851889D01*
X-12349320Y9878236D01*
X-12370117Y9922489D01*
X-12378996Y10007379D01*
X-12373591Y10075659D01*
X-12357385Y10142141D01*
X-12329994Y10207597D01*
X-12267558Y10305317D01*
X-12153224Y10439689D01*
X-12069859Y10534781D01*
X-12010977Y10617377D01*
X-11972148Y10689275D01*
X-11944972Y10766060D01*
X-11927709Y10855603D01*
X-11921590Y10960110D01*
X-11921590Y11122500D01*
X-12594784Y11122500D01*
X-12594784Y10906804D01*
X-12156155Y10906804D01*
X-12156155Y10878227D01*
X-12165009Y10803537D01*
X-12191509Y10733605D01*
X-12237903Y10663184D01*
X-12329536Y10557109D01*
X-12431181Y10442111D01*
X-12503327Y10344780D01*
X-12551462Y10262552D01*
X-12587530Y10175046D01*
X-12608733Y10087506D01*
X-12615759Y9998953D01*
X-12757327Y9998953D01*
X-12927443Y11122500D01*
X-13238944Y11122500D01*
X-13462152Y9647701D01*
X-13628819Y9647701D01*
X-13628819Y11289167D01*
X-11001220Y11289167D01*
X-11001220Y9459968D01*
G37*
G36*
X13571390Y-11310141D02*
G01*
X10902575Y-11310141D01*
X10902575Y-10652821D01*
X11069242Y-10652821D01*
X11069242Y-10775369D01*
X11075539Y-10864485D01*
X11093072Y-10937916D01*
X11120442Y-10998429D01*
X11157170Y-11048219D01*
X11203971Y-11088317D01*
X11261187Y-11117873D01*
X11331012Y-11136710D01*
X11416372Y-11143474D01*
X11501808Y-11136768D01*
X11571638Y-11118104D01*
X11628793Y-11088853D01*
X11675484Y-11049227D01*
X11712173Y-10999962D01*
X11739541Y-10939843D01*
X11757098Y-10866626D01*
X11763411Y-10777476D01*
X11763411Y-10647417D01*
X11758413Y-10569325D01*
X11744560Y-10505252D01*
X11723111Y-10452786D01*
X11691289Y-10407158D01*
X11648672Y-10370813D01*
X11593418Y-10343151D01*
X11593418Y-10343060D01*
X11644725Y-10317181D01*
X11685373Y-10282636D01*
X11716791Y-10238737D01*
X11738075Y-10188245D01*
X11752004Y-10124690D01*
X11757091Y-10045114D01*
X11757091Y-9992632D01*
X11750849Y-9903509D01*
X11733495Y-9830308D01*
X11706461Y-9770210D01*
X11670263Y-9720973D01*
X11624016Y-9681160D01*
X11567791Y-9651897D01*
X11552382Y-9647700D01*
X11864436Y-9647700D01*
X12087735Y-11122500D01*
X12399236Y-11122500D01*
X12470321Y-10652821D01*
X12710554Y-10652821D01*
X12710554Y-10775369D01*
X12716851Y-10864485D01*
X12734384Y-10937916D01*
X12761754Y-10998429D01*
X12798482Y-11048219D01*
X12845283Y-11088317D01*
X12902499Y-11117873D01*
X12972324Y-11136710D01*
X13057684Y-11143474D01*
X13143120Y-11136768D01*
X13212950Y-11118104D01*
X13270105Y-11088853D01*
X13316796Y-11049227D01*
X13353485Y-10999962D01*
X13380853Y-10939843D01*
X13398410Y-10866626D01*
X13404723Y-10777476D01*
X13404723Y-10647417D01*
X13399725Y-10569325D01*
X13385872Y-10505252D01*
X13364423Y-10452786D01*
X13332601Y-10407158D01*
X13289984Y-10370813D01*
X13234730Y-10343151D01*
X13234730Y-10343060D01*
X13286037Y-10317181D01*
X13326685Y-10282636D01*
X13358103Y-10238737D01*
X13379386Y-10188245D01*
X13393316Y-10124690D01*
X13398403Y-10045114D01*
X13398403Y-9992632D01*
X13392161Y-9903509D01*
X13374807Y-9830308D01*
X13347773Y-9770210D01*
X13311575Y-9720973D01*
X13265328Y-9681160D01*
X13209103Y-9651897D01*
X13140818Y-9633298D01*
X13057684Y-9626634D01*
X12975801Y-9633307D01*
X12907998Y-9652006D01*
X12851647Y-9681568D01*
X12804801Y-9721980D01*
X12768070Y-9771771D01*
X12740700Y-9832272D01*
X12723169Y-9905674D01*
X12716874Y-9994739D01*
X12716874Y-10075339D01*
X12940997Y-10075339D01*
X12940997Y-9975871D01*
X12949118Y-9912785D01*
X12969951Y-9873535D01*
X13002058Y-9850696D01*
X13049258Y-9842423D01*
X13095840Y-9851353D01*
X13131049Y-9877227D01*
X13153059Y-9918461D01*
X13161732Y-9986404D01*
X13161732Y-10093382D01*
X13157175Y-10147717D01*
X13145332Y-10185448D01*
X13127935Y-10210985D01*
X13087853Y-10236294D01*
X13026177Y-10245790D01*
X12939349Y-10245790D01*
X12939349Y-10461487D01*
X13019857Y-10461487D01*
X13070326Y-10466865D01*
X13106911Y-10481290D01*
X13133155Y-10503619D01*
X13150909Y-10533921D01*
X13163255Y-10579338D01*
X13168052Y-10645310D01*
X13168052Y-10764928D01*
X13159224Y-10847955D01*
X13138376Y-10891965D01*
X13102990Y-10918319D01*
X13051365Y-10927777D01*
X13000347Y-10918923D01*
X12965750Y-10894546D01*
X12943378Y-10852805D01*
X12934678Y-10785902D01*
X12934678Y-10652821D01*
X12710554Y-10652821D01*
X12470321Y-10652821D01*
X12622444Y-9647700D01*
X12404549Y-9647700D01*
X12253972Y-10783730D01*
X12103306Y-9647700D01*
X11864436Y-9647700D01*
X11552382Y-9647700D01*
X11499506Y-9633298D01*
X11416372Y-9626634D01*
X11334489Y-9633307D01*
X11266686Y-9652006D01*
X11210335Y-9681568D01*
X11163490Y-9721980D01*
X11126758Y-9771771D01*
X11099388Y-9832272D01*
X11081857Y-9905674D01*
X11075562Y-9994739D01*
X11075562Y-10075339D01*
X11299685Y-10075339D01*
X11299685Y-9975871D01*
X11307806Y-9912785D01*
X11328639Y-9873535D01*
X11360746Y-9850696D01*
X11407946Y-9842423D01*
X11454528Y-9851353D01*
X11489737Y-9877227D01*
X11511747Y-9918461D01*
X11520420Y-9986404D01*
X11520420Y-10093382D01*
X11515863Y-10147717D01*
X11504020Y-10185448D01*
X11486623Y-10210985D01*
X11446541Y-10236294D01*
X11384865Y-10245790D01*
X11298037Y-10245790D01*
X11298037Y-10461487D01*
X11378545Y-10461487D01*
X11429014Y-10466865D01*
X11465599Y-10481290D01*
X11491844Y-10503619D01*
X11509597Y-10533921D01*
X11521943Y-10579338D01*
X11526740Y-10645310D01*
X11526740Y-10764928D01*
X11517912Y-10847955D01*
X11497064Y-10891965D01*
X11461678Y-10918319D01*
X11410053Y-10927777D01*
X11359036Y-10918923D01*
X11324438Y-10894546D01*
X11302066Y-10852805D01*
X11293366Y-10785902D01*
X11293366Y-10652821D01*
X11069242Y-10652821D01*
X10902575Y-10652821D01*
X10902575Y-9459967D01*
X13571390Y-9459967D01*
X13571390Y-11310141D01*
G37*
G36*
X-10852200Y-11310141D02*
G01*
X-12728386Y-11310141D01*
X-12728386Y-10474035D01*
X-12561719Y-10474035D01*
X-12337412Y-10474035D01*
X-12337412Y-10458556D01*
X-12328716Y-10391643D01*
X-12306357Y-10349904D01*
X-12271786Y-10325532D01*
X-12220817Y-10316681D01*
X-12169800Y-10325535D01*
X-12135202Y-10349912D01*
X-12112831Y-10391653D01*
X-12104130Y-10458556D01*
X-12104130Y-10788009D01*
X-12112774Y-10853739D01*
X-12135055Y-10894873D01*
X-12169643Y-10918992D01*
X-12220817Y-10927777D01*
X-12271942Y-10918995D01*
X-12306504Y-10894882D01*
X-12328772Y-10853748D01*
X-12337412Y-10788009D01*
X-12337412Y-10652821D01*
X-12561536Y-10652821D01*
X-12561536Y-10771248D01*
X-12555166Y-10861377D01*
X-12537431Y-10935627D01*
X-12509747Y-10996800D01*
X-12472601Y-11047120D01*
X-12425239Y-11087855D01*
X-12367924Y-11117738D01*
X-12298598Y-11136694D01*
X-12214497Y-11143474D01*
X-12130396Y-11136694D01*
X-12061071Y-11117738D01*
X-12003756Y-11087855D01*
X-11956393Y-11047120D01*
X-11919205Y-10996794D01*
X-11891494Y-10935618D01*
X-11873742Y-10861370D01*
X-11867367Y-10771248D01*
X-11867367Y-10439688D01*
X-11875847Y-10331455D01*
X-11898667Y-10249498D01*
X-11933221Y-10187996D01*
X-11982795Y-10140405D01*
X-12045732Y-10111353D01*
X-12126295Y-10100984D01*
X-12191867Y-10108132D01*
X-12245700Y-10128339D01*
X-12290372Y-10161146D01*
X-12326748Y-10207216D01*
X-12308286Y-9863397D01*
X-11905194Y-9863397D01*
X-11905194Y-9647700D01*
X-11776875Y-9647700D01*
X-11553576Y-11122500D01*
X-11242075Y-11122500D01*
X-11018867Y-9647700D01*
X-11236762Y-9647700D01*
X-11387339Y-10783730D01*
X-11538005Y-9647700D01*
X-11776875Y-9647700D01*
X-11905194Y-9647700D01*
X-12519404Y-9647700D01*
X-12561719Y-10474035D01*
X-12728386Y-10474035D01*
X-12728386Y-9481033D01*
X-10852200Y-9481033D01*
X-10852200Y-11310141D01*
G37*
D11*
%TO.C,PS2*%
X1602400Y6397600D02*
X1602400Y5551796D01*
X1602400Y3592204D02*
X1602400Y979796D01*
X1602400Y-1306204D02*
X1602400Y-979796D01*
X1602400Y-3592204D02*
X1602400Y-3265796D01*
X1602400Y-5551796D02*
X1602400Y-6397600D01*
X1602400Y-6397600D02*
X4734204Y-6397600D01*
X4734204Y6397600D02*
X1602400Y6397600D01*
X6693796Y-6397600D02*
X7020204Y-6397600D01*
X7028293Y6397600D02*
X6693796Y6397600D01*
X8979796Y-6397600D02*
X9306204Y-6397600D01*
X9301466Y6397600D02*
X8971707Y6397600D01*
X11265796Y-6397600D02*
X14397600Y-6397600D01*
X14397600Y6397600D02*
X11270534Y6397600D01*
X14397600Y5552798D02*
X14397600Y6397600D01*
X14397600Y979796D02*
X14397600Y3591202D01*
X14397600Y-979796D02*
X14397600Y-1306204D01*
X14397600Y-3592204D02*
X14397600Y-3265796D01*
X14397600Y-6397600D02*
X14397600Y-5551796D01*
X1600000Y6050000D02*
X1602400Y6397600D01*
X1950000Y6400000D01*
X1600000Y6050000D01*
G36*
X1600000Y6050000D02*
G01*
X1602400Y6397600D01*
X1950000Y6400000D01*
X1600000Y6050000D01*
G37*
%TO.C,PS1*%
X-14757600Y6397600D02*
X-14757600Y5551796D01*
X-14757600Y3592204D02*
X-14757600Y979796D01*
X-14757600Y-1306204D02*
X-14757600Y-979796D01*
X-14757600Y-3592204D02*
X-14757600Y-3265796D01*
X-14757600Y-5551796D02*
X-14757600Y-6397600D01*
X-14757600Y-6397600D02*
X-11625796Y-6397600D01*
X-11625796Y6397600D02*
X-14757600Y6397600D01*
X-9666204Y-6397600D02*
X-9339796Y-6397600D01*
X-9331707Y6397600D02*
X-9666204Y6397600D01*
X-7380204Y-6397600D02*
X-7053796Y-6397600D01*
X-7058534Y6397600D02*
X-7388293Y6397600D01*
X-5094204Y-6397600D02*
X-1962400Y-6397600D01*
X-1962400Y6397600D02*
X-5089466Y6397600D01*
X-1962400Y5552798D02*
X-1962400Y6397600D01*
X-1962400Y979796D02*
X-1962400Y3591202D01*
X-1962400Y-979796D02*
X-1962400Y-1306204D01*
X-1962400Y-3592204D02*
X-1962400Y-3265796D01*
X-1962400Y-6397600D02*
X-1962400Y-5551796D01*
X-14760000Y6050000D02*
X-14757600Y6397600D01*
X-14410000Y6400000D01*
X-14760000Y6050000D01*
G36*
X-14760000Y6050000D02*
G01*
X-14757600Y6397600D01*
X-14410000Y6400000D01*
X-14760000Y6050000D01*
G37*
D12*
%TO.C,J1*%
X-10270000Y-11880000D02*
X-10270000Y-10500000D01*
X-8890000Y-11880000D02*
X-10270000Y-11880000D01*
X-7620000Y-9120000D02*
X10270000Y-9120000D01*
X-7620000Y-11880000D02*
X-7620000Y-9120000D01*
X-7620000Y-11880000D02*
X10270000Y-11880000D01*
X10270000Y-11880000D02*
X10270000Y-9120000D01*
%TO.C,J2*%
X-10270000Y9120000D02*
X-10270000Y10500000D01*
X-8890000Y9120000D02*
X-10270000Y9120000D01*
X-7620000Y11880000D02*
X10270000Y11880000D01*
X-7620000Y9120000D02*
X-7620000Y11880000D01*
X-7620000Y9120000D02*
X10270000Y9120000D01*
X10270000Y9120000D02*
X10270000Y11880000D01*
%TD*%
%LPC*%
D13*
%TO.C,PS2*%
X1900000Y0D03*
X1900000Y4580000D03*
X5710000Y6100000D03*
X8000000Y6100000D03*
X10290000Y6100000D03*
X14100000Y4580000D03*
X14100000Y0D03*
X14100000Y-4580000D03*
X8000000Y-6100000D03*
X5710000Y-6100000D03*
X1900000Y-4580000D03*
X1900000Y-2290000D03*
X14100000Y-2290000D03*
X10290000Y-6100000D03*
%TD*%
%TO.C,PS1*%
X-14460000Y0D03*
X-14460000Y4580000D03*
X-10650000Y6100000D03*
X-8360000Y6100000D03*
X-6070000Y6100000D03*
X-2260000Y4580000D03*
X-2260000Y0D03*
X-2260000Y-4580000D03*
X-8360000Y-6100000D03*
X-10650000Y-6100000D03*
X-14460000Y-4580000D03*
X-14460000Y-2290000D03*
X-2260000Y-2290000D03*
X-6070000Y-6100000D03*
%TD*%
D14*
%TO.C,J1*%
X-8890000Y-10500000D03*
D15*
X-6350000Y-10500000D03*
X-3810000Y-10500000D03*
X-1270000Y-10500000D03*
X1270000Y-10500000D03*
X3810000Y-10500000D03*
X6350000Y-10500000D03*
X8890000Y-10500000D03*
%TD*%
D14*
%TO.C,J2*%
X-8890000Y10500000D03*
D15*
X-6350000Y10500000D03*
X-3810000Y10500000D03*
X-1270000Y10500000D03*
X1270000Y10500000D03*
X3810000Y10500000D03*
X6350000Y10500000D03*
X8890000Y10500000D03*
%TD*%
%LPD*%
M02*
