%TF.GenerationSoftware,KiCad,Pcbnew,9.0.6*%
%TF.CreationDate,2026-01-30T16:57:50+08:00*%
%TF.ProjectId,buck,6275636b-2e6b-4696-9361-645f70636258,rev?*%
%TF.SameCoordinates,Original*%
%TF.FileFunction,Soldermask,Bot*%
%TF.FilePolarity,Negative*%
%FSLAX46Y46*%
G04 Gerber Fmt 4.6, Leading zero omitted, Abs format (unit mm)*
G04 Created by KiCad (PCBNEW 9.0.6) date 2026-01-30 16:57:50*
%MOMM*%
%LPD*%
G01*
G04 APERTURE LIST*
G04 Aperture macros list*
%AMRoundRect*
0 Rectangle with rounded corners*
0 $1 Rounding radius*
0 $2 $3 $4 $5 $6 $7 $8 $9 X,Y pos of 4 corners*
0 Add a 4 corners polygon primitive as box body*
4,1,4,$2,$3,$4,$5,$6,$7,$8,$9,$2,$3,0*
0 Add four circle primitives for the rounded corners*
1,1,$1+$1,$2,$3*
1,1,$1+$1,$4,$5*
1,1,$1+$1,$6,$7*
1,1,$1+$1,$8,$9*
0 Add four rect primitives between the rounded corners*
20,1,$1+$1,$2,$3,$4,$5,0*
20,1,$1+$1,$4,$5,$6,$7,0*
20,1,$1+$1,$6,$7,$8,$9,0*
20,1,$1+$1,$8,$9,$2,$3,0*%
G04 Aperture macros list end*
%ADD10C,1.600000*%
%ADD11R,1.700000X1.700000*%
%ADD12C,1.700000*%
%ADD13RoundRect,0.225000X-0.250000X0.225000X-0.250000X-0.225000X0.250000X-0.225000X0.250000X0.225000X0*%
%ADD14RoundRect,0.150000X0.850000X-0.600000X0.850000X0.600000X-0.850000X0.600000X-0.850000X-0.600000X0*%
%ADD15RoundRect,0.250001X0.872499X1.044999X-0.872499X1.044999X-0.872499X-1.044999X0.872499X-1.044999X0*%
%ADD16RoundRect,0.200000X0.200000X0.275000X-0.200000X0.275000X-0.200000X-0.275000X0.200000X-0.275000X0*%
G04 APERTURE END LIST*
D10*
%TO.C,PS2*%
X1900000Y0D03*
X1900000Y4580000D03*
X5710000Y6100000D03*
X8000000Y6100000D03*
X10290000Y6100000D03*
X14100000Y4580000D03*
X14100000Y0D03*
X14100000Y-4580000D03*
X8000000Y-6100000D03*
X5710000Y-6100000D03*
X1900000Y-4580000D03*
X1900000Y-2290000D03*
X14100000Y-2290000D03*
X10290000Y-6100000D03*
%TD*%
%TO.C,PS1*%
X-14460000Y0D03*
X-14460000Y4580000D03*
X-10650000Y6100000D03*
X-8360000Y6100000D03*
X-6070000Y6100000D03*
X-2260000Y4580000D03*
X-2260000Y0D03*
X-2260000Y-4580000D03*
X-8360000Y-6100000D03*
X-10650000Y-6100000D03*
X-14460000Y-4580000D03*
X-14460000Y-2290000D03*
X-2260000Y-2290000D03*
X-6070000Y-6100000D03*
%TD*%
D11*
%TO.C,J1*%
X-8890000Y-10500000D03*
D12*
X-6350000Y-10500000D03*
X-3810000Y-10500000D03*
X-1270000Y-10500000D03*
X1270000Y-10500000D03*
X3810000Y-10500000D03*
X6350000Y-10500000D03*
X8890000Y-10500000D03*
%TD*%
D11*
%TO.C,J2*%
X-8890000Y10500000D03*
D12*
X-6350000Y10500000D03*
X-3810000Y10500000D03*
X-1270000Y10500000D03*
X1270000Y10500000D03*
X3810000Y10500000D03*
X6350000Y10500000D03*
X8890000Y10500000D03*
%TD*%
D13*
%TO.C,C4*%
X5700000Y4025000D03*
X5700000Y2475000D03*
%TD*%
%TO.C,C1*%
X-12295000Y4025000D03*
X-12295000Y2475000D03*
%TD*%
D14*
%TO.C,D2*%
X11750000Y3250000D03*
X7750000Y3250000D03*
%TD*%
D15*
%TO.C,C5*%
X-5045000Y-750000D03*
X-11460000Y-750000D03*
%TD*%
D16*
%TO.C,R2*%
X12075000Y-4000000D03*
X10425000Y-4000000D03*
%TD*%
D14*
%TO.C,D1*%
X-4752500Y3250000D03*
X-8752500Y3250000D03*
%TD*%
D13*
%TO.C,C2*%
X4250000Y4025000D03*
X4250000Y2475000D03*
%TD*%
D16*
%TO.C,R1*%
X-4427500Y-4000000D03*
X-6077500Y-4000000D03*
%TD*%
D13*
%TO.C,C3*%
X-10795000Y4025000D03*
X-10795000Y2475000D03*
%TD*%
D15*
%TO.C,C6*%
X11457500Y-750000D03*
X5042500Y-750000D03*
%TD*%
M02*
