M48
; DRILL file {KiCad 9.0.6} date 2026-01-30T15:57:20+0800
; FORMAT={-:-/ absolute / inch / decimal}
; #@! TF.CreationDate,2026-01-30T15:57:20+08:00
; #@! TF.GenerationSoftware,Kicad,Pcbnew,9.0.6
; #@! TF.FileFunction,Plated,1,2,PTH
FMAT,2
INCH
; #@! TA.AperFunction,Plated,PTH,ViaDrill
T1C0.0118
; #@! TA.AperFunction,Plated,PTH,ComponentDrill
T2C0.0394
%
G90
G05
T1
X-0.3642Y0.1575
X-0.3642Y0.128
X-0.3642Y0.0984
X-0.3346Y0.1575
X-0.3346Y0.128
X-0.3346Y0.0984
X-0.3051Y0.1575
X-0.3051Y0.128
X-0.3051Y0.0984
X0.2756Y0.1575
X0.2756Y0.128
X0.2756Y0.0984
X0.3051Y0.1575
X0.3051Y0.128
X0.3051Y0.0984
X0.3346Y0.1575
X0.3346Y0.128
X0.3346Y0.0984
T2
X-0.5693Y0.1803
X-0.5693Y0.0
X-0.5693Y-0.0902
X-0.5693Y-0.1803
X-0.4193Y0.2402
X-0.4193Y-0.2402
X-0.35Y0.4134
X-0.35Y-0.4134
X-0.3291Y0.2402
X-0.3291Y-0.2402
X-0.25Y0.4134
X-0.25Y-0.4134
X-0.239Y0.2402
X-0.239Y-0.2402
X-0.15Y0.4134
X-0.15Y-0.4134
X-0.089Y0.1803
X-0.089Y0.0
X-0.089Y-0.0902
X-0.089Y-0.1803
X-0.05Y0.4134
X-0.05Y-0.4134
X0.05Y0.4134
X0.05Y-0.4134
X0.0748Y0.1803
X0.0748Y0.0
X0.0748Y-0.0902
X0.0748Y-0.1803
X0.15Y0.4134
X0.15Y-0.4134
X0.2248Y0.2402
X0.2248Y-0.2402
X0.25Y0.4134
X0.25Y-0.4134
X0.315Y0.2402
X0.315Y-0.2402
X0.35Y0.4134
X0.35Y-0.4134
X0.4051Y0.2402
X0.4051Y-0.2402
X0.5551Y0.1803
X0.5551Y0.0
X0.5551Y-0.0902
X0.5551Y-0.1803
M30
