%TF.GenerationSoftware,KiCad,Pcbnew,9.0.6*%
%TF.CreationDate,2026-01-30T16:57:50+08:00*%
%TF.ProjectId,buck,6275636b-2e6b-4696-9361-645f70636258,rev?*%
%TF.SameCoordinates,Original*%
%TF.FileFunction,Legend,Bot*%
%TF.FilePolarity,Positive*%
%FSLAX46Y46*%
G04 Gerber Fmt 4.6, Leading zero omitted, Abs format (unit mm)*
G04 Created by KiCad (PCBNEW 9.0.6) date 2026-01-30 16:57:50*
%MOMM*%
%LPD*%
G01*
G04 APERTURE LIST*
G04 Aperture macros list*
%AMRoundRect*
0 Rectangle with rounded corners*
0 $1 Rounding radius*
0 $2 $3 $4 $5 $6 $7 $8 $9 X,Y pos of 4 corners*
0 Add a 4 corners polygon primitive as box body*
4,1,4,$2,$3,$4,$5,$6,$7,$8,$9,$2,$3,0*
0 Add four circle primitives for the rounded corners*
1,1,$1+$1,$2,$3*
1,1,$1+$1,$4,$5*
1,1,$1+$1,$6,$7*
1,1,$1+$1,$8,$9*
0 Add four rect primitives between the rounded corners*
20,1,$1+$1,$2,$3,$4,$5,0*
20,1,$1+$1,$4,$5,$6,$7,0*
20,1,$1+$1,$6,$7,$8,$9,0*
20,1,$1+$1,$8,$9,$2,$3,0*%
G04 Aperture macros list end*
%ADD10C,0.300000*%
%ADD11C,0.100000*%
%ADD12C,0.120000*%
%ADD13C,1.600000*%
%ADD14R,1.700000X1.700000*%
%ADD15C,1.700000*%
%ADD16RoundRect,0.225000X-0.250000X0.225000X-0.250000X-0.225000X0.250000X-0.225000X0.250000X0.225000X0*%
%ADD17RoundRect,0.150000X0.850000X-0.600000X0.850000X0.600000X-0.850000X0.600000X-0.850000X-0.600000X0*%
%ADD18RoundRect,0.250001X0.872499X1.044999X-0.872499X1.044999X-0.872499X-1.044999X0.872499X-1.044999X0*%
%ADD19RoundRect,0.200000X0.200000X0.275000X-0.200000X0.275000X-0.200000X-0.275000X0.200000X-0.275000X0*%
G04 APERTURE END LIST*
D10*
G36*
X9253459Y-5015974D02*
G01*
X9338819Y-5009210D01*
X9408644Y-4990373D01*
X9465860Y-4960817D01*
X9512661Y-4920719D01*
X9549389Y-4870929D01*
X9576759Y-4810416D01*
X9594292Y-4736985D01*
X9600589Y-4647869D01*
X9600589Y-4525321D01*
X9376465Y-4525321D01*
X9376465Y-4658402D01*
X9367765Y-4725305D01*
X9345393Y-4767046D01*
X9310795Y-4791423D01*
X9259778Y-4800277D01*
X9208153Y-4790819D01*
X9172767Y-4764465D01*
X9151919Y-4720455D01*
X9143091Y-4637428D01*
X9143091Y-4517810D01*
X9147888Y-4451838D01*
X9160234Y-4406421D01*
X9177987Y-4376119D01*
X9204232Y-4353790D01*
X9240817Y-4339365D01*
X9291286Y-4333987D01*
X9371794Y-4333987D01*
X9371794Y-4118290D01*
X9284966Y-4118290D01*
X9223290Y-4108794D01*
X9183208Y-4083485D01*
X9165811Y-4057948D01*
X9153968Y-4020217D01*
X9149411Y-3965882D01*
X9149411Y-3858904D01*
X9158084Y-3790961D01*
X9180094Y-3749727D01*
X9215303Y-3723853D01*
X9261885Y-3714923D01*
X9309085Y-3723196D01*
X9341192Y-3746035D01*
X9362025Y-3785285D01*
X9370146Y-3848371D01*
X9370146Y-3947839D01*
X9594269Y-3947839D01*
X9594269Y-3867239D01*
X9587974Y-3778174D01*
X9570443Y-3704772D01*
X9543073Y-3644271D01*
X9506341Y-3594480D01*
X9459496Y-3554068D01*
X9403145Y-3524506D01*
X9335342Y-3505807D01*
X9253459Y-3499134D01*
X9170325Y-3505798D01*
X9102040Y-3524397D01*
X9045815Y-3553660D01*
X8999568Y-3593473D01*
X8963370Y-3642710D01*
X8936336Y-3702808D01*
X8918982Y-3776009D01*
X8912740Y-3865132D01*
X8912740Y-3917614D01*
X8917827Y-3997190D01*
X8931756Y-4060745D01*
X8953040Y-4111237D01*
X8984458Y-4155136D01*
X9025106Y-4189681D01*
X9076413Y-4215560D01*
X9076413Y-4215651D01*
X9021159Y-4243313D01*
X8978542Y-4279658D01*
X8946720Y-4325286D01*
X8925271Y-4377752D01*
X8911418Y-4441825D01*
X8906420Y-4519917D01*
X8906420Y-4649976D01*
X8912733Y-4739126D01*
X8930290Y-4812343D01*
X8957658Y-4872462D01*
X8994347Y-4921727D01*
X9041038Y-4961353D01*
X9098193Y-4990604D01*
X9168023Y-5009268D01*
X9253459Y-5015974D01*
G37*
G36*
X8805395Y-3520200D02*
G01*
X8566525Y-3520200D01*
X8415400Y-4659685D01*
X8416316Y-4659685D01*
X8265282Y-3520200D01*
X8047387Y-3520200D01*
X8270595Y-4995000D01*
X8582096Y-4995000D01*
X8805395Y-3520200D01*
G37*
G36*
X7612147Y-5015974D02*
G01*
X7697507Y-5009210D01*
X7767332Y-4990373D01*
X7824548Y-4960817D01*
X7871349Y-4920719D01*
X7908077Y-4870929D01*
X7935447Y-4810416D01*
X7952980Y-4736985D01*
X7959277Y-4647869D01*
X7959277Y-4525321D01*
X7735153Y-4525321D01*
X7735153Y-4658402D01*
X7726453Y-4725305D01*
X7704081Y-4767046D01*
X7669484Y-4791423D01*
X7618466Y-4800277D01*
X7566841Y-4790819D01*
X7531455Y-4764465D01*
X7510607Y-4720455D01*
X7501779Y-4637428D01*
X7501779Y-4517810D01*
X7506576Y-4451838D01*
X7518922Y-4406421D01*
X7536676Y-4376119D01*
X7562920Y-4353790D01*
X7599505Y-4339365D01*
X7649974Y-4333987D01*
X7730482Y-4333987D01*
X7730482Y-4118290D01*
X7643654Y-4118290D01*
X7581978Y-4108794D01*
X7541896Y-4083485D01*
X7524499Y-4057948D01*
X7512656Y-4020217D01*
X7508099Y-3965882D01*
X7508099Y-3858904D01*
X7516772Y-3790961D01*
X7538782Y-3749727D01*
X7573991Y-3723853D01*
X7620573Y-3714923D01*
X7667773Y-3723196D01*
X7699880Y-3746035D01*
X7720713Y-3785285D01*
X7728834Y-3848371D01*
X7728834Y-3947839D01*
X7952957Y-3947839D01*
X7952957Y-3867239D01*
X7946662Y-3778174D01*
X7929131Y-3704772D01*
X7901761Y-3644271D01*
X7865030Y-3594480D01*
X7818184Y-3554068D01*
X7761833Y-3524506D01*
X7694030Y-3505807D01*
X7612147Y-3499134D01*
X7529013Y-3505798D01*
X7460728Y-3524397D01*
X7404503Y-3553660D01*
X7358256Y-3593473D01*
X7322058Y-3642710D01*
X7295024Y-3702808D01*
X7277670Y-3776009D01*
X7271428Y-3865132D01*
X7271428Y-3917614D01*
X7276515Y-3997190D01*
X7290445Y-4060745D01*
X7311728Y-4111237D01*
X7343146Y-4155136D01*
X7383794Y-4189681D01*
X7435101Y-4215560D01*
X7435101Y-4215651D01*
X7379847Y-4243313D01*
X7337230Y-4279658D01*
X7305408Y-4325286D01*
X7283959Y-4377752D01*
X7270106Y-4441825D01*
X7265108Y-4519917D01*
X7265108Y-4649976D01*
X7271421Y-4739126D01*
X7288978Y-4812343D01*
X7316346Y-4872462D01*
X7353035Y-4921727D01*
X7399726Y-4961353D01*
X7456881Y-4990604D01*
X7526711Y-5009268D01*
X7612147Y-5015974D01*
G37*
G36*
X6767219Y-4995000D02*
G01*
X6401221Y-4995000D01*
X6314427Y-4988550D01*
X6243428Y-4970624D01*
X6185332Y-4942636D01*
X6137897Y-4904965D01*
X6100135Y-4857470D01*
X6072153Y-4799639D01*
X6054279Y-4729325D01*
X6047863Y-4643748D01*
X6047863Y-4517810D01*
X6048564Y-4509384D01*
X6284534Y-4509384D01*
X6284534Y-4637428D01*
X6292910Y-4708820D01*
X6313110Y-4747704D01*
X6347413Y-4770676D01*
X6401221Y-4779303D01*
X6530456Y-4779303D01*
X6530456Y-4333987D01*
X6430622Y-4333987D01*
X6379698Y-4338945D01*
X6343552Y-4352056D01*
X6318331Y-4371905D01*
X6301350Y-4399562D01*
X6289300Y-4443257D01*
X6284534Y-4509384D01*
X6048564Y-4509384D01*
X6056281Y-4416650D01*
X6079032Y-4339785D01*
X6113744Y-4281834D01*
X6160099Y-4238962D01*
X6219871Y-4209331D01*
X6219871Y-4209148D01*
X6174049Y-4183710D01*
X6137107Y-4149615D01*
X6108038Y-4105925D01*
X6088379Y-4056401D01*
X6075586Y-3995159D01*
X6070944Y-3919720D01*
X6070944Y-3884000D01*
X6307615Y-3884000D01*
X6307615Y-3965882D01*
X6312172Y-4020217D01*
X6324015Y-4057948D01*
X6341412Y-4083485D01*
X6381493Y-4108794D01*
X6443170Y-4118290D01*
X6530456Y-4118290D01*
X6530456Y-3735897D01*
X6422195Y-3735897D01*
X6369020Y-3745273D01*
X6335184Y-3770610D01*
X6315609Y-3812017D01*
X6307615Y-3884000D01*
X6070944Y-3884000D01*
X6070944Y-3860919D01*
X6077046Y-3773431D01*
X6093800Y-3703551D01*
X6119552Y-3647953D01*
X6153650Y-3604006D01*
X6197157Y-3569680D01*
X6253247Y-3543580D01*
X6324899Y-3526472D01*
X6415876Y-3520200D01*
X6767219Y-3520200D01*
X6767219Y-4995000D01*
G37*
G36*
X5581481Y-5015974D02*
G01*
X5665582Y-5009194D01*
X5734908Y-4990238D01*
X5792222Y-4960355D01*
X5839585Y-4919620D01*
X5876731Y-4869300D01*
X5904415Y-4808127D01*
X5922150Y-4733877D01*
X5928520Y-4643748D01*
X5928520Y-3520200D01*
X5691848Y-3520200D01*
X5691848Y-4660509D01*
X5683376Y-4728247D01*
X5662264Y-4767670D01*
X5627443Y-4791630D01*
X5577268Y-4800277D01*
X5527029Y-4791623D01*
X5492271Y-4767670D01*
X5471160Y-4728247D01*
X5462687Y-4660509D01*
X5462687Y-3520200D01*
X5234351Y-3520200D01*
X5234351Y-4643748D01*
X5240726Y-4733870D01*
X5258478Y-4808118D01*
X5286189Y-4869294D01*
X5323377Y-4919620D01*
X5370740Y-4960355D01*
X5428054Y-4990238D01*
X5497380Y-5009194D01*
X5581481Y-5015974D01*
G37*
G36*
X4747819Y-5015974D02*
G01*
X4830864Y-5009274D01*
X4899343Y-4990539D01*
X4955982Y-4960997D01*
X5002809Y-4920719D01*
X5039698Y-4870891D01*
X5067056Y-4810950D01*
X5084497Y-4738871D01*
X5090736Y-4652083D01*
X5090736Y-3863025D01*
X5084499Y-3776288D01*
X5067059Y-3704237D01*
X5039702Y-3644309D01*
X5002809Y-3594480D01*
X4955976Y-3554159D01*
X4899335Y-3524590D01*
X4830857Y-3505839D01*
X4747819Y-3499134D01*
X4664785Y-3505846D01*
X4596328Y-3524614D01*
X4539716Y-3554211D01*
X4492921Y-3594572D01*
X4456025Y-3644402D01*
X4428667Y-3704317D01*
X4411230Y-3776338D01*
X4404994Y-3863025D01*
X4404994Y-4021295D01*
X4629025Y-4021295D01*
X4629025Y-3848371D01*
X4637327Y-3785731D01*
X4658760Y-3746448D01*
X4692121Y-3723352D01*
X4741591Y-3714923D01*
X4791013Y-3723348D01*
X4824347Y-3746439D01*
X4845767Y-3785722D01*
X4854065Y-3848371D01*
X4854065Y-4668935D01*
X4845824Y-4730415D01*
X4824497Y-4769091D01*
X4791173Y-4791921D01*
X4741591Y-4800277D01*
X4691961Y-4791918D01*
X4658609Y-4769083D01*
X4637270Y-4730406D01*
X4629025Y-4668935D01*
X4629025Y-4441423D01*
X4404994Y-4441423D01*
X4404994Y-4652083D01*
X4411231Y-4738820D01*
X4428670Y-4810871D01*
X4456028Y-4870799D01*
X4492921Y-4920628D01*
X4539710Y-4960946D01*
X4596320Y-4990515D01*
X4664779Y-5009268D01*
X4747819Y-5015974D01*
G37*
G36*
X4273011Y-3520200D02*
G01*
X4036248Y-3520200D01*
X4036248Y-4129189D01*
X3747278Y-3520200D01*
X3509783Y-3520200D01*
X3786388Y-4062694D01*
X3506394Y-4995000D01*
X3753873Y-4995000D01*
X3947496Y-4345252D01*
X4036248Y-4524771D01*
X4036248Y-4995000D01*
X4273011Y-4995000D01*
X4273011Y-3520200D01*
G37*
G36*
X-8096690Y-5015974D02*
G01*
X-8012589Y-5009194D01*
X-7943263Y-4990238D01*
X-7885948Y-4960355D01*
X-7838586Y-4919620D01*
X-7801440Y-4869300D01*
X-7773756Y-4808127D01*
X-7756021Y-4733877D01*
X-7749651Y-4643748D01*
X-7749651Y-4525321D01*
X-7973775Y-4525321D01*
X-7973775Y-4660509D01*
X-7982415Y-4726248D01*
X-8004683Y-4767382D01*
X-8039245Y-4791495D01*
X-8090370Y-4800277D01*
X-8141544Y-4791492D01*
X-8176132Y-4767373D01*
X-8198413Y-4726239D01*
X-8207057Y-4660509D01*
X-8207057Y-4331056D01*
X-8198356Y-4264153D01*
X-8175985Y-4222412D01*
X-8141387Y-4198035D01*
X-8090370Y-4189181D01*
X-8039401Y-4198032D01*
X-8004830Y-4222404D01*
X-7982471Y-4264143D01*
X-7973775Y-4331056D01*
X-7973775Y-4346535D01*
X-7749468Y-4346535D01*
X-7791783Y-3520200D01*
X-8405993Y-3520200D01*
X-8405993Y-3735897D01*
X-8002901Y-3735897D01*
X-7984399Y-4080463D01*
X-7983850Y-4080463D01*
X-8020815Y-4033646D01*
X-8065487Y-4000839D01*
X-8119320Y-3980632D01*
X-8184892Y-3973484D01*
X-8265455Y-3983853D01*
X-8328392Y-4012905D01*
X-8377966Y-4060496D01*
X-8412520Y-4121998D01*
X-8435340Y-4203955D01*
X-8443820Y-4312188D01*
X-8443820Y-4643748D01*
X-8437445Y-4733870D01*
X-8419693Y-4808118D01*
X-8391982Y-4869294D01*
X-8354794Y-4919620D01*
X-8307431Y-4960355D01*
X-8250116Y-4990238D01*
X-8180791Y-5009194D01*
X-8096690Y-5015974D01*
G37*
G36*
X-8534312Y-3520200D02*
G01*
X-8773182Y-3520200D01*
X-8924307Y-4659685D01*
X-8923391Y-4659685D01*
X-9074425Y-3520200D01*
X-9292320Y-3520200D01*
X-9069112Y-4995000D01*
X-8757611Y-4995000D01*
X-8534312Y-3520200D01*
G37*
G36*
X-9732781Y-4995000D02*
G01*
X-10098779Y-4995000D01*
X-10185573Y-4988550D01*
X-10256572Y-4970624D01*
X-10314668Y-4942636D01*
X-10362103Y-4904965D01*
X-10399865Y-4857470D01*
X-10427847Y-4799639D01*
X-10445721Y-4729325D01*
X-10452137Y-4643748D01*
X-10452137Y-4517810D01*
X-10451436Y-4509384D01*
X-10215466Y-4509384D01*
X-10215466Y-4637428D01*
X-10207090Y-4708820D01*
X-10186890Y-4747704D01*
X-10152587Y-4770676D01*
X-10098779Y-4779303D01*
X-9969544Y-4779303D01*
X-9969544Y-4333987D01*
X-10069378Y-4333987D01*
X-10120302Y-4338945D01*
X-10156448Y-4352056D01*
X-10181669Y-4371905D01*
X-10198650Y-4399562D01*
X-10210700Y-4443257D01*
X-10215466Y-4509384D01*
X-10451436Y-4509384D01*
X-10443719Y-4416650D01*
X-10420968Y-4339785D01*
X-10386256Y-4281834D01*
X-10339901Y-4238962D01*
X-10280129Y-4209331D01*
X-10280129Y-4209148D01*
X-10325951Y-4183710D01*
X-10362893Y-4149615D01*
X-10391962Y-4105925D01*
X-10411621Y-4056401D01*
X-10424414Y-3995159D01*
X-10429056Y-3919720D01*
X-10429056Y-3884000D01*
X-10192385Y-3884000D01*
X-10192385Y-3965882D01*
X-10187828Y-4020217D01*
X-10175985Y-4057948D01*
X-10158588Y-4083485D01*
X-10118507Y-4108794D01*
X-10056830Y-4118290D01*
X-9969544Y-4118290D01*
X-9969544Y-3735897D01*
X-10077805Y-3735897D01*
X-10130981Y-3745273D01*
X-10164816Y-3770610D01*
X-10184391Y-3812017D01*
X-10192385Y-3884000D01*
X-10429056Y-3884000D01*
X-10429056Y-3860919D01*
X-10422954Y-3773431D01*
X-10406201Y-3703551D01*
X-10380449Y-3647953D01*
X-10346350Y-3604006D01*
X-10302843Y-3569680D01*
X-10246754Y-3543580D01*
X-10175101Y-3526472D01*
X-10084124Y-3520200D01*
X-9732781Y-3520200D01*
X-9732781Y-4995000D01*
G37*
G36*
X-10918519Y-5015974D02*
G01*
X-10834418Y-5009194D01*
X-10765093Y-4990238D01*
X-10707778Y-4960355D01*
X-10660415Y-4919620D01*
X-10623269Y-4869300D01*
X-10595585Y-4808127D01*
X-10577850Y-4733877D01*
X-10571481Y-4643748D01*
X-10571481Y-3520200D01*
X-10808152Y-3520200D01*
X-10808152Y-4660509D01*
X-10816624Y-4728247D01*
X-10837736Y-4767670D01*
X-10872557Y-4791630D01*
X-10922732Y-4800277D01*
X-10972971Y-4791623D01*
X-11007729Y-4767670D01*
X-11028840Y-4728247D01*
X-11037313Y-4660509D01*
X-11037313Y-3520200D01*
X-11265649Y-3520200D01*
X-11265649Y-4643748D01*
X-11259274Y-4733870D01*
X-11241522Y-4808118D01*
X-11213811Y-4869294D01*
X-11176623Y-4919620D01*
X-11129260Y-4960355D01*
X-11071946Y-4990238D01*
X-11002620Y-5009194D01*
X-10918519Y-5015974D01*
G37*
G36*
X-11752181Y-5015974D02*
G01*
X-11669136Y-5009274D01*
X-11600657Y-4990539D01*
X-11544018Y-4960997D01*
X-11497191Y-4920719D01*
X-11460302Y-4870891D01*
X-11432944Y-4810950D01*
X-11415503Y-4738871D01*
X-11409264Y-4652083D01*
X-11409264Y-3863025D01*
X-11415501Y-3776288D01*
X-11432941Y-3704237D01*
X-11460298Y-3644309D01*
X-11497191Y-3594480D01*
X-11544024Y-3554159D01*
X-11600666Y-3524590D01*
X-11669143Y-3505839D01*
X-11752181Y-3499134D01*
X-11835215Y-3505846D01*
X-11903672Y-3524614D01*
X-11960284Y-3554211D01*
X-12007079Y-3594572D01*
X-12043975Y-3644402D01*
X-12071333Y-3704317D01*
X-12088770Y-3776338D01*
X-12095006Y-3863025D01*
X-12095006Y-4021295D01*
X-11870975Y-4021295D01*
X-11870975Y-3848371D01*
X-11862673Y-3785731D01*
X-11841240Y-3746448D01*
X-11807879Y-3723352D01*
X-11758409Y-3714923D01*
X-11708988Y-3723348D01*
X-11675653Y-3746439D01*
X-11654233Y-3785722D01*
X-11645935Y-3848371D01*
X-11645935Y-4668935D01*
X-11654176Y-4730415D01*
X-11675503Y-4769091D01*
X-11708827Y-4791921D01*
X-11758409Y-4800277D01*
X-11808039Y-4791918D01*
X-11841391Y-4769083D01*
X-11862730Y-4730406D01*
X-11870975Y-4668935D01*
X-11870975Y-4441423D01*
X-12095006Y-4441423D01*
X-12095006Y-4652083D01*
X-12088769Y-4738820D01*
X-12071330Y-4810871D01*
X-12043972Y-4870799D01*
X-12007079Y-4920628D01*
X-11960290Y-4960946D01*
X-11903681Y-4990515D01*
X-11835221Y-5009268D01*
X-11752181Y-5015974D01*
G37*
G36*
X-12226989Y-3520200D02*
G01*
X-12463752Y-3520200D01*
X-12463752Y-4129189D01*
X-12752722Y-3520200D01*
X-12990217Y-3520200D01*
X-12713612Y-4062694D01*
X-12993606Y-4995000D01*
X-12746127Y-4995000D01*
X-12552504Y-4345252D01*
X-12463752Y-4524771D01*
X-12463752Y-4995000D01*
X-12226989Y-4995000D01*
X-12226989Y-3520200D01*
G37*
D11*
%TO.C,PS2*%
X1602400Y6397600D02*
X1602400Y5551796D01*
X1602400Y3592204D02*
X1602400Y979796D01*
X1602400Y-1306204D02*
X1602400Y-979796D01*
X1602400Y-3592204D02*
X1602400Y-3265796D01*
X1602400Y-5551796D02*
X1602400Y-6397600D01*
X1602400Y-6397600D02*
X4734204Y-6397600D01*
X4734204Y6397600D02*
X1602400Y6397600D01*
X6693796Y-6397600D02*
X7020204Y-6397600D01*
X7028293Y6397600D02*
X6693796Y6397600D01*
X8979796Y-6397600D02*
X9306204Y-6397600D01*
X9301466Y6397600D02*
X8971707Y6397600D01*
X11265796Y-6397600D02*
X14397600Y-6397600D01*
X14397600Y6397600D02*
X11270534Y6397600D01*
X14397600Y5552798D02*
X14397600Y6397600D01*
X14397600Y979796D02*
X14397600Y3591202D01*
X14397600Y-979796D02*
X14397600Y-1306204D01*
X14397600Y-3592204D02*
X14397600Y-3265796D01*
X14397600Y-6397600D02*
X14397600Y-5551796D01*
%TO.C,PS1*%
X-14757600Y6397600D02*
X-14757600Y5551796D01*
X-14757600Y3592204D02*
X-14757600Y979796D01*
X-14757600Y-1306204D02*
X-14757600Y-979796D01*
X-14757600Y-3592204D02*
X-14757600Y-3265796D01*
X-14757600Y-5551796D02*
X-14757600Y-6397600D01*
X-14757600Y-6397600D02*
X-11625796Y-6397600D01*
X-11625796Y6397600D02*
X-14757600Y6397600D01*
X-9666204Y-6397600D02*
X-9339796Y-6397600D01*
X-9331707Y6397600D02*
X-9666204Y6397600D01*
X-7380204Y-6397600D02*
X-7053796Y-6397600D01*
X-7058534Y6397600D02*
X-7388293Y6397600D01*
X-5094204Y-6397600D02*
X-1962400Y-6397600D01*
X-1962400Y6397600D02*
X-5089466Y6397600D01*
X-1962400Y5552798D02*
X-1962400Y6397600D01*
X-1962400Y979796D02*
X-1962400Y3591202D01*
X-1962400Y-979796D02*
X-1962400Y-1306204D01*
X-1962400Y-3592204D02*
X-1962400Y-3265796D01*
X-1962400Y-6397600D02*
X-1962400Y-5551796D01*
D12*
%TO.C,C4*%
X5190000Y3390580D02*
X5190000Y3109420D01*
X6210000Y3390580D02*
X6210000Y3109420D01*
%TO.C,C1*%
X-12805000Y3390580D02*
X-12805000Y3109420D01*
X-11785000Y3390580D02*
X-11785000Y3109420D01*
D11*
%TO.C,D2*%
X6550000Y4650000D02*
X6550000Y1850000D01*
X6550000Y4650000D02*
X12950000Y4650000D01*
X12950000Y1850000D02*
X6550000Y1850000D01*
X12950000Y1850000D02*
X12950000Y4650000D01*
D12*
%TO.C,C5*%
X-11902500Y1510000D02*
X-3662500Y1510000D01*
X-3662500Y1510000D02*
X-3662500Y-3010000D01*
X-3662500Y-3010000D02*
X-11902500Y-3010000D01*
%TO.C,R2*%
X11487258Y-3477500D02*
X11012742Y-3477500D01*
X11487258Y-4522500D02*
X11012742Y-4522500D01*
D11*
%TO.C,D1*%
X-9952500Y4650000D02*
X-9952500Y1850000D01*
X-9952500Y4650000D02*
X-3552500Y4650000D01*
X-3552500Y1850000D02*
X-9952500Y1850000D01*
X-3552500Y1850000D02*
X-3552500Y4650000D01*
D12*
%TO.C,C2*%
X3740000Y3390580D02*
X3740000Y3109420D01*
X4760000Y3390580D02*
X4760000Y3109420D01*
%TO.C,R1*%
X-5015242Y-3477500D02*
X-5489758Y-3477500D01*
X-5015242Y-4522500D02*
X-5489758Y-4522500D01*
%TO.C,C3*%
X-11305000Y3390580D02*
X-11305000Y3109420D01*
X-10285000Y3390580D02*
X-10285000Y3109420D01*
%TO.C,C6*%
X4600000Y1510000D02*
X12840000Y1510000D01*
X12840000Y1510000D02*
X12840000Y-3010000D01*
X12840000Y-3010000D02*
X4600000Y-3010000D01*
%TD*%
%LPC*%
D13*
%TO.C,PS2*%
X1900000Y0D03*
X1900000Y4580000D03*
X5710000Y6100000D03*
X8000000Y6100000D03*
X10290000Y6100000D03*
X14100000Y4580000D03*
X14100000Y0D03*
X14100000Y-4580000D03*
X8000000Y-6100000D03*
X5710000Y-6100000D03*
X1900000Y-4580000D03*
X1900000Y-2290000D03*
X14100000Y-2290000D03*
X10290000Y-6100000D03*
%TD*%
%TO.C,PS1*%
X-14460000Y0D03*
X-14460000Y4580000D03*
X-10650000Y6100000D03*
X-8360000Y6100000D03*
X-6070000Y6100000D03*
X-2260000Y4580000D03*
X-2260000Y0D03*
X-2260000Y-4580000D03*
X-8360000Y-6100000D03*
X-10650000Y-6100000D03*
X-14460000Y-4580000D03*
X-14460000Y-2290000D03*
X-2260000Y-2290000D03*
X-6070000Y-6100000D03*
%TD*%
D14*
%TO.C,J1*%
X-8890000Y-10500000D03*
D15*
X-6350000Y-10500000D03*
X-3810000Y-10500000D03*
X-1270000Y-10500000D03*
X1270000Y-10500000D03*
X3810000Y-10500000D03*
X6350000Y-10500000D03*
X8890000Y-10500000D03*
%TD*%
D14*
%TO.C,J2*%
X-8890000Y10500000D03*
D15*
X-6350000Y10500000D03*
X-3810000Y10500000D03*
X-1270000Y10500000D03*
X1270000Y10500000D03*
X3810000Y10500000D03*
X6350000Y10500000D03*
X8890000Y10500000D03*
%TD*%
D16*
%TO.C,C4*%
X5700000Y4025000D03*
X5700000Y2475000D03*
%TD*%
%TO.C,C1*%
X-12295000Y4025000D03*
X-12295000Y2475000D03*
%TD*%
D17*
%TO.C,D2*%
X11750000Y3250000D03*
X7750000Y3250000D03*
%TD*%
D18*
%TO.C,C5*%
X-5045000Y-750000D03*
X-11460000Y-750000D03*
%TD*%
D19*
%TO.C,R2*%
X12075000Y-4000000D03*
X10425000Y-4000000D03*
%TD*%
D17*
%TO.C,D1*%
X-4752500Y3250000D03*
X-8752500Y3250000D03*
%TD*%
D16*
%TO.C,C2*%
X4250000Y4025000D03*
X4250000Y2475000D03*
%TD*%
D19*
%TO.C,R1*%
X-4427500Y-4000000D03*
X-6077500Y-4000000D03*
%TD*%
D16*
%TO.C,C3*%
X-10795000Y4025000D03*
X-10795000Y2475000D03*
%TD*%
D18*
%TO.C,C6*%
X11457500Y-750000D03*
X5042500Y-750000D03*
%TD*%
%LPD*%
M02*
